%TF.GenerationSoftware,KiCad,Pcbnew,(6.0.7)*%
%TF.CreationDate,2023-05-23T08:38:14-04:00*%
%TF.ProjectId,ECELab_v1,4543454c-6162-45f7-9631-2e6b69636164,rev?*%
%TF.SameCoordinates,Original*%
%TF.FileFunction,Soldermask,Top*%
%TF.FilePolarity,Negative*%
%FSLAX46Y46*%
G04 Gerber Fmt 4.6, Leading zero omitted, Abs format (unit mm)*
G04 Created by KiCad (PCBNEW (6.0.7)) date 2023-05-23 08:38:14*
%MOMM*%
%LPD*%
G01*
G04 APERTURE LIST*
G04 Aperture macros list*
%AMRoundRect*
0 Rectangle with rounded corners*
0 $1 Rounding radius*
0 $2 $3 $4 $5 $6 $7 $8 $9 X,Y pos of 4 corners*
0 Add a 4 corners polygon primitive as box body*
4,1,4,$2,$3,$4,$5,$6,$7,$8,$9,$2,$3,0*
0 Add four circle primitives for the rounded corners*
1,1,$1+$1,$2,$3*
1,1,$1+$1,$4,$5*
1,1,$1+$1,$6,$7*
1,1,$1+$1,$8,$9*
0 Add four rect primitives between the rounded corners*
20,1,$1+$1,$2,$3,$4,$5,0*
20,1,$1+$1,$4,$5,$6,$7,0*
20,1,$1+$1,$6,$7,$8,$9,0*
20,1,$1+$1,$8,$9,$2,$3,0*%
%AMFreePoly0*
4,1,6,1.000000,0.000000,0.500000,-0.750000,-0.500000,-0.750000,-0.500000,0.750000,0.500000,0.750000,1.000000,0.000000,1.000000,0.000000,$1*%
%AMFreePoly1*
4,1,6,0.500000,-0.750000,-0.650000,-0.750000,-0.150000,0.000000,-0.650000,0.750000,0.500000,0.750000,0.500000,-0.750000,0.500000,-0.750000,$1*%
G04 Aperture macros list end*
%ADD10R,1.000000X1.500000*%
%ADD11RoundRect,0.140000X0.170000X-0.140000X0.170000X0.140000X-0.170000X0.140000X-0.170000X-0.140000X0*%
%ADD12RoundRect,0.140000X-0.170000X0.140000X-0.170000X-0.140000X0.170000X-0.140000X0.170000X0.140000X0*%
%ADD13R,0.600000X0.450000*%
%ADD14RoundRect,0.135000X0.185000X-0.135000X0.185000X0.135000X-0.185000X0.135000X-0.185000X-0.135000X0*%
%ADD15RoundRect,0.140000X-0.140000X-0.170000X0.140000X-0.170000X0.140000X0.170000X-0.140000X0.170000X0*%
%ADD16R,0.400000X0.500000*%
%ADD17RoundRect,0.140000X0.140000X0.170000X-0.140000X0.170000X-0.140000X-0.170000X0.140000X-0.170000X0*%
%ADD18RoundRect,0.135000X-0.135000X-0.185000X0.135000X-0.185000X0.135000X0.185000X-0.135000X0.185000X0*%
%ADD19RoundRect,0.218750X0.256250X-0.218750X0.256250X0.218750X-0.256250X0.218750X-0.256250X-0.218750X0*%
%ADD20R,0.450000X1.750000*%
%ADD21R,1.700000X1.700000*%
%ADD22O,1.700000X1.700000*%
%ADD23FreePoly0,0.000000*%
%ADD24FreePoly1,0.000000*%
%ADD25C,5.000000*%
%ADD26RoundRect,0.135000X0.135000X0.185000X-0.135000X0.185000X-0.135000X-0.185000X0.135000X-0.185000X0*%
%ADD27RoundRect,0.218750X-0.218750X-0.256250X0.218750X-0.256250X0.218750X0.256250X-0.218750X0.256250X0*%
%ADD28RoundRect,0.135000X-0.185000X0.135000X-0.185000X-0.135000X0.185000X-0.135000X0.185000X0.135000X0*%
%ADD29R,0.600000X1.500000*%
%ADD30FreePoly0,180.000000*%
%ADD31FreePoly1,180.000000*%
%ADD32R,1.524000X1.524000*%
%ADD33C,1.524000*%
%ADD34RoundRect,0.147500X-0.147500X-0.172500X0.147500X-0.172500X0.147500X0.172500X-0.147500X0.172500X0*%
%ADD35R,1.500000X2.000000*%
%ADD36R,3.800000X2.000000*%
%ADD37C,0.650000*%
%ADD38R,1.450000X0.600000*%
%ADD39R,1.450000X0.300000*%
%ADD40O,1.600000X1.000000*%
%ADD41O,2.100000X1.000000*%
%ADD42R,0.450000X0.600000*%
%ADD43RoundRect,0.075000X-0.662500X-0.075000X0.662500X-0.075000X0.662500X0.075000X-0.662500X0.075000X0*%
%ADD44RoundRect,0.075000X-0.075000X-0.662500X0.075000X-0.662500X0.075000X0.662500X-0.075000X0.662500X0*%
%ADD45R,4.500000X2.000000*%
%ADD46RoundRect,0.218750X0.218750X0.256250X-0.218750X0.256250X-0.218750X-0.256250X0.218750X-0.256250X0*%
%ADD47C,5.400000*%
G04 APERTURE END LIST*
D10*
%TO.C,JP422*%
X203850000Y-77470000D03*
X202550000Y-77470000D03*
%TD*%
D11*
%TO.C,C202*%
X125628400Y-118158200D03*
X125628400Y-117198200D03*
%TD*%
D12*
%TO.C,C209*%
X154609800Y-143258700D03*
X154609800Y-144218700D03*
%TD*%
D13*
%TO.C,D206*%
X121065000Y-109397800D03*
X118965000Y-109397800D03*
%TD*%
D14*
%TO.C,R429*%
X224000000Y-67360000D03*
X224000000Y-66340000D03*
%TD*%
D15*
%TO.C,C205*%
X118976200Y-107442000D03*
X119936200Y-107442000D03*
%TD*%
D10*
%TO.C,JP413*%
X203850000Y-92710000D03*
X202550000Y-92710000D03*
%TD*%
D16*
%TO.C,RN403*%
X217531200Y-135932800D03*
X218231200Y-135932800D03*
X218231200Y-134932800D03*
X217531200Y-134932800D03*
%TD*%
D17*
%TO.C,C308*%
X136344600Y-114274600D03*
X135384600Y-114274600D03*
%TD*%
%TO.C,C204*%
X119860000Y-121513600D03*
X118900000Y-121513600D03*
%TD*%
D10*
%TO.C,JP412*%
X210170000Y-123190000D03*
X211470000Y-123190000D03*
%TD*%
D18*
%TO.C,R302*%
X132890800Y-124561600D03*
X133910800Y-124561600D03*
%TD*%
D19*
%TO.C,FB203*%
X233654600Y-147421700D03*
X233654600Y-145846700D03*
%TD*%
D15*
%TO.C,C309*%
X133733600Y-115646200D03*
X134693600Y-115646200D03*
%TD*%
D20*
%TO.C,U406*%
X191355000Y-77260000D03*
X192005000Y-77260000D03*
X192655000Y-77260000D03*
X193305000Y-77260000D03*
X193955000Y-77260000D03*
X194605000Y-77260000D03*
X195255000Y-77260000D03*
X195905000Y-77260000D03*
X196555000Y-77260000D03*
X197205000Y-77260000D03*
X197855000Y-77260000D03*
X198505000Y-77260000D03*
X199155000Y-77260000D03*
X199805000Y-77260000D03*
X199805000Y-70060000D03*
X199155000Y-70060000D03*
X198505000Y-70060000D03*
X197855000Y-70060000D03*
X197205000Y-70060000D03*
X196555000Y-70060000D03*
X195905000Y-70060000D03*
X195255000Y-70060000D03*
X194605000Y-70060000D03*
X193955000Y-70060000D03*
X193305000Y-70060000D03*
X192655000Y-70060000D03*
X192005000Y-70060000D03*
X191355000Y-70060000D03*
%TD*%
D14*
%TO.C,R414*%
X221462600Y-113032000D03*
X221462600Y-112012000D03*
%TD*%
D21*
%TO.C,J303*%
X132842000Y-131231400D03*
D22*
X132842000Y-133771400D03*
X132842000Y-136311400D03*
%TD*%
D14*
%TO.C,R431*%
X199923400Y-136120600D03*
X199923400Y-135100600D03*
%TD*%
D23*
%TO.C,JP404*%
X210095000Y-115570000D03*
D24*
X211545000Y-115570000D03*
%TD*%
D10*
%TO.C,JP408*%
X210170000Y-119380000D03*
X211470000Y-119380000D03*
%TD*%
D21*
%TO.C,U501*%
X242037000Y-83477000D03*
D22*
X239497000Y-83477000D03*
X242037000Y-86017000D03*
X239497000Y-86017000D03*
X242037000Y-88557000D03*
X239497000Y-88557000D03*
X242037000Y-91097000D03*
X239497000Y-91097000D03*
X242037000Y-93637000D03*
X239497000Y-93637000D03*
X242037000Y-96177000D03*
X239497000Y-96177000D03*
X242037000Y-98717000D03*
X239497000Y-98717000D03*
X242037000Y-101257000D03*
X239497000Y-101257000D03*
X242037000Y-103797000D03*
X239497000Y-103797000D03*
X242037000Y-106337000D03*
X239497000Y-106337000D03*
X242037000Y-108877000D03*
X239497000Y-108877000D03*
X242037000Y-111417000D03*
X239497000Y-111417000D03*
X242037000Y-113957000D03*
X239497000Y-113957000D03*
X242037000Y-116497000D03*
X239497000Y-116497000D03*
X242037000Y-119037000D03*
X239497000Y-119037000D03*
X242037000Y-121577000D03*
X239497000Y-121577000D03*
X242037000Y-124117000D03*
X239497000Y-124117000D03*
X242037000Y-126657000D03*
X239497000Y-126657000D03*
X242037000Y-129197000D03*
X239497000Y-129197000D03*
X242037000Y-131737000D03*
X239497000Y-131737000D03*
D21*
X232893000Y-83477000D03*
D22*
X230353000Y-83477000D03*
X232893000Y-86017000D03*
X230353000Y-86017000D03*
X232893000Y-88557000D03*
X230353000Y-88557000D03*
X232893000Y-91097000D03*
X230353000Y-91097000D03*
X232893000Y-93637000D03*
X230353000Y-93637000D03*
X232893000Y-96177000D03*
X230353000Y-96177000D03*
X232893000Y-98717000D03*
X230353000Y-98717000D03*
X232893000Y-101257000D03*
X230353000Y-101257000D03*
X232893000Y-103797000D03*
X230353000Y-103797000D03*
X232893000Y-106337000D03*
X230353000Y-106337000D03*
X232893000Y-108877000D03*
X230353000Y-108877000D03*
X232893000Y-111417000D03*
X230353000Y-111417000D03*
X232893000Y-113957000D03*
X230353000Y-113957000D03*
X232893000Y-116497000D03*
X230353000Y-116497000D03*
X232893000Y-119037000D03*
X230353000Y-119037000D03*
X232893000Y-121577000D03*
X230353000Y-121577000D03*
X232893000Y-124117000D03*
X230353000Y-124117000D03*
X232893000Y-126657000D03*
X230353000Y-126657000D03*
X232893000Y-129197000D03*
X230353000Y-129197000D03*
X232893000Y-131737000D03*
X230353000Y-131737000D03*
D21*
X182601000Y-83477000D03*
D22*
X180061000Y-83477000D03*
X182601000Y-86017000D03*
X180061000Y-86017000D03*
X182601000Y-88557000D03*
X180061000Y-88557000D03*
X182601000Y-91097000D03*
X180061000Y-91097000D03*
X182601000Y-93637000D03*
X180061000Y-93637000D03*
X182601000Y-96177000D03*
X180061000Y-96177000D03*
X182601000Y-98717000D03*
X180061000Y-98717000D03*
X182601000Y-101257000D03*
X180061000Y-101257000D03*
X182601000Y-103797000D03*
X180061000Y-103797000D03*
X182601000Y-106337000D03*
X180061000Y-106337000D03*
X182601000Y-108877000D03*
X180061000Y-108877000D03*
X182601000Y-111417000D03*
X180061000Y-111417000D03*
X182601000Y-113957000D03*
X180061000Y-113957000D03*
X182601000Y-116497000D03*
X180061000Y-116497000D03*
X182601000Y-119037000D03*
X180061000Y-119037000D03*
X182601000Y-121577000D03*
X180061000Y-121577000D03*
X182601000Y-124117000D03*
X180061000Y-124117000D03*
X182601000Y-126657000D03*
X180061000Y-126657000D03*
X182601000Y-129197000D03*
X180061000Y-129197000D03*
X182601000Y-131737000D03*
X180061000Y-131737000D03*
D21*
X173457000Y-83477000D03*
D22*
X170917000Y-83477000D03*
X173457000Y-86017000D03*
X170917000Y-86017000D03*
X173457000Y-88557000D03*
X170917000Y-88557000D03*
X173457000Y-91097000D03*
X170917000Y-91097000D03*
X173457000Y-93637000D03*
X170917000Y-93637000D03*
X173457000Y-96177000D03*
X170917000Y-96177000D03*
X173457000Y-98717000D03*
X170917000Y-98717000D03*
X173457000Y-101257000D03*
X170917000Y-101257000D03*
X173457000Y-103797000D03*
X170917000Y-103797000D03*
X173457000Y-106337000D03*
X170917000Y-106337000D03*
X173457000Y-108877000D03*
X170917000Y-108877000D03*
X173457000Y-111417000D03*
X170917000Y-111417000D03*
X173457000Y-113957000D03*
X170917000Y-113957000D03*
X173457000Y-116497000D03*
X170917000Y-116497000D03*
X173457000Y-119037000D03*
X170917000Y-119037000D03*
X173457000Y-121577000D03*
X170917000Y-121577000D03*
X173457000Y-124117000D03*
X170917000Y-124117000D03*
X173457000Y-126657000D03*
X170917000Y-126657000D03*
X173457000Y-129197000D03*
X170917000Y-129197000D03*
X173457000Y-131737000D03*
X170917000Y-131737000D03*
%TD*%
D25*
%TO.C,TP203*%
X135839200Y-67310000D03*
%TD*%
D10*
%TO.C,JP415*%
X210170000Y-69850000D03*
X211470000Y-69850000D03*
%TD*%
D26*
%TO.C,R203*%
X116715000Y-122021600D03*
X115695000Y-122021600D03*
%TD*%
D16*
%TO.C,RN406*%
X194925000Y-67475000D03*
X195625000Y-67475000D03*
X195625000Y-66475000D03*
X194925000Y-66475000D03*
%TD*%
D27*
%TO.C,FB201*%
X118287700Y-123215400D03*
X119862700Y-123215400D03*
%TD*%
D20*
%TO.C,U401*%
X191355000Y-122980000D03*
X192005000Y-122980000D03*
X192655000Y-122980000D03*
X193305000Y-122980000D03*
X193955000Y-122980000D03*
X194605000Y-122980000D03*
X195255000Y-122980000D03*
X195905000Y-122980000D03*
X196555000Y-122980000D03*
X197205000Y-122980000D03*
X197855000Y-122980000D03*
X198505000Y-122980000D03*
X199155000Y-122980000D03*
X199805000Y-122980000D03*
X199805000Y-115780000D03*
X199155000Y-115780000D03*
X198505000Y-115780000D03*
X197855000Y-115780000D03*
X197205000Y-115780000D03*
X196555000Y-115780000D03*
X195905000Y-115780000D03*
X195255000Y-115780000D03*
X194605000Y-115780000D03*
X193955000Y-115780000D03*
X193305000Y-115780000D03*
X192655000Y-115780000D03*
X192005000Y-115780000D03*
X191355000Y-115780000D03*
%TD*%
D14*
%TO.C,R411*%
X221361000Y-135942800D03*
X221361000Y-134922800D03*
%TD*%
%TO.C,R415*%
X222961200Y-113032000D03*
X222961200Y-112012000D03*
%TD*%
D21*
%TO.C,J202*%
X115671600Y-110891400D03*
D22*
X115671600Y-108351400D03*
%TD*%
D23*
%TO.C,JP402*%
X210095000Y-92710000D03*
D24*
X211545000Y-92710000D03*
%TD*%
D28*
%TO.C,R401*%
X196550800Y-111978600D03*
X196550800Y-112998600D03*
%TD*%
D23*
%TO.C,JP406*%
X210095000Y-96520000D03*
D24*
X211545000Y-96520000D03*
%TD*%
D29*
%TO.C,U301*%
X137566400Y-137052400D03*
X138836400Y-137052400D03*
X140106400Y-137052400D03*
X141376400Y-137052400D03*
X142646400Y-137052400D03*
X143916400Y-137052400D03*
X145186400Y-137052400D03*
X146456400Y-137052400D03*
X146456400Y-129952400D03*
X145186400Y-129952400D03*
X143916400Y-129952400D03*
X142646400Y-129952400D03*
X141376400Y-129952400D03*
X140106400Y-129952400D03*
X138836400Y-129952400D03*
X137566400Y-129952400D03*
%TD*%
D17*
%TO.C,C307*%
X133908200Y-123317000D03*
X132948200Y-123317000D03*
%TD*%
D14*
%TO.C,R405*%
X198125600Y-112998600D03*
X198125600Y-111978600D03*
%TD*%
D21*
%TO.C,J302*%
X132877800Y-140862200D03*
D22*
X130337800Y-140862200D03*
X127797800Y-140862200D03*
%TD*%
D10*
%TO.C,JP419*%
X210170000Y-73660000D03*
X211470000Y-73660000D03*
%TD*%
D30*
%TO.C,JP401*%
X203925000Y-115570000D03*
D31*
X202475000Y-115570000D03*
%TD*%
D20*
%TO.C,U403*%
X214215000Y-145840000D03*
X214865000Y-145840000D03*
X215515000Y-145840000D03*
X216165000Y-145840000D03*
X216815000Y-145840000D03*
X217465000Y-145840000D03*
X218115000Y-145840000D03*
X218765000Y-145840000D03*
X219415000Y-145840000D03*
X220065000Y-145840000D03*
X220715000Y-145840000D03*
X221365000Y-145840000D03*
X222015000Y-145840000D03*
X222665000Y-145840000D03*
X222665000Y-138640000D03*
X222015000Y-138640000D03*
X221365000Y-138640000D03*
X220715000Y-138640000D03*
X220065000Y-138640000D03*
X219415000Y-138640000D03*
X218765000Y-138640000D03*
X218115000Y-138640000D03*
X217465000Y-138640000D03*
X216815000Y-138640000D03*
X216165000Y-138640000D03*
X215515000Y-138640000D03*
X214865000Y-138640000D03*
X214215000Y-138640000D03*
%TD*%
D16*
%TO.C,RN404*%
X217582000Y-113022000D03*
X218282000Y-113022000D03*
X218282000Y-112022000D03*
X217582000Y-112022000D03*
%TD*%
D14*
%TO.C,R432*%
X201472800Y-136120600D03*
X201472800Y-135100600D03*
%TD*%
D25*
%TO.C,TP201*%
X117094000Y-67310000D03*
%TD*%
D28*
%TO.C,R404*%
X219938600Y-112012000D03*
X219938600Y-113032000D03*
%TD*%
D10*
%TO.C,JP407*%
X210170000Y-142240000D03*
X211470000Y-142240000D03*
%TD*%
D15*
%TO.C,C601*%
X161978400Y-138303000D03*
X162938400Y-138303000D03*
%TD*%
D16*
%TO.C,RN407*%
X217275000Y-67350000D03*
X217975000Y-67350000D03*
X217975000Y-66350000D03*
X217275000Y-66350000D03*
%TD*%
D32*
%TO.C,U601*%
X156732400Y-140860800D03*
D33*
X159272400Y-140860800D03*
X156732400Y-138320800D03*
X159272400Y-138320800D03*
X156732400Y-135780800D03*
X159272400Y-135780800D03*
X156732400Y-133240800D03*
X159272400Y-133240800D03*
X156732400Y-130700800D03*
X159272400Y-130700800D03*
X156732400Y-128160800D03*
X159272400Y-128160800D03*
X156732400Y-125620800D03*
X159272400Y-125620800D03*
X156732400Y-123080800D03*
X159272400Y-123080800D03*
X156732400Y-120540800D03*
X159272400Y-120540800D03*
X156732400Y-118000800D03*
X159272400Y-118000800D03*
X156732400Y-115460800D03*
X159272400Y-115460800D03*
X156732400Y-112920800D03*
X159272400Y-112920800D03*
X156732400Y-110380800D03*
X159272400Y-110380800D03*
X156732400Y-107840800D03*
X159272400Y-107840800D03*
X156732400Y-105300800D03*
X159272400Y-105300800D03*
X156732400Y-102760800D03*
X159272400Y-102760800D03*
X156732400Y-100220800D03*
X159272400Y-100220800D03*
X156732400Y-97680800D03*
X159272400Y-97680800D03*
X156732400Y-95140800D03*
X159272400Y-95140800D03*
X156732400Y-92600800D03*
X159272400Y-92600800D03*
%TD*%
D34*
%TO.C,D203*%
X105913200Y-128092200D03*
X106883200Y-128092200D03*
%TD*%
D35*
%TO.C,U201*%
X127928400Y-120421000D03*
X125628400Y-120421000D03*
D36*
X125628400Y-126721000D03*
D35*
X123328400Y-120421000D03*
%TD*%
D14*
%TO.C,R424*%
X198350000Y-67485000D03*
X198350000Y-66465000D03*
%TD*%
D10*
%TO.C,JP416*%
X203850000Y-138430000D03*
X202550000Y-138430000D03*
%TD*%
D27*
%TO.C,FB301*%
X132335900Y-117322600D03*
X133910900Y-117322600D03*
%TD*%
D13*
%TO.C,D205*%
X117839200Y-125349000D03*
X115739200Y-125349000D03*
%TD*%
D15*
%TO.C,C206*%
X119458800Y-113360200D03*
X120418800Y-113360200D03*
%TD*%
D28*
%TO.C,R419*%
X219550000Y-66340000D03*
X219550000Y-67360000D03*
%TD*%
D12*
%TO.C,C208*%
X231800400Y-145849400D03*
X231800400Y-146809400D03*
%TD*%
D23*
%TO.C,JP423*%
X210095000Y-77470000D03*
D24*
X211545000Y-77470000D03*
%TD*%
D18*
%TO.C,R301*%
X132890800Y-125755400D03*
X133910800Y-125755400D03*
%TD*%
D37*
%TO.C,J201*%
X111869600Y-123895600D03*
X111869600Y-118115600D03*
D38*
X113314600Y-117755600D03*
X113314600Y-118555600D03*
D39*
X113314600Y-119755600D03*
X113314600Y-120755600D03*
X113314600Y-121255600D03*
X113314600Y-122255600D03*
D38*
X113314600Y-123455600D03*
X113314600Y-124255600D03*
X113314600Y-124255600D03*
X113314600Y-123455600D03*
D39*
X113314600Y-122755600D03*
X113314600Y-121755600D03*
X113314600Y-120255600D03*
X113314600Y-119255600D03*
D38*
X113314600Y-118555600D03*
X113314600Y-117755600D03*
D40*
X108219600Y-125325600D03*
X108219600Y-116685600D03*
D41*
X112399600Y-116685600D03*
X112399600Y-125325600D03*
%TD*%
D14*
%TO.C,R407*%
X201300600Y-112998600D03*
X201300600Y-111978600D03*
%TD*%
D10*
%TO.C,JP414*%
X203850000Y-69850000D03*
X202550000Y-69850000D03*
%TD*%
D20*
%TO.C,U402*%
X214215000Y-100120000D03*
X214865000Y-100120000D03*
X215515000Y-100120000D03*
X216165000Y-100120000D03*
X216815000Y-100120000D03*
X217465000Y-100120000D03*
X218115000Y-100120000D03*
X218765000Y-100120000D03*
X219415000Y-100120000D03*
X220065000Y-100120000D03*
X220715000Y-100120000D03*
X221365000Y-100120000D03*
X222015000Y-100120000D03*
X222665000Y-100120000D03*
X222665000Y-92920000D03*
X222015000Y-92920000D03*
X221365000Y-92920000D03*
X220715000Y-92920000D03*
X220065000Y-92920000D03*
X219415000Y-92920000D03*
X218765000Y-92920000D03*
X218115000Y-92920000D03*
X217465000Y-92920000D03*
X216815000Y-92920000D03*
X216165000Y-92920000D03*
X215515000Y-92920000D03*
X214865000Y-92920000D03*
X214215000Y-92920000D03*
%TD*%
D42*
%TO.C,D208*%
X156750800Y-145377000D03*
X156750800Y-143277000D03*
%TD*%
D15*
%TO.C,C602*%
X161978400Y-140843000D03*
X162938400Y-140843000D03*
%TD*%
D43*
%TO.C,U302*%
X136401100Y-118255600D03*
X136401100Y-118755600D03*
X136401100Y-119255600D03*
X136401100Y-119755600D03*
X136401100Y-120255600D03*
X136401100Y-120755600D03*
X136401100Y-121255600D03*
X136401100Y-121755600D03*
X136401100Y-122255600D03*
X136401100Y-122755600D03*
X136401100Y-123255600D03*
X136401100Y-123755600D03*
D44*
X137813600Y-125168100D03*
X138313600Y-125168100D03*
X138813600Y-125168100D03*
X139313600Y-125168100D03*
X139813600Y-125168100D03*
X140313600Y-125168100D03*
X140813600Y-125168100D03*
X141313600Y-125168100D03*
X141813600Y-125168100D03*
X142313600Y-125168100D03*
X142813600Y-125168100D03*
X143313600Y-125168100D03*
D43*
X144726100Y-123755600D03*
X144726100Y-123255600D03*
X144726100Y-122755600D03*
X144726100Y-122255600D03*
X144726100Y-121755600D03*
X144726100Y-121255600D03*
X144726100Y-120755600D03*
X144726100Y-120255600D03*
X144726100Y-119755600D03*
X144726100Y-119255600D03*
X144726100Y-118755600D03*
X144726100Y-118255600D03*
D44*
X143313600Y-116843100D03*
X142813600Y-116843100D03*
X142313600Y-116843100D03*
X141813600Y-116843100D03*
X141313600Y-116843100D03*
X140813600Y-116843100D03*
X140313600Y-116843100D03*
X139813600Y-116843100D03*
X139313600Y-116843100D03*
X138813600Y-116843100D03*
X138313600Y-116843100D03*
X137813600Y-116843100D03*
%TD*%
D17*
%TO.C,C306*%
X133908200Y-118897400D03*
X132948200Y-118897400D03*
%TD*%
D20*
%TO.C,U408*%
X191355000Y-145840000D03*
X192005000Y-145840000D03*
X192655000Y-145840000D03*
X193305000Y-145840000D03*
X193955000Y-145840000D03*
X194605000Y-145840000D03*
X195255000Y-145840000D03*
X195905000Y-145840000D03*
X196555000Y-145840000D03*
X197205000Y-145840000D03*
X197855000Y-145840000D03*
X198505000Y-145840000D03*
X199155000Y-145840000D03*
X199805000Y-145840000D03*
X199805000Y-138640000D03*
X199155000Y-138640000D03*
X198505000Y-138640000D03*
X197855000Y-138640000D03*
X197205000Y-138640000D03*
X196555000Y-138640000D03*
X195905000Y-138640000D03*
X195255000Y-138640000D03*
X194605000Y-138640000D03*
X193955000Y-138640000D03*
X193305000Y-138640000D03*
X192655000Y-138640000D03*
X192005000Y-138640000D03*
X191355000Y-138640000D03*
%TD*%
D45*
%TO.C,Y301*%
X143518200Y-110845600D03*
X135018200Y-110845600D03*
%TD*%
D23*
%TO.C,JP411*%
X210095000Y-146050000D03*
D24*
X211545000Y-146050000D03*
%TD*%
D23*
%TO.C,JP403*%
X210095000Y-138430000D03*
D24*
X211545000Y-138430000D03*
%TD*%
D25*
%TO.C,TP202*%
X126492000Y-67310000D03*
%TD*%
D14*
%TO.C,R413*%
X224307400Y-135942800D03*
X224307400Y-134922800D03*
%TD*%
%TO.C,R412*%
X222808800Y-135942800D03*
X222808800Y-134922800D03*
%TD*%
D21*
%TO.C,J301*%
X115627000Y-140909200D03*
D22*
X115627000Y-138369200D03*
X115627000Y-135829200D03*
X115627000Y-133289200D03*
%TD*%
D14*
%TO.C,R422*%
X199650000Y-90260000D03*
X199650000Y-89240000D03*
%TD*%
D30*
%TO.C,JP405*%
X203925000Y-119380000D03*
D31*
X202475000Y-119380000D03*
%TD*%
D20*
%TO.C,U405*%
X191355000Y-100120000D03*
X192005000Y-100120000D03*
X192655000Y-100120000D03*
X193305000Y-100120000D03*
X193955000Y-100120000D03*
X194605000Y-100120000D03*
X195255000Y-100120000D03*
X195905000Y-100120000D03*
X196555000Y-100120000D03*
X197205000Y-100120000D03*
X197855000Y-100120000D03*
X198505000Y-100120000D03*
X199155000Y-100120000D03*
X199805000Y-100120000D03*
X199805000Y-92920000D03*
X199155000Y-92920000D03*
X198505000Y-92920000D03*
X197855000Y-92920000D03*
X197205000Y-92920000D03*
X196555000Y-92920000D03*
X195905000Y-92920000D03*
X195255000Y-92920000D03*
X194605000Y-92920000D03*
X193955000Y-92920000D03*
X193305000Y-92920000D03*
X192655000Y-92920000D03*
X192005000Y-92920000D03*
X191355000Y-92920000D03*
%TD*%
D42*
%TO.C,D202*%
X128219200Y-116069400D03*
X128219200Y-118169400D03*
%TD*%
D11*
%TO.C,C201*%
X123342400Y-118158200D03*
X123342400Y-117198200D03*
%TD*%
D30*
%TO.C,JP409*%
X203925000Y-123190000D03*
D31*
X202475000Y-123190000D03*
%TD*%
D14*
%TO.C,R430*%
X198399400Y-136120600D03*
X198399400Y-135100600D03*
%TD*%
D20*
%TO.C,U404*%
X214215000Y-122980000D03*
X214865000Y-122980000D03*
X215515000Y-122980000D03*
X216165000Y-122980000D03*
X216815000Y-122980000D03*
X217465000Y-122980000D03*
X218115000Y-122980000D03*
X218765000Y-122980000D03*
X219415000Y-122980000D03*
X220065000Y-122980000D03*
X220715000Y-122980000D03*
X221365000Y-122980000D03*
X222015000Y-122980000D03*
X222665000Y-122980000D03*
X222665000Y-115780000D03*
X222015000Y-115780000D03*
X221365000Y-115780000D03*
X220715000Y-115780000D03*
X220065000Y-115780000D03*
X219415000Y-115780000D03*
X218765000Y-115780000D03*
X218115000Y-115780000D03*
X217465000Y-115780000D03*
X216815000Y-115780000D03*
X216165000Y-115780000D03*
X215515000Y-115780000D03*
X214865000Y-115780000D03*
X214215000Y-115780000D03*
%TD*%
D17*
%TO.C,C304*%
X144269400Y-115011200D03*
X143309400Y-115011200D03*
%TD*%
D12*
%TO.C,C207*%
X238125000Y-145290600D03*
X238125000Y-146250600D03*
%TD*%
D14*
%TO.C,R423*%
X201175000Y-90260000D03*
X201175000Y-89240000D03*
%TD*%
D46*
%TO.C,FB202*%
X121056500Y-111683800D03*
X119481500Y-111683800D03*
%TD*%
D14*
%TO.C,R427*%
X221025000Y-67360000D03*
X221025000Y-66340000D03*
%TD*%
D15*
%TO.C,C203*%
X115725000Y-123444000D03*
X116685000Y-123444000D03*
%TD*%
D19*
%TO.C,FB204*%
X159080200Y-145389800D03*
X159080200Y-143814800D03*
%TD*%
D47*
%TO.C,*%
X165049200Y-66802000D03*
%TD*%
D27*
%TO.C,FB302*%
X132335900Y-121793000D03*
X133910900Y-121793000D03*
%TD*%
D26*
%TO.C,R304*%
X133938200Y-120243600D03*
X132918200Y-120243600D03*
%TD*%
D14*
%TO.C,R408*%
X221350000Y-90110000D03*
X221350000Y-89090000D03*
%TD*%
%TO.C,R421*%
X198100000Y-90260000D03*
X198100000Y-89240000D03*
%TD*%
%TO.C,R410*%
X224300000Y-90110000D03*
X224300000Y-89090000D03*
%TD*%
D16*
%TO.C,RN401*%
X194168800Y-112988600D03*
X194868800Y-112988600D03*
X194868800Y-111988600D03*
X194168800Y-111988600D03*
%TD*%
D26*
%TO.C,R204*%
X109466500Y-130352800D03*
X108446500Y-130352800D03*
%TD*%
D47*
%TO.C,*%
X108661200Y-148082000D03*
%TD*%
%TO.C,REF\u002A\u002A*%
X247446800Y-66776600D03*
%TD*%
D10*
%TO.C,JP410*%
X210170000Y-100330000D03*
X211470000Y-100330000D03*
%TD*%
D47*
%TO.C,*%
X165049200Y-148082000D03*
%TD*%
D26*
%TO.C,R201*%
X109476000Y-128092200D03*
X108456000Y-128092200D03*
%TD*%
D30*
%TO.C,JP418*%
X203925000Y-73660000D03*
D31*
X202475000Y-73660000D03*
%TD*%
D21*
%TO.C,J203*%
X115677800Y-103174800D03*
D22*
X115677800Y-100634800D03*
X115677800Y-98094800D03*
X115677800Y-95554800D03*
X115677800Y-93014800D03*
X115677800Y-90474800D03*
%TD*%
D14*
%TO.C,R426*%
X200975000Y-67485000D03*
X200975000Y-66465000D03*
%TD*%
D42*
%TO.C,D207*%
X236016800Y-147404800D03*
X236016800Y-145304800D03*
%TD*%
D28*
%TO.C,R403*%
X219862400Y-134922800D03*
X219862400Y-135942800D03*
%TD*%
D47*
%TO.C,*%
X247446800Y-148056600D03*
%TD*%
D16*
%TO.C,RN405*%
X194300000Y-90250000D03*
X195000000Y-90250000D03*
X195000000Y-89250000D03*
X194300000Y-89250000D03*
%TD*%
D42*
%TO.C,D201*%
X120827800Y-118169400D03*
X120827800Y-116069400D03*
%TD*%
D28*
%TO.C,R418*%
X197050000Y-66465000D03*
X197050000Y-67485000D03*
%TD*%
D14*
%TO.C,R425*%
X199675000Y-67485000D03*
X199675000Y-66465000D03*
%TD*%
D47*
%TO.C,*%
X108661200Y-66802000D03*
%TD*%
D16*
%TO.C,RN408*%
X194493400Y-136110600D03*
X195193400Y-136110600D03*
X195193400Y-135110600D03*
X194493400Y-135110600D03*
%TD*%
D28*
%TO.C,R417*%
X196625000Y-89240000D03*
X196625000Y-90260000D03*
%TD*%
D14*
%TO.C,R428*%
X222500000Y-67360000D03*
X222500000Y-66340000D03*
%TD*%
D28*
%TO.C,R420*%
X196850000Y-135100600D03*
X196850000Y-136120600D03*
%TD*%
D30*
%TO.C,JP421*%
X203925000Y-100330000D03*
D31*
X202475000Y-100330000D03*
%TD*%
D10*
%TO.C,JP424*%
X203850000Y-146050000D03*
X202550000Y-146050000D03*
%TD*%
D14*
%TO.C,R416*%
X224485200Y-113032000D03*
X224485200Y-112012000D03*
%TD*%
D18*
%TO.C,R202*%
X115491800Y-119151400D03*
X116511800Y-119151400D03*
%TD*%
D14*
%TO.C,R409*%
X222825000Y-90110000D03*
X222825000Y-89090000D03*
%TD*%
D34*
%TO.C,D204*%
X105906100Y-130352800D03*
X106876100Y-130352800D03*
%TD*%
D16*
%TO.C,RN402*%
X217575000Y-90100000D03*
X218275000Y-90100000D03*
X218275000Y-89100000D03*
X217575000Y-89100000D03*
%TD*%
D28*
%TO.C,R402*%
X219900000Y-89090000D03*
X219900000Y-90110000D03*
%TD*%
D14*
%TO.C,R406*%
X199700400Y-112998600D03*
X199700400Y-111978600D03*
%TD*%
D10*
%TO.C,JP420*%
X203850000Y-142240000D03*
X202550000Y-142240000D03*
%TD*%
D12*
%TO.C,C210*%
X160934400Y-143817500D03*
X160934400Y-144777500D03*
%TD*%
D20*
%TO.C,U407*%
X214215000Y-77260000D03*
X214865000Y-77260000D03*
X215515000Y-77260000D03*
X216165000Y-77260000D03*
X216815000Y-77260000D03*
X217465000Y-77260000D03*
X218115000Y-77260000D03*
X218765000Y-77260000D03*
X219415000Y-77260000D03*
X220065000Y-77260000D03*
X220715000Y-77260000D03*
X221365000Y-77260000D03*
X222015000Y-77260000D03*
X222665000Y-77260000D03*
X222665000Y-70060000D03*
X222015000Y-70060000D03*
X221365000Y-70060000D03*
X220715000Y-70060000D03*
X220065000Y-70060000D03*
X219415000Y-70060000D03*
X218765000Y-70060000D03*
X218115000Y-70060000D03*
X217465000Y-70060000D03*
X216815000Y-70060000D03*
X216165000Y-70060000D03*
X215515000Y-70060000D03*
X214865000Y-70060000D03*
X214215000Y-70060000D03*
%TD*%
D30*
%TO.C,JP417*%
X203925000Y-96520000D03*
D31*
X202475000Y-96520000D03*
%TD*%
M02*
