%TF.GenerationSoftware,KiCad,Pcbnew,(6.0.7)*%
%TF.CreationDate,2023-05-23T08:38:14-04:00*%
%TF.ProjectId,ECELab_v1,4543454c-6162-45f7-9631-2e6b69636164,rev?*%
%TF.SameCoordinates,Original*%
%TF.FileFunction,Legend,Bot*%
%TF.FilePolarity,Positive*%
%FSLAX46Y46*%
G04 Gerber Fmt 4.6, Leading zero omitted, Abs format (unit mm)*
G04 Created by KiCad (PCBNEW (6.0.7)) date 2023-05-23 08:38:14*
%MOMM*%
%LPD*%
G01*
G04 APERTURE LIST*
%ADD10C,0.254000*%
%ADD11C,0.127000*%
%ADD12C,0.120000*%
G04 APERTURE END LIST*
D10*
X152430842Y-91112702D02*
X151922842Y-91112702D01*
X151705128Y-91910988D02*
X152430842Y-91910988D01*
X152430842Y-90386988D01*
X151705128Y-90386988D01*
X150181128Y-91765845D02*
X150253700Y-91838417D01*
X150471414Y-91910988D01*
X150616557Y-91910988D01*
X150834271Y-91838417D01*
X150979414Y-91693274D01*
X151051985Y-91548131D01*
X151124557Y-91257845D01*
X151124557Y-91040131D01*
X151051985Y-90749845D01*
X150979414Y-90604702D01*
X150834271Y-90459560D01*
X150616557Y-90386988D01*
X150471414Y-90386988D01*
X150253700Y-90459560D01*
X150181128Y-90532131D01*
X149527985Y-91112702D02*
X149019985Y-91112702D01*
X148802271Y-91910988D02*
X149527985Y-91910988D01*
X149527985Y-90386988D01*
X148802271Y-90386988D01*
X147423414Y-91910988D02*
X148149128Y-91910988D01*
X148149128Y-90386988D01*
X146262271Y-91910988D02*
X146262271Y-91112702D01*
X146334842Y-90967560D01*
X146479985Y-90894988D01*
X146770271Y-90894988D01*
X146915414Y-90967560D01*
X146262271Y-91838417D02*
X146407414Y-91910988D01*
X146770271Y-91910988D01*
X146915414Y-91838417D01*
X146987985Y-91693274D01*
X146987985Y-91548131D01*
X146915414Y-91402988D01*
X146770271Y-91330417D01*
X146407414Y-91330417D01*
X146262271Y-91257845D01*
X145536557Y-91910988D02*
X145536557Y-90386988D01*
X145536557Y-90967560D02*
X145391414Y-90894988D01*
X145101128Y-90894988D01*
X144955985Y-90967560D01*
X144883414Y-91040131D01*
X144810842Y-91185274D01*
X144810842Y-91620702D01*
X144883414Y-91765845D01*
X144955985Y-91838417D01*
X145101128Y-91910988D01*
X145391414Y-91910988D01*
X145536557Y-91838417D01*
X142996557Y-91910988D02*
X142996557Y-90386988D01*
X142415985Y-90386988D01*
X142270842Y-90459560D01*
X142198271Y-90532131D01*
X142125700Y-90677274D01*
X142125700Y-90894988D01*
X142198271Y-91040131D01*
X142270842Y-91112702D01*
X142415985Y-91185274D01*
X142996557Y-91185274D01*
X140601700Y-91765845D02*
X140674271Y-91838417D01*
X140891985Y-91910988D01*
X141037128Y-91910988D01*
X141254842Y-91838417D01*
X141399985Y-91693274D01*
X141472557Y-91548131D01*
X141545128Y-91257845D01*
X141545128Y-91040131D01*
X141472557Y-90749845D01*
X141399985Y-90604702D01*
X141254842Y-90459560D01*
X141037128Y-90386988D01*
X140891985Y-90386988D01*
X140674271Y-90459560D01*
X140601700Y-90532131D01*
X139440557Y-91112702D02*
X139222842Y-91185274D01*
X139150271Y-91257845D01*
X139077700Y-91402988D01*
X139077700Y-91620702D01*
X139150271Y-91765845D01*
X139222842Y-91838417D01*
X139367985Y-91910988D01*
X139948557Y-91910988D01*
X139948557Y-90386988D01*
X139440557Y-90386988D01*
X139295414Y-90459560D01*
X139222842Y-90532131D01*
X139150271Y-90677274D01*
X139150271Y-90822417D01*
X139222842Y-90967560D01*
X139295414Y-91040131D01*
X139440557Y-91112702D01*
X139948557Y-91112702D01*
X137263414Y-91910988D02*
X137263414Y-90386988D01*
X136900557Y-90386988D01*
X136682842Y-90459560D01*
X136537700Y-90604702D01*
X136465128Y-90749845D01*
X136392557Y-91040131D01*
X136392557Y-91257845D01*
X136465128Y-91548131D01*
X136537700Y-91693274D01*
X136682842Y-91838417D01*
X136900557Y-91910988D01*
X137263414Y-91910988D01*
X135158842Y-91838417D02*
X135303985Y-91910988D01*
X135594271Y-91910988D01*
X135739414Y-91838417D01*
X135811985Y-91693274D01*
X135811985Y-91112702D01*
X135739414Y-90967560D01*
X135594271Y-90894988D01*
X135303985Y-90894988D01*
X135158842Y-90967560D01*
X135086271Y-91112702D01*
X135086271Y-91257845D01*
X135811985Y-91402988D01*
X134505700Y-91838417D02*
X134360557Y-91910988D01*
X134070271Y-91910988D01*
X133925128Y-91838417D01*
X133852557Y-91693274D01*
X133852557Y-91620702D01*
X133925128Y-91475560D01*
X134070271Y-91402988D01*
X134287985Y-91402988D01*
X134433128Y-91330417D01*
X134505700Y-91185274D01*
X134505700Y-91112702D01*
X134433128Y-90967560D01*
X134287985Y-90894988D01*
X134070271Y-90894988D01*
X133925128Y-90967560D01*
X133199414Y-91910988D02*
X133199414Y-90894988D01*
X133199414Y-90386988D02*
X133271985Y-90459560D01*
X133199414Y-90532131D01*
X133126842Y-90459560D01*
X133199414Y-90386988D01*
X133199414Y-90532131D01*
X131820557Y-90894988D02*
X131820557Y-92128702D01*
X131893128Y-92273845D01*
X131965700Y-92346417D01*
X132110842Y-92418988D01*
X132328557Y-92418988D01*
X132473700Y-92346417D01*
X131820557Y-91838417D02*
X131965700Y-91910988D01*
X132255985Y-91910988D01*
X132401128Y-91838417D01*
X132473700Y-91765845D01*
X132546271Y-91620702D01*
X132546271Y-91185274D01*
X132473700Y-91040131D01*
X132401128Y-90967560D01*
X132255985Y-90894988D01*
X131965700Y-90894988D01*
X131820557Y-90967560D01*
X131094842Y-90894988D02*
X131094842Y-91910988D01*
X131094842Y-91040131D02*
X131022271Y-90967560D01*
X130877128Y-90894988D01*
X130659414Y-90894988D01*
X130514271Y-90967560D01*
X130441700Y-91112702D01*
X130441700Y-91910988D01*
X128699985Y-90894988D02*
X128337128Y-91910988D01*
X127974271Y-90894988D01*
X126595414Y-91910988D02*
X127466271Y-91910988D01*
X127030842Y-91910988D02*
X127030842Y-90386988D01*
X127175985Y-90604702D01*
X127321128Y-90749845D01*
X127466271Y-90822417D01*
X152430842Y-94364628D02*
X152430842Y-92840628D01*
X151922842Y-93929200D01*
X151414842Y-92840628D01*
X151414842Y-94364628D01*
X150689128Y-94364628D02*
X150689128Y-93348628D01*
X150689128Y-92840628D02*
X150761700Y-92913200D01*
X150689128Y-92985771D01*
X150616557Y-92913200D01*
X150689128Y-92840628D01*
X150689128Y-92985771D01*
X149963414Y-93348628D02*
X149963414Y-94364628D01*
X149963414Y-93493771D02*
X149890842Y-93421200D01*
X149745700Y-93348628D01*
X149527985Y-93348628D01*
X149382842Y-93421200D01*
X149310271Y-93566342D01*
X149310271Y-94364628D01*
X148584557Y-94364628D02*
X148584557Y-92840628D01*
X147931414Y-94364628D02*
X147931414Y-93566342D01*
X148003985Y-93421200D01*
X148149128Y-93348628D01*
X148366842Y-93348628D01*
X148511985Y-93421200D01*
X148584557Y-93493771D01*
X146044557Y-94364628D02*
X146044557Y-92840628D01*
X145173700Y-94364628D01*
X145173700Y-92840628D01*
X143794842Y-93348628D02*
X143794842Y-94582342D01*
X143867414Y-94727485D01*
X143939985Y-94800057D01*
X144085128Y-94872628D01*
X144302842Y-94872628D01*
X144447985Y-94800057D01*
X143794842Y-94292057D02*
X143939985Y-94364628D01*
X144230271Y-94364628D01*
X144375414Y-94292057D01*
X144447985Y-94219485D01*
X144520557Y-94074342D01*
X144520557Y-93638914D01*
X144447985Y-93493771D01*
X144375414Y-93421200D01*
X144230271Y-93348628D01*
X143939985Y-93348628D01*
X143794842Y-93421200D01*
X142415985Y-93348628D02*
X142415985Y-94364628D01*
X143069128Y-93348628D02*
X143069128Y-94146914D01*
X142996557Y-94292057D01*
X142851414Y-94364628D01*
X142633700Y-94364628D01*
X142488557Y-94292057D01*
X142415985Y-94219485D01*
X141835414Y-93348628D02*
X141472557Y-94364628D01*
X141109700Y-93348628D02*
X141472557Y-94364628D01*
X141617700Y-94727485D01*
X141690271Y-94800057D01*
X141835414Y-94872628D01*
X139948557Y-94292057D02*
X140093700Y-94364628D01*
X140383985Y-94364628D01*
X140529128Y-94292057D01*
X140601700Y-94146914D01*
X140601700Y-93566342D01*
X140529128Y-93421200D01*
X140383985Y-93348628D01*
X140093700Y-93348628D01*
X139948557Y-93421200D01*
X139875985Y-93566342D01*
X139875985Y-93711485D01*
X140601700Y-93856628D01*
X139222842Y-93348628D02*
X139222842Y-94364628D01*
X139222842Y-93493771D02*
X139150271Y-93421200D01*
X139005128Y-93348628D01*
X138787414Y-93348628D01*
X138642271Y-93421200D01*
X138569700Y-93566342D01*
X138569700Y-94364628D01*
X151995414Y-95294268D02*
X151995414Y-96382840D01*
X152067985Y-96600554D01*
X152213128Y-96745697D01*
X152430842Y-96818268D01*
X152575985Y-96818268D01*
X150616557Y-95802268D02*
X150616557Y-96818268D01*
X151269700Y-95802268D02*
X151269700Y-96600554D01*
X151197128Y-96745697D01*
X151051985Y-96818268D01*
X150834271Y-96818268D01*
X150689128Y-96745697D01*
X150616557Y-96673125D01*
X149890842Y-95802268D02*
X149890842Y-96818268D01*
X149890842Y-95947411D02*
X149818271Y-95874840D01*
X149673128Y-95802268D01*
X149455414Y-95802268D01*
X149310271Y-95874840D01*
X149237700Y-96019982D01*
X149237700Y-96818268D01*
X148729700Y-95802268D02*
X148149128Y-95802268D01*
X148511985Y-96818268D02*
X148511985Y-95511982D01*
X148439414Y-95366840D01*
X148294271Y-95294268D01*
X148149128Y-95294268D01*
X147060557Y-96745697D02*
X147205700Y-96818268D01*
X147495985Y-96818268D01*
X147641128Y-96745697D01*
X147713700Y-96600554D01*
X147713700Y-96019982D01*
X147641128Y-95874840D01*
X147495985Y-95802268D01*
X147205700Y-95802268D01*
X147060557Y-95874840D01*
X146987985Y-96019982D01*
X146987985Y-96165125D01*
X147713700Y-96310268D01*
X146334842Y-96818268D02*
X146334842Y-95802268D01*
X146334842Y-95294268D02*
X146407414Y-95366840D01*
X146334842Y-95439411D01*
X146262271Y-95366840D01*
X146334842Y-95294268D01*
X146334842Y-95439411D01*
X143722271Y-96818268D02*
X144447985Y-96818268D01*
X144447985Y-95294268D01*
X143214271Y-96818268D02*
X143214271Y-95802268D01*
X143214271Y-95294268D02*
X143286842Y-95366840D01*
X143214271Y-95439411D01*
X143141700Y-95366840D01*
X143214271Y-95294268D01*
X143214271Y-95439411D01*
D11*
%TO.C,C305*%
X141496142Y-115403085D02*
X141532428Y-115366800D01*
X141568714Y-115257942D01*
X141568714Y-115185371D01*
X141532428Y-115076514D01*
X141459857Y-115003942D01*
X141387285Y-114967657D01*
X141242142Y-114931371D01*
X141133285Y-114931371D01*
X140988142Y-114967657D01*
X140915571Y-115003942D01*
X140843000Y-115076514D01*
X140806714Y-115185371D01*
X140806714Y-115257942D01*
X140843000Y-115366800D01*
X140879285Y-115403085D01*
X140806714Y-115657085D02*
X140806714Y-116128800D01*
X141097000Y-115874800D01*
X141097000Y-115983657D01*
X141133285Y-116056228D01*
X141169571Y-116092514D01*
X141242142Y-116128800D01*
X141423571Y-116128800D01*
X141496142Y-116092514D01*
X141532428Y-116056228D01*
X141568714Y-115983657D01*
X141568714Y-115765942D01*
X141532428Y-115693371D01*
X141496142Y-115657085D01*
X140806714Y-116600514D02*
X140806714Y-116673085D01*
X140843000Y-116745657D01*
X140879285Y-116781942D01*
X140951857Y-116818228D01*
X141097000Y-116854514D01*
X141278428Y-116854514D01*
X141423571Y-116818228D01*
X141496142Y-116781942D01*
X141532428Y-116745657D01*
X141568714Y-116673085D01*
X141568714Y-116600514D01*
X141532428Y-116527942D01*
X141496142Y-116491657D01*
X141423571Y-116455371D01*
X141278428Y-116419085D01*
X141097000Y-116419085D01*
X140951857Y-116455371D01*
X140879285Y-116491657D01*
X140843000Y-116527942D01*
X140806714Y-116600514D01*
X140806714Y-117543942D02*
X140806714Y-117181085D01*
X141169571Y-117144800D01*
X141133285Y-117181085D01*
X141097000Y-117253657D01*
X141097000Y-117435085D01*
X141133285Y-117507657D01*
X141169571Y-117543942D01*
X141242142Y-117580228D01*
X141423571Y-117580228D01*
X141496142Y-117543942D01*
X141532428Y-117507657D01*
X141568714Y-117435085D01*
X141568714Y-117253657D01*
X141532428Y-117181085D01*
X141496142Y-117144800D01*
%TO.C,C302*%
X138117942Y-117816085D02*
X138154228Y-117779800D01*
X138190514Y-117670942D01*
X138190514Y-117598371D01*
X138154228Y-117489514D01*
X138081657Y-117416942D01*
X138009085Y-117380657D01*
X137863942Y-117344371D01*
X137755085Y-117344371D01*
X137609942Y-117380657D01*
X137537371Y-117416942D01*
X137464800Y-117489514D01*
X137428514Y-117598371D01*
X137428514Y-117670942D01*
X137464800Y-117779800D01*
X137501085Y-117816085D01*
X137428514Y-118070085D02*
X137428514Y-118541800D01*
X137718800Y-118287800D01*
X137718800Y-118396657D01*
X137755085Y-118469228D01*
X137791371Y-118505514D01*
X137863942Y-118541800D01*
X138045371Y-118541800D01*
X138117942Y-118505514D01*
X138154228Y-118469228D01*
X138190514Y-118396657D01*
X138190514Y-118178942D01*
X138154228Y-118106371D01*
X138117942Y-118070085D01*
X137428514Y-119013514D02*
X137428514Y-119086085D01*
X137464800Y-119158657D01*
X137501085Y-119194942D01*
X137573657Y-119231228D01*
X137718800Y-119267514D01*
X137900228Y-119267514D01*
X138045371Y-119231228D01*
X138117942Y-119194942D01*
X138154228Y-119158657D01*
X138190514Y-119086085D01*
X138190514Y-119013514D01*
X138154228Y-118940942D01*
X138117942Y-118904657D01*
X138045371Y-118868371D01*
X137900228Y-118832085D01*
X137718800Y-118832085D01*
X137573657Y-118868371D01*
X137501085Y-118904657D01*
X137464800Y-118940942D01*
X137428514Y-119013514D01*
X137501085Y-119557800D02*
X137464800Y-119594085D01*
X137428514Y-119666657D01*
X137428514Y-119848085D01*
X137464800Y-119920657D01*
X137501085Y-119956942D01*
X137573657Y-119993228D01*
X137646228Y-119993228D01*
X137755085Y-119956942D01*
X138190514Y-119521514D01*
X138190514Y-119993228D01*
%TO.C,C408*%
X197397914Y-95674542D02*
X197434200Y-95710828D01*
X197543057Y-95747114D01*
X197615628Y-95747114D01*
X197724485Y-95710828D01*
X197797057Y-95638257D01*
X197833342Y-95565685D01*
X197869628Y-95420542D01*
X197869628Y-95311685D01*
X197833342Y-95166542D01*
X197797057Y-95093971D01*
X197724485Y-95021400D01*
X197615628Y-94985114D01*
X197543057Y-94985114D01*
X197434200Y-95021400D01*
X197397914Y-95057685D01*
X196744771Y-95239114D02*
X196744771Y-95747114D01*
X196926200Y-94948828D02*
X197107628Y-95493114D01*
X196635914Y-95493114D01*
X196200485Y-94985114D02*
X196127914Y-94985114D01*
X196055342Y-95021400D01*
X196019057Y-95057685D01*
X195982771Y-95130257D01*
X195946485Y-95275400D01*
X195946485Y-95456828D01*
X195982771Y-95601971D01*
X196019057Y-95674542D01*
X196055342Y-95710828D01*
X196127914Y-95747114D01*
X196200485Y-95747114D01*
X196273057Y-95710828D01*
X196309342Y-95674542D01*
X196345628Y-95601971D01*
X196381914Y-95456828D01*
X196381914Y-95275400D01*
X196345628Y-95130257D01*
X196309342Y-95057685D01*
X196273057Y-95021400D01*
X196200485Y-94985114D01*
X195511057Y-95311685D02*
X195583628Y-95275400D01*
X195619914Y-95239114D01*
X195656200Y-95166542D01*
X195656200Y-95130257D01*
X195619914Y-95057685D01*
X195583628Y-95021400D01*
X195511057Y-94985114D01*
X195365914Y-94985114D01*
X195293342Y-95021400D01*
X195257057Y-95057685D01*
X195220771Y-95130257D01*
X195220771Y-95166542D01*
X195257057Y-95239114D01*
X195293342Y-95275400D01*
X195365914Y-95311685D01*
X195511057Y-95311685D01*
X195583628Y-95347971D01*
X195619914Y-95384257D01*
X195656200Y-95456828D01*
X195656200Y-95601971D01*
X195619914Y-95674542D01*
X195583628Y-95710828D01*
X195511057Y-95747114D01*
X195365914Y-95747114D01*
X195293342Y-95710828D01*
X195257057Y-95674542D01*
X195220771Y-95601971D01*
X195220771Y-95456828D01*
X195257057Y-95384257D01*
X195293342Y-95347971D01*
X195365914Y-95311685D01*
%TO.C,R303*%
X144845314Y-120838685D02*
X144482457Y-120584685D01*
X144845314Y-120403257D02*
X144083314Y-120403257D01*
X144083314Y-120693542D01*
X144119600Y-120766114D01*
X144155885Y-120802400D01*
X144228457Y-120838685D01*
X144337314Y-120838685D01*
X144409885Y-120802400D01*
X144446171Y-120766114D01*
X144482457Y-120693542D01*
X144482457Y-120403257D01*
X144083314Y-121092685D02*
X144083314Y-121564400D01*
X144373600Y-121310400D01*
X144373600Y-121419257D01*
X144409885Y-121491828D01*
X144446171Y-121528114D01*
X144518742Y-121564400D01*
X144700171Y-121564400D01*
X144772742Y-121528114D01*
X144809028Y-121491828D01*
X144845314Y-121419257D01*
X144845314Y-121201542D01*
X144809028Y-121128971D01*
X144772742Y-121092685D01*
X144083314Y-122036114D02*
X144083314Y-122108685D01*
X144119600Y-122181257D01*
X144155885Y-122217542D01*
X144228457Y-122253828D01*
X144373600Y-122290114D01*
X144555028Y-122290114D01*
X144700171Y-122253828D01*
X144772742Y-122217542D01*
X144809028Y-122181257D01*
X144845314Y-122108685D01*
X144845314Y-122036114D01*
X144809028Y-121963542D01*
X144772742Y-121927257D01*
X144700171Y-121890971D01*
X144555028Y-121854685D01*
X144373600Y-121854685D01*
X144228457Y-121890971D01*
X144155885Y-121927257D01*
X144119600Y-121963542D01*
X144083314Y-122036114D01*
X144083314Y-122544114D02*
X144083314Y-123015828D01*
X144373600Y-122761828D01*
X144373600Y-122870685D01*
X144409885Y-122943257D01*
X144446171Y-122979542D01*
X144518742Y-123015828D01*
X144700171Y-123015828D01*
X144772742Y-122979542D01*
X144809028Y-122943257D01*
X144845314Y-122870685D01*
X144845314Y-122652971D01*
X144809028Y-122580400D01*
X144772742Y-122544114D01*
%TO.C,C407*%
X197880514Y-142291942D02*
X197916800Y-142328228D01*
X198025657Y-142364514D01*
X198098228Y-142364514D01*
X198207085Y-142328228D01*
X198279657Y-142255657D01*
X198315942Y-142183085D01*
X198352228Y-142037942D01*
X198352228Y-141929085D01*
X198315942Y-141783942D01*
X198279657Y-141711371D01*
X198207085Y-141638800D01*
X198098228Y-141602514D01*
X198025657Y-141602514D01*
X197916800Y-141638800D01*
X197880514Y-141675085D01*
X197227371Y-141856514D02*
X197227371Y-142364514D01*
X197408800Y-141566228D02*
X197590228Y-142110514D01*
X197118514Y-142110514D01*
X196683085Y-141602514D02*
X196610514Y-141602514D01*
X196537942Y-141638800D01*
X196501657Y-141675085D01*
X196465371Y-141747657D01*
X196429085Y-141892800D01*
X196429085Y-142074228D01*
X196465371Y-142219371D01*
X196501657Y-142291942D01*
X196537942Y-142328228D01*
X196610514Y-142364514D01*
X196683085Y-142364514D01*
X196755657Y-142328228D01*
X196791942Y-142291942D01*
X196828228Y-142219371D01*
X196864514Y-142074228D01*
X196864514Y-141892800D01*
X196828228Y-141747657D01*
X196791942Y-141675085D01*
X196755657Y-141638800D01*
X196683085Y-141602514D01*
X196175085Y-141602514D02*
X195667085Y-141602514D01*
X195993657Y-142364514D01*
%TO.C,C301*%
X142025914Y-125138542D02*
X142062200Y-125174828D01*
X142171057Y-125211114D01*
X142243628Y-125211114D01*
X142352485Y-125174828D01*
X142425057Y-125102257D01*
X142461342Y-125029685D01*
X142497628Y-124884542D01*
X142497628Y-124775685D01*
X142461342Y-124630542D01*
X142425057Y-124557971D01*
X142352485Y-124485400D01*
X142243628Y-124449114D01*
X142171057Y-124449114D01*
X142062200Y-124485400D01*
X142025914Y-124521685D01*
X141771914Y-124449114D02*
X141300200Y-124449114D01*
X141554200Y-124739400D01*
X141445342Y-124739400D01*
X141372771Y-124775685D01*
X141336485Y-124811971D01*
X141300200Y-124884542D01*
X141300200Y-125065971D01*
X141336485Y-125138542D01*
X141372771Y-125174828D01*
X141445342Y-125211114D01*
X141663057Y-125211114D01*
X141735628Y-125174828D01*
X141771914Y-125138542D01*
X140828485Y-124449114D02*
X140755914Y-124449114D01*
X140683342Y-124485400D01*
X140647057Y-124521685D01*
X140610771Y-124594257D01*
X140574485Y-124739400D01*
X140574485Y-124920828D01*
X140610771Y-125065971D01*
X140647057Y-125138542D01*
X140683342Y-125174828D01*
X140755914Y-125211114D01*
X140828485Y-125211114D01*
X140901057Y-125174828D01*
X140937342Y-125138542D01*
X140973628Y-125065971D01*
X141009914Y-124920828D01*
X141009914Y-124739400D01*
X140973628Y-124594257D01*
X140937342Y-124521685D01*
X140901057Y-124485400D01*
X140828485Y-124449114D01*
X139848771Y-125211114D02*
X140284200Y-125211114D01*
X140066485Y-125211114D02*
X140066485Y-124449114D01*
X140139057Y-124557971D01*
X140211628Y-124630542D01*
X140284200Y-124666828D01*
%TO.C,C406*%
X218733914Y-73957542D02*
X218770200Y-73993828D01*
X218879057Y-74030114D01*
X218951628Y-74030114D01*
X219060485Y-73993828D01*
X219133057Y-73921257D01*
X219169342Y-73848685D01*
X219205628Y-73703542D01*
X219205628Y-73594685D01*
X219169342Y-73449542D01*
X219133057Y-73376971D01*
X219060485Y-73304400D01*
X218951628Y-73268114D01*
X218879057Y-73268114D01*
X218770200Y-73304400D01*
X218733914Y-73340685D01*
X218080771Y-73522114D02*
X218080771Y-74030114D01*
X218262200Y-73231828D02*
X218443628Y-73776114D01*
X217971914Y-73776114D01*
X217536485Y-73268114D02*
X217463914Y-73268114D01*
X217391342Y-73304400D01*
X217355057Y-73340685D01*
X217318771Y-73413257D01*
X217282485Y-73558400D01*
X217282485Y-73739828D01*
X217318771Y-73884971D01*
X217355057Y-73957542D01*
X217391342Y-73993828D01*
X217463914Y-74030114D01*
X217536485Y-74030114D01*
X217609057Y-73993828D01*
X217645342Y-73957542D01*
X217681628Y-73884971D01*
X217717914Y-73739828D01*
X217717914Y-73558400D01*
X217681628Y-73413257D01*
X217645342Y-73340685D01*
X217609057Y-73304400D01*
X217536485Y-73268114D01*
X216629342Y-73268114D02*
X216774485Y-73268114D01*
X216847057Y-73304400D01*
X216883342Y-73340685D01*
X216955914Y-73449542D01*
X216992200Y-73594685D01*
X216992200Y-73884971D01*
X216955914Y-73957542D01*
X216919628Y-73993828D01*
X216847057Y-74030114D01*
X216701914Y-74030114D01*
X216629342Y-73993828D01*
X216593057Y-73957542D01*
X216556771Y-73884971D01*
X216556771Y-73703542D01*
X216593057Y-73630971D01*
X216629342Y-73594685D01*
X216701914Y-73558400D01*
X216847057Y-73558400D01*
X216919628Y-73594685D01*
X216955914Y-73630971D01*
X216992200Y-73703542D01*
%TO.C,C303*%
X141721114Y-122496942D02*
X141757400Y-122533228D01*
X141866257Y-122569514D01*
X141938828Y-122569514D01*
X142047685Y-122533228D01*
X142120257Y-122460657D01*
X142156542Y-122388085D01*
X142192828Y-122242942D01*
X142192828Y-122134085D01*
X142156542Y-121988942D01*
X142120257Y-121916371D01*
X142047685Y-121843800D01*
X141938828Y-121807514D01*
X141866257Y-121807514D01*
X141757400Y-121843800D01*
X141721114Y-121880085D01*
X141467114Y-121807514D02*
X140995400Y-121807514D01*
X141249400Y-122097800D01*
X141140542Y-122097800D01*
X141067971Y-122134085D01*
X141031685Y-122170371D01*
X140995400Y-122242942D01*
X140995400Y-122424371D01*
X141031685Y-122496942D01*
X141067971Y-122533228D01*
X141140542Y-122569514D01*
X141358257Y-122569514D01*
X141430828Y-122533228D01*
X141467114Y-122496942D01*
X140523685Y-121807514D02*
X140451114Y-121807514D01*
X140378542Y-121843800D01*
X140342257Y-121880085D01*
X140305971Y-121952657D01*
X140269685Y-122097800D01*
X140269685Y-122279228D01*
X140305971Y-122424371D01*
X140342257Y-122496942D01*
X140378542Y-122533228D01*
X140451114Y-122569514D01*
X140523685Y-122569514D01*
X140596257Y-122533228D01*
X140632542Y-122496942D01*
X140668828Y-122424371D01*
X140705114Y-122279228D01*
X140705114Y-122097800D01*
X140668828Y-121952657D01*
X140632542Y-121880085D01*
X140596257Y-121843800D01*
X140523685Y-121807514D01*
X140015685Y-121807514D02*
X139543971Y-121807514D01*
X139797971Y-122097800D01*
X139689114Y-122097800D01*
X139616542Y-122134085D01*
X139580257Y-122170371D01*
X139543971Y-122242942D01*
X139543971Y-122424371D01*
X139580257Y-122496942D01*
X139616542Y-122533228D01*
X139689114Y-122569514D01*
X139906828Y-122569514D01*
X139979400Y-122533228D01*
X140015685Y-122496942D01*
%TO.C,U303*%
X136641114Y-111266514D02*
X137257971Y-111266514D01*
X137330542Y-111302800D01*
X137366828Y-111339085D01*
X137403114Y-111411657D01*
X137403114Y-111556800D01*
X137366828Y-111629371D01*
X137330542Y-111665657D01*
X137257971Y-111701942D01*
X136641114Y-111701942D01*
X136641114Y-111992228D02*
X136641114Y-112463942D01*
X136931400Y-112209942D01*
X136931400Y-112318800D01*
X136967685Y-112391371D01*
X137003971Y-112427657D01*
X137076542Y-112463942D01*
X137257971Y-112463942D01*
X137330542Y-112427657D01*
X137366828Y-112391371D01*
X137403114Y-112318800D01*
X137403114Y-112101085D01*
X137366828Y-112028514D01*
X137330542Y-111992228D01*
X136641114Y-112935657D02*
X136641114Y-113008228D01*
X136677400Y-113080800D01*
X136713685Y-113117085D01*
X136786257Y-113153371D01*
X136931400Y-113189657D01*
X137112828Y-113189657D01*
X137257971Y-113153371D01*
X137330542Y-113117085D01*
X137366828Y-113080800D01*
X137403114Y-113008228D01*
X137403114Y-112935657D01*
X137366828Y-112863085D01*
X137330542Y-112826800D01*
X137257971Y-112790514D01*
X137112828Y-112754228D01*
X136931400Y-112754228D01*
X136786257Y-112790514D01*
X136713685Y-112826800D01*
X136677400Y-112863085D01*
X136641114Y-112935657D01*
X136641114Y-113443657D02*
X136641114Y-113915371D01*
X136931400Y-113661371D01*
X136931400Y-113770228D01*
X136967685Y-113842800D01*
X137003971Y-113879085D01*
X137076542Y-113915371D01*
X137257971Y-113915371D01*
X137330542Y-113879085D01*
X137366828Y-113842800D01*
X137403114Y-113770228D01*
X137403114Y-113552514D01*
X137366828Y-113479942D01*
X137330542Y-113443657D01*
%TO.C,C402*%
X222027714Y-96712142D02*
X222064000Y-96748428D01*
X222172857Y-96784714D01*
X222245428Y-96784714D01*
X222354285Y-96748428D01*
X222426857Y-96675857D01*
X222463142Y-96603285D01*
X222499428Y-96458142D01*
X222499428Y-96349285D01*
X222463142Y-96204142D01*
X222426857Y-96131571D01*
X222354285Y-96059000D01*
X222245428Y-96022714D01*
X222172857Y-96022714D01*
X222064000Y-96059000D01*
X222027714Y-96095285D01*
X221374571Y-96276714D02*
X221374571Y-96784714D01*
X221556000Y-95986428D02*
X221737428Y-96530714D01*
X221265714Y-96530714D01*
X220830285Y-96022714D02*
X220757714Y-96022714D01*
X220685142Y-96059000D01*
X220648857Y-96095285D01*
X220612571Y-96167857D01*
X220576285Y-96313000D01*
X220576285Y-96494428D01*
X220612571Y-96639571D01*
X220648857Y-96712142D01*
X220685142Y-96748428D01*
X220757714Y-96784714D01*
X220830285Y-96784714D01*
X220902857Y-96748428D01*
X220939142Y-96712142D01*
X220975428Y-96639571D01*
X221011714Y-96494428D01*
X221011714Y-96313000D01*
X220975428Y-96167857D01*
X220939142Y-96095285D01*
X220902857Y-96059000D01*
X220830285Y-96022714D01*
X220286000Y-96095285D02*
X220249714Y-96059000D01*
X220177142Y-96022714D01*
X219995714Y-96022714D01*
X219923142Y-96059000D01*
X219886857Y-96095285D01*
X219850571Y-96167857D01*
X219850571Y-96240428D01*
X219886857Y-96349285D01*
X220322285Y-96784714D01*
X219850571Y-96784714D01*
%TO.C,C404*%
X220740514Y-143511142D02*
X220776800Y-143547428D01*
X220885657Y-143583714D01*
X220958228Y-143583714D01*
X221067085Y-143547428D01*
X221139657Y-143474857D01*
X221175942Y-143402285D01*
X221212228Y-143257142D01*
X221212228Y-143148285D01*
X221175942Y-143003142D01*
X221139657Y-142930571D01*
X221067085Y-142858000D01*
X220958228Y-142821714D01*
X220885657Y-142821714D01*
X220776800Y-142858000D01*
X220740514Y-142894285D01*
X220087371Y-143075714D02*
X220087371Y-143583714D01*
X220268800Y-142785428D02*
X220450228Y-143329714D01*
X219978514Y-143329714D01*
X219543085Y-142821714D02*
X219470514Y-142821714D01*
X219397942Y-142858000D01*
X219361657Y-142894285D01*
X219325371Y-142966857D01*
X219289085Y-143112000D01*
X219289085Y-143293428D01*
X219325371Y-143438571D01*
X219361657Y-143511142D01*
X219397942Y-143547428D01*
X219470514Y-143583714D01*
X219543085Y-143583714D01*
X219615657Y-143547428D01*
X219651942Y-143511142D01*
X219688228Y-143438571D01*
X219724514Y-143293428D01*
X219724514Y-143112000D01*
X219688228Y-142966857D01*
X219651942Y-142894285D01*
X219615657Y-142858000D01*
X219543085Y-142821714D01*
X218635942Y-143075714D02*
X218635942Y-143583714D01*
X218817371Y-142785428D02*
X218998800Y-143329714D01*
X218527085Y-143329714D01*
%TO.C,C401*%
X195750542Y-119365485D02*
X195786828Y-119329200D01*
X195823114Y-119220342D01*
X195823114Y-119147771D01*
X195786828Y-119038914D01*
X195714257Y-118966342D01*
X195641685Y-118930057D01*
X195496542Y-118893771D01*
X195387685Y-118893771D01*
X195242542Y-118930057D01*
X195169971Y-118966342D01*
X195097400Y-119038914D01*
X195061114Y-119147771D01*
X195061114Y-119220342D01*
X195097400Y-119329200D01*
X195133685Y-119365485D01*
X195315114Y-120018628D02*
X195823114Y-120018628D01*
X195024828Y-119837200D02*
X195569114Y-119655771D01*
X195569114Y-120127485D01*
X195061114Y-120562914D02*
X195061114Y-120635485D01*
X195097400Y-120708057D01*
X195133685Y-120744342D01*
X195206257Y-120780628D01*
X195351400Y-120816914D01*
X195532828Y-120816914D01*
X195677971Y-120780628D01*
X195750542Y-120744342D01*
X195786828Y-120708057D01*
X195823114Y-120635485D01*
X195823114Y-120562914D01*
X195786828Y-120490342D01*
X195750542Y-120454057D01*
X195677971Y-120417771D01*
X195532828Y-120381485D01*
X195351400Y-120381485D01*
X195206257Y-120417771D01*
X195133685Y-120454057D01*
X195097400Y-120490342D01*
X195061114Y-120562914D01*
X195823114Y-121542628D02*
X195823114Y-121107200D01*
X195823114Y-121324914D02*
X195061114Y-121324914D01*
X195169971Y-121252342D01*
X195242542Y-121179771D01*
X195278828Y-121107200D01*
%TO.C,C405*%
X195827714Y-74668742D02*
X195864000Y-74705028D01*
X195972857Y-74741314D01*
X196045428Y-74741314D01*
X196154285Y-74705028D01*
X196226857Y-74632457D01*
X196263142Y-74559885D01*
X196299428Y-74414742D01*
X196299428Y-74305885D01*
X196263142Y-74160742D01*
X196226857Y-74088171D01*
X196154285Y-74015600D01*
X196045428Y-73979314D01*
X195972857Y-73979314D01*
X195864000Y-74015600D01*
X195827714Y-74051885D01*
X195174571Y-74233314D02*
X195174571Y-74741314D01*
X195356000Y-73943028D02*
X195537428Y-74487314D01*
X195065714Y-74487314D01*
X194630285Y-73979314D02*
X194557714Y-73979314D01*
X194485142Y-74015600D01*
X194448857Y-74051885D01*
X194412571Y-74124457D01*
X194376285Y-74269600D01*
X194376285Y-74451028D01*
X194412571Y-74596171D01*
X194448857Y-74668742D01*
X194485142Y-74705028D01*
X194557714Y-74741314D01*
X194630285Y-74741314D01*
X194702857Y-74705028D01*
X194739142Y-74668742D01*
X194775428Y-74596171D01*
X194811714Y-74451028D01*
X194811714Y-74269600D01*
X194775428Y-74124457D01*
X194739142Y-74051885D01*
X194702857Y-74015600D01*
X194630285Y-73979314D01*
X193686857Y-73979314D02*
X194049714Y-73979314D01*
X194086000Y-74342171D01*
X194049714Y-74305885D01*
X193977142Y-74269600D01*
X193795714Y-74269600D01*
X193723142Y-74305885D01*
X193686857Y-74342171D01*
X193650571Y-74414742D01*
X193650571Y-74596171D01*
X193686857Y-74668742D01*
X193723142Y-74705028D01*
X193795714Y-74741314D01*
X193977142Y-74741314D01*
X194049714Y-74705028D01*
X194086000Y-74668742D01*
%TO.C,R305*%
X139714514Y-108269314D02*
X139968514Y-107906457D01*
X140149942Y-108269314D02*
X140149942Y-107507314D01*
X139859657Y-107507314D01*
X139787085Y-107543600D01*
X139750800Y-107579885D01*
X139714514Y-107652457D01*
X139714514Y-107761314D01*
X139750800Y-107833885D01*
X139787085Y-107870171D01*
X139859657Y-107906457D01*
X140149942Y-107906457D01*
X139460514Y-107507314D02*
X138988800Y-107507314D01*
X139242800Y-107797600D01*
X139133942Y-107797600D01*
X139061371Y-107833885D01*
X139025085Y-107870171D01*
X138988800Y-107942742D01*
X138988800Y-108124171D01*
X139025085Y-108196742D01*
X139061371Y-108233028D01*
X139133942Y-108269314D01*
X139351657Y-108269314D01*
X139424228Y-108233028D01*
X139460514Y-108196742D01*
X138517085Y-107507314D02*
X138444514Y-107507314D01*
X138371942Y-107543600D01*
X138335657Y-107579885D01*
X138299371Y-107652457D01*
X138263085Y-107797600D01*
X138263085Y-107979028D01*
X138299371Y-108124171D01*
X138335657Y-108196742D01*
X138371942Y-108233028D01*
X138444514Y-108269314D01*
X138517085Y-108269314D01*
X138589657Y-108233028D01*
X138625942Y-108196742D01*
X138662228Y-108124171D01*
X138698514Y-107979028D01*
X138698514Y-107797600D01*
X138662228Y-107652457D01*
X138625942Y-107579885D01*
X138589657Y-107543600D01*
X138517085Y-107507314D01*
X137573657Y-107507314D02*
X137936514Y-107507314D01*
X137972800Y-107870171D01*
X137936514Y-107833885D01*
X137863942Y-107797600D01*
X137682514Y-107797600D01*
X137609942Y-107833885D01*
X137573657Y-107870171D01*
X137537371Y-107942742D01*
X137537371Y-108124171D01*
X137573657Y-108196742D01*
X137609942Y-108233028D01*
X137682514Y-108269314D01*
X137863942Y-108269314D01*
X137936514Y-108233028D01*
X137972800Y-108196742D01*
%TO.C,C403*%
X220765914Y-120676542D02*
X220802200Y-120712828D01*
X220911057Y-120749114D01*
X220983628Y-120749114D01*
X221092485Y-120712828D01*
X221165057Y-120640257D01*
X221201342Y-120567685D01*
X221237628Y-120422542D01*
X221237628Y-120313685D01*
X221201342Y-120168542D01*
X221165057Y-120095971D01*
X221092485Y-120023400D01*
X220983628Y-119987114D01*
X220911057Y-119987114D01*
X220802200Y-120023400D01*
X220765914Y-120059685D01*
X220112771Y-120241114D02*
X220112771Y-120749114D01*
X220294200Y-119950828D02*
X220475628Y-120495114D01*
X220003914Y-120495114D01*
X219568485Y-119987114D02*
X219495914Y-119987114D01*
X219423342Y-120023400D01*
X219387057Y-120059685D01*
X219350771Y-120132257D01*
X219314485Y-120277400D01*
X219314485Y-120458828D01*
X219350771Y-120603971D01*
X219387057Y-120676542D01*
X219423342Y-120712828D01*
X219495914Y-120749114D01*
X219568485Y-120749114D01*
X219641057Y-120712828D01*
X219677342Y-120676542D01*
X219713628Y-120603971D01*
X219749914Y-120458828D01*
X219749914Y-120277400D01*
X219713628Y-120132257D01*
X219677342Y-120059685D01*
X219641057Y-120023400D01*
X219568485Y-119987114D01*
X219060485Y-119987114D02*
X218588771Y-119987114D01*
X218842771Y-120277400D01*
X218733914Y-120277400D01*
X218661342Y-120313685D01*
X218625057Y-120349971D01*
X218588771Y-120422542D01*
X218588771Y-120603971D01*
X218625057Y-120676542D01*
X218661342Y-120712828D01*
X218733914Y-120749114D01*
X218951628Y-120749114D01*
X219024200Y-120712828D01*
X219060485Y-120676542D01*
D12*
%TO.C,C305*%
X141346600Y-118776636D02*
X141346600Y-118560964D01*
X142066600Y-118776636D02*
X142066600Y-118560964D01*
%TO.C,G\u002A\u002A\u002A*%
G36*
X145058830Y-81690498D02*
G01*
X145157177Y-81921521D01*
X145253994Y-82148947D01*
X145348952Y-82372004D01*
X145441723Y-82589919D01*
X145531979Y-82801922D01*
X145619390Y-83007241D01*
X145703629Y-83205103D01*
X145784366Y-83394739D01*
X145861274Y-83575375D01*
X145934023Y-83746241D01*
X146002286Y-83906565D01*
X146065733Y-84055574D01*
X146124036Y-84192499D01*
X146176867Y-84316566D01*
X146223896Y-84427004D01*
X146264797Y-84523042D01*
X146299239Y-84603908D01*
X146326894Y-84668831D01*
X146347435Y-84717038D01*
X146360532Y-84747759D01*
X146475856Y-85018095D01*
X147839169Y-85020611D01*
X149202482Y-85023126D01*
X149658440Y-86094340D01*
X149692671Y-86174784D01*
X149750325Y-86310372D01*
X149805490Y-86440234D01*
X149857686Y-86563230D01*
X149906430Y-86678222D01*
X149951242Y-86784071D01*
X149991641Y-86879638D01*
X150027144Y-86963785D01*
X150057272Y-87035371D01*
X150081543Y-87093259D01*
X150099474Y-87136310D01*
X150110586Y-87163384D01*
X150114397Y-87173344D01*
X150111748Y-87173594D01*
X150091873Y-87174071D01*
X150053037Y-87174541D01*
X149995823Y-87175001D01*
X149920813Y-87175452D01*
X149828588Y-87175893D01*
X149719732Y-87176321D01*
X149594825Y-87176738D01*
X149454451Y-87177141D01*
X149299190Y-87177530D01*
X149129625Y-87177904D01*
X148946338Y-87178262D01*
X148749911Y-87178604D01*
X148540926Y-87178928D01*
X148319965Y-87179233D01*
X148087610Y-87179519D01*
X147844443Y-87179785D01*
X147591046Y-87180029D01*
X147328002Y-87180252D01*
X147055891Y-87180451D01*
X146775297Y-87180627D01*
X146486800Y-87180778D01*
X146190984Y-87180904D01*
X145888430Y-87181003D01*
X145579721Y-87181075D01*
X145265437Y-87181119D01*
X144946162Y-87181134D01*
X144736853Y-87181132D01*
X144351450Y-87181115D01*
X143985235Y-87181080D01*
X143637777Y-87181026D01*
X143308646Y-87180953D01*
X142997410Y-87180859D01*
X142703639Y-87180743D01*
X142426902Y-87180605D01*
X142166770Y-87180442D01*
X141922810Y-87180254D01*
X141694592Y-87180041D01*
X141481686Y-87179801D01*
X141283660Y-87179532D01*
X141100085Y-87179235D01*
X140930529Y-87178907D01*
X140774561Y-87178548D01*
X140631752Y-87178157D01*
X140501670Y-87177733D01*
X140383884Y-87177275D01*
X140277965Y-87176782D01*
X140183480Y-87176252D01*
X140100000Y-87175685D01*
X140027094Y-87175079D01*
X139964331Y-87174435D01*
X139911280Y-87173749D01*
X139867511Y-87173023D01*
X139832592Y-87172254D01*
X139806094Y-87171441D01*
X139787586Y-87170584D01*
X139776636Y-87169681D01*
X139772815Y-87168732D01*
X139771703Y-87166100D01*
X139763829Y-87147579D01*
X139748889Y-87112488D01*
X139727376Y-87061983D01*
X139699783Y-86997221D01*
X139666602Y-86919358D01*
X139628327Y-86829551D01*
X139585450Y-86728954D01*
X139538465Y-86618725D01*
X139487862Y-86500020D01*
X139434137Y-86373995D01*
X139377780Y-86241807D01*
X139319286Y-86104611D01*
X139292676Y-86042190D01*
X139235060Y-85906970D01*
X139179807Y-85777206D01*
X139127410Y-85654061D01*
X139078362Y-85538699D01*
X139033157Y-85432281D01*
X138992289Y-85335971D01*
X138956250Y-85250933D01*
X138925535Y-85178330D01*
X138900636Y-85119325D01*
X138882047Y-85075081D01*
X138870262Y-85046761D01*
X138865773Y-85035529D01*
X138865596Y-85034688D01*
X138866222Y-85032335D01*
X138869336Y-85030216D01*
X138875902Y-85028319D01*
X138886883Y-85026632D01*
X138903244Y-85025142D01*
X138925949Y-85023837D01*
X138955963Y-85022705D01*
X138994249Y-85021734D01*
X139041772Y-85020911D01*
X139099496Y-85020224D01*
X139168386Y-85019662D01*
X139249405Y-85019211D01*
X139343519Y-85018861D01*
X139451691Y-85018597D01*
X139574885Y-85018409D01*
X139714065Y-85018284D01*
X139870197Y-85018210D01*
X140044244Y-85018174D01*
X140237171Y-85018165D01*
X140422543Y-85018160D01*
X140597098Y-85018137D01*
X140753708Y-85018081D01*
X140893340Y-85017980D01*
X141016964Y-85017820D01*
X141125547Y-85017588D01*
X141220058Y-85017271D01*
X141301465Y-85016855D01*
X141370736Y-85016327D01*
X141428841Y-85015674D01*
X141476746Y-85014883D01*
X141515422Y-85013939D01*
X141545835Y-85012831D01*
X141568956Y-85011544D01*
X141585750Y-85010065D01*
X141597188Y-85008382D01*
X141604238Y-85006480D01*
X141607867Y-85004346D01*
X141609045Y-85001968D01*
X141608740Y-84999331D01*
X141607263Y-84995313D01*
X141598810Y-84974459D01*
X141583389Y-84937291D01*
X141561534Y-84885070D01*
X141533779Y-84819057D01*
X141500655Y-84740517D01*
X141462697Y-84650710D01*
X141420438Y-84550898D01*
X141374411Y-84442345D01*
X141325148Y-84326313D01*
X141273185Y-84204063D01*
X141219053Y-84076858D01*
X140834291Y-83173220D01*
X137266473Y-83170003D01*
X137163209Y-83169911D01*
X136849413Y-83169637D01*
X136554587Y-83169384D01*
X136278068Y-83169143D01*
X136019191Y-83168904D01*
X135777293Y-83168659D01*
X135551710Y-83168398D01*
X135341778Y-83168113D01*
X135146834Y-83167793D01*
X134966213Y-83167429D01*
X134799252Y-83167014D01*
X134645288Y-83166536D01*
X134503656Y-83165988D01*
X134373692Y-83165360D01*
X134254734Y-83164643D01*
X134146116Y-83163827D01*
X134047176Y-83162904D01*
X133957249Y-83161864D01*
X133875672Y-83160698D01*
X133801781Y-83159398D01*
X133734912Y-83157953D01*
X133674402Y-83156354D01*
X133619587Y-83154593D01*
X133569802Y-83152661D01*
X133524384Y-83150547D01*
X133482670Y-83148243D01*
X133443996Y-83145740D01*
X133407697Y-83143029D01*
X133373111Y-83140100D01*
X133339573Y-83136944D01*
X133306419Y-83133552D01*
X133272986Y-83129915D01*
X133238610Y-83126024D01*
X133202627Y-83121869D01*
X133164374Y-83117442D01*
X133123186Y-83112733D01*
X132967023Y-83093639D01*
X132640478Y-83043854D01*
X132329521Y-82982405D01*
X132033723Y-82909143D01*
X131752660Y-82823920D01*
X131485904Y-82726584D01*
X131233028Y-82616988D01*
X130993607Y-82494982D01*
X130767213Y-82360416D01*
X130553421Y-82213141D01*
X130505322Y-82176931D01*
X130306803Y-82013670D01*
X130118002Y-81835186D01*
X129938311Y-81640785D01*
X129767120Y-81429776D01*
X129603821Y-81201464D01*
X129447804Y-80955157D01*
X129412428Y-80894726D01*
X129337144Y-80759212D01*
X129258230Y-80608782D01*
X129176933Y-80446216D01*
X129094501Y-80274297D01*
X129012180Y-80095806D01*
X128931216Y-79913525D01*
X128852859Y-79730235D01*
X128778353Y-79548719D01*
X128715324Y-79388016D01*
X133031359Y-79388016D01*
X133041335Y-79501842D01*
X133065656Y-79617266D01*
X133105193Y-79739298D01*
X133139453Y-79824497D01*
X133223162Y-79994313D01*
X133323015Y-80154169D01*
X133437856Y-80303184D01*
X133566529Y-80440476D01*
X133707878Y-80565164D01*
X133860747Y-80676367D01*
X134023980Y-80773201D01*
X134196420Y-80854787D01*
X134376912Y-80920242D01*
X134564298Y-80968684D01*
X134757424Y-80999233D01*
X134759135Y-80999402D01*
X134782646Y-81000669D01*
X134824355Y-81001851D01*
X134884370Y-81002948D01*
X134962802Y-81003962D01*
X135059760Y-81004892D01*
X135175355Y-81005738D01*
X135309695Y-81006502D01*
X135462891Y-81007184D01*
X135635053Y-81007784D01*
X135826290Y-81008302D01*
X136036712Y-81008740D01*
X136266428Y-81009096D01*
X136515549Y-81009373D01*
X136784184Y-81009571D01*
X137072444Y-81009689D01*
X137380437Y-81009728D01*
X137499242Y-81009728D01*
X137755177Y-81009724D01*
X137992301Y-81009711D01*
X138211329Y-81009683D01*
X138412977Y-81009636D01*
X138597963Y-81009562D01*
X138767003Y-81009457D01*
X138920812Y-81009316D01*
X139060108Y-81009132D01*
X139185607Y-81008900D01*
X139298026Y-81008614D01*
X139398080Y-81008269D01*
X139486486Y-81007860D01*
X139563960Y-81007381D01*
X139631220Y-81006825D01*
X139688981Y-81006189D01*
X139737960Y-81005466D01*
X139778873Y-81004650D01*
X139812436Y-81003737D01*
X139839367Y-81002720D01*
X139860381Y-81001594D01*
X139876195Y-81000353D01*
X139887525Y-80998993D01*
X139895088Y-80997506D01*
X139899600Y-80995889D01*
X139901777Y-80994134D01*
X139902336Y-80992238D01*
X139901994Y-80990193D01*
X139901915Y-80989929D01*
X139896838Y-80977072D01*
X139884486Y-80947159D01*
X139865326Y-80901299D01*
X139839828Y-80840599D01*
X139808459Y-80766167D01*
X139771689Y-80679111D01*
X139729986Y-80580538D01*
X139683819Y-80471555D01*
X139633655Y-80353271D01*
X139579965Y-80226792D01*
X139523216Y-80093228D01*
X139463877Y-79953685D01*
X139402416Y-79809270D01*
X138907946Y-78647882D01*
X133807796Y-78654276D01*
X133698655Y-78675668D01*
X133567787Y-78706726D01*
X133451400Y-78746429D01*
X133350135Y-78795128D01*
X133262337Y-78853619D01*
X133186351Y-78922702D01*
X133153919Y-78959628D01*
X133102283Y-79035504D01*
X133065536Y-79118485D01*
X133042479Y-79211643D01*
X133031911Y-79318048D01*
X133031359Y-79388016D01*
X128715324Y-79388016D01*
X128708947Y-79371757D01*
X128645887Y-79202131D01*
X128590420Y-79042624D01*
X128569757Y-78979556D01*
X128505508Y-78763643D01*
X128455789Y-78560621D01*
X128420650Y-78369949D01*
X128400141Y-78191086D01*
X128394313Y-78023490D01*
X128403215Y-77866620D01*
X128426898Y-77719935D01*
X128465412Y-77582895D01*
X128518808Y-77454958D01*
X128587135Y-77335582D01*
X128670444Y-77224228D01*
X128768784Y-77120353D01*
X128830948Y-77064257D01*
X128915224Y-76997795D01*
X129006226Y-76937402D01*
X129110395Y-76878519D01*
X129153552Y-76856391D01*
X129316804Y-76783324D01*
X129496788Y-76718321D01*
X129693722Y-76661333D01*
X129907829Y-76612316D01*
X130139327Y-76571223D01*
X130388438Y-76538008D01*
X130655380Y-76512625D01*
X130940374Y-76495028D01*
X130962667Y-76494317D01*
X131000962Y-76493600D01*
X131054546Y-76492920D01*
X131123588Y-76492275D01*
X131208257Y-76491666D01*
X131308720Y-76491093D01*
X131425147Y-76490555D01*
X131557707Y-76490053D01*
X131706567Y-76489586D01*
X131871898Y-76489153D01*
X132053866Y-76488756D01*
X132252643Y-76488393D01*
X132468395Y-76488064D01*
X132701291Y-76487770D01*
X132951501Y-76487510D01*
X133219193Y-76487284D01*
X133504535Y-76487091D01*
X133807697Y-76486932D01*
X134128847Y-76486806D01*
X134468154Y-76486714D01*
X134825786Y-76486655D01*
X135201913Y-76486628D01*
X135596702Y-76486634D01*
X136010323Y-76486673D01*
X136442944Y-76486744D01*
X136894734Y-76486847D01*
X137365862Y-76486982D01*
X137856496Y-76487149D01*
X138366805Y-76487348D01*
X145565032Y-76490314D01*
X146023176Y-77566837D01*
X146481319Y-78643361D01*
X145123611Y-78648322D01*
X143765904Y-78653282D01*
X144761584Y-80992238D01*
X145005556Y-81565353D01*
X145058830Y-81690498D01*
G37*
G36*
X151939406Y-87871477D02*
G01*
X151994469Y-88000942D01*
X152044322Y-88118173D01*
X152088644Y-88222418D01*
X152127114Y-88312922D01*
X152159413Y-88388933D01*
X152185220Y-88449699D01*
X152204215Y-88494465D01*
X152216078Y-88522480D01*
X152220488Y-88532989D01*
X152220475Y-88533868D01*
X152219176Y-88534963D01*
X152216020Y-88536008D01*
X152210569Y-88537005D01*
X152202386Y-88537955D01*
X152191030Y-88538858D01*
X152176064Y-88539717D01*
X152157048Y-88540532D01*
X152133544Y-88541305D01*
X152105114Y-88542036D01*
X152071317Y-88542727D01*
X152031716Y-88543378D01*
X151985872Y-88543992D01*
X151933347Y-88544569D01*
X151873700Y-88545109D01*
X151806495Y-88545616D01*
X151731291Y-88546088D01*
X151647651Y-88546529D01*
X151555135Y-88546938D01*
X151453305Y-88547317D01*
X151341722Y-88547667D01*
X151219947Y-88547989D01*
X151087542Y-88548285D01*
X150944068Y-88548555D01*
X150789086Y-88548801D01*
X150622157Y-88549023D01*
X150442843Y-88549224D01*
X150250705Y-88549403D01*
X150045304Y-88549563D01*
X149826201Y-88549704D01*
X149592959Y-88549827D01*
X149345137Y-88549934D01*
X149082298Y-88550026D01*
X148804002Y-88550103D01*
X148509811Y-88550168D01*
X148199286Y-88550220D01*
X147871989Y-88550262D01*
X147527480Y-88550295D01*
X147165321Y-88550319D01*
X146785073Y-88550335D01*
X146386297Y-88550346D01*
X145968556Y-88550351D01*
X145531409Y-88550353D01*
X138835684Y-88550353D01*
X138705745Y-88245255D01*
X138699146Y-88229757D01*
X138678286Y-88180767D01*
X138650344Y-88115133D01*
X138615802Y-88033990D01*
X138575143Y-87938472D01*
X138528848Y-87829713D01*
X138477402Y-87708847D01*
X138421287Y-87577008D01*
X138360985Y-87435330D01*
X138296979Y-87284948D01*
X138229752Y-87126994D01*
X138159787Y-86962605D01*
X138087565Y-86792912D01*
X138013571Y-86619051D01*
X137938286Y-86442156D01*
X137862194Y-86263361D01*
X137148581Y-84586564D01*
X135458345Y-84580535D01*
X135392874Y-84580300D01*
X135177983Y-84579508D01*
X134981535Y-84578735D01*
X134802443Y-84577962D01*
X134639618Y-84577169D01*
X134491973Y-84576337D01*
X134358422Y-84575446D01*
X134237875Y-84574476D01*
X134129246Y-84573407D01*
X134031447Y-84572221D01*
X133943391Y-84570896D01*
X133863989Y-84569414D01*
X133792155Y-84567754D01*
X133726801Y-84565898D01*
X133666840Y-84563825D01*
X133611183Y-84561516D01*
X133558743Y-84558951D01*
X133508434Y-84556111D01*
X133459166Y-84552975D01*
X133409853Y-84549524D01*
X133359407Y-84545738D01*
X133306741Y-84541598D01*
X133094096Y-84522650D01*
X132722128Y-84479356D01*
X132365404Y-84424220D01*
X132023334Y-84357027D01*
X131695327Y-84277567D01*
X131380793Y-84185626D01*
X131079141Y-84080991D01*
X130789779Y-83963452D01*
X130512118Y-83832794D01*
X130245567Y-83688806D01*
X129989534Y-83531274D01*
X129743430Y-83359987D01*
X129506663Y-83174733D01*
X129500921Y-83169948D01*
X129449190Y-83124823D01*
X129387295Y-83067980D01*
X129317954Y-83002144D01*
X129243885Y-82930039D01*
X129167803Y-82854393D01*
X129092426Y-82777928D01*
X129020470Y-82703372D01*
X128954654Y-82633449D01*
X128897694Y-82570883D01*
X128852307Y-82518401D01*
X128741615Y-82381482D01*
X128596946Y-82190157D01*
X128456600Y-81989639D01*
X128319928Y-81778753D01*
X128186278Y-81556321D01*
X128054999Y-81321167D01*
X127925440Y-81072113D01*
X127796950Y-80807982D01*
X127668878Y-80527597D01*
X127540573Y-80229783D01*
X127411385Y-79913361D01*
X127337090Y-79720192D01*
X127239166Y-79439541D01*
X127157415Y-79169297D01*
X127091780Y-78908886D01*
X127042206Y-78657731D01*
X127008637Y-78415255D01*
X126991017Y-78180884D01*
X126989876Y-78030954D01*
X127907977Y-78030954D01*
X127913348Y-78197963D01*
X127930897Y-78373209D01*
X127960753Y-78557646D01*
X128003044Y-78752230D01*
X128057902Y-78957916D01*
X128125454Y-79175657D01*
X128205831Y-79406409D01*
X128299161Y-79651127D01*
X128419105Y-79946229D01*
X128542676Y-80233752D01*
X128665915Y-80503201D01*
X128789364Y-80755450D01*
X128913565Y-80991375D01*
X129039062Y-81211853D01*
X129166396Y-81417759D01*
X129296109Y-81609968D01*
X129428744Y-81789355D01*
X129564844Y-81956798D01*
X129704950Y-82113171D01*
X129849605Y-82259349D01*
X129999351Y-82396210D01*
X130099100Y-82480340D01*
X130308796Y-82641606D01*
X130528629Y-82790284D01*
X130759167Y-82926561D01*
X131000976Y-83050626D01*
X131254624Y-83162667D01*
X131520678Y-83262871D01*
X131799704Y-83351427D01*
X132092269Y-83428521D01*
X132398941Y-83494343D01*
X132720286Y-83549080D01*
X133056871Y-83592920D01*
X133409264Y-83626051D01*
X133778030Y-83648661D01*
X133795629Y-83649288D01*
X133839825Y-83650261D01*
X133903299Y-83651186D01*
X133985702Y-83652064D01*
X134086685Y-83652894D01*
X134205898Y-83653673D01*
X134342993Y-83654401D01*
X134497619Y-83655078D01*
X134669430Y-83655701D01*
X134858074Y-83656271D01*
X135063204Y-83656786D01*
X135284470Y-83657244D01*
X135521523Y-83657646D01*
X135774014Y-83657990D01*
X136041594Y-83658275D01*
X136323914Y-83658499D01*
X136620624Y-83658663D01*
X136931377Y-83658765D01*
X137255822Y-83658803D01*
X140515332Y-83658868D01*
X140885064Y-84527032D01*
X139506261Y-84529548D01*
X139441049Y-84529667D01*
X139254214Y-84530025D01*
X139085946Y-84530379D01*
X138935281Y-84530744D01*
X138801256Y-84531134D01*
X138682909Y-84531562D01*
X138579277Y-84532042D01*
X138489396Y-84532589D01*
X138412304Y-84533216D01*
X138347038Y-84533938D01*
X138292635Y-84534767D01*
X138248132Y-84535718D01*
X138212566Y-84536806D01*
X138184974Y-84538043D01*
X138164394Y-84539444D01*
X138149862Y-84541022D01*
X138140415Y-84542792D01*
X138135091Y-84544768D01*
X138132926Y-84546963D01*
X138132958Y-84549391D01*
X138133073Y-84549714D01*
X138138334Y-84562546D01*
X138150924Y-84592575D01*
X138170438Y-84638849D01*
X138196472Y-84700416D01*
X138228620Y-84776323D01*
X138266479Y-84865617D01*
X138309645Y-84967346D01*
X138357712Y-85080558D01*
X138410277Y-85204299D01*
X138466935Y-85337618D01*
X138527281Y-85479561D01*
X138590912Y-85629177D01*
X138657422Y-85785512D01*
X138726408Y-85947615D01*
X138797465Y-86114532D01*
X139456470Y-87662345D01*
X145153215Y-87664834D01*
X145339630Y-87664915D01*
X145733176Y-87665083D01*
X146107570Y-87665238D01*
X146463290Y-87665377D01*
X146800810Y-87665500D01*
X147120607Y-87665606D01*
X147423155Y-87665694D01*
X147708932Y-87665761D01*
X147978411Y-87665807D01*
X148232069Y-87665831D01*
X148470382Y-87665831D01*
X148693825Y-87665806D01*
X148902874Y-87665755D01*
X149098005Y-87665676D01*
X149279692Y-87665569D01*
X149448413Y-87665432D01*
X149604642Y-87665264D01*
X149748855Y-87665064D01*
X149881528Y-87664830D01*
X150003136Y-87664561D01*
X150114155Y-87664256D01*
X150215062Y-87663914D01*
X150306330Y-87663533D01*
X150388437Y-87663113D01*
X150461857Y-87662651D01*
X150527066Y-87662147D01*
X150584541Y-87661599D01*
X150634756Y-87661007D01*
X150678187Y-87660369D01*
X150715311Y-87659683D01*
X150746602Y-87658949D01*
X150772536Y-87658165D01*
X150793589Y-87657330D01*
X150810237Y-87656442D01*
X150822955Y-87655501D01*
X150832218Y-87654506D01*
X150838504Y-87653454D01*
X150842286Y-87652345D01*
X150844041Y-87651178D01*
X150844245Y-87649951D01*
X150844129Y-87649630D01*
X150838849Y-87636802D01*
X150826244Y-87606775D01*
X150806718Y-87560502D01*
X150780675Y-87498935D01*
X150748519Y-87423027D01*
X150710656Y-87333730D01*
X150667488Y-87231997D01*
X150619422Y-87118782D01*
X150566861Y-86995036D01*
X150510210Y-86861711D01*
X150449873Y-86719762D01*
X150386255Y-86570141D01*
X150319759Y-86413799D01*
X150250792Y-86251690D01*
X150179756Y-86084767D01*
X149520981Y-84536954D01*
X146794373Y-84531924D01*
X145648975Y-81841860D01*
X145560829Y-81634839D01*
X145468823Y-81418746D01*
X145379113Y-81208041D01*
X145292003Y-81003438D01*
X145207799Y-80805652D01*
X145126803Y-80615399D01*
X145049322Y-80433393D01*
X144975658Y-80260349D01*
X144906116Y-80096982D01*
X144841001Y-79944008D01*
X144780617Y-79802141D01*
X144725269Y-79672096D01*
X144675259Y-79554589D01*
X144630894Y-79450334D01*
X144592477Y-79360047D01*
X144560313Y-79284442D01*
X144534706Y-79224234D01*
X144515960Y-79180139D01*
X144504380Y-79152871D01*
X144500270Y-79143145D01*
X144501326Y-79142763D01*
X144517344Y-79141698D01*
X144551811Y-79140681D01*
X144603696Y-79139717D01*
X144671966Y-79138814D01*
X144755587Y-79137977D01*
X144853527Y-79137215D01*
X144964754Y-79136532D01*
X145088233Y-79135937D01*
X145222933Y-79135435D01*
X145367821Y-79135033D01*
X145521864Y-79134738D01*
X145684028Y-79134556D01*
X145853282Y-79134493D01*
X146013451Y-79134490D01*
X146188915Y-79134470D01*
X146346321Y-79134418D01*
X146486644Y-79134322D01*
X146610861Y-79134168D01*
X146719946Y-79133942D01*
X146814876Y-79133631D01*
X146896626Y-79133221D01*
X146966170Y-79132698D01*
X147024486Y-79132049D01*
X147072548Y-79131259D01*
X147111333Y-79130317D01*
X147141815Y-79129207D01*
X147164969Y-79127916D01*
X147181773Y-79126431D01*
X147193201Y-79124738D01*
X147200228Y-79122823D01*
X147203831Y-79120672D01*
X147204985Y-79118273D01*
X147204665Y-79115611D01*
X147204556Y-79115267D01*
X147199354Y-79102254D01*
X147186829Y-79072044D01*
X147167383Y-79025589D01*
X147141421Y-78963844D01*
X147109347Y-78887762D01*
X147071563Y-78798298D01*
X147028474Y-78696405D01*
X146980484Y-78583036D01*
X146927996Y-78459146D01*
X146871414Y-78325688D01*
X146811141Y-78183616D01*
X146747582Y-78033885D01*
X146681140Y-77877446D01*
X146612219Y-77715255D01*
X146541222Y-77548265D01*
X145882718Y-75999801D01*
X138520686Y-75999546D01*
X138154740Y-75999541D01*
X137659620Y-75999557D01*
X137180962Y-75999601D01*
X136718897Y-75999672D01*
X136273556Y-75999770D01*
X135845068Y-75999896D01*
X135433562Y-76000049D01*
X135039170Y-76000229D01*
X134662021Y-76000435D01*
X134302246Y-76000668D01*
X133959973Y-76000927D01*
X133635334Y-76001213D01*
X133328458Y-76001524D01*
X133039476Y-76001861D01*
X132768517Y-76002224D01*
X132515711Y-76002613D01*
X132281189Y-76003026D01*
X132065080Y-76003465D01*
X131867514Y-76003929D01*
X131688622Y-76004418D01*
X131528534Y-76004932D01*
X131387379Y-76005470D01*
X131265287Y-76006032D01*
X131162389Y-76006619D01*
X131078815Y-76007230D01*
X131014695Y-76007864D01*
X130970158Y-76008522D01*
X130945335Y-76009204D01*
X130757946Y-76019584D01*
X130467848Y-76042948D01*
X130195252Y-76074442D01*
X129939745Y-76114162D01*
X129700911Y-76162208D01*
X129478336Y-76218678D01*
X129271605Y-76283669D01*
X129080303Y-76357279D01*
X128904016Y-76439608D01*
X128742328Y-76530753D01*
X128612500Y-76618919D01*
X128473786Y-76732776D01*
X128347944Y-76858233D01*
X128236312Y-76993647D01*
X128140225Y-77137377D01*
X128061018Y-77287781D01*
X128000028Y-77443216D01*
X127963635Y-77569804D01*
X127933250Y-77717830D01*
X127914654Y-77871228D01*
X127907977Y-78030954D01*
X126989876Y-78030954D01*
X126989290Y-77954040D01*
X127003402Y-77734149D01*
X127033295Y-77520635D01*
X127078915Y-77312921D01*
X127140206Y-77110431D01*
X127162441Y-77051729D01*
X127193841Y-76977881D01*
X127230979Y-76896805D01*
X127271441Y-76813465D01*
X127312816Y-76732822D01*
X127352690Y-76659838D01*
X127388652Y-76599475D01*
X127512108Y-76421682D01*
X127656111Y-76248345D01*
X127815884Y-76086979D01*
X127991374Y-75937616D01*
X128182529Y-75800287D01*
X128389298Y-75675024D01*
X128611626Y-75561859D01*
X128849462Y-75460823D01*
X129102753Y-75371948D01*
X129371447Y-75295266D01*
X129655491Y-75230809D01*
X129742708Y-75214008D01*
X129886827Y-75189037D01*
X130036865Y-75166542D01*
X130195606Y-75146177D01*
X130365830Y-75127597D01*
X130550320Y-75110454D01*
X130751858Y-75094404D01*
X130757688Y-75094049D01*
X130777178Y-75093302D01*
X130806362Y-75092580D01*
X130845548Y-75091883D01*
X130895044Y-75091210D01*
X130955156Y-75090561D01*
X131026193Y-75089935D01*
X131108462Y-75089331D01*
X131202271Y-75088749D01*
X131307927Y-75088188D01*
X131425737Y-75087648D01*
X131556010Y-75087128D01*
X131699053Y-75086628D01*
X131855174Y-75086146D01*
X132024679Y-75085683D01*
X132207877Y-75085238D01*
X132405075Y-75084810D01*
X132616581Y-75084398D01*
X132842702Y-75084003D01*
X133083746Y-75083623D01*
X133340020Y-75083258D01*
X133611832Y-75082907D01*
X133899490Y-75082570D01*
X134203300Y-75082246D01*
X134523572Y-75081934D01*
X134860611Y-75081635D01*
X135214726Y-75081346D01*
X135586225Y-75081069D01*
X135975414Y-75080802D01*
X136382601Y-75080544D01*
X136808095Y-75080296D01*
X137252202Y-75080056D01*
X137715230Y-75079824D01*
X138197487Y-75079599D01*
X138699280Y-75079381D01*
X146487952Y-75076112D01*
X147544632Y-77557991D01*
X147558323Y-77590148D01*
X147648176Y-77801196D01*
X147735960Y-78007390D01*
X147821359Y-78207986D01*
X147904054Y-78402240D01*
X147983729Y-78589405D01*
X148060068Y-78768739D01*
X148132752Y-78939495D01*
X148201466Y-79100930D01*
X148265893Y-79252299D01*
X148325714Y-79392856D01*
X148380614Y-79521858D01*
X148430276Y-79638560D01*
X148474382Y-79742217D01*
X148512616Y-79832085D01*
X148544660Y-79907418D01*
X148570199Y-79967472D01*
X148588914Y-80011503D01*
X148600489Y-80038765D01*
X148604607Y-80048514D01*
X148603306Y-80048935D01*
X148586610Y-80050024D01*
X148551514Y-80051100D01*
X148499063Y-80052156D01*
X148430298Y-80053182D01*
X148346262Y-80054170D01*
X148247999Y-80055111D01*
X148136552Y-80055997D01*
X148012962Y-80056820D01*
X147878274Y-80057569D01*
X147733530Y-80058238D01*
X147579772Y-80058818D01*
X147418044Y-80059299D01*
X147249389Y-80059673D01*
X145890876Y-80062189D01*
X147400172Y-83609189D01*
X148763817Y-83611705D01*
X150127462Y-83614220D01*
X151170652Y-86064923D01*
X151172653Y-86069624D01*
X151262206Y-86280012D01*
X151349751Y-86485697D01*
X151434969Y-86685925D01*
X151517538Y-86879943D01*
X151597139Y-87066999D01*
X151673451Y-87246338D01*
X151746154Y-87417209D01*
X151814928Y-87578857D01*
X151845172Y-87649951D01*
X151879452Y-87730531D01*
X151939406Y-87871477D01*
G37*
G36*
X138877874Y-79810618D02*
G01*
X138923248Y-79917287D01*
X138967899Y-80022297D01*
X139009777Y-80120826D01*
X139048257Y-80211403D01*
X139082715Y-80292554D01*
X139112526Y-80362809D01*
X139137063Y-80420694D01*
X139155704Y-80464737D01*
X139167822Y-80493467D01*
X139172793Y-80505410D01*
X139172925Y-80505771D01*
X139173149Y-80507807D01*
X139171871Y-80509683D01*
X139168326Y-80511403D01*
X139161751Y-80512975D01*
X139151380Y-80514402D01*
X139136451Y-80515690D01*
X139116198Y-80516845D01*
X139089858Y-80517872D01*
X139056666Y-80518776D01*
X139015858Y-80519563D01*
X138966670Y-80520239D01*
X138908337Y-80520808D01*
X138840096Y-80521276D01*
X138761181Y-80521649D01*
X138670829Y-80521931D01*
X138568276Y-80522129D01*
X138452758Y-80522248D01*
X138323509Y-80522293D01*
X138179766Y-80522269D01*
X138020765Y-80522182D01*
X137845742Y-80522037D01*
X137653931Y-80521840D01*
X137444570Y-80521597D01*
X137216893Y-80521311D01*
X136970137Y-80520990D01*
X134760296Y-80518083D01*
X134668776Y-80496842D01*
X134517268Y-80454914D01*
X134361211Y-80396502D01*
X134216411Y-80325841D01*
X134085925Y-80244256D01*
X134052047Y-80219005D01*
X133982080Y-80160543D01*
X133909500Y-80092888D01*
X133839196Y-80020923D01*
X133776055Y-79949531D01*
X133724963Y-79883595D01*
X133712281Y-79865158D01*
X133668375Y-79794826D01*
X133625982Y-79717796D01*
X133587848Y-79639597D01*
X133556718Y-79565756D01*
X133535339Y-79501802D01*
X133524198Y-79453082D01*
X133516093Y-79391338D01*
X133515351Y-79335773D01*
X133521965Y-79290474D01*
X133535923Y-79259526D01*
X133555717Y-79240018D01*
X133600255Y-79211807D01*
X133661006Y-79185391D01*
X133735799Y-79161830D01*
X133817718Y-79139826D01*
X138590140Y-79134314D01*
X138877874Y-79810618D01*
G37*
%TO.C,C302*%
X140314000Y-118560964D02*
X140314000Y-118776636D01*
X139594000Y-118560964D02*
X139594000Y-118776636D01*
%TO.C,C408*%
X196190000Y-96792164D02*
X196190000Y-97007836D01*
X196910000Y-96792164D02*
X196910000Y-97007836D01*
%TO.C,R303*%
X143686800Y-121537759D02*
X143686800Y-121845041D01*
X142926800Y-121537759D02*
X142926800Y-121845041D01*
%TO.C,C407*%
X197135636Y-143539800D02*
X196919964Y-143539800D01*
X197135636Y-142819800D02*
X196919964Y-142819800D01*
%TO.C,C301*%
X141281036Y-123388800D02*
X141065364Y-123388800D01*
X141281036Y-124108800D02*
X141065364Y-124108800D01*
%TO.C,C406*%
X217515000Y-75042164D02*
X217515000Y-75257836D01*
X218235000Y-75042164D02*
X218235000Y-75257836D01*
%TO.C,C303*%
X138296764Y-122372800D02*
X138512436Y-122372800D01*
X138296764Y-123092800D02*
X138512436Y-123092800D01*
%TO.C,U303*%
X140853600Y-112572800D02*
X140853600Y-113372800D01*
X137733600Y-112572800D02*
X137733600Y-110772800D01*
X140853600Y-112572800D02*
X140853600Y-111772800D01*
X137733600Y-112572800D02*
X137733600Y-113372800D01*
%TO.C,C402*%
X221282836Y-97960000D02*
X221067164Y-97960000D01*
X221282836Y-97240000D02*
X221067164Y-97240000D01*
%TO.C,C404*%
X219995636Y-144039000D02*
X219779964Y-144039000D01*
X219995636Y-144759000D02*
X219779964Y-144759000D01*
%TO.C,C401*%
X196312200Y-119602364D02*
X196312200Y-119818036D01*
X197032200Y-119602364D02*
X197032200Y-119818036D01*
%TO.C,C405*%
X194867164Y-75140000D02*
X195082836Y-75140000D01*
X194867164Y-75860000D02*
X195082836Y-75860000D01*
%TO.C,R305*%
X138708159Y-109422200D02*
X139015441Y-109422200D01*
X138708159Y-108662200D02*
X139015441Y-108662200D01*
%TO.C,C403*%
X220021036Y-121204400D02*
X219805364Y-121204400D01*
X220021036Y-121924400D02*
X219805364Y-121924400D01*
%TD*%
M02*
