G04 #@! TF.GenerationSoftware,KiCad,Pcbnew,(6.0.7)*
G04 #@! TF.CreationDate,2023-05-24T13:20:34-04:00*
G04 #@! TF.ProjectId,ECELab_v1,4543454c-6162-45f7-9631-2e6b69636164,rev?*
G04 #@! TF.SameCoordinates,Original*
G04 #@! TF.FileFunction,Soldermask,Bot*
G04 #@! TF.FilePolarity,Negative*
%FSLAX46Y46*%
G04 Gerber Fmt 4.6, Leading zero omitted, Abs format (unit mm)*
G04 Created by KiCad (PCBNEW (6.0.7)) date 2023-05-24 13:20:34*
%MOMM*%
%LPD*%
G01*
G04 APERTURE LIST*
%ADD10C,5.000000*%
%ADD11R,1.700000X1.700000*%
%ADD12O,1.700000X1.700000*%
%ADD13R,1.524000X1.524000*%
%ADD14C,1.524000*%
%ADD15C,0.650000*%
%ADD16O,1.600000X1.000000*%
%ADD17O,2.100000X1.000000*%
G04 APERTURE END LIST*
D10*
X107950000Y-84328000D03*
D11*
X140475000Y-136815000D03*
D12*
X140475000Y-134275000D03*
X140475000Y-131735000D03*
D11*
X242037000Y-83477000D03*
D12*
X239497000Y-83477000D03*
X242037000Y-86017000D03*
X239497000Y-86017000D03*
X242037000Y-88557000D03*
X239497000Y-88557000D03*
X242037000Y-91097000D03*
X239497000Y-91097000D03*
X242037000Y-93637000D03*
X239497000Y-93637000D03*
X242037000Y-96177000D03*
X239497000Y-96177000D03*
X242037000Y-98717000D03*
X239497000Y-98717000D03*
X242037000Y-101257000D03*
X239497000Y-101257000D03*
X242037000Y-103797000D03*
X239497000Y-103797000D03*
X242037000Y-106337000D03*
X239497000Y-106337000D03*
X242037000Y-108877000D03*
X239497000Y-108877000D03*
X242037000Y-111417000D03*
X239497000Y-111417000D03*
X242037000Y-113957000D03*
X239497000Y-113957000D03*
X242037000Y-116497000D03*
X239497000Y-116497000D03*
X242037000Y-119037000D03*
X239497000Y-119037000D03*
X242037000Y-121577000D03*
X239497000Y-121577000D03*
X242037000Y-124117000D03*
X239497000Y-124117000D03*
X242037000Y-126657000D03*
X239497000Y-126657000D03*
X242037000Y-129197000D03*
X239497000Y-129197000D03*
X242037000Y-131737000D03*
X239497000Y-131737000D03*
D11*
X232893000Y-83477000D03*
D12*
X230353000Y-83477000D03*
X232893000Y-86017000D03*
X230353000Y-86017000D03*
X232893000Y-88557000D03*
X230353000Y-88557000D03*
X232893000Y-91097000D03*
X230353000Y-91097000D03*
X232893000Y-93637000D03*
X230353000Y-93637000D03*
X232893000Y-96177000D03*
X230353000Y-96177000D03*
X232893000Y-98717000D03*
X230353000Y-98717000D03*
X232893000Y-101257000D03*
X230353000Y-101257000D03*
X232893000Y-103797000D03*
X230353000Y-103797000D03*
X232893000Y-106337000D03*
X230353000Y-106337000D03*
X232893000Y-108877000D03*
X230353000Y-108877000D03*
X232893000Y-111417000D03*
X230353000Y-111417000D03*
X232893000Y-113957000D03*
X230353000Y-113957000D03*
X232893000Y-116497000D03*
X230353000Y-116497000D03*
X232893000Y-119037000D03*
X230353000Y-119037000D03*
X232893000Y-121577000D03*
X230353000Y-121577000D03*
X232893000Y-124117000D03*
X230353000Y-124117000D03*
X232893000Y-126657000D03*
X230353000Y-126657000D03*
X232893000Y-129197000D03*
X230353000Y-129197000D03*
X232893000Y-131737000D03*
X230353000Y-131737000D03*
D11*
X182601000Y-83477000D03*
D12*
X180061000Y-83477000D03*
X182601000Y-86017000D03*
X180061000Y-86017000D03*
X182601000Y-88557000D03*
X180061000Y-88557000D03*
X182601000Y-91097000D03*
X180061000Y-91097000D03*
X182601000Y-93637000D03*
X180061000Y-93637000D03*
X182601000Y-96177000D03*
X180061000Y-96177000D03*
X182601000Y-98717000D03*
X180061000Y-98717000D03*
X182601000Y-101257000D03*
X180061000Y-101257000D03*
X182601000Y-103797000D03*
X180061000Y-103797000D03*
X182601000Y-106337000D03*
X180061000Y-106337000D03*
X182601000Y-108877000D03*
X180061000Y-108877000D03*
X182601000Y-111417000D03*
X180061000Y-111417000D03*
X182601000Y-113957000D03*
X180061000Y-113957000D03*
X182601000Y-116497000D03*
X180061000Y-116497000D03*
X182601000Y-119037000D03*
X180061000Y-119037000D03*
X182601000Y-121577000D03*
X180061000Y-121577000D03*
X182601000Y-124117000D03*
X180061000Y-124117000D03*
X182601000Y-126657000D03*
X180061000Y-126657000D03*
X182601000Y-129197000D03*
X180061000Y-129197000D03*
X182601000Y-131737000D03*
X180061000Y-131737000D03*
D11*
X173457000Y-83477000D03*
D12*
X170917000Y-83477000D03*
X173457000Y-86017000D03*
X170917000Y-86017000D03*
X173457000Y-88557000D03*
X170917000Y-88557000D03*
X173457000Y-91097000D03*
X170917000Y-91097000D03*
X173457000Y-93637000D03*
X170917000Y-93637000D03*
X173457000Y-96177000D03*
X170917000Y-96177000D03*
X173457000Y-98717000D03*
X170917000Y-98717000D03*
X173457000Y-101257000D03*
X170917000Y-101257000D03*
X173457000Y-103797000D03*
X170917000Y-103797000D03*
X173457000Y-106337000D03*
X170917000Y-106337000D03*
X173457000Y-108877000D03*
X170917000Y-108877000D03*
X173457000Y-111417000D03*
X170917000Y-111417000D03*
X173457000Y-113957000D03*
X170917000Y-113957000D03*
X173457000Y-116497000D03*
X170917000Y-116497000D03*
X173457000Y-119037000D03*
X170917000Y-119037000D03*
X173457000Y-121577000D03*
X170917000Y-121577000D03*
X173457000Y-124117000D03*
X170917000Y-124117000D03*
X173457000Y-126657000D03*
X170917000Y-126657000D03*
X173457000Y-129197000D03*
X170917000Y-129197000D03*
X173457000Y-131737000D03*
X170917000Y-131737000D03*
D10*
X135864600Y-66751200D03*
D11*
X115671600Y-110891400D03*
D12*
X115671600Y-108351400D03*
D10*
X117119400Y-66751200D03*
D13*
X156732400Y-140860800D03*
D14*
X159272400Y-140860800D03*
X156732400Y-138320800D03*
X159272400Y-138320800D03*
X156732400Y-135780800D03*
X159272400Y-135780800D03*
X156732400Y-133240800D03*
X159272400Y-133240800D03*
X156732400Y-130700800D03*
X159272400Y-130700800D03*
X156732400Y-128160800D03*
X159272400Y-128160800D03*
X156732400Y-125620800D03*
X159272400Y-125620800D03*
X156732400Y-123080800D03*
X159272400Y-123080800D03*
X156732400Y-120540800D03*
X159272400Y-120540800D03*
X156732400Y-118000800D03*
X159272400Y-118000800D03*
X156732400Y-115460800D03*
X159272400Y-115460800D03*
X156732400Y-112920800D03*
X159272400Y-112920800D03*
X156732400Y-110380800D03*
X159272400Y-110380800D03*
X156732400Y-107840800D03*
X159272400Y-107840800D03*
X156732400Y-105300800D03*
X159272400Y-105300800D03*
X156732400Y-102760800D03*
X159272400Y-102760800D03*
X156732400Y-100220800D03*
X159272400Y-100220800D03*
X156732400Y-97680800D03*
X159272400Y-97680800D03*
X156732400Y-95140800D03*
X159272400Y-95140800D03*
X156732400Y-92600800D03*
X159272400Y-92600800D03*
D15*
X111869600Y-123895600D03*
X111869600Y-118115600D03*
D16*
X108219600Y-125325600D03*
X108219600Y-116685600D03*
D17*
X112399600Y-116685600D03*
X112399600Y-125325600D03*
D10*
X126517400Y-66751200D03*
D11*
X115627000Y-140909200D03*
D12*
X115627000Y-138369200D03*
X115627000Y-135829200D03*
X115627000Y-133289200D03*
D11*
X135636000Y-136840000D03*
D12*
X135636000Y-134300000D03*
X135636000Y-131760000D03*
D11*
X115677800Y-103174800D03*
D12*
X115677800Y-100634800D03*
X115677800Y-98094800D03*
X115677800Y-95554800D03*
X115677800Y-93014800D03*
X115677800Y-90474800D03*
D10*
X107950000Y-76962000D03*
M02*
