%TF.GenerationSoftware,KiCad,Pcbnew,(6.0.7)*%
%TF.CreationDate,2023-05-23T08:38:14-04:00*%
%TF.ProjectId,ECELab_v1,4543454c-6162-45f7-9631-2e6b69636164,rev?*%
%TF.SameCoordinates,Original*%
%TF.FileFunction,Paste,Top*%
%TF.FilePolarity,Positive*%
%FSLAX46Y46*%
G04 Gerber Fmt 4.6, Leading zero omitted, Abs format (unit mm)*
G04 Created by KiCad (PCBNEW (6.0.7)) date 2023-05-23 08:38:14*
%MOMM*%
%LPD*%
G01*
G04 APERTURE LIST*
G04 Aperture macros list*
%AMRoundRect*
0 Rectangle with rounded corners*
0 $1 Rounding radius*
0 $2 $3 $4 $5 $6 $7 $8 $9 X,Y pos of 4 corners*
0 Add a 4 corners polygon primitive as box body*
4,1,4,$2,$3,$4,$5,$6,$7,$8,$9,$2,$3,0*
0 Add four circle primitives for the rounded corners*
1,1,$1+$1,$2,$3*
1,1,$1+$1,$4,$5*
1,1,$1+$1,$6,$7*
1,1,$1+$1,$8,$9*
0 Add four rect primitives between the rounded corners*
20,1,$1+$1,$2,$3,$4,$5,0*
20,1,$1+$1,$4,$5,$6,$7,0*
20,1,$1+$1,$6,$7,$8,$9,0*
20,1,$1+$1,$8,$9,$2,$3,0*%
G04 Aperture macros list end*
%ADD10RoundRect,0.140000X0.170000X-0.140000X0.170000X0.140000X-0.170000X0.140000X-0.170000X-0.140000X0*%
%ADD11RoundRect,0.140000X-0.170000X0.140000X-0.170000X-0.140000X0.170000X-0.140000X0.170000X0.140000X0*%
%ADD12R,0.600000X0.450000*%
%ADD13RoundRect,0.135000X0.185000X-0.135000X0.185000X0.135000X-0.185000X0.135000X-0.185000X-0.135000X0*%
%ADD14RoundRect,0.140000X-0.140000X-0.170000X0.140000X-0.170000X0.140000X0.170000X-0.140000X0.170000X0*%
%ADD15R,0.400000X0.500000*%
%ADD16RoundRect,0.140000X0.140000X0.170000X-0.140000X0.170000X-0.140000X-0.170000X0.140000X-0.170000X0*%
%ADD17RoundRect,0.135000X-0.135000X-0.185000X0.135000X-0.185000X0.135000X0.185000X-0.135000X0.185000X0*%
%ADD18RoundRect,0.218750X0.256250X-0.218750X0.256250X0.218750X-0.256250X0.218750X-0.256250X-0.218750X0*%
%ADD19R,0.450000X1.750000*%
%ADD20RoundRect,0.135000X0.135000X0.185000X-0.135000X0.185000X-0.135000X-0.185000X0.135000X-0.185000X0*%
%ADD21RoundRect,0.218750X-0.218750X-0.256250X0.218750X-0.256250X0.218750X0.256250X-0.218750X0.256250X0*%
%ADD22RoundRect,0.135000X-0.185000X0.135000X-0.185000X-0.135000X0.185000X-0.135000X0.185000X0.135000X0*%
%ADD23R,0.600000X1.500000*%
%ADD24RoundRect,0.147500X-0.147500X-0.172500X0.147500X-0.172500X0.147500X0.172500X-0.147500X0.172500X0*%
%ADD25R,1.500000X2.000000*%
%ADD26R,3.800000X2.000000*%
%ADD27R,1.450000X0.600000*%
%ADD28R,1.450000X0.300000*%
%ADD29R,0.450000X0.600000*%
%ADD30RoundRect,0.075000X-0.662500X-0.075000X0.662500X-0.075000X0.662500X0.075000X-0.662500X0.075000X0*%
%ADD31RoundRect,0.075000X-0.075000X-0.662500X0.075000X-0.662500X0.075000X0.662500X-0.075000X0.662500X0*%
%ADD32R,4.500000X2.000000*%
%ADD33RoundRect,0.218750X0.218750X0.256250X-0.218750X0.256250X-0.218750X-0.256250X0.218750X-0.256250X0*%
G04 APERTURE END LIST*
D10*
%TO.C,C202*%
X125628400Y-118158200D03*
X125628400Y-117198200D03*
%TD*%
D11*
%TO.C,C209*%
X154609800Y-143258700D03*
X154609800Y-144218700D03*
%TD*%
D12*
%TO.C,D206*%
X121065000Y-109397800D03*
X118965000Y-109397800D03*
%TD*%
D13*
%TO.C,R429*%
X224000000Y-67360000D03*
X224000000Y-66340000D03*
%TD*%
D14*
%TO.C,C205*%
X118976200Y-107442000D03*
X119936200Y-107442000D03*
%TD*%
D15*
%TO.C,RN403*%
X217531200Y-135932800D03*
X218231200Y-135932800D03*
X218231200Y-134932800D03*
X217531200Y-134932800D03*
%TD*%
D16*
%TO.C,C308*%
X136344600Y-114274600D03*
X135384600Y-114274600D03*
%TD*%
%TO.C,C204*%
X119860000Y-121513600D03*
X118900000Y-121513600D03*
%TD*%
D17*
%TO.C,R302*%
X132890800Y-124561600D03*
X133910800Y-124561600D03*
%TD*%
D18*
%TO.C,FB203*%
X233654600Y-147421700D03*
X233654600Y-145846700D03*
%TD*%
D14*
%TO.C,C309*%
X133733600Y-115646200D03*
X134693600Y-115646200D03*
%TD*%
D19*
%TO.C,U406*%
X191355000Y-77260000D03*
X192005000Y-77260000D03*
X192655000Y-77260000D03*
X193305000Y-77260000D03*
X193955000Y-77260000D03*
X194605000Y-77260000D03*
X195255000Y-77260000D03*
X195905000Y-77260000D03*
X196555000Y-77260000D03*
X197205000Y-77260000D03*
X197855000Y-77260000D03*
X198505000Y-77260000D03*
X199155000Y-77260000D03*
X199805000Y-77260000D03*
X199805000Y-70060000D03*
X199155000Y-70060000D03*
X198505000Y-70060000D03*
X197855000Y-70060000D03*
X197205000Y-70060000D03*
X196555000Y-70060000D03*
X195905000Y-70060000D03*
X195255000Y-70060000D03*
X194605000Y-70060000D03*
X193955000Y-70060000D03*
X193305000Y-70060000D03*
X192655000Y-70060000D03*
X192005000Y-70060000D03*
X191355000Y-70060000D03*
%TD*%
D13*
%TO.C,R414*%
X221462600Y-113032000D03*
X221462600Y-112012000D03*
%TD*%
%TO.C,R431*%
X199923400Y-136120600D03*
X199923400Y-135100600D03*
%TD*%
D20*
%TO.C,R203*%
X116715000Y-122021600D03*
X115695000Y-122021600D03*
%TD*%
D15*
%TO.C,RN406*%
X194925000Y-67475000D03*
X195625000Y-67475000D03*
X195625000Y-66475000D03*
X194925000Y-66475000D03*
%TD*%
D21*
%TO.C,FB201*%
X118287700Y-123215400D03*
X119862700Y-123215400D03*
%TD*%
D19*
%TO.C,U401*%
X191355000Y-122980000D03*
X192005000Y-122980000D03*
X192655000Y-122980000D03*
X193305000Y-122980000D03*
X193955000Y-122980000D03*
X194605000Y-122980000D03*
X195255000Y-122980000D03*
X195905000Y-122980000D03*
X196555000Y-122980000D03*
X197205000Y-122980000D03*
X197855000Y-122980000D03*
X198505000Y-122980000D03*
X199155000Y-122980000D03*
X199805000Y-122980000D03*
X199805000Y-115780000D03*
X199155000Y-115780000D03*
X198505000Y-115780000D03*
X197855000Y-115780000D03*
X197205000Y-115780000D03*
X196555000Y-115780000D03*
X195905000Y-115780000D03*
X195255000Y-115780000D03*
X194605000Y-115780000D03*
X193955000Y-115780000D03*
X193305000Y-115780000D03*
X192655000Y-115780000D03*
X192005000Y-115780000D03*
X191355000Y-115780000D03*
%TD*%
D13*
%TO.C,R411*%
X221361000Y-135942800D03*
X221361000Y-134922800D03*
%TD*%
%TO.C,R415*%
X222961200Y-113032000D03*
X222961200Y-112012000D03*
%TD*%
D22*
%TO.C,R401*%
X196550800Y-111978600D03*
X196550800Y-112998600D03*
%TD*%
D23*
%TO.C,U301*%
X137566400Y-137052400D03*
X138836400Y-137052400D03*
X140106400Y-137052400D03*
X141376400Y-137052400D03*
X142646400Y-137052400D03*
X143916400Y-137052400D03*
X145186400Y-137052400D03*
X146456400Y-137052400D03*
X146456400Y-129952400D03*
X145186400Y-129952400D03*
X143916400Y-129952400D03*
X142646400Y-129952400D03*
X141376400Y-129952400D03*
X140106400Y-129952400D03*
X138836400Y-129952400D03*
X137566400Y-129952400D03*
%TD*%
D16*
%TO.C,C307*%
X133908200Y-123317000D03*
X132948200Y-123317000D03*
%TD*%
D13*
%TO.C,R405*%
X198125600Y-112998600D03*
X198125600Y-111978600D03*
%TD*%
D19*
%TO.C,U403*%
X214215000Y-145840000D03*
X214865000Y-145840000D03*
X215515000Y-145840000D03*
X216165000Y-145840000D03*
X216815000Y-145840000D03*
X217465000Y-145840000D03*
X218115000Y-145840000D03*
X218765000Y-145840000D03*
X219415000Y-145840000D03*
X220065000Y-145840000D03*
X220715000Y-145840000D03*
X221365000Y-145840000D03*
X222015000Y-145840000D03*
X222665000Y-145840000D03*
X222665000Y-138640000D03*
X222015000Y-138640000D03*
X221365000Y-138640000D03*
X220715000Y-138640000D03*
X220065000Y-138640000D03*
X219415000Y-138640000D03*
X218765000Y-138640000D03*
X218115000Y-138640000D03*
X217465000Y-138640000D03*
X216815000Y-138640000D03*
X216165000Y-138640000D03*
X215515000Y-138640000D03*
X214865000Y-138640000D03*
X214215000Y-138640000D03*
%TD*%
D15*
%TO.C,RN404*%
X217582000Y-113022000D03*
X218282000Y-113022000D03*
X218282000Y-112022000D03*
X217582000Y-112022000D03*
%TD*%
D13*
%TO.C,R432*%
X201472800Y-136120600D03*
X201472800Y-135100600D03*
%TD*%
D22*
%TO.C,R404*%
X219938600Y-112012000D03*
X219938600Y-113032000D03*
%TD*%
D14*
%TO.C,C601*%
X161978400Y-138303000D03*
X162938400Y-138303000D03*
%TD*%
D15*
%TO.C,RN407*%
X217275000Y-67350000D03*
X217975000Y-67350000D03*
X217975000Y-66350000D03*
X217275000Y-66350000D03*
%TD*%
D24*
%TO.C,D203*%
X105913200Y-128092200D03*
X106883200Y-128092200D03*
%TD*%
D25*
%TO.C,U201*%
X127928400Y-120421000D03*
X125628400Y-120421000D03*
D26*
X125628400Y-126721000D03*
D25*
X123328400Y-120421000D03*
%TD*%
D13*
%TO.C,R424*%
X198350000Y-67485000D03*
X198350000Y-66465000D03*
%TD*%
D21*
%TO.C,FB301*%
X132335900Y-117322600D03*
X133910900Y-117322600D03*
%TD*%
D12*
%TO.C,D205*%
X117839200Y-125349000D03*
X115739200Y-125349000D03*
%TD*%
D14*
%TO.C,C206*%
X119458800Y-113360200D03*
X120418800Y-113360200D03*
%TD*%
D22*
%TO.C,R419*%
X219550000Y-66340000D03*
X219550000Y-67360000D03*
%TD*%
D11*
%TO.C,C208*%
X231800400Y-145849400D03*
X231800400Y-146809400D03*
%TD*%
D17*
%TO.C,R301*%
X132890800Y-125755400D03*
X133910800Y-125755400D03*
%TD*%
D27*
%TO.C,J201*%
X113314600Y-117755600D03*
X113314600Y-118555600D03*
D28*
X113314600Y-119755600D03*
X113314600Y-120755600D03*
X113314600Y-121255600D03*
X113314600Y-122255600D03*
D27*
X113314600Y-123455600D03*
X113314600Y-124255600D03*
X113314600Y-124255600D03*
X113314600Y-123455600D03*
D28*
X113314600Y-122755600D03*
X113314600Y-121755600D03*
X113314600Y-120255600D03*
X113314600Y-119255600D03*
D27*
X113314600Y-118555600D03*
X113314600Y-117755600D03*
%TD*%
D13*
%TO.C,R407*%
X201300600Y-112998600D03*
X201300600Y-111978600D03*
%TD*%
D19*
%TO.C,U402*%
X214215000Y-100120000D03*
X214865000Y-100120000D03*
X215515000Y-100120000D03*
X216165000Y-100120000D03*
X216815000Y-100120000D03*
X217465000Y-100120000D03*
X218115000Y-100120000D03*
X218765000Y-100120000D03*
X219415000Y-100120000D03*
X220065000Y-100120000D03*
X220715000Y-100120000D03*
X221365000Y-100120000D03*
X222015000Y-100120000D03*
X222665000Y-100120000D03*
X222665000Y-92920000D03*
X222015000Y-92920000D03*
X221365000Y-92920000D03*
X220715000Y-92920000D03*
X220065000Y-92920000D03*
X219415000Y-92920000D03*
X218765000Y-92920000D03*
X218115000Y-92920000D03*
X217465000Y-92920000D03*
X216815000Y-92920000D03*
X216165000Y-92920000D03*
X215515000Y-92920000D03*
X214865000Y-92920000D03*
X214215000Y-92920000D03*
%TD*%
D29*
%TO.C,D208*%
X156750800Y-145377000D03*
X156750800Y-143277000D03*
%TD*%
D14*
%TO.C,C602*%
X161978400Y-140843000D03*
X162938400Y-140843000D03*
%TD*%
D30*
%TO.C,U302*%
X136401100Y-118255600D03*
X136401100Y-118755600D03*
X136401100Y-119255600D03*
X136401100Y-119755600D03*
X136401100Y-120255600D03*
X136401100Y-120755600D03*
X136401100Y-121255600D03*
X136401100Y-121755600D03*
X136401100Y-122255600D03*
X136401100Y-122755600D03*
X136401100Y-123255600D03*
X136401100Y-123755600D03*
D31*
X137813600Y-125168100D03*
X138313600Y-125168100D03*
X138813600Y-125168100D03*
X139313600Y-125168100D03*
X139813600Y-125168100D03*
X140313600Y-125168100D03*
X140813600Y-125168100D03*
X141313600Y-125168100D03*
X141813600Y-125168100D03*
X142313600Y-125168100D03*
X142813600Y-125168100D03*
X143313600Y-125168100D03*
D30*
X144726100Y-123755600D03*
X144726100Y-123255600D03*
X144726100Y-122755600D03*
X144726100Y-122255600D03*
X144726100Y-121755600D03*
X144726100Y-121255600D03*
X144726100Y-120755600D03*
X144726100Y-120255600D03*
X144726100Y-119755600D03*
X144726100Y-119255600D03*
X144726100Y-118755600D03*
X144726100Y-118255600D03*
D31*
X143313600Y-116843100D03*
X142813600Y-116843100D03*
X142313600Y-116843100D03*
X141813600Y-116843100D03*
X141313600Y-116843100D03*
X140813600Y-116843100D03*
X140313600Y-116843100D03*
X139813600Y-116843100D03*
X139313600Y-116843100D03*
X138813600Y-116843100D03*
X138313600Y-116843100D03*
X137813600Y-116843100D03*
%TD*%
D16*
%TO.C,C306*%
X133908200Y-118897400D03*
X132948200Y-118897400D03*
%TD*%
D19*
%TO.C,U408*%
X191355000Y-145840000D03*
X192005000Y-145840000D03*
X192655000Y-145840000D03*
X193305000Y-145840000D03*
X193955000Y-145840000D03*
X194605000Y-145840000D03*
X195255000Y-145840000D03*
X195905000Y-145840000D03*
X196555000Y-145840000D03*
X197205000Y-145840000D03*
X197855000Y-145840000D03*
X198505000Y-145840000D03*
X199155000Y-145840000D03*
X199805000Y-145840000D03*
X199805000Y-138640000D03*
X199155000Y-138640000D03*
X198505000Y-138640000D03*
X197855000Y-138640000D03*
X197205000Y-138640000D03*
X196555000Y-138640000D03*
X195905000Y-138640000D03*
X195255000Y-138640000D03*
X194605000Y-138640000D03*
X193955000Y-138640000D03*
X193305000Y-138640000D03*
X192655000Y-138640000D03*
X192005000Y-138640000D03*
X191355000Y-138640000D03*
%TD*%
D32*
%TO.C,Y301*%
X143518200Y-110845600D03*
X135018200Y-110845600D03*
%TD*%
D13*
%TO.C,R413*%
X224307400Y-135942800D03*
X224307400Y-134922800D03*
%TD*%
%TO.C,R412*%
X222808800Y-135942800D03*
X222808800Y-134922800D03*
%TD*%
%TO.C,R422*%
X199650000Y-90260000D03*
X199650000Y-89240000D03*
%TD*%
D19*
%TO.C,U405*%
X191355000Y-100120000D03*
X192005000Y-100120000D03*
X192655000Y-100120000D03*
X193305000Y-100120000D03*
X193955000Y-100120000D03*
X194605000Y-100120000D03*
X195255000Y-100120000D03*
X195905000Y-100120000D03*
X196555000Y-100120000D03*
X197205000Y-100120000D03*
X197855000Y-100120000D03*
X198505000Y-100120000D03*
X199155000Y-100120000D03*
X199805000Y-100120000D03*
X199805000Y-92920000D03*
X199155000Y-92920000D03*
X198505000Y-92920000D03*
X197855000Y-92920000D03*
X197205000Y-92920000D03*
X196555000Y-92920000D03*
X195905000Y-92920000D03*
X195255000Y-92920000D03*
X194605000Y-92920000D03*
X193955000Y-92920000D03*
X193305000Y-92920000D03*
X192655000Y-92920000D03*
X192005000Y-92920000D03*
X191355000Y-92920000D03*
%TD*%
D29*
%TO.C,D202*%
X128219200Y-116069400D03*
X128219200Y-118169400D03*
%TD*%
D10*
%TO.C,C201*%
X123342400Y-118158200D03*
X123342400Y-117198200D03*
%TD*%
D13*
%TO.C,R430*%
X198399400Y-136120600D03*
X198399400Y-135100600D03*
%TD*%
D19*
%TO.C,U404*%
X214215000Y-122980000D03*
X214865000Y-122980000D03*
X215515000Y-122980000D03*
X216165000Y-122980000D03*
X216815000Y-122980000D03*
X217465000Y-122980000D03*
X218115000Y-122980000D03*
X218765000Y-122980000D03*
X219415000Y-122980000D03*
X220065000Y-122980000D03*
X220715000Y-122980000D03*
X221365000Y-122980000D03*
X222015000Y-122980000D03*
X222665000Y-122980000D03*
X222665000Y-115780000D03*
X222015000Y-115780000D03*
X221365000Y-115780000D03*
X220715000Y-115780000D03*
X220065000Y-115780000D03*
X219415000Y-115780000D03*
X218765000Y-115780000D03*
X218115000Y-115780000D03*
X217465000Y-115780000D03*
X216815000Y-115780000D03*
X216165000Y-115780000D03*
X215515000Y-115780000D03*
X214865000Y-115780000D03*
X214215000Y-115780000D03*
%TD*%
D16*
%TO.C,C304*%
X144269400Y-115011200D03*
X143309400Y-115011200D03*
%TD*%
D11*
%TO.C,C207*%
X238125000Y-145290600D03*
X238125000Y-146250600D03*
%TD*%
D13*
%TO.C,R423*%
X201175000Y-90260000D03*
X201175000Y-89240000D03*
%TD*%
D33*
%TO.C,FB202*%
X121056500Y-111683800D03*
X119481500Y-111683800D03*
%TD*%
D13*
%TO.C,R427*%
X221025000Y-67360000D03*
X221025000Y-66340000D03*
%TD*%
D14*
%TO.C,C203*%
X115725000Y-123444000D03*
X116685000Y-123444000D03*
%TD*%
D18*
%TO.C,FB204*%
X159080200Y-145389800D03*
X159080200Y-143814800D03*
%TD*%
D21*
%TO.C,FB302*%
X132335900Y-121793000D03*
X133910900Y-121793000D03*
%TD*%
D20*
%TO.C,R304*%
X133938200Y-120243600D03*
X132918200Y-120243600D03*
%TD*%
D13*
%TO.C,R408*%
X221350000Y-90110000D03*
X221350000Y-89090000D03*
%TD*%
%TO.C,R421*%
X198100000Y-90260000D03*
X198100000Y-89240000D03*
%TD*%
%TO.C,R410*%
X224300000Y-90110000D03*
X224300000Y-89090000D03*
%TD*%
D15*
%TO.C,RN401*%
X194168800Y-112988600D03*
X194868800Y-112988600D03*
X194868800Y-111988600D03*
X194168800Y-111988600D03*
%TD*%
D20*
%TO.C,R204*%
X109466500Y-130352800D03*
X108446500Y-130352800D03*
%TD*%
%TO.C,R201*%
X109476000Y-128092200D03*
X108456000Y-128092200D03*
%TD*%
D13*
%TO.C,R426*%
X200975000Y-67485000D03*
X200975000Y-66465000D03*
%TD*%
D29*
%TO.C,D207*%
X236016800Y-147404800D03*
X236016800Y-145304800D03*
%TD*%
D22*
%TO.C,R403*%
X219862400Y-134922800D03*
X219862400Y-135942800D03*
%TD*%
D15*
%TO.C,RN405*%
X194300000Y-90250000D03*
X195000000Y-90250000D03*
X195000000Y-89250000D03*
X194300000Y-89250000D03*
%TD*%
D29*
%TO.C,D201*%
X120827800Y-118169400D03*
X120827800Y-116069400D03*
%TD*%
D22*
%TO.C,R418*%
X197050000Y-66465000D03*
X197050000Y-67485000D03*
%TD*%
D13*
%TO.C,R425*%
X199675000Y-67485000D03*
X199675000Y-66465000D03*
%TD*%
D15*
%TO.C,RN408*%
X194493400Y-136110600D03*
X195193400Y-136110600D03*
X195193400Y-135110600D03*
X194493400Y-135110600D03*
%TD*%
D22*
%TO.C,R417*%
X196625000Y-89240000D03*
X196625000Y-90260000D03*
%TD*%
D13*
%TO.C,R428*%
X222500000Y-67360000D03*
X222500000Y-66340000D03*
%TD*%
D22*
%TO.C,R420*%
X196850000Y-135100600D03*
X196850000Y-136120600D03*
%TD*%
D13*
%TO.C,R416*%
X224485200Y-113032000D03*
X224485200Y-112012000D03*
%TD*%
D17*
%TO.C,R202*%
X115491800Y-119151400D03*
X116511800Y-119151400D03*
%TD*%
D13*
%TO.C,R409*%
X222825000Y-90110000D03*
X222825000Y-89090000D03*
%TD*%
D24*
%TO.C,D204*%
X105906100Y-130352800D03*
X106876100Y-130352800D03*
%TD*%
D15*
%TO.C,RN402*%
X217575000Y-90100000D03*
X218275000Y-90100000D03*
X218275000Y-89100000D03*
X217575000Y-89100000D03*
%TD*%
D22*
%TO.C,R402*%
X219900000Y-89090000D03*
X219900000Y-90110000D03*
%TD*%
D13*
%TO.C,R406*%
X199700400Y-112998600D03*
X199700400Y-111978600D03*
%TD*%
D11*
%TO.C,C210*%
X160934400Y-143817500D03*
X160934400Y-144777500D03*
%TD*%
D19*
%TO.C,U407*%
X214215000Y-77260000D03*
X214865000Y-77260000D03*
X215515000Y-77260000D03*
X216165000Y-77260000D03*
X216815000Y-77260000D03*
X217465000Y-77260000D03*
X218115000Y-77260000D03*
X218765000Y-77260000D03*
X219415000Y-77260000D03*
X220065000Y-77260000D03*
X220715000Y-77260000D03*
X221365000Y-77260000D03*
X222015000Y-77260000D03*
X222665000Y-77260000D03*
X222665000Y-70060000D03*
X222015000Y-70060000D03*
X221365000Y-70060000D03*
X220715000Y-70060000D03*
X220065000Y-70060000D03*
X219415000Y-70060000D03*
X218765000Y-70060000D03*
X218115000Y-70060000D03*
X217465000Y-70060000D03*
X216815000Y-70060000D03*
X216165000Y-70060000D03*
X215515000Y-70060000D03*
X214865000Y-70060000D03*
X214215000Y-70060000D03*
%TD*%
M02*
