%TF.GenerationSoftware,KiCad,Pcbnew,(6.0.7)*%
%TF.CreationDate,2023-08-17T19:04:19+07:00*%
%TF.ProjectId,ECELab_v1,4543454c-6162-45f7-9631-2e6b69636164,rev?*%
%TF.SameCoordinates,Original*%
%TF.FileFunction,Drillmap*%
%TF.FilePolarity,Positive*%
%FSLAX45Y45*%
G04 Gerber Fmt 4.5, Leading zero omitted, Abs format (unit mm)*
G04 Created by KiCad (PCBNEW (6.0.7)) date 2023-08-17 19:04:19*
%MOMM*%
%LPD*%
G01*
G04 APERTURE LIST*
%ADD10C,0.100000*%
%ADD11C,0.200000*%
%ADD12C,0.020000*%
%ADD13C,0.040000*%
%ADD14C,0.060000*%
G04 APERTURE END LIST*
D10*
X10393680Y-15212060D02*
X10393680Y-8356600D01*
X25146000Y-15212060D02*
X10393680Y-15212060D01*
X16057880Y-6283960D02*
X25146000Y-6283960D01*
X16057880Y-8356600D02*
X16057880Y-6283960D01*
X25146000Y-6283960D02*
X25146000Y-15212060D01*
X10393680Y-8356600D02*
X16057880Y-8356600D01*
D11*
D12*
X11427620Y-11432700D02*
X11447620Y-11452700D01*
X11447620Y-11432700D02*
X11427620Y-11452700D01*
X11460640Y-12085480D02*
X11480640Y-12105480D01*
X11480640Y-12085480D02*
X11460640Y-12105480D01*
X12014360Y-11585100D02*
X12034360Y-11605100D01*
X12034360Y-11585100D02*
X12014360Y-11605100D01*
X12014360Y-11912760D02*
X12034360Y-11932760D01*
X12034360Y-11912760D02*
X12014360Y-11932760D01*
X12014360Y-12258200D02*
X12034360Y-12278200D01*
X12034360Y-12258200D02*
X12014360Y-12278200D01*
X12369960Y-11483500D02*
X12389960Y-11503500D01*
X12389960Y-11483500D02*
X12369960Y-11503500D01*
X12405520Y-12425840D02*
X12425520Y-12445840D01*
X12425520Y-12425840D02*
X12405520Y-12445840D01*
X12603640Y-11105040D02*
X12623640Y-11125040D01*
X12623640Y-11105040D02*
X12603640Y-11125040D01*
X12639200Y-12235340D02*
X12659200Y-12255340D01*
X12659200Y-12235340D02*
X12639200Y-12255340D01*
X12651900Y-11684160D02*
X12671900Y-11704160D01*
X12671900Y-11684160D02*
X12651900Y-11704160D01*
X12654440Y-11983880D02*
X12674440Y-12003880D01*
X12674440Y-11983880D02*
X12654440Y-12003880D01*
X12654440Y-12082940D02*
X12674440Y-12102940D01*
X12674440Y-12082940D02*
X12654440Y-12102940D01*
X12656360Y-12179460D02*
X12676360Y-12199460D01*
X12676360Y-12179460D02*
X12656360Y-12199460D01*
X12669680Y-10764680D02*
X12689680Y-10784680D01*
X12689680Y-10764680D02*
X12669680Y-10784680D01*
X12707780Y-12034680D02*
X12727780Y-12054680D01*
X12727780Y-12034680D02*
X12707780Y-12054680D01*
X12707784Y-12303920D02*
X12727784Y-12323920D01*
X12727784Y-12303920D02*
X12707784Y-12323920D01*
X12758360Y-12270812D02*
X12778360Y-12290812D01*
X12778360Y-12270812D02*
X12758360Y-12290812D01*
X12758580Y-11148220D02*
X12778580Y-11168220D01*
X12778580Y-11148220D02*
X12758580Y-11168220D01*
X12773820Y-10764680D02*
X12793820Y-10784680D01*
X12793820Y-10764680D02*
X12773820Y-10784680D01*
X12809380Y-11102500D02*
X12829380Y-11122500D01*
X12829380Y-11102500D02*
X12809380Y-11122500D01*
X12809380Y-12291220D02*
X12829380Y-12311220D01*
X12829380Y-12291220D02*
X12809380Y-12311220D01*
X12857640Y-11148220D02*
X12877640Y-11168220D01*
X12877640Y-11148220D02*
X12857640Y-11168220D01*
X12908440Y-12268360D02*
X12928440Y-12288360D01*
X12928440Y-12268360D02*
X12908440Y-12288360D01*
X12959027Y-12291321D02*
X12979027Y-12311321D01*
X12979027Y-12291321D02*
X12959027Y-12311321D01*
X12959240Y-11148220D02*
X12979240Y-11168220D01*
X12979240Y-11148220D02*
X12959240Y-11168220D01*
X13008639Y-12267697D02*
X13028639Y-12287697D01*
X13028639Y-12267697D02*
X13008639Y-12287697D01*
X13010040Y-11102500D02*
X13030040Y-11122500D01*
X13030040Y-11102500D02*
X13010040Y-11122500D01*
X13058300Y-11148220D02*
X13078300Y-11168220D01*
X13078300Y-11148220D02*
X13058300Y-11168220D01*
X13058300Y-12291220D02*
X13078300Y-12311220D01*
X13078300Y-12291220D02*
X13058300Y-12311220D01*
X13109100Y-12171840D02*
X13129100Y-12191840D01*
X13129100Y-12171840D02*
X13109100Y-12191840D01*
X13147200Y-10861200D02*
X13167200Y-10881200D01*
X13167200Y-10861200D02*
X13147200Y-10881200D01*
X13157360Y-12291220D02*
X13177360Y-12311220D01*
X13177360Y-12291220D02*
X13157360Y-12311220D01*
X13159900Y-11102500D02*
X13179900Y-11122500D01*
X13179900Y-11102500D02*
X13159900Y-11122500D01*
X13208160Y-11148220D02*
X13228160Y-11168220D01*
X13228160Y-11148220D02*
X13208160Y-11168220D01*
X13208160Y-12265820D02*
X13228160Y-12285820D01*
X13228160Y-12265820D02*
X13208160Y-12285820D01*
X13258960Y-11102500D02*
X13278960Y-11122500D01*
X13278960Y-11102500D02*
X13258960Y-11122500D01*
X13258960Y-12291220D02*
X13278960Y-12311220D01*
X13278960Y-12291220D02*
X13258960Y-12311220D01*
X13309394Y-12265627D02*
X13329394Y-12285627D01*
X13329394Y-12265627D02*
X13309394Y-12285627D01*
X13309760Y-11148220D02*
X13329760Y-11168220D01*
X13329760Y-11148220D02*
X13309760Y-11168220D01*
X13358020Y-11534300D02*
X13378020Y-11554300D01*
X13378020Y-11534300D02*
X13358020Y-11554300D01*
X13358020Y-12291220D02*
X13378020Y-12311220D01*
X13378020Y-12291220D02*
X13358020Y-12311220D01*
X13377320Y-10766200D02*
X13397320Y-10786200D01*
X13397320Y-10766200D02*
X13377320Y-10786200D01*
X13385960Y-10861200D02*
X13405960Y-10881200D01*
X13405960Y-10861200D02*
X13385960Y-10881200D01*
X13459620Y-12034680D02*
X13479620Y-12054680D01*
X13479620Y-12034680D02*
X13459620Y-12054680D01*
X13459620Y-12291220D02*
X13479620Y-12311220D01*
X13479620Y-12291220D02*
X13459620Y-12311220D01*
X13774580Y-11483500D02*
X13794580Y-11503500D01*
X13794580Y-11483500D02*
X13774580Y-11503500D01*
X13774580Y-11585100D02*
X13794580Y-11605100D01*
X13794580Y-11585100D02*
X13774580Y-11605100D01*
X13776457Y-11934481D02*
X13796457Y-11954481D01*
X13796457Y-11934481D02*
X13776457Y-11954481D01*
X13777120Y-11684160D02*
X13797120Y-11704160D01*
X13797120Y-11684160D02*
X13777120Y-11704160D01*
X13777120Y-11834020D02*
X13797120Y-11854020D01*
X13797120Y-11834020D02*
X13777120Y-11854020D01*
X13777120Y-12184540D02*
X13797120Y-12204540D01*
X13797120Y-12184540D02*
X13777120Y-12204540D01*
X13799980Y-11734960D02*
X13819980Y-11754960D01*
X13819980Y-11734960D02*
X13799980Y-11754960D01*
X13799980Y-11884820D02*
X13819980Y-11904820D01*
X13819980Y-11884820D02*
X13799980Y-11904820D01*
X13800081Y-11984093D02*
X13820081Y-12004093D01*
X13820081Y-11984093D02*
X13800081Y-12004093D01*
X13800173Y-11633726D02*
X13820173Y-11653726D01*
X13820173Y-11633726D02*
X13800173Y-11653726D01*
X13800643Y-12234201D02*
X13820643Y-12254201D01*
X13820643Y-12234201D02*
X13800643Y-12254201D01*
X13881260Y-11534300D02*
X13901260Y-11554300D01*
X13901260Y-11534300D02*
X13881260Y-11554300D01*
X14000640Y-12037220D02*
X14020640Y-12057220D01*
X14020640Y-12037220D02*
X14000640Y-12057220D01*
X14000640Y-12131200D02*
X14020640Y-12151200D01*
X14020640Y-12131200D02*
X14000640Y-12151200D01*
X14422280Y-13545980D02*
X14442280Y-13565980D01*
X14442280Y-13545980D02*
X14422280Y-13565980D01*
X14546740Y-13365640D02*
X14566740Y-13385640D01*
X14566740Y-13365640D02*
X14546740Y-13385640D01*
X17889380Y-14899800D02*
X17909380Y-14919800D01*
X17909380Y-14899800D02*
X17889380Y-14919800D01*
X18041780Y-14518800D02*
X18061780Y-14538800D01*
X18061780Y-14518800D02*
X18041780Y-14538800D01*
X19857350Y-8107840D02*
X19877350Y-8127840D01*
X19877350Y-8107840D02*
X19857350Y-8127840D01*
X19907500Y-8058400D02*
X19927500Y-8078400D01*
X19927500Y-8058400D02*
X19907500Y-8078400D01*
X21409820Y-7587140D02*
X21429820Y-7607140D01*
X21429820Y-7587140D02*
X21409820Y-7607140D01*
X21475860Y-7587140D02*
X21495860Y-7607140D01*
X21495860Y-7587140D02*
X21475860Y-7607140D01*
X21541900Y-7587140D02*
X21561900Y-7607140D01*
X21561900Y-7587140D02*
X21541900Y-7607140D01*
X21605400Y-7587140D02*
X21625400Y-7607140D01*
X21625400Y-7587140D02*
X21605400Y-7607140D01*
X21671440Y-7587140D02*
X21691440Y-7607140D01*
X21691440Y-7587140D02*
X21671440Y-7607140D01*
X21734940Y-7587140D02*
X21754940Y-7607140D01*
X21754940Y-7587140D02*
X21734940Y-7607140D01*
X21800980Y-7587140D02*
X21820980Y-7607140D01*
X21820980Y-7587140D02*
X21800980Y-7607140D01*
X21887500Y-7850000D02*
X21907500Y-7870000D01*
X21907500Y-7850000D02*
X21887500Y-7870000D01*
D13*
X11466860Y-14153540D02*
G75*
G03*
X11466860Y-14153540I-20000J0D01*
G01*
X11469400Y-14001140D02*
G75*
G03*
X11469400Y-14001140I-20000J0D01*
G01*
X11754800Y-11059160D02*
G75*
G03*
X11754800Y-11059160I-20000J0D01*
G01*
X11754800Y-12824460D02*
G75*
G03*
X11754800Y-12824460I-20000J0D01*
G01*
X11978320Y-15006320D02*
G75*
G03*
X11978320Y-15006320I-20000J0D01*
G01*
X12074840Y-13436600D02*
G75*
G03*
X12074840Y-13436600I-20000J0D01*
G01*
X12945140Y-13917320D02*
G75*
G03*
X12945140Y-13917320I-20000J0D01*
G01*
X12945140Y-14425320D02*
G75*
G03*
X12945140Y-14425320I-20000J0D01*
G01*
X13134020Y-14582140D02*
G75*
G03*
X13134020Y-14582140I-20000J0D01*
G01*
X13224540Y-13587120D02*
G75*
G03*
X13224540Y-13587120I-20000J0D01*
G01*
X13308360Y-14151000D02*
G75*
G03*
X13308360Y-14151000I-20000J0D01*
G01*
X13365160Y-13426440D02*
G75*
G03*
X13365160Y-13426440I-20000J0D01*
G01*
X13445924Y-14081525D02*
G75*
G03*
X13445924Y-14081525I-20000J0D01*
G01*
X13468380Y-14514220D02*
G75*
G03*
X13468380Y-14514220I-20000J0D01*
G01*
X13554705Y-14255105D02*
G75*
G03*
X13554705Y-14255105I-20000J0D01*
G01*
X13554749Y-14355055D02*
G75*
G03*
X13554749Y-14355055I-20000J0D01*
G01*
X13648640Y-14471820D02*
G75*
G03*
X13648640Y-14471820I-20000J0D01*
G01*
X13651140Y-13691820D02*
G75*
G03*
X13651140Y-13691820I-20000J0D01*
G01*
X13771560Y-14658340D02*
G75*
G03*
X13771560Y-14658340I-20000J0D01*
G01*
X13773640Y-13574320D02*
G75*
G03*
X13773640Y-13574320I-20000J0D01*
G01*
X13896020Y-14787880D02*
G75*
G03*
X13896020Y-14787880I-20000J0D01*
G01*
X13923137Y-13506346D02*
G75*
G03*
X13923137Y-13506346I-20000J0D01*
G01*
X14017266Y-13472732D02*
G75*
G03*
X14017266Y-13472732I-20000J0D01*
G01*
X14036016Y-13196944D02*
G75*
G03*
X14036016Y-13196944I-20000J0D01*
G01*
X14132835Y-13555877D02*
G75*
G03*
X14132835Y-13555877I-20000J0D01*
G01*
X14436140Y-13711820D02*
G75*
G03*
X14436140Y-13711820I-20000J0D01*
G01*
X14585072Y-13193230D02*
G75*
G03*
X14585072Y-13193230I-20000J0D01*
G01*
X14586925Y-13293163D02*
G75*
G03*
X14586925Y-13293163I-20000J0D01*
G01*
X14589440Y-14533880D02*
G75*
G03*
X14589440Y-14533880I-20000J0D01*
G01*
X14960280Y-14658340D02*
G75*
G03*
X14960280Y-14658340I-20000J0D01*
G01*
X15094900Y-14787880D02*
G75*
G03*
X15094900Y-14787880I-20000J0D01*
G01*
X15359060Y-14422120D02*
G75*
G03*
X15359060Y-14422120I-20000J0D01*
G01*
X15544480Y-14536420D02*
G75*
G03*
X15544480Y-14536420I-20000J0D01*
G01*
X15928020Y-14254480D02*
G75*
G03*
X15928020Y-14254480I-20000J0D01*
G01*
X16623980Y-12026900D02*
G75*
G03*
X16623980Y-12026900I-20000J0D01*
G01*
X16728120Y-11902440D02*
G75*
G03*
X16728120Y-11902440I-20000J0D01*
G01*
X16778920Y-11015980D02*
G75*
G03*
X16778920Y-11015980I-20000J0D01*
G01*
X16858550Y-8986520D02*
G75*
G03*
X16858550Y-8986520I-20000J0D01*
G01*
X17673000Y-13208000D02*
G75*
G03*
X17673000Y-13208000I-20000J0D01*
G01*
X17733050Y-9260840D02*
G75*
G03*
X17733050Y-9260840I-20000J0D01*
G01*
X18465729Y-11778891D02*
G75*
G03*
X18465729Y-11778891I-20000J0D01*
G01*
X18620997Y-11978640D02*
G75*
G03*
X18620997Y-11978640I-20000J0D01*
G01*
X18695491Y-11901311D02*
G75*
G03*
X18695491Y-11901311I-20000J0D01*
G01*
X18698847Y-12283440D02*
G75*
G03*
X18698847Y-12283440I-20000J0D01*
G01*
X18703921Y-10630219D02*
G75*
G03*
X18703921Y-10630219I-20000J0D01*
G01*
X18767719Y-11569679D02*
G75*
G03*
X18767719Y-11569679I-20000J0D01*
G01*
X18775360Y-11979161D02*
G75*
G03*
X18775360Y-11979161I-20000J0D01*
G01*
X18776697Y-12666980D02*
G75*
G03*
X18776697Y-12666980I-20000J0D01*
G01*
X18851560Y-11485880D02*
G75*
G03*
X18851560Y-11485880I-20000J0D01*
G01*
X18854547Y-12788900D02*
G75*
G03*
X18854547Y-12788900I-20000J0D01*
G01*
X18858664Y-12082780D02*
G75*
G03*
X18858664Y-12082780I-20000J0D01*
G01*
X18932397Y-12918440D02*
G75*
G03*
X18932397Y-12918440I-20000J0D01*
G01*
X18936270Y-11404600D02*
G75*
G03*
X18936270Y-11404600I-20000J0D01*
G01*
X18970933Y-10786496D02*
G75*
G03*
X18970933Y-10786496I-20000J0D01*
G01*
X18974146Y-9955550D02*
G75*
G03*
X18974146Y-9955550I-20000J0D01*
G01*
X18975660Y-9798960D02*
G75*
G03*
X18975660Y-9798960I-20000J0D01*
G01*
X18999416Y-13045440D02*
G75*
G03*
X18999416Y-13045440I-20000J0D01*
G01*
X19014120Y-11689080D02*
G75*
G03*
X19014120Y-11689080I-20000J0D01*
G01*
X19094813Y-11400107D02*
G75*
G03*
X19094813Y-11400107I-20000J0D01*
G01*
X19102100Y-7885450D02*
G75*
G03*
X19102100Y-7885450I-20000J0D01*
G01*
X19153660Y-7148660D02*
G75*
G03*
X19153660Y-7148660I-20000J0D01*
G01*
X19155000Y-9507307D02*
G75*
G03*
X19155000Y-9507307I-20000J0D01*
G01*
X19156360Y-12522500D02*
G75*
G03*
X19156360Y-12522500I-20000J0D01*
G01*
X19207450Y-7885450D02*
G75*
G03*
X19207450Y-7885450I-20000J0D01*
G01*
X19219563Y-11233317D02*
G75*
G03*
X19219563Y-11233317I-20000J0D01*
G01*
X19219757Y-9859933D02*
G75*
G03*
X19219757Y-9859933I-20000J0D01*
G01*
X19220000Y-6845000D02*
G75*
G03*
X19220000Y-6845000I-20000J0D01*
G01*
X19220000Y-9036950D02*
G75*
G03*
X19220000Y-9036950I-20000J0D01*
G01*
X19270660Y-11414760D02*
G75*
G03*
X19270660Y-11414760I-20000J0D01*
G01*
X19285634Y-9429257D02*
G75*
G03*
X19285634Y-9429257I-20000J0D01*
G01*
X19350000Y-9115000D02*
G75*
G03*
X19350000Y-9115000I-20000J0D01*
G01*
X19367180Y-13510260D02*
G75*
G03*
X19367180Y-13510260I-20000J0D01*
G01*
X19413740Y-9859150D02*
G75*
G03*
X19413740Y-9859150I-20000J0D01*
G01*
X19467130Y-11736274D02*
G75*
G03*
X19467130Y-11736274I-20000J0D01*
G01*
X19545418Y-11833422D02*
G75*
G03*
X19545418Y-11833422I-20000J0D01*
G01*
X19569079Y-7243664D02*
G75*
G03*
X19569079Y-7243664I-20000J0D01*
G01*
X19623350Y-11737495D02*
G75*
G03*
X19623350Y-11737495I-20000J0D01*
G01*
X19675101Y-9847757D02*
G75*
G03*
X19675101Y-9847757I-20000J0D01*
G01*
X19675509Y-14420342D02*
G75*
G03*
X19675509Y-14420342I-20000J0D01*
G01*
X19688350Y-12030000D02*
G75*
G03*
X19688350Y-12030000I-20000J0D01*
G01*
X19722500Y-11877500D02*
G75*
G03*
X19722500Y-11877500I-20000J0D01*
G01*
X19748150Y-7505700D02*
G75*
G03*
X19748150Y-7505700I-20000J0D01*
G01*
X19753350Y-10157737D02*
G75*
G03*
X19753350Y-10157737I-20000J0D01*
G01*
X19822500Y-14307500D02*
G75*
G03*
X19822500Y-14307500I-20000J0D01*
G01*
X19865000Y-12117500D02*
G75*
G03*
X19865000Y-12117500I-20000J0D01*
G01*
X19943150Y-6802120D02*
G75*
G03*
X19943150Y-6802120I-20000J0D01*
G01*
X20287500Y-8507900D02*
G75*
G03*
X20287500Y-8507900I-20000J0D01*
G01*
X20373020Y-10789920D02*
G75*
G03*
X20373020Y-10789920I-20000J0D01*
G01*
X20405000Y-13491440D02*
G75*
G03*
X20405000Y-13491440I-20000J0D01*
G01*
X20405000Y-14425700D02*
G75*
G03*
X20405000Y-14425700I-20000J0D01*
G01*
X20406040Y-7909560D02*
G75*
G03*
X20406040Y-7909560I-20000J0D01*
G01*
X20406040Y-8430950D02*
G75*
G03*
X20406040Y-8430950I-20000J0D01*
G01*
X20412500Y-9856360D02*
G75*
G03*
X20412500Y-9856360I-20000J0D01*
G01*
X20412500Y-11426300D02*
G75*
G03*
X20412500Y-11426300I-20000J0D01*
G01*
X20412500Y-12112500D02*
G75*
G03*
X20412500Y-12112500I-20000J0D01*
G01*
X20512720Y-14941040D02*
G75*
G03*
X20512720Y-14941040I-20000J0D01*
G01*
X20513610Y-12886310D02*
G75*
G03*
X20513610Y-12886310I-20000J0D01*
G01*
X20513610Y-14785340D02*
G75*
G03*
X20513610Y-14785340I-20000J0D01*
G01*
X20588920Y-8117840D02*
G75*
G03*
X20588920Y-8117840I-20000J0D01*
G01*
X20591460Y-10787380D02*
G75*
G03*
X20591460Y-10787380I-20000J0D01*
G01*
X20591460Y-12964160D02*
G75*
G03*
X20591460Y-12964160I-20000J0D01*
G01*
X20591460Y-14863147D02*
G75*
G03*
X20591460Y-14863147I-20000J0D01*
G01*
X20766720Y-8117840D02*
G75*
G03*
X20766720Y-8117840I-20000J0D01*
G01*
X20769260Y-10866120D02*
G75*
G03*
X20769260Y-10866120I-20000J0D01*
G01*
X20769260Y-12886310D02*
G75*
G03*
X20769260Y-12886310I-20000J0D01*
G01*
X20769260Y-14785340D02*
G75*
G03*
X20769260Y-14785340I-20000J0D01*
G01*
X20870860Y-10785730D02*
G75*
G03*
X20870860Y-10785730I-20000J0D01*
G01*
X20949600Y-14785340D02*
G75*
G03*
X20949600Y-14785340I-20000J0D01*
G01*
X20958956Y-12885470D02*
G75*
G03*
X20958956Y-12885470I-20000J0D01*
G01*
X21030000Y-9093200D02*
G75*
G03*
X21030000Y-9093200I-20000J0D01*
G01*
X21030880Y-11424920D02*
G75*
G03*
X21030880Y-11424920I-20000J0D01*
G01*
X21036806Y-12599210D02*
G75*
G03*
X21036806Y-12599210I-20000J0D01*
G01*
X21037000Y-9855000D02*
G75*
G03*
X21037000Y-9855000I-20000J0D01*
G01*
X21037000Y-12162560D02*
G75*
G03*
X21037000Y-12162560I-20000J0D01*
G01*
X21037500Y-7211060D02*
G75*
G03*
X21037500Y-7211060I-20000J0D01*
G01*
X21038500Y-7909560D02*
G75*
G03*
X21038500Y-7909560I-20000J0D01*
G01*
X21041040Y-13492480D02*
G75*
G03*
X21041040Y-13492480I-20000J0D01*
G01*
X21189602Y-10470550D02*
G75*
G03*
X21189602Y-10470550I-20000J0D01*
G01*
X21264503Y-10394400D02*
G75*
G03*
X21264503Y-10394400I-20000J0D01*
G01*
X21315000Y-7010000D02*
G75*
G03*
X21315000Y-7010000I-20000J0D01*
G01*
X21325520Y-8465820D02*
G75*
G03*
X21325520Y-8465820I-20000J0D01*
G01*
X21339293Y-10316900D02*
G75*
G03*
X21339293Y-10316900I-20000J0D01*
G01*
X21413880Y-10239450D02*
G75*
G03*
X21413880Y-10239450I-20000J0D01*
G01*
X21425436Y-8463191D02*
G75*
G03*
X21425436Y-8463191I-20000J0D01*
G01*
X21427120Y-12730480D02*
G75*
G03*
X21427120Y-12730480I-20000J0D01*
G01*
X21441382Y-14320791D02*
G75*
G03*
X21441382Y-14320791I-20000J0D01*
G01*
X21493160Y-13415430D02*
G75*
G03*
X21493160Y-13415430I-20000J0D01*
G01*
X21493650Y-13677900D02*
G75*
G03*
X21493650Y-13677900I-20000J0D01*
G01*
X21505860Y-12649200D02*
G75*
G03*
X21505860Y-12649200I-20000J0D01*
G01*
X21519350Y-14391640D02*
G75*
G03*
X21519350Y-14391640I-20000J0D01*
G01*
X21571900Y-13103860D02*
G75*
G03*
X21571900Y-13103860I-20000J0D01*
G01*
X21571900Y-13594080D02*
G75*
G03*
X21571900Y-13594080I-20000J0D01*
G01*
X21599840Y-12730480D02*
G75*
G03*
X21599840Y-12730480I-20000J0D01*
G01*
X21649350Y-13682980D02*
G75*
G03*
X21649350Y-13682980I-20000J0D01*
G01*
X21649750Y-13317220D02*
G75*
G03*
X21649750Y-13317220I-20000J0D01*
G01*
X21689566Y-14009261D02*
G75*
G03*
X21689566Y-14009261I-20000J0D01*
G01*
X21764940Y-13395070D02*
G75*
G03*
X21764940Y-13395070I-20000J0D01*
G01*
X21845929Y-10284240D02*
G75*
G03*
X21845929Y-10284240I-20000J0D01*
G01*
X21846620Y-10177380D02*
G75*
G03*
X21846620Y-10177380I-20000J0D01*
G01*
X21846773Y-10393706D02*
G75*
G03*
X21846773Y-10393706I-20000J0D01*
G01*
X21891940Y-12808330D02*
G75*
G03*
X21891940Y-12808330I-20000J0D01*
G01*
X21894480Y-7475150D02*
G75*
G03*
X21894480Y-7475150I-20000J0D01*
G01*
X21937781Y-14734093D02*
G75*
G03*
X21937781Y-14734093I-20000J0D01*
G01*
X21964300Y-12442559D02*
G75*
G03*
X21964300Y-12442559I-20000J0D01*
G01*
X21974550Y-9847500D02*
G75*
G03*
X21974550Y-9847500I-20000J0D01*
G01*
X22013860Y-11122660D02*
G75*
G03*
X22013860Y-11122660I-20000J0D01*
G01*
X22026835Y-7566301D02*
G75*
G03*
X22026835Y-7566301I-20000J0D01*
G01*
X22043099Y-14731498D02*
G75*
G03*
X22043099Y-14731498I-20000J0D01*
G01*
X22080000Y-12445450D02*
G75*
G03*
X22080000Y-12445450I-20000J0D01*
G01*
X22130700Y-7480550D02*
G75*
G03*
X22130700Y-7480550I-20000J0D01*
G01*
X22137500Y-9859150D02*
G75*
G03*
X22137500Y-9859150I-20000J0D01*
G01*
X22148850Y-11323320D02*
G75*
G03*
X22148850Y-11323320I-20000J0D01*
G01*
X22148850Y-13599160D02*
G75*
G03*
X22148850Y-13599160I-20000J0D01*
G01*
X22157420Y-8909000D02*
G75*
G03*
X22157420Y-8909000I-20000J0D01*
G01*
X22213850Y-9034780D02*
G75*
G03*
X22213850Y-9034780I-20000J0D01*
G01*
X22234350Y-7569200D02*
G75*
G03*
X22234350Y-7569200I-20000J0D01*
G01*
X22302500Y-14862500D02*
G75*
G03*
X22302500Y-14862500I-20000J0D01*
G01*
X22312500Y-7485000D02*
G75*
G03*
X22312500Y-7485000I-20000J0D01*
G01*
X22312500Y-8451150D02*
G75*
G03*
X22312500Y-8451150I-20000J0D01*
G01*
X22395000Y-8293650D02*
G75*
G03*
X22395000Y-8293650I-20000J0D01*
G01*
X22396350Y-7652500D02*
G75*
G03*
X22396350Y-7652500I-20000J0D01*
G01*
X22470000Y-12215000D02*
G75*
G03*
X22470000Y-12215000I-20000J0D01*
G01*
X22552778Y-8405921D02*
G75*
G03*
X22552778Y-8405921I-20000J0D01*
G01*
X22638650Y-8466950D02*
G75*
G03*
X22638650Y-8466950I-20000J0D01*
G01*
X22672790Y-9616440D02*
G75*
G03*
X22672790Y-9616440I-20000J0D01*
G01*
X22691814Y-8293650D02*
G75*
G03*
X22691814Y-8293650I-20000J0D01*
G01*
X22692172Y-7779788D02*
G75*
G03*
X22692172Y-7779788I-20000J0D01*
G01*
X22750640Y-9497240D02*
G75*
G03*
X22750640Y-9497240I-20000J0D01*
G01*
X22753000Y-12700000D02*
G75*
G03*
X22753000Y-12700000I-20000J0D01*
G01*
X22797157Y-8294901D02*
G75*
G03*
X22797157Y-8294901I-20000J0D01*
G01*
X22797500Y-7781950D02*
G75*
G03*
X22797500Y-7781950I-20000J0D01*
G01*
X22850726Y-7402593D02*
G75*
G03*
X22850726Y-7402593I-20000J0D01*
G01*
X22856060Y-8466060D02*
G75*
G03*
X22856060Y-8466060I-20000J0D01*
G01*
X22857140Y-8981440D02*
G75*
G03*
X22857140Y-8981440I-20000J0D01*
G01*
X22902500Y-7565000D02*
G75*
G03*
X22902500Y-7565000I-20000J0D01*
G01*
X22902500Y-8293650D02*
G75*
G03*
X22902500Y-8293650I-20000J0D01*
G01*
X22919803Y-7323050D02*
G75*
G03*
X22919803Y-7323050I-20000J0D01*
G01*
X23000000Y-7245000D02*
G75*
G03*
X23000000Y-7245000I-20000J0D01*
G01*
X23063616Y-7161026D02*
G75*
G03*
X23063616Y-7161026I-20000J0D01*
G01*
X23080660Y-14584680D02*
G75*
G03*
X23080660Y-14584680I-20000J0D01*
G01*
X23642000Y-12700000D02*
G75*
G03*
X23642000Y-12700000I-20000J0D01*
G01*
X23642000Y-13208000D02*
G75*
G03*
X23642000Y-13208000I-20000J0D01*
G01*
X23690260Y-7162500D02*
G75*
G03*
X23690260Y-7162500I-20000J0D01*
G01*
X23832500Y-14404340D02*
G75*
G03*
X23832500Y-14404340I-20000J0D01*
G01*
X24099200Y-13418820D02*
G75*
G03*
X24099200Y-13418820I-20000J0D01*
G01*
X24373520Y-13017500D02*
G75*
G03*
X24373520Y-13017500I-20000J0D01*
G01*
X24386220Y-12024360D02*
G75*
G03*
X24386220Y-12024360I-20000J0D01*
G01*
X24464070Y-11399520D02*
G75*
G03*
X24464070Y-11399520I-20000J0D01*
G01*
D14*
X10793100Y-13617880D02*
X10793100Y-13677880D01*
X10763100Y-13647880D02*
X10823100Y-13647880D01*
D11*
X10823100Y-13617880D02*
X10763100Y-13617880D01*
X10823100Y-13677880D02*
X10763100Y-13677880D01*
X10763100Y-13617880D02*
G75*
G03*
X10763100Y-13677880I0J-30000D01*
G01*
X10823100Y-13677880D02*
G75*
G03*
X10823100Y-13617880I0J30000D01*
G01*
D14*
X10793100Y-14481880D02*
X10793100Y-14541880D01*
X10763100Y-14511880D02*
X10823100Y-14511880D01*
D11*
X10823100Y-14481880D02*
X10763100Y-14481880D01*
X10823100Y-14541880D02*
X10763100Y-14541880D01*
X10763100Y-14481880D02*
G75*
G03*
X10763100Y-14541880I0J-30000D01*
G01*
X10823100Y-14541880D02*
G75*
G03*
X10823100Y-14481880I0J30000D01*
G01*
D14*
X10796680Y-11308360D02*
X10796680Y-11368360D01*
X10766680Y-11338360D02*
X10826680Y-11338360D01*
D11*
X10826680Y-11308360D02*
X10766680Y-11308360D01*
X10826680Y-11368360D02*
X10766680Y-11368360D01*
X10766680Y-11308360D02*
G75*
G03*
X10766680Y-11368360I0J-30000D01*
G01*
X10826680Y-11368360D02*
G75*
G03*
X10826680Y-11308360I0J30000D01*
G01*
D14*
X10796680Y-12172360D02*
X10796680Y-12232360D01*
X10766680Y-12202360D02*
X10826680Y-12202360D01*
D11*
X10826680Y-12172360D02*
X10766680Y-12172360D01*
X10826680Y-12232360D02*
X10766680Y-12232360D01*
X10766680Y-12172360D02*
G75*
G03*
X10766680Y-12232360I0J-30000D01*
G01*
X10826680Y-12232360D02*
G75*
G03*
X10826680Y-12172360I0J30000D01*
G01*
D14*
X11211100Y-13617880D02*
X11211100Y-13677880D01*
X11181100Y-13647880D02*
X11241100Y-13647880D01*
D11*
X11266100Y-13617880D02*
X11156100Y-13617880D01*
X11266100Y-13677880D02*
X11156100Y-13677880D01*
X11156100Y-13617880D02*
G75*
G03*
X11156100Y-13677880I0J-30000D01*
G01*
X11266100Y-13677880D02*
G75*
G03*
X11266100Y-13617880I0J30000D01*
G01*
D14*
X11211100Y-14481880D02*
X11211100Y-14541880D01*
X11181100Y-14511880D02*
X11241100Y-14511880D01*
D11*
X11266100Y-14481880D02*
X11156100Y-14481880D01*
X11266100Y-14541880D02*
X11156100Y-14541880D01*
X11156100Y-14481880D02*
G75*
G03*
X11156100Y-14541880I0J-30000D01*
G01*
X11266100Y-14541880D02*
G75*
G03*
X11266100Y-14481880I0J30000D01*
G01*
D14*
X11214680Y-11308360D02*
X11214680Y-11368360D01*
X11184680Y-11338360D02*
X11244680Y-11338360D01*
D11*
X11269680Y-11308360D02*
X11159680Y-11308360D01*
X11269680Y-11368360D02*
X11159680Y-11368360D01*
X11159680Y-11308360D02*
G75*
G03*
X11159680Y-11368360I0J-30000D01*
G01*
X11269680Y-11368360D02*
G75*
G03*
X11269680Y-11308360I0J30000D01*
G01*
D14*
X11214680Y-12172360D02*
X11214680Y-12232360D01*
X11184680Y-12202360D02*
X11244680Y-12202360D01*
D11*
X11269680Y-12172360D02*
X11159680Y-12172360D01*
X11269680Y-12232360D02*
X11159680Y-12232360D01*
X11159680Y-12172360D02*
G75*
G03*
X11159680Y-12232360I0J-30000D01*
G01*
X11269680Y-12232360D02*
G75*
G03*
X11269680Y-12172360I0J30000D01*
G01*
D10*
X11663476Y-9174276D02*
X11663476Y-9103564D01*
X11592764Y-9103564D01*
X11592764Y-9174276D01*
X11663476Y-9174276D01*
X11663476Y-9428276D02*
X11663476Y-9357564D01*
X11592764Y-9357564D01*
X11592764Y-9428276D01*
X11663476Y-9428276D01*
X11663476Y-9682276D02*
X11663476Y-9611564D01*
X11592764Y-9611564D01*
X11592764Y-9682276D01*
X11663476Y-9682276D01*
X11663476Y-9936276D02*
X11663476Y-9865564D01*
X11592764Y-9865564D01*
X11592764Y-9936276D01*
X11663476Y-9936276D01*
X13012216Y-9041296D02*
X13012216Y-8970584D01*
X12941504Y-8970584D01*
X12941504Y-9041296D01*
X13012216Y-9041296D01*
X13266216Y-9041296D02*
X13266216Y-8970584D01*
X13195504Y-8970584D01*
X13195504Y-9041296D01*
X13266216Y-9041296D01*
X13520216Y-9041296D02*
X13520216Y-8970584D01*
X13449504Y-8970584D01*
X13449504Y-9041296D01*
X13520216Y-9041296D01*
X13774216Y-9041296D02*
X13774216Y-8970584D01*
X13703504Y-8970584D01*
X13703504Y-9041296D01*
X13774216Y-9041296D01*
X13805936Y-9616196D02*
X13805936Y-9545484D01*
X13735224Y-9545484D01*
X13735224Y-9616196D01*
X13805936Y-9616196D01*
X13805936Y-9870196D02*
X13805936Y-9799484D01*
X13735224Y-9799484D01*
X13735224Y-9870196D01*
X13805936Y-9870196D01*
X13805936Y-10124196D02*
X13805936Y-10053484D01*
X13735224Y-10053484D01*
X13735224Y-10124196D01*
X13805936Y-10124196D01*
X14028216Y-9041296D02*
X14028216Y-8970584D01*
X13957504Y-8970584D01*
X13957504Y-9041296D01*
X14028216Y-9041296D01*
X14282216Y-9041296D02*
X14282216Y-8970584D01*
X14211504Y-8970584D01*
X14211504Y-9041296D01*
X14282216Y-9041296D01*
X14289836Y-9613696D02*
X14289836Y-9542984D01*
X14219124Y-9542984D01*
X14219124Y-9613696D01*
X14289836Y-9613696D01*
X14289836Y-9867696D02*
X14289836Y-9796984D01*
X14219124Y-9796984D01*
X14219124Y-9867696D01*
X14289836Y-9867696D01*
X14289836Y-10121696D02*
X14289836Y-10050984D01*
X14219124Y-10050984D01*
X14219124Y-10121696D01*
X14289836Y-10121696D01*
X15708596Y-9295436D02*
X15708596Y-9224724D01*
X15637884Y-9224724D01*
X15637884Y-9295436D01*
X15708596Y-9295436D01*
X15708596Y-9549436D02*
X15708596Y-9478724D01*
X15637884Y-9478724D01*
X15637884Y-9549436D01*
X15708596Y-9549436D01*
X15708596Y-9803436D02*
X15708596Y-9732724D01*
X15637884Y-9732724D01*
X15637884Y-9803436D01*
X15708596Y-9803436D01*
X15708596Y-10057436D02*
X15708596Y-9986724D01*
X15637884Y-9986724D01*
X15637884Y-10057436D01*
X15708596Y-10057436D01*
X15708596Y-10311436D02*
X15708596Y-10240724D01*
X15637884Y-10240724D01*
X15637884Y-10311436D01*
X15708596Y-10311436D01*
X15708596Y-10565436D02*
X15708596Y-10494724D01*
X15637884Y-10494724D01*
X15637884Y-10565436D01*
X15708596Y-10565436D01*
X15708596Y-10819436D02*
X15708596Y-10748724D01*
X15637884Y-10748724D01*
X15637884Y-10819436D01*
X15708596Y-10819436D01*
X15708596Y-11073436D02*
X15708596Y-11002724D01*
X15637884Y-11002724D01*
X15637884Y-11073436D01*
X15708596Y-11073436D01*
X15708596Y-11327436D02*
X15708596Y-11256724D01*
X15637884Y-11256724D01*
X15637884Y-11327436D01*
X15708596Y-11327436D01*
X15708596Y-11581436D02*
X15708596Y-11510724D01*
X15637884Y-11510724D01*
X15637884Y-11581436D01*
X15708596Y-11581436D01*
X15708596Y-11835436D02*
X15708596Y-11764724D01*
X15637884Y-11764724D01*
X15637884Y-11835436D01*
X15708596Y-11835436D01*
X15708596Y-12089436D02*
X15708596Y-12018724D01*
X15637884Y-12018724D01*
X15637884Y-12089436D01*
X15708596Y-12089436D01*
X15708596Y-12343436D02*
X15708596Y-12272724D01*
X15637884Y-12272724D01*
X15637884Y-12343436D01*
X15708596Y-12343436D01*
X15708596Y-12597436D02*
X15708596Y-12526724D01*
X15637884Y-12526724D01*
X15637884Y-12597436D01*
X15708596Y-12597436D01*
X15708596Y-12851436D02*
X15708596Y-12780724D01*
X15637884Y-12780724D01*
X15637884Y-12851436D01*
X15708596Y-12851436D01*
X15708596Y-13105436D02*
X15708596Y-13034724D01*
X15637884Y-13034724D01*
X15637884Y-13105436D01*
X15708596Y-13105436D01*
X15708596Y-13359436D02*
X15708596Y-13288724D01*
X15637884Y-13288724D01*
X15637884Y-13359436D01*
X15708596Y-13359436D01*
X15708596Y-13613436D02*
X15708596Y-13542724D01*
X15637884Y-13542724D01*
X15637884Y-13613436D01*
X15708596Y-13613436D01*
X15708596Y-13867436D02*
X15708596Y-13796724D01*
X15637884Y-13796724D01*
X15637884Y-13867436D01*
X15708596Y-13867436D01*
X15708596Y-14121436D02*
X15708596Y-14050724D01*
X15637884Y-14050724D01*
X15637884Y-14121436D01*
X15708596Y-14121436D01*
X15962596Y-9295436D02*
X15962596Y-9224724D01*
X15891884Y-9224724D01*
X15891884Y-9295436D01*
X15962596Y-9295436D01*
X15962596Y-9549436D02*
X15962596Y-9478724D01*
X15891884Y-9478724D01*
X15891884Y-9549436D01*
X15962596Y-9549436D01*
X15962596Y-9803436D02*
X15962596Y-9732724D01*
X15891884Y-9732724D01*
X15891884Y-9803436D01*
X15962596Y-9803436D01*
X15962596Y-10057436D02*
X15962596Y-9986724D01*
X15891884Y-9986724D01*
X15891884Y-10057436D01*
X15962596Y-10057436D01*
X15962596Y-10311436D02*
X15962596Y-10240724D01*
X15891884Y-10240724D01*
X15891884Y-10311436D01*
X15962596Y-10311436D01*
X15962596Y-10565436D02*
X15962596Y-10494724D01*
X15891884Y-10494724D01*
X15891884Y-10565436D01*
X15962596Y-10565436D01*
X15962596Y-10819436D02*
X15962596Y-10748724D01*
X15891884Y-10748724D01*
X15891884Y-10819436D01*
X15962596Y-10819436D01*
X15962596Y-11073436D02*
X15962596Y-11002724D01*
X15891884Y-11002724D01*
X15891884Y-11073436D01*
X15962596Y-11073436D01*
X15962596Y-11327436D02*
X15962596Y-11256724D01*
X15891884Y-11256724D01*
X15891884Y-11327436D01*
X15962596Y-11327436D01*
X15962596Y-11581436D02*
X15962596Y-11510724D01*
X15891884Y-11510724D01*
X15891884Y-11581436D01*
X15962596Y-11581436D01*
X15962596Y-11835436D02*
X15962596Y-11764724D01*
X15891884Y-11764724D01*
X15891884Y-11835436D01*
X15962596Y-11835436D01*
X15962596Y-12089436D02*
X15962596Y-12018724D01*
X15891884Y-12018724D01*
X15891884Y-12089436D01*
X15962596Y-12089436D01*
X15962596Y-12343436D02*
X15962596Y-12272724D01*
X15891884Y-12272724D01*
X15891884Y-12343436D01*
X15962596Y-12343436D01*
X15962596Y-12597436D02*
X15962596Y-12526724D01*
X15891884Y-12526724D01*
X15891884Y-12597436D01*
X15962596Y-12597436D01*
X15962596Y-12851436D02*
X15962596Y-12780724D01*
X15891884Y-12780724D01*
X15891884Y-12851436D01*
X15962596Y-12851436D01*
X15962596Y-13105436D02*
X15962596Y-13034724D01*
X15891884Y-13034724D01*
X15891884Y-13105436D01*
X15962596Y-13105436D01*
X15962596Y-13359436D02*
X15962596Y-13288724D01*
X15891884Y-13288724D01*
X15891884Y-13359436D01*
X15962596Y-13359436D01*
X15962596Y-13613436D02*
X15962596Y-13542724D01*
X15891884Y-13542724D01*
X15891884Y-13613436D01*
X15962596Y-13613436D01*
X15962596Y-13867436D02*
X15962596Y-13796724D01*
X15891884Y-13796724D01*
X15891884Y-13867436D01*
X15962596Y-13867436D01*
X15962596Y-14121436D02*
X15962596Y-14050724D01*
X15891884Y-14050724D01*
X15891884Y-14121436D01*
X15962596Y-14121436D01*
X16593616Y-14424456D02*
X16593616Y-14353744D01*
X16522904Y-14353744D01*
X16522904Y-14424456D01*
X16593616Y-14424456D01*
X16593616Y-14678456D02*
X16593616Y-14607744D01*
X16522904Y-14607744D01*
X16522904Y-14678456D01*
X16593616Y-14678456D01*
X17127056Y-8383056D02*
X17127056Y-8312344D01*
X17056344Y-8312344D01*
X17056344Y-8383056D01*
X17127056Y-8383056D01*
X17127056Y-8637056D02*
X17127056Y-8566344D01*
X17056344Y-8566344D01*
X17056344Y-8637056D01*
X17127056Y-8637056D01*
X17127056Y-8891056D02*
X17127056Y-8820344D01*
X17056344Y-8820344D01*
X17056344Y-8891056D01*
X17127056Y-8891056D01*
X17127056Y-9145056D02*
X17127056Y-9074344D01*
X17056344Y-9074344D01*
X17056344Y-9145056D01*
X17127056Y-9145056D01*
X17127056Y-9399056D02*
X17127056Y-9328344D01*
X17056344Y-9328344D01*
X17056344Y-9399056D01*
X17127056Y-9399056D01*
X17127056Y-9653056D02*
X17127056Y-9582344D01*
X17056344Y-9582344D01*
X17056344Y-9653056D01*
X17127056Y-9653056D01*
X17127056Y-9907056D02*
X17127056Y-9836344D01*
X17056344Y-9836344D01*
X17056344Y-9907056D01*
X17127056Y-9907056D01*
X17127056Y-10161056D02*
X17127056Y-10090344D01*
X17056344Y-10090344D01*
X17056344Y-10161056D01*
X17127056Y-10161056D01*
X17127056Y-10415056D02*
X17127056Y-10344344D01*
X17056344Y-10344344D01*
X17056344Y-10415056D01*
X17127056Y-10415056D01*
X17127056Y-10669056D02*
X17127056Y-10598344D01*
X17056344Y-10598344D01*
X17056344Y-10669056D01*
X17127056Y-10669056D01*
X17127056Y-10923056D02*
X17127056Y-10852344D01*
X17056344Y-10852344D01*
X17056344Y-10923056D01*
X17127056Y-10923056D01*
X17127056Y-11177056D02*
X17127056Y-11106344D01*
X17056344Y-11106344D01*
X17056344Y-11177056D01*
X17127056Y-11177056D01*
X17127056Y-11431056D02*
X17127056Y-11360344D01*
X17056344Y-11360344D01*
X17056344Y-11431056D01*
X17127056Y-11431056D01*
X17127056Y-11685056D02*
X17127056Y-11614344D01*
X17056344Y-11614344D01*
X17056344Y-11685056D01*
X17127056Y-11685056D01*
X17127056Y-11939056D02*
X17127056Y-11868344D01*
X17056344Y-11868344D01*
X17056344Y-11939056D01*
X17127056Y-11939056D01*
X17127056Y-12193056D02*
X17127056Y-12122344D01*
X17056344Y-12122344D01*
X17056344Y-12193056D01*
X17127056Y-12193056D01*
X17127056Y-12447056D02*
X17127056Y-12376344D01*
X17056344Y-12376344D01*
X17056344Y-12447056D01*
X17127056Y-12447056D01*
X17127056Y-12701056D02*
X17127056Y-12630344D01*
X17056344Y-12630344D01*
X17056344Y-12701056D01*
X17127056Y-12701056D01*
X17127056Y-12955056D02*
X17127056Y-12884344D01*
X17056344Y-12884344D01*
X17056344Y-12955056D01*
X17127056Y-12955056D01*
X17127056Y-13209056D02*
X17127056Y-13138344D01*
X17056344Y-13138344D01*
X17056344Y-13209056D01*
X17127056Y-13209056D01*
X17381056Y-8383056D02*
X17381056Y-8312344D01*
X17310344Y-8312344D01*
X17310344Y-8383056D01*
X17381056Y-8383056D01*
X17381056Y-8637056D02*
X17381056Y-8566344D01*
X17310344Y-8566344D01*
X17310344Y-8637056D01*
X17381056Y-8637056D01*
X17381056Y-8891056D02*
X17381056Y-8820344D01*
X17310344Y-8820344D01*
X17310344Y-8891056D01*
X17381056Y-8891056D01*
X17381056Y-9145056D02*
X17381056Y-9074344D01*
X17310344Y-9074344D01*
X17310344Y-9145056D01*
X17381056Y-9145056D01*
X17381056Y-9399056D02*
X17381056Y-9328344D01*
X17310344Y-9328344D01*
X17310344Y-9399056D01*
X17381056Y-9399056D01*
X17381056Y-9653056D02*
X17381056Y-9582344D01*
X17310344Y-9582344D01*
X17310344Y-9653056D01*
X17381056Y-9653056D01*
X17381056Y-9907056D02*
X17381056Y-9836344D01*
X17310344Y-9836344D01*
X17310344Y-9907056D01*
X17381056Y-9907056D01*
X17381056Y-10161056D02*
X17381056Y-10090344D01*
X17310344Y-10090344D01*
X17310344Y-10161056D01*
X17381056Y-10161056D01*
X17381056Y-10415056D02*
X17381056Y-10344344D01*
X17310344Y-10344344D01*
X17310344Y-10415056D01*
X17381056Y-10415056D01*
X17381056Y-10669056D02*
X17381056Y-10598344D01*
X17310344Y-10598344D01*
X17310344Y-10669056D01*
X17381056Y-10669056D01*
X17381056Y-10923056D02*
X17381056Y-10852344D01*
X17310344Y-10852344D01*
X17310344Y-10923056D01*
X17381056Y-10923056D01*
X17381056Y-11177056D02*
X17381056Y-11106344D01*
X17310344Y-11106344D01*
X17310344Y-11177056D01*
X17381056Y-11177056D01*
X17381056Y-11431056D02*
X17381056Y-11360344D01*
X17310344Y-11360344D01*
X17310344Y-11431056D01*
X17381056Y-11431056D01*
X17381056Y-11685056D02*
X17381056Y-11614344D01*
X17310344Y-11614344D01*
X17310344Y-11685056D01*
X17381056Y-11685056D01*
X17381056Y-11939056D02*
X17381056Y-11868344D01*
X17310344Y-11868344D01*
X17310344Y-11939056D01*
X17381056Y-11939056D01*
X17381056Y-12193056D02*
X17381056Y-12122344D01*
X17310344Y-12122344D01*
X17310344Y-12193056D01*
X17381056Y-12193056D01*
X17381056Y-12447056D02*
X17381056Y-12376344D01*
X17310344Y-12376344D01*
X17310344Y-12447056D01*
X17381056Y-12447056D01*
X17381056Y-12701056D02*
X17381056Y-12630344D01*
X17310344Y-12630344D01*
X17310344Y-12701056D01*
X17381056Y-12701056D01*
X17381056Y-12955056D02*
X17381056Y-12884344D01*
X17310344Y-12884344D01*
X17310344Y-12955056D01*
X17381056Y-12955056D01*
X17381056Y-13209056D02*
X17381056Y-13138344D01*
X17310344Y-13138344D01*
X17310344Y-13209056D01*
X17381056Y-13209056D01*
X18041456Y-8383056D02*
X18041456Y-8312344D01*
X17970744Y-8312344D01*
X17970744Y-8383056D01*
X18041456Y-8383056D01*
X18041456Y-8637056D02*
X18041456Y-8566344D01*
X17970744Y-8566344D01*
X17970744Y-8637056D01*
X18041456Y-8637056D01*
X18041456Y-8891056D02*
X18041456Y-8820344D01*
X17970744Y-8820344D01*
X17970744Y-8891056D01*
X18041456Y-8891056D01*
X18041456Y-9145056D02*
X18041456Y-9074344D01*
X17970744Y-9074344D01*
X17970744Y-9145056D01*
X18041456Y-9145056D01*
X18041456Y-9399056D02*
X18041456Y-9328344D01*
X17970744Y-9328344D01*
X17970744Y-9399056D01*
X18041456Y-9399056D01*
X18041456Y-9653056D02*
X18041456Y-9582344D01*
X17970744Y-9582344D01*
X17970744Y-9653056D01*
X18041456Y-9653056D01*
X18041456Y-9907056D02*
X18041456Y-9836344D01*
X17970744Y-9836344D01*
X17970744Y-9907056D01*
X18041456Y-9907056D01*
X18041456Y-10161056D02*
X18041456Y-10090344D01*
X17970744Y-10090344D01*
X17970744Y-10161056D01*
X18041456Y-10161056D01*
X18041456Y-10415056D02*
X18041456Y-10344344D01*
X17970744Y-10344344D01*
X17970744Y-10415056D01*
X18041456Y-10415056D01*
X18041456Y-10669056D02*
X18041456Y-10598344D01*
X17970744Y-10598344D01*
X17970744Y-10669056D01*
X18041456Y-10669056D01*
X18041456Y-10923056D02*
X18041456Y-10852344D01*
X17970744Y-10852344D01*
X17970744Y-10923056D01*
X18041456Y-10923056D01*
X18041456Y-11177056D02*
X18041456Y-11106344D01*
X17970744Y-11106344D01*
X17970744Y-11177056D01*
X18041456Y-11177056D01*
X18041456Y-11431056D02*
X18041456Y-11360344D01*
X17970744Y-11360344D01*
X17970744Y-11431056D01*
X18041456Y-11431056D01*
X18041456Y-11685056D02*
X18041456Y-11614344D01*
X17970744Y-11614344D01*
X17970744Y-11685056D01*
X18041456Y-11685056D01*
X18041456Y-11939056D02*
X18041456Y-11868344D01*
X17970744Y-11868344D01*
X17970744Y-11939056D01*
X18041456Y-11939056D01*
X18041456Y-12193056D02*
X18041456Y-12122344D01*
X17970744Y-12122344D01*
X17970744Y-12193056D01*
X18041456Y-12193056D01*
X18041456Y-12447056D02*
X18041456Y-12376344D01*
X17970744Y-12376344D01*
X17970744Y-12447056D01*
X18041456Y-12447056D01*
X18041456Y-12701056D02*
X18041456Y-12630344D01*
X17970744Y-12630344D01*
X17970744Y-12701056D01*
X18041456Y-12701056D01*
X18041456Y-12955056D02*
X18041456Y-12884344D01*
X17970744Y-12884344D01*
X17970744Y-12955056D01*
X18041456Y-12955056D01*
X18041456Y-13209056D02*
X18041456Y-13138344D01*
X17970744Y-13138344D01*
X17970744Y-13209056D01*
X18041456Y-13209056D01*
X18295456Y-8383056D02*
X18295456Y-8312344D01*
X18224744Y-8312344D01*
X18224744Y-8383056D01*
X18295456Y-8383056D01*
X18295456Y-8637056D02*
X18295456Y-8566344D01*
X18224744Y-8566344D01*
X18224744Y-8637056D01*
X18295456Y-8637056D01*
X18295456Y-8891056D02*
X18295456Y-8820344D01*
X18224744Y-8820344D01*
X18224744Y-8891056D01*
X18295456Y-8891056D01*
X18295456Y-9145056D02*
X18295456Y-9074344D01*
X18224744Y-9074344D01*
X18224744Y-9145056D01*
X18295456Y-9145056D01*
X18295456Y-9399056D02*
X18295456Y-9328344D01*
X18224744Y-9328344D01*
X18224744Y-9399056D01*
X18295456Y-9399056D01*
X18295456Y-9653056D02*
X18295456Y-9582344D01*
X18224744Y-9582344D01*
X18224744Y-9653056D01*
X18295456Y-9653056D01*
X18295456Y-9907056D02*
X18295456Y-9836344D01*
X18224744Y-9836344D01*
X18224744Y-9907056D01*
X18295456Y-9907056D01*
X18295456Y-10161056D02*
X18295456Y-10090344D01*
X18224744Y-10090344D01*
X18224744Y-10161056D01*
X18295456Y-10161056D01*
X18295456Y-10415056D02*
X18295456Y-10344344D01*
X18224744Y-10344344D01*
X18224744Y-10415056D01*
X18295456Y-10415056D01*
X18295456Y-10669056D02*
X18295456Y-10598344D01*
X18224744Y-10598344D01*
X18224744Y-10669056D01*
X18295456Y-10669056D01*
X18295456Y-10923056D02*
X18295456Y-10852344D01*
X18224744Y-10852344D01*
X18224744Y-10923056D01*
X18295456Y-10923056D01*
X18295456Y-11177056D02*
X18295456Y-11106344D01*
X18224744Y-11106344D01*
X18224744Y-11177056D01*
X18295456Y-11177056D01*
X18295456Y-11431056D02*
X18295456Y-11360344D01*
X18224744Y-11360344D01*
X18224744Y-11431056D01*
X18295456Y-11431056D01*
X18295456Y-11685056D02*
X18295456Y-11614344D01*
X18224744Y-11614344D01*
X18224744Y-11685056D01*
X18295456Y-11685056D01*
X18295456Y-11939056D02*
X18295456Y-11868344D01*
X18224744Y-11868344D01*
X18224744Y-11939056D01*
X18295456Y-11939056D01*
X18295456Y-12193056D02*
X18295456Y-12122344D01*
X18224744Y-12122344D01*
X18224744Y-12193056D01*
X18295456Y-12193056D01*
X18295456Y-12447056D02*
X18295456Y-12376344D01*
X18224744Y-12376344D01*
X18224744Y-12447056D01*
X18295456Y-12447056D01*
X18295456Y-12701056D02*
X18295456Y-12630344D01*
X18224744Y-12630344D01*
X18224744Y-12701056D01*
X18295456Y-12701056D01*
X18295456Y-12955056D02*
X18295456Y-12884344D01*
X18224744Y-12884344D01*
X18224744Y-12955056D01*
X18295456Y-12955056D01*
X18295456Y-13209056D02*
X18295456Y-13138344D01*
X18224744Y-13138344D01*
X18224744Y-13209056D01*
X18295456Y-13209056D01*
X23070656Y-8383056D02*
X23070656Y-8312344D01*
X22999944Y-8312344D01*
X22999944Y-8383056D01*
X23070656Y-8383056D01*
X23070656Y-8637056D02*
X23070656Y-8566344D01*
X22999944Y-8566344D01*
X22999944Y-8637056D01*
X23070656Y-8637056D01*
X23070656Y-8891056D02*
X23070656Y-8820344D01*
X22999944Y-8820344D01*
X22999944Y-8891056D01*
X23070656Y-8891056D01*
X23070656Y-9145056D02*
X23070656Y-9074344D01*
X22999944Y-9074344D01*
X22999944Y-9145056D01*
X23070656Y-9145056D01*
X23070656Y-9399056D02*
X23070656Y-9328344D01*
X22999944Y-9328344D01*
X22999944Y-9399056D01*
X23070656Y-9399056D01*
X23070656Y-9653056D02*
X23070656Y-9582344D01*
X22999944Y-9582344D01*
X22999944Y-9653056D01*
X23070656Y-9653056D01*
X23070656Y-9907056D02*
X23070656Y-9836344D01*
X22999944Y-9836344D01*
X22999944Y-9907056D01*
X23070656Y-9907056D01*
X23070656Y-10161056D02*
X23070656Y-10090344D01*
X22999944Y-10090344D01*
X22999944Y-10161056D01*
X23070656Y-10161056D01*
X23070656Y-10415056D02*
X23070656Y-10344344D01*
X22999944Y-10344344D01*
X22999944Y-10415056D01*
X23070656Y-10415056D01*
X23070656Y-10669056D02*
X23070656Y-10598344D01*
X22999944Y-10598344D01*
X22999944Y-10669056D01*
X23070656Y-10669056D01*
X23070656Y-10923056D02*
X23070656Y-10852344D01*
X22999944Y-10852344D01*
X22999944Y-10923056D01*
X23070656Y-10923056D01*
X23070656Y-11177056D02*
X23070656Y-11106344D01*
X22999944Y-11106344D01*
X22999944Y-11177056D01*
X23070656Y-11177056D01*
X23070656Y-11431056D02*
X23070656Y-11360344D01*
X22999944Y-11360344D01*
X22999944Y-11431056D01*
X23070656Y-11431056D01*
X23070656Y-11685056D02*
X23070656Y-11614344D01*
X22999944Y-11614344D01*
X22999944Y-11685056D01*
X23070656Y-11685056D01*
X23070656Y-11939056D02*
X23070656Y-11868344D01*
X22999944Y-11868344D01*
X22999944Y-11939056D01*
X23070656Y-11939056D01*
X23070656Y-12193056D02*
X23070656Y-12122344D01*
X22999944Y-12122344D01*
X22999944Y-12193056D01*
X23070656Y-12193056D01*
X23070656Y-12447056D02*
X23070656Y-12376344D01*
X22999944Y-12376344D01*
X22999944Y-12447056D01*
X23070656Y-12447056D01*
X23070656Y-12701056D02*
X23070656Y-12630344D01*
X22999944Y-12630344D01*
X22999944Y-12701056D01*
X23070656Y-12701056D01*
X23070656Y-12955056D02*
X23070656Y-12884344D01*
X22999944Y-12884344D01*
X22999944Y-12955056D01*
X23070656Y-12955056D01*
X23070656Y-13209056D02*
X23070656Y-13138344D01*
X22999944Y-13138344D01*
X22999944Y-13209056D01*
X23070656Y-13209056D01*
X23324656Y-8383056D02*
X23324656Y-8312344D01*
X23253944Y-8312344D01*
X23253944Y-8383056D01*
X23324656Y-8383056D01*
X23324656Y-8637056D02*
X23324656Y-8566344D01*
X23253944Y-8566344D01*
X23253944Y-8637056D01*
X23324656Y-8637056D01*
X23324656Y-8891056D02*
X23324656Y-8820344D01*
X23253944Y-8820344D01*
X23253944Y-8891056D01*
X23324656Y-8891056D01*
X23324656Y-9145056D02*
X23324656Y-9074344D01*
X23253944Y-9074344D01*
X23253944Y-9145056D01*
X23324656Y-9145056D01*
X23324656Y-9399056D02*
X23324656Y-9328344D01*
X23253944Y-9328344D01*
X23253944Y-9399056D01*
X23324656Y-9399056D01*
X23324656Y-9653056D02*
X23324656Y-9582344D01*
X23253944Y-9582344D01*
X23253944Y-9653056D01*
X23324656Y-9653056D01*
X23324656Y-9907056D02*
X23324656Y-9836344D01*
X23253944Y-9836344D01*
X23253944Y-9907056D01*
X23324656Y-9907056D01*
X23324656Y-10161056D02*
X23324656Y-10090344D01*
X23253944Y-10090344D01*
X23253944Y-10161056D01*
X23324656Y-10161056D01*
X23324656Y-10415056D02*
X23324656Y-10344344D01*
X23253944Y-10344344D01*
X23253944Y-10415056D01*
X23324656Y-10415056D01*
X23324656Y-10669056D02*
X23324656Y-10598344D01*
X23253944Y-10598344D01*
X23253944Y-10669056D01*
X23324656Y-10669056D01*
X23324656Y-10923056D02*
X23324656Y-10852344D01*
X23253944Y-10852344D01*
X23253944Y-10923056D01*
X23324656Y-10923056D01*
X23324656Y-11177056D02*
X23324656Y-11106344D01*
X23253944Y-11106344D01*
X23253944Y-11177056D01*
X23324656Y-11177056D01*
X23324656Y-11431056D02*
X23324656Y-11360344D01*
X23253944Y-11360344D01*
X23253944Y-11431056D01*
X23324656Y-11431056D01*
X23324656Y-11685056D02*
X23324656Y-11614344D01*
X23253944Y-11614344D01*
X23253944Y-11685056D01*
X23324656Y-11685056D01*
X23324656Y-11939056D02*
X23324656Y-11868344D01*
X23253944Y-11868344D01*
X23253944Y-11939056D01*
X23324656Y-11939056D01*
X23324656Y-12193056D02*
X23324656Y-12122344D01*
X23253944Y-12122344D01*
X23253944Y-12193056D01*
X23324656Y-12193056D01*
X23324656Y-12447056D02*
X23324656Y-12376344D01*
X23253944Y-12376344D01*
X23253944Y-12447056D01*
X23324656Y-12447056D01*
X23324656Y-12701056D02*
X23324656Y-12630344D01*
X23253944Y-12630344D01*
X23253944Y-12701056D01*
X23324656Y-12701056D01*
X23324656Y-12955056D02*
X23324656Y-12884344D01*
X23253944Y-12884344D01*
X23253944Y-12955056D01*
X23324656Y-12955056D01*
X23324656Y-13209056D02*
X23324656Y-13138344D01*
X23253944Y-13138344D01*
X23253944Y-13209056D01*
X23324656Y-13209056D01*
X23985056Y-8383056D02*
X23985056Y-8312344D01*
X23914344Y-8312344D01*
X23914344Y-8383056D01*
X23985056Y-8383056D01*
X23985056Y-8637056D02*
X23985056Y-8566344D01*
X23914344Y-8566344D01*
X23914344Y-8637056D01*
X23985056Y-8637056D01*
X23985056Y-8891056D02*
X23985056Y-8820344D01*
X23914344Y-8820344D01*
X23914344Y-8891056D01*
X23985056Y-8891056D01*
X23985056Y-9145056D02*
X23985056Y-9074344D01*
X23914344Y-9074344D01*
X23914344Y-9145056D01*
X23985056Y-9145056D01*
X23985056Y-9399056D02*
X23985056Y-9328344D01*
X23914344Y-9328344D01*
X23914344Y-9399056D01*
X23985056Y-9399056D01*
X23985056Y-9653056D02*
X23985056Y-9582344D01*
X23914344Y-9582344D01*
X23914344Y-9653056D01*
X23985056Y-9653056D01*
X23985056Y-9907056D02*
X23985056Y-9836344D01*
X23914344Y-9836344D01*
X23914344Y-9907056D01*
X23985056Y-9907056D01*
X23985056Y-10161056D02*
X23985056Y-10090344D01*
X23914344Y-10090344D01*
X23914344Y-10161056D01*
X23985056Y-10161056D01*
X23985056Y-10415056D02*
X23985056Y-10344344D01*
X23914344Y-10344344D01*
X23914344Y-10415056D01*
X23985056Y-10415056D01*
X23985056Y-10669056D02*
X23985056Y-10598344D01*
X23914344Y-10598344D01*
X23914344Y-10669056D01*
X23985056Y-10669056D01*
X23985056Y-10923056D02*
X23985056Y-10852344D01*
X23914344Y-10852344D01*
X23914344Y-10923056D01*
X23985056Y-10923056D01*
X23985056Y-11177056D02*
X23985056Y-11106344D01*
X23914344Y-11106344D01*
X23914344Y-11177056D01*
X23985056Y-11177056D01*
X23985056Y-11431056D02*
X23985056Y-11360344D01*
X23914344Y-11360344D01*
X23914344Y-11431056D01*
X23985056Y-11431056D01*
X23985056Y-11685056D02*
X23985056Y-11614344D01*
X23914344Y-11614344D01*
X23914344Y-11685056D01*
X23985056Y-11685056D01*
X23985056Y-11939056D02*
X23985056Y-11868344D01*
X23914344Y-11868344D01*
X23914344Y-11939056D01*
X23985056Y-11939056D01*
X23985056Y-12193056D02*
X23985056Y-12122344D01*
X23914344Y-12122344D01*
X23914344Y-12193056D01*
X23985056Y-12193056D01*
X23985056Y-12447056D02*
X23985056Y-12376344D01*
X23914344Y-12376344D01*
X23914344Y-12447056D01*
X23985056Y-12447056D01*
X23985056Y-12701056D02*
X23985056Y-12630344D01*
X23914344Y-12630344D01*
X23914344Y-12701056D01*
X23985056Y-12701056D01*
X23985056Y-12955056D02*
X23985056Y-12884344D01*
X23914344Y-12884344D01*
X23914344Y-12955056D01*
X23985056Y-12955056D01*
X23985056Y-13209056D02*
X23985056Y-13138344D01*
X23914344Y-13138344D01*
X23914344Y-13209056D01*
X23985056Y-13209056D01*
X24239056Y-8383056D02*
X24239056Y-8312344D01*
X24168344Y-8312344D01*
X24168344Y-8383056D01*
X24239056Y-8383056D01*
X24239056Y-8637056D02*
X24239056Y-8566344D01*
X24168344Y-8566344D01*
X24168344Y-8637056D01*
X24239056Y-8637056D01*
X24239056Y-8891056D02*
X24239056Y-8820344D01*
X24168344Y-8820344D01*
X24168344Y-8891056D01*
X24239056Y-8891056D01*
X24239056Y-9145056D02*
X24239056Y-9074344D01*
X24168344Y-9074344D01*
X24168344Y-9145056D01*
X24239056Y-9145056D01*
X24239056Y-9399056D02*
X24239056Y-9328344D01*
X24168344Y-9328344D01*
X24168344Y-9399056D01*
X24239056Y-9399056D01*
X24239056Y-9653056D02*
X24239056Y-9582344D01*
X24168344Y-9582344D01*
X24168344Y-9653056D01*
X24239056Y-9653056D01*
X24239056Y-9907056D02*
X24239056Y-9836344D01*
X24168344Y-9836344D01*
X24168344Y-9907056D01*
X24239056Y-9907056D01*
X24239056Y-10161056D02*
X24239056Y-10090344D01*
X24168344Y-10090344D01*
X24168344Y-10161056D01*
X24239056Y-10161056D01*
X24239056Y-10415056D02*
X24239056Y-10344344D01*
X24168344Y-10344344D01*
X24168344Y-10415056D01*
X24239056Y-10415056D01*
X24239056Y-10669056D02*
X24239056Y-10598344D01*
X24168344Y-10598344D01*
X24168344Y-10669056D01*
X24239056Y-10669056D01*
X24239056Y-10923056D02*
X24239056Y-10852344D01*
X24168344Y-10852344D01*
X24168344Y-10923056D01*
X24239056Y-10923056D01*
X24239056Y-11177056D02*
X24239056Y-11106344D01*
X24168344Y-11106344D01*
X24168344Y-11177056D01*
X24239056Y-11177056D01*
X24239056Y-11431056D02*
X24239056Y-11360344D01*
X24168344Y-11360344D01*
X24168344Y-11431056D01*
X24239056Y-11431056D01*
X24239056Y-11685056D02*
X24239056Y-11614344D01*
X24168344Y-11614344D01*
X24168344Y-11685056D01*
X24239056Y-11685056D01*
X24239056Y-11939056D02*
X24239056Y-11868344D01*
X24168344Y-11868344D01*
X24168344Y-11939056D01*
X24239056Y-11939056D01*
X24239056Y-12193056D02*
X24239056Y-12122344D01*
X24168344Y-12122344D01*
X24168344Y-12193056D01*
X24239056Y-12193056D01*
X24239056Y-12447056D02*
X24239056Y-12376344D01*
X24168344Y-12376344D01*
X24168344Y-12447056D01*
X24239056Y-12447056D01*
X24239056Y-12701056D02*
X24239056Y-12630344D01*
X24168344Y-12630344D01*
X24168344Y-12701056D01*
X24239056Y-12701056D01*
X24239056Y-12955056D02*
X24239056Y-12884344D01*
X24168344Y-12884344D01*
X24168344Y-12955056D01*
X24239056Y-12955056D01*
X24239056Y-13209056D02*
X24239056Y-13138344D01*
X24168344Y-13138344D01*
X24168344Y-13209056D01*
X24239056Y-13209056D01*
D11*
X10646299Y-15527536D02*
X10646299Y-15327536D01*
X10693918Y-15327536D01*
X10722490Y-15337060D01*
X10741537Y-15356108D01*
X10751061Y-15375155D01*
X10760585Y-15413250D01*
X10760585Y-15441822D01*
X10751061Y-15479917D01*
X10741537Y-15498965D01*
X10722490Y-15518012D01*
X10693918Y-15527536D01*
X10646299Y-15527536D01*
X10846299Y-15527536D02*
X10846299Y-15394203D01*
X10846299Y-15432298D02*
X10855823Y-15413250D01*
X10865347Y-15403727D01*
X10884394Y-15394203D01*
X10903442Y-15394203D01*
X10970109Y-15527536D02*
X10970109Y-15394203D01*
X10970109Y-15327536D02*
X10960585Y-15337060D01*
X10970109Y-15346584D01*
X10979632Y-15337060D01*
X10970109Y-15327536D01*
X10970109Y-15346584D01*
X11093918Y-15527536D02*
X11074870Y-15518012D01*
X11065347Y-15498965D01*
X11065347Y-15327536D01*
X11198680Y-15527536D02*
X11179632Y-15518012D01*
X11170109Y-15498965D01*
X11170109Y-15327536D01*
X11427251Y-15527536D02*
X11427251Y-15327536D01*
X11493918Y-15470393D01*
X11560585Y-15327536D01*
X11560585Y-15527536D01*
X11741537Y-15527536D02*
X11741537Y-15422774D01*
X11732013Y-15403727D01*
X11712966Y-15394203D01*
X11674870Y-15394203D01*
X11655823Y-15403727D01*
X11741537Y-15518012D02*
X11722489Y-15527536D01*
X11674870Y-15527536D01*
X11655823Y-15518012D01*
X11646299Y-15498965D01*
X11646299Y-15479917D01*
X11655823Y-15460869D01*
X11674870Y-15451346D01*
X11722489Y-15451346D01*
X11741537Y-15441822D01*
X11836775Y-15394203D02*
X11836775Y-15594203D01*
X11836775Y-15403727D02*
X11855823Y-15394203D01*
X11893918Y-15394203D01*
X11912966Y-15403727D01*
X11922489Y-15413250D01*
X11932013Y-15432298D01*
X11932013Y-15489441D01*
X11922489Y-15508488D01*
X11912966Y-15518012D01*
X11893918Y-15527536D01*
X11855823Y-15527536D01*
X11836775Y-15518012D01*
X12017728Y-15508488D02*
X12027251Y-15518012D01*
X12017728Y-15527536D01*
X12008204Y-15518012D01*
X12017728Y-15508488D01*
X12017728Y-15527536D01*
X12017728Y-15403727D02*
X12027251Y-15413250D01*
X12017728Y-15422774D01*
X12008204Y-15413250D01*
X12017728Y-15403727D01*
X12017728Y-15422774D01*
D12*
X10368680Y-15847060D02*
X10388680Y-15867060D01*
X10388680Y-15847060D02*
X10368680Y-15867060D01*
D11*
X10684394Y-15747536D02*
X10703442Y-15747536D01*
X10722490Y-15757060D01*
X10732013Y-15766584D01*
X10741537Y-15785631D01*
X10751061Y-15823727D01*
X10751061Y-15871346D01*
X10741537Y-15909441D01*
X10732013Y-15928488D01*
X10722490Y-15938012D01*
X10703442Y-15947536D01*
X10684394Y-15947536D01*
X10665347Y-15938012D01*
X10655823Y-15928488D01*
X10646299Y-15909441D01*
X10636775Y-15871346D01*
X10636775Y-15823727D01*
X10646299Y-15785631D01*
X10655823Y-15766584D01*
X10665347Y-15757060D01*
X10684394Y-15747536D01*
X10836775Y-15928488D02*
X10846299Y-15938012D01*
X10836775Y-15947536D01*
X10827251Y-15938012D01*
X10836775Y-15928488D01*
X10836775Y-15947536D01*
X10922490Y-15766584D02*
X10932013Y-15757060D01*
X10951061Y-15747536D01*
X10998680Y-15747536D01*
X11017728Y-15757060D01*
X11027251Y-15766584D01*
X11036775Y-15785631D01*
X11036775Y-15804679D01*
X11027251Y-15833250D01*
X10912966Y-15947536D01*
X11036775Y-15947536D01*
X11160585Y-15747536D02*
X11179632Y-15747536D01*
X11198680Y-15757060D01*
X11208204Y-15766584D01*
X11217728Y-15785631D01*
X11227251Y-15823727D01*
X11227251Y-15871346D01*
X11217728Y-15909441D01*
X11208204Y-15928488D01*
X11198680Y-15938012D01*
X11179632Y-15947536D01*
X11160585Y-15947536D01*
X11141537Y-15938012D01*
X11132013Y-15928488D01*
X11122490Y-15909441D01*
X11112966Y-15871346D01*
X11112966Y-15823727D01*
X11122490Y-15785631D01*
X11132013Y-15766584D01*
X11141537Y-15757060D01*
X11160585Y-15747536D01*
X11351061Y-15747536D02*
X11370108Y-15747536D01*
X11389156Y-15757060D01*
X11398680Y-15766584D01*
X11408204Y-15785631D01*
X11417728Y-15823727D01*
X11417728Y-15871346D01*
X11408204Y-15909441D01*
X11398680Y-15928488D01*
X11389156Y-15938012D01*
X11370108Y-15947536D01*
X11351061Y-15947536D01*
X11332013Y-15938012D01*
X11322489Y-15928488D01*
X11312966Y-15909441D01*
X11303442Y-15871346D01*
X11303442Y-15823727D01*
X11312966Y-15785631D01*
X11322489Y-15766584D01*
X11332013Y-15757060D01*
X11351061Y-15747536D01*
X11503442Y-15947536D02*
X11503442Y-15814203D01*
X11503442Y-15833250D02*
X11512966Y-15823727D01*
X11532013Y-15814203D01*
X11560585Y-15814203D01*
X11579632Y-15823727D01*
X11589156Y-15842774D01*
X11589156Y-15947536D01*
X11589156Y-15842774D02*
X11598680Y-15823727D01*
X11617728Y-15814203D01*
X11646299Y-15814203D01*
X11665347Y-15823727D01*
X11674870Y-15842774D01*
X11674870Y-15947536D01*
X11770108Y-15947536D02*
X11770108Y-15814203D01*
X11770108Y-15833250D02*
X11779632Y-15823727D01*
X11798680Y-15814203D01*
X11827251Y-15814203D01*
X11846299Y-15823727D01*
X11855823Y-15842774D01*
X11855823Y-15947536D01*
X11855823Y-15842774D02*
X11865347Y-15823727D01*
X11884394Y-15814203D01*
X11912966Y-15814203D01*
X11932013Y-15823727D01*
X11941537Y-15842774D01*
X11941537Y-15947536D01*
X12332013Y-15738012D02*
X12160585Y-15995155D01*
X12589156Y-15747536D02*
X12608204Y-15747536D01*
X12627251Y-15757060D01*
X12636775Y-15766584D01*
X12646299Y-15785631D01*
X12655823Y-15823727D01*
X12655823Y-15871346D01*
X12646299Y-15909441D01*
X12636775Y-15928488D01*
X12627251Y-15938012D01*
X12608204Y-15947536D01*
X12589156Y-15947536D01*
X12570108Y-15938012D01*
X12560585Y-15928488D01*
X12551061Y-15909441D01*
X12541537Y-15871346D01*
X12541537Y-15823727D01*
X12551061Y-15785631D01*
X12560585Y-15766584D01*
X12570108Y-15757060D01*
X12589156Y-15747536D01*
X12741537Y-15928488D02*
X12751061Y-15938012D01*
X12741537Y-15947536D01*
X12732013Y-15938012D01*
X12741537Y-15928488D01*
X12741537Y-15947536D01*
X12874870Y-15747536D02*
X12893918Y-15747536D01*
X12912966Y-15757060D01*
X12922489Y-15766584D01*
X12932013Y-15785631D01*
X12941537Y-15823727D01*
X12941537Y-15871346D01*
X12932013Y-15909441D01*
X12922489Y-15928488D01*
X12912966Y-15938012D01*
X12893918Y-15947536D01*
X12874870Y-15947536D01*
X12855823Y-15938012D01*
X12846299Y-15928488D01*
X12836775Y-15909441D01*
X12827251Y-15871346D01*
X12827251Y-15823727D01*
X12836775Y-15785631D01*
X12846299Y-15766584D01*
X12855823Y-15757060D01*
X12874870Y-15747536D01*
X13065347Y-15747536D02*
X13084394Y-15747536D01*
X13103442Y-15757060D01*
X13112966Y-15766584D01*
X13122489Y-15785631D01*
X13132013Y-15823727D01*
X13132013Y-15871346D01*
X13122489Y-15909441D01*
X13112966Y-15928488D01*
X13103442Y-15938012D01*
X13084394Y-15947536D01*
X13065347Y-15947536D01*
X13046299Y-15938012D01*
X13036775Y-15928488D01*
X13027251Y-15909441D01*
X13017728Y-15871346D01*
X13017728Y-15823727D01*
X13027251Y-15785631D01*
X13036775Y-15766584D01*
X13046299Y-15757060D01*
X13065347Y-15747536D01*
X13198680Y-15747536D02*
X13332013Y-15747536D01*
X13246299Y-15947536D01*
X13417728Y-15947536D02*
X13455823Y-15947536D01*
X13474870Y-15938012D01*
X13484394Y-15928488D01*
X13503442Y-15899917D01*
X13512966Y-15861822D01*
X13512966Y-15785631D01*
X13503442Y-15766584D01*
X13493918Y-15757060D01*
X13474870Y-15747536D01*
X13436775Y-15747536D01*
X13417728Y-15757060D01*
X13408204Y-15766584D01*
X13398680Y-15785631D01*
X13398680Y-15833250D01*
X13408204Y-15852298D01*
X13417728Y-15861822D01*
X13436775Y-15871346D01*
X13474870Y-15871346D01*
X13493918Y-15861822D01*
X13503442Y-15852298D01*
X13512966Y-15833250D01*
X13589156Y-15747536D02*
X13589156Y-15785631D01*
X13665347Y-15747536D02*
X13665347Y-15785631D01*
X13960585Y-16023727D02*
X13951061Y-16014203D01*
X13932013Y-15985631D01*
X13922489Y-15966584D01*
X13912966Y-15938012D01*
X13903442Y-15890393D01*
X13903442Y-15852298D01*
X13912966Y-15804679D01*
X13922489Y-15776108D01*
X13932013Y-15757060D01*
X13951061Y-15728488D01*
X13960585Y-15718965D01*
X14017728Y-15747536D02*
X14151061Y-15747536D01*
X14065347Y-15947536D01*
X14208204Y-15747536D02*
X14332013Y-15747536D01*
X14265347Y-15823727D01*
X14293918Y-15823727D01*
X14312966Y-15833250D01*
X14322489Y-15842774D01*
X14332013Y-15861822D01*
X14332013Y-15909441D01*
X14322489Y-15928488D01*
X14312966Y-15938012D01*
X14293918Y-15947536D01*
X14236775Y-15947536D01*
X14217728Y-15938012D01*
X14208204Y-15928488D01*
X14570108Y-15947536D02*
X14570108Y-15747536D01*
X14655823Y-15947536D02*
X14655823Y-15842774D01*
X14646299Y-15823727D01*
X14627251Y-15814203D01*
X14598680Y-15814203D01*
X14579632Y-15823727D01*
X14570108Y-15833250D01*
X14779632Y-15947536D02*
X14760585Y-15938012D01*
X14751061Y-15928488D01*
X14741537Y-15909441D01*
X14741537Y-15852298D01*
X14751061Y-15833250D01*
X14760585Y-15823727D01*
X14779632Y-15814203D01*
X14808204Y-15814203D01*
X14827251Y-15823727D01*
X14836775Y-15833250D01*
X14846299Y-15852298D01*
X14846299Y-15909441D01*
X14836775Y-15928488D01*
X14827251Y-15938012D01*
X14808204Y-15947536D01*
X14779632Y-15947536D01*
X14960585Y-15947536D02*
X14941537Y-15938012D01*
X14932013Y-15918965D01*
X14932013Y-15747536D01*
X15112966Y-15938012D02*
X15093918Y-15947536D01*
X15055823Y-15947536D01*
X15036775Y-15938012D01*
X15027251Y-15918965D01*
X15027251Y-15842774D01*
X15036775Y-15823727D01*
X15055823Y-15814203D01*
X15093918Y-15814203D01*
X15112966Y-15823727D01*
X15122489Y-15842774D01*
X15122489Y-15861822D01*
X15027251Y-15880869D01*
X15198680Y-15938012D02*
X15217728Y-15947536D01*
X15255823Y-15947536D01*
X15274870Y-15938012D01*
X15284394Y-15918965D01*
X15284394Y-15909441D01*
X15274870Y-15890393D01*
X15255823Y-15880869D01*
X15227251Y-15880869D01*
X15208204Y-15871346D01*
X15198680Y-15852298D01*
X15198680Y-15842774D01*
X15208204Y-15823727D01*
X15227251Y-15814203D01*
X15255823Y-15814203D01*
X15274870Y-15823727D01*
X15351061Y-16023727D02*
X15360585Y-16014203D01*
X15379632Y-15985631D01*
X15389156Y-15966584D01*
X15398680Y-15938012D01*
X15408204Y-15890393D01*
X15408204Y-15852298D01*
X15398680Y-15804679D01*
X15389156Y-15776108D01*
X15379632Y-15757060D01*
X15360585Y-15728488D01*
X15351061Y-15718965D01*
D13*
X10388680Y-16121060D02*
G75*
G03*
X10388680Y-16121060I-20000J0D01*
G01*
D11*
X10684394Y-16011536D02*
X10703442Y-16011536D01*
X10722490Y-16021060D01*
X10732013Y-16030584D01*
X10741537Y-16049631D01*
X10751061Y-16087727D01*
X10751061Y-16135346D01*
X10741537Y-16173441D01*
X10732013Y-16192488D01*
X10722490Y-16202012D01*
X10703442Y-16211536D01*
X10684394Y-16211536D01*
X10665347Y-16202012D01*
X10655823Y-16192488D01*
X10646299Y-16173441D01*
X10636775Y-16135346D01*
X10636775Y-16087727D01*
X10646299Y-16049631D01*
X10655823Y-16030584D01*
X10665347Y-16021060D01*
X10684394Y-16011536D01*
X10836775Y-16192488D02*
X10846299Y-16202012D01*
X10836775Y-16211536D01*
X10827251Y-16202012D01*
X10836775Y-16192488D01*
X10836775Y-16211536D01*
X11017728Y-16078203D02*
X11017728Y-16211536D01*
X10970109Y-16002012D02*
X10922490Y-16144869D01*
X11046299Y-16144869D01*
X11160585Y-16011536D02*
X11179632Y-16011536D01*
X11198680Y-16021060D01*
X11208204Y-16030584D01*
X11217728Y-16049631D01*
X11227251Y-16087727D01*
X11227251Y-16135346D01*
X11217728Y-16173441D01*
X11208204Y-16192488D01*
X11198680Y-16202012D01*
X11179632Y-16211536D01*
X11160585Y-16211536D01*
X11141537Y-16202012D01*
X11132013Y-16192488D01*
X11122490Y-16173441D01*
X11112966Y-16135346D01*
X11112966Y-16087727D01*
X11122490Y-16049631D01*
X11132013Y-16030584D01*
X11141537Y-16021060D01*
X11160585Y-16011536D01*
X11351061Y-16011536D02*
X11370108Y-16011536D01*
X11389156Y-16021060D01*
X11398680Y-16030584D01*
X11408204Y-16049631D01*
X11417728Y-16087727D01*
X11417728Y-16135346D01*
X11408204Y-16173441D01*
X11398680Y-16192488D01*
X11389156Y-16202012D01*
X11370108Y-16211536D01*
X11351061Y-16211536D01*
X11332013Y-16202012D01*
X11322489Y-16192488D01*
X11312966Y-16173441D01*
X11303442Y-16135346D01*
X11303442Y-16087727D01*
X11312966Y-16049631D01*
X11322489Y-16030584D01*
X11332013Y-16021060D01*
X11351061Y-16011536D01*
X11503442Y-16211536D02*
X11503442Y-16078203D01*
X11503442Y-16097250D02*
X11512966Y-16087727D01*
X11532013Y-16078203D01*
X11560585Y-16078203D01*
X11579632Y-16087727D01*
X11589156Y-16106774D01*
X11589156Y-16211536D01*
X11589156Y-16106774D02*
X11598680Y-16087727D01*
X11617728Y-16078203D01*
X11646299Y-16078203D01*
X11665347Y-16087727D01*
X11674870Y-16106774D01*
X11674870Y-16211536D01*
X11770108Y-16211536D02*
X11770108Y-16078203D01*
X11770108Y-16097250D02*
X11779632Y-16087727D01*
X11798680Y-16078203D01*
X11827251Y-16078203D01*
X11846299Y-16087727D01*
X11855823Y-16106774D01*
X11855823Y-16211536D01*
X11855823Y-16106774D02*
X11865347Y-16087727D01*
X11884394Y-16078203D01*
X11912966Y-16078203D01*
X11932013Y-16087727D01*
X11941537Y-16106774D01*
X11941537Y-16211536D01*
X12332013Y-16002012D02*
X12160585Y-16259155D01*
X12589156Y-16011536D02*
X12608204Y-16011536D01*
X12627251Y-16021060D01*
X12636775Y-16030584D01*
X12646299Y-16049631D01*
X12655823Y-16087727D01*
X12655823Y-16135346D01*
X12646299Y-16173441D01*
X12636775Y-16192488D01*
X12627251Y-16202012D01*
X12608204Y-16211536D01*
X12589156Y-16211536D01*
X12570108Y-16202012D01*
X12560585Y-16192488D01*
X12551061Y-16173441D01*
X12541537Y-16135346D01*
X12541537Y-16087727D01*
X12551061Y-16049631D01*
X12560585Y-16030584D01*
X12570108Y-16021060D01*
X12589156Y-16011536D01*
X12741537Y-16192488D02*
X12751061Y-16202012D01*
X12741537Y-16211536D01*
X12732013Y-16202012D01*
X12741537Y-16192488D01*
X12741537Y-16211536D01*
X12874870Y-16011536D02*
X12893918Y-16011536D01*
X12912966Y-16021060D01*
X12922489Y-16030584D01*
X12932013Y-16049631D01*
X12941537Y-16087727D01*
X12941537Y-16135346D01*
X12932013Y-16173441D01*
X12922489Y-16192488D01*
X12912966Y-16202012D01*
X12893918Y-16211536D01*
X12874870Y-16211536D01*
X12855823Y-16202012D01*
X12846299Y-16192488D01*
X12836775Y-16173441D01*
X12827251Y-16135346D01*
X12827251Y-16087727D01*
X12836775Y-16049631D01*
X12846299Y-16030584D01*
X12855823Y-16021060D01*
X12874870Y-16011536D01*
X13132013Y-16211536D02*
X13017728Y-16211536D01*
X13074870Y-16211536D02*
X13074870Y-16011536D01*
X13055823Y-16040108D01*
X13036775Y-16059155D01*
X13017728Y-16068679D01*
X13312966Y-16011536D02*
X13217728Y-16011536D01*
X13208204Y-16106774D01*
X13217728Y-16097250D01*
X13236775Y-16087727D01*
X13284394Y-16087727D01*
X13303442Y-16097250D01*
X13312966Y-16106774D01*
X13322489Y-16125822D01*
X13322489Y-16173441D01*
X13312966Y-16192488D01*
X13303442Y-16202012D01*
X13284394Y-16211536D01*
X13236775Y-16211536D01*
X13217728Y-16202012D01*
X13208204Y-16192488D01*
X13389156Y-16011536D02*
X13522489Y-16011536D01*
X13436775Y-16211536D01*
X13589156Y-16011536D02*
X13589156Y-16049631D01*
X13665347Y-16011536D02*
X13665347Y-16049631D01*
X13960585Y-16287727D02*
X13951061Y-16278203D01*
X13932013Y-16249631D01*
X13922489Y-16230584D01*
X13912966Y-16202012D01*
X13903442Y-16154393D01*
X13903442Y-16116298D01*
X13912966Y-16068679D01*
X13922489Y-16040108D01*
X13932013Y-16021060D01*
X13951061Y-15992488D01*
X13960585Y-15982965D01*
X14141537Y-16211536D02*
X14027251Y-16211536D01*
X14084394Y-16211536D02*
X14084394Y-16011536D01*
X14065347Y-16040108D01*
X14046299Y-16059155D01*
X14027251Y-16068679D01*
X14255823Y-16097250D02*
X14236775Y-16087727D01*
X14227251Y-16078203D01*
X14217728Y-16059155D01*
X14217728Y-16049631D01*
X14227251Y-16030584D01*
X14236775Y-16021060D01*
X14255823Y-16011536D01*
X14293918Y-16011536D01*
X14312966Y-16021060D01*
X14322489Y-16030584D01*
X14332013Y-16049631D01*
X14332013Y-16059155D01*
X14322489Y-16078203D01*
X14312966Y-16087727D01*
X14293918Y-16097250D01*
X14255823Y-16097250D01*
X14236775Y-16106774D01*
X14227251Y-16116298D01*
X14217728Y-16135346D01*
X14217728Y-16173441D01*
X14227251Y-16192488D01*
X14236775Y-16202012D01*
X14255823Y-16211536D01*
X14293918Y-16211536D01*
X14312966Y-16202012D01*
X14322489Y-16192488D01*
X14332013Y-16173441D01*
X14332013Y-16135346D01*
X14322489Y-16116298D01*
X14312966Y-16106774D01*
X14293918Y-16097250D01*
X14446299Y-16097250D02*
X14427251Y-16087727D01*
X14417728Y-16078203D01*
X14408204Y-16059155D01*
X14408204Y-16049631D01*
X14417728Y-16030584D01*
X14427251Y-16021060D01*
X14446299Y-16011536D01*
X14484394Y-16011536D01*
X14503442Y-16021060D01*
X14512966Y-16030584D01*
X14522489Y-16049631D01*
X14522489Y-16059155D01*
X14512966Y-16078203D01*
X14503442Y-16087727D01*
X14484394Y-16097250D01*
X14446299Y-16097250D01*
X14427251Y-16106774D01*
X14417728Y-16116298D01*
X14408204Y-16135346D01*
X14408204Y-16173441D01*
X14417728Y-16192488D01*
X14427251Y-16202012D01*
X14446299Y-16211536D01*
X14484394Y-16211536D01*
X14503442Y-16202012D01*
X14512966Y-16192488D01*
X14522489Y-16173441D01*
X14522489Y-16135346D01*
X14512966Y-16116298D01*
X14503442Y-16106774D01*
X14484394Y-16097250D01*
X14760585Y-16211536D02*
X14760585Y-16011536D01*
X14846299Y-16211536D02*
X14846299Y-16106774D01*
X14836775Y-16087727D01*
X14817728Y-16078203D01*
X14789156Y-16078203D01*
X14770108Y-16087727D01*
X14760585Y-16097250D01*
X14970108Y-16211536D02*
X14951061Y-16202012D01*
X14941537Y-16192488D01*
X14932013Y-16173441D01*
X14932013Y-16116298D01*
X14941537Y-16097250D01*
X14951061Y-16087727D01*
X14970108Y-16078203D01*
X14998680Y-16078203D01*
X15017728Y-16087727D01*
X15027251Y-16097250D01*
X15036775Y-16116298D01*
X15036775Y-16173441D01*
X15027251Y-16192488D01*
X15017728Y-16202012D01*
X14998680Y-16211536D01*
X14970108Y-16211536D01*
X15151061Y-16211536D02*
X15132013Y-16202012D01*
X15122489Y-16182965D01*
X15122489Y-16011536D01*
X15303442Y-16202012D02*
X15284394Y-16211536D01*
X15246299Y-16211536D01*
X15227251Y-16202012D01*
X15217728Y-16182965D01*
X15217728Y-16106774D01*
X15227251Y-16087727D01*
X15246299Y-16078203D01*
X15284394Y-16078203D01*
X15303442Y-16087727D01*
X15312966Y-16106774D01*
X15312966Y-16125822D01*
X15217728Y-16144869D01*
X15389156Y-16202012D02*
X15408204Y-16211536D01*
X15446299Y-16211536D01*
X15465347Y-16202012D01*
X15474870Y-16182965D01*
X15474870Y-16173441D01*
X15465347Y-16154393D01*
X15446299Y-16144869D01*
X15417728Y-16144869D01*
X15398680Y-16135346D01*
X15389156Y-16116298D01*
X15389156Y-16106774D01*
X15398680Y-16087727D01*
X15417728Y-16078203D01*
X15446299Y-16078203D01*
X15465347Y-16087727D01*
X15541537Y-16287727D02*
X15551061Y-16278203D01*
X15570108Y-16249631D01*
X15579632Y-16230584D01*
X15589156Y-16202012D01*
X15598680Y-16154393D01*
X15598680Y-16116298D01*
X15589156Y-16068679D01*
X15579632Y-16040108D01*
X15570108Y-16021060D01*
X15551061Y-15992488D01*
X15541537Y-15982965D01*
D14*
X10358680Y-16355060D02*
X10358680Y-16415060D01*
X10328680Y-16385060D02*
X10388680Y-16385060D01*
D11*
X10684394Y-16275536D02*
X10703442Y-16275536D01*
X10722490Y-16285060D01*
X10732013Y-16294584D01*
X10741537Y-16313631D01*
X10751061Y-16351727D01*
X10751061Y-16399346D01*
X10741537Y-16437441D01*
X10732013Y-16456488D01*
X10722490Y-16466012D01*
X10703442Y-16475536D01*
X10684394Y-16475536D01*
X10665347Y-16466012D01*
X10655823Y-16456488D01*
X10646299Y-16437441D01*
X10636775Y-16399346D01*
X10636775Y-16351727D01*
X10646299Y-16313631D01*
X10655823Y-16294584D01*
X10665347Y-16285060D01*
X10684394Y-16275536D01*
X10836775Y-16456488D02*
X10846299Y-16466012D01*
X10836775Y-16475536D01*
X10827251Y-16466012D01*
X10836775Y-16456488D01*
X10836775Y-16475536D01*
X11017728Y-16275536D02*
X10979632Y-16275536D01*
X10960585Y-16285060D01*
X10951061Y-16294584D01*
X10932013Y-16323155D01*
X10922490Y-16361250D01*
X10922490Y-16437441D01*
X10932013Y-16456488D01*
X10941537Y-16466012D01*
X10960585Y-16475536D01*
X10998680Y-16475536D01*
X11017728Y-16466012D01*
X11027251Y-16456488D01*
X11036775Y-16437441D01*
X11036775Y-16389822D01*
X11027251Y-16370774D01*
X11017728Y-16361250D01*
X10998680Y-16351727D01*
X10960585Y-16351727D01*
X10941537Y-16361250D01*
X10932013Y-16370774D01*
X10922490Y-16389822D01*
X11160585Y-16275536D02*
X11179632Y-16275536D01*
X11198680Y-16285060D01*
X11208204Y-16294584D01*
X11217728Y-16313631D01*
X11227251Y-16351727D01*
X11227251Y-16399346D01*
X11217728Y-16437441D01*
X11208204Y-16456488D01*
X11198680Y-16466012D01*
X11179632Y-16475536D01*
X11160585Y-16475536D01*
X11141537Y-16466012D01*
X11132013Y-16456488D01*
X11122490Y-16437441D01*
X11112966Y-16399346D01*
X11112966Y-16351727D01*
X11122490Y-16313631D01*
X11132013Y-16294584D01*
X11141537Y-16285060D01*
X11160585Y-16275536D01*
X11351061Y-16275536D02*
X11370108Y-16275536D01*
X11389156Y-16285060D01*
X11398680Y-16294584D01*
X11408204Y-16313631D01*
X11417728Y-16351727D01*
X11417728Y-16399346D01*
X11408204Y-16437441D01*
X11398680Y-16456488D01*
X11389156Y-16466012D01*
X11370108Y-16475536D01*
X11351061Y-16475536D01*
X11332013Y-16466012D01*
X11322489Y-16456488D01*
X11312966Y-16437441D01*
X11303442Y-16399346D01*
X11303442Y-16351727D01*
X11312966Y-16313631D01*
X11322489Y-16294584D01*
X11332013Y-16285060D01*
X11351061Y-16275536D01*
X11503442Y-16475536D02*
X11503442Y-16342203D01*
X11503442Y-16361250D02*
X11512966Y-16351727D01*
X11532013Y-16342203D01*
X11560585Y-16342203D01*
X11579632Y-16351727D01*
X11589156Y-16370774D01*
X11589156Y-16475536D01*
X11589156Y-16370774D02*
X11598680Y-16351727D01*
X11617728Y-16342203D01*
X11646299Y-16342203D01*
X11665347Y-16351727D01*
X11674870Y-16370774D01*
X11674870Y-16475536D01*
X11770108Y-16475536D02*
X11770108Y-16342203D01*
X11770108Y-16361250D02*
X11779632Y-16351727D01*
X11798680Y-16342203D01*
X11827251Y-16342203D01*
X11846299Y-16351727D01*
X11855823Y-16370774D01*
X11855823Y-16475536D01*
X11855823Y-16370774D02*
X11865347Y-16351727D01*
X11884394Y-16342203D01*
X11912966Y-16342203D01*
X11932013Y-16351727D01*
X11941537Y-16370774D01*
X11941537Y-16475536D01*
X12332013Y-16266012D02*
X12160585Y-16523155D01*
X12589156Y-16275536D02*
X12608204Y-16275536D01*
X12627251Y-16285060D01*
X12636775Y-16294584D01*
X12646299Y-16313631D01*
X12655823Y-16351727D01*
X12655823Y-16399346D01*
X12646299Y-16437441D01*
X12636775Y-16456488D01*
X12627251Y-16466012D01*
X12608204Y-16475536D01*
X12589156Y-16475536D01*
X12570108Y-16466012D01*
X12560585Y-16456488D01*
X12551061Y-16437441D01*
X12541537Y-16399346D01*
X12541537Y-16351727D01*
X12551061Y-16313631D01*
X12560585Y-16294584D01*
X12570108Y-16285060D01*
X12589156Y-16275536D01*
X12741537Y-16456488D02*
X12751061Y-16466012D01*
X12741537Y-16475536D01*
X12732013Y-16466012D01*
X12741537Y-16456488D01*
X12741537Y-16475536D01*
X12874870Y-16275536D02*
X12893918Y-16275536D01*
X12912966Y-16285060D01*
X12922489Y-16294584D01*
X12932013Y-16313631D01*
X12941537Y-16351727D01*
X12941537Y-16399346D01*
X12932013Y-16437441D01*
X12922489Y-16456488D01*
X12912966Y-16466012D01*
X12893918Y-16475536D01*
X12874870Y-16475536D01*
X12855823Y-16466012D01*
X12846299Y-16456488D01*
X12836775Y-16437441D01*
X12827251Y-16399346D01*
X12827251Y-16351727D01*
X12836775Y-16313631D01*
X12846299Y-16294584D01*
X12855823Y-16285060D01*
X12874870Y-16275536D01*
X13017728Y-16294584D02*
X13027251Y-16285060D01*
X13046299Y-16275536D01*
X13093918Y-16275536D01*
X13112966Y-16285060D01*
X13122489Y-16294584D01*
X13132013Y-16313631D01*
X13132013Y-16332679D01*
X13122489Y-16361250D01*
X13008204Y-16475536D01*
X13132013Y-16475536D01*
X13198680Y-16275536D02*
X13322489Y-16275536D01*
X13255823Y-16351727D01*
X13284394Y-16351727D01*
X13303442Y-16361250D01*
X13312966Y-16370774D01*
X13322489Y-16389822D01*
X13322489Y-16437441D01*
X13312966Y-16456488D01*
X13303442Y-16466012D01*
X13284394Y-16475536D01*
X13227251Y-16475536D01*
X13208204Y-16466012D01*
X13198680Y-16456488D01*
X13493918Y-16275536D02*
X13455823Y-16275536D01*
X13436775Y-16285060D01*
X13427251Y-16294584D01*
X13408204Y-16323155D01*
X13398680Y-16361250D01*
X13398680Y-16437441D01*
X13408204Y-16456488D01*
X13417728Y-16466012D01*
X13436775Y-16475536D01*
X13474870Y-16475536D01*
X13493918Y-16466012D01*
X13503442Y-16456488D01*
X13512966Y-16437441D01*
X13512966Y-16389822D01*
X13503442Y-16370774D01*
X13493918Y-16361250D01*
X13474870Y-16351727D01*
X13436775Y-16351727D01*
X13417728Y-16361250D01*
X13408204Y-16370774D01*
X13398680Y-16389822D01*
X13589156Y-16275536D02*
X13589156Y-16313631D01*
X13665347Y-16275536D02*
X13665347Y-16313631D01*
X13960585Y-16551727D02*
X13951061Y-16542203D01*
X13932013Y-16513631D01*
X13922489Y-16494584D01*
X13912966Y-16466012D01*
X13903442Y-16418393D01*
X13903442Y-16380298D01*
X13912966Y-16332679D01*
X13922489Y-16304108D01*
X13932013Y-16285060D01*
X13951061Y-16256488D01*
X13960585Y-16246965D01*
X14074870Y-16275536D02*
X14093918Y-16275536D01*
X14112966Y-16285060D01*
X14122489Y-16294584D01*
X14132013Y-16313631D01*
X14141537Y-16351727D01*
X14141537Y-16399346D01*
X14132013Y-16437441D01*
X14122489Y-16456488D01*
X14112966Y-16466012D01*
X14093918Y-16475536D01*
X14074870Y-16475536D01*
X14055823Y-16466012D01*
X14046299Y-16456488D01*
X14036775Y-16437441D01*
X14027251Y-16399346D01*
X14027251Y-16351727D01*
X14036775Y-16313631D01*
X14046299Y-16294584D01*
X14055823Y-16285060D01*
X14074870Y-16275536D01*
X14379632Y-16475536D02*
X14379632Y-16275536D01*
X14465347Y-16475536D02*
X14465347Y-16370774D01*
X14455823Y-16351727D01*
X14436775Y-16342203D01*
X14408204Y-16342203D01*
X14389156Y-16351727D01*
X14379632Y-16361250D01*
X14589156Y-16475536D02*
X14570108Y-16466012D01*
X14560585Y-16456488D01*
X14551061Y-16437441D01*
X14551061Y-16380298D01*
X14560585Y-16361250D01*
X14570108Y-16351727D01*
X14589156Y-16342203D01*
X14617728Y-16342203D01*
X14636775Y-16351727D01*
X14646299Y-16361250D01*
X14655823Y-16380298D01*
X14655823Y-16437441D01*
X14646299Y-16456488D01*
X14636775Y-16466012D01*
X14617728Y-16475536D01*
X14589156Y-16475536D01*
X14770108Y-16475536D02*
X14751061Y-16466012D01*
X14741537Y-16446965D01*
X14741537Y-16275536D01*
X14922489Y-16466012D02*
X14903442Y-16475536D01*
X14865347Y-16475536D01*
X14846299Y-16466012D01*
X14836775Y-16446965D01*
X14836775Y-16370774D01*
X14846299Y-16351727D01*
X14865347Y-16342203D01*
X14903442Y-16342203D01*
X14922489Y-16351727D01*
X14932013Y-16370774D01*
X14932013Y-16389822D01*
X14836775Y-16408869D01*
X15008204Y-16466012D02*
X15027251Y-16475536D01*
X15065347Y-16475536D01*
X15084394Y-16466012D01*
X15093918Y-16446965D01*
X15093918Y-16437441D01*
X15084394Y-16418393D01*
X15065347Y-16408869D01*
X15036775Y-16408869D01*
X15017728Y-16399346D01*
X15008204Y-16380298D01*
X15008204Y-16370774D01*
X15017728Y-16351727D01*
X15036775Y-16342203D01*
X15065347Y-16342203D01*
X15084394Y-16351727D01*
X15332013Y-16399346D02*
X15484394Y-16399346D01*
X15408204Y-16475536D02*
X15408204Y-16323155D01*
X15760585Y-16361250D02*
X15741537Y-16351727D01*
X15732013Y-16342203D01*
X15722489Y-16323155D01*
X15722489Y-16313631D01*
X15732013Y-16294584D01*
X15741537Y-16285060D01*
X15760585Y-16275536D01*
X15798680Y-16275536D01*
X15817728Y-16285060D01*
X15827251Y-16294584D01*
X15836775Y-16313631D01*
X15836775Y-16323155D01*
X15827251Y-16342203D01*
X15817728Y-16351727D01*
X15798680Y-16361250D01*
X15760585Y-16361250D01*
X15741537Y-16370774D01*
X15732013Y-16380298D01*
X15722489Y-16399346D01*
X15722489Y-16437441D01*
X15732013Y-16456488D01*
X15741537Y-16466012D01*
X15760585Y-16475536D01*
X15798680Y-16475536D01*
X15817728Y-16466012D01*
X15827251Y-16456488D01*
X15836775Y-16437441D01*
X15836775Y-16399346D01*
X15827251Y-16380298D01*
X15817728Y-16370774D01*
X15798680Y-16361250D01*
X16065347Y-16466012D02*
X16084394Y-16475536D01*
X16122489Y-16475536D01*
X16141537Y-16466012D01*
X16151061Y-16446965D01*
X16151061Y-16437441D01*
X16141537Y-16418393D01*
X16122489Y-16408869D01*
X16093918Y-16408869D01*
X16074870Y-16399346D01*
X16065347Y-16380298D01*
X16065347Y-16370774D01*
X16074870Y-16351727D01*
X16093918Y-16342203D01*
X16122489Y-16342203D01*
X16141537Y-16351727D01*
X16265347Y-16475536D02*
X16246299Y-16466012D01*
X16236775Y-16446965D01*
X16236775Y-16275536D01*
X16370108Y-16475536D02*
X16351061Y-16466012D01*
X16341537Y-16456488D01*
X16332013Y-16437441D01*
X16332013Y-16380298D01*
X16341537Y-16361250D01*
X16351061Y-16351727D01*
X16370108Y-16342203D01*
X16398680Y-16342203D01*
X16417728Y-16351727D01*
X16427251Y-16361250D01*
X16436775Y-16380298D01*
X16436775Y-16437441D01*
X16427251Y-16456488D01*
X16417728Y-16466012D01*
X16398680Y-16475536D01*
X16370108Y-16475536D01*
X16493918Y-16342203D02*
X16570108Y-16342203D01*
X16522489Y-16275536D02*
X16522489Y-16446965D01*
X16532013Y-16466012D01*
X16551061Y-16475536D01*
X16570108Y-16475536D01*
X16627251Y-16466012D02*
X16646299Y-16475536D01*
X16684394Y-16475536D01*
X16703442Y-16466012D01*
X16712966Y-16446965D01*
X16712966Y-16437441D01*
X16703442Y-16418393D01*
X16684394Y-16408869D01*
X16655823Y-16408869D01*
X16636775Y-16399346D01*
X16627251Y-16380298D01*
X16627251Y-16370774D01*
X16636775Y-16351727D01*
X16655823Y-16342203D01*
X16684394Y-16342203D01*
X16703442Y-16351727D01*
X16779632Y-16551727D02*
X16789156Y-16542203D01*
X16808204Y-16513631D01*
X16817728Y-16494584D01*
X16827251Y-16466012D01*
X16836775Y-16418393D01*
X16836775Y-16380298D01*
X16827251Y-16332679D01*
X16817728Y-16304108D01*
X16808204Y-16285060D01*
X16789156Y-16256488D01*
X16779632Y-16246965D01*
D10*
X10374036Y-16684416D02*
X10374036Y-16613704D01*
X10303324Y-16613704D01*
X10303324Y-16684416D01*
X10374036Y-16684416D01*
D11*
X10751061Y-16739536D02*
X10636775Y-16739536D01*
X10693918Y-16739536D02*
X10693918Y-16539536D01*
X10674870Y-16568108D01*
X10655823Y-16587155D01*
X10636775Y-16596679D01*
X10836775Y-16720488D02*
X10846299Y-16730012D01*
X10836775Y-16739536D01*
X10827251Y-16730012D01*
X10836775Y-16720488D01*
X10836775Y-16739536D01*
X10970109Y-16539536D02*
X10989156Y-16539536D01*
X11008204Y-16549060D01*
X11017728Y-16558584D01*
X11027251Y-16577631D01*
X11036775Y-16615727D01*
X11036775Y-16663346D01*
X11027251Y-16701441D01*
X11017728Y-16720488D01*
X11008204Y-16730012D01*
X10989156Y-16739536D01*
X10970109Y-16739536D01*
X10951061Y-16730012D01*
X10941537Y-16720488D01*
X10932013Y-16701441D01*
X10922490Y-16663346D01*
X10922490Y-16615727D01*
X10932013Y-16577631D01*
X10941537Y-16558584D01*
X10951061Y-16549060D01*
X10970109Y-16539536D01*
X11160585Y-16539536D02*
X11179632Y-16539536D01*
X11198680Y-16549060D01*
X11208204Y-16558584D01*
X11217728Y-16577631D01*
X11227251Y-16615727D01*
X11227251Y-16663346D01*
X11217728Y-16701441D01*
X11208204Y-16720488D01*
X11198680Y-16730012D01*
X11179632Y-16739536D01*
X11160585Y-16739536D01*
X11141537Y-16730012D01*
X11132013Y-16720488D01*
X11122490Y-16701441D01*
X11112966Y-16663346D01*
X11112966Y-16615727D01*
X11122490Y-16577631D01*
X11132013Y-16558584D01*
X11141537Y-16549060D01*
X11160585Y-16539536D01*
X11351061Y-16539536D02*
X11370108Y-16539536D01*
X11389156Y-16549060D01*
X11398680Y-16558584D01*
X11408204Y-16577631D01*
X11417728Y-16615727D01*
X11417728Y-16663346D01*
X11408204Y-16701441D01*
X11398680Y-16720488D01*
X11389156Y-16730012D01*
X11370108Y-16739536D01*
X11351061Y-16739536D01*
X11332013Y-16730012D01*
X11322489Y-16720488D01*
X11312966Y-16701441D01*
X11303442Y-16663346D01*
X11303442Y-16615727D01*
X11312966Y-16577631D01*
X11322489Y-16558584D01*
X11332013Y-16549060D01*
X11351061Y-16539536D01*
X11503442Y-16739536D02*
X11503442Y-16606203D01*
X11503442Y-16625250D02*
X11512966Y-16615727D01*
X11532013Y-16606203D01*
X11560585Y-16606203D01*
X11579632Y-16615727D01*
X11589156Y-16634774D01*
X11589156Y-16739536D01*
X11589156Y-16634774D02*
X11598680Y-16615727D01*
X11617728Y-16606203D01*
X11646299Y-16606203D01*
X11665347Y-16615727D01*
X11674870Y-16634774D01*
X11674870Y-16739536D01*
X11770108Y-16739536D02*
X11770108Y-16606203D01*
X11770108Y-16625250D02*
X11779632Y-16615727D01*
X11798680Y-16606203D01*
X11827251Y-16606203D01*
X11846299Y-16615727D01*
X11855823Y-16634774D01*
X11855823Y-16739536D01*
X11855823Y-16634774D02*
X11865347Y-16615727D01*
X11884394Y-16606203D01*
X11912966Y-16606203D01*
X11932013Y-16615727D01*
X11941537Y-16634774D01*
X11941537Y-16739536D01*
X12332013Y-16530012D02*
X12160585Y-16787155D01*
X12589156Y-16539536D02*
X12608204Y-16539536D01*
X12627251Y-16549060D01*
X12636775Y-16558584D01*
X12646299Y-16577631D01*
X12655823Y-16615727D01*
X12655823Y-16663346D01*
X12646299Y-16701441D01*
X12636775Y-16720488D01*
X12627251Y-16730012D01*
X12608204Y-16739536D01*
X12589156Y-16739536D01*
X12570108Y-16730012D01*
X12560585Y-16720488D01*
X12551061Y-16701441D01*
X12541537Y-16663346D01*
X12541537Y-16615727D01*
X12551061Y-16577631D01*
X12560585Y-16558584D01*
X12570108Y-16549060D01*
X12589156Y-16539536D01*
X12741537Y-16720488D02*
X12751061Y-16730012D01*
X12741537Y-16739536D01*
X12732013Y-16730012D01*
X12741537Y-16720488D01*
X12741537Y-16739536D01*
X12874870Y-16539536D02*
X12893918Y-16539536D01*
X12912966Y-16549060D01*
X12922489Y-16558584D01*
X12932013Y-16577631D01*
X12941537Y-16615727D01*
X12941537Y-16663346D01*
X12932013Y-16701441D01*
X12922489Y-16720488D01*
X12912966Y-16730012D01*
X12893918Y-16739536D01*
X12874870Y-16739536D01*
X12855823Y-16730012D01*
X12846299Y-16720488D01*
X12836775Y-16701441D01*
X12827251Y-16663346D01*
X12827251Y-16615727D01*
X12836775Y-16577631D01*
X12846299Y-16558584D01*
X12855823Y-16549060D01*
X12874870Y-16539536D01*
X13008204Y-16539536D02*
X13132013Y-16539536D01*
X13065347Y-16615727D01*
X13093918Y-16615727D01*
X13112966Y-16625250D01*
X13122489Y-16634774D01*
X13132013Y-16653822D01*
X13132013Y-16701441D01*
X13122489Y-16720488D01*
X13112966Y-16730012D01*
X13093918Y-16739536D01*
X13036775Y-16739536D01*
X13017728Y-16730012D01*
X13008204Y-16720488D01*
X13227251Y-16739536D02*
X13265347Y-16739536D01*
X13284394Y-16730012D01*
X13293918Y-16720488D01*
X13312966Y-16691917D01*
X13322489Y-16653822D01*
X13322489Y-16577631D01*
X13312966Y-16558584D01*
X13303442Y-16549060D01*
X13284394Y-16539536D01*
X13246299Y-16539536D01*
X13227251Y-16549060D01*
X13217728Y-16558584D01*
X13208204Y-16577631D01*
X13208204Y-16625250D01*
X13217728Y-16644298D01*
X13227251Y-16653822D01*
X13246299Y-16663346D01*
X13284394Y-16663346D01*
X13303442Y-16653822D01*
X13312966Y-16644298D01*
X13322489Y-16625250D01*
X13493918Y-16606203D02*
X13493918Y-16739536D01*
X13446299Y-16530012D02*
X13398680Y-16672869D01*
X13522489Y-16672869D01*
X13589156Y-16539536D02*
X13589156Y-16577631D01*
X13665347Y-16539536D02*
X13665347Y-16577631D01*
X13960585Y-16815727D02*
X13951061Y-16806203D01*
X13932013Y-16777631D01*
X13922489Y-16758584D01*
X13912966Y-16730012D01*
X13903442Y-16682393D01*
X13903442Y-16644298D01*
X13912966Y-16596679D01*
X13922489Y-16568108D01*
X13932013Y-16549060D01*
X13951061Y-16520488D01*
X13960585Y-16510965D01*
X14027251Y-16558584D02*
X14036775Y-16549060D01*
X14055823Y-16539536D01*
X14103442Y-16539536D01*
X14122489Y-16549060D01*
X14132013Y-16558584D01*
X14141537Y-16577631D01*
X14141537Y-16596679D01*
X14132013Y-16625250D01*
X14017728Y-16739536D01*
X14141537Y-16739536D01*
X14332013Y-16739536D02*
X14217728Y-16739536D01*
X14274870Y-16739536D02*
X14274870Y-16539536D01*
X14255823Y-16568108D01*
X14236775Y-16587155D01*
X14217728Y-16596679D01*
X14446299Y-16625250D02*
X14427251Y-16615727D01*
X14417728Y-16606203D01*
X14408204Y-16587155D01*
X14408204Y-16577631D01*
X14417728Y-16558584D01*
X14427251Y-16549060D01*
X14446299Y-16539536D01*
X14484394Y-16539536D01*
X14503442Y-16549060D01*
X14512966Y-16558584D01*
X14522489Y-16577631D01*
X14522489Y-16587155D01*
X14512966Y-16606203D01*
X14503442Y-16615727D01*
X14484394Y-16625250D01*
X14446299Y-16625250D01*
X14427251Y-16634774D01*
X14417728Y-16644298D01*
X14408204Y-16663346D01*
X14408204Y-16701441D01*
X14417728Y-16720488D01*
X14427251Y-16730012D01*
X14446299Y-16739536D01*
X14484394Y-16739536D01*
X14503442Y-16730012D01*
X14512966Y-16720488D01*
X14522489Y-16701441D01*
X14522489Y-16663346D01*
X14512966Y-16644298D01*
X14503442Y-16634774D01*
X14484394Y-16625250D01*
X14760585Y-16739536D02*
X14760585Y-16539536D01*
X14846299Y-16739536D02*
X14846299Y-16634774D01*
X14836775Y-16615727D01*
X14817728Y-16606203D01*
X14789156Y-16606203D01*
X14770108Y-16615727D01*
X14760585Y-16625250D01*
X14970108Y-16739536D02*
X14951061Y-16730012D01*
X14941537Y-16720488D01*
X14932013Y-16701441D01*
X14932013Y-16644298D01*
X14941537Y-16625250D01*
X14951061Y-16615727D01*
X14970108Y-16606203D01*
X14998680Y-16606203D01*
X15017728Y-16615727D01*
X15027251Y-16625250D01*
X15036775Y-16644298D01*
X15036775Y-16701441D01*
X15027251Y-16720488D01*
X15017728Y-16730012D01*
X14998680Y-16739536D01*
X14970108Y-16739536D01*
X15151061Y-16739536D02*
X15132013Y-16730012D01*
X15122489Y-16710965D01*
X15122489Y-16539536D01*
X15303442Y-16730012D02*
X15284394Y-16739536D01*
X15246299Y-16739536D01*
X15227251Y-16730012D01*
X15217728Y-16710965D01*
X15217728Y-16634774D01*
X15227251Y-16615727D01*
X15246299Y-16606203D01*
X15284394Y-16606203D01*
X15303442Y-16615727D01*
X15312966Y-16634774D01*
X15312966Y-16653822D01*
X15217728Y-16672869D01*
X15389156Y-16730012D02*
X15408204Y-16739536D01*
X15446299Y-16739536D01*
X15465347Y-16730012D01*
X15474870Y-16710965D01*
X15474870Y-16701441D01*
X15465347Y-16682393D01*
X15446299Y-16672869D01*
X15417728Y-16672869D01*
X15398680Y-16663346D01*
X15389156Y-16644298D01*
X15389156Y-16634774D01*
X15398680Y-16615727D01*
X15417728Y-16606203D01*
X15446299Y-16606203D01*
X15465347Y-16615727D01*
X15541537Y-16815727D02*
X15551061Y-16806203D01*
X15570108Y-16777631D01*
X15579632Y-16758584D01*
X15589156Y-16730012D01*
X15598680Y-16682393D01*
X15598680Y-16644298D01*
X15589156Y-16596679D01*
X15579632Y-16568108D01*
X15570108Y-16549060D01*
X15551061Y-16520488D01*
X15541537Y-16510965D01*
M02*
