G04 #@! TF.GenerationSoftware,KiCad,Pcbnew,(6.0.7)*
G04 #@! TF.CreationDate,2023-08-05T00:10:51+07:00*
G04 #@! TF.ProjectId,ECELab_v1,4543454c-6162-45f7-9631-2e6b69636164,rev?*
G04 #@! TF.SameCoordinates,Original*
G04 #@! TF.FileFunction,Legend,Bot*
G04 #@! TF.FilePolarity,Positive*
%FSLAX46Y46*%
G04 Gerber Fmt 4.6, Leading zero omitted, Abs format (unit mm)*
G04 Created by KiCad (PCBNEW (6.0.7)) date 2023-08-05 00:10:51*
%MOMM*%
%LPD*%
G01*
G04 APERTURE LIST*
%ADD10C,0.200000*%
%ADD11C,0.150000*%
%ADD12C,0.130000*%
%ADD13C,0.250000*%
%ADD14C,3.500000*%
%ADD15R,1.700000X1.700000*%
%ADD16O,1.700000X1.700000*%
%ADD17C,0.650000*%
%ADD18O,1.600000X1.000000*%
%ADD19O,2.100000X1.000000*%
G04 APERTURE END LIST*
D10*
X128682961Y-126676214D02*
X128269628Y-126676214D01*
X128092485Y-127330976D02*
X128682961Y-127330976D01*
X128682961Y-126080976D01*
X128092485Y-126080976D01*
X126852485Y-127211928D02*
X126911533Y-127271452D01*
X127088676Y-127330976D01*
X127206771Y-127330976D01*
X127383914Y-127271452D01*
X127502009Y-127152404D01*
X127561057Y-127033357D01*
X127620104Y-126795261D01*
X127620104Y-126616690D01*
X127561057Y-126378595D01*
X127502009Y-126259547D01*
X127383914Y-126140500D01*
X127206771Y-126080976D01*
X127088676Y-126080976D01*
X126911533Y-126140500D01*
X126852485Y-126200023D01*
X126321057Y-126676214D02*
X125907723Y-126676214D01*
X125730580Y-127330976D02*
X126321057Y-127330976D01*
X126321057Y-126080976D01*
X125730580Y-126080976D01*
X124608676Y-127330976D02*
X125199152Y-127330976D01*
X125199152Y-126080976D01*
X123663914Y-127330976D02*
X123663914Y-126676214D01*
X123722961Y-126557166D01*
X123841057Y-126497642D01*
X124077247Y-126497642D01*
X124195342Y-126557166D01*
X123663914Y-127271452D02*
X123782009Y-127330976D01*
X124077247Y-127330976D01*
X124195342Y-127271452D01*
X124254390Y-127152404D01*
X124254390Y-127033357D01*
X124195342Y-126914309D01*
X124077247Y-126854785D01*
X123782009Y-126854785D01*
X123663914Y-126795261D01*
X123073438Y-127330976D02*
X123073438Y-126080976D01*
X123073438Y-126557166D02*
X122955342Y-126497642D01*
X122719152Y-126497642D01*
X122601057Y-126557166D01*
X122542009Y-126616690D01*
X122482961Y-126735738D01*
X122482961Y-127092880D01*
X122542009Y-127211928D01*
X122601057Y-127271452D01*
X122719152Y-127330976D01*
X122955342Y-127330976D01*
X123073438Y-127271452D01*
X122010580Y-127271452D02*
X121892485Y-127330976D01*
X121656295Y-127330976D01*
X121538200Y-127271452D01*
X121479152Y-127152404D01*
X121479152Y-127092880D01*
X121538200Y-126973833D01*
X121656295Y-126914309D01*
X121833438Y-126914309D01*
X121951533Y-126854785D01*
X122010580Y-126735738D01*
X122010580Y-126676214D01*
X121951533Y-126557166D01*
X121833438Y-126497642D01*
X121656295Y-126497642D01*
X121538200Y-126557166D01*
X120002961Y-127330976D02*
X120002961Y-126080976D01*
X119530580Y-126080976D01*
X119412485Y-126140500D01*
X119353438Y-126200023D01*
X119294390Y-126319071D01*
X119294390Y-126497642D01*
X119353438Y-126616690D01*
X119412485Y-126676214D01*
X119530580Y-126735738D01*
X120002961Y-126735738D01*
X118054390Y-127211928D02*
X118113438Y-127271452D01*
X118290580Y-127330976D01*
X118408676Y-127330976D01*
X118585819Y-127271452D01*
X118703914Y-127152404D01*
X118762961Y-127033357D01*
X118822009Y-126795261D01*
X118822009Y-126616690D01*
X118762961Y-126378595D01*
X118703914Y-126259547D01*
X118585819Y-126140500D01*
X118408676Y-126080976D01*
X118290580Y-126080976D01*
X118113438Y-126140500D01*
X118054390Y-126200023D01*
X117109628Y-126676214D02*
X116932485Y-126735738D01*
X116873438Y-126795261D01*
X116814390Y-126914309D01*
X116814390Y-127092880D01*
X116873438Y-127211928D01*
X116932485Y-127271452D01*
X117050580Y-127330976D01*
X117522961Y-127330976D01*
X117522961Y-126080976D01*
X117109628Y-126080976D01*
X116991533Y-126140500D01*
X116932485Y-126200023D01*
X116873438Y-126319071D01*
X116873438Y-126438119D01*
X116932485Y-126557166D01*
X116991533Y-126616690D01*
X117109628Y-126676214D01*
X117522961Y-126676214D01*
X115338200Y-127330976D02*
X115338200Y-126080976D01*
X115042961Y-126080976D01*
X114865819Y-126140500D01*
X114747723Y-126259547D01*
X114688676Y-126378595D01*
X114629628Y-126616690D01*
X114629628Y-126795261D01*
X114688676Y-127033357D01*
X114747723Y-127152404D01*
X114865819Y-127271452D01*
X115042961Y-127330976D01*
X115338200Y-127330976D01*
X113625819Y-127271452D02*
X113743914Y-127330976D01*
X113980104Y-127330976D01*
X114098200Y-127271452D01*
X114157247Y-127152404D01*
X114157247Y-126676214D01*
X114098200Y-126557166D01*
X113980104Y-126497642D01*
X113743914Y-126497642D01*
X113625819Y-126557166D01*
X113566771Y-126676214D01*
X113566771Y-126795261D01*
X114157247Y-126914309D01*
X113094390Y-127271452D02*
X112976295Y-127330976D01*
X112740104Y-127330976D01*
X112622009Y-127271452D01*
X112562961Y-127152404D01*
X112562961Y-127092880D01*
X112622009Y-126973833D01*
X112740104Y-126914309D01*
X112917247Y-126914309D01*
X113035342Y-126854785D01*
X113094390Y-126735738D01*
X113094390Y-126676214D01*
X113035342Y-126557166D01*
X112917247Y-126497642D01*
X112740104Y-126497642D01*
X112622009Y-126557166D01*
X112031533Y-127330976D02*
X112031533Y-126497642D01*
X112031533Y-126080976D02*
X112090580Y-126140500D01*
X112031533Y-126200023D01*
X111972485Y-126140500D01*
X112031533Y-126080976D01*
X112031533Y-126200023D01*
X110909628Y-126497642D02*
X110909628Y-127509547D01*
X110968676Y-127628595D01*
X111027723Y-127688119D01*
X111145819Y-127747642D01*
X111322961Y-127747642D01*
X111441057Y-127688119D01*
X110909628Y-127271452D02*
X111027723Y-127330976D01*
X111263914Y-127330976D01*
X111382009Y-127271452D01*
X111441057Y-127211928D01*
X111500104Y-127092880D01*
X111500104Y-126735738D01*
X111441057Y-126616690D01*
X111382009Y-126557166D01*
X111263914Y-126497642D01*
X111027723Y-126497642D01*
X110909628Y-126557166D01*
X110319152Y-126497642D02*
X110319152Y-127330976D01*
X110319152Y-126616690D02*
X110260104Y-126557166D01*
X110142009Y-126497642D01*
X109964866Y-126497642D01*
X109846771Y-126557166D01*
X109787723Y-126676214D01*
X109787723Y-127330976D01*
X108370580Y-126497642D02*
X108075342Y-127330976D01*
X107780104Y-126497642D01*
X106658200Y-127330976D02*
X107366771Y-127330976D01*
X107012485Y-127330976D02*
X107012485Y-126080976D01*
X107130580Y-126259547D01*
X107248676Y-126378595D01*
X107366771Y-126438119D01*
X106126771Y-127211928D02*
X106067723Y-127271452D01*
X106126771Y-127330976D01*
X106185819Y-127271452D01*
X106126771Y-127211928D01*
X106126771Y-127330976D01*
X105595342Y-126200023D02*
X105536295Y-126140500D01*
X105418200Y-126080976D01*
X105122961Y-126080976D01*
X105004866Y-126140500D01*
X104945819Y-126200023D01*
X104886771Y-126319071D01*
X104886771Y-126438119D01*
X104945819Y-126616690D01*
X105654390Y-127330976D01*
X104886771Y-127330976D01*
X128682961Y-129343476D02*
X128682961Y-128093476D01*
X128269628Y-128986333D01*
X127856295Y-128093476D01*
X127856295Y-129343476D01*
X127265819Y-129343476D02*
X127265819Y-128510142D01*
X127265819Y-128093476D02*
X127324866Y-128153000D01*
X127265819Y-128212523D01*
X127206771Y-128153000D01*
X127265819Y-128093476D01*
X127265819Y-128212523D01*
X126675342Y-128510142D02*
X126675342Y-129343476D01*
X126675342Y-128629190D02*
X126616295Y-128569666D01*
X126498200Y-128510142D01*
X126321057Y-128510142D01*
X126202961Y-128569666D01*
X126143914Y-128688714D01*
X126143914Y-129343476D01*
X125553438Y-129343476D02*
X125553438Y-128093476D01*
X125022009Y-129343476D02*
X125022009Y-128688714D01*
X125081057Y-128569666D01*
X125199152Y-128510142D01*
X125376295Y-128510142D01*
X125494390Y-128569666D01*
X125553438Y-128629190D01*
X123486771Y-129343476D02*
X123486771Y-128093476D01*
X122778200Y-129343476D01*
X122778200Y-128093476D01*
X121656295Y-128510142D02*
X121656295Y-129522047D01*
X121715342Y-129641095D01*
X121774390Y-129700619D01*
X121892485Y-129760142D01*
X122069628Y-129760142D01*
X122187723Y-129700619D01*
X121656295Y-129283952D02*
X121774390Y-129343476D01*
X122010580Y-129343476D01*
X122128676Y-129283952D01*
X122187723Y-129224428D01*
X122246771Y-129105380D01*
X122246771Y-128748238D01*
X122187723Y-128629190D01*
X122128676Y-128569666D01*
X122010580Y-128510142D01*
X121774390Y-128510142D01*
X121656295Y-128569666D01*
X120534390Y-128510142D02*
X120534390Y-129343476D01*
X121065819Y-128510142D02*
X121065819Y-129164904D01*
X121006771Y-129283952D01*
X120888676Y-129343476D01*
X120711533Y-129343476D01*
X120593438Y-129283952D01*
X120534390Y-129224428D01*
X120062009Y-128510142D02*
X119766771Y-129343476D01*
X119471533Y-128510142D02*
X119766771Y-129343476D01*
X119884866Y-129641095D01*
X119943914Y-129700619D01*
X120062009Y-129760142D01*
X118526771Y-129283952D02*
X118644866Y-129343476D01*
X118881057Y-129343476D01*
X118999152Y-129283952D01*
X119058200Y-129164904D01*
X119058200Y-128688714D01*
X118999152Y-128569666D01*
X118881057Y-128510142D01*
X118644866Y-128510142D01*
X118526771Y-128569666D01*
X118467723Y-128688714D01*
X118467723Y-128807761D01*
X119058200Y-128926809D01*
X117936295Y-128510142D02*
X117936295Y-129343476D01*
X117936295Y-128629190D02*
X117877247Y-128569666D01*
X117759152Y-128510142D01*
X117582009Y-128510142D01*
X117463914Y-128569666D01*
X117404866Y-128688714D01*
X117404866Y-129343476D01*
X128328676Y-130105976D02*
X128328676Y-130998833D01*
X128387723Y-131177404D01*
X128505819Y-131296452D01*
X128682961Y-131355976D01*
X128801057Y-131355976D01*
X127206771Y-130522642D02*
X127206771Y-131355976D01*
X127738200Y-130522642D02*
X127738200Y-131177404D01*
X127679152Y-131296452D01*
X127561057Y-131355976D01*
X127383914Y-131355976D01*
X127265819Y-131296452D01*
X127206771Y-131236928D01*
X126616295Y-130522642D02*
X126616295Y-131355976D01*
X126616295Y-130641690D02*
X126557247Y-130582166D01*
X126439152Y-130522642D01*
X126262009Y-130522642D01*
X126143914Y-130582166D01*
X126084866Y-130701214D01*
X126084866Y-131355976D01*
X125671533Y-130522642D02*
X125199152Y-130522642D01*
X125494390Y-131355976D02*
X125494390Y-130284547D01*
X125435342Y-130165500D01*
X125317247Y-130105976D01*
X125199152Y-130105976D01*
X124313438Y-131296452D02*
X124431533Y-131355976D01*
X124667723Y-131355976D01*
X124785819Y-131296452D01*
X124844866Y-131177404D01*
X124844866Y-130701214D01*
X124785819Y-130582166D01*
X124667723Y-130522642D01*
X124431533Y-130522642D01*
X124313438Y-130582166D01*
X124254390Y-130701214D01*
X124254390Y-130820261D01*
X124844866Y-130939309D01*
X123722961Y-131355976D02*
X123722961Y-130522642D01*
X123722961Y-130105976D02*
X123782009Y-130165500D01*
X123722961Y-130225023D01*
X123663914Y-130165500D01*
X123722961Y-130105976D01*
X123722961Y-130225023D01*
X121597247Y-131355976D02*
X122187723Y-131355976D01*
X122187723Y-130105976D01*
X121183914Y-131355976D02*
X121183914Y-130522642D01*
X121183914Y-130105976D02*
X121242961Y-130165500D01*
X121183914Y-130225023D01*
X121124866Y-130165500D01*
X121183914Y-130105976D01*
X121183914Y-130225023D01*
D11*
X128790186Y-103014000D02*
X151598386Y-103014000D01*
X151598386Y-103014000D02*
X151598386Y-93934600D01*
X151598386Y-93934600D02*
X128790186Y-93934600D01*
X128790186Y-93934600D02*
X128790186Y-103014000D01*
X144777400Y-92161400D02*
X128572200Y-92161400D01*
X128572200Y-92161400D02*
X128572200Y-83957200D01*
X128572200Y-83957200D02*
X144777400Y-83957200D01*
X144777400Y-83957200D02*
X144777400Y-92161400D01*
X121008200Y-89450800D02*
X105565000Y-89450800D01*
X105565000Y-89450800D02*
X105565000Y-102354000D01*
X105565000Y-102354000D02*
X121008200Y-102354000D01*
X121008200Y-102354000D02*
X121008200Y-89450800D01*
D12*
X228412095Y-130530476D02*
X228412095Y-130073333D01*
X227612095Y-130301904D02*
X228412095Y-130301904D01*
X227612095Y-129387619D02*
X227612095Y-129844761D01*
X227612095Y-129616190D02*
X228412095Y-129616190D01*
X228297809Y-129692380D01*
X228221619Y-129768571D01*
X228183523Y-129844761D01*
X228412095Y-128701904D02*
X228412095Y-128854285D01*
X228374000Y-128930476D01*
X228335904Y-128968571D01*
X228221619Y-129044761D01*
X228069238Y-129082857D01*
X227764476Y-129082857D01*
X227688285Y-129044761D01*
X227650190Y-129006666D01*
X227612095Y-128930476D01*
X227612095Y-128778095D01*
X227650190Y-128701904D01*
X227688285Y-128663809D01*
X227764476Y-128625714D01*
X227954952Y-128625714D01*
X228031142Y-128663809D01*
X228069238Y-128701904D01*
X228107333Y-128778095D01*
X228107333Y-128930476D01*
X228069238Y-129006666D01*
X228031142Y-129044761D01*
X227954952Y-129082857D01*
X227124095Y-130530476D02*
X227124095Y-130073333D01*
X226324095Y-130301904D02*
X227124095Y-130301904D01*
X226324095Y-129387619D02*
X226324095Y-129844761D01*
X226324095Y-129616190D02*
X227124095Y-129616190D01*
X227009809Y-129692380D01*
X226933619Y-129768571D01*
X226895523Y-129844761D01*
X227124095Y-128663809D02*
X227124095Y-129044761D01*
X226743142Y-129082857D01*
X226781238Y-129044761D01*
X226819333Y-128968571D01*
X226819333Y-128778095D01*
X226781238Y-128701904D01*
X226743142Y-128663809D01*
X226666952Y-128625714D01*
X226476476Y-128625714D01*
X226400285Y-128663809D01*
X226362190Y-128701904D01*
X226324095Y-128778095D01*
X226324095Y-128968571D01*
X226362190Y-129044761D01*
X226400285Y-129082857D01*
D11*
X135584190Y-101230942D02*
X135631809Y-101278561D01*
X135774666Y-101326180D01*
X135869904Y-101326180D01*
X136012761Y-101278561D01*
X136108000Y-101183323D01*
X136155619Y-101088085D01*
X136203238Y-100897609D01*
X136203238Y-100754752D01*
X136155619Y-100564276D01*
X136108000Y-100469038D01*
X136012761Y-100373800D01*
X135869904Y-100326180D01*
X135774666Y-100326180D01*
X135631809Y-100373800D01*
X135584190Y-100421419D01*
X134965142Y-100326180D02*
X134774666Y-100326180D01*
X134679428Y-100373800D01*
X134584190Y-100469038D01*
X134536571Y-100659514D01*
X134536571Y-100992847D01*
X134584190Y-101183323D01*
X134679428Y-101278561D01*
X134774666Y-101326180D01*
X134965142Y-101326180D01*
X135060380Y-101278561D01*
X135155619Y-101183323D01*
X135203238Y-100992847D01*
X135203238Y-100659514D01*
X135155619Y-100469038D01*
X135060380Y-100373800D01*
X134965142Y-100326180D01*
X134108000Y-101326180D02*
X134108000Y-100326180D01*
X133536571Y-101326180D01*
X133536571Y-100326180D01*
X133060380Y-101326180D02*
X133060380Y-100326180D01*
X132488952Y-101326180D01*
X132488952Y-100326180D01*
X132012761Y-101230942D02*
X131965142Y-101278561D01*
X132012761Y-101326180D01*
X132060380Y-101278561D01*
X132012761Y-101230942D01*
X132012761Y-101326180D01*
X131584190Y-101278561D02*
X131441333Y-101326180D01*
X131203238Y-101326180D01*
X131108000Y-101278561D01*
X131060380Y-101230942D01*
X131012761Y-101135704D01*
X131012761Y-101040466D01*
X131060380Y-100945228D01*
X131108000Y-100897609D01*
X131203238Y-100849990D01*
X131393714Y-100802371D01*
X131488952Y-100754752D01*
X131536571Y-100707133D01*
X131584190Y-100611895D01*
X131584190Y-100516657D01*
X131536571Y-100421419D01*
X131488952Y-100373800D01*
X131393714Y-100326180D01*
X131155619Y-100326180D01*
X131012761Y-100373800D01*
X130012761Y-101230942D02*
X130060380Y-101278561D01*
X130203238Y-101326180D01*
X130298476Y-101326180D01*
X130441333Y-101278561D01*
X130536571Y-101183323D01*
X130584190Y-101088085D01*
X130631809Y-100897609D01*
X130631809Y-100754752D01*
X130584190Y-100564276D01*
X130536571Y-100469038D01*
X130441333Y-100373800D01*
X130298476Y-100326180D01*
X130203238Y-100326180D01*
X130060380Y-100373800D01*
X130012761Y-100421419D01*
X129584190Y-101326180D02*
X129584190Y-100326180D01*
X129012761Y-101326180D02*
X129441333Y-100754752D01*
X129012761Y-100326180D02*
X129584190Y-100897609D01*
D12*
X168430095Y-130054285D02*
X168811047Y-130320952D01*
X168430095Y-130511428D02*
X169230095Y-130511428D01*
X169230095Y-130206666D01*
X169192000Y-130130476D01*
X169153904Y-130092380D01*
X169077714Y-130054285D01*
X168963428Y-130054285D01*
X168887238Y-130092380D01*
X168849142Y-130130476D01*
X168811047Y-130206666D01*
X168811047Y-130511428D01*
X168430095Y-129292380D02*
X168430095Y-129749523D01*
X168430095Y-129520952D02*
X169230095Y-129520952D01*
X169115809Y-129597142D01*
X169039619Y-129673333D01*
X169001523Y-129749523D01*
X169230095Y-128568571D02*
X169230095Y-128949523D01*
X168849142Y-128987619D01*
X168887238Y-128949523D01*
X168925333Y-128873333D01*
X168925333Y-128682857D01*
X168887238Y-128606666D01*
X168849142Y-128568571D01*
X168772952Y-128530476D01*
X168582476Y-128530476D01*
X168506285Y-128568571D01*
X168468190Y-128606666D01*
X168430095Y-128682857D01*
X168430095Y-128873333D01*
X168468190Y-128949523D01*
X168506285Y-128987619D01*
X167142095Y-129882857D02*
X167142095Y-130340000D01*
X167142095Y-130111428D02*
X167942095Y-130111428D01*
X167827809Y-130187619D01*
X167751619Y-130263809D01*
X167713523Y-130340000D01*
X167218285Y-129540000D02*
X167180190Y-129501904D01*
X167142095Y-129540000D01*
X167180190Y-129578095D01*
X167218285Y-129540000D01*
X167142095Y-129540000D01*
X167865904Y-129197142D02*
X167904000Y-129159047D01*
X167942095Y-129082857D01*
X167942095Y-128892380D01*
X167904000Y-128816190D01*
X167865904Y-128778095D01*
X167789714Y-128740000D01*
X167713523Y-128740000D01*
X167599238Y-128778095D01*
X167142095Y-129235238D01*
X167142095Y-128740000D01*
D11*
X246415000Y-99020285D02*
X246462619Y-99115523D01*
X246462619Y-99258380D01*
X246415000Y-99401238D01*
X246319761Y-99496476D01*
X246224523Y-99544095D01*
X246034047Y-99591714D01*
X245891190Y-99591714D01*
X245700714Y-99544095D01*
X245605476Y-99496476D01*
X245510238Y-99401238D01*
X245462619Y-99258380D01*
X245462619Y-99163142D01*
X245510238Y-99020285D01*
X245557857Y-98972666D01*
X245891190Y-98972666D01*
X245891190Y-99163142D01*
X245462619Y-98020285D02*
X245462619Y-98591714D01*
X245462619Y-98306000D02*
X246462619Y-98306000D01*
X246319761Y-98401238D01*
X246224523Y-98496476D01*
X246176904Y-98591714D01*
X244376428Y-99139333D02*
X244376428Y-99472666D01*
X243852619Y-99472666D02*
X244852619Y-99472666D01*
X244852619Y-98996476D01*
X244757380Y-98663142D02*
X244805000Y-98615523D01*
X244852619Y-98520285D01*
X244852619Y-98282190D01*
X244805000Y-98186952D01*
X244757380Y-98139333D01*
X244662142Y-98091714D01*
X244566904Y-98091714D01*
X244424047Y-98139333D01*
X243852619Y-98710761D01*
X243852619Y-98091714D01*
X245462619Y-117006666D02*
X245462619Y-117482857D01*
X246462619Y-117482857D01*
X245462619Y-116149523D02*
X245462619Y-116720952D01*
X245462619Y-116435238D02*
X246462619Y-116435238D01*
X246319761Y-116530476D01*
X246224523Y-116625714D01*
X246176904Y-116720952D01*
X243852619Y-117006666D02*
X243852619Y-117482857D01*
X244852619Y-117482857D01*
X244852619Y-116768571D02*
X244852619Y-116149523D01*
X244471666Y-116482857D01*
X244471666Y-116340000D01*
X244424047Y-116244761D01*
X244376428Y-116197142D01*
X244281190Y-116149523D01*
X244043095Y-116149523D01*
X243947857Y-116197142D01*
X243900238Y-116244761D01*
X243852619Y-116340000D01*
X243852619Y-116625714D01*
X243900238Y-116720952D01*
X243947857Y-116768571D01*
X186550428Y-111402761D02*
X186502809Y-111259904D01*
X186455190Y-111212285D01*
X186359952Y-111164666D01*
X186217095Y-111164666D01*
X186121857Y-111212285D01*
X186074238Y-111259904D01*
X186026619Y-111355142D01*
X186026619Y-111736095D01*
X187026619Y-111736095D01*
X187026619Y-111402761D01*
X186979000Y-111307523D01*
X186931380Y-111259904D01*
X186836142Y-111212285D01*
X186740904Y-111212285D01*
X186645666Y-111259904D01*
X186598047Y-111307523D01*
X186550428Y-111402761D01*
X186550428Y-111736095D01*
X186026619Y-110688476D02*
X186026619Y-110498000D01*
X186074238Y-110402761D01*
X186121857Y-110355142D01*
X186264714Y-110259904D01*
X186455190Y-110212285D01*
X186836142Y-110212285D01*
X186931380Y-110259904D01*
X186979000Y-110307523D01*
X187026619Y-110402761D01*
X187026619Y-110593238D01*
X186979000Y-110688476D01*
X186931380Y-110736095D01*
X186836142Y-110783714D01*
X186598047Y-110783714D01*
X186502809Y-110736095D01*
X186455190Y-110688476D01*
X186407571Y-110593238D01*
X186407571Y-110402761D01*
X186455190Y-110307523D01*
X186502809Y-110259904D01*
X186598047Y-110212285D01*
X184702333Y-111712285D02*
X184702333Y-111236095D01*
X184416619Y-111807523D02*
X185416619Y-111474190D01*
X184416619Y-111140857D01*
X184416619Y-110759904D02*
X184416619Y-110569428D01*
X184464238Y-110474190D01*
X184511857Y-110426571D01*
X184654714Y-110331333D01*
X184845190Y-110283714D01*
X185226142Y-110283714D01*
X185321380Y-110331333D01*
X185369000Y-110378952D01*
X185416619Y-110474190D01*
X185416619Y-110664666D01*
X185369000Y-110759904D01*
X185321380Y-110807523D01*
X185226142Y-110855142D01*
X184988047Y-110855142D01*
X184892809Y-110807523D01*
X184845190Y-110759904D01*
X184797571Y-110664666D01*
X184797571Y-110474190D01*
X184845190Y-110378952D01*
X184892809Y-110331333D01*
X184988047Y-110283714D01*
X246415000Y-124967904D02*
X246462619Y-125063142D01*
X246462619Y-125206000D01*
X246415000Y-125348857D01*
X246319761Y-125444095D01*
X246224523Y-125491714D01*
X246034047Y-125539333D01*
X245891190Y-125539333D01*
X245700714Y-125491714D01*
X245605476Y-125444095D01*
X245510238Y-125348857D01*
X245462619Y-125206000D01*
X245462619Y-125110761D01*
X245510238Y-124967904D01*
X245557857Y-124920285D01*
X245891190Y-124920285D01*
X245891190Y-125110761D01*
X245462619Y-124491714D02*
X246462619Y-124491714D01*
X245462619Y-123920285D01*
X246462619Y-123920285D01*
X245462619Y-123444095D02*
X246462619Y-123444095D01*
X246462619Y-123206000D01*
X246415000Y-123063142D01*
X246319761Y-122967904D01*
X246224523Y-122920285D01*
X246034047Y-122872666D01*
X245891190Y-122872666D01*
X245700714Y-122920285D01*
X245605476Y-122967904D01*
X245510238Y-123063142D01*
X245462619Y-123206000D01*
X245462619Y-123444095D01*
X244805000Y-124967904D02*
X244852619Y-125063142D01*
X244852619Y-125206000D01*
X244805000Y-125348857D01*
X244709761Y-125444095D01*
X244614523Y-125491714D01*
X244424047Y-125539333D01*
X244281190Y-125539333D01*
X244090714Y-125491714D01*
X243995476Y-125444095D01*
X243900238Y-125348857D01*
X243852619Y-125206000D01*
X243852619Y-125110761D01*
X243900238Y-124967904D01*
X243947857Y-124920285D01*
X244281190Y-124920285D01*
X244281190Y-125110761D01*
X243852619Y-124491714D02*
X244852619Y-124491714D01*
X243852619Y-123920285D01*
X244852619Y-123920285D01*
X243852619Y-123444095D02*
X244852619Y-123444095D01*
X244852619Y-123206000D01*
X244805000Y-123063142D01*
X244709761Y-122967904D01*
X244614523Y-122920285D01*
X244424047Y-122872666D01*
X244281190Y-122872666D01*
X244090714Y-122920285D01*
X243995476Y-122967904D01*
X243900238Y-123063142D01*
X243852619Y-123206000D01*
X243852619Y-123444095D01*
X110542361Y-90714942D02*
X110589980Y-90762561D01*
X110732838Y-90810180D01*
X110828076Y-90810180D01*
X110970933Y-90762561D01*
X111066171Y-90667323D01*
X111113790Y-90572085D01*
X111161409Y-90381609D01*
X111161409Y-90238752D01*
X111113790Y-90048276D01*
X111066171Y-89953038D01*
X110970933Y-89857800D01*
X110828076Y-89810180D01*
X110732838Y-89810180D01*
X110589980Y-89857800D01*
X110542361Y-89905419D01*
X110113790Y-90714942D02*
X110066171Y-90762561D01*
X110113790Y-90810180D01*
X110161409Y-90762561D01*
X110113790Y-90714942D01*
X110113790Y-90810180D01*
X109685219Y-90762561D02*
X109542361Y-90810180D01*
X109304266Y-90810180D01*
X109209028Y-90762561D01*
X109161409Y-90714942D01*
X109113790Y-90619704D01*
X109113790Y-90524466D01*
X109161409Y-90429228D01*
X109209028Y-90381609D01*
X109304266Y-90333990D01*
X109494742Y-90286371D01*
X109589980Y-90238752D01*
X109637600Y-90191133D01*
X109685219Y-90095895D01*
X109685219Y-90000657D01*
X109637600Y-89905419D01*
X109589980Y-89857800D01*
X109494742Y-89810180D01*
X109256647Y-89810180D01*
X109113790Y-89857800D01*
X108113790Y-90714942D02*
X108161409Y-90762561D01*
X108304266Y-90810180D01*
X108399504Y-90810180D01*
X108542361Y-90762561D01*
X108637600Y-90667323D01*
X108685219Y-90572085D01*
X108732838Y-90381609D01*
X108732838Y-90238752D01*
X108685219Y-90048276D01*
X108637600Y-89953038D01*
X108542361Y-89857800D01*
X108399504Y-89810180D01*
X108304266Y-89810180D01*
X108161409Y-89857800D01*
X108113790Y-89905419D01*
X107685219Y-90810180D02*
X107685219Y-89810180D01*
X107113790Y-90810180D02*
X107542361Y-90238752D01*
X107113790Y-89810180D02*
X107685219Y-90381609D01*
X186979000Y-94462504D02*
X187026619Y-94557742D01*
X187026619Y-94700600D01*
X186979000Y-94843457D01*
X186883761Y-94938695D01*
X186788523Y-94986314D01*
X186598047Y-95033933D01*
X186455190Y-95033933D01*
X186264714Y-94986314D01*
X186169476Y-94938695D01*
X186074238Y-94843457D01*
X186026619Y-94700600D01*
X186026619Y-94605361D01*
X186074238Y-94462504D01*
X186121857Y-94414885D01*
X186455190Y-94414885D01*
X186455190Y-94605361D01*
X186026619Y-93986314D02*
X187026619Y-93986314D01*
X186026619Y-93414885D01*
X187026619Y-93414885D01*
X186026619Y-92938695D02*
X187026619Y-92938695D01*
X187026619Y-92700600D01*
X186979000Y-92557742D01*
X186883761Y-92462504D01*
X186788523Y-92414885D01*
X186598047Y-92367266D01*
X186455190Y-92367266D01*
X186264714Y-92414885D01*
X186169476Y-92462504D01*
X186074238Y-92557742D01*
X186026619Y-92700600D01*
X186026619Y-92938695D01*
X185369000Y-94462504D02*
X185416619Y-94557742D01*
X185416619Y-94700600D01*
X185369000Y-94843457D01*
X185273761Y-94938695D01*
X185178523Y-94986314D01*
X184988047Y-95033933D01*
X184845190Y-95033933D01*
X184654714Y-94986314D01*
X184559476Y-94938695D01*
X184464238Y-94843457D01*
X184416619Y-94700600D01*
X184416619Y-94605361D01*
X184464238Y-94462504D01*
X184511857Y-94414885D01*
X184845190Y-94414885D01*
X184845190Y-94605361D01*
X184416619Y-93986314D02*
X185416619Y-93986314D01*
X184416619Y-93414885D01*
X185416619Y-93414885D01*
X184416619Y-92938695D02*
X185416619Y-92938695D01*
X185416619Y-92700600D01*
X185369000Y-92557742D01*
X185273761Y-92462504D01*
X185178523Y-92414885D01*
X184988047Y-92367266D01*
X184845190Y-92367266D01*
X184654714Y-92414885D01*
X184559476Y-92462504D01*
X184464238Y-92557742D01*
X184416619Y-92700600D01*
X184416619Y-92938695D01*
D12*
X227612095Y-132880000D02*
X228412095Y-132880000D01*
X228412095Y-132346666D02*
X228412095Y-132194285D01*
X228374000Y-132118095D01*
X228297809Y-132041904D01*
X228145428Y-132003809D01*
X227878761Y-132003809D01*
X227726380Y-132041904D01*
X227650190Y-132118095D01*
X227612095Y-132194285D01*
X227612095Y-132346666D01*
X227650190Y-132422857D01*
X227726380Y-132499047D01*
X227878761Y-132537142D01*
X228145428Y-132537142D01*
X228297809Y-132499047D01*
X228374000Y-132422857D01*
X228412095Y-132346666D01*
X228335904Y-131699047D02*
X228374000Y-131660952D01*
X228412095Y-131584761D01*
X228412095Y-131394285D01*
X228374000Y-131318095D01*
X228335904Y-131280000D01*
X228259714Y-131241904D01*
X228183523Y-131241904D01*
X228069238Y-131280000D01*
X227612095Y-131737142D01*
X227612095Y-131241904D01*
X226324095Y-132594285D02*
X226705047Y-132860952D01*
X226324095Y-133051428D02*
X227124095Y-133051428D01*
X227124095Y-132746666D01*
X227086000Y-132670476D01*
X227047904Y-132632380D01*
X226971714Y-132594285D01*
X226857428Y-132594285D01*
X226781238Y-132632380D01*
X226743142Y-132670476D01*
X226705047Y-132746666D01*
X226705047Y-133051428D01*
X226324095Y-131832380D02*
X226324095Y-132289523D01*
X226324095Y-132060952D02*
X227124095Y-132060952D01*
X227009809Y-132137142D01*
X226933619Y-132213333D01*
X226895523Y-132289523D01*
X227124095Y-131146666D02*
X227124095Y-131299047D01*
X227086000Y-131375238D01*
X227047904Y-131413333D01*
X226933619Y-131489523D01*
X226781238Y-131527619D01*
X226476476Y-131527619D01*
X226400285Y-131489523D01*
X226362190Y-131451428D01*
X226324095Y-131375238D01*
X226324095Y-131222857D01*
X226362190Y-131146666D01*
X226400285Y-131108571D01*
X226476476Y-131070476D01*
X226666952Y-131070476D01*
X226743142Y-131108571D01*
X226781238Y-131146666D01*
X226819333Y-131222857D01*
X226819333Y-131375238D01*
X226781238Y-131451428D01*
X226743142Y-131489523D01*
X226666952Y-131527619D01*
D11*
X186121857Y-101004666D02*
X186074238Y-101052285D01*
X186026619Y-101195142D01*
X186026619Y-101290380D01*
X186074238Y-101433238D01*
X186169476Y-101528476D01*
X186264714Y-101576095D01*
X186455190Y-101623714D01*
X186598047Y-101623714D01*
X186788523Y-101576095D01*
X186883761Y-101528476D01*
X186979000Y-101433238D01*
X187026619Y-101290380D01*
X187026619Y-101195142D01*
X186979000Y-101052285D01*
X186931380Y-101004666D01*
X187026619Y-100147523D02*
X187026619Y-100338000D01*
X186979000Y-100433238D01*
X186931380Y-100480857D01*
X186788523Y-100576095D01*
X186598047Y-100623714D01*
X186217095Y-100623714D01*
X186121857Y-100576095D01*
X186074238Y-100528476D01*
X186026619Y-100433238D01*
X186026619Y-100242761D01*
X186074238Y-100147523D01*
X186121857Y-100099904D01*
X186217095Y-100052285D01*
X186455190Y-100052285D01*
X186550428Y-100099904D01*
X186598047Y-100147523D01*
X186645666Y-100242761D01*
X186645666Y-100433238D01*
X186598047Y-100528476D01*
X186550428Y-100576095D01*
X186455190Y-100623714D01*
X184702333Y-101552285D02*
X184702333Y-101076095D01*
X184416619Y-101647523D02*
X185416619Y-101314190D01*
X184416619Y-100980857D01*
X185416619Y-100218952D02*
X185416619Y-100409428D01*
X185369000Y-100504666D01*
X185321380Y-100552285D01*
X185178523Y-100647523D01*
X184988047Y-100695142D01*
X184607095Y-100695142D01*
X184511857Y-100647523D01*
X184464238Y-100599904D01*
X184416619Y-100504666D01*
X184416619Y-100314190D01*
X184464238Y-100218952D01*
X184511857Y-100171333D01*
X184607095Y-100123714D01*
X184845190Y-100123714D01*
X184940428Y-100171333D01*
X184988047Y-100218952D01*
X185035666Y-100314190D01*
X185035666Y-100504666D01*
X184988047Y-100599904D01*
X184940428Y-100647523D01*
X184845190Y-100695142D01*
X130906219Y-86106428D02*
X130906219Y-86582619D01*
X130430028Y-86630238D01*
X130477647Y-86582619D01*
X130525266Y-86487380D01*
X130525266Y-86249285D01*
X130477647Y-86154047D01*
X130430028Y-86106428D01*
X130334790Y-86058809D01*
X130096695Y-86058809D01*
X130001457Y-86106428D01*
X129953838Y-86154047D01*
X129906219Y-86249285D01*
X129906219Y-86487380D01*
X129953838Y-86582619D01*
X130001457Y-86630238D01*
X130906219Y-85773095D02*
X129906219Y-85439761D01*
X130906219Y-85106428D01*
X135748476Y-95727371D02*
X136081809Y-95727371D01*
X136081809Y-96251180D02*
X136081809Y-95251180D01*
X135605619Y-95251180D01*
X135367523Y-95251180D02*
X134796095Y-95251180D01*
X135081809Y-96251180D02*
X135081809Y-95251180D01*
X134462761Y-96251180D02*
X134462761Y-95251180D01*
X134224666Y-95251180D01*
X134081809Y-95298800D01*
X133986571Y-95394038D01*
X133938952Y-95489276D01*
X133891333Y-95679752D01*
X133891333Y-95822609D01*
X133938952Y-96013085D01*
X133986571Y-96108323D01*
X134081809Y-96203561D01*
X134224666Y-96251180D01*
X134462761Y-96251180D01*
X133462761Y-96251180D02*
X133462761Y-95251180D01*
X132986571Y-96155942D02*
X132938952Y-96203561D01*
X132986571Y-96251180D01*
X133034190Y-96203561D01*
X132986571Y-96155942D01*
X132986571Y-96251180D01*
X132558000Y-96203561D02*
X132415142Y-96251180D01*
X132177047Y-96251180D01*
X132081809Y-96203561D01*
X132034190Y-96155942D01*
X131986571Y-96060704D01*
X131986571Y-95965466D01*
X132034190Y-95870228D01*
X132081809Y-95822609D01*
X132177047Y-95774990D01*
X132367523Y-95727371D01*
X132462761Y-95679752D01*
X132510380Y-95632133D01*
X132558000Y-95536895D01*
X132558000Y-95441657D01*
X132510380Y-95346419D01*
X132462761Y-95298800D01*
X132367523Y-95251180D01*
X132129428Y-95251180D01*
X131986571Y-95298800D01*
X130986571Y-96155942D02*
X131034190Y-96203561D01*
X131177047Y-96251180D01*
X131272285Y-96251180D01*
X131415142Y-96203561D01*
X131510380Y-96108323D01*
X131558000Y-96013085D01*
X131605619Y-95822609D01*
X131605619Y-95679752D01*
X131558000Y-95489276D01*
X131510380Y-95394038D01*
X131415142Y-95298800D01*
X131272285Y-95251180D01*
X131177047Y-95251180D01*
X131034190Y-95298800D01*
X130986571Y-95346419D01*
X130558000Y-96251180D02*
X130558000Y-95251180D01*
X129986571Y-96251180D02*
X130415142Y-95679752D01*
X129986571Y-95251180D02*
X130558000Y-95822609D01*
X169453000Y-125221904D02*
X169500619Y-125317142D01*
X169500619Y-125460000D01*
X169453000Y-125602857D01*
X169357761Y-125698095D01*
X169262523Y-125745714D01*
X169072047Y-125793333D01*
X168929190Y-125793333D01*
X168738714Y-125745714D01*
X168643476Y-125698095D01*
X168548238Y-125602857D01*
X168500619Y-125460000D01*
X168500619Y-125364761D01*
X168548238Y-125221904D01*
X168595857Y-125174285D01*
X168929190Y-125174285D01*
X168929190Y-125364761D01*
X168500619Y-124745714D02*
X169500619Y-124745714D01*
X168500619Y-124174285D01*
X169500619Y-124174285D01*
X168500619Y-123698095D02*
X169500619Y-123698095D01*
X169500619Y-123460000D01*
X169453000Y-123317142D01*
X169357761Y-123221904D01*
X169262523Y-123174285D01*
X169072047Y-123126666D01*
X168929190Y-123126666D01*
X168738714Y-123174285D01*
X168643476Y-123221904D01*
X168548238Y-123317142D01*
X168500619Y-123460000D01*
X168500619Y-123698095D01*
X167843000Y-125221904D02*
X167890619Y-125317142D01*
X167890619Y-125460000D01*
X167843000Y-125602857D01*
X167747761Y-125698095D01*
X167652523Y-125745714D01*
X167462047Y-125793333D01*
X167319190Y-125793333D01*
X167128714Y-125745714D01*
X167033476Y-125698095D01*
X166938238Y-125602857D01*
X166890619Y-125460000D01*
X166890619Y-125364761D01*
X166938238Y-125221904D01*
X166985857Y-125174285D01*
X167319190Y-125174285D01*
X167319190Y-125364761D01*
X166890619Y-124745714D02*
X167890619Y-124745714D01*
X166890619Y-124174285D01*
X167890619Y-124174285D01*
X166890619Y-123698095D02*
X167890619Y-123698095D01*
X167890619Y-123460000D01*
X167843000Y-123317142D01*
X167747761Y-123221904D01*
X167652523Y-123174285D01*
X167462047Y-123126666D01*
X167319190Y-123126666D01*
X167128714Y-123174285D01*
X167033476Y-123221904D01*
X166938238Y-123317142D01*
X166890619Y-123460000D01*
X166890619Y-123698095D01*
X246462619Y-107013333D02*
X245748333Y-107013333D01*
X245605476Y-107060952D01*
X245510238Y-107156190D01*
X245462619Y-107299047D01*
X245462619Y-107394285D01*
X246462619Y-106632380D02*
X246462619Y-106013333D01*
X246081666Y-106346666D01*
X246081666Y-106203809D01*
X246034047Y-106108571D01*
X245986428Y-106060952D01*
X245891190Y-106013333D01*
X245653095Y-106013333D01*
X245557857Y-106060952D01*
X245510238Y-106108571D01*
X245462619Y-106203809D01*
X245462619Y-106489523D01*
X245510238Y-106584761D01*
X245557857Y-106632380D01*
X243852619Y-107441904D02*
X244852619Y-107441904D01*
X244376428Y-107441904D02*
X244376428Y-106870476D01*
X243852619Y-106870476D02*
X244852619Y-106870476D01*
X244757380Y-106441904D02*
X244805000Y-106394285D01*
X244852619Y-106299047D01*
X244852619Y-106060952D01*
X244805000Y-105965714D01*
X244757380Y-105918095D01*
X244662142Y-105870476D01*
X244566904Y-105870476D01*
X244424047Y-105918095D01*
X243852619Y-106489523D01*
X243852619Y-105870476D01*
D12*
X186375142Y-119576761D02*
X186337047Y-119462476D01*
X186298952Y-119424380D01*
X186222761Y-119386285D01*
X186108476Y-119386285D01*
X186032285Y-119424380D01*
X185994190Y-119462476D01*
X185956095Y-119538666D01*
X185956095Y-119843428D01*
X186756095Y-119843428D01*
X186756095Y-119576761D01*
X186718000Y-119500571D01*
X186679904Y-119462476D01*
X186603714Y-119424380D01*
X186527523Y-119424380D01*
X186451333Y-119462476D01*
X186413238Y-119500571D01*
X186375142Y-119576761D01*
X186375142Y-119843428D01*
X185956095Y-118624380D02*
X185956095Y-119081523D01*
X185956095Y-118852952D02*
X186756095Y-118852952D01*
X186641809Y-118929142D01*
X186565619Y-119005333D01*
X186527523Y-119081523D01*
X186756095Y-118129142D02*
X186756095Y-118052952D01*
X186718000Y-117976761D01*
X186679904Y-117938666D01*
X186603714Y-117900571D01*
X186451333Y-117862476D01*
X186260857Y-117862476D01*
X186108476Y-117900571D01*
X186032285Y-117938666D01*
X185994190Y-117976761D01*
X185956095Y-118052952D01*
X185956095Y-118129142D01*
X185994190Y-118205333D01*
X186032285Y-118243428D01*
X186108476Y-118281523D01*
X186260857Y-118319619D01*
X186451333Y-118319619D01*
X186603714Y-118281523D01*
X186679904Y-118243428D01*
X186718000Y-118205333D01*
X186756095Y-118129142D01*
X184896666Y-119824380D02*
X184896666Y-119443428D01*
X184668095Y-119900571D02*
X185468095Y-119633904D01*
X184668095Y-119367238D01*
X184668095Y-118681523D02*
X184668095Y-119138666D01*
X184668095Y-118910095D02*
X185468095Y-118910095D01*
X185353809Y-118986285D01*
X185277619Y-119062476D01*
X185239523Y-119138666D01*
X184668095Y-117919619D02*
X184668095Y-118376761D01*
X184668095Y-118148190D02*
X185468095Y-118148190D01*
X185353809Y-118224380D01*
X185277619Y-118300571D01*
X185239523Y-118376761D01*
D11*
X169453000Y-84251704D02*
X169500619Y-84346942D01*
X169500619Y-84489800D01*
X169453000Y-84632657D01*
X169357761Y-84727895D01*
X169262523Y-84775514D01*
X169072047Y-84823133D01*
X168929190Y-84823133D01*
X168738714Y-84775514D01*
X168643476Y-84727895D01*
X168548238Y-84632657D01*
X168500619Y-84489800D01*
X168500619Y-84394561D01*
X168548238Y-84251704D01*
X168595857Y-84204085D01*
X168929190Y-84204085D01*
X168929190Y-84394561D01*
X168500619Y-83775514D02*
X169500619Y-83775514D01*
X168500619Y-83204085D01*
X169500619Y-83204085D01*
X168500619Y-82727895D02*
X169500619Y-82727895D01*
X169500619Y-82489800D01*
X169453000Y-82346942D01*
X169357761Y-82251704D01*
X169262523Y-82204085D01*
X169072047Y-82156466D01*
X168929190Y-82156466D01*
X168738714Y-82204085D01*
X168643476Y-82251704D01*
X168548238Y-82346942D01*
X168500619Y-82489800D01*
X168500619Y-82727895D01*
X167843000Y-84251704D02*
X167890619Y-84346942D01*
X167890619Y-84489800D01*
X167843000Y-84632657D01*
X167747761Y-84727895D01*
X167652523Y-84775514D01*
X167462047Y-84823133D01*
X167319190Y-84823133D01*
X167128714Y-84775514D01*
X167033476Y-84727895D01*
X166938238Y-84632657D01*
X166890619Y-84489800D01*
X166890619Y-84394561D01*
X166938238Y-84251704D01*
X166985857Y-84204085D01*
X167319190Y-84204085D01*
X167319190Y-84394561D01*
X166890619Y-83775514D02*
X167890619Y-83775514D01*
X166890619Y-83204085D01*
X167890619Y-83204085D01*
X166890619Y-82727895D02*
X167890619Y-82727895D01*
X167890619Y-82489800D01*
X167843000Y-82346942D01*
X167747761Y-82251704D01*
X167652523Y-82204085D01*
X167462047Y-82156466D01*
X167319190Y-82156466D01*
X167128714Y-82204085D01*
X167033476Y-82251704D01*
X166938238Y-82346942D01*
X166890619Y-82489800D01*
X166890619Y-82727895D01*
D12*
X227612095Y-122637428D02*
X228412095Y-122637428D01*
X228412095Y-122332666D01*
X228374000Y-122256476D01*
X228335904Y-122218380D01*
X228259714Y-122180285D01*
X228145428Y-122180285D01*
X228069238Y-122218380D01*
X228031142Y-122256476D01*
X227993047Y-122332666D01*
X227993047Y-122637428D01*
X227612095Y-121418380D02*
X227612095Y-121875523D01*
X227612095Y-121646952D02*
X228412095Y-121646952D01*
X228297809Y-121723142D01*
X228221619Y-121799333D01*
X228183523Y-121875523D01*
X228412095Y-121151714D02*
X228412095Y-120656476D01*
X228107333Y-120923142D01*
X228107333Y-120808857D01*
X228069238Y-120732666D01*
X228031142Y-120694571D01*
X227954952Y-120656476D01*
X227764476Y-120656476D01*
X227688285Y-120694571D01*
X227650190Y-120732666D01*
X227612095Y-120808857D01*
X227612095Y-121037428D01*
X227650190Y-121113619D01*
X227688285Y-121151714D01*
X226324095Y-122656476D02*
X227124095Y-122656476D01*
X226324095Y-122199333D01*
X227124095Y-122199333D01*
X226324095Y-121399333D02*
X226324095Y-121856476D01*
X226324095Y-121627904D02*
X227124095Y-121627904D01*
X227009809Y-121704095D01*
X226933619Y-121780285D01*
X226895523Y-121856476D01*
X227047904Y-121094571D02*
X227086000Y-121056476D01*
X227124095Y-120980285D01*
X227124095Y-120789809D01*
X227086000Y-120713619D01*
X227047904Y-120675523D01*
X226971714Y-120637428D01*
X226895523Y-120637428D01*
X226781238Y-120675523D01*
X226324095Y-121132666D01*
X226324095Y-120637428D01*
D11*
X169453000Y-114807904D02*
X169500619Y-114903142D01*
X169500619Y-115046000D01*
X169453000Y-115188857D01*
X169357761Y-115284095D01*
X169262523Y-115331714D01*
X169072047Y-115379333D01*
X168929190Y-115379333D01*
X168738714Y-115331714D01*
X168643476Y-115284095D01*
X168548238Y-115188857D01*
X168500619Y-115046000D01*
X168500619Y-114950761D01*
X168548238Y-114807904D01*
X168595857Y-114760285D01*
X168929190Y-114760285D01*
X168929190Y-114950761D01*
X168500619Y-114331714D02*
X169500619Y-114331714D01*
X168500619Y-113760285D01*
X169500619Y-113760285D01*
X168500619Y-113284095D02*
X169500619Y-113284095D01*
X169500619Y-113046000D01*
X169453000Y-112903142D01*
X169357761Y-112807904D01*
X169262523Y-112760285D01*
X169072047Y-112712666D01*
X168929190Y-112712666D01*
X168738714Y-112760285D01*
X168643476Y-112807904D01*
X168548238Y-112903142D01*
X168500619Y-113046000D01*
X168500619Y-113284095D01*
X167843000Y-114807904D02*
X167890619Y-114903142D01*
X167890619Y-115046000D01*
X167843000Y-115188857D01*
X167747761Y-115284095D01*
X167652523Y-115331714D01*
X167462047Y-115379333D01*
X167319190Y-115379333D01*
X167128714Y-115331714D01*
X167033476Y-115284095D01*
X166938238Y-115188857D01*
X166890619Y-115046000D01*
X166890619Y-114950761D01*
X166938238Y-114807904D01*
X166985857Y-114760285D01*
X167319190Y-114760285D01*
X167319190Y-114950761D01*
X166890619Y-114331714D02*
X167890619Y-114331714D01*
X166890619Y-113760285D01*
X167890619Y-113760285D01*
X166890619Y-113284095D02*
X167890619Y-113284095D01*
X167890619Y-113046000D01*
X167843000Y-112903142D01*
X167747761Y-112807904D01*
X167652523Y-112760285D01*
X167462047Y-112712666D01*
X167319190Y-112712666D01*
X167128714Y-112760285D01*
X167033476Y-112807904D01*
X166938238Y-112903142D01*
X166890619Y-113046000D01*
X166890619Y-113284095D01*
X186979000Y-104622504D02*
X187026619Y-104717742D01*
X187026619Y-104860600D01*
X186979000Y-105003457D01*
X186883761Y-105098695D01*
X186788523Y-105146314D01*
X186598047Y-105193933D01*
X186455190Y-105193933D01*
X186264714Y-105146314D01*
X186169476Y-105098695D01*
X186074238Y-105003457D01*
X186026619Y-104860600D01*
X186026619Y-104765361D01*
X186074238Y-104622504D01*
X186121857Y-104574885D01*
X186455190Y-104574885D01*
X186455190Y-104765361D01*
X186026619Y-104146314D02*
X187026619Y-104146314D01*
X186026619Y-103574885D01*
X187026619Y-103574885D01*
X186026619Y-103098695D02*
X187026619Y-103098695D01*
X187026619Y-102860600D01*
X186979000Y-102717742D01*
X186883761Y-102622504D01*
X186788523Y-102574885D01*
X186598047Y-102527266D01*
X186455190Y-102527266D01*
X186264714Y-102574885D01*
X186169476Y-102622504D01*
X186074238Y-102717742D01*
X186026619Y-102860600D01*
X186026619Y-103098695D01*
X185369000Y-104622504D02*
X185416619Y-104717742D01*
X185416619Y-104860600D01*
X185369000Y-105003457D01*
X185273761Y-105098695D01*
X185178523Y-105146314D01*
X184988047Y-105193933D01*
X184845190Y-105193933D01*
X184654714Y-105146314D01*
X184559476Y-105098695D01*
X184464238Y-105003457D01*
X184416619Y-104860600D01*
X184416619Y-104765361D01*
X184464238Y-104622504D01*
X184511857Y-104574885D01*
X184845190Y-104574885D01*
X184845190Y-104765361D01*
X184416619Y-104146314D02*
X185416619Y-104146314D01*
X184416619Y-103574885D01*
X185416619Y-103574885D01*
X184416619Y-103098695D02*
X185416619Y-103098695D01*
X185416619Y-102860600D01*
X185369000Y-102717742D01*
X185273761Y-102622504D01*
X185178523Y-102574885D01*
X184988047Y-102527266D01*
X184845190Y-102527266D01*
X184654714Y-102574885D01*
X184559476Y-102622504D01*
X184464238Y-102717742D01*
X184416619Y-102860600D01*
X184416619Y-103098695D01*
X245462619Y-119935523D02*
X246462619Y-119935523D01*
X245748333Y-119602190D01*
X246462619Y-119268857D01*
X245462619Y-119268857D01*
X245462619Y-118268857D02*
X245462619Y-118840285D01*
X245462619Y-118554571D02*
X246462619Y-118554571D01*
X246319761Y-118649809D01*
X246224523Y-118745047D01*
X246176904Y-118840285D01*
X243852619Y-119935523D02*
X244852619Y-119935523D01*
X244138333Y-119602190D01*
X244852619Y-119268857D01*
X243852619Y-119268857D01*
X244757380Y-118840285D02*
X244805000Y-118792666D01*
X244852619Y-118697428D01*
X244852619Y-118459333D01*
X244805000Y-118364095D01*
X244757380Y-118316476D01*
X244662142Y-118268857D01*
X244566904Y-118268857D01*
X244424047Y-118316476D01*
X243852619Y-118887904D01*
X243852619Y-118268857D01*
X155022619Y-131143333D02*
X154022619Y-130476666D01*
X155022619Y-130476666D02*
X154022619Y-131143333D01*
X153365000Y-131571904D02*
X153412619Y-131667142D01*
X153412619Y-131810000D01*
X153365000Y-131952857D01*
X153269761Y-132048095D01*
X153174523Y-132095714D01*
X152984047Y-132143333D01*
X152841190Y-132143333D01*
X152650714Y-132095714D01*
X152555476Y-132048095D01*
X152460238Y-131952857D01*
X152412619Y-131810000D01*
X152412619Y-131714761D01*
X152460238Y-131571904D01*
X152507857Y-131524285D01*
X152841190Y-131524285D01*
X152841190Y-131714761D01*
X152412619Y-131095714D02*
X153412619Y-131095714D01*
X152412619Y-130524285D01*
X153412619Y-130524285D01*
X152412619Y-130048095D02*
X153412619Y-130048095D01*
X153412619Y-129810000D01*
X153365000Y-129667142D01*
X153269761Y-129571904D01*
X153174523Y-129524285D01*
X152984047Y-129476666D01*
X152841190Y-129476666D01*
X152650714Y-129524285D01*
X152555476Y-129571904D01*
X152460238Y-129667142D01*
X152412619Y-129810000D01*
X152412619Y-130048095D01*
X245462619Y-129452666D02*
X245938809Y-129786000D01*
X245462619Y-130024095D02*
X246462619Y-130024095D01*
X246462619Y-129643142D01*
X246415000Y-129547904D01*
X246367380Y-129500285D01*
X246272142Y-129452666D01*
X246129285Y-129452666D01*
X246034047Y-129500285D01*
X245986428Y-129547904D01*
X245938809Y-129643142D01*
X245938809Y-130024095D01*
X245462619Y-128500285D02*
X245462619Y-129071714D01*
X245462619Y-128786000D02*
X246462619Y-128786000D01*
X246319761Y-128881238D01*
X246224523Y-128976476D01*
X246176904Y-129071714D01*
X244852619Y-130333619D02*
X244852619Y-129714571D01*
X244471666Y-130047904D01*
X244471666Y-129905047D01*
X244424047Y-129809809D01*
X244376428Y-129762190D01*
X244281190Y-129714571D01*
X244043095Y-129714571D01*
X243947857Y-129762190D01*
X243900238Y-129809809D01*
X243852619Y-129905047D01*
X243852619Y-130190761D01*
X243900238Y-130286000D01*
X243947857Y-130333619D01*
X243947857Y-129286000D02*
X243900238Y-129238380D01*
X243852619Y-129286000D01*
X243900238Y-129333619D01*
X243947857Y-129286000D01*
X243852619Y-129286000D01*
X244852619Y-128905047D02*
X244852619Y-128286000D01*
X244471666Y-128619333D01*
X244471666Y-128476476D01*
X244424047Y-128381238D01*
X244376428Y-128333619D01*
X244281190Y-128286000D01*
X244043095Y-128286000D01*
X243947857Y-128333619D01*
X243900238Y-128381238D01*
X243852619Y-128476476D01*
X243852619Y-128762190D01*
X243900238Y-128857428D01*
X243947857Y-128905047D01*
D12*
X168849142Y-97453333D02*
X168849142Y-97186666D01*
X168430095Y-97072380D02*
X168430095Y-97453333D01*
X169230095Y-97453333D01*
X169230095Y-97072380D01*
X168430095Y-96310476D02*
X168430095Y-96767619D01*
X168430095Y-96539047D02*
X169230095Y-96539047D01*
X169115809Y-96615238D01*
X169039619Y-96691428D01*
X169001523Y-96767619D01*
X168963428Y-95624761D02*
X168430095Y-95624761D01*
X169268190Y-95815238D02*
X168696761Y-96005714D01*
X168696761Y-95510476D01*
X167561142Y-97167619D02*
X167561142Y-97434285D01*
X167142095Y-97434285D02*
X167942095Y-97434285D01*
X167942095Y-97053333D01*
X167142095Y-96329523D02*
X167142095Y-96786666D01*
X167142095Y-96558095D02*
X167942095Y-96558095D01*
X167827809Y-96634285D01*
X167751619Y-96710476D01*
X167713523Y-96786666D01*
X167942095Y-95643809D02*
X167942095Y-95796190D01*
X167904000Y-95872380D01*
X167865904Y-95910476D01*
X167751619Y-95986666D01*
X167599238Y-96024761D01*
X167294476Y-96024761D01*
X167218285Y-95986666D01*
X167180190Y-95948571D01*
X167142095Y-95872380D01*
X167142095Y-95720000D01*
X167180190Y-95643809D01*
X167218285Y-95605714D01*
X167294476Y-95567619D01*
X167484952Y-95567619D01*
X167561142Y-95605714D01*
X167599238Y-95643809D01*
X167637333Y-95720000D01*
X167637333Y-95872380D01*
X167599238Y-95948571D01*
X167561142Y-95986666D01*
X167484952Y-96024761D01*
D11*
X110567761Y-95845742D02*
X110615380Y-95893361D01*
X110758238Y-95940980D01*
X110853476Y-95940980D01*
X110996333Y-95893361D01*
X111091571Y-95798123D01*
X111139190Y-95702885D01*
X111186809Y-95512409D01*
X111186809Y-95369552D01*
X111139190Y-95179076D01*
X111091571Y-95083838D01*
X110996333Y-94988600D01*
X110853476Y-94940980D01*
X110758238Y-94940980D01*
X110615380Y-94988600D01*
X110567761Y-95036219D01*
X110139190Y-95845742D02*
X110091571Y-95893361D01*
X110139190Y-95940980D01*
X110186809Y-95893361D01*
X110139190Y-95845742D01*
X110139190Y-95940980D01*
X109710619Y-95893361D02*
X109567761Y-95940980D01*
X109329666Y-95940980D01*
X109234428Y-95893361D01*
X109186809Y-95845742D01*
X109139190Y-95750504D01*
X109139190Y-95655266D01*
X109186809Y-95560028D01*
X109234428Y-95512409D01*
X109329666Y-95464790D01*
X109520142Y-95417171D01*
X109615380Y-95369552D01*
X109663000Y-95321933D01*
X109710619Y-95226695D01*
X109710619Y-95131457D01*
X109663000Y-95036219D01*
X109615380Y-94988600D01*
X109520142Y-94940980D01*
X109282047Y-94940980D01*
X109139190Y-94988600D01*
X108139190Y-95845742D02*
X108186809Y-95893361D01*
X108329666Y-95940980D01*
X108424904Y-95940980D01*
X108567761Y-95893361D01*
X108663000Y-95798123D01*
X108710619Y-95702885D01*
X108758238Y-95512409D01*
X108758238Y-95369552D01*
X108710619Y-95179076D01*
X108663000Y-95083838D01*
X108567761Y-94988600D01*
X108424904Y-94940980D01*
X108329666Y-94940980D01*
X108186809Y-94988600D01*
X108139190Y-95036219D01*
X107710619Y-95940980D02*
X107710619Y-94940980D01*
X107139190Y-95940980D02*
X107567761Y-95369552D01*
X107139190Y-94940980D02*
X107710619Y-95512409D01*
X245462619Y-127738095D02*
X246462619Y-127738095D01*
X246462619Y-127357142D01*
X246415000Y-127261904D01*
X246367380Y-127214285D01*
X246272142Y-127166666D01*
X246129285Y-127166666D01*
X246034047Y-127214285D01*
X245986428Y-127261904D01*
X245938809Y-127357142D01*
X245938809Y-127738095D01*
X246367380Y-126785714D02*
X246415000Y-126738095D01*
X246462619Y-126642857D01*
X246462619Y-126404761D01*
X246415000Y-126309523D01*
X246367380Y-126261904D01*
X246272142Y-126214285D01*
X246176904Y-126214285D01*
X246034047Y-126261904D01*
X245462619Y-126833333D01*
X245462619Y-126214285D01*
X243852619Y-127738095D02*
X244852619Y-127738095D01*
X244852619Y-127357142D01*
X244805000Y-127261904D01*
X244757380Y-127214285D01*
X244662142Y-127166666D01*
X244519285Y-127166666D01*
X244424047Y-127214285D01*
X244376428Y-127261904D01*
X244328809Y-127357142D01*
X244328809Y-127738095D01*
X243852619Y-126214285D02*
X243852619Y-126785714D01*
X243852619Y-126500000D02*
X244852619Y-126500000D01*
X244709761Y-126595238D01*
X244614523Y-126690476D01*
X244566904Y-126785714D01*
X227682619Y-109704095D02*
X228682619Y-109704095D01*
X228682619Y-109323142D01*
X228635000Y-109227904D01*
X228587380Y-109180285D01*
X228492142Y-109132666D01*
X228349285Y-109132666D01*
X228254047Y-109180285D01*
X228206428Y-109227904D01*
X228158809Y-109323142D01*
X228158809Y-109704095D01*
X227682619Y-108656476D02*
X227682619Y-108466000D01*
X227730238Y-108370761D01*
X227777857Y-108323142D01*
X227920714Y-108227904D01*
X228111190Y-108180285D01*
X228492142Y-108180285D01*
X228587380Y-108227904D01*
X228635000Y-108275523D01*
X228682619Y-108370761D01*
X228682619Y-108561238D01*
X228635000Y-108656476D01*
X228587380Y-108704095D01*
X228492142Y-108751714D01*
X228254047Y-108751714D01*
X228158809Y-108704095D01*
X228111190Y-108656476D01*
X228063571Y-108561238D01*
X228063571Y-108370761D01*
X228111190Y-108275523D01*
X228158809Y-108227904D01*
X228254047Y-108180285D01*
X226072619Y-109704095D02*
X227072619Y-109704095D01*
X227072619Y-109323142D01*
X227025000Y-109227904D01*
X226977380Y-109180285D01*
X226882142Y-109132666D01*
X226739285Y-109132666D01*
X226644047Y-109180285D01*
X226596428Y-109227904D01*
X226548809Y-109323142D01*
X226548809Y-109704095D01*
X226644047Y-108561238D02*
X226691666Y-108656476D01*
X226739285Y-108704095D01*
X226834523Y-108751714D01*
X226882142Y-108751714D01*
X226977380Y-108704095D01*
X227025000Y-108656476D01*
X227072619Y-108561238D01*
X227072619Y-108370761D01*
X227025000Y-108275523D01*
X226977380Y-108227904D01*
X226882142Y-108180285D01*
X226834523Y-108180285D01*
X226739285Y-108227904D01*
X226691666Y-108275523D01*
X226644047Y-108370761D01*
X226644047Y-108561238D01*
X226596428Y-108656476D01*
X226548809Y-108704095D01*
X226453571Y-108751714D01*
X226263095Y-108751714D01*
X226167857Y-108704095D01*
X226120238Y-108656476D01*
X226072619Y-108561238D01*
X226072619Y-108370761D01*
X226120238Y-108275523D01*
X226167857Y-108227904D01*
X226263095Y-108180285D01*
X226453571Y-108180285D01*
X226548809Y-108227904D01*
X226596428Y-108275523D01*
X226644047Y-108370761D01*
X228635000Y-94513304D02*
X228682619Y-94608542D01*
X228682619Y-94751400D01*
X228635000Y-94894257D01*
X228539761Y-94989495D01*
X228444523Y-95037114D01*
X228254047Y-95084733D01*
X228111190Y-95084733D01*
X227920714Y-95037114D01*
X227825476Y-94989495D01*
X227730238Y-94894257D01*
X227682619Y-94751400D01*
X227682619Y-94656161D01*
X227730238Y-94513304D01*
X227777857Y-94465685D01*
X228111190Y-94465685D01*
X228111190Y-94656161D01*
X227682619Y-94037114D02*
X228682619Y-94037114D01*
X227682619Y-93465685D01*
X228682619Y-93465685D01*
X227682619Y-92989495D02*
X228682619Y-92989495D01*
X228682619Y-92751400D01*
X228635000Y-92608542D01*
X228539761Y-92513304D01*
X228444523Y-92465685D01*
X228254047Y-92418066D01*
X228111190Y-92418066D01*
X227920714Y-92465685D01*
X227825476Y-92513304D01*
X227730238Y-92608542D01*
X227682619Y-92751400D01*
X227682619Y-92989495D01*
X227025000Y-94513304D02*
X227072619Y-94608542D01*
X227072619Y-94751400D01*
X227025000Y-94894257D01*
X226929761Y-94989495D01*
X226834523Y-95037114D01*
X226644047Y-95084733D01*
X226501190Y-95084733D01*
X226310714Y-95037114D01*
X226215476Y-94989495D01*
X226120238Y-94894257D01*
X226072619Y-94751400D01*
X226072619Y-94656161D01*
X226120238Y-94513304D01*
X226167857Y-94465685D01*
X226501190Y-94465685D01*
X226501190Y-94656161D01*
X226072619Y-94037114D02*
X227072619Y-94037114D01*
X226072619Y-93465685D01*
X227072619Y-93465685D01*
X226072619Y-92989495D02*
X227072619Y-92989495D01*
X227072619Y-92751400D01*
X227025000Y-92608542D01*
X226929761Y-92513304D01*
X226834523Y-92465685D01*
X226644047Y-92418066D01*
X226501190Y-92418066D01*
X226310714Y-92465685D01*
X226215476Y-92513304D01*
X226120238Y-92608542D01*
X226072619Y-92751400D01*
X226072619Y-92989495D01*
X186121857Y-98718666D02*
X186074238Y-98766285D01*
X186026619Y-98909142D01*
X186026619Y-99004380D01*
X186074238Y-99147238D01*
X186169476Y-99242476D01*
X186264714Y-99290095D01*
X186455190Y-99337714D01*
X186598047Y-99337714D01*
X186788523Y-99290095D01*
X186883761Y-99242476D01*
X186979000Y-99147238D01*
X187026619Y-99004380D01*
X187026619Y-98909142D01*
X186979000Y-98766285D01*
X186931380Y-98718666D01*
X187026619Y-97813904D02*
X187026619Y-98290095D01*
X186550428Y-98337714D01*
X186598047Y-98290095D01*
X186645666Y-98194857D01*
X186645666Y-97956761D01*
X186598047Y-97861523D01*
X186550428Y-97813904D01*
X186455190Y-97766285D01*
X186217095Y-97766285D01*
X186121857Y-97813904D01*
X186074238Y-97861523D01*
X186026619Y-97956761D01*
X186026619Y-98194857D01*
X186074238Y-98290095D01*
X186121857Y-98337714D01*
X184940428Y-98956761D02*
X184892809Y-98813904D01*
X184845190Y-98766285D01*
X184749952Y-98718666D01*
X184607095Y-98718666D01*
X184511857Y-98766285D01*
X184464238Y-98813904D01*
X184416619Y-98909142D01*
X184416619Y-99290095D01*
X185416619Y-99290095D01*
X185416619Y-98956761D01*
X185369000Y-98861523D01*
X185321380Y-98813904D01*
X185226142Y-98766285D01*
X185130904Y-98766285D01*
X185035666Y-98813904D01*
X184988047Y-98861523D01*
X184940428Y-98956761D01*
X184940428Y-99290095D01*
X185416619Y-97861523D02*
X185416619Y-98052000D01*
X185369000Y-98147238D01*
X185321380Y-98194857D01*
X185178523Y-98290095D01*
X184988047Y-98337714D01*
X184607095Y-98337714D01*
X184511857Y-98290095D01*
X184464238Y-98242476D01*
X184416619Y-98147238D01*
X184416619Y-97956761D01*
X184464238Y-97861523D01*
X184511857Y-97813904D01*
X184607095Y-97766285D01*
X184845190Y-97766285D01*
X184940428Y-97813904D01*
X184988047Y-97861523D01*
X185035666Y-97956761D01*
X185035666Y-98147238D01*
X184988047Y-98242476D01*
X184940428Y-98290095D01*
X184845190Y-98337714D01*
X169453000Y-94487904D02*
X169500619Y-94583142D01*
X169500619Y-94726000D01*
X169453000Y-94868857D01*
X169357761Y-94964095D01*
X169262523Y-95011714D01*
X169072047Y-95059333D01*
X168929190Y-95059333D01*
X168738714Y-95011714D01*
X168643476Y-94964095D01*
X168548238Y-94868857D01*
X168500619Y-94726000D01*
X168500619Y-94630761D01*
X168548238Y-94487904D01*
X168595857Y-94440285D01*
X168929190Y-94440285D01*
X168929190Y-94630761D01*
X168500619Y-94011714D02*
X169500619Y-94011714D01*
X168500619Y-93440285D01*
X169500619Y-93440285D01*
X168500619Y-92964095D02*
X169500619Y-92964095D01*
X169500619Y-92726000D01*
X169453000Y-92583142D01*
X169357761Y-92487904D01*
X169262523Y-92440285D01*
X169072047Y-92392666D01*
X168929190Y-92392666D01*
X168738714Y-92440285D01*
X168643476Y-92487904D01*
X168548238Y-92583142D01*
X168500619Y-92726000D01*
X168500619Y-92964095D01*
X167843000Y-94487904D02*
X167890619Y-94583142D01*
X167890619Y-94726000D01*
X167843000Y-94868857D01*
X167747761Y-94964095D01*
X167652523Y-95011714D01*
X167462047Y-95059333D01*
X167319190Y-95059333D01*
X167128714Y-95011714D01*
X167033476Y-94964095D01*
X166938238Y-94868857D01*
X166890619Y-94726000D01*
X166890619Y-94630761D01*
X166938238Y-94487904D01*
X166985857Y-94440285D01*
X167319190Y-94440285D01*
X167319190Y-94630761D01*
X166890619Y-94011714D02*
X167890619Y-94011714D01*
X166890619Y-93440285D01*
X167890619Y-93440285D01*
X166890619Y-92964095D02*
X167890619Y-92964095D01*
X167890619Y-92726000D01*
X167843000Y-92583142D01*
X167747761Y-92487904D01*
X167652523Y-92440285D01*
X167462047Y-92392666D01*
X167319190Y-92392666D01*
X167128714Y-92440285D01*
X167033476Y-92487904D01*
X166938238Y-92583142D01*
X166890619Y-92726000D01*
X166890619Y-92964095D01*
X136031219Y-87598095D02*
X136031219Y-86979047D01*
X135650266Y-87312380D01*
X135650266Y-87169523D01*
X135602647Y-87074285D01*
X135555028Y-87026666D01*
X135459790Y-86979047D01*
X135221695Y-86979047D01*
X135126457Y-87026666D01*
X135078838Y-87074285D01*
X135031219Y-87169523D01*
X135031219Y-87455238D01*
X135078838Y-87550476D01*
X135126457Y-87598095D01*
X136031219Y-86693333D02*
X135031219Y-86360000D01*
X136031219Y-86026666D01*
X136031219Y-85788571D02*
X136031219Y-85169523D01*
X135650266Y-85502857D01*
X135650266Y-85360000D01*
X135602647Y-85264761D01*
X135555028Y-85217142D01*
X135459790Y-85169523D01*
X135221695Y-85169523D01*
X135126457Y-85217142D01*
X135078838Y-85264761D01*
X135031219Y-85360000D01*
X135031219Y-85645714D01*
X135078838Y-85740952D01*
X135126457Y-85788571D01*
X154975000Y-118871904D02*
X155022619Y-118967142D01*
X155022619Y-119110000D01*
X154975000Y-119252857D01*
X154879761Y-119348095D01*
X154784523Y-119395714D01*
X154594047Y-119443333D01*
X154451190Y-119443333D01*
X154260714Y-119395714D01*
X154165476Y-119348095D01*
X154070238Y-119252857D01*
X154022619Y-119110000D01*
X154022619Y-119014761D01*
X154070238Y-118871904D01*
X154117857Y-118824285D01*
X154451190Y-118824285D01*
X154451190Y-119014761D01*
X154022619Y-118395714D02*
X155022619Y-118395714D01*
X154022619Y-117824285D01*
X155022619Y-117824285D01*
X154022619Y-117348095D02*
X155022619Y-117348095D01*
X155022619Y-117110000D01*
X154975000Y-116967142D01*
X154879761Y-116871904D01*
X154784523Y-116824285D01*
X154594047Y-116776666D01*
X154451190Y-116776666D01*
X154260714Y-116824285D01*
X154165476Y-116871904D01*
X154070238Y-116967142D01*
X154022619Y-117110000D01*
X154022619Y-117348095D01*
X153412619Y-118443333D02*
X152412619Y-117776666D01*
X153412619Y-117776666D02*
X152412619Y-118443333D01*
X246415000Y-114807904D02*
X246462619Y-114903142D01*
X246462619Y-115046000D01*
X246415000Y-115188857D01*
X246319761Y-115284095D01*
X246224523Y-115331714D01*
X246034047Y-115379333D01*
X245891190Y-115379333D01*
X245700714Y-115331714D01*
X245605476Y-115284095D01*
X245510238Y-115188857D01*
X245462619Y-115046000D01*
X245462619Y-114950761D01*
X245510238Y-114807904D01*
X245557857Y-114760285D01*
X245891190Y-114760285D01*
X245891190Y-114950761D01*
X245462619Y-114331714D02*
X246462619Y-114331714D01*
X245462619Y-113760285D01*
X246462619Y-113760285D01*
X245462619Y-113284095D02*
X246462619Y-113284095D01*
X246462619Y-113046000D01*
X246415000Y-112903142D01*
X246319761Y-112807904D01*
X246224523Y-112760285D01*
X246034047Y-112712666D01*
X245891190Y-112712666D01*
X245700714Y-112760285D01*
X245605476Y-112807904D01*
X245510238Y-112903142D01*
X245462619Y-113046000D01*
X245462619Y-113284095D01*
X244805000Y-114807904D02*
X244852619Y-114903142D01*
X244852619Y-115046000D01*
X244805000Y-115188857D01*
X244709761Y-115284095D01*
X244614523Y-115331714D01*
X244424047Y-115379333D01*
X244281190Y-115379333D01*
X244090714Y-115331714D01*
X243995476Y-115284095D01*
X243900238Y-115188857D01*
X243852619Y-115046000D01*
X243852619Y-114950761D01*
X243900238Y-114807904D01*
X243947857Y-114760285D01*
X244281190Y-114760285D01*
X244281190Y-114950761D01*
X243852619Y-114331714D02*
X244852619Y-114331714D01*
X243852619Y-113760285D01*
X244852619Y-113760285D01*
X243852619Y-113284095D02*
X244852619Y-113284095D01*
X244852619Y-113046000D01*
X244805000Y-112903142D01*
X244709761Y-112807904D01*
X244614523Y-112760285D01*
X244424047Y-112712666D01*
X244281190Y-112712666D01*
X244090714Y-112760285D01*
X243995476Y-112807904D01*
X243900238Y-112903142D01*
X243852619Y-113046000D01*
X243852619Y-113284095D01*
D12*
X227612095Y-117557428D02*
X228412095Y-117557428D01*
X228412095Y-117252666D01*
X228374000Y-117176476D01*
X228335904Y-117138380D01*
X228259714Y-117100285D01*
X228145428Y-117100285D01*
X228069238Y-117138380D01*
X228031142Y-117176476D01*
X227993047Y-117252666D01*
X227993047Y-117557428D01*
X227612095Y-116338380D02*
X227612095Y-116795523D01*
X227612095Y-116566952D02*
X228412095Y-116566952D01*
X228297809Y-116643142D01*
X228221619Y-116719333D01*
X228183523Y-116795523D01*
X228412095Y-115843142D02*
X228412095Y-115766952D01*
X228374000Y-115690761D01*
X228335904Y-115652666D01*
X228259714Y-115614571D01*
X228107333Y-115576476D01*
X227916857Y-115576476D01*
X227764476Y-115614571D01*
X227688285Y-115652666D01*
X227650190Y-115690761D01*
X227612095Y-115766952D01*
X227612095Y-115843142D01*
X227650190Y-115919333D01*
X227688285Y-115957428D01*
X227764476Y-115995523D01*
X227916857Y-116033619D01*
X228107333Y-116033619D01*
X228259714Y-115995523D01*
X228335904Y-115957428D01*
X228374000Y-115919333D01*
X228412095Y-115843142D01*
X227124095Y-117576476D02*
X227124095Y-117119333D01*
X226324095Y-117347904D02*
X227124095Y-117347904D01*
X226324095Y-116433619D02*
X226324095Y-116890761D01*
X226324095Y-116662190D02*
X227124095Y-116662190D01*
X227009809Y-116738380D01*
X226933619Y-116814571D01*
X226895523Y-116890761D01*
X226324095Y-115671714D02*
X226324095Y-116128857D01*
X226324095Y-115900285D02*
X227124095Y-115900285D01*
X227009809Y-115976476D01*
X226933619Y-116052666D01*
X226895523Y-116128857D01*
D11*
X227682619Y-96686666D02*
X228158809Y-97020000D01*
X227682619Y-97258095D02*
X228682619Y-97258095D01*
X228682619Y-96877142D01*
X228635000Y-96781904D01*
X228587380Y-96734285D01*
X228492142Y-96686666D01*
X228349285Y-96686666D01*
X228254047Y-96734285D01*
X228206428Y-96781904D01*
X228158809Y-96877142D01*
X228158809Y-97258095D01*
X228682619Y-95781904D02*
X228682619Y-96258095D01*
X228206428Y-96305714D01*
X228254047Y-96258095D01*
X228301666Y-96162857D01*
X228301666Y-95924761D01*
X228254047Y-95829523D01*
X228206428Y-95781904D01*
X228111190Y-95734285D01*
X227873095Y-95734285D01*
X227777857Y-95781904D01*
X227730238Y-95829523D01*
X227682619Y-95924761D01*
X227682619Y-96162857D01*
X227730238Y-96258095D01*
X227777857Y-96305714D01*
X227072619Y-97281904D02*
X227072619Y-96710476D01*
X226072619Y-96996190D02*
X227072619Y-96996190D01*
X227072619Y-95900952D02*
X227072619Y-96377142D01*
X226596428Y-96424761D01*
X226644047Y-96377142D01*
X226691666Y-96281904D01*
X226691666Y-96043809D01*
X226644047Y-95948571D01*
X226596428Y-95900952D01*
X226501190Y-95853333D01*
X226263095Y-95853333D01*
X226167857Y-95900952D01*
X226120238Y-95948571D01*
X226072619Y-96043809D01*
X226072619Y-96281904D01*
X226120238Y-96377142D01*
X226167857Y-96424761D01*
D12*
X168849142Y-99707619D02*
X168849142Y-99974285D01*
X168430095Y-99974285D02*
X169230095Y-99974285D01*
X169230095Y-99593333D01*
X168430095Y-98869523D02*
X168430095Y-99326666D01*
X168430095Y-99098095D02*
X169230095Y-99098095D01*
X169115809Y-99174285D01*
X169039619Y-99250476D01*
X169001523Y-99326666D01*
X169230095Y-98145714D02*
X169230095Y-98526666D01*
X168849142Y-98564761D01*
X168887238Y-98526666D01*
X168925333Y-98450476D01*
X168925333Y-98260000D01*
X168887238Y-98183809D01*
X168849142Y-98145714D01*
X168772952Y-98107619D01*
X168582476Y-98107619D01*
X168506285Y-98145714D01*
X168468190Y-98183809D01*
X168430095Y-98260000D01*
X168430095Y-98450476D01*
X168468190Y-98526666D01*
X168506285Y-98564761D01*
X167904000Y-99612380D02*
X167942095Y-99688571D01*
X167942095Y-99802857D01*
X167904000Y-99917142D01*
X167827809Y-99993333D01*
X167751619Y-100031428D01*
X167599238Y-100069523D01*
X167484952Y-100069523D01*
X167332571Y-100031428D01*
X167256380Y-99993333D01*
X167180190Y-99917142D01*
X167142095Y-99802857D01*
X167142095Y-99726666D01*
X167180190Y-99612380D01*
X167218285Y-99574285D01*
X167484952Y-99574285D01*
X167484952Y-99726666D01*
X167142095Y-98812380D02*
X167142095Y-99269523D01*
X167142095Y-99040952D02*
X167942095Y-99040952D01*
X167827809Y-99117142D01*
X167751619Y-99193333D01*
X167713523Y-99269523D01*
X167942095Y-98126666D02*
X167942095Y-98279047D01*
X167904000Y-98355238D01*
X167865904Y-98393333D01*
X167751619Y-98469523D01*
X167599238Y-98507619D01*
X167294476Y-98507619D01*
X167218285Y-98469523D01*
X167180190Y-98431428D01*
X167142095Y-98355238D01*
X167142095Y-98202857D01*
X167180190Y-98126666D01*
X167218285Y-98088571D01*
X167294476Y-98050476D01*
X167484952Y-98050476D01*
X167561142Y-98088571D01*
X167599238Y-98126666D01*
X167637333Y-98202857D01*
X167637333Y-98355238D01*
X167599238Y-98431428D01*
X167561142Y-98469523D01*
X167484952Y-98507619D01*
D11*
X140987400Y-87147304D02*
X141035019Y-87242542D01*
X141035019Y-87385400D01*
X140987400Y-87528257D01*
X140892161Y-87623495D01*
X140796923Y-87671114D01*
X140606447Y-87718733D01*
X140463590Y-87718733D01*
X140273114Y-87671114D01*
X140177876Y-87623495D01*
X140082638Y-87528257D01*
X140035019Y-87385400D01*
X140035019Y-87290161D01*
X140082638Y-87147304D01*
X140130257Y-87099685D01*
X140463590Y-87099685D01*
X140463590Y-87290161D01*
X140035019Y-86671114D02*
X141035019Y-86671114D01*
X140035019Y-86099685D01*
X141035019Y-86099685D01*
X140035019Y-85623495D02*
X141035019Y-85623495D01*
X141035019Y-85385400D01*
X140987400Y-85242542D01*
X140892161Y-85147304D01*
X140796923Y-85099685D01*
X140606447Y-85052066D01*
X140463590Y-85052066D01*
X140273114Y-85099685D01*
X140177876Y-85147304D01*
X140082638Y-85242542D01*
X140035019Y-85385400D01*
X140035019Y-85623495D01*
X186979000Y-114782504D02*
X187026619Y-114877742D01*
X187026619Y-115020600D01*
X186979000Y-115163457D01*
X186883761Y-115258695D01*
X186788523Y-115306314D01*
X186598047Y-115353933D01*
X186455190Y-115353933D01*
X186264714Y-115306314D01*
X186169476Y-115258695D01*
X186074238Y-115163457D01*
X186026619Y-115020600D01*
X186026619Y-114925361D01*
X186074238Y-114782504D01*
X186121857Y-114734885D01*
X186455190Y-114734885D01*
X186455190Y-114925361D01*
X186026619Y-114306314D02*
X187026619Y-114306314D01*
X186026619Y-113734885D01*
X187026619Y-113734885D01*
X186026619Y-113258695D02*
X187026619Y-113258695D01*
X187026619Y-113020600D01*
X186979000Y-112877742D01*
X186883761Y-112782504D01*
X186788523Y-112734885D01*
X186598047Y-112687266D01*
X186455190Y-112687266D01*
X186264714Y-112734885D01*
X186169476Y-112782504D01*
X186074238Y-112877742D01*
X186026619Y-113020600D01*
X186026619Y-113258695D01*
X185369000Y-114782504D02*
X185416619Y-114877742D01*
X185416619Y-115020600D01*
X185369000Y-115163457D01*
X185273761Y-115258695D01*
X185178523Y-115306314D01*
X184988047Y-115353933D01*
X184845190Y-115353933D01*
X184654714Y-115306314D01*
X184559476Y-115258695D01*
X184464238Y-115163457D01*
X184416619Y-115020600D01*
X184416619Y-114925361D01*
X184464238Y-114782504D01*
X184511857Y-114734885D01*
X184845190Y-114734885D01*
X184845190Y-114925361D01*
X184416619Y-114306314D02*
X185416619Y-114306314D01*
X184416619Y-113734885D01*
X185416619Y-113734885D01*
X184416619Y-113258695D02*
X185416619Y-113258695D01*
X185416619Y-113020600D01*
X185369000Y-112877742D01*
X185273761Y-112782504D01*
X185178523Y-112734885D01*
X184988047Y-112687266D01*
X184845190Y-112687266D01*
X184654714Y-112734885D01*
X184559476Y-112782504D01*
X184464238Y-112877742D01*
X184416619Y-113020600D01*
X184416619Y-113258695D01*
D12*
X168430095Y-92157428D02*
X169230095Y-92157428D01*
X169230095Y-91966952D01*
X169192000Y-91852666D01*
X169115809Y-91776476D01*
X169039619Y-91738380D01*
X168887238Y-91700285D01*
X168772952Y-91700285D01*
X168620571Y-91738380D01*
X168544380Y-91776476D01*
X168468190Y-91852666D01*
X168430095Y-91966952D01*
X168430095Y-92157428D01*
X168430095Y-90938380D02*
X168430095Y-91395523D01*
X168430095Y-91166952D02*
X169230095Y-91166952D01*
X169115809Y-91243142D01*
X169039619Y-91319333D01*
X169001523Y-91395523D01*
X169230095Y-90214571D02*
X169230095Y-90595523D01*
X168849142Y-90633619D01*
X168887238Y-90595523D01*
X168925333Y-90519333D01*
X168925333Y-90328857D01*
X168887238Y-90252666D01*
X168849142Y-90214571D01*
X168772952Y-90176476D01*
X168582476Y-90176476D01*
X168506285Y-90214571D01*
X168468190Y-90252666D01*
X168430095Y-90328857D01*
X168430095Y-90519333D01*
X168468190Y-90595523D01*
X168506285Y-90633619D01*
X167561142Y-92119333D02*
X167561142Y-91852666D01*
X167142095Y-91738380D02*
X167142095Y-92119333D01*
X167942095Y-92119333D01*
X167942095Y-91738380D01*
X167142095Y-90976476D02*
X167142095Y-91433619D01*
X167142095Y-91205047D02*
X167942095Y-91205047D01*
X167827809Y-91281238D01*
X167751619Y-91357428D01*
X167713523Y-91433619D01*
X167942095Y-90290761D02*
X167942095Y-90443142D01*
X167904000Y-90519333D01*
X167865904Y-90557428D01*
X167751619Y-90633619D01*
X167599238Y-90671714D01*
X167294476Y-90671714D01*
X167218285Y-90633619D01*
X167180190Y-90595523D01*
X167142095Y-90519333D01*
X167142095Y-90366952D01*
X167180190Y-90290761D01*
X167218285Y-90252666D01*
X167294476Y-90214571D01*
X167484952Y-90214571D01*
X167561142Y-90252666D01*
X167599238Y-90290761D01*
X167637333Y-90366952D01*
X167637333Y-90519333D01*
X167599238Y-90595523D01*
X167561142Y-90633619D01*
X167484952Y-90671714D01*
D11*
X245986428Y-86764761D02*
X245938809Y-86621904D01*
X245891190Y-86574285D01*
X245795952Y-86526666D01*
X245653095Y-86526666D01*
X245557857Y-86574285D01*
X245510238Y-86621904D01*
X245462619Y-86717142D01*
X245462619Y-87098095D01*
X246462619Y-87098095D01*
X246462619Y-86764761D01*
X246415000Y-86669523D01*
X246367380Y-86621904D01*
X246272142Y-86574285D01*
X246176904Y-86574285D01*
X246081666Y-86621904D01*
X246034047Y-86669523D01*
X245986428Y-86764761D01*
X245986428Y-87098095D01*
X246367380Y-86145714D02*
X246415000Y-86098095D01*
X246462619Y-86002857D01*
X246462619Y-85764761D01*
X246415000Y-85669523D01*
X246367380Y-85621904D01*
X246272142Y-85574285D01*
X246176904Y-85574285D01*
X246034047Y-85621904D01*
X245462619Y-86193333D01*
X245462619Y-85574285D01*
X244376428Y-86764761D02*
X244328809Y-86621904D01*
X244281190Y-86574285D01*
X244185952Y-86526666D01*
X244043095Y-86526666D01*
X243947857Y-86574285D01*
X243900238Y-86621904D01*
X243852619Y-86717142D01*
X243852619Y-87098095D01*
X244852619Y-87098095D01*
X244852619Y-86764761D01*
X244805000Y-86669523D01*
X244757380Y-86621904D01*
X244662142Y-86574285D01*
X244566904Y-86574285D01*
X244471666Y-86621904D01*
X244424047Y-86669523D01*
X244376428Y-86764761D01*
X244376428Y-87098095D01*
X243852619Y-85574285D02*
X243852619Y-86145714D01*
X243852619Y-85860000D02*
X244852619Y-85860000D01*
X244709761Y-85955238D01*
X244614523Y-86050476D01*
X244566904Y-86145714D01*
X228635000Y-84353304D02*
X228682619Y-84448542D01*
X228682619Y-84591400D01*
X228635000Y-84734257D01*
X228539761Y-84829495D01*
X228444523Y-84877114D01*
X228254047Y-84924733D01*
X228111190Y-84924733D01*
X227920714Y-84877114D01*
X227825476Y-84829495D01*
X227730238Y-84734257D01*
X227682619Y-84591400D01*
X227682619Y-84496161D01*
X227730238Y-84353304D01*
X227777857Y-84305685D01*
X228111190Y-84305685D01*
X228111190Y-84496161D01*
X227682619Y-83877114D02*
X228682619Y-83877114D01*
X227682619Y-83305685D01*
X228682619Y-83305685D01*
X227682619Y-82829495D02*
X228682619Y-82829495D01*
X228682619Y-82591400D01*
X228635000Y-82448542D01*
X228539761Y-82353304D01*
X228444523Y-82305685D01*
X228254047Y-82258066D01*
X228111190Y-82258066D01*
X227920714Y-82305685D01*
X227825476Y-82353304D01*
X227730238Y-82448542D01*
X227682619Y-82591400D01*
X227682619Y-82829495D01*
X227025000Y-84353304D02*
X227072619Y-84448542D01*
X227072619Y-84591400D01*
X227025000Y-84734257D01*
X226929761Y-84829495D01*
X226834523Y-84877114D01*
X226644047Y-84924733D01*
X226501190Y-84924733D01*
X226310714Y-84877114D01*
X226215476Y-84829495D01*
X226120238Y-84734257D01*
X226072619Y-84591400D01*
X226072619Y-84496161D01*
X226120238Y-84353304D01*
X226167857Y-84305685D01*
X226501190Y-84305685D01*
X226501190Y-84496161D01*
X226072619Y-83877114D02*
X227072619Y-83877114D01*
X226072619Y-83305685D01*
X227072619Y-83305685D01*
X226072619Y-82829495D02*
X227072619Y-82829495D01*
X227072619Y-82591400D01*
X227025000Y-82448542D01*
X226929761Y-82353304D01*
X226834523Y-82305685D01*
X226644047Y-82258066D01*
X226501190Y-82258066D01*
X226310714Y-82305685D01*
X226215476Y-82353304D01*
X226120238Y-82448542D01*
X226072619Y-82591400D01*
X226072619Y-82829495D01*
X245557857Y-88812666D02*
X245510238Y-88860285D01*
X245462619Y-89003142D01*
X245462619Y-89098380D01*
X245510238Y-89241238D01*
X245605476Y-89336476D01*
X245700714Y-89384095D01*
X245891190Y-89431714D01*
X246034047Y-89431714D01*
X246224523Y-89384095D01*
X246319761Y-89336476D01*
X246415000Y-89241238D01*
X246462619Y-89098380D01*
X246462619Y-89003142D01*
X246415000Y-88860285D01*
X246367380Y-88812666D01*
X246367380Y-88431714D02*
X246415000Y-88384095D01*
X246462619Y-88288857D01*
X246462619Y-88050761D01*
X246415000Y-87955523D01*
X246367380Y-87907904D01*
X246272142Y-87860285D01*
X246176904Y-87860285D01*
X246034047Y-87907904D01*
X245462619Y-88479333D01*
X245462619Y-87860285D01*
X243947857Y-88812666D02*
X243900238Y-88860285D01*
X243852619Y-89003142D01*
X243852619Y-89098380D01*
X243900238Y-89241238D01*
X243995476Y-89336476D01*
X244090714Y-89384095D01*
X244281190Y-89431714D01*
X244424047Y-89431714D01*
X244614523Y-89384095D01*
X244709761Y-89336476D01*
X244805000Y-89241238D01*
X244852619Y-89098380D01*
X244852619Y-89003142D01*
X244805000Y-88860285D01*
X244757380Y-88812666D01*
X243852619Y-87860285D02*
X243852619Y-88431714D01*
X243852619Y-88146000D02*
X244852619Y-88146000D01*
X244709761Y-88241238D01*
X244614523Y-88336476D01*
X244566904Y-88431714D01*
X228635000Y-104673304D02*
X228682619Y-104768542D01*
X228682619Y-104911400D01*
X228635000Y-105054257D01*
X228539761Y-105149495D01*
X228444523Y-105197114D01*
X228254047Y-105244733D01*
X228111190Y-105244733D01*
X227920714Y-105197114D01*
X227825476Y-105149495D01*
X227730238Y-105054257D01*
X227682619Y-104911400D01*
X227682619Y-104816161D01*
X227730238Y-104673304D01*
X227777857Y-104625685D01*
X228111190Y-104625685D01*
X228111190Y-104816161D01*
X227682619Y-104197114D02*
X228682619Y-104197114D01*
X227682619Y-103625685D01*
X228682619Y-103625685D01*
X227682619Y-103149495D02*
X228682619Y-103149495D01*
X228682619Y-102911400D01*
X228635000Y-102768542D01*
X228539761Y-102673304D01*
X228444523Y-102625685D01*
X228254047Y-102578066D01*
X228111190Y-102578066D01*
X227920714Y-102625685D01*
X227825476Y-102673304D01*
X227730238Y-102768542D01*
X227682619Y-102911400D01*
X227682619Y-103149495D01*
X227025000Y-104673304D02*
X227072619Y-104768542D01*
X227072619Y-104911400D01*
X227025000Y-105054257D01*
X226929761Y-105149495D01*
X226834523Y-105197114D01*
X226644047Y-105244733D01*
X226501190Y-105244733D01*
X226310714Y-105197114D01*
X226215476Y-105149495D01*
X226120238Y-105054257D01*
X226072619Y-104911400D01*
X226072619Y-104816161D01*
X226120238Y-104673304D01*
X226167857Y-104625685D01*
X226501190Y-104625685D01*
X226501190Y-104816161D01*
X226072619Y-104197114D02*
X227072619Y-104197114D01*
X226072619Y-103625685D01*
X227072619Y-103625685D01*
X226072619Y-103149495D02*
X227072619Y-103149495D01*
X227072619Y-102911400D01*
X227025000Y-102768542D01*
X226929761Y-102673304D01*
X226834523Y-102625685D01*
X226644047Y-102578066D01*
X226501190Y-102578066D01*
X226310714Y-102625685D01*
X226215476Y-102673304D01*
X226120238Y-102768542D01*
X226072619Y-102911400D01*
X226072619Y-103149495D01*
D12*
X186375142Y-122116761D02*
X186337047Y-122002476D01*
X186298952Y-121964380D01*
X186222761Y-121926285D01*
X186108476Y-121926285D01*
X186032285Y-121964380D01*
X185994190Y-122002476D01*
X185956095Y-122078666D01*
X185956095Y-122383428D01*
X186756095Y-122383428D01*
X186756095Y-122116761D01*
X186718000Y-122040571D01*
X186679904Y-122002476D01*
X186603714Y-121964380D01*
X186527523Y-121964380D01*
X186451333Y-122002476D01*
X186413238Y-122040571D01*
X186375142Y-122116761D01*
X186375142Y-122383428D01*
X185956095Y-121164380D02*
X185956095Y-121621523D01*
X185956095Y-121392952D02*
X186756095Y-121392952D01*
X186641809Y-121469142D01*
X186565619Y-121545333D01*
X186527523Y-121621523D01*
X185956095Y-120402476D02*
X185956095Y-120859619D01*
X185956095Y-120631047D02*
X186756095Y-120631047D01*
X186641809Y-120707238D01*
X186565619Y-120783428D01*
X186527523Y-120859619D01*
X185087142Y-122116761D02*
X185049047Y-122002476D01*
X185010952Y-121964380D01*
X184934761Y-121926285D01*
X184820476Y-121926285D01*
X184744285Y-121964380D01*
X184706190Y-122002476D01*
X184668095Y-122078666D01*
X184668095Y-122383428D01*
X185468095Y-122383428D01*
X185468095Y-122116761D01*
X185430000Y-122040571D01*
X185391904Y-122002476D01*
X185315714Y-121964380D01*
X185239523Y-121964380D01*
X185163333Y-122002476D01*
X185125238Y-122040571D01*
X185087142Y-122116761D01*
X185087142Y-122383428D01*
X184668095Y-121164380D02*
X184668095Y-121621523D01*
X184668095Y-121392952D02*
X185468095Y-121392952D01*
X185353809Y-121469142D01*
X185277619Y-121545333D01*
X185239523Y-121621523D01*
X185391904Y-120859619D02*
X185430000Y-120821523D01*
X185468095Y-120745333D01*
X185468095Y-120554857D01*
X185430000Y-120478666D01*
X185391904Y-120440571D01*
X185315714Y-120402476D01*
X185239523Y-120402476D01*
X185125238Y-120440571D01*
X184668095Y-120897714D01*
X184668095Y-120402476D01*
D11*
X227682619Y-106846666D02*
X228158809Y-107180000D01*
X227682619Y-107418095D02*
X228682619Y-107418095D01*
X228682619Y-107037142D01*
X228635000Y-106941904D01*
X228587380Y-106894285D01*
X228492142Y-106846666D01*
X228349285Y-106846666D01*
X228254047Y-106894285D01*
X228206428Y-106941904D01*
X228158809Y-107037142D01*
X228158809Y-107418095D01*
X227682619Y-106370476D02*
X227682619Y-106180000D01*
X227730238Y-106084761D01*
X227777857Y-106037142D01*
X227920714Y-105941904D01*
X228111190Y-105894285D01*
X228492142Y-105894285D01*
X228587380Y-105941904D01*
X228635000Y-105989523D01*
X228682619Y-106084761D01*
X228682619Y-106275238D01*
X228635000Y-106370476D01*
X228587380Y-106418095D01*
X228492142Y-106465714D01*
X228254047Y-106465714D01*
X228158809Y-106418095D01*
X228111190Y-106370476D01*
X228063571Y-106275238D01*
X228063571Y-106084761D01*
X228111190Y-105989523D01*
X228158809Y-105941904D01*
X228254047Y-105894285D01*
X227072619Y-107441904D02*
X227072619Y-106870476D01*
X226072619Y-107156190D02*
X227072619Y-107156190D01*
X226072619Y-106489523D02*
X226072619Y-106299047D01*
X226120238Y-106203809D01*
X226167857Y-106156190D01*
X226310714Y-106060952D01*
X226501190Y-106013333D01*
X226882142Y-106013333D01*
X226977380Y-106060952D01*
X227025000Y-106108571D01*
X227072619Y-106203809D01*
X227072619Y-106394285D01*
X227025000Y-106489523D01*
X226977380Y-106537142D01*
X226882142Y-106584761D01*
X226644047Y-106584761D01*
X226548809Y-106537142D01*
X226501190Y-106489523D01*
X226453571Y-106394285D01*
X226453571Y-106203809D01*
X226501190Y-106108571D01*
X226548809Y-106060952D01*
X226644047Y-106013333D01*
X186312333Y-109426285D02*
X186312333Y-108950095D01*
X186026619Y-109521523D02*
X187026619Y-109188190D01*
X186026619Y-108854857D01*
X187026619Y-108616761D02*
X187026619Y-107950095D01*
X186026619Y-108378666D01*
X184702333Y-109426285D02*
X184702333Y-108950095D01*
X184416619Y-109521523D02*
X185416619Y-109188190D01*
X184416619Y-108854857D01*
X184988047Y-108378666D02*
X185035666Y-108473904D01*
X185083285Y-108521523D01*
X185178523Y-108569142D01*
X185226142Y-108569142D01*
X185321380Y-108521523D01*
X185369000Y-108473904D01*
X185416619Y-108378666D01*
X185416619Y-108188190D01*
X185369000Y-108092952D01*
X185321380Y-108045333D01*
X185226142Y-107997714D01*
X185178523Y-107997714D01*
X185083285Y-108045333D01*
X185035666Y-108092952D01*
X184988047Y-108188190D01*
X184988047Y-108378666D01*
X184940428Y-108473904D01*
X184892809Y-108521523D01*
X184797571Y-108569142D01*
X184607095Y-108569142D01*
X184511857Y-108521523D01*
X184464238Y-108473904D01*
X184416619Y-108378666D01*
X184416619Y-108188190D01*
X184464238Y-108092952D01*
X184511857Y-108045333D01*
X184607095Y-107997714D01*
X184797571Y-107997714D01*
X184892809Y-108045333D01*
X184940428Y-108092952D01*
X184988047Y-108188190D01*
X246415000Y-84327904D02*
X246462619Y-84423142D01*
X246462619Y-84566000D01*
X246415000Y-84708857D01*
X246319761Y-84804095D01*
X246224523Y-84851714D01*
X246034047Y-84899333D01*
X245891190Y-84899333D01*
X245700714Y-84851714D01*
X245605476Y-84804095D01*
X245510238Y-84708857D01*
X245462619Y-84566000D01*
X245462619Y-84470761D01*
X245510238Y-84327904D01*
X245557857Y-84280285D01*
X245891190Y-84280285D01*
X245891190Y-84470761D01*
X245462619Y-83851714D02*
X246462619Y-83851714D01*
X245462619Y-83280285D01*
X246462619Y-83280285D01*
X245462619Y-82804095D02*
X246462619Y-82804095D01*
X246462619Y-82566000D01*
X246415000Y-82423142D01*
X246319761Y-82327904D01*
X246224523Y-82280285D01*
X246034047Y-82232666D01*
X245891190Y-82232666D01*
X245700714Y-82280285D01*
X245605476Y-82327904D01*
X245510238Y-82423142D01*
X245462619Y-82566000D01*
X245462619Y-82804095D01*
X244805000Y-84327904D02*
X244852619Y-84423142D01*
X244852619Y-84566000D01*
X244805000Y-84708857D01*
X244709761Y-84804095D01*
X244614523Y-84851714D01*
X244424047Y-84899333D01*
X244281190Y-84899333D01*
X244090714Y-84851714D01*
X243995476Y-84804095D01*
X243900238Y-84708857D01*
X243852619Y-84566000D01*
X243852619Y-84470761D01*
X243900238Y-84327904D01*
X243947857Y-84280285D01*
X244281190Y-84280285D01*
X244281190Y-84470761D01*
X243852619Y-83851714D02*
X244852619Y-83851714D01*
X243852619Y-83280285D01*
X244852619Y-83280285D01*
X243852619Y-82804095D02*
X244852619Y-82804095D01*
X244852619Y-82566000D01*
X244805000Y-82423142D01*
X244709761Y-82327904D01*
X244614523Y-82280285D01*
X244424047Y-82232666D01*
X244281190Y-82232666D01*
X244090714Y-82280285D01*
X243995476Y-82327904D01*
X243900238Y-82423142D01*
X243852619Y-82566000D01*
X243852619Y-82804095D01*
D12*
X168430095Y-122948571D02*
X169230095Y-122948571D01*
X168658666Y-122681904D01*
X169230095Y-122415238D01*
X168430095Y-122415238D01*
X168430095Y-121615238D02*
X168430095Y-122072380D01*
X168430095Y-121843809D02*
X169230095Y-121843809D01*
X169115809Y-121920000D01*
X169039619Y-121996190D01*
X169001523Y-122072380D01*
X169230095Y-120891428D02*
X169230095Y-121272380D01*
X168849142Y-121310476D01*
X168887238Y-121272380D01*
X168925333Y-121196190D01*
X168925333Y-121005714D01*
X168887238Y-120929523D01*
X168849142Y-120891428D01*
X168772952Y-120853333D01*
X168582476Y-120853333D01*
X168506285Y-120891428D01*
X168468190Y-120929523D01*
X168430095Y-121005714D01*
X168430095Y-121196190D01*
X168468190Y-121272380D01*
X168506285Y-121310476D01*
X167142095Y-122910476D02*
X167942095Y-122910476D01*
X167142095Y-122453333D01*
X167942095Y-122453333D01*
X167142095Y-121653333D02*
X167142095Y-122110476D01*
X167142095Y-121881904D02*
X167942095Y-121881904D01*
X167827809Y-121958095D01*
X167751619Y-122034285D01*
X167713523Y-122110476D01*
X167942095Y-120967619D02*
X167942095Y-121120000D01*
X167904000Y-121196190D01*
X167865904Y-121234285D01*
X167751619Y-121310476D01*
X167599238Y-121348571D01*
X167294476Y-121348571D01*
X167218285Y-121310476D01*
X167180190Y-121272380D01*
X167142095Y-121196190D01*
X167142095Y-121043809D01*
X167180190Y-120967619D01*
X167218285Y-120929523D01*
X167294476Y-120891428D01*
X167484952Y-120891428D01*
X167561142Y-120929523D01*
X167599238Y-120967619D01*
X167637333Y-121043809D01*
X167637333Y-121196190D01*
X167599238Y-121272380D01*
X167561142Y-121310476D01*
X167484952Y-121348571D01*
D11*
X154975000Y-136143904D02*
X155022619Y-136239142D01*
X155022619Y-136382000D01*
X154975000Y-136524857D01*
X154879761Y-136620095D01*
X154784523Y-136667714D01*
X154594047Y-136715333D01*
X154451190Y-136715333D01*
X154260714Y-136667714D01*
X154165476Y-136620095D01*
X154070238Y-136524857D01*
X154022619Y-136382000D01*
X154022619Y-136286761D01*
X154070238Y-136143904D01*
X154117857Y-136096285D01*
X154451190Y-136096285D01*
X154451190Y-136286761D01*
X154022619Y-135667714D02*
X155022619Y-135667714D01*
X154022619Y-135096285D01*
X155022619Y-135096285D01*
X154022619Y-134620095D02*
X155022619Y-134620095D01*
X155022619Y-134382000D01*
X154975000Y-134239142D01*
X154879761Y-134143904D01*
X154784523Y-134096285D01*
X154594047Y-134048666D01*
X154451190Y-134048666D01*
X154260714Y-134096285D01*
X154165476Y-134143904D01*
X154070238Y-134239142D01*
X154022619Y-134382000D01*
X154022619Y-134620095D01*
X152460238Y-136667714D02*
X152412619Y-136524857D01*
X152412619Y-136286761D01*
X152460238Y-136191523D01*
X152507857Y-136143904D01*
X152603095Y-136096285D01*
X152698333Y-136096285D01*
X152793571Y-136143904D01*
X152841190Y-136191523D01*
X152888809Y-136286761D01*
X152936428Y-136477238D01*
X152984047Y-136572476D01*
X153031666Y-136620095D01*
X153126904Y-136667714D01*
X153222142Y-136667714D01*
X153317380Y-136620095D01*
X153365000Y-136572476D01*
X153412619Y-136477238D01*
X153412619Y-136239142D01*
X153365000Y-136096285D01*
X152507857Y-135096285D02*
X152460238Y-135143904D01*
X152412619Y-135286761D01*
X152412619Y-135382000D01*
X152460238Y-135524857D01*
X152555476Y-135620095D01*
X152650714Y-135667714D01*
X152841190Y-135715333D01*
X152984047Y-135715333D01*
X153174523Y-135667714D01*
X153269761Y-135620095D01*
X153365000Y-135524857D01*
X153412619Y-135382000D01*
X153412619Y-135286761D01*
X153365000Y-135143904D01*
X153317380Y-135096285D01*
X152412619Y-134667714D02*
X153412619Y-134667714D01*
X152412619Y-134096285D02*
X152984047Y-134524857D01*
X153412619Y-134096285D02*
X152841190Y-134667714D01*
D12*
X168849142Y-86810761D02*
X168811047Y-86696476D01*
X168772952Y-86658380D01*
X168696761Y-86620285D01*
X168582476Y-86620285D01*
X168506285Y-86658380D01*
X168468190Y-86696476D01*
X168430095Y-86772666D01*
X168430095Y-87077428D01*
X169230095Y-87077428D01*
X169230095Y-86810761D01*
X169192000Y-86734571D01*
X169153904Y-86696476D01*
X169077714Y-86658380D01*
X169001523Y-86658380D01*
X168925333Y-86696476D01*
X168887238Y-86734571D01*
X168849142Y-86810761D01*
X168849142Y-87077428D01*
X168430095Y-85858380D02*
X168430095Y-86315523D01*
X168430095Y-86086952D02*
X169230095Y-86086952D01*
X169115809Y-86163142D01*
X169039619Y-86239333D01*
X169001523Y-86315523D01*
X169230095Y-85172666D02*
X169230095Y-85325047D01*
X169192000Y-85401238D01*
X169153904Y-85439333D01*
X169039619Y-85515523D01*
X168887238Y-85553619D01*
X168582476Y-85553619D01*
X168506285Y-85515523D01*
X168468190Y-85477428D01*
X168430095Y-85401238D01*
X168430095Y-85248857D01*
X168468190Y-85172666D01*
X168506285Y-85134571D01*
X168582476Y-85096476D01*
X168772952Y-85096476D01*
X168849142Y-85134571D01*
X168887238Y-85172666D01*
X168925333Y-85248857D01*
X168925333Y-85401238D01*
X168887238Y-85477428D01*
X168849142Y-85515523D01*
X168772952Y-85553619D01*
X167218285Y-86620285D02*
X167180190Y-86658380D01*
X167142095Y-86772666D01*
X167142095Y-86848857D01*
X167180190Y-86963142D01*
X167256380Y-87039333D01*
X167332571Y-87077428D01*
X167484952Y-87115523D01*
X167599238Y-87115523D01*
X167751619Y-87077428D01*
X167827809Y-87039333D01*
X167904000Y-86963142D01*
X167942095Y-86848857D01*
X167942095Y-86772666D01*
X167904000Y-86658380D01*
X167865904Y-86620285D01*
X167142095Y-85858380D02*
X167142095Y-86315523D01*
X167142095Y-86086952D02*
X167942095Y-86086952D01*
X167827809Y-86163142D01*
X167751619Y-86239333D01*
X167713523Y-86315523D01*
X167942095Y-85172666D02*
X167942095Y-85325047D01*
X167904000Y-85401238D01*
X167865904Y-85439333D01*
X167751619Y-85515523D01*
X167599238Y-85553619D01*
X167294476Y-85553619D01*
X167218285Y-85515523D01*
X167180190Y-85477428D01*
X167142095Y-85401238D01*
X167142095Y-85248857D01*
X167180190Y-85172666D01*
X167218285Y-85134571D01*
X167294476Y-85096476D01*
X167484952Y-85096476D01*
X167561142Y-85134571D01*
X167599238Y-85172666D01*
X167637333Y-85248857D01*
X167637333Y-85401238D01*
X167599238Y-85477428D01*
X167561142Y-85515523D01*
X167484952Y-85553619D01*
D11*
X186121857Y-96432666D02*
X186074238Y-96480285D01*
X186026619Y-96623142D01*
X186026619Y-96718380D01*
X186074238Y-96861238D01*
X186169476Y-96956476D01*
X186264714Y-97004095D01*
X186455190Y-97051714D01*
X186598047Y-97051714D01*
X186788523Y-97004095D01*
X186883761Y-96956476D01*
X186979000Y-96861238D01*
X187026619Y-96718380D01*
X187026619Y-96623142D01*
X186979000Y-96480285D01*
X186931380Y-96432666D01*
X186693285Y-95575523D02*
X186026619Y-95575523D01*
X187074238Y-95813619D02*
X186359952Y-96051714D01*
X186359952Y-95432666D01*
X184702333Y-96980285D02*
X184702333Y-96504095D01*
X184416619Y-97075523D02*
X185416619Y-96742190D01*
X184416619Y-96408857D01*
X185416619Y-95599333D02*
X185416619Y-96075523D01*
X184940428Y-96123142D01*
X184988047Y-96075523D01*
X185035666Y-95980285D01*
X185035666Y-95742190D01*
X184988047Y-95646952D01*
X184940428Y-95599333D01*
X184845190Y-95551714D01*
X184607095Y-95551714D01*
X184511857Y-95599333D01*
X184464238Y-95646952D01*
X184416619Y-95742190D01*
X184416619Y-95980285D01*
X184464238Y-96075523D01*
X184511857Y-96123142D01*
X246415000Y-104647904D02*
X246462619Y-104743142D01*
X246462619Y-104886000D01*
X246415000Y-105028857D01*
X246319761Y-105124095D01*
X246224523Y-105171714D01*
X246034047Y-105219333D01*
X245891190Y-105219333D01*
X245700714Y-105171714D01*
X245605476Y-105124095D01*
X245510238Y-105028857D01*
X245462619Y-104886000D01*
X245462619Y-104790761D01*
X245510238Y-104647904D01*
X245557857Y-104600285D01*
X245891190Y-104600285D01*
X245891190Y-104790761D01*
X245462619Y-104171714D02*
X246462619Y-104171714D01*
X245462619Y-103600285D01*
X246462619Y-103600285D01*
X245462619Y-103124095D02*
X246462619Y-103124095D01*
X246462619Y-102886000D01*
X246415000Y-102743142D01*
X246319761Y-102647904D01*
X246224523Y-102600285D01*
X246034047Y-102552666D01*
X245891190Y-102552666D01*
X245700714Y-102600285D01*
X245605476Y-102647904D01*
X245510238Y-102743142D01*
X245462619Y-102886000D01*
X245462619Y-103124095D01*
X244805000Y-104647904D02*
X244852619Y-104743142D01*
X244852619Y-104886000D01*
X244805000Y-105028857D01*
X244709761Y-105124095D01*
X244614523Y-105171714D01*
X244424047Y-105219333D01*
X244281190Y-105219333D01*
X244090714Y-105171714D01*
X243995476Y-105124095D01*
X243900238Y-105028857D01*
X243852619Y-104886000D01*
X243852619Y-104790761D01*
X243900238Y-104647904D01*
X243947857Y-104600285D01*
X244281190Y-104600285D01*
X244281190Y-104790761D01*
X243852619Y-104171714D02*
X244852619Y-104171714D01*
X243852619Y-103600285D01*
X244852619Y-103600285D01*
X243852619Y-103124095D02*
X244852619Y-103124095D01*
X244852619Y-102886000D01*
X244805000Y-102743142D01*
X244709761Y-102647904D01*
X244614523Y-102600285D01*
X244424047Y-102552666D01*
X244281190Y-102552666D01*
X244090714Y-102600285D01*
X243995476Y-102647904D01*
X243900238Y-102743142D01*
X243852619Y-102886000D01*
X243852619Y-103124095D01*
X228635000Y-114833304D02*
X228682619Y-114928542D01*
X228682619Y-115071400D01*
X228635000Y-115214257D01*
X228539761Y-115309495D01*
X228444523Y-115357114D01*
X228254047Y-115404733D01*
X228111190Y-115404733D01*
X227920714Y-115357114D01*
X227825476Y-115309495D01*
X227730238Y-115214257D01*
X227682619Y-115071400D01*
X227682619Y-114976161D01*
X227730238Y-114833304D01*
X227777857Y-114785685D01*
X228111190Y-114785685D01*
X228111190Y-114976161D01*
X227682619Y-114357114D02*
X228682619Y-114357114D01*
X227682619Y-113785685D01*
X228682619Y-113785685D01*
X227682619Y-113309495D02*
X228682619Y-113309495D01*
X228682619Y-113071400D01*
X228635000Y-112928542D01*
X228539761Y-112833304D01*
X228444523Y-112785685D01*
X228254047Y-112738066D01*
X228111190Y-112738066D01*
X227920714Y-112785685D01*
X227825476Y-112833304D01*
X227730238Y-112928542D01*
X227682619Y-113071400D01*
X227682619Y-113309495D01*
X227025000Y-114833304D02*
X227072619Y-114928542D01*
X227072619Y-115071400D01*
X227025000Y-115214257D01*
X226929761Y-115309495D01*
X226834523Y-115357114D01*
X226644047Y-115404733D01*
X226501190Y-115404733D01*
X226310714Y-115357114D01*
X226215476Y-115309495D01*
X226120238Y-115214257D01*
X226072619Y-115071400D01*
X226072619Y-114976161D01*
X226120238Y-114833304D01*
X226167857Y-114785685D01*
X226501190Y-114785685D01*
X226501190Y-114976161D01*
X226072619Y-114357114D02*
X227072619Y-114357114D01*
X226072619Y-113785685D01*
X227072619Y-113785685D01*
X226072619Y-113309495D02*
X227072619Y-113309495D01*
X227072619Y-113071400D01*
X227025000Y-112928542D01*
X226929761Y-112833304D01*
X226834523Y-112785685D01*
X226644047Y-112738066D01*
X226501190Y-112738066D01*
X226310714Y-112785685D01*
X226215476Y-112833304D01*
X226120238Y-112928542D01*
X226072619Y-113071400D01*
X226072619Y-113309495D01*
X227682619Y-91098666D02*
X228158809Y-91432000D01*
X227682619Y-91670095D02*
X228682619Y-91670095D01*
X228682619Y-91289142D01*
X228635000Y-91193904D01*
X228587380Y-91146285D01*
X228492142Y-91098666D01*
X228349285Y-91098666D01*
X228254047Y-91146285D01*
X228206428Y-91193904D01*
X228158809Y-91289142D01*
X228158809Y-91670095D01*
X228349285Y-90241523D02*
X227682619Y-90241523D01*
X228730238Y-90479619D02*
X228015952Y-90717714D01*
X228015952Y-90098666D01*
X226072619Y-91098666D02*
X226548809Y-91432000D01*
X226072619Y-91670095D02*
X227072619Y-91670095D01*
X227072619Y-91289142D01*
X227025000Y-91193904D01*
X226977380Y-91146285D01*
X226882142Y-91098666D01*
X226739285Y-91098666D01*
X226644047Y-91146285D01*
X226596428Y-91193904D01*
X226548809Y-91289142D01*
X226548809Y-91670095D01*
X227072619Y-90765333D02*
X227072619Y-90146285D01*
X226691666Y-90479619D01*
X226691666Y-90336761D01*
X226644047Y-90241523D01*
X226596428Y-90193904D01*
X226501190Y-90146285D01*
X226263095Y-90146285D01*
X226167857Y-90193904D01*
X226120238Y-90241523D01*
X226072619Y-90336761D01*
X226072619Y-90622476D01*
X226120238Y-90717714D01*
X226167857Y-90765333D01*
X136096095Y-98801180D02*
X136096095Y-97801180D01*
X135429428Y-97801180D02*
X135238952Y-97801180D01*
X135143714Y-97848800D01*
X135048476Y-97944038D01*
X135000857Y-98134514D01*
X135000857Y-98467847D01*
X135048476Y-98658323D01*
X135143714Y-98753561D01*
X135238952Y-98801180D01*
X135429428Y-98801180D01*
X135524666Y-98753561D01*
X135619904Y-98658323D01*
X135667523Y-98467847D01*
X135667523Y-98134514D01*
X135619904Y-97944038D01*
X135524666Y-97848800D01*
X135429428Y-97801180D01*
X134572285Y-98705942D02*
X134524666Y-98753561D01*
X134572285Y-98801180D01*
X134619904Y-98753561D01*
X134572285Y-98705942D01*
X134572285Y-98801180D01*
X134143714Y-98753561D02*
X134000857Y-98801180D01*
X133762761Y-98801180D01*
X133667523Y-98753561D01*
X133619904Y-98705942D01*
X133572285Y-98610704D01*
X133572285Y-98515466D01*
X133619904Y-98420228D01*
X133667523Y-98372609D01*
X133762761Y-98324990D01*
X133953238Y-98277371D01*
X134048476Y-98229752D01*
X134096095Y-98182133D01*
X134143714Y-98086895D01*
X134143714Y-97991657D01*
X134096095Y-97896419D01*
X134048476Y-97848800D01*
X133953238Y-97801180D01*
X133715142Y-97801180D01*
X133572285Y-97848800D01*
X132572285Y-98705942D02*
X132619904Y-98753561D01*
X132762761Y-98801180D01*
X132858000Y-98801180D01*
X133000857Y-98753561D01*
X133096095Y-98658323D01*
X133143714Y-98563085D01*
X133191333Y-98372609D01*
X133191333Y-98229752D01*
X133143714Y-98039276D01*
X133096095Y-97944038D01*
X133000857Y-97848800D01*
X132858000Y-97801180D01*
X132762761Y-97801180D01*
X132619904Y-97848800D01*
X132572285Y-97896419D01*
X132143714Y-98801180D02*
X132143714Y-97801180D01*
X131572285Y-98801180D02*
X132000857Y-98229752D01*
X131572285Y-97801180D02*
X132143714Y-98372609D01*
D13*
X191840285Y-66440857D02*
X192340285Y-66440857D01*
X192340285Y-67226571D02*
X192340285Y-65726571D01*
X191626000Y-65726571D01*
X191054571Y-67226571D02*
X191054571Y-65726571D01*
X190483142Y-65726571D01*
X190340285Y-65798000D01*
X190268857Y-65869428D01*
X190197428Y-66012285D01*
X190197428Y-66226571D01*
X190268857Y-66369428D01*
X190340285Y-66440857D01*
X190483142Y-66512285D01*
X191054571Y-66512285D01*
X188768857Y-65798000D02*
X188911714Y-65726571D01*
X189126000Y-65726571D01*
X189340285Y-65798000D01*
X189483142Y-65940857D01*
X189554571Y-66083714D01*
X189626000Y-66369428D01*
X189626000Y-66583714D01*
X189554571Y-66869428D01*
X189483142Y-67012285D01*
X189340285Y-67155142D01*
X189126000Y-67226571D01*
X188983142Y-67226571D01*
X188768857Y-67155142D01*
X188697428Y-67083714D01*
X188697428Y-66583714D01*
X188983142Y-66583714D01*
X188126000Y-66798000D02*
X187411714Y-66798000D01*
X188268857Y-67226571D02*
X187768857Y-65726571D01*
X187268857Y-67226571D01*
X185626000Y-65726571D02*
X185626000Y-66940857D01*
X185554571Y-67083714D01*
X185483142Y-67155142D01*
X185340285Y-67226571D01*
X185054571Y-67226571D01*
X184911714Y-67155142D01*
X184840285Y-67083714D01*
X184768857Y-66940857D01*
X184768857Y-65726571D01*
X184126000Y-67155142D02*
X183911714Y-67226571D01*
X183554571Y-67226571D01*
X183411714Y-67155142D01*
X183340285Y-67083714D01*
X183268857Y-66940857D01*
X183268857Y-66798000D01*
X183340285Y-66655142D01*
X183411714Y-66583714D01*
X183554571Y-66512285D01*
X183840285Y-66440857D01*
X183983142Y-66369428D01*
X184054571Y-66298000D01*
X184126000Y-66155142D01*
X184126000Y-66012285D01*
X184054571Y-65869428D01*
X183983142Y-65798000D01*
X183840285Y-65726571D01*
X183483142Y-65726571D01*
X183268857Y-65798000D01*
X182126000Y-66440857D02*
X181911714Y-66512285D01*
X181840285Y-66583714D01*
X181768857Y-66726571D01*
X181768857Y-66940857D01*
X181840285Y-67083714D01*
X181911714Y-67155142D01*
X182054571Y-67226571D01*
X182626000Y-67226571D01*
X182626000Y-65726571D01*
X182126000Y-65726571D01*
X181983142Y-65798000D01*
X181911714Y-65869428D01*
X181840285Y-66012285D01*
X181840285Y-66155142D01*
X181911714Y-66298000D01*
X181983142Y-66369428D01*
X182126000Y-66440857D01*
X182626000Y-66440857D01*
X179554571Y-67726571D02*
X179911714Y-67726571D01*
X179911714Y-65583714D01*
X179554571Y-65583714D01*
X178983142Y-67226571D02*
X178983142Y-65726571D01*
X178983142Y-66440857D02*
X178126000Y-66440857D01*
X178126000Y-67226571D02*
X178126000Y-65726571D01*
X177411714Y-66440857D02*
X176911714Y-66440857D01*
X176697428Y-67226571D02*
X177411714Y-67226571D01*
X177411714Y-65726571D01*
X176697428Y-65726571D01*
X175197428Y-67226571D02*
X175697428Y-66512285D01*
X176054571Y-67226571D02*
X176054571Y-65726571D01*
X175483142Y-65726571D01*
X175340285Y-65798000D01*
X175268857Y-65869428D01*
X175197428Y-66012285D01*
X175197428Y-66226571D01*
X175268857Y-66369428D01*
X175340285Y-66440857D01*
X175483142Y-66512285D01*
X176054571Y-66512285D01*
X174554571Y-66440857D02*
X174054571Y-66440857D01*
X173840285Y-67226571D02*
X174554571Y-67226571D01*
X174554571Y-65726571D01*
X173840285Y-65726571D01*
X173340285Y-67726571D02*
X172983142Y-67726571D01*
X172983142Y-65583714D01*
X173340285Y-65583714D01*
D11*
X245462619Y-91670095D02*
X246462619Y-91670095D01*
X246462619Y-91432000D01*
X246415000Y-91289142D01*
X246319761Y-91193904D01*
X246224523Y-91146285D01*
X246034047Y-91098666D01*
X245891190Y-91098666D01*
X245700714Y-91146285D01*
X245605476Y-91193904D01*
X245510238Y-91289142D01*
X245462619Y-91432000D01*
X245462619Y-91670095D01*
X246367380Y-90717714D02*
X246415000Y-90670095D01*
X246462619Y-90574857D01*
X246462619Y-90336761D01*
X246415000Y-90241523D01*
X246367380Y-90193904D01*
X246272142Y-90146285D01*
X246176904Y-90146285D01*
X246034047Y-90193904D01*
X245462619Y-90765333D01*
X245462619Y-90146285D01*
X243852619Y-91670095D02*
X244852619Y-91670095D01*
X244852619Y-91432000D01*
X244805000Y-91289142D01*
X244709761Y-91193904D01*
X244614523Y-91146285D01*
X244424047Y-91098666D01*
X244281190Y-91098666D01*
X244090714Y-91146285D01*
X243995476Y-91193904D01*
X243900238Y-91289142D01*
X243852619Y-91432000D01*
X243852619Y-91670095D01*
X243852619Y-90146285D02*
X243852619Y-90717714D01*
X243852619Y-90432000D02*
X244852619Y-90432000D01*
X244709761Y-90527238D01*
X244614523Y-90622476D01*
X244566904Y-90717714D01*
X228682619Y-101853904D02*
X228682619Y-101282476D01*
X227682619Y-101568190D02*
X228682619Y-101568190D01*
X228254047Y-100806285D02*
X228301666Y-100901523D01*
X228349285Y-100949142D01*
X228444523Y-100996761D01*
X228492142Y-100996761D01*
X228587380Y-100949142D01*
X228635000Y-100901523D01*
X228682619Y-100806285D01*
X228682619Y-100615809D01*
X228635000Y-100520571D01*
X228587380Y-100472952D01*
X228492142Y-100425333D01*
X228444523Y-100425333D01*
X228349285Y-100472952D01*
X228301666Y-100520571D01*
X228254047Y-100615809D01*
X228254047Y-100806285D01*
X228206428Y-100901523D01*
X228158809Y-100949142D01*
X228063571Y-100996761D01*
X227873095Y-100996761D01*
X227777857Y-100949142D01*
X227730238Y-100901523D01*
X227682619Y-100806285D01*
X227682619Y-100615809D01*
X227730238Y-100520571D01*
X227777857Y-100472952D01*
X227873095Y-100425333D01*
X228063571Y-100425333D01*
X228158809Y-100472952D01*
X228206428Y-100520571D01*
X228254047Y-100615809D01*
X227072619Y-101853904D02*
X227072619Y-101282476D01*
X226072619Y-101568190D02*
X227072619Y-101568190D01*
X227072619Y-101044380D02*
X227072619Y-100377714D01*
X226072619Y-100806285D01*
X227682619Y-98972666D02*
X228158809Y-99306000D01*
X227682619Y-99544095D02*
X228682619Y-99544095D01*
X228682619Y-99163142D01*
X228635000Y-99067904D01*
X228587380Y-99020285D01*
X228492142Y-98972666D01*
X228349285Y-98972666D01*
X228254047Y-99020285D01*
X228206428Y-99067904D01*
X228158809Y-99163142D01*
X228158809Y-99544095D01*
X228682619Y-98115523D02*
X228682619Y-98306000D01*
X228635000Y-98401238D01*
X228587380Y-98448857D01*
X228444523Y-98544095D01*
X228254047Y-98591714D01*
X227873095Y-98591714D01*
X227777857Y-98544095D01*
X227730238Y-98496476D01*
X227682619Y-98401238D01*
X227682619Y-98210761D01*
X227730238Y-98115523D01*
X227777857Y-98067904D01*
X227873095Y-98020285D01*
X228111190Y-98020285D01*
X228206428Y-98067904D01*
X228254047Y-98115523D01*
X228301666Y-98210761D01*
X228301666Y-98401238D01*
X228254047Y-98496476D01*
X228206428Y-98544095D01*
X228111190Y-98591714D01*
X227072619Y-99567904D02*
X227072619Y-98996476D01*
X226072619Y-99282190D02*
X227072619Y-99282190D01*
X227072619Y-98234571D02*
X227072619Y-98425047D01*
X227025000Y-98520285D01*
X226977380Y-98567904D01*
X226834523Y-98663142D01*
X226644047Y-98710761D01*
X226263095Y-98710761D01*
X226167857Y-98663142D01*
X226120238Y-98615523D01*
X226072619Y-98520285D01*
X226072619Y-98329809D01*
X226120238Y-98234571D01*
X226167857Y-98186952D01*
X226263095Y-98139333D01*
X226501190Y-98139333D01*
X226596428Y-98186952D01*
X226644047Y-98234571D01*
X226691666Y-98329809D01*
X226691666Y-98520285D01*
X226644047Y-98615523D01*
X226596428Y-98663142D01*
X226501190Y-98710761D01*
X154975000Y-106171904D02*
X155022619Y-106267142D01*
X155022619Y-106410000D01*
X154975000Y-106552857D01*
X154879761Y-106648095D01*
X154784523Y-106695714D01*
X154594047Y-106743333D01*
X154451190Y-106743333D01*
X154260714Y-106695714D01*
X154165476Y-106648095D01*
X154070238Y-106552857D01*
X154022619Y-106410000D01*
X154022619Y-106314761D01*
X154070238Y-106171904D01*
X154117857Y-106124285D01*
X154451190Y-106124285D01*
X154451190Y-106314761D01*
X154022619Y-105695714D02*
X155022619Y-105695714D01*
X154022619Y-105124285D01*
X155022619Y-105124285D01*
X154022619Y-104648095D02*
X155022619Y-104648095D01*
X155022619Y-104410000D01*
X154975000Y-104267142D01*
X154879761Y-104171904D01*
X154784523Y-104124285D01*
X154594047Y-104076666D01*
X154451190Y-104076666D01*
X154260714Y-104124285D01*
X154165476Y-104171904D01*
X154070238Y-104267142D01*
X154022619Y-104410000D01*
X154022619Y-104648095D01*
X153412619Y-105743333D02*
X152412619Y-105076666D01*
X153412619Y-105076666D02*
X152412619Y-105743333D01*
X186312333Y-86820285D02*
X186312333Y-86344095D01*
X186026619Y-86915523D02*
X187026619Y-86582190D01*
X186026619Y-86248857D01*
X186026619Y-85391714D02*
X186026619Y-85963142D01*
X186026619Y-85677428D02*
X187026619Y-85677428D01*
X186883761Y-85772666D01*
X186788523Y-85867904D01*
X186740904Y-85963142D01*
X184702333Y-86820285D02*
X184702333Y-86344095D01*
X184416619Y-86915523D02*
X185416619Y-86582190D01*
X184416619Y-86248857D01*
X185321380Y-85963142D02*
X185369000Y-85915523D01*
X185416619Y-85820285D01*
X185416619Y-85582190D01*
X185369000Y-85486952D01*
X185321380Y-85439333D01*
X185226142Y-85391714D01*
X185130904Y-85391714D01*
X184988047Y-85439333D01*
X184416619Y-86010761D01*
X184416619Y-85391714D01*
X154975000Y-126491904D02*
X155022619Y-126587142D01*
X155022619Y-126730000D01*
X154975000Y-126872857D01*
X154879761Y-126968095D01*
X154784523Y-127015714D01*
X154594047Y-127063333D01*
X154451190Y-127063333D01*
X154260714Y-127015714D01*
X154165476Y-126968095D01*
X154070238Y-126872857D01*
X154022619Y-126730000D01*
X154022619Y-126634761D01*
X154070238Y-126491904D01*
X154117857Y-126444285D01*
X154451190Y-126444285D01*
X154451190Y-126634761D01*
X154022619Y-126015714D02*
X155022619Y-126015714D01*
X154022619Y-125444285D01*
X155022619Y-125444285D01*
X154022619Y-124968095D02*
X155022619Y-124968095D01*
X155022619Y-124730000D01*
X154975000Y-124587142D01*
X154879761Y-124491904D01*
X154784523Y-124444285D01*
X154594047Y-124396666D01*
X154451190Y-124396666D01*
X154260714Y-124444285D01*
X154165476Y-124491904D01*
X154070238Y-124587142D01*
X154022619Y-124730000D01*
X154022619Y-124968095D01*
X153412619Y-126063333D02*
X152412619Y-125396666D01*
X153412619Y-125396666D02*
X152412619Y-126063333D01*
X245462619Y-122173904D02*
X246462619Y-122173904D01*
X245462619Y-121602476D01*
X246462619Y-121602476D01*
X246367380Y-121173904D02*
X246415000Y-121126285D01*
X246462619Y-121031047D01*
X246462619Y-120792952D01*
X246415000Y-120697714D01*
X246367380Y-120650095D01*
X246272142Y-120602476D01*
X246176904Y-120602476D01*
X246034047Y-120650095D01*
X245462619Y-121221523D01*
X245462619Y-120602476D01*
X243852619Y-122173904D02*
X244852619Y-122173904D01*
X243852619Y-121602476D01*
X244852619Y-121602476D01*
X244852619Y-121221523D02*
X244852619Y-120602476D01*
X244471666Y-120935809D01*
X244471666Y-120792952D01*
X244424047Y-120697714D01*
X244376428Y-120650095D01*
X244281190Y-120602476D01*
X244043095Y-120602476D01*
X243947857Y-120650095D01*
X243900238Y-120697714D01*
X243852619Y-120792952D01*
X243852619Y-121078666D01*
X243900238Y-121173904D01*
X243947857Y-121221523D01*
D12*
X168430095Y-127971428D02*
X169230095Y-127971428D01*
X169230095Y-127666666D01*
X169192000Y-127590476D01*
X169153904Y-127552380D01*
X169077714Y-127514285D01*
X168963428Y-127514285D01*
X168887238Y-127552380D01*
X168849142Y-127590476D01*
X168811047Y-127666666D01*
X168811047Y-127971428D01*
X168430095Y-126752380D02*
X168430095Y-127209523D01*
X168430095Y-126980952D02*
X169230095Y-126980952D01*
X169115809Y-127057142D01*
X169039619Y-127133333D01*
X169001523Y-127209523D01*
X169230095Y-126028571D02*
X169230095Y-126409523D01*
X168849142Y-126447619D01*
X168887238Y-126409523D01*
X168925333Y-126333333D01*
X168925333Y-126142857D01*
X168887238Y-126066666D01*
X168849142Y-126028571D01*
X168772952Y-125990476D01*
X168582476Y-125990476D01*
X168506285Y-126028571D01*
X168468190Y-126066666D01*
X168430095Y-126142857D01*
X168430095Y-126333333D01*
X168468190Y-126409523D01*
X168506285Y-126447619D01*
X167142095Y-127971428D02*
X167942095Y-127971428D01*
X167942095Y-127666666D01*
X167904000Y-127590476D01*
X167865904Y-127552380D01*
X167789714Y-127514285D01*
X167675428Y-127514285D01*
X167599238Y-127552380D01*
X167561142Y-127590476D01*
X167523047Y-127666666D01*
X167523047Y-127971428D01*
X167142095Y-126752380D02*
X167142095Y-127209523D01*
X167142095Y-126980952D02*
X167942095Y-126980952D01*
X167827809Y-127057142D01*
X167751619Y-127133333D01*
X167713523Y-127209523D01*
X167942095Y-126066666D02*
X167942095Y-126219047D01*
X167904000Y-126295238D01*
X167865904Y-126333333D01*
X167751619Y-126409523D01*
X167599238Y-126447619D01*
X167294476Y-126447619D01*
X167218285Y-126409523D01*
X167180190Y-126371428D01*
X167142095Y-126295238D01*
X167142095Y-126142857D01*
X167180190Y-126066666D01*
X167218285Y-126028571D01*
X167294476Y-125990476D01*
X167484952Y-125990476D01*
X167561142Y-126028571D01*
X167599238Y-126066666D01*
X167637333Y-126142857D01*
X167637333Y-126295238D01*
X167599238Y-126371428D01*
X167561142Y-126409523D01*
X167484952Y-126447619D01*
D11*
X246415000Y-94487904D02*
X246462619Y-94583142D01*
X246462619Y-94726000D01*
X246415000Y-94868857D01*
X246319761Y-94964095D01*
X246224523Y-95011714D01*
X246034047Y-95059333D01*
X245891190Y-95059333D01*
X245700714Y-95011714D01*
X245605476Y-94964095D01*
X245510238Y-94868857D01*
X245462619Y-94726000D01*
X245462619Y-94630761D01*
X245510238Y-94487904D01*
X245557857Y-94440285D01*
X245891190Y-94440285D01*
X245891190Y-94630761D01*
X245462619Y-94011714D02*
X246462619Y-94011714D01*
X245462619Y-93440285D01*
X246462619Y-93440285D01*
X245462619Y-92964095D02*
X246462619Y-92964095D01*
X246462619Y-92726000D01*
X246415000Y-92583142D01*
X246319761Y-92487904D01*
X246224523Y-92440285D01*
X246034047Y-92392666D01*
X245891190Y-92392666D01*
X245700714Y-92440285D01*
X245605476Y-92487904D01*
X245510238Y-92583142D01*
X245462619Y-92726000D01*
X245462619Y-92964095D01*
X244805000Y-94487904D02*
X244852619Y-94583142D01*
X244852619Y-94726000D01*
X244805000Y-94868857D01*
X244709761Y-94964095D01*
X244614523Y-95011714D01*
X244424047Y-95059333D01*
X244281190Y-95059333D01*
X244090714Y-95011714D01*
X243995476Y-94964095D01*
X243900238Y-94868857D01*
X243852619Y-94726000D01*
X243852619Y-94630761D01*
X243900238Y-94487904D01*
X243947857Y-94440285D01*
X244281190Y-94440285D01*
X244281190Y-94630761D01*
X243852619Y-94011714D02*
X244852619Y-94011714D01*
X243852619Y-93440285D01*
X244852619Y-93440285D01*
X243852619Y-92964095D02*
X244852619Y-92964095D01*
X244852619Y-92726000D01*
X244805000Y-92583142D01*
X244709761Y-92487904D01*
X244614523Y-92440285D01*
X244424047Y-92392666D01*
X244281190Y-92392666D01*
X244090714Y-92440285D01*
X243995476Y-92487904D01*
X243900238Y-92583142D01*
X243852619Y-92726000D01*
X243852619Y-92964095D01*
X110420133Y-93254942D02*
X110467752Y-93302561D01*
X110610609Y-93350180D01*
X110705847Y-93350180D01*
X110848704Y-93302561D01*
X110943942Y-93207323D01*
X110991561Y-93112085D01*
X111039180Y-92921609D01*
X111039180Y-92778752D01*
X110991561Y-92588276D01*
X110943942Y-92493038D01*
X110848704Y-92397800D01*
X110705847Y-92350180D01*
X110610609Y-92350180D01*
X110467752Y-92397800D01*
X110420133Y-92445419D01*
X109991561Y-93254942D02*
X109943942Y-93302561D01*
X109991561Y-93350180D01*
X110039180Y-93302561D01*
X109991561Y-93254942D01*
X109991561Y-93350180D01*
X109562990Y-93302561D02*
X109420133Y-93350180D01*
X109182038Y-93350180D01*
X109086800Y-93302561D01*
X109039180Y-93254942D01*
X108991561Y-93159704D01*
X108991561Y-93064466D01*
X109039180Y-92969228D01*
X109086800Y-92921609D01*
X109182038Y-92873990D01*
X109372514Y-92826371D01*
X109467752Y-92778752D01*
X109515371Y-92731133D01*
X109562990Y-92635895D01*
X109562990Y-92540657D01*
X109515371Y-92445419D01*
X109467752Y-92397800D01*
X109372514Y-92350180D01*
X109134419Y-92350180D01*
X108991561Y-92397800D01*
X108562990Y-93350180D02*
X108562990Y-92350180D01*
X108324895Y-92350180D01*
X108182038Y-92397800D01*
X108086800Y-92493038D01*
X108039180Y-92588276D01*
X107991561Y-92778752D01*
X107991561Y-92921609D01*
X108039180Y-93112085D01*
X108086800Y-93207323D01*
X108182038Y-93302561D01*
X108324895Y-93350180D01*
X108562990Y-93350180D01*
X107610609Y-93064466D02*
X107134419Y-93064466D01*
X107705847Y-93350180D02*
X107372514Y-92350180D01*
X107039180Y-93350180D01*
D12*
X168430095Y-107416476D02*
X169230095Y-107416476D01*
X168849142Y-107416476D02*
X168849142Y-106959333D01*
X168430095Y-106959333D02*
X169230095Y-106959333D01*
X168430095Y-106159333D02*
X168430095Y-106616476D01*
X168430095Y-106387904D02*
X169230095Y-106387904D01*
X169115809Y-106464095D01*
X169039619Y-106540285D01*
X169001523Y-106616476D01*
X168963428Y-105473619D02*
X168430095Y-105473619D01*
X169268190Y-105664095D02*
X168696761Y-105854571D01*
X168696761Y-105359333D01*
X167942095Y-107073619D02*
X167370666Y-107073619D01*
X167256380Y-107111714D01*
X167180190Y-107187904D01*
X167142095Y-107302190D01*
X167142095Y-107378380D01*
X167142095Y-106273619D02*
X167142095Y-106730761D01*
X167142095Y-106502190D02*
X167942095Y-106502190D01*
X167827809Y-106578380D01*
X167751619Y-106654571D01*
X167713523Y-106730761D01*
X167942095Y-105549809D02*
X167942095Y-105930761D01*
X167561142Y-105968857D01*
X167599238Y-105930761D01*
X167637333Y-105854571D01*
X167637333Y-105664095D01*
X167599238Y-105587904D01*
X167561142Y-105549809D01*
X167484952Y-105511714D01*
X167294476Y-105511714D01*
X167218285Y-105549809D01*
X167180190Y-105587904D01*
X167142095Y-105664095D01*
X167142095Y-105854571D01*
X167180190Y-105930761D01*
X167218285Y-105968857D01*
X228412095Y-127990476D02*
X228412095Y-127533333D01*
X227612095Y-127761904D02*
X228412095Y-127761904D01*
X227612095Y-126847619D02*
X227612095Y-127304761D01*
X227612095Y-127076190D02*
X228412095Y-127076190D01*
X228297809Y-127152380D01*
X228221619Y-127228571D01*
X228183523Y-127304761D01*
X228145428Y-126161904D02*
X227612095Y-126161904D01*
X228450190Y-126352380D02*
X227878761Y-126542857D01*
X227878761Y-126047619D01*
X227124095Y-127990476D02*
X227124095Y-127533333D01*
X226324095Y-127761904D02*
X227124095Y-127761904D01*
X226324095Y-126847619D02*
X226324095Y-127304761D01*
X226324095Y-127076190D02*
X227124095Y-127076190D01*
X227009809Y-127152380D01*
X226933619Y-127228571D01*
X226895523Y-127304761D01*
X227124095Y-126580952D02*
X227124095Y-126085714D01*
X226819333Y-126352380D01*
X226819333Y-126238095D01*
X226781238Y-126161904D01*
X226743142Y-126123809D01*
X226666952Y-126085714D01*
X226476476Y-126085714D01*
X226400285Y-126123809D01*
X226362190Y-126161904D01*
X226324095Y-126238095D01*
X226324095Y-126466666D01*
X226362190Y-126542857D01*
X226400285Y-126580952D01*
D11*
X245986428Y-96853333D02*
X245986428Y-97186666D01*
X245462619Y-97186666D02*
X246462619Y-97186666D01*
X246462619Y-96710476D01*
X245462619Y-95805714D02*
X245462619Y-96377142D01*
X245462619Y-96091428D02*
X246462619Y-96091428D01*
X246319761Y-96186666D01*
X246224523Y-96281904D01*
X246176904Y-96377142D01*
X244376428Y-97210476D02*
X244376428Y-96877142D01*
X243852619Y-96734285D02*
X243852619Y-97210476D01*
X244852619Y-97210476D01*
X244852619Y-96734285D01*
X244757380Y-96353333D02*
X244805000Y-96305714D01*
X244852619Y-96210476D01*
X244852619Y-95972380D01*
X244805000Y-95877142D01*
X244757380Y-95829523D01*
X244662142Y-95781904D01*
X244566904Y-95781904D01*
X244424047Y-95829523D01*
X243852619Y-96400952D01*
X243852619Y-95781904D01*
X133440419Y-86256428D02*
X133440419Y-86732619D01*
X132964228Y-86780238D01*
X133011847Y-86732619D01*
X133059466Y-86637380D01*
X133059466Y-86399285D01*
X133011847Y-86304047D01*
X132964228Y-86256428D01*
X132868990Y-86208809D01*
X132630895Y-86208809D01*
X132535657Y-86256428D01*
X132488038Y-86304047D01*
X132440419Y-86399285D01*
X132440419Y-86637380D01*
X132488038Y-86732619D01*
X132535657Y-86780238D01*
X133440419Y-85923095D02*
X132440419Y-85589761D01*
X133440419Y-85256428D01*
X155022619Y-93043333D02*
X154022619Y-92376666D01*
X155022619Y-92376666D02*
X154022619Y-93043333D01*
X153365000Y-93471904D02*
X153412619Y-93567142D01*
X153412619Y-93710000D01*
X153365000Y-93852857D01*
X153269761Y-93948095D01*
X153174523Y-93995714D01*
X152984047Y-94043333D01*
X152841190Y-94043333D01*
X152650714Y-93995714D01*
X152555476Y-93948095D01*
X152460238Y-93852857D01*
X152412619Y-93710000D01*
X152412619Y-93614761D01*
X152460238Y-93471904D01*
X152507857Y-93424285D01*
X152841190Y-93424285D01*
X152841190Y-93614761D01*
X152412619Y-92995714D02*
X153412619Y-92995714D01*
X152412619Y-92424285D01*
X153412619Y-92424285D01*
X152412619Y-91948095D02*
X153412619Y-91948095D01*
X153412619Y-91710000D01*
X153365000Y-91567142D01*
X153269761Y-91471904D01*
X153174523Y-91424285D01*
X152984047Y-91376666D01*
X152841190Y-91376666D01*
X152650714Y-91424285D01*
X152555476Y-91471904D01*
X152460238Y-91567142D01*
X152412619Y-91710000D01*
X152412619Y-91948095D01*
D12*
X186375142Y-129990761D02*
X186337047Y-129876476D01*
X186298952Y-129838380D01*
X186222761Y-129800285D01*
X186108476Y-129800285D01*
X186032285Y-129838380D01*
X185994190Y-129876476D01*
X185956095Y-129952666D01*
X185956095Y-130257428D01*
X186756095Y-130257428D01*
X186756095Y-129990761D01*
X186718000Y-129914571D01*
X186679904Y-129876476D01*
X186603714Y-129838380D01*
X186527523Y-129838380D01*
X186451333Y-129876476D01*
X186413238Y-129914571D01*
X186375142Y-129990761D01*
X186375142Y-130257428D01*
X185956095Y-129038380D02*
X185956095Y-129495523D01*
X185956095Y-129266952D02*
X186756095Y-129266952D01*
X186641809Y-129343142D01*
X186565619Y-129419333D01*
X186527523Y-129495523D01*
X186756095Y-128314571D02*
X186756095Y-128695523D01*
X186375142Y-128733619D01*
X186413238Y-128695523D01*
X186451333Y-128619333D01*
X186451333Y-128428857D01*
X186413238Y-128352666D01*
X186375142Y-128314571D01*
X186298952Y-128276476D01*
X186108476Y-128276476D01*
X186032285Y-128314571D01*
X185994190Y-128352666D01*
X185956095Y-128428857D01*
X185956095Y-128619333D01*
X185994190Y-128695523D01*
X186032285Y-128733619D01*
X184896666Y-130238380D02*
X184896666Y-129857428D01*
X184668095Y-130314571D02*
X185468095Y-130047904D01*
X184668095Y-129781238D01*
X184668095Y-129095523D02*
X184668095Y-129552666D01*
X184668095Y-129324095D02*
X185468095Y-129324095D01*
X185353809Y-129400285D01*
X185277619Y-129476476D01*
X185239523Y-129552666D01*
X185468095Y-128371714D02*
X185468095Y-128752666D01*
X185087142Y-128790761D01*
X185125238Y-128752666D01*
X185163333Y-128676476D01*
X185163333Y-128486000D01*
X185125238Y-128409809D01*
X185087142Y-128371714D01*
X185010952Y-128333619D01*
X184820476Y-128333619D01*
X184744285Y-128371714D01*
X184706190Y-128409809D01*
X184668095Y-128486000D01*
X184668095Y-128676476D01*
X184706190Y-128752666D01*
X184744285Y-128790761D01*
D11*
X155022619Y-110823333D02*
X154022619Y-110156666D01*
X155022619Y-110156666D02*
X154022619Y-110823333D01*
X153365000Y-111251904D02*
X153412619Y-111347142D01*
X153412619Y-111490000D01*
X153365000Y-111632857D01*
X153269761Y-111728095D01*
X153174523Y-111775714D01*
X152984047Y-111823333D01*
X152841190Y-111823333D01*
X152650714Y-111775714D01*
X152555476Y-111728095D01*
X152460238Y-111632857D01*
X152412619Y-111490000D01*
X152412619Y-111394761D01*
X152460238Y-111251904D01*
X152507857Y-111204285D01*
X152841190Y-111204285D01*
X152841190Y-111394761D01*
X152412619Y-110775714D02*
X153412619Y-110775714D01*
X152412619Y-110204285D01*
X153412619Y-110204285D01*
X152412619Y-109728095D02*
X153412619Y-109728095D01*
X153412619Y-109490000D01*
X153365000Y-109347142D01*
X153269761Y-109251904D01*
X153174523Y-109204285D01*
X152984047Y-109156666D01*
X152841190Y-109156666D01*
X152650714Y-109204285D01*
X152555476Y-109251904D01*
X152460238Y-109347142D01*
X152412619Y-109490000D01*
X152412619Y-109728095D01*
X245462619Y-101853904D02*
X246462619Y-101853904D01*
X245986428Y-101853904D02*
X245986428Y-101282476D01*
X245462619Y-101282476D02*
X246462619Y-101282476D01*
X245462619Y-100282476D02*
X245462619Y-100853904D01*
X245462619Y-100568190D02*
X246462619Y-100568190D01*
X246319761Y-100663428D01*
X246224523Y-100758666D01*
X246176904Y-100853904D01*
X244805000Y-101306285D02*
X244852619Y-101401523D01*
X244852619Y-101544380D01*
X244805000Y-101687238D01*
X244709761Y-101782476D01*
X244614523Y-101830095D01*
X244424047Y-101877714D01*
X244281190Y-101877714D01*
X244090714Y-101830095D01*
X243995476Y-101782476D01*
X243900238Y-101687238D01*
X243852619Y-101544380D01*
X243852619Y-101449142D01*
X243900238Y-101306285D01*
X243947857Y-101258666D01*
X244281190Y-101258666D01*
X244281190Y-101449142D01*
X244757380Y-100877714D02*
X244805000Y-100830095D01*
X244852619Y-100734857D01*
X244852619Y-100496761D01*
X244805000Y-100401523D01*
X244757380Y-100353904D01*
X244662142Y-100306285D01*
X244566904Y-100306285D01*
X244424047Y-100353904D01*
X243852619Y-100925333D01*
X243852619Y-100306285D01*
X143552800Y-87147304D02*
X143600419Y-87242542D01*
X143600419Y-87385400D01*
X143552800Y-87528257D01*
X143457561Y-87623495D01*
X143362323Y-87671114D01*
X143171847Y-87718733D01*
X143028990Y-87718733D01*
X142838514Y-87671114D01*
X142743276Y-87623495D01*
X142648038Y-87528257D01*
X142600419Y-87385400D01*
X142600419Y-87290161D01*
X142648038Y-87147304D01*
X142695657Y-87099685D01*
X143028990Y-87099685D01*
X143028990Y-87290161D01*
X142600419Y-86671114D02*
X143600419Y-86671114D01*
X142600419Y-86099685D01*
X143600419Y-86099685D01*
X142600419Y-85623495D02*
X143600419Y-85623495D01*
X143600419Y-85385400D01*
X143552800Y-85242542D01*
X143457561Y-85147304D01*
X143362323Y-85099685D01*
X143171847Y-85052066D01*
X143028990Y-85052066D01*
X142838514Y-85099685D01*
X142743276Y-85147304D01*
X142648038Y-85242542D01*
X142600419Y-85385400D01*
X142600419Y-85623495D01*
D13*
X119791314Y-92023085D02*
X119862742Y-91951657D01*
X119934171Y-91737371D01*
X119934171Y-91594514D01*
X119862742Y-91380228D01*
X119719885Y-91237371D01*
X119577028Y-91165942D01*
X119291314Y-91094514D01*
X119077028Y-91094514D01*
X118791314Y-91165942D01*
X118648457Y-91237371D01*
X118505600Y-91380228D01*
X118434171Y-91594514D01*
X118434171Y-91737371D01*
X118505600Y-91951657D01*
X118577028Y-92023085D01*
X118434171Y-92951657D02*
X118434171Y-93237371D01*
X118505600Y-93380228D01*
X118648457Y-93523085D01*
X118934171Y-93594514D01*
X119434171Y-93594514D01*
X119719885Y-93523085D01*
X119862742Y-93380228D01*
X119934171Y-93237371D01*
X119934171Y-92951657D01*
X119862742Y-92808800D01*
X119719885Y-92665942D01*
X119434171Y-92594514D01*
X118934171Y-92594514D01*
X118648457Y-92665942D01*
X118505600Y-92808800D01*
X118434171Y-92951657D01*
X119934171Y-94237371D02*
X118434171Y-94237371D01*
X119934171Y-95094514D01*
X118434171Y-95094514D01*
X119934171Y-95808800D02*
X118434171Y-95808800D01*
X119934171Y-96665942D01*
X118434171Y-96665942D01*
X119934171Y-98523085D02*
X118434171Y-98523085D01*
X118577028Y-99165942D02*
X118505600Y-99237371D01*
X118434171Y-99380228D01*
X118434171Y-99737371D01*
X118505600Y-99880228D01*
X118577028Y-99951657D01*
X118719885Y-100023085D01*
X118862742Y-100023085D01*
X119077028Y-99951657D01*
X119934171Y-99094514D01*
X119934171Y-100023085D01*
X119791314Y-101523085D02*
X119862742Y-101451657D01*
X119934171Y-101237371D01*
X119934171Y-101094514D01*
X119862742Y-100880228D01*
X119719885Y-100737371D01*
X119577028Y-100665942D01*
X119291314Y-100594514D01*
X119077028Y-100594514D01*
X118791314Y-100665942D01*
X118648457Y-100737371D01*
X118505600Y-100880228D01*
X118434171Y-101094514D01*
X118434171Y-101237371D01*
X118505600Y-101451657D01*
X118577028Y-101523085D01*
D11*
X246462619Y-109299333D02*
X245748333Y-109299333D01*
X245605476Y-109346952D01*
X245510238Y-109442190D01*
X245462619Y-109585047D01*
X245462619Y-109680285D01*
X245462619Y-108299333D02*
X245462619Y-108870761D01*
X245462619Y-108585047D02*
X246462619Y-108585047D01*
X246319761Y-108680285D01*
X246224523Y-108775523D01*
X246176904Y-108870761D01*
X244852619Y-109299333D02*
X244138333Y-109299333D01*
X243995476Y-109346952D01*
X243900238Y-109442190D01*
X243852619Y-109585047D01*
X243852619Y-109680285D01*
X244757380Y-108870761D02*
X244805000Y-108823142D01*
X244852619Y-108727904D01*
X244852619Y-108489809D01*
X244805000Y-108394571D01*
X244757380Y-108346952D01*
X244662142Y-108299333D01*
X244566904Y-108299333D01*
X244424047Y-108346952D01*
X243852619Y-108918380D01*
X243852619Y-108299333D01*
D12*
X227612095Y-120154571D02*
X228412095Y-120154571D01*
X227840666Y-119887904D01*
X228412095Y-119621238D01*
X227612095Y-119621238D01*
X227612095Y-118821238D02*
X227612095Y-119278380D01*
X227612095Y-119049809D02*
X228412095Y-119049809D01*
X228297809Y-119126000D01*
X228221619Y-119202190D01*
X228183523Y-119278380D01*
X227612095Y-118059333D02*
X227612095Y-118516476D01*
X227612095Y-118287904D02*
X228412095Y-118287904D01*
X228297809Y-118364095D01*
X228221619Y-118440285D01*
X228183523Y-118516476D01*
X226324095Y-120116476D02*
X227124095Y-120116476D01*
X226324095Y-119659333D01*
X227124095Y-119659333D01*
X226324095Y-118859333D02*
X226324095Y-119316476D01*
X226324095Y-119087904D02*
X227124095Y-119087904D01*
X227009809Y-119164095D01*
X226933619Y-119240285D01*
X226895523Y-119316476D01*
X227124095Y-118364095D02*
X227124095Y-118287904D01*
X227086000Y-118211714D01*
X227047904Y-118173619D01*
X226971714Y-118135523D01*
X226819333Y-118097428D01*
X226628857Y-118097428D01*
X226476476Y-118135523D01*
X226400285Y-118173619D01*
X226362190Y-118211714D01*
X226324095Y-118287904D01*
X226324095Y-118364095D01*
X226362190Y-118440285D01*
X226400285Y-118478380D01*
X226476476Y-118516476D01*
X226628857Y-118554571D01*
X226819333Y-118554571D01*
X226971714Y-118516476D01*
X227047904Y-118478380D01*
X227086000Y-118440285D01*
X227124095Y-118364095D01*
X168430095Y-132880000D02*
X169230095Y-132880000D01*
X169230095Y-132346666D02*
X169230095Y-132194285D01*
X169192000Y-132118095D01*
X169115809Y-132041904D01*
X168963428Y-132003809D01*
X168696761Y-132003809D01*
X168544380Y-132041904D01*
X168468190Y-132118095D01*
X168430095Y-132194285D01*
X168430095Y-132346666D01*
X168468190Y-132422857D01*
X168544380Y-132499047D01*
X168696761Y-132537142D01*
X168963428Y-132537142D01*
X169115809Y-132499047D01*
X169192000Y-132422857D01*
X169230095Y-132346666D01*
X168430095Y-131241904D02*
X168430095Y-131699047D01*
X168430095Y-131470476D02*
X169230095Y-131470476D01*
X169115809Y-131546666D01*
X169039619Y-131622857D01*
X169001523Y-131699047D01*
X167142095Y-132422857D02*
X167142095Y-132880000D01*
X167142095Y-132651428D02*
X167942095Y-132651428D01*
X167827809Y-132727619D01*
X167751619Y-132803809D01*
X167713523Y-132880000D01*
X167218285Y-132080000D02*
X167180190Y-132041904D01*
X167142095Y-132080000D01*
X167180190Y-132118095D01*
X167218285Y-132080000D01*
X167142095Y-132080000D01*
X167865904Y-131737142D02*
X167904000Y-131699047D01*
X167942095Y-131622857D01*
X167942095Y-131432380D01*
X167904000Y-131356190D01*
X167865904Y-131318095D01*
X167789714Y-131280000D01*
X167713523Y-131280000D01*
X167599238Y-131318095D01*
X167142095Y-131775238D01*
X167142095Y-131280000D01*
X227612095Y-111766285D02*
X227993047Y-112032952D01*
X227612095Y-112223428D02*
X228412095Y-112223428D01*
X228412095Y-111918666D01*
X228374000Y-111842476D01*
X228335904Y-111804380D01*
X228259714Y-111766285D01*
X228145428Y-111766285D01*
X228069238Y-111804380D01*
X228031142Y-111842476D01*
X227993047Y-111918666D01*
X227993047Y-112223428D01*
X227612095Y-111004380D02*
X227612095Y-111461523D01*
X227612095Y-111232952D02*
X228412095Y-111232952D01*
X228297809Y-111309142D01*
X228221619Y-111385333D01*
X228183523Y-111461523D01*
X228412095Y-110509142D02*
X228412095Y-110432952D01*
X228374000Y-110356761D01*
X228335904Y-110318666D01*
X228259714Y-110280571D01*
X228107333Y-110242476D01*
X227916857Y-110242476D01*
X227764476Y-110280571D01*
X227688285Y-110318666D01*
X227650190Y-110356761D01*
X227612095Y-110432952D01*
X227612095Y-110509142D01*
X227650190Y-110585333D01*
X227688285Y-110623428D01*
X227764476Y-110661523D01*
X227916857Y-110699619D01*
X228107333Y-110699619D01*
X228259714Y-110661523D01*
X228335904Y-110623428D01*
X228374000Y-110585333D01*
X228412095Y-110509142D01*
X227124095Y-112242476D02*
X227124095Y-111785333D01*
X226324095Y-112013904D02*
X227124095Y-112013904D01*
X226324095Y-111099619D02*
X226324095Y-111556761D01*
X226324095Y-111328190D02*
X227124095Y-111328190D01*
X227009809Y-111404380D01*
X226933619Y-111480571D01*
X226895523Y-111556761D01*
X227124095Y-110604380D02*
X227124095Y-110528190D01*
X227086000Y-110452000D01*
X227047904Y-110413904D01*
X226971714Y-110375809D01*
X226819333Y-110337714D01*
X226628857Y-110337714D01*
X226476476Y-110375809D01*
X226400285Y-110413904D01*
X226362190Y-110452000D01*
X226324095Y-110528190D01*
X226324095Y-110604380D01*
X226362190Y-110680571D01*
X226400285Y-110718666D01*
X226476476Y-110756761D01*
X226628857Y-110794857D01*
X226819333Y-110794857D01*
X226971714Y-110756761D01*
X227047904Y-110718666D01*
X227086000Y-110680571D01*
X227124095Y-110604380D01*
D11*
X228635000Y-124993304D02*
X228682619Y-125088542D01*
X228682619Y-125231400D01*
X228635000Y-125374257D01*
X228539761Y-125469495D01*
X228444523Y-125517114D01*
X228254047Y-125564733D01*
X228111190Y-125564733D01*
X227920714Y-125517114D01*
X227825476Y-125469495D01*
X227730238Y-125374257D01*
X227682619Y-125231400D01*
X227682619Y-125136161D01*
X227730238Y-124993304D01*
X227777857Y-124945685D01*
X228111190Y-124945685D01*
X228111190Y-125136161D01*
X227682619Y-124517114D02*
X228682619Y-124517114D01*
X227682619Y-123945685D01*
X228682619Y-123945685D01*
X227682619Y-123469495D02*
X228682619Y-123469495D01*
X228682619Y-123231400D01*
X228635000Y-123088542D01*
X228539761Y-122993304D01*
X228444523Y-122945685D01*
X228254047Y-122898066D01*
X228111190Y-122898066D01*
X227920714Y-122945685D01*
X227825476Y-122993304D01*
X227730238Y-123088542D01*
X227682619Y-123231400D01*
X227682619Y-123469495D01*
X227025000Y-124993304D02*
X227072619Y-125088542D01*
X227072619Y-125231400D01*
X227025000Y-125374257D01*
X226929761Y-125469495D01*
X226834523Y-125517114D01*
X226644047Y-125564733D01*
X226501190Y-125564733D01*
X226310714Y-125517114D01*
X226215476Y-125469495D01*
X226120238Y-125374257D01*
X226072619Y-125231400D01*
X226072619Y-125136161D01*
X226120238Y-124993304D01*
X226167857Y-124945685D01*
X226501190Y-124945685D01*
X226501190Y-125136161D01*
X226072619Y-124517114D02*
X227072619Y-124517114D01*
X226072619Y-123945685D01*
X227072619Y-123945685D01*
X226072619Y-123469495D02*
X227072619Y-123469495D01*
X227072619Y-123231400D01*
X227025000Y-123088542D01*
X226929761Y-122993304D01*
X226834523Y-122945685D01*
X226644047Y-122898066D01*
X226501190Y-122898066D01*
X226310714Y-122945685D01*
X226215476Y-122993304D01*
X226120238Y-123088542D01*
X226072619Y-123231400D01*
X226072619Y-123469495D01*
D12*
X169230095Y-112153619D02*
X168658666Y-112153619D01*
X168544380Y-112191714D01*
X168468190Y-112267904D01*
X168430095Y-112382190D01*
X168430095Y-112458380D01*
X168430095Y-111353619D02*
X168430095Y-111810761D01*
X168430095Y-111582190D02*
X169230095Y-111582190D01*
X169115809Y-111658380D01*
X169039619Y-111734571D01*
X169001523Y-111810761D01*
X168963428Y-110667904D02*
X168430095Y-110667904D01*
X169268190Y-110858380D02*
X168696761Y-111048857D01*
X168696761Y-110553619D01*
X167142095Y-112477428D02*
X167942095Y-112477428D01*
X167142095Y-112020285D02*
X167599238Y-112363142D01*
X167942095Y-112020285D02*
X167484952Y-112477428D01*
X167142095Y-111258380D02*
X167142095Y-111715523D01*
X167142095Y-111486952D02*
X167942095Y-111486952D01*
X167827809Y-111563142D01*
X167751619Y-111639333D01*
X167713523Y-111715523D01*
X167675428Y-110572666D02*
X167142095Y-110572666D01*
X167980190Y-110763142D02*
X167408761Y-110953619D01*
X167408761Y-110458380D01*
D11*
X148674666Y-98776180D02*
X148674666Y-97776180D01*
X148008000Y-97776180D02*
X147817523Y-97776180D01*
X147722285Y-97823800D01*
X147627047Y-97919038D01*
X147579428Y-98109514D01*
X147579428Y-98442847D01*
X147627047Y-98633323D01*
X147722285Y-98728561D01*
X147817523Y-98776180D01*
X148008000Y-98776180D01*
X148103238Y-98728561D01*
X148198476Y-98633323D01*
X148246095Y-98442847D01*
X148246095Y-98109514D01*
X148198476Y-97919038D01*
X148103238Y-97823800D01*
X148008000Y-97776180D01*
X147150857Y-98680942D02*
X147103238Y-98728561D01*
X147150857Y-98776180D01*
X147198476Y-98728561D01*
X147150857Y-98680942D01*
X147150857Y-98776180D01*
X146722285Y-98728561D02*
X146579428Y-98776180D01*
X146341333Y-98776180D01*
X146246095Y-98728561D01*
X146198476Y-98680942D01*
X146150857Y-98585704D01*
X146150857Y-98490466D01*
X146198476Y-98395228D01*
X146246095Y-98347609D01*
X146341333Y-98299990D01*
X146531809Y-98252371D01*
X146627047Y-98204752D01*
X146674666Y-98157133D01*
X146722285Y-98061895D01*
X146722285Y-97966657D01*
X146674666Y-97871419D01*
X146627047Y-97823800D01*
X146531809Y-97776180D01*
X146293714Y-97776180D01*
X146150857Y-97823800D01*
X145722285Y-98776180D02*
X145722285Y-97776180D01*
X145484190Y-97776180D01*
X145341333Y-97823800D01*
X145246095Y-97919038D01*
X145198476Y-98014276D01*
X145150857Y-98204752D01*
X145150857Y-98347609D01*
X145198476Y-98538085D01*
X145246095Y-98633323D01*
X145341333Y-98728561D01*
X145484190Y-98776180D01*
X145722285Y-98776180D01*
X144769904Y-98490466D02*
X144293714Y-98490466D01*
X144865142Y-98776180D02*
X144531809Y-97776180D01*
X144198476Y-98776180D01*
X228682619Y-89407904D02*
X228682619Y-88836476D01*
X227682619Y-89122190D02*
X228682619Y-89122190D01*
X228682619Y-88598380D02*
X228682619Y-87979333D01*
X228301666Y-88312666D01*
X228301666Y-88169809D01*
X228254047Y-88074571D01*
X228206428Y-88026952D01*
X228111190Y-87979333D01*
X227873095Y-87979333D01*
X227777857Y-88026952D01*
X227730238Y-88074571D01*
X227682619Y-88169809D01*
X227682619Y-88455523D01*
X227730238Y-88550761D01*
X227777857Y-88598380D01*
X226072619Y-88812666D02*
X226548809Y-89146000D01*
X226072619Y-89384095D02*
X227072619Y-89384095D01*
X227072619Y-89003142D01*
X227025000Y-88907904D01*
X226977380Y-88860285D01*
X226882142Y-88812666D01*
X226739285Y-88812666D01*
X226644047Y-88860285D01*
X226596428Y-88907904D01*
X226548809Y-89003142D01*
X226548809Y-89384095D01*
X226977380Y-88431714D02*
X227025000Y-88384095D01*
X227072619Y-88288857D01*
X227072619Y-88050761D01*
X227025000Y-87955523D01*
X226977380Y-87907904D01*
X226882142Y-87860285D01*
X226786904Y-87860285D01*
X226644047Y-87907904D01*
X226072619Y-88479333D01*
X226072619Y-87860285D01*
X186121857Y-106592666D02*
X186074238Y-106640285D01*
X186026619Y-106783142D01*
X186026619Y-106878380D01*
X186074238Y-107021238D01*
X186169476Y-107116476D01*
X186264714Y-107164095D01*
X186455190Y-107211714D01*
X186598047Y-107211714D01*
X186788523Y-107164095D01*
X186883761Y-107116476D01*
X186979000Y-107021238D01*
X187026619Y-106878380D01*
X187026619Y-106783142D01*
X186979000Y-106640285D01*
X186931380Y-106592666D01*
X187026619Y-106259333D02*
X187026619Y-105592666D01*
X186026619Y-106021238D01*
X184940428Y-106830761D02*
X184892809Y-106687904D01*
X184845190Y-106640285D01*
X184749952Y-106592666D01*
X184607095Y-106592666D01*
X184511857Y-106640285D01*
X184464238Y-106687904D01*
X184416619Y-106783142D01*
X184416619Y-107164095D01*
X185416619Y-107164095D01*
X185416619Y-106830761D01*
X185369000Y-106735523D01*
X185321380Y-106687904D01*
X185226142Y-106640285D01*
X185130904Y-106640285D01*
X185035666Y-106687904D01*
X184988047Y-106735523D01*
X184940428Y-106830761D01*
X184940428Y-107164095D01*
X185416619Y-106259333D02*
X185416619Y-105592666D01*
X184416619Y-106021238D01*
X169453000Y-104647904D02*
X169500619Y-104743142D01*
X169500619Y-104886000D01*
X169453000Y-105028857D01*
X169357761Y-105124095D01*
X169262523Y-105171714D01*
X169072047Y-105219333D01*
X168929190Y-105219333D01*
X168738714Y-105171714D01*
X168643476Y-105124095D01*
X168548238Y-105028857D01*
X168500619Y-104886000D01*
X168500619Y-104790761D01*
X168548238Y-104647904D01*
X168595857Y-104600285D01*
X168929190Y-104600285D01*
X168929190Y-104790761D01*
X168500619Y-104171714D02*
X169500619Y-104171714D01*
X168500619Y-103600285D01*
X169500619Y-103600285D01*
X168500619Y-103124095D02*
X169500619Y-103124095D01*
X169500619Y-102886000D01*
X169453000Y-102743142D01*
X169357761Y-102647904D01*
X169262523Y-102600285D01*
X169072047Y-102552666D01*
X168929190Y-102552666D01*
X168738714Y-102600285D01*
X168643476Y-102647904D01*
X168548238Y-102743142D01*
X168500619Y-102886000D01*
X168500619Y-103124095D01*
X167843000Y-104647904D02*
X167890619Y-104743142D01*
X167890619Y-104886000D01*
X167843000Y-105028857D01*
X167747761Y-105124095D01*
X167652523Y-105171714D01*
X167462047Y-105219333D01*
X167319190Y-105219333D01*
X167128714Y-105171714D01*
X167033476Y-105124095D01*
X166938238Y-105028857D01*
X166890619Y-104886000D01*
X166890619Y-104790761D01*
X166938238Y-104647904D01*
X166985857Y-104600285D01*
X167319190Y-104600285D01*
X167319190Y-104790761D01*
X166890619Y-104171714D02*
X167890619Y-104171714D01*
X166890619Y-103600285D01*
X167890619Y-103600285D01*
X166890619Y-103124095D02*
X167890619Y-103124095D01*
X167890619Y-102886000D01*
X167843000Y-102743142D01*
X167747761Y-102647904D01*
X167652523Y-102600285D01*
X167462047Y-102552666D01*
X167319190Y-102552666D01*
X167128714Y-102600285D01*
X167033476Y-102647904D01*
X166938238Y-102743142D01*
X166890619Y-102886000D01*
X166890619Y-103124095D01*
X155022619Y-138620476D02*
X155022619Y-139096666D01*
X154546428Y-139144285D01*
X154594047Y-139096666D01*
X154641666Y-139001428D01*
X154641666Y-138763333D01*
X154594047Y-138668095D01*
X154546428Y-138620476D01*
X154451190Y-138572857D01*
X154213095Y-138572857D01*
X154117857Y-138620476D01*
X154070238Y-138668095D01*
X154022619Y-138763333D01*
X154022619Y-139001428D01*
X154070238Y-139096666D01*
X154117857Y-139144285D01*
X155022619Y-138287142D02*
X154022619Y-137953809D01*
X155022619Y-137620476D01*
X152460238Y-139644285D02*
X152412619Y-139501428D01*
X152412619Y-139263333D01*
X152460238Y-139168095D01*
X152507857Y-139120476D01*
X152603095Y-139072857D01*
X152698333Y-139072857D01*
X152793571Y-139120476D01*
X152841190Y-139168095D01*
X152888809Y-139263333D01*
X152936428Y-139453809D01*
X152984047Y-139549047D01*
X153031666Y-139596666D01*
X153126904Y-139644285D01*
X153222142Y-139644285D01*
X153317380Y-139596666D01*
X153365000Y-139549047D01*
X153412619Y-139453809D01*
X153412619Y-139215714D01*
X153365000Y-139072857D01*
X152412619Y-138644285D02*
X153412619Y-138644285D01*
X153412619Y-138406190D01*
X153365000Y-138263333D01*
X153269761Y-138168095D01*
X153174523Y-138120476D01*
X152984047Y-138072857D01*
X152841190Y-138072857D01*
X152650714Y-138120476D01*
X152555476Y-138168095D01*
X152460238Y-138263333D01*
X152412619Y-138406190D01*
X152412619Y-138644285D01*
X152698333Y-137691904D02*
X152698333Y-137215714D01*
X152412619Y-137787142D02*
X153412619Y-137453809D01*
X152412619Y-137120476D01*
X186121857Y-90844666D02*
X186074238Y-90892285D01*
X186026619Y-91035142D01*
X186026619Y-91130380D01*
X186074238Y-91273238D01*
X186169476Y-91368476D01*
X186264714Y-91416095D01*
X186455190Y-91463714D01*
X186598047Y-91463714D01*
X186788523Y-91416095D01*
X186883761Y-91368476D01*
X186979000Y-91273238D01*
X187026619Y-91130380D01*
X187026619Y-91035142D01*
X186979000Y-90892285D01*
X186931380Y-90844666D01*
X187026619Y-90511333D02*
X187026619Y-89892285D01*
X186645666Y-90225619D01*
X186645666Y-90082761D01*
X186598047Y-89987523D01*
X186550428Y-89939904D01*
X186455190Y-89892285D01*
X186217095Y-89892285D01*
X186121857Y-89939904D01*
X186074238Y-89987523D01*
X186026619Y-90082761D01*
X186026619Y-90368476D01*
X186074238Y-90463714D01*
X186121857Y-90511333D01*
X184940428Y-91082761D02*
X184892809Y-90939904D01*
X184845190Y-90892285D01*
X184749952Y-90844666D01*
X184607095Y-90844666D01*
X184511857Y-90892285D01*
X184464238Y-90939904D01*
X184416619Y-91035142D01*
X184416619Y-91416095D01*
X185416619Y-91416095D01*
X185416619Y-91082761D01*
X185369000Y-90987523D01*
X185321380Y-90939904D01*
X185226142Y-90892285D01*
X185130904Y-90892285D01*
X185035666Y-90939904D01*
X184988047Y-90987523D01*
X184940428Y-91082761D01*
X184940428Y-91416095D01*
X185416619Y-89939904D02*
X185416619Y-90416095D01*
X184940428Y-90463714D01*
X184988047Y-90416095D01*
X185035666Y-90320857D01*
X185035666Y-90082761D01*
X184988047Y-89987523D01*
X184940428Y-89939904D01*
X184845190Y-89892285D01*
X184607095Y-89892285D01*
X184511857Y-89939904D01*
X184464238Y-89987523D01*
X184416619Y-90082761D01*
X184416619Y-90320857D01*
X184464238Y-90416095D01*
X184511857Y-90463714D01*
X149914071Y-95702371D02*
X150247404Y-95702371D01*
X150247404Y-96226180D02*
X150247404Y-95226180D01*
X149771214Y-95226180D01*
X149533119Y-95226180D02*
X148961690Y-95226180D01*
X149247404Y-96226180D02*
X149247404Y-95226180D01*
X148628357Y-96226180D02*
X148628357Y-95226180D01*
X148390261Y-95226180D01*
X148247404Y-95273800D01*
X148152166Y-95369038D01*
X148104547Y-95464276D01*
X148056928Y-95654752D01*
X148056928Y-95797609D01*
X148104547Y-95988085D01*
X148152166Y-96083323D01*
X148247404Y-96178561D01*
X148390261Y-96226180D01*
X148628357Y-96226180D01*
X147628357Y-96226180D02*
X147628357Y-95226180D01*
X147152166Y-96130942D02*
X147104547Y-96178561D01*
X147152166Y-96226180D01*
X147199785Y-96178561D01*
X147152166Y-96130942D01*
X147152166Y-96226180D01*
X146723595Y-96178561D02*
X146580738Y-96226180D01*
X146342642Y-96226180D01*
X146247404Y-96178561D01*
X146199785Y-96130942D01*
X146152166Y-96035704D01*
X146152166Y-95940466D01*
X146199785Y-95845228D01*
X146247404Y-95797609D01*
X146342642Y-95749990D01*
X146533119Y-95702371D01*
X146628357Y-95654752D01*
X146675976Y-95607133D01*
X146723595Y-95511895D01*
X146723595Y-95416657D01*
X146675976Y-95321419D01*
X146628357Y-95273800D01*
X146533119Y-95226180D01*
X146295023Y-95226180D01*
X146152166Y-95273800D01*
X145723595Y-96226180D02*
X145723595Y-95226180D01*
X145485500Y-95226180D01*
X145342642Y-95273800D01*
X145247404Y-95369038D01*
X145199785Y-95464276D01*
X145152166Y-95654752D01*
X145152166Y-95797609D01*
X145199785Y-95988085D01*
X145247404Y-96083323D01*
X145342642Y-96178561D01*
X145485500Y-96226180D01*
X145723595Y-96226180D01*
X144771214Y-95940466D02*
X144295023Y-95940466D01*
X144866452Y-96226180D02*
X144533119Y-95226180D01*
X144199785Y-96226180D01*
X245462619Y-111990095D02*
X246462619Y-111990095D01*
X245462619Y-111418666D02*
X246034047Y-111847238D01*
X246462619Y-111418666D02*
X245891190Y-111990095D01*
X245462619Y-110466285D02*
X245462619Y-111037714D01*
X245462619Y-110752000D02*
X246462619Y-110752000D01*
X246319761Y-110847238D01*
X246224523Y-110942476D01*
X246176904Y-111037714D01*
X243852619Y-111990095D02*
X244852619Y-111990095D01*
X243852619Y-111418666D02*
X244424047Y-111847238D01*
X244852619Y-111418666D02*
X244281190Y-111990095D01*
X244852619Y-111085333D02*
X244852619Y-110466285D01*
X244471666Y-110799619D01*
X244471666Y-110656761D01*
X244424047Y-110561523D01*
X244376428Y-110513904D01*
X244281190Y-110466285D01*
X244043095Y-110466285D01*
X243947857Y-110513904D01*
X243900238Y-110561523D01*
X243852619Y-110656761D01*
X243852619Y-110942476D01*
X243900238Y-111037714D01*
X243947857Y-111085333D01*
X150737761Y-101305942D02*
X150785380Y-101353561D01*
X150928238Y-101401180D01*
X151023476Y-101401180D01*
X151166333Y-101353561D01*
X151261571Y-101258323D01*
X151309190Y-101163085D01*
X151356809Y-100972609D01*
X151356809Y-100829752D01*
X151309190Y-100639276D01*
X151261571Y-100544038D01*
X151166333Y-100448800D01*
X151023476Y-100401180D01*
X150928238Y-100401180D01*
X150785380Y-100448800D01*
X150737761Y-100496419D01*
X150118714Y-100401180D02*
X149928238Y-100401180D01*
X149833000Y-100448800D01*
X149737761Y-100544038D01*
X149690142Y-100734514D01*
X149690142Y-101067847D01*
X149737761Y-101258323D01*
X149833000Y-101353561D01*
X149928238Y-101401180D01*
X150118714Y-101401180D01*
X150213952Y-101353561D01*
X150309190Y-101258323D01*
X150356809Y-101067847D01*
X150356809Y-100734514D01*
X150309190Y-100544038D01*
X150213952Y-100448800D01*
X150118714Y-100401180D01*
X149261571Y-101401180D02*
X149261571Y-100401180D01*
X148690142Y-101401180D01*
X148690142Y-100401180D01*
X148213952Y-101401180D02*
X148213952Y-100401180D01*
X147642523Y-101401180D01*
X147642523Y-100401180D01*
X147166333Y-101305942D02*
X147118714Y-101353561D01*
X147166333Y-101401180D01*
X147213952Y-101353561D01*
X147166333Y-101305942D01*
X147166333Y-101401180D01*
X146737761Y-101353561D02*
X146594904Y-101401180D01*
X146356809Y-101401180D01*
X146261571Y-101353561D01*
X146213952Y-101305942D01*
X146166333Y-101210704D01*
X146166333Y-101115466D01*
X146213952Y-101020228D01*
X146261571Y-100972609D01*
X146356809Y-100924990D01*
X146547285Y-100877371D01*
X146642523Y-100829752D01*
X146690142Y-100782133D01*
X146737761Y-100686895D01*
X146737761Y-100591657D01*
X146690142Y-100496419D01*
X146642523Y-100448800D01*
X146547285Y-100401180D01*
X146309190Y-100401180D01*
X146166333Y-100448800D01*
X145737761Y-101401180D02*
X145737761Y-100401180D01*
X145499666Y-100401180D01*
X145356809Y-100448800D01*
X145261571Y-100544038D01*
X145213952Y-100639276D01*
X145166333Y-100829752D01*
X145166333Y-100972609D01*
X145213952Y-101163085D01*
X145261571Y-101258323D01*
X145356809Y-101353561D01*
X145499666Y-101401180D01*
X145737761Y-101401180D01*
X144785380Y-101115466D02*
X144309190Y-101115466D01*
X144880619Y-101401180D02*
X144547285Y-100401180D01*
X144213952Y-101401180D01*
D12*
X168430095Y-89617428D02*
X169230095Y-89617428D01*
X169230095Y-89426952D01*
X169192000Y-89312666D01*
X169115809Y-89236476D01*
X169039619Y-89198380D01*
X168887238Y-89160285D01*
X168772952Y-89160285D01*
X168620571Y-89198380D01*
X168544380Y-89236476D01*
X168468190Y-89312666D01*
X168430095Y-89426952D01*
X168430095Y-89617428D01*
X168430095Y-88398380D02*
X168430095Y-88855523D01*
X168430095Y-88626952D02*
X169230095Y-88626952D01*
X169115809Y-88703142D01*
X169039619Y-88779333D01*
X169001523Y-88855523D01*
X168963428Y-87712666D02*
X168430095Y-87712666D01*
X169268190Y-87903142D02*
X168696761Y-88093619D01*
X168696761Y-87598380D01*
X167142095Y-89617428D02*
X167942095Y-89617428D01*
X167942095Y-89426952D01*
X167904000Y-89312666D01*
X167827809Y-89236476D01*
X167751619Y-89198380D01*
X167599238Y-89160285D01*
X167484952Y-89160285D01*
X167332571Y-89198380D01*
X167256380Y-89236476D01*
X167180190Y-89312666D01*
X167142095Y-89426952D01*
X167142095Y-89617428D01*
X167142095Y-88398380D02*
X167142095Y-88855523D01*
X167142095Y-88626952D02*
X167942095Y-88626952D01*
X167827809Y-88703142D01*
X167751619Y-88779333D01*
X167713523Y-88855523D01*
X167942095Y-87712666D02*
X167942095Y-87865047D01*
X167904000Y-87941238D01*
X167865904Y-87979333D01*
X167751619Y-88055523D01*
X167599238Y-88093619D01*
X167294476Y-88093619D01*
X167218285Y-88055523D01*
X167180190Y-88017428D01*
X167142095Y-87941238D01*
X167142095Y-87788857D01*
X167180190Y-87712666D01*
X167218285Y-87674571D01*
X167294476Y-87636476D01*
X167484952Y-87636476D01*
X167561142Y-87674571D01*
X167599238Y-87712666D01*
X167637333Y-87788857D01*
X167637333Y-87941238D01*
X167599238Y-88017428D01*
X167561142Y-88055523D01*
X167484952Y-88093619D01*
X186032285Y-116719333D02*
X185994190Y-116757428D01*
X185956095Y-116871714D01*
X185956095Y-116947904D01*
X185994190Y-117062190D01*
X186070380Y-117138380D01*
X186146571Y-117176476D01*
X186298952Y-117214571D01*
X186413238Y-117214571D01*
X186565619Y-117176476D01*
X186641809Y-117138380D01*
X186718000Y-117062190D01*
X186756095Y-116947904D01*
X186756095Y-116871714D01*
X186718000Y-116757428D01*
X186679904Y-116719333D01*
X185956095Y-116338380D02*
X185956095Y-116186000D01*
X185994190Y-116109809D01*
X186032285Y-116071714D01*
X186146571Y-115995523D01*
X186298952Y-115957428D01*
X186603714Y-115957428D01*
X186679904Y-115995523D01*
X186718000Y-116033619D01*
X186756095Y-116109809D01*
X186756095Y-116262190D01*
X186718000Y-116338380D01*
X186679904Y-116376476D01*
X186603714Y-116414571D01*
X186413238Y-116414571D01*
X186337047Y-116376476D01*
X186298952Y-116338380D01*
X186260857Y-116262190D01*
X186260857Y-116109809D01*
X186298952Y-116033619D01*
X186337047Y-115995523D01*
X186413238Y-115957428D01*
X184896666Y-117538380D02*
X184896666Y-117157428D01*
X184668095Y-117614571D02*
X185468095Y-117347904D01*
X184668095Y-117081238D01*
X184668095Y-116395523D02*
X184668095Y-116852666D01*
X184668095Y-116624095D02*
X185468095Y-116624095D01*
X185353809Y-116700285D01*
X185277619Y-116776476D01*
X185239523Y-116852666D01*
X185468095Y-115900285D02*
X185468095Y-115824095D01*
X185430000Y-115747904D01*
X185391904Y-115709809D01*
X185315714Y-115671714D01*
X185163333Y-115633619D01*
X184972857Y-115633619D01*
X184820476Y-115671714D01*
X184744285Y-115709809D01*
X184706190Y-115747904D01*
X184668095Y-115824095D01*
X184668095Y-115900285D01*
X184706190Y-115976476D01*
X184744285Y-116014571D01*
X184820476Y-116052666D01*
X184972857Y-116090761D01*
X185163333Y-116090761D01*
X185315714Y-116052666D01*
X185391904Y-116014571D01*
X185430000Y-115976476D01*
X185468095Y-115900285D01*
D11*
X186550428Y-88796761D02*
X186502809Y-88653904D01*
X186455190Y-88606285D01*
X186359952Y-88558666D01*
X186217095Y-88558666D01*
X186121857Y-88606285D01*
X186074238Y-88653904D01*
X186026619Y-88749142D01*
X186026619Y-89130095D01*
X187026619Y-89130095D01*
X187026619Y-88796761D01*
X186979000Y-88701523D01*
X186931380Y-88653904D01*
X186836142Y-88606285D01*
X186740904Y-88606285D01*
X186645666Y-88653904D01*
X186598047Y-88701523D01*
X186550428Y-88796761D01*
X186550428Y-89130095D01*
X187026619Y-88225333D02*
X187026619Y-87606285D01*
X186645666Y-87939619D01*
X186645666Y-87796761D01*
X186598047Y-87701523D01*
X186550428Y-87653904D01*
X186455190Y-87606285D01*
X186217095Y-87606285D01*
X186121857Y-87653904D01*
X186074238Y-87701523D01*
X186026619Y-87796761D01*
X186026619Y-88082476D01*
X186074238Y-88177714D01*
X186121857Y-88225333D01*
X184940428Y-88796761D02*
X184892809Y-88653904D01*
X184845190Y-88606285D01*
X184749952Y-88558666D01*
X184607095Y-88558666D01*
X184511857Y-88606285D01*
X184464238Y-88653904D01*
X184416619Y-88749142D01*
X184416619Y-89130095D01*
X185416619Y-89130095D01*
X185416619Y-88796761D01*
X185369000Y-88701523D01*
X185321380Y-88653904D01*
X185226142Y-88606285D01*
X185130904Y-88606285D01*
X185035666Y-88653904D01*
X184988047Y-88701523D01*
X184940428Y-88796761D01*
X184940428Y-89130095D01*
X185083285Y-87701523D02*
X184416619Y-87701523D01*
X185464238Y-87939619D02*
X184749952Y-88177714D01*
X184749952Y-87558666D01*
X155022619Y-100663333D02*
X154022619Y-99996666D01*
X155022619Y-99996666D02*
X154022619Y-100663333D01*
X153365000Y-101091904D02*
X153412619Y-101187142D01*
X153412619Y-101330000D01*
X153365000Y-101472857D01*
X153269761Y-101568095D01*
X153174523Y-101615714D01*
X152984047Y-101663333D01*
X152841190Y-101663333D01*
X152650714Y-101615714D01*
X152555476Y-101568095D01*
X152460238Y-101472857D01*
X152412619Y-101330000D01*
X152412619Y-101234761D01*
X152460238Y-101091904D01*
X152507857Y-101044285D01*
X152841190Y-101044285D01*
X152841190Y-101234761D01*
X152412619Y-100615714D02*
X153412619Y-100615714D01*
X152412619Y-100044285D01*
X153412619Y-100044285D01*
X152412619Y-99568095D02*
X153412619Y-99568095D01*
X153412619Y-99330000D01*
X153365000Y-99187142D01*
X153269761Y-99091904D01*
X153174523Y-99044285D01*
X152984047Y-98996666D01*
X152841190Y-98996666D01*
X152650714Y-99044285D01*
X152555476Y-99091904D01*
X152460238Y-99187142D01*
X152412619Y-99330000D01*
X152412619Y-99568095D01*
D12*
X168849142Y-109613619D02*
X168849142Y-109880285D01*
X168430095Y-109880285D02*
X169230095Y-109880285D01*
X169230095Y-109499333D01*
X168430095Y-108775523D02*
X168430095Y-109232666D01*
X168430095Y-109004095D02*
X169230095Y-109004095D01*
X169115809Y-109080285D01*
X169039619Y-109156476D01*
X169001523Y-109232666D01*
X168963428Y-108089809D02*
X168430095Y-108089809D01*
X169268190Y-108280285D02*
X168696761Y-108470761D01*
X168696761Y-107975523D01*
X167904000Y-109518380D02*
X167942095Y-109594571D01*
X167942095Y-109708857D01*
X167904000Y-109823142D01*
X167827809Y-109899333D01*
X167751619Y-109937428D01*
X167599238Y-109975523D01*
X167484952Y-109975523D01*
X167332571Y-109937428D01*
X167256380Y-109899333D01*
X167180190Y-109823142D01*
X167142095Y-109708857D01*
X167142095Y-109632666D01*
X167180190Y-109518380D01*
X167218285Y-109480285D01*
X167484952Y-109480285D01*
X167484952Y-109632666D01*
X167142095Y-108718380D02*
X167142095Y-109175523D01*
X167142095Y-108946952D02*
X167942095Y-108946952D01*
X167827809Y-109023142D01*
X167751619Y-109099333D01*
X167713523Y-109175523D01*
X167675428Y-108032666D02*
X167142095Y-108032666D01*
X167980190Y-108223142D02*
X167408761Y-108413619D01*
X167408761Y-107918380D01*
D11*
X155022619Y-141668476D02*
X155022619Y-142144666D01*
X154546428Y-142192285D01*
X154594047Y-142144666D01*
X154641666Y-142049428D01*
X154641666Y-141811333D01*
X154594047Y-141716095D01*
X154546428Y-141668476D01*
X154451190Y-141620857D01*
X154213095Y-141620857D01*
X154117857Y-141668476D01*
X154070238Y-141716095D01*
X154022619Y-141811333D01*
X154022619Y-142049428D01*
X154070238Y-142144666D01*
X154117857Y-142192285D01*
X155022619Y-141335142D02*
X154022619Y-141001809D01*
X155022619Y-140668476D01*
X153412619Y-142716095D02*
X153412619Y-142097047D01*
X153031666Y-142430380D01*
X153031666Y-142287523D01*
X152984047Y-142192285D01*
X152936428Y-142144666D01*
X152841190Y-142097047D01*
X152603095Y-142097047D01*
X152507857Y-142144666D01*
X152460238Y-142192285D01*
X152412619Y-142287523D01*
X152412619Y-142573238D01*
X152460238Y-142668476D01*
X152507857Y-142716095D01*
X153412619Y-141811333D02*
X152412619Y-141478000D01*
X153412619Y-141144666D01*
X153412619Y-140906571D02*
X153412619Y-140287523D01*
X153031666Y-140620857D01*
X153031666Y-140478000D01*
X152984047Y-140382761D01*
X152936428Y-140335142D01*
X152841190Y-140287523D01*
X152603095Y-140287523D01*
X152507857Y-140335142D01*
X152460238Y-140382761D01*
X152412619Y-140478000D01*
X152412619Y-140763714D01*
X152460238Y-140858952D01*
X152507857Y-140906571D01*
X138545819Y-87598095D02*
X138545819Y-86979047D01*
X138164866Y-87312380D01*
X138164866Y-87169523D01*
X138117247Y-87074285D01*
X138069628Y-87026666D01*
X137974390Y-86979047D01*
X137736295Y-86979047D01*
X137641057Y-87026666D01*
X137593438Y-87074285D01*
X137545819Y-87169523D01*
X137545819Y-87455238D01*
X137593438Y-87550476D01*
X137641057Y-87598095D01*
X138545819Y-86693333D02*
X137545819Y-86360000D01*
X138545819Y-86026666D01*
X138545819Y-85788571D02*
X138545819Y-85169523D01*
X138164866Y-85502857D01*
X138164866Y-85360000D01*
X138117247Y-85264761D01*
X138069628Y-85217142D01*
X137974390Y-85169523D01*
X137736295Y-85169523D01*
X137641057Y-85217142D01*
X137593438Y-85264761D01*
X137545819Y-85360000D01*
X137545819Y-85645714D01*
X137593438Y-85740952D01*
X137641057Y-85788571D01*
X228682619Y-87121904D02*
X228682619Y-86550476D01*
X227682619Y-86836190D02*
X228682619Y-86836190D01*
X228587380Y-86264761D02*
X228635000Y-86217142D01*
X228682619Y-86121904D01*
X228682619Y-85883809D01*
X228635000Y-85788571D01*
X228587380Y-85740952D01*
X228492142Y-85693333D01*
X228396904Y-85693333D01*
X228254047Y-85740952D01*
X227682619Y-86312380D01*
X227682619Y-85693333D01*
X227072619Y-87121904D02*
X227072619Y-86550476D01*
X226072619Y-86836190D02*
X227072619Y-86836190D01*
X226072619Y-85693333D02*
X226072619Y-86264761D01*
X226072619Y-85979047D02*
X227072619Y-85979047D01*
X226929761Y-86074285D01*
X226834523Y-86169523D01*
X226786904Y-86264761D01*
D12*
X168430095Y-117811428D02*
X169230095Y-117811428D01*
X168430095Y-117354285D02*
X168887238Y-117697142D01*
X169230095Y-117354285D02*
X168772952Y-117811428D01*
X168430095Y-116592380D02*
X168430095Y-117049523D01*
X168430095Y-116820952D02*
X169230095Y-116820952D01*
X169115809Y-116897142D01*
X169039619Y-116973333D01*
X169001523Y-117049523D01*
X169230095Y-115906666D02*
X169230095Y-116059047D01*
X169192000Y-116135238D01*
X169153904Y-116173333D01*
X169039619Y-116249523D01*
X168887238Y-116287619D01*
X168582476Y-116287619D01*
X168506285Y-116249523D01*
X168468190Y-116211428D01*
X168430095Y-116135238D01*
X168430095Y-115982857D01*
X168468190Y-115906666D01*
X168506285Y-115868571D01*
X168582476Y-115830476D01*
X168772952Y-115830476D01*
X168849142Y-115868571D01*
X168887238Y-115906666D01*
X168925333Y-115982857D01*
X168925333Y-116135238D01*
X168887238Y-116211428D01*
X168849142Y-116249523D01*
X168772952Y-116287619D01*
X167142095Y-117811428D02*
X167942095Y-117811428D01*
X167142095Y-117354285D02*
X167599238Y-117697142D01*
X167942095Y-117354285D02*
X167484952Y-117811428D01*
X167142095Y-116592380D02*
X167142095Y-117049523D01*
X167142095Y-116820952D02*
X167942095Y-116820952D01*
X167827809Y-116897142D01*
X167751619Y-116973333D01*
X167713523Y-117049523D01*
X167942095Y-115868571D02*
X167942095Y-116249523D01*
X167561142Y-116287619D01*
X167599238Y-116249523D01*
X167637333Y-116173333D01*
X167637333Y-115982857D01*
X167599238Y-115906666D01*
X167561142Y-115868571D01*
X167484952Y-115830476D01*
X167294476Y-115830476D01*
X167218285Y-115868571D01*
X167180190Y-115906666D01*
X167142095Y-115982857D01*
X167142095Y-116173333D01*
X167180190Y-116249523D01*
X167218285Y-116287619D01*
X185956095Y-132626000D02*
X186756095Y-132626000D01*
X186756095Y-132092666D02*
X186756095Y-131940285D01*
X186718000Y-131864095D01*
X186641809Y-131787904D01*
X186489428Y-131749809D01*
X186222761Y-131749809D01*
X186070380Y-131787904D01*
X185994190Y-131864095D01*
X185956095Y-131940285D01*
X185956095Y-132092666D01*
X185994190Y-132168857D01*
X186070380Y-132245047D01*
X186222761Y-132283142D01*
X186489428Y-132283142D01*
X186641809Y-132245047D01*
X186718000Y-132168857D01*
X186756095Y-132092666D01*
X186756095Y-131254571D02*
X186756095Y-131178380D01*
X186718000Y-131102190D01*
X186679904Y-131064095D01*
X186603714Y-131026000D01*
X186451333Y-130987904D01*
X186260857Y-130987904D01*
X186108476Y-131026000D01*
X186032285Y-131064095D01*
X185994190Y-131102190D01*
X185956095Y-131178380D01*
X185956095Y-131254571D01*
X185994190Y-131330761D01*
X186032285Y-131368857D01*
X186108476Y-131406952D01*
X186260857Y-131445047D01*
X186451333Y-131445047D01*
X186603714Y-131406952D01*
X186679904Y-131368857D01*
X186718000Y-131330761D01*
X186756095Y-131254571D01*
X184896666Y-132778380D02*
X184896666Y-132397428D01*
X184668095Y-132854571D02*
X185468095Y-132587904D01*
X184668095Y-132321238D01*
X184668095Y-131635523D02*
X184668095Y-132092666D01*
X184668095Y-131864095D02*
X185468095Y-131864095D01*
X185353809Y-131940285D01*
X185277619Y-132016476D01*
X185239523Y-132092666D01*
X185468095Y-130949809D02*
X185468095Y-131102190D01*
X185430000Y-131178380D01*
X185391904Y-131216476D01*
X185277619Y-131292666D01*
X185125238Y-131330761D01*
X184820476Y-131330761D01*
X184744285Y-131292666D01*
X184706190Y-131254571D01*
X184668095Y-131178380D01*
X184668095Y-131026000D01*
X184706190Y-130949809D01*
X184744285Y-130911714D01*
X184820476Y-130873619D01*
X185010952Y-130873619D01*
X185087142Y-130911714D01*
X185125238Y-130949809D01*
X185163333Y-131026000D01*
X185163333Y-131178380D01*
X185125238Y-131254571D01*
X185087142Y-131292666D01*
X185010952Y-131330761D01*
D11*
X186979000Y-124942504D02*
X187026619Y-125037742D01*
X187026619Y-125180600D01*
X186979000Y-125323457D01*
X186883761Y-125418695D01*
X186788523Y-125466314D01*
X186598047Y-125513933D01*
X186455190Y-125513933D01*
X186264714Y-125466314D01*
X186169476Y-125418695D01*
X186074238Y-125323457D01*
X186026619Y-125180600D01*
X186026619Y-125085361D01*
X186074238Y-124942504D01*
X186121857Y-124894885D01*
X186455190Y-124894885D01*
X186455190Y-125085361D01*
X186026619Y-124466314D02*
X187026619Y-124466314D01*
X186026619Y-123894885D01*
X187026619Y-123894885D01*
X186026619Y-123418695D02*
X187026619Y-123418695D01*
X187026619Y-123180600D01*
X186979000Y-123037742D01*
X186883761Y-122942504D01*
X186788523Y-122894885D01*
X186598047Y-122847266D01*
X186455190Y-122847266D01*
X186264714Y-122894885D01*
X186169476Y-122942504D01*
X186074238Y-123037742D01*
X186026619Y-123180600D01*
X186026619Y-123418695D01*
X185369000Y-124942504D02*
X185416619Y-125037742D01*
X185416619Y-125180600D01*
X185369000Y-125323457D01*
X185273761Y-125418695D01*
X185178523Y-125466314D01*
X184988047Y-125513933D01*
X184845190Y-125513933D01*
X184654714Y-125466314D01*
X184559476Y-125418695D01*
X184464238Y-125323457D01*
X184416619Y-125180600D01*
X184416619Y-125085361D01*
X184464238Y-124942504D01*
X184511857Y-124894885D01*
X184845190Y-124894885D01*
X184845190Y-125085361D01*
X184416619Y-124466314D02*
X185416619Y-124466314D01*
X184416619Y-123894885D01*
X185416619Y-123894885D01*
X184416619Y-123418695D02*
X185416619Y-123418695D01*
X185416619Y-123180600D01*
X185369000Y-123037742D01*
X185273761Y-122942504D01*
X185178523Y-122894885D01*
X184988047Y-122847266D01*
X184845190Y-122847266D01*
X184654714Y-122894885D01*
X184559476Y-122942504D01*
X184464238Y-123037742D01*
X184416619Y-123180600D01*
X184416619Y-123418695D01*
D12*
X168430095Y-119894285D02*
X168430095Y-120275238D01*
X169230095Y-120275238D01*
X168430095Y-119208571D02*
X168430095Y-119665714D01*
X168430095Y-119437142D02*
X169230095Y-119437142D01*
X169115809Y-119513333D01*
X169039619Y-119589523D01*
X169001523Y-119665714D01*
X169230095Y-118522857D02*
X169230095Y-118675238D01*
X169192000Y-118751428D01*
X169153904Y-118789523D01*
X169039619Y-118865714D01*
X168887238Y-118903809D01*
X168582476Y-118903809D01*
X168506285Y-118865714D01*
X168468190Y-118827619D01*
X168430095Y-118751428D01*
X168430095Y-118599047D01*
X168468190Y-118522857D01*
X168506285Y-118484761D01*
X168582476Y-118446666D01*
X168772952Y-118446666D01*
X168849142Y-118484761D01*
X168887238Y-118522857D01*
X168925333Y-118599047D01*
X168925333Y-118751428D01*
X168887238Y-118827619D01*
X168849142Y-118865714D01*
X168772952Y-118903809D01*
X167142095Y-120408571D02*
X167942095Y-120408571D01*
X167370666Y-120141904D01*
X167942095Y-119875238D01*
X167142095Y-119875238D01*
X167142095Y-119075238D02*
X167142095Y-119532380D01*
X167142095Y-119303809D02*
X167942095Y-119303809D01*
X167827809Y-119380000D01*
X167751619Y-119456190D01*
X167713523Y-119532380D01*
X167942095Y-118389523D02*
X167942095Y-118541904D01*
X167904000Y-118618095D01*
X167865904Y-118656190D01*
X167751619Y-118732380D01*
X167599238Y-118770476D01*
X167294476Y-118770476D01*
X167218285Y-118732380D01*
X167180190Y-118694285D01*
X167142095Y-118618095D01*
X167142095Y-118465714D01*
X167180190Y-118389523D01*
X167218285Y-118351428D01*
X167294476Y-118313333D01*
X167484952Y-118313333D01*
X167561142Y-118351428D01*
X167599238Y-118389523D01*
X167637333Y-118465714D01*
X167637333Y-118618095D01*
X167599238Y-118694285D01*
X167561142Y-118732380D01*
X167484952Y-118770476D01*
D11*
X245462619Y-133080000D02*
X246462619Y-133080000D01*
X246462619Y-132413333D02*
X246462619Y-132222857D01*
X246415000Y-132127619D01*
X246319761Y-132032380D01*
X246129285Y-131984761D01*
X245795952Y-131984761D01*
X245605476Y-132032380D01*
X245510238Y-132127619D01*
X245462619Y-132222857D01*
X245462619Y-132413333D01*
X245510238Y-132508571D01*
X245605476Y-132603809D01*
X245795952Y-132651428D01*
X246129285Y-132651428D01*
X246319761Y-132603809D01*
X246415000Y-132508571D01*
X246462619Y-132413333D01*
X246462619Y-131651428D02*
X246462619Y-131032380D01*
X246081666Y-131365714D01*
X246081666Y-131222857D01*
X246034047Y-131127619D01*
X245986428Y-131080000D01*
X245891190Y-131032380D01*
X245653095Y-131032380D01*
X245557857Y-131080000D01*
X245510238Y-131127619D01*
X245462619Y-131222857D01*
X245462619Y-131508571D01*
X245510238Y-131603809D01*
X245557857Y-131651428D01*
X244852619Y-133127619D02*
X244852619Y-132508571D01*
X244471666Y-132841904D01*
X244471666Y-132699047D01*
X244424047Y-132603809D01*
X244376428Y-132556190D01*
X244281190Y-132508571D01*
X244043095Y-132508571D01*
X243947857Y-132556190D01*
X243900238Y-132603809D01*
X243852619Y-132699047D01*
X243852619Y-132984761D01*
X243900238Y-133080000D01*
X243947857Y-133127619D01*
X243947857Y-132080000D02*
X243900238Y-132032380D01*
X243852619Y-132080000D01*
X243900238Y-132127619D01*
X243947857Y-132080000D01*
X243852619Y-132080000D01*
X244852619Y-131699047D02*
X244852619Y-131080000D01*
X244471666Y-131413333D01*
X244471666Y-131270476D01*
X244424047Y-131175238D01*
X244376428Y-131127619D01*
X244281190Y-131080000D01*
X244043095Y-131080000D01*
X243947857Y-131127619D01*
X243900238Y-131175238D01*
X243852619Y-131270476D01*
X243852619Y-131556190D01*
X243900238Y-131651428D01*
X243947857Y-131699047D01*
D12*
X169192000Y-101898380D02*
X169230095Y-101974571D01*
X169230095Y-102088857D01*
X169192000Y-102203142D01*
X169115809Y-102279333D01*
X169039619Y-102317428D01*
X168887238Y-102355523D01*
X168772952Y-102355523D01*
X168620571Y-102317428D01*
X168544380Y-102279333D01*
X168468190Y-102203142D01*
X168430095Y-102088857D01*
X168430095Y-102012666D01*
X168468190Y-101898380D01*
X168506285Y-101860285D01*
X168772952Y-101860285D01*
X168772952Y-102012666D01*
X168430095Y-101098380D02*
X168430095Y-101555523D01*
X168430095Y-101326952D02*
X169230095Y-101326952D01*
X169115809Y-101403142D01*
X169039619Y-101479333D01*
X169001523Y-101555523D01*
X169230095Y-100374571D02*
X169230095Y-100755523D01*
X168849142Y-100793619D01*
X168887238Y-100755523D01*
X168925333Y-100679333D01*
X168925333Y-100488857D01*
X168887238Y-100412666D01*
X168849142Y-100374571D01*
X168772952Y-100336476D01*
X168582476Y-100336476D01*
X168506285Y-100374571D01*
X168468190Y-100412666D01*
X168430095Y-100488857D01*
X168430095Y-100679333D01*
X168468190Y-100755523D01*
X168506285Y-100793619D01*
X167142095Y-102336476D02*
X167942095Y-102336476D01*
X167561142Y-102336476D02*
X167561142Y-101879333D01*
X167142095Y-101879333D02*
X167942095Y-101879333D01*
X167142095Y-101079333D02*
X167142095Y-101536476D01*
X167142095Y-101307904D02*
X167942095Y-101307904D01*
X167827809Y-101384095D01*
X167751619Y-101460285D01*
X167713523Y-101536476D01*
X167942095Y-100393619D02*
X167942095Y-100546000D01*
X167904000Y-100622190D01*
X167865904Y-100660285D01*
X167751619Y-100736476D01*
X167599238Y-100774571D01*
X167294476Y-100774571D01*
X167218285Y-100736476D01*
X167180190Y-100698380D01*
X167142095Y-100622190D01*
X167142095Y-100469809D01*
X167180190Y-100393619D01*
X167218285Y-100355523D01*
X167294476Y-100317428D01*
X167484952Y-100317428D01*
X167561142Y-100355523D01*
X167599238Y-100393619D01*
X167637333Y-100469809D01*
X167637333Y-100622190D01*
X167599238Y-100698380D01*
X167561142Y-100736476D01*
X167484952Y-100774571D01*
D11*
X155022619Y-120983333D02*
X154022619Y-120316666D01*
X155022619Y-120316666D02*
X154022619Y-120983333D01*
X153412619Y-121888095D02*
X153412619Y-121269047D01*
X153031666Y-121602380D01*
X153031666Y-121459523D01*
X152984047Y-121364285D01*
X152936428Y-121316666D01*
X152841190Y-121269047D01*
X152603095Y-121269047D01*
X152507857Y-121316666D01*
X152460238Y-121364285D01*
X152412619Y-121459523D01*
X152412619Y-121745238D01*
X152460238Y-121840476D01*
X152507857Y-121888095D01*
X153412619Y-120983333D02*
X152412619Y-120650000D01*
X153412619Y-120316666D01*
X153412619Y-120078571D02*
X153412619Y-119459523D01*
X153031666Y-119792857D01*
X153031666Y-119650000D01*
X152984047Y-119554761D01*
X152936428Y-119507142D01*
X152841190Y-119459523D01*
X152603095Y-119459523D01*
X152507857Y-119507142D01*
X152460238Y-119554761D01*
X152412619Y-119650000D01*
X152412619Y-119935714D01*
X152460238Y-120030952D01*
X152507857Y-120078571D01*
X110445533Y-98385742D02*
X110493152Y-98433361D01*
X110636009Y-98480980D01*
X110731247Y-98480980D01*
X110874104Y-98433361D01*
X110969342Y-98338123D01*
X111016961Y-98242885D01*
X111064580Y-98052409D01*
X111064580Y-97909552D01*
X111016961Y-97719076D01*
X110969342Y-97623838D01*
X110874104Y-97528600D01*
X110731247Y-97480980D01*
X110636009Y-97480980D01*
X110493152Y-97528600D01*
X110445533Y-97576219D01*
X110016961Y-98385742D02*
X109969342Y-98433361D01*
X110016961Y-98480980D01*
X110064580Y-98433361D01*
X110016961Y-98385742D01*
X110016961Y-98480980D01*
X109588390Y-98433361D02*
X109445533Y-98480980D01*
X109207438Y-98480980D01*
X109112200Y-98433361D01*
X109064580Y-98385742D01*
X109016961Y-98290504D01*
X109016961Y-98195266D01*
X109064580Y-98100028D01*
X109112200Y-98052409D01*
X109207438Y-98004790D01*
X109397914Y-97957171D01*
X109493152Y-97909552D01*
X109540771Y-97861933D01*
X109588390Y-97766695D01*
X109588390Y-97671457D01*
X109540771Y-97576219D01*
X109493152Y-97528600D01*
X109397914Y-97480980D01*
X109159819Y-97480980D01*
X109016961Y-97528600D01*
X108588390Y-98480980D02*
X108588390Y-97480980D01*
X108350295Y-97480980D01*
X108207438Y-97528600D01*
X108112200Y-97623838D01*
X108064580Y-97719076D01*
X108016961Y-97909552D01*
X108016961Y-98052409D01*
X108064580Y-98242885D01*
X108112200Y-98338123D01*
X108207438Y-98433361D01*
X108350295Y-98480980D01*
X108588390Y-98480980D01*
X107636009Y-98195266D02*
X107159819Y-98195266D01*
X107731247Y-98480980D02*
X107397914Y-97480980D01*
X107064580Y-98480980D01*
D12*
X186375142Y-127450761D02*
X186337047Y-127336476D01*
X186298952Y-127298380D01*
X186222761Y-127260285D01*
X186108476Y-127260285D01*
X186032285Y-127298380D01*
X185994190Y-127336476D01*
X185956095Y-127412666D01*
X185956095Y-127717428D01*
X186756095Y-127717428D01*
X186756095Y-127450761D01*
X186718000Y-127374571D01*
X186679904Y-127336476D01*
X186603714Y-127298380D01*
X186527523Y-127298380D01*
X186451333Y-127336476D01*
X186413238Y-127374571D01*
X186375142Y-127450761D01*
X186375142Y-127717428D01*
X185956095Y-126498380D02*
X185956095Y-126955523D01*
X185956095Y-126726952D02*
X186756095Y-126726952D01*
X186641809Y-126803142D01*
X186565619Y-126879333D01*
X186527523Y-126955523D01*
X186489428Y-125812666D02*
X185956095Y-125812666D01*
X186794190Y-126003142D02*
X186222761Y-126193619D01*
X186222761Y-125698380D01*
X185087142Y-127450761D02*
X185049047Y-127336476D01*
X185010952Y-127298380D01*
X184934761Y-127260285D01*
X184820476Y-127260285D01*
X184744285Y-127298380D01*
X184706190Y-127336476D01*
X184668095Y-127412666D01*
X184668095Y-127717428D01*
X185468095Y-127717428D01*
X185468095Y-127450761D01*
X185430000Y-127374571D01*
X185391904Y-127336476D01*
X185315714Y-127298380D01*
X185239523Y-127298380D01*
X185163333Y-127336476D01*
X185125238Y-127374571D01*
X185087142Y-127450761D01*
X185087142Y-127717428D01*
X184668095Y-126498380D02*
X184668095Y-126955523D01*
X184668095Y-126726952D02*
X185468095Y-126726952D01*
X185353809Y-126803142D01*
X185277619Y-126879333D01*
X185239523Y-126955523D01*
X185468095Y-126231714D02*
X185468095Y-125736476D01*
X185163333Y-126003142D01*
X185163333Y-125888857D01*
X185125238Y-125812666D01*
X185087142Y-125774571D01*
X185010952Y-125736476D01*
X184820476Y-125736476D01*
X184744285Y-125774571D01*
X184706190Y-125812666D01*
X184668095Y-125888857D01*
X184668095Y-126117428D01*
X184706190Y-126193619D01*
X184744285Y-126231714D01*
D11*
X186979000Y-84226304D02*
X187026619Y-84321542D01*
X187026619Y-84464400D01*
X186979000Y-84607257D01*
X186883761Y-84702495D01*
X186788523Y-84750114D01*
X186598047Y-84797733D01*
X186455190Y-84797733D01*
X186264714Y-84750114D01*
X186169476Y-84702495D01*
X186074238Y-84607257D01*
X186026619Y-84464400D01*
X186026619Y-84369161D01*
X186074238Y-84226304D01*
X186121857Y-84178685D01*
X186455190Y-84178685D01*
X186455190Y-84369161D01*
X186026619Y-83750114D02*
X187026619Y-83750114D01*
X186026619Y-83178685D01*
X187026619Y-83178685D01*
X186026619Y-82702495D02*
X187026619Y-82702495D01*
X187026619Y-82464400D01*
X186979000Y-82321542D01*
X186883761Y-82226304D01*
X186788523Y-82178685D01*
X186598047Y-82131066D01*
X186455190Y-82131066D01*
X186264714Y-82178685D01*
X186169476Y-82226304D01*
X186074238Y-82321542D01*
X186026619Y-82464400D01*
X186026619Y-82702495D01*
X185369000Y-84226304D02*
X185416619Y-84321542D01*
X185416619Y-84464400D01*
X185369000Y-84607257D01*
X185273761Y-84702495D01*
X185178523Y-84750114D01*
X184988047Y-84797733D01*
X184845190Y-84797733D01*
X184654714Y-84750114D01*
X184559476Y-84702495D01*
X184464238Y-84607257D01*
X184416619Y-84464400D01*
X184416619Y-84369161D01*
X184464238Y-84226304D01*
X184511857Y-84178685D01*
X184845190Y-84178685D01*
X184845190Y-84369161D01*
X184416619Y-83750114D02*
X185416619Y-83750114D01*
X184416619Y-83178685D01*
X185416619Y-83178685D01*
X184416619Y-82702495D02*
X185416619Y-82702495D01*
X185416619Y-82464400D01*
X185369000Y-82321542D01*
X185273761Y-82226304D01*
X185178523Y-82178685D01*
X184988047Y-82131066D01*
X184845190Y-82131066D01*
X184654714Y-82178685D01*
X184559476Y-82226304D01*
X184464238Y-82321542D01*
X184416619Y-82464400D01*
X184416619Y-82702495D01*
%LPC*%
D14*
X172186600Y-140614400D03*
X172186600Y-72034400D03*
X240766600Y-72034400D03*
X240766600Y-140614400D03*
D15*
X156732400Y-140860800D03*
D16*
X159272400Y-140860800D03*
X156732400Y-138320800D03*
X159272400Y-138320800D03*
X156732400Y-135780800D03*
X159272400Y-135780800D03*
X156732400Y-133240800D03*
X159272400Y-133240800D03*
X156732400Y-130700800D03*
X159272400Y-130700800D03*
X156732400Y-128160800D03*
X159272400Y-128160800D03*
X156732400Y-125620800D03*
X159272400Y-125620800D03*
X156732400Y-123080800D03*
X159272400Y-123080800D03*
X156732400Y-120540800D03*
X159272400Y-120540800D03*
X156732400Y-118000800D03*
X159272400Y-118000800D03*
X156732400Y-115460800D03*
X159272400Y-115460800D03*
X156732400Y-112920800D03*
X159272400Y-112920800D03*
X156732400Y-110380800D03*
X159272400Y-110380800D03*
X156732400Y-107840800D03*
X159272400Y-107840800D03*
X156732400Y-105300800D03*
X159272400Y-105300800D03*
X156732400Y-102760800D03*
X159272400Y-102760800D03*
X156732400Y-100220800D03*
X159272400Y-100220800D03*
X156732400Y-97680800D03*
X159272400Y-97680800D03*
X156732400Y-95140800D03*
X159272400Y-95140800D03*
X156732400Y-92600800D03*
X159272400Y-92600800D03*
D15*
X239497000Y-83477000D03*
D16*
X242037000Y-83477000D03*
X239497000Y-86017000D03*
X242037000Y-86017000D03*
X239497000Y-88557000D03*
X242037000Y-88557000D03*
X239497000Y-91097000D03*
X242037000Y-91097000D03*
X239497000Y-93637000D03*
X242037000Y-93637000D03*
X239497000Y-96177000D03*
X242037000Y-96177000D03*
X239497000Y-98717000D03*
X242037000Y-98717000D03*
X239497000Y-101257000D03*
X242037000Y-101257000D03*
X239497000Y-103797000D03*
X242037000Y-103797000D03*
X239497000Y-106337000D03*
X242037000Y-106337000D03*
X239497000Y-108877000D03*
X242037000Y-108877000D03*
X239497000Y-111417000D03*
X242037000Y-111417000D03*
X239497000Y-113957000D03*
X242037000Y-113957000D03*
X239497000Y-116497000D03*
X242037000Y-116497000D03*
X239497000Y-119037000D03*
X242037000Y-119037000D03*
X239497000Y-121577000D03*
X242037000Y-121577000D03*
X239497000Y-124117000D03*
X242037000Y-124117000D03*
X239497000Y-126657000D03*
X242037000Y-126657000D03*
X239497000Y-129197000D03*
X242037000Y-129197000D03*
X239497000Y-131737000D03*
X242037000Y-131737000D03*
D15*
X230353000Y-83477000D03*
D16*
X232893000Y-83477000D03*
X230353000Y-86017000D03*
X232893000Y-86017000D03*
X230353000Y-88557000D03*
X232893000Y-88557000D03*
X230353000Y-91097000D03*
X232893000Y-91097000D03*
X230353000Y-93637000D03*
X232893000Y-93637000D03*
X230353000Y-96177000D03*
X232893000Y-96177000D03*
X230353000Y-98717000D03*
X232893000Y-98717000D03*
X230353000Y-101257000D03*
X232893000Y-101257000D03*
X230353000Y-103797000D03*
X232893000Y-103797000D03*
X230353000Y-106337000D03*
X232893000Y-106337000D03*
X230353000Y-108877000D03*
X232893000Y-108877000D03*
X230353000Y-111417000D03*
X232893000Y-111417000D03*
X230353000Y-113957000D03*
X232893000Y-113957000D03*
X230353000Y-116497000D03*
X232893000Y-116497000D03*
X230353000Y-119037000D03*
X232893000Y-119037000D03*
X230353000Y-121577000D03*
X232893000Y-121577000D03*
X230353000Y-124117000D03*
X232893000Y-124117000D03*
X230353000Y-126657000D03*
X232893000Y-126657000D03*
X230353000Y-129197000D03*
X232893000Y-129197000D03*
X230353000Y-131737000D03*
X232893000Y-131737000D03*
D15*
X180061000Y-83477000D03*
D16*
X182601000Y-83477000D03*
X180061000Y-86017000D03*
X182601000Y-86017000D03*
X180061000Y-88557000D03*
X182601000Y-88557000D03*
X180061000Y-91097000D03*
X182601000Y-91097000D03*
X180061000Y-93637000D03*
X182601000Y-93637000D03*
X180061000Y-96177000D03*
X182601000Y-96177000D03*
X180061000Y-98717000D03*
X182601000Y-98717000D03*
X180061000Y-101257000D03*
X182601000Y-101257000D03*
X180061000Y-103797000D03*
X182601000Y-103797000D03*
X180061000Y-106337000D03*
X182601000Y-106337000D03*
X180061000Y-108877000D03*
X182601000Y-108877000D03*
X180061000Y-111417000D03*
X182601000Y-111417000D03*
X180061000Y-113957000D03*
X182601000Y-113957000D03*
X180061000Y-116497000D03*
X182601000Y-116497000D03*
X180061000Y-119037000D03*
X182601000Y-119037000D03*
X180061000Y-121577000D03*
X182601000Y-121577000D03*
X180061000Y-124117000D03*
X182601000Y-124117000D03*
X180061000Y-126657000D03*
X182601000Y-126657000D03*
X180061000Y-129197000D03*
X182601000Y-129197000D03*
X180061000Y-131737000D03*
X182601000Y-131737000D03*
D15*
X170917000Y-83477000D03*
D16*
X173457000Y-83477000D03*
X170917000Y-86017000D03*
X173457000Y-86017000D03*
X170917000Y-88557000D03*
X173457000Y-88557000D03*
X170917000Y-91097000D03*
X173457000Y-91097000D03*
X170917000Y-93637000D03*
X173457000Y-93637000D03*
X170917000Y-96177000D03*
X173457000Y-96177000D03*
X170917000Y-98717000D03*
X173457000Y-98717000D03*
X170917000Y-101257000D03*
X173457000Y-101257000D03*
X170917000Y-103797000D03*
X173457000Y-103797000D03*
X170917000Y-106337000D03*
X173457000Y-106337000D03*
X170917000Y-108877000D03*
X173457000Y-108877000D03*
X170917000Y-111417000D03*
X173457000Y-111417000D03*
X170917000Y-113957000D03*
X173457000Y-113957000D03*
X170917000Y-116497000D03*
X173457000Y-116497000D03*
X170917000Y-119037000D03*
X173457000Y-119037000D03*
X170917000Y-121577000D03*
X173457000Y-121577000D03*
X170917000Y-124117000D03*
X173457000Y-124117000D03*
X170917000Y-126657000D03*
X173457000Y-126657000D03*
X170917000Y-129197000D03*
X173457000Y-129197000D03*
X170917000Y-131737000D03*
X173457000Y-131737000D03*
D15*
X129768600Y-90059400D03*
D16*
X132308600Y-90059400D03*
X134848600Y-90059400D03*
X137388600Y-90059400D03*
X139928600Y-90059400D03*
X142468600Y-90059400D03*
D15*
X165582600Y-146431000D03*
D16*
X165582600Y-143891000D03*
D17*
X111616800Y-120593600D03*
X111616800Y-114813600D03*
D18*
X107966800Y-113383600D03*
D19*
X112146800Y-113383600D03*
X112146800Y-122023600D03*
D18*
X107966800Y-122023600D03*
D15*
X142544800Y-100863400D03*
D16*
X142544800Y-98323400D03*
X142544800Y-95783400D03*
D17*
X111581000Y-143688800D03*
X111581000Y-137908800D03*
D18*
X107931000Y-145118800D03*
X107931000Y-136478800D03*
D19*
X112111000Y-136478800D03*
X112111000Y-145118800D03*
D15*
X116281200Y-99009200D03*
D16*
X116281200Y-96469200D03*
X116281200Y-93929200D03*
X116281200Y-91389200D03*
D15*
X137705800Y-100888400D03*
D16*
X137705800Y-98348400D03*
X137705800Y-95808400D03*
M02*
