M48
; DRILL file {KiCad (6.0.7)} date Sat Aug  5 00:11:12 2023
; FORMAT={-:-/ absolute / metric / decimal}
; #@! TF.CreationDate,2023-08-05T00:11:12+07:00
; #@! TF.GenerationSoftware,Kicad,Pcbnew,(6.0.7)
; #@! TF.FileFunction,Plated,1,4,PTH
FMAT,2
METRIC
; #@! TA.AperFunction,Plated,PTH,ViaDrill
T1C0.200
; #@! TA.AperFunction,Plated,PTH,ViaDrill
T2C0.400
; #@! TA.AperFunction,Plated,PTH,ComponentDrill
T3C0.600
; #@! TA.AperFunction,Plated,PTH,ComponentDrill
T4C1.000
%
G90
G05
T1
X114.376Y-114.427
X114.706Y-120.955
X120.244Y-115.951
X120.244Y-119.228
X120.244Y-122.682
X123.8Y-114.935
X124.155Y-124.358
X126.136Y-111.15
X126.492Y-122.453
X126.619Y-116.942
X126.644Y-119.939
X126.644Y-120.929
X126.664Y-121.895
X126.797Y-107.747
X127.178Y-120.447
X127.178Y-123.139
X127.684Y-122.808
X127.686Y-111.582
X127.838Y-107.747
X128.194Y-111.125
X128.194Y-123.012
X128.676Y-111.582
X129.184Y-122.784
X129.69Y-123.013
X129.692Y-111.582
X130.186Y-122.777
X130.2Y-111.125
X130.683Y-111.582
X130.683Y-123.012
X131.191Y-121.818
X131.572Y-108.712
X131.674Y-123.012
X131.699Y-111.125
X132.182Y-111.582
X132.182Y-122.758
X132.69Y-111.125
X132.69Y-123.012
X133.194Y-122.756
X133.198Y-111.582
X133.68Y-115.443
X133.68Y-123.012
X133.873Y-107.762
X133.96Y-108.712
X134.696Y-120.447
X134.696Y-123.012
X137.846Y-114.935
X137.846Y-115.951
X137.865Y-119.445
X137.871Y-116.942
X137.871Y-118.44
X137.871Y-121.945
X138.1Y-117.45
X138.1Y-118.948
X138.101Y-119.941
X138.102Y-116.437
X138.106Y-122.442
X138.913Y-115.443
X140.106Y-120.472
X140.106Y-121.412
X144.323Y-135.56
X145.567Y-133.756
X178.994Y-149.098
X180.518Y-145.288
X198.673Y-81.178
X199.175Y-80.684
X214.198Y-75.971
X214.859Y-75.971
X215.519Y-75.971
X216.154Y-75.971
X216.814Y-75.971
X217.449Y-75.971
X218.11Y-75.971
X218.975Y-78.6
T2
X114.469Y-141.535
X114.494Y-140.011
X117.348Y-110.592
X117.348Y-128.245
X119.583Y-150.063
X120.548Y-134.366
X129.251Y-139.173
X129.251Y-144.253
X131.14Y-145.821
X132.045Y-135.871
X132.884Y-141.51
X133.452Y-134.264
X134.259Y-140.815
X134.484Y-145.142
X135.347Y-142.551
X135.347Y-143.551
X136.286Y-144.718
X136.311Y-136.918
X137.516Y-146.583
X137.536Y-135.743
X138.76Y-147.879
X139.031Y-135.063
X139.973Y-134.727
X140.16Y-131.969
X141.128Y-135.559
X144.161Y-137.118
X145.651Y-131.932
X145.669Y-132.932
X145.694Y-145.339
X149.403Y-146.583
X150.749Y-147.879
X153.391Y-144.221
X155.245Y-145.364
X159.08Y-142.545
X166.04Y-120.269
X167.081Y-119.024
X167.589Y-110.16
X168.385Y-89.865
X176.53Y-132.08
X177.13Y-92.608
X184.457Y-117.789
X186.01Y-119.786
X186.755Y-119.013
X186.788Y-122.834
X186.839Y-106.302
X187.477Y-115.697
X187.554Y-119.792
X187.567Y-126.67
X188.316Y-114.859
X188.345Y-127.889
X188.387Y-120.828
X189.124Y-129.184
X189.163Y-114.046
X189.509Y-107.865
X189.541Y-99.555
X189.557Y-97.99
X189.794Y-130.454
X189.941Y-116.891
X190.748Y-114.001
X190.821Y-78.855
X191.337Y-71.487
X191.35Y-95.073
X191.364Y-125.225
X191.874Y-78.855
X191.996Y-112.333
X191.998Y-98.599
X192.0Y-68.45
X192.0Y-90.37
X192.507Y-114.148
X192.656Y-94.293
X193.3Y-91.15
X193.472Y-135.103
X193.937Y-98.591
X194.471Y-117.363
X195.254Y-118.334
X195.491Y-72.437
X196.034Y-117.375
X196.551Y-98.478
X196.555Y-144.203
X196.683Y-120.3
X197.025Y-118.775
X197.281Y-75.057
X197.333Y-101.577
X198.025Y-143.075
X198.45Y-121.175
X199.231Y-68.021
X202.675Y-85.079
X203.53Y-107.899
X203.85Y-134.914
X203.85Y-144.257
X203.86Y-79.096
X203.86Y-84.309
X203.925Y-98.564
X203.925Y-114.263
X203.925Y-121.125
X204.927Y-149.41
X204.936Y-128.863
X204.936Y-147.853
X205.689Y-81.178
X205.715Y-107.874
X205.715Y-129.642
X205.715Y-148.631
X207.467Y-81.178
X207.493Y-108.661
X207.493Y-128.863
X207.493Y-147.853
X208.509Y-107.857
X209.296Y-147.853
X209.39Y-128.855
X210.1Y-90.932
X210.109Y-114.249
X210.168Y-125.992
X210.17Y-98.55
X210.17Y-121.626
X210.175Y-72.111
X210.185Y-79.096
X210.21Y-134.925
X211.696Y-104.706
X212.445Y-103.944
X212.95Y-70.1
X213.055Y-84.658
X213.193Y-103.169
X213.939Y-102.394
X214.054Y-84.632
X214.071Y-127.305
X214.214Y-143.208
X214.732Y-134.154
X214.736Y-136.779
X214.859Y-126.492
X214.993Y-143.916
X215.519Y-131.039
X215.519Y-135.941
X215.798Y-127.305
X216.293Y-136.83
X216.298Y-133.172
X216.696Y-140.093
X217.449Y-133.951
X218.259Y-102.842
X218.266Y-101.774
X218.268Y-103.937
X218.719Y-128.083
X218.745Y-74.751
X219.178Y-147.341
X219.443Y-124.426
X219.546Y-98.475
X219.939Y-111.227
X220.068Y-75.663
X220.231Y-147.315
X220.6Y-124.455
X221.107Y-74.805
X221.175Y-98.591
X221.288Y-113.233
X221.288Y-135.992
X221.374Y-89.09
X221.938Y-90.348
X222.143Y-75.692
X222.825Y-148.625
X222.925Y-74.85
X222.925Y-84.511
X223.75Y-82.936
X223.763Y-76.525
X224.5Y-122.15
X225.328Y-84.059
X226.186Y-84.669
X226.528Y-96.164
X226.718Y-82.936
X226.722Y-77.798
X227.306Y-94.972
X227.33Y-127.0
X227.772Y-82.949
X227.775Y-77.819
X228.307Y-74.026
X228.361Y-84.661
X228.371Y-89.814
X228.825Y-75.65
X228.825Y-82.936
X228.998Y-73.23
X229.8Y-72.45
X230.436Y-71.61
X230.607Y-145.847
X236.22Y-127.0
X236.22Y-132.08
X236.703Y-71.625
X238.125Y-144.043
X240.792Y-134.188
X243.535Y-130.175
X243.662Y-120.244
X244.441Y-113.995
T4
X116.281Y-91.389
X116.281Y-93.929
X116.281Y-96.469
X116.281Y-99.009
X129.769Y-90.059
X132.309Y-90.059
X134.849Y-90.059
X137.389Y-90.059
X137.706Y-95.808
X137.706Y-98.348
X137.706Y-100.888
X139.929Y-90.059
X142.469Y-90.059
X142.545Y-95.783
X142.545Y-98.323
X142.545Y-100.863
X156.732Y-92.601
X156.732Y-95.141
X156.732Y-97.681
X156.732Y-100.221
X156.732Y-102.761
X156.732Y-105.301
X156.732Y-107.841
X156.732Y-110.381
X156.732Y-112.921
X156.732Y-115.461
X156.732Y-118.001
X156.732Y-120.541
X156.732Y-123.081
X156.732Y-125.621
X156.732Y-128.161
X156.732Y-130.701
X156.732Y-133.241
X156.732Y-135.781
X156.732Y-138.321
X156.732Y-140.861
X159.272Y-92.601
X159.272Y-95.141
X159.272Y-97.681
X159.272Y-100.221
X159.272Y-102.761
X159.272Y-105.301
X159.272Y-107.841
X159.272Y-110.381
X159.272Y-112.921
X159.272Y-115.461
X159.272Y-118.001
X159.272Y-120.541
X159.272Y-123.081
X159.272Y-125.621
X159.272Y-128.161
X159.272Y-130.701
X159.272Y-133.241
X159.272Y-135.781
X159.272Y-138.321
X159.272Y-140.861
X165.583Y-143.891
X165.583Y-146.431
X170.917Y-83.477
X170.917Y-86.017
X170.917Y-88.557
X170.917Y-91.097
X170.917Y-93.637
X170.917Y-96.177
X170.917Y-98.717
X170.917Y-101.257
X170.917Y-103.797
X170.917Y-106.337
X170.917Y-108.877
X170.917Y-111.417
X170.917Y-113.957
X170.917Y-116.497
X170.917Y-119.037
X170.917Y-121.577
X170.917Y-124.117
X170.917Y-126.657
X170.917Y-129.197
X170.917Y-131.737
X173.457Y-83.477
X173.457Y-86.017
X173.457Y-88.557
X173.457Y-91.097
X173.457Y-93.637
X173.457Y-96.177
X173.457Y-98.717
X173.457Y-101.257
X173.457Y-103.797
X173.457Y-106.337
X173.457Y-108.877
X173.457Y-111.417
X173.457Y-113.957
X173.457Y-116.497
X173.457Y-119.037
X173.457Y-121.577
X173.457Y-124.117
X173.457Y-126.657
X173.457Y-129.197
X173.457Y-131.737
X180.061Y-83.477
X180.061Y-86.017
X180.061Y-88.557
X180.061Y-91.097
X180.061Y-93.637
X180.061Y-96.177
X180.061Y-98.717
X180.061Y-101.257
X180.061Y-103.797
X180.061Y-106.337
X180.061Y-108.877
X180.061Y-111.417
X180.061Y-113.957
X180.061Y-116.497
X180.061Y-119.037
X180.061Y-121.577
X180.061Y-124.117
X180.061Y-126.657
X180.061Y-129.197
X180.061Y-131.737
X182.601Y-83.477
X182.601Y-86.017
X182.601Y-88.557
X182.601Y-91.097
X182.601Y-93.637
X182.601Y-96.177
X182.601Y-98.717
X182.601Y-101.257
X182.601Y-103.797
X182.601Y-106.337
X182.601Y-108.877
X182.601Y-111.417
X182.601Y-113.957
X182.601Y-116.497
X182.601Y-119.037
X182.601Y-121.577
X182.601Y-124.117
X182.601Y-126.657
X182.601Y-129.197
X182.601Y-131.737
X230.353Y-83.477
X230.353Y-86.017
X230.353Y-88.557
X230.353Y-91.097
X230.353Y-93.637
X230.353Y-96.177
X230.353Y-98.717
X230.353Y-101.257
X230.353Y-103.797
X230.353Y-106.337
X230.353Y-108.877
X230.353Y-111.417
X230.353Y-113.957
X230.353Y-116.497
X230.353Y-119.037
X230.353Y-121.577
X230.353Y-124.117
X230.353Y-126.657
X230.353Y-129.197
X230.353Y-131.737
X232.893Y-83.477
X232.893Y-86.017
X232.893Y-88.557
X232.893Y-91.097
X232.893Y-93.637
X232.893Y-96.177
X232.893Y-98.717
X232.893Y-101.257
X232.893Y-103.797
X232.893Y-106.337
X232.893Y-108.877
X232.893Y-111.417
X232.893Y-113.957
X232.893Y-116.497
X232.893Y-119.037
X232.893Y-121.577
X232.893Y-124.117
X232.893Y-126.657
X232.893Y-129.197
X232.893Y-131.737
X239.497Y-83.477
X239.497Y-86.017
X239.497Y-88.557
X239.497Y-91.097
X239.497Y-93.637
X239.497Y-96.177
X239.497Y-98.717
X239.497Y-101.257
X239.497Y-103.797
X239.497Y-106.337
X239.497Y-108.877
X239.497Y-111.417
X239.497Y-113.957
X239.497Y-116.497
X239.497Y-119.037
X239.497Y-121.577
X239.497Y-124.117
X239.497Y-126.657
X239.497Y-129.197
X239.497Y-131.737
X242.037Y-83.477
X242.037Y-86.017
X242.037Y-88.557
X242.037Y-91.097
X242.037Y-93.637
X242.037Y-96.177
X242.037Y-98.717
X242.037Y-101.257
X242.037Y-103.797
X242.037Y-106.337
X242.037Y-108.877
X242.037Y-111.417
X242.037Y-113.957
X242.037Y-116.497
X242.037Y-119.037
X242.037Y-121.577
X242.037Y-124.117
X242.037Y-126.657
X242.037Y-129.197
X242.037Y-131.737
T3
X108.231Y-136.479G85X107.631Y-136.479
G05
X108.231Y-145.119G85X107.631Y-145.119
G05
X108.267Y-113.384G85X107.667Y-113.384
G05
X108.267Y-122.024G85X107.667Y-122.024
G05
X112.661Y-136.479G85X111.561Y-136.479
G05
X112.661Y-145.119G85X111.561Y-145.119
G05
X112.697Y-113.384G85X111.597Y-113.384
G05
X112.697Y-122.024G85X111.597Y-122.024
G05
T0
M30
