G04 #@! TF.GenerationSoftware,KiCad,Pcbnew,(6.0.7)*
G04 #@! TF.CreationDate,2023-08-04T00:04:24+07:00*
G04 #@! TF.ProjectId,ECELab_v1,4543454c-6162-45f7-9631-2e6b69636164,rev?*
G04 #@! TF.SameCoordinates,Original*
G04 #@! TF.FileFunction,Soldermask,Top*
G04 #@! TF.FilePolarity,Negative*
%FSLAX46Y46*%
G04 Gerber Fmt 4.6, Leading zero omitted, Abs format (unit mm)*
G04 Created by KiCad (PCBNEW (6.0.7)) date 2023-08-04 00:04:24*
%MOMM*%
%LPD*%
G01*
G04 APERTURE LIST*
G04 Aperture macros list*
%AMRoundRect*
0 Rectangle with rounded corners*
0 $1 Rounding radius*
0 $2 $3 $4 $5 $6 $7 $8 $9 X,Y pos of 4 corners*
0 Add a 4 corners polygon primitive as box body*
4,1,4,$2,$3,$4,$5,$6,$7,$8,$9,$2,$3,0*
0 Add four circle primitives for the rounded corners*
1,1,$1+$1,$2,$3*
1,1,$1+$1,$4,$5*
1,1,$1+$1,$6,$7*
1,1,$1+$1,$8,$9*
0 Add four rect primitives between the rounded corners*
20,1,$1+$1,$2,$3,$4,$5,0*
20,1,$1+$1,$4,$5,$6,$7,0*
20,1,$1+$1,$6,$7,$8,$9,0*
20,1,$1+$1,$8,$9,$2,$3,0*%
G04 Aperture macros list end*
%ADD10C,3.500000*%
%ADD11R,1.700000X1.700000*%
%ADD12O,1.700000X1.700000*%
%ADD13RoundRect,0.135000X0.135000X0.185000X-0.135000X0.185000X-0.135000X-0.185000X0.135000X-0.185000X0*%
%ADD14RoundRect,0.135000X-0.135000X-0.185000X0.135000X-0.185000X0.135000X0.185000X-0.135000X0.185000X0*%
%ADD15R,2.000000X4.500000*%
%ADD16R,0.400000X0.500000*%
%ADD17RoundRect,0.135000X0.185000X-0.135000X0.185000X0.135000X-0.185000X0.135000X-0.185000X-0.135000X0*%
%ADD18R,0.250000X0.360000*%
%ADD19C,2.000000*%
%ADD20R,0.650000X0.400000*%
%ADD21R,0.450000X1.750000*%
%ADD22RoundRect,0.218750X0.256250X-0.218750X0.256250X0.218750X-0.256250X0.218750X-0.256250X-0.218750X0*%
%ADD23RoundRect,0.218750X-0.218750X-0.256250X0.218750X-0.256250X0.218750X0.256250X-0.218750X0.256250X0*%
%ADD24RoundRect,0.140000X-0.170000X0.140000X-0.170000X-0.140000X0.170000X-0.140000X0.170000X0.140000X0*%
%ADD25RoundRect,0.218750X-0.256250X0.218750X-0.256250X-0.218750X0.256250X-0.218750X0.256250X0.218750X0*%
%ADD26RoundRect,0.140000X0.140000X0.170000X-0.140000X0.170000X-0.140000X-0.170000X0.140000X-0.170000X0*%
%ADD27C,0.650000*%
%ADD28R,0.600000X1.450000*%
%ADD29R,0.300000X1.450000*%
%ADD30O,1.000000X1.600000*%
%ADD31O,1.000000X2.100000*%
%ADD32R,0.500000X0.400000*%
%ADD33RoundRect,0.147500X-0.172500X0.147500X-0.172500X-0.147500X0.172500X-0.147500X0.172500X0.147500X0*%
%ADD34RoundRect,0.140000X0.170000X-0.140000X0.170000X0.140000X-0.170000X0.140000X-0.170000X-0.140000X0*%
%ADD35R,0.450000X0.600000*%
%ADD36C,5.000000*%
%ADD37RoundRect,0.150000X0.825000X0.150000X-0.825000X0.150000X-0.825000X-0.150000X0.825000X-0.150000X0*%
%ADD38R,2.000000X1.500000*%
%ADD39R,2.000000X3.800000*%
%ADD40RoundRect,0.135000X-0.185000X0.135000X-0.185000X-0.135000X0.185000X-0.135000X0.185000X0.135000X0*%
%ADD41RoundRect,0.075000X-0.700000X-0.075000X0.700000X-0.075000X0.700000X0.075000X-0.700000X0.075000X0*%
%ADD42RoundRect,0.075000X-0.075000X-0.700000X0.075000X-0.700000X0.075000X0.700000X-0.075000X0.700000X0*%
G04 APERTURE END LIST*
D10*
X256620000Y-134696200D03*
X256620000Y-89000000D03*
D11*
X206552800Y-115575000D03*
D12*
X206552800Y-113035000D03*
D13*
X211468200Y-127152400D03*
X210448200Y-127152400D03*
D14*
X210448200Y-125882400D03*
X211468200Y-125882400D03*
D15*
X208356200Y-79595400D03*
X208356200Y-88095400D03*
D16*
X217150000Y-108530000D03*
X217850000Y-108530000D03*
X217850000Y-107530000D03*
X217150000Y-107530000D03*
D11*
X253959600Y-82931000D03*
D12*
X251419600Y-82931000D03*
X248879600Y-82931000D03*
D17*
X214579200Y-77472000D03*
X214579200Y-76452000D03*
D18*
X182295800Y-77177000D03*
X182295800Y-78017000D03*
D19*
X220167200Y-142138400D03*
D11*
X248640600Y-139847400D03*
D12*
X248640600Y-142387400D03*
D11*
X203073000Y-87218600D03*
D12*
X203073000Y-89758600D03*
X200533000Y-87218600D03*
X200533000Y-89758600D03*
X197993000Y-87218600D03*
X197993000Y-89758600D03*
X195453000Y-87218600D03*
X195453000Y-89758600D03*
X192913000Y-87218600D03*
X192913000Y-89758600D03*
X190373000Y-87218600D03*
X190373000Y-89758600D03*
D20*
X212537000Y-93660200D03*
X212537000Y-94310200D03*
X212537000Y-94960200D03*
X214437000Y-94960200D03*
X214437000Y-94310200D03*
X214437000Y-93660200D03*
D21*
X220735000Y-97690000D03*
X220085000Y-97690000D03*
X219435000Y-97690000D03*
X218785000Y-97690000D03*
X218135000Y-97690000D03*
X217485000Y-97690000D03*
X216835000Y-97690000D03*
X216185000Y-97690000D03*
X215535000Y-97690000D03*
X214885000Y-97690000D03*
X214235000Y-97690000D03*
X213585000Y-97690000D03*
X212935000Y-97690000D03*
X212285000Y-97690000D03*
X212285000Y-104890000D03*
X212935000Y-104890000D03*
X213585000Y-104890000D03*
X214235000Y-104890000D03*
X214885000Y-104890000D03*
X215535000Y-104890000D03*
X216185000Y-104890000D03*
X216835000Y-104890000D03*
X217485000Y-104890000D03*
X218135000Y-104890000D03*
X218785000Y-104890000D03*
X219435000Y-104890000D03*
X220085000Y-104890000D03*
X220735000Y-104890000D03*
D22*
X216585800Y-82092900D03*
X216585800Y-80517900D03*
D23*
X186283500Y-73609200D03*
X187858500Y-73609200D03*
D17*
X205079600Y-73966800D03*
X205079600Y-72946800D03*
D24*
X190703200Y-69342000D03*
X190703200Y-70302000D03*
D25*
X244850000Y-134442500D03*
X244850000Y-136017500D03*
D26*
X187830400Y-77724000D03*
X186870400Y-77724000D03*
D27*
X179115200Y-72983400D03*
X173335200Y-72983400D03*
D28*
X179475200Y-74428400D03*
X178675200Y-74428400D03*
D29*
X177475200Y-74428400D03*
X176475200Y-74428400D03*
X175975200Y-74428400D03*
X174975200Y-74428400D03*
D28*
X173775200Y-74428400D03*
X172975200Y-74428400D03*
X172975200Y-74428400D03*
X173775200Y-74428400D03*
D29*
X174475200Y-74428400D03*
X175475200Y-74428400D03*
X176975200Y-74428400D03*
X177975200Y-74428400D03*
D28*
X178675200Y-74428400D03*
X179475200Y-74428400D03*
D30*
X180545200Y-69333400D03*
X171905200Y-69333400D03*
D31*
X180545200Y-73513400D03*
X171905200Y-73513400D03*
D10*
X172186439Y-140630000D03*
D17*
X193900000Y-120485000D03*
X193900000Y-119465000D03*
D19*
X228041200Y-142138400D03*
D17*
X208330800Y-73966800D03*
X208330800Y-72946800D03*
D26*
X187855800Y-72212200D03*
X186895800Y-72212200D03*
D24*
X178663600Y-76228000D03*
X178663600Y-77188000D03*
X213537800Y-76482000D03*
X213537800Y-77442000D03*
D32*
X244940200Y-102291400D03*
X244940200Y-102991400D03*
X245940200Y-102991400D03*
X245940200Y-102291400D03*
D26*
X187830400Y-75057000D03*
X186870400Y-75057000D03*
D24*
X190400000Y-96985200D03*
X190400000Y-97945200D03*
D33*
X208330800Y-70023000D03*
X208330800Y-70993000D03*
D13*
X187860400Y-78867000D03*
X186840400Y-78867000D03*
D34*
X222600000Y-118305000D03*
X222600000Y-117345000D03*
D26*
X211463600Y-123342400D03*
X210503600Y-123342400D03*
D24*
X219760800Y-131828600D03*
X219760800Y-132788600D03*
D35*
X243021200Y-134180000D03*
X243021200Y-136280000D03*
D16*
X195850000Y-119470000D03*
X195150000Y-119470000D03*
X195150000Y-120470000D03*
X195850000Y-120470000D03*
D21*
X212275000Y-117600000D03*
X212925000Y-117600000D03*
X213575000Y-117600000D03*
X214225000Y-117600000D03*
X214875000Y-117600000D03*
X215525000Y-117600000D03*
X216175000Y-117600000D03*
X216825000Y-117600000D03*
X217475000Y-117600000D03*
X218125000Y-117600000D03*
X218775000Y-117600000D03*
X219425000Y-117600000D03*
X220075000Y-117600000D03*
X220725000Y-117600000D03*
X220725000Y-110400000D03*
X220075000Y-110400000D03*
X219425000Y-110400000D03*
X218775000Y-110400000D03*
X218125000Y-110400000D03*
X217475000Y-110400000D03*
X216825000Y-110400000D03*
X216175000Y-110400000D03*
X215525000Y-110400000D03*
X214875000Y-110400000D03*
X214225000Y-110400000D03*
X213575000Y-110400000D03*
X212925000Y-110400000D03*
X212275000Y-110400000D03*
D24*
X218948000Y-80520600D03*
X218948000Y-81480600D03*
D17*
X174472600Y-77243400D03*
X174472600Y-76223400D03*
D18*
X221259400Y-77075400D03*
X221259400Y-77915400D03*
D16*
X215860000Y-106760000D03*
X215160000Y-106760000D03*
X215160000Y-107760000D03*
X215860000Y-107760000D03*
D34*
X213588600Y-87373400D03*
X213588600Y-86413400D03*
D19*
X234772200Y-142113000D03*
D24*
X246196200Y-134445200D03*
X246196200Y-135405200D03*
X220599000Y-82908200D03*
X220599000Y-83868200D03*
X211582000Y-78564800D03*
X211582000Y-79524800D03*
D21*
X200725000Y-97700000D03*
X200075000Y-97700000D03*
X199425000Y-97700000D03*
X198775000Y-97700000D03*
X198125000Y-97700000D03*
X197475000Y-97700000D03*
X196825000Y-97700000D03*
X196175000Y-97700000D03*
X195525000Y-97700000D03*
X194875000Y-97700000D03*
X194225000Y-97700000D03*
X193575000Y-97700000D03*
X192925000Y-97700000D03*
X192275000Y-97700000D03*
X192275000Y-104900000D03*
X192925000Y-104900000D03*
X193575000Y-104900000D03*
X194225000Y-104900000D03*
X194875000Y-104900000D03*
X195525000Y-104900000D03*
X196175000Y-104900000D03*
X196825000Y-104900000D03*
X197475000Y-104900000D03*
X198125000Y-104900000D03*
X198775000Y-104900000D03*
X199425000Y-104900000D03*
X200075000Y-104900000D03*
X200725000Y-104900000D03*
D11*
X195254800Y-127208200D03*
D12*
X192714800Y-127208200D03*
X195254800Y-124668200D03*
X192714800Y-124668200D03*
D11*
X225958400Y-124968000D03*
D12*
X225958400Y-127508000D03*
X225958400Y-130048000D03*
X225958400Y-132588000D03*
X225958400Y-135128000D03*
X225958400Y-137668000D03*
D11*
X225806000Y-79197200D03*
D12*
X228346000Y-79197200D03*
X230886000Y-79197200D03*
X233426000Y-79197200D03*
D34*
X181279800Y-78026200D03*
X181279800Y-77066200D03*
D24*
X211582000Y-81480600D03*
X211582000Y-80520600D03*
D21*
X200725000Y-110400000D03*
X200075000Y-110400000D03*
X199425000Y-110400000D03*
X198775000Y-110400000D03*
X198125000Y-110400000D03*
X197475000Y-110400000D03*
X196825000Y-110400000D03*
X196175000Y-110400000D03*
X195525000Y-110400000D03*
X194875000Y-110400000D03*
X194225000Y-110400000D03*
X193575000Y-110400000D03*
X192925000Y-110400000D03*
X192275000Y-110400000D03*
X192275000Y-117600000D03*
X192925000Y-117600000D03*
X193575000Y-117600000D03*
X194225000Y-117600000D03*
X194875000Y-117600000D03*
X195525000Y-117600000D03*
X196175000Y-117600000D03*
X196825000Y-117600000D03*
X197475000Y-117600000D03*
X198125000Y-117600000D03*
X198775000Y-117600000D03*
X199425000Y-117600000D03*
X200075000Y-117600000D03*
X200725000Y-117600000D03*
D27*
X219221800Y-73261600D03*
X213441800Y-73261600D03*
D28*
X219581800Y-74706600D03*
X218781800Y-74706600D03*
D29*
X217581800Y-74706600D03*
X216581800Y-74706600D03*
X216081800Y-74706600D03*
X215081800Y-74706600D03*
D28*
X213881800Y-74706600D03*
X213081800Y-74706600D03*
X213081800Y-74706600D03*
X213881800Y-74706600D03*
D29*
X214581800Y-74706600D03*
X215581800Y-74706600D03*
X217081800Y-74706600D03*
X218081800Y-74706600D03*
D28*
X218781800Y-74706600D03*
X219581800Y-74706600D03*
D31*
X220651800Y-73791600D03*
D30*
X212011800Y-69611600D03*
D31*
X212011800Y-73791600D03*
D30*
X220651800Y-69611600D03*
D22*
X214071200Y-82092900D03*
X214071200Y-80517900D03*
D23*
X186258100Y-76352400D03*
X187833100Y-76352400D03*
D36*
X256700894Y-127807500D03*
X256700894Y-95803500D03*
D11*
X238191200Y-79191000D03*
D12*
X240731200Y-79191000D03*
X243271200Y-79191000D03*
X245811200Y-79191000D03*
D37*
X218183000Y-127152400D03*
X218183000Y-125882400D03*
X218183000Y-124612400D03*
X218183000Y-123342400D03*
X213233000Y-123342400D03*
X213233000Y-124612400D03*
X213233000Y-125882400D03*
X213233000Y-127152400D03*
D34*
X241471800Y-136294200D03*
X241471800Y-135334200D03*
D26*
X211463600Y-124612400D03*
X210503600Y-124612400D03*
D38*
X217907000Y-134126000D03*
X217907000Y-131826000D03*
D39*
X211607000Y-131826000D03*
D38*
X217907000Y-129526000D03*
D25*
X179984400Y-76479300D03*
X179984400Y-78054300D03*
D10*
X240766165Y-140630000D03*
D34*
X220243400Y-77975400D03*
X220243400Y-77015400D03*
D40*
X217601800Y-76731400D03*
X217601800Y-77751400D03*
D16*
X195850000Y-106770000D03*
X195150000Y-106770000D03*
X195150000Y-107770000D03*
X195850000Y-107770000D03*
D33*
X205079600Y-70025400D03*
X205079600Y-70995400D03*
D11*
X207391000Y-124968000D03*
D12*
X207391000Y-127508000D03*
X207391000Y-130048000D03*
X207391000Y-132588000D03*
X207391000Y-135128000D03*
X207391000Y-137668000D03*
D17*
X213910000Y-107775000D03*
X213910000Y-106755000D03*
D26*
X186895800Y-71170800D03*
X187855800Y-71170800D03*
D17*
X193900000Y-107785000D03*
X193900000Y-106765000D03*
D24*
X217932000Y-80520600D03*
X217932000Y-81480600D03*
X200126600Y-69319200D03*
X200126600Y-70279200D03*
D34*
X219760800Y-129537400D03*
X219760800Y-128577400D03*
X202692000Y-75333800D03*
X202692000Y-74373800D03*
D40*
X219100000Y-107515000D03*
X219100000Y-108535000D03*
D24*
X215743200Y-95040000D03*
X215743200Y-96000000D03*
D41*
X189752600Y-72348400D03*
X189752600Y-72848400D03*
X189752600Y-73348400D03*
X189752600Y-73848400D03*
X189752600Y-74348400D03*
X189752600Y-74848400D03*
X189752600Y-75348400D03*
X189752600Y-75848400D03*
X189752600Y-76348400D03*
X189752600Y-76848400D03*
X189752600Y-77348400D03*
X189752600Y-77848400D03*
X189752600Y-78348400D03*
X189752600Y-78848400D03*
X189752600Y-79348400D03*
X189752600Y-79848400D03*
D42*
X191677600Y-81773400D03*
X192177600Y-81773400D03*
X192677600Y-81773400D03*
X193177600Y-81773400D03*
X193677600Y-81773400D03*
X194177600Y-81773400D03*
X194677600Y-81773400D03*
X195177600Y-81773400D03*
X195677600Y-81773400D03*
X196177600Y-81773400D03*
X196677600Y-81773400D03*
X197177600Y-81773400D03*
X197677600Y-81773400D03*
X198177600Y-81773400D03*
X198677600Y-81773400D03*
X199177600Y-81773400D03*
D41*
X201102600Y-79848400D03*
X201102600Y-79348400D03*
X201102600Y-78848400D03*
X201102600Y-78348400D03*
X201102600Y-77848400D03*
X201102600Y-77348400D03*
X201102600Y-76848400D03*
X201102600Y-76348400D03*
X201102600Y-75848400D03*
X201102600Y-75348400D03*
X201102600Y-74848400D03*
X201102600Y-74348400D03*
X201102600Y-73848400D03*
X201102600Y-73348400D03*
X201102600Y-72848400D03*
X201102600Y-72348400D03*
D42*
X199177600Y-70423400D03*
X198677600Y-70423400D03*
X198177600Y-70423400D03*
X197677600Y-70423400D03*
X197177600Y-70423400D03*
X196677600Y-70423400D03*
X196177600Y-70423400D03*
X195677600Y-70423400D03*
X195177600Y-70423400D03*
X194677600Y-70423400D03*
X194177600Y-70423400D03*
X193677600Y-70423400D03*
X193177600Y-70423400D03*
X192677600Y-70423400D03*
X192177600Y-70423400D03*
X191677600Y-70423400D03*
D25*
X218871800Y-76707900D03*
X218871800Y-78282900D03*
D24*
X212674200Y-80520600D03*
X212674200Y-81480600D03*
D11*
X209047000Y-96880600D03*
D12*
X206507000Y-96880600D03*
X209047000Y-94340600D03*
X206507000Y-94340600D03*
D40*
X177469800Y-76198000D03*
X177469800Y-77218000D03*
D34*
X190423800Y-110868400D03*
X190423800Y-109908400D03*
D11*
X251211500Y-136008000D03*
D12*
X248671500Y-136008000D03*
X251211500Y-133468000D03*
X248671500Y-133468000D03*
X251211500Y-130928000D03*
X248671500Y-130928000D03*
X251211500Y-128388000D03*
X248671500Y-128388000D03*
X251211500Y-125848000D03*
X248671500Y-125848000D03*
X251211500Y-123308000D03*
X248671500Y-123308000D03*
X251211500Y-120768000D03*
X248671500Y-120768000D03*
X251211500Y-118228000D03*
X248671500Y-118228000D03*
X251211500Y-115688000D03*
X248671500Y-115688000D03*
X251211500Y-113148000D03*
X248671500Y-113148000D03*
X251211500Y-110608000D03*
X248671500Y-110608000D03*
X251211500Y-108068000D03*
X248671500Y-108068000D03*
X251211500Y-105528000D03*
X248671500Y-105528000D03*
X251211500Y-102988000D03*
X248671500Y-102988000D03*
X251211500Y-100448000D03*
X248671500Y-100448000D03*
X251211500Y-97908000D03*
X248671500Y-97908000D03*
X251211500Y-95368000D03*
X248671500Y-95368000D03*
X251211500Y-92828000D03*
X248671500Y-92828000D03*
X251211500Y-90288000D03*
X248671500Y-90288000D03*
X251211500Y-87748000D03*
X248671500Y-87748000D03*
D11*
X182601000Y-83477000D03*
D12*
X180061000Y-83477000D03*
X182601000Y-86017000D03*
X180061000Y-86017000D03*
X182601000Y-88557000D03*
X180061000Y-88557000D03*
X182601000Y-91097000D03*
X180061000Y-91097000D03*
X182601000Y-93637000D03*
X180061000Y-93637000D03*
X182601000Y-96177000D03*
X180061000Y-96177000D03*
X182601000Y-98717000D03*
X180061000Y-98717000D03*
X182601000Y-101257000D03*
X180061000Y-101257000D03*
X182601000Y-103797000D03*
X180061000Y-103797000D03*
X182601000Y-106337000D03*
X180061000Y-106337000D03*
X182601000Y-108877000D03*
X180061000Y-108877000D03*
X182601000Y-111417000D03*
X180061000Y-111417000D03*
X182601000Y-113957000D03*
X180061000Y-113957000D03*
X182601000Y-116497000D03*
X180061000Y-116497000D03*
X182601000Y-119037000D03*
X180061000Y-119037000D03*
X182601000Y-121577000D03*
X180061000Y-121577000D03*
X182601000Y-124117000D03*
X180061000Y-124117000D03*
X182601000Y-126657000D03*
X180061000Y-126657000D03*
X182601000Y-129197000D03*
X180061000Y-129197000D03*
X182601000Y-131737000D03*
X180061000Y-131737000D03*
D11*
X242037000Y-83477000D03*
D12*
X239497000Y-83477000D03*
X242037000Y-86017000D03*
X239497000Y-86017000D03*
X242037000Y-88557000D03*
X239497000Y-88557000D03*
X242037000Y-91097000D03*
X239497000Y-91097000D03*
X242037000Y-93637000D03*
X239497000Y-93637000D03*
X242037000Y-96177000D03*
X239497000Y-96177000D03*
X242037000Y-98717000D03*
X239497000Y-98717000D03*
X242037000Y-101257000D03*
X239497000Y-101257000D03*
X242037000Y-103797000D03*
X239497000Y-103797000D03*
X242037000Y-106337000D03*
X239497000Y-106337000D03*
X242037000Y-108877000D03*
X239497000Y-108877000D03*
X242037000Y-111417000D03*
X239497000Y-111417000D03*
X242037000Y-113957000D03*
X239497000Y-113957000D03*
X242037000Y-116497000D03*
X239497000Y-116497000D03*
X242037000Y-119037000D03*
X239497000Y-119037000D03*
X242037000Y-121577000D03*
X239497000Y-121577000D03*
X242037000Y-124117000D03*
X239497000Y-124117000D03*
X242037000Y-126657000D03*
X239497000Y-126657000D03*
X242037000Y-129197000D03*
X239497000Y-129197000D03*
X242037000Y-131737000D03*
X239497000Y-131737000D03*
D11*
X232893000Y-83477000D03*
D12*
X230353000Y-83477000D03*
X232893000Y-86017000D03*
X230353000Y-86017000D03*
X232893000Y-88557000D03*
X230353000Y-88557000D03*
X232893000Y-91097000D03*
X230353000Y-91097000D03*
X232893000Y-93637000D03*
X230353000Y-93637000D03*
X232893000Y-96177000D03*
X230353000Y-96177000D03*
X232893000Y-98717000D03*
X230353000Y-98717000D03*
X232893000Y-101257000D03*
X230353000Y-101257000D03*
X232893000Y-103797000D03*
X230353000Y-103797000D03*
X232893000Y-106337000D03*
X230353000Y-106337000D03*
X232893000Y-108877000D03*
X230353000Y-108877000D03*
X232893000Y-111417000D03*
X230353000Y-111417000D03*
X232893000Y-113957000D03*
X230353000Y-113957000D03*
X232893000Y-116497000D03*
X230353000Y-116497000D03*
X232893000Y-119037000D03*
X230353000Y-119037000D03*
X232893000Y-121577000D03*
X230353000Y-121577000D03*
X232893000Y-124117000D03*
X230353000Y-124117000D03*
X232893000Y-126657000D03*
X230353000Y-126657000D03*
X232893000Y-129197000D03*
X230353000Y-129197000D03*
X232893000Y-131737000D03*
X230353000Y-131737000D03*
D11*
X173457000Y-83477000D03*
D12*
X170917000Y-83477000D03*
X173457000Y-86017000D03*
X170917000Y-86017000D03*
X173457000Y-88557000D03*
X170917000Y-88557000D03*
X173457000Y-91097000D03*
X170917000Y-91097000D03*
X173457000Y-93637000D03*
X170917000Y-93637000D03*
X173457000Y-96177000D03*
X170917000Y-96177000D03*
X173457000Y-98717000D03*
X170917000Y-98717000D03*
X173457000Y-101257000D03*
X170917000Y-101257000D03*
X173457000Y-103797000D03*
X170917000Y-103797000D03*
X173457000Y-106337000D03*
X170917000Y-106337000D03*
X173457000Y-108877000D03*
X170917000Y-108877000D03*
X173457000Y-111417000D03*
X170917000Y-111417000D03*
X173457000Y-113957000D03*
X170917000Y-113957000D03*
X173457000Y-116497000D03*
X170917000Y-116497000D03*
X173457000Y-119037000D03*
X170917000Y-119037000D03*
X173457000Y-121577000D03*
X170917000Y-121577000D03*
X173457000Y-124117000D03*
X170917000Y-124117000D03*
X173457000Y-126657000D03*
X170917000Y-126657000D03*
X173457000Y-129197000D03*
X170917000Y-129197000D03*
X173457000Y-131737000D03*
X170917000Y-131737000D03*
M02*
