M48
; DRILL file {KiCad (6.0.7)} date Fri Aug  4 00:04:33 2023
; FORMAT={-:-/ absolute / metric / decimal}
; #@! TF.CreationDate,2023-08-04T00:04:33+07:00
; #@! TF.GenerationSoftware,Kicad,Pcbnew,(6.0.7)
; #@! TF.FileFunction,Plated,1,4,PTH
FMAT,2
METRIC
; #@! TA.AperFunction,Plated,PTH,ViaDrill
T1C0.150
; #@! TA.AperFunction,Plated,PTH,ViaDrill
T2C0.200
; #@! TA.AperFunction,Plated,PTH,ComponentDrill
T3C0.600
; #@! TA.AperFunction,Plated,PTH,ComponentDrill
T4C1.000
%
G90
G05
T1
X172.187Y-87.02
X174.498Y-85.039
X174.981Y-84.48
X175.387Y-111.404
X175.387Y-112.954
X175.438Y-84.099
X175.489Y-75.997
X175.92Y-83.718
X175.971Y-75.438
X178.232Y-82.245
X178.232Y-119.634
X178.714Y-81.763
X178.714Y-88.621
X183.109Y-77.876
X184.861Y-106.858
X185.166Y-94.945
X185.166Y-105.512
X185.572Y-113.741
X185.776Y-94.945
X185.776Y-104.851
X186.258Y-78.867
X186.385Y-94.945
X186.385Y-104.242
X186.995Y-94.945
X186.995Y-103.734
X186.995Y-108.814
X187.173Y-118.542
X187.604Y-94.945
X187.604Y-103.734
X187.604Y-108.331
X188.214Y-94.945
X188.214Y-103.734
X188.697Y-72.365
X188.697Y-76.86
X188.697Y-78.359
X188.824Y-94.945
X188.824Y-103.734
X189.078Y-109.906
X189.078Y-118.008
X189.433Y-94.945
X189.713Y-118.313
X190.043Y-94.945
X190.398Y-106.426
X190.424Y-111.684
X190.551Y-103.861
X190.652Y-94.945
X190.805Y-74.854
X190.805Y-75.844
X190.906Y-73.635
X190.932Y-72.39
X191.16Y-74.346
X191.211Y-75.362
X191.262Y-94.945
X191.262Y-103.861
X191.338Y-104.902
X191.668Y-71.501
X191.694Y-82.829
X191.872Y-94.945
X192.024Y-77.572
X192.176Y-69.367
X192.176Y-79.858
X192.354Y-95.504
X192.354Y-96.393
X192.684Y-69.037
X192.862Y-119.609
X192.913Y-111.684
X192.925Y-120.486
X192.938Y-94.793
X193.167Y-69.367
X193.17Y-80.343
X193.192Y-83.312
X193.573Y-111.684
X194.072Y-78.245
X194.183Y-80.721
X194.691Y-80.391
X194.869Y-113.157
X195.199Y-80.721
X195.529Y-99.466
X195.529Y-103.607
X195.529Y-113.716
X195.682Y-71.399
X195.682Y-82.829
X196.139Y-115.57
X196.164Y-109.144
X196.164Y-111.684
X196.177Y-83.535
X196.178Y-80.589
X196.19Y-93.193
X196.19Y-96.418
X196.19Y-98.984
X196.672Y-119.761
X196.672Y-120.447
X196.677Y-83.095
X196.748Y-115.57
X196.825Y-92.227
X196.825Y-96.418
X196.825Y-98.984
X196.825Y-111.684
X196.825Y-113.665
X197.178Y-83.536
X197.195Y-80.187
X197.46Y-108.407
X197.46Y-109.118
X197.46Y-111.684
X197.46Y-112.903
X197.485Y-92.71
X197.485Y-96.418
X197.485Y-98.984
X197.678Y-83.095
X198.12Y-98.984
X198.12Y-116.307
X198.171Y-101.702
X198.171Y-103.353
X198.177Y-71.448
X198.178Y-74.168
X198.178Y-83.536
X198.679Y-83.093
X198.755Y-116.307
X198.78Y-99.466
X199.177Y-83.532
X199.187Y-71.476
X199.415Y-103.581
X199.415Y-112.268
X199.415Y-116.307
X199.584Y-74.347
X199.59Y-75.848
X199.592Y-76.852
X199.99Y-76.348
X199.993Y-77.353
X199.996Y-79.65
X199.998Y-74.849
X200.431Y-102.667
X200.685Y-80.327
X200.711Y-103.226
X200.736Y-100.686
X201.117Y-94.945
X201.205Y-80.742
X201.32Y-116.51
X201.618Y-81.157
X201.625Y-118.491
X201.727Y-94.945
X201.981Y-103.226
X202.006Y-116.51
X202.036Y-81.573
X202.336Y-94.945
X202.463Y-102.667
X202.477Y-81.989
X202.616Y-116.51
X202.946Y-94.945
X203.2Y-116.51
X203.352Y-115.367
X203.556Y-94.945
X203.556Y-96.876
X203.987Y-95.453
X203.987Y-104.572
X203.987Y-111.201
X203.987Y-118.694
X204.183Y-73.967
X204.47Y-95.91
X204.47Y-104.089
X204.47Y-110.693
X204.47Y-119.202
X204.724Y-77.08
X206.985Y-88.138
X208.331Y-75.362
X208.509Y-98.4
X208.509Y-103.607
X208.509Y-118.872
X208.991Y-98.882
X208.991Y-103.124
X208.991Y-119.355
X209.089Y-82.9
X210.058Y-92.227
X210.414Y-106.375
X210.668Y-92.71
X211.557Y-77.8
X211.557Y-104.902
X211.709Y-83.033
X211.709Y-84.023
X211.709Y-85.522
X211.709Y-86.538
X211.709Y-93.65
X211.709Y-94.945
X212.039Y-83.541
X212.039Y-85.014
X212.039Y-86.03
X212.268Y-96.342
X212.573Y-88.9
X212.598Y-84.023
X212.598Y-88.036
X212.903Y-118.897
X212.928Y-103.607
X212.928Y-106.248
X212.928Y-109.017
X213.081Y-79.705
X213.462Y-93.675
X213.563Y-103.607
X213.563Y-118.897
X213.589Y-83.033
X213.589Y-88.57
X214.071Y-79.705
X214.071Y-84.531
X214.071Y-88.9
X214.478Y-127.152
X214.579Y-88.621
X214.884Y-102.387
X214.884Y-118.897
X214.885Y-116.286
X215.087Y-88.9
X215.519Y-111.912
X215.544Y-101.905
X215.748Y-94.132
X216.078Y-76.175
X216.078Y-88.621
X216.179Y-111.912
X216.19Y-103.62
X216.586Y-75.717
X216.586Y-79.705
X216.586Y-88.9
X216.789Y-76.987
X216.814Y-118.897
X216.83Y-95.402
X216.84Y-111.912
X216.84Y-103.62
X216.941Y-116.307
X216.941Y-123.342
X217.068Y-86.081
X217.475Y-94.742
X217.475Y-114.046
X217.491Y-103.607
X217.576Y-79.654
X217.602Y-86.563
X218.084Y-88.9
X218.135Y-95.86
X218.135Y-113.767
X218.135Y-118.897
X218.592Y-79.705
X219.253Y-96.368
X219.431Y-118.897
X219.507Y-88.9
X219.583Y-79.654
X219.634Y-94.742
X219.634Y-95.86
X219.761Y-131.242
X219.939Y-75.997
X219.964Y-91.542
X220.066Y-88.621
X220.066Y-118.897
X220.091Y-108.61
X220.574Y-129.54
X220.726Y-111.735
X221.18Y-103.607
X221.66Y-104.09
X222.123Y-77.089
X222.13Y-104.6
X222.606Y-116.713
X223.063Y-85.039
X223.063Y-86.03
X223.418Y-85.522
X223.545Y-84.531
X225.45Y-89.535
X228.219Y-91.11
X228.879Y-88.544
X236.068Y-123.114
X236.499Y-122.58
X237.363Y-89.84
X237.363Y-90.551
X238.989Y-105.131
X243.51Y-119.05
X243.738Y-116.484
X243.967Y-112.725
X244.094Y-111.404
X244.373Y-94.005
X244.373Y-94.894
X244.424Y-85.268
X244.907Y-105.689
X247.117Y-132.512
T2
X170.0Y-70.5
X170.0Y-73.0
X170.0Y-76.0
X170.0Y-78.5
X172.5Y-76.0
X172.5Y-78.5
X176.5Y-78.5
X176.5Y-82.5
X176.5Y-86.0
X176.5Y-88.5
X176.5Y-91.0
X176.5Y-93.5
X176.5Y-96.5
X176.5Y-100.5
X176.5Y-104.5
X176.5Y-106.5
X176.5Y-109.0
X176.5Y-111.5
X176.5Y-114.0
X176.5Y-117.5
X176.5Y-121.5
X176.5Y-125.0
X176.5Y-129.0
X176.5Y-133.0
X178.0Y-137.0
X178.0Y-141.0
X182.0Y-137.0
X182.0Y-141.0
X186.0Y-125.0
X186.0Y-129.0
X186.0Y-133.0
X186.0Y-137.0
X186.0Y-141.0
X190.0Y-125.0
X190.0Y-129.0
X190.0Y-133.0
X190.0Y-137.0
X190.0Y-141.0
X194.0Y-133.0
X194.0Y-137.0
X194.0Y-141.0
X198.0Y-125.0
X198.0Y-129.0
X198.0Y-133.0
X198.0Y-137.0
X198.0Y-141.0
X202.0Y-125.0
X202.0Y-129.0
X202.0Y-133.0
X202.0Y-137.0
X202.0Y-141.0
X202.5Y-109.5
X203.0Y-106.0
X203.987Y-135.128
X206.0Y-92.0
X206.0Y-103.0
X206.0Y-106.0
X206.0Y-109.5
X206.0Y-141.0
X208.5Y-122.0
X210.0Y-130.5
X210.0Y-133.5
X210.0Y-137.0
X210.0Y-141.0
X211.5Y-122.0
X214.0Y-137.0
X214.0Y-141.0
X214.5Y-122.0
X216.0Y-127.0
X216.0Y-130.5
X216.0Y-133.5
X216.5Y-69.0
X217.5Y-102.0
X218.0Y-122.0
X218.0Y-137.0
X218.0Y-141.0
X220.167Y-138.836
X221.5Y-122.0
X221.5Y-125.5
X221.5Y-128.5
X223.0Y-91.5
X224.0Y-97.5
X224.0Y-101.5
X224.0Y-105.0
X224.0Y-110.5
X224.5Y-69.0
X224.5Y-73.0
X224.5Y-77.0
X225.0Y-91.5
X227.0Y-90.5
X228.0Y-97.5
X228.0Y-101.5
X228.0Y-105.0
X228.0Y-110.5
X228.5Y-69.0
X228.5Y-73.0
X228.5Y-77.0
X229.0Y-134.0
X229.0Y-138.0
X232.5Y-69.0
X232.5Y-73.0
X232.5Y-77.0
X233.0Y-134.0
X233.0Y-138.0
X234.772Y-139.421
X235.0Y-88.0
X235.0Y-91.0
X235.0Y-94.0
X235.0Y-96.0
X235.0Y-99.0
X235.0Y-101.0
X236.0Y-104.0
X236.0Y-106.0
X236.0Y-109.0
X236.0Y-113.0
X236.0Y-117.0
X236.0Y-119.0
X236.0Y-121.0
X236.0Y-124.0
X236.0Y-128.0
X236.0Y-132.0
X236.5Y-69.0
X236.5Y-73.0
X236.5Y-77.0
X237.0Y-134.0
X240.354Y-135.332
X240.5Y-69.0
X240.5Y-73.0
X240.5Y-77.0
X244.5Y-69.0
X244.5Y-73.0
X244.5Y-77.0
X245.0Y-112.0
X245.0Y-116.0
X245.0Y-120.0
X245.0Y-124.0
X245.0Y-128.0
X245.0Y-132.0
X246.0Y-96.0
X246.0Y-100.0
X246.0Y-104.5
X246.0Y-109.0
X253.988Y-100.254
X253.988Y-124.003
X254.0Y-104.0
X254.0Y-108.0
X254.0Y-112.0
X254.0Y-116.0
X254.0Y-120.0
X257.988Y-100.254
X257.988Y-124.003
X258.0Y-104.0
X258.0Y-108.0
X258.0Y-116.0
X258.0Y-120.0
T4
X170.917Y-83.477
X170.917Y-86.017
X170.917Y-88.557
X170.917Y-91.097
X170.917Y-93.637
X170.917Y-96.177
X170.917Y-98.717
X170.917Y-101.257
X170.917Y-103.797
X170.917Y-106.337
X170.917Y-108.877
X170.917Y-111.417
X170.917Y-113.957
X170.917Y-116.497
X170.917Y-119.037
X170.917Y-121.577
X170.917Y-124.117
X170.917Y-126.657
X170.917Y-129.197
X170.917Y-131.737
X173.457Y-83.477
X173.457Y-86.017
X173.457Y-88.557
X173.457Y-91.097
X173.457Y-93.637
X173.457Y-96.177
X173.457Y-98.717
X173.457Y-101.257
X173.457Y-103.797
X173.457Y-106.337
X173.457Y-108.877
X173.457Y-111.417
X173.457Y-113.957
X173.457Y-116.497
X173.457Y-119.037
X173.457Y-121.577
X173.457Y-124.117
X173.457Y-126.657
X173.457Y-129.197
X173.457Y-131.737
X180.061Y-83.477
X180.061Y-86.017
X180.061Y-88.557
X180.061Y-91.097
X180.061Y-93.637
X180.061Y-96.177
X180.061Y-98.717
X180.061Y-101.257
X180.061Y-103.797
X180.061Y-106.337
X180.061Y-108.877
X180.061Y-111.417
X180.061Y-113.957
X180.061Y-116.497
X180.061Y-119.037
X180.061Y-121.577
X180.061Y-124.117
X180.061Y-126.657
X180.061Y-129.197
X180.061Y-131.737
X182.601Y-83.477
X182.601Y-86.017
X182.601Y-88.557
X182.601Y-91.097
X182.601Y-93.637
X182.601Y-96.177
X182.601Y-98.717
X182.601Y-101.257
X182.601Y-103.797
X182.601Y-106.337
X182.601Y-108.877
X182.601Y-111.417
X182.601Y-113.957
X182.601Y-116.497
X182.601Y-119.037
X182.601Y-121.577
X182.601Y-124.117
X182.601Y-126.657
X182.601Y-129.197
X182.601Y-131.737
X190.373Y-87.219
X190.373Y-89.759
X192.715Y-124.668
X192.715Y-127.208
X192.913Y-87.219
X192.913Y-89.759
X195.255Y-124.668
X195.255Y-127.208
X195.453Y-87.219
X195.453Y-89.759
X197.993Y-87.219
X197.993Y-89.759
X200.533Y-87.219
X200.533Y-89.759
X203.073Y-87.219
X203.073Y-89.759
X206.507Y-94.341
X206.507Y-96.881
X206.553Y-113.035
X206.553Y-115.575
X207.391Y-124.968
X207.391Y-127.508
X207.391Y-130.048
X207.391Y-132.588
X207.391Y-135.128
X207.391Y-137.668
X209.047Y-94.341
X209.047Y-96.881
X225.806Y-79.197
X225.958Y-124.968
X225.958Y-127.508
X225.958Y-130.048
X225.958Y-132.588
X225.958Y-135.128
X225.958Y-137.668
X228.346Y-79.197
X230.353Y-83.477
X230.353Y-86.017
X230.353Y-88.557
X230.353Y-91.097
X230.353Y-93.637
X230.353Y-96.177
X230.353Y-98.717
X230.353Y-101.257
X230.353Y-103.797
X230.353Y-106.337
X230.353Y-108.877
X230.353Y-111.417
X230.353Y-113.957
X230.353Y-116.497
X230.353Y-119.037
X230.353Y-121.577
X230.353Y-124.117
X230.353Y-126.657
X230.353Y-129.197
X230.353Y-131.737
X230.886Y-79.197
X232.893Y-83.477
X232.893Y-86.017
X232.893Y-88.557
X232.893Y-91.097
X232.893Y-93.637
X232.893Y-96.177
X232.893Y-98.717
X232.893Y-101.257
X232.893Y-103.797
X232.893Y-106.337
X232.893Y-108.877
X232.893Y-111.417
X232.893Y-113.957
X232.893Y-116.497
X232.893Y-119.037
X232.893Y-121.577
X232.893Y-124.117
X232.893Y-126.657
X232.893Y-129.197
X232.893Y-131.737
X233.426Y-79.197
X238.191Y-79.191
X239.497Y-83.477
X239.497Y-86.017
X239.497Y-88.557
X239.497Y-91.097
X239.497Y-93.637
X239.497Y-96.177
X239.497Y-98.717
X239.497Y-101.257
X239.497Y-103.797
X239.497Y-106.337
X239.497Y-108.877
X239.497Y-111.417
X239.497Y-113.957
X239.497Y-116.497
X239.497Y-119.037
X239.497Y-121.577
X239.497Y-124.117
X239.497Y-126.657
X239.497Y-129.197
X239.497Y-131.737
X240.731Y-79.191
X242.037Y-83.477
X242.037Y-86.017
X242.037Y-88.557
X242.037Y-91.097
X242.037Y-93.637
X242.037Y-96.177
X242.037Y-98.717
X242.037Y-101.257
X242.037Y-103.797
X242.037Y-106.337
X242.037Y-108.877
X242.037Y-111.417
X242.037Y-113.957
X242.037Y-116.497
X242.037Y-119.037
X242.037Y-121.577
X242.037Y-124.117
X242.037Y-126.657
X242.037Y-129.197
X242.037Y-131.737
X243.271Y-79.191
X245.811Y-79.191
X248.641Y-139.847
X248.641Y-142.387
X248.671Y-87.748
X248.671Y-90.288
X248.671Y-92.828
X248.671Y-95.368
X248.671Y-97.908
X248.671Y-100.448
X248.671Y-102.988
X248.671Y-105.528
X248.671Y-108.068
X248.671Y-110.608
X248.671Y-113.148
X248.671Y-115.688
X248.671Y-118.228
X248.671Y-120.768
X248.671Y-123.308
X248.671Y-125.848
X248.671Y-128.388
X248.671Y-130.928
X248.671Y-133.468
X248.671Y-136.008
X248.88Y-82.931
X251.212Y-87.748
X251.212Y-90.288
X251.212Y-92.828
X251.212Y-95.368
X251.212Y-97.908
X251.212Y-100.448
X251.212Y-102.988
X251.212Y-105.528
X251.212Y-108.068
X251.212Y-110.608
X251.212Y-113.148
X251.212Y-115.688
X251.212Y-118.228
X251.212Y-120.768
X251.212Y-123.308
X251.212Y-125.848
X251.212Y-128.388
X251.212Y-130.928
X251.212Y-133.468
X251.212Y-136.008
X251.42Y-82.931
X253.96Y-82.931
T3
X171.905Y-69.633G85X171.905Y-69.033
G05
X171.905Y-74.063G85X171.905Y-72.963
G05
X180.545Y-69.633G85X180.545Y-69.033
G05
X180.545Y-74.063G85X180.545Y-72.963
G05
X212.012Y-69.912G85X212.012Y-69.312
G05
X212.012Y-74.342G85X212.012Y-73.242
G05
X220.652Y-69.912G85X220.652Y-69.312
G05
X220.652Y-74.342G85X220.652Y-73.242
G05
T0
M30
