G04 #@! TF.GenerationSoftware,KiCad,Pcbnew,(6.0.7)*
G04 #@! TF.CreationDate,2023-08-04T00:04:24+07:00*
G04 #@! TF.ProjectId,ECELab_v1,4543454c-6162-45f7-9631-2e6b69636164,rev?*
G04 #@! TF.SameCoordinates,Original*
G04 #@! TF.FileFunction,Legend,Bot*
G04 #@! TF.FilePolarity,Positive*
%FSLAX46Y46*%
G04 Gerber Fmt 4.6, Leading zero omitted, Abs format (unit mm)*
G04 Created by KiCad (PCBNEW (6.0.7)) date 2023-08-04 00:04:24*
%MOMM*%
%LPD*%
G01*
G04 APERTURE LIST*
G04 Aperture macros list*
%AMRoundRect*
0 Rectangle with rounded corners*
0 $1 Rounding radius*
0 $2 $3 $4 $5 $6 $7 $8 $9 X,Y pos of 4 corners*
0 Add a 4 corners polygon primitive as box body*
4,1,4,$2,$3,$4,$5,$6,$7,$8,$9,$2,$3,0*
0 Add four circle primitives for the rounded corners*
1,1,$1+$1,$2,$3*
1,1,$1+$1,$4,$5*
1,1,$1+$1,$6,$7*
1,1,$1+$1,$8,$9*
0 Add four rect primitives between the rounded corners*
20,1,$1+$1,$2,$3,$4,$5,0*
20,1,$1+$1,$4,$5,$6,$7,0*
20,1,$1+$1,$6,$7,$8,$9,0*
20,1,$1+$1,$8,$9,$2,$3,0*%
G04 Aperture macros list end*
%ADD10C,0.150000*%
%ADD11C,0.250000*%
%ADD12C,0.300000*%
%ADD13C,0.254000*%
%ADD14C,0.130000*%
%ADD15C,0.125000*%
%ADD16C,0.120000*%
%ADD17C,3.500000*%
%ADD18R,1.700000X1.700000*%
%ADD19O,1.700000X1.700000*%
%ADD20C,0.650000*%
%ADD21O,1.000000X1.600000*%
%ADD22O,1.000000X2.100000*%
%ADD23C,5.000000*%
%ADD24RoundRect,0.075000X-0.075000X0.700000X-0.075000X-0.700000X0.075000X-0.700000X0.075000X0.700000X0*%
%ADD25RoundRect,0.075000X-0.700000X0.075000X-0.700000X-0.075000X0.700000X-0.075000X0.700000X0.075000X0*%
%ADD26RoundRect,0.140000X-0.140000X-0.170000X0.140000X-0.170000X0.140000X0.170000X-0.140000X0.170000X0*%
%ADD27R,0.450000X1.750000*%
%ADD28RoundRect,0.140000X-0.170000X0.140000X-0.170000X-0.140000X0.170000X-0.140000X0.170000X0.140000X0*%
%ADD29RoundRect,0.135000X-0.185000X0.135000X-0.185000X-0.135000X0.185000X-0.135000X0.185000X0.135000X0*%
%ADD30R,0.500000X0.400000*%
%ADD31RoundRect,0.135000X0.185000X-0.135000X0.185000X0.135000X-0.185000X0.135000X-0.185000X-0.135000X0*%
%ADD32RoundRect,0.135000X-0.135000X-0.185000X0.135000X-0.185000X0.135000X0.185000X-0.135000X0.185000X0*%
%ADD33RoundRect,0.140000X0.140000X0.170000X-0.140000X0.170000X-0.140000X-0.170000X0.140000X-0.170000X0*%
%ADD34RoundRect,0.135000X0.135000X0.185000X-0.135000X0.185000X-0.135000X-0.185000X0.135000X-0.185000X0*%
%ADD35R,0.650000X0.400000*%
%ADD36R,0.400000X0.500000*%
%ADD37RoundRect,0.140000X0.170000X-0.140000X0.170000X0.140000X-0.170000X0.140000X-0.170000X-0.140000X0*%
%ADD38RoundRect,0.150000X0.512500X0.150000X-0.512500X0.150000X-0.512500X-0.150000X0.512500X-0.150000X0*%
%ADD39R,2.000000X4.500000*%
%ADD40RoundRect,0.150000X-0.150000X0.512500X-0.150000X-0.512500X0.150000X-0.512500X0.150000X0.512500X0*%
G04 APERTURE END LIST*
D10*
X256692400Y-122732800D02*
X256692400Y-98856800D01*
X201810000Y-104620000D02*
G75*
G03*
X201810000Y-104620000I-169706J0D01*
G01*
X227177600Y-95351600D02*
X226390200Y-96139000D01*
X211960000Y-78450000D02*
G75*
G03*
X211960000Y-78450000I-169706J0D01*
G01*
X221810000Y-117270000D02*
G75*
G03*
X221810000Y-117270000I-169706J0D01*
G01*
X221810000Y-104590000D02*
G75*
G03*
X221810000Y-104590000I-169706J0D01*
G01*
X227177600Y-95351600D02*
X227965000Y-96139000D01*
X256692400Y-98856800D02*
X257479800Y-99644200D01*
X256692400Y-98856800D02*
X255905000Y-99644200D01*
X193809706Y-74880000D02*
G75*
G03*
X193809706Y-74880000I-169706J0D01*
G01*
X227177600Y-119227600D02*
X227177600Y-95351600D01*
X185470000Y-118690000D02*
G75*
G03*
X185470000Y-118690000I-169706J0D01*
G01*
X201790000Y-117320000D02*
G75*
G03*
X201790000Y-117320000I-169706J0D01*
G01*
D11*
X256253371Y-100375000D02*
X254753371Y-100375000D01*
X254753371Y-100946428D01*
X254824800Y-101089285D01*
X254896228Y-101160714D01*
X255039085Y-101232142D01*
X255253371Y-101232142D01*
X255396228Y-101160714D01*
X255467657Y-101089285D01*
X255539085Y-100946428D01*
X255539085Y-100375000D01*
X256253371Y-101875000D02*
X255253371Y-101875000D01*
X254753371Y-101875000D02*
X254824800Y-101803571D01*
X254896228Y-101875000D01*
X254824800Y-101946428D01*
X254753371Y-101875000D01*
X254896228Y-101875000D01*
X255253371Y-103232142D02*
X256253371Y-103232142D01*
X254681942Y-102875000D02*
X255753371Y-102517857D01*
X255753371Y-103446428D01*
X255467657Y-104517857D02*
X255539085Y-104732142D01*
X255610514Y-104803571D01*
X255753371Y-104875000D01*
X255967657Y-104875000D01*
X256110514Y-104803571D01*
X256181942Y-104732142D01*
X256253371Y-104589285D01*
X256253371Y-104017857D01*
X254753371Y-104017857D01*
X254753371Y-104517857D01*
X254824800Y-104660714D01*
X254896228Y-104732142D01*
X255039085Y-104803571D01*
X255181942Y-104803571D01*
X255324800Y-104732142D01*
X255396228Y-104660714D01*
X255467657Y-104517857D01*
X255467657Y-104017857D01*
X254753371Y-106660714D02*
X255967657Y-106660714D01*
X256110514Y-106732142D01*
X256181942Y-106803571D01*
X256253371Y-106946428D01*
X256253371Y-107232142D01*
X256181942Y-107375000D01*
X256110514Y-107446428D01*
X255967657Y-107517857D01*
X254753371Y-107517857D01*
X256181942Y-108160714D02*
X256253371Y-108375000D01*
X256253371Y-108732142D01*
X256181942Y-108875000D01*
X256110514Y-108946428D01*
X255967657Y-109017857D01*
X255824800Y-109017857D01*
X255681942Y-108946428D01*
X255610514Y-108875000D01*
X255539085Y-108732142D01*
X255467657Y-108446428D01*
X255396228Y-108303571D01*
X255324800Y-108232142D01*
X255181942Y-108160714D01*
X255039085Y-108160714D01*
X254896228Y-108232142D01*
X254824800Y-108303571D01*
X254753371Y-108446428D01*
X254753371Y-108803571D01*
X254824800Y-109017857D01*
X255467657Y-110160714D02*
X255539085Y-110375000D01*
X255610514Y-110446428D01*
X255753371Y-110517857D01*
X255967657Y-110517857D01*
X256110514Y-110446428D01*
X256181942Y-110375000D01*
X256253371Y-110232142D01*
X256253371Y-109660714D01*
X254753371Y-109660714D01*
X254753371Y-110160714D01*
X254824800Y-110303571D01*
X254896228Y-110375000D01*
X255039085Y-110446428D01*
X255181942Y-110446428D01*
X255324800Y-110375000D01*
X255396228Y-110303571D01*
X255467657Y-110160714D01*
X255467657Y-109660714D01*
X254753371Y-112089285D02*
X254753371Y-112946428D01*
X256253371Y-112517857D02*
X254753371Y-112517857D01*
X256253371Y-113446428D02*
X254753371Y-113446428D01*
X255467657Y-113446428D02*
X255467657Y-114303571D01*
X256253371Y-114303571D02*
X254753371Y-114303571D01*
X256253371Y-115017857D02*
X254753371Y-115017857D01*
X256181942Y-115660714D02*
X256253371Y-115875000D01*
X256253371Y-116232142D01*
X256181942Y-116375000D01*
X256110514Y-116446428D01*
X255967657Y-116517857D01*
X255824800Y-116517857D01*
X255681942Y-116446428D01*
X255610514Y-116375000D01*
X255539085Y-116232142D01*
X255467657Y-115946428D01*
X255396228Y-115803571D01*
X255324800Y-115732142D01*
X255181942Y-115660714D01*
X255039085Y-115660714D01*
X254896228Y-115732142D01*
X254824800Y-115803571D01*
X254753371Y-115946428D01*
X254753371Y-116303571D01*
X254824800Y-116517857D01*
X254753371Y-118160714D02*
X256253371Y-118517857D01*
X255181942Y-118803571D01*
X256253371Y-119089285D01*
X254753371Y-119446428D01*
X255824800Y-119946428D02*
X255824800Y-120660714D01*
X256253371Y-119803571D02*
X254753371Y-120303571D01*
X256253371Y-120803571D01*
X255539085Y-121589285D02*
X256253371Y-121589285D01*
X254753371Y-121089285D02*
X255539085Y-121589285D01*
X254753371Y-122089285D01*
D12*
X179822028Y-71761676D02*
X179822028Y-70511676D01*
X179286314Y-70630723D02*
X179226790Y-70571200D01*
X179107742Y-70511676D01*
X178810123Y-70511676D01*
X178691076Y-70571200D01*
X178631552Y-70630723D01*
X178572028Y-70749771D01*
X178572028Y-70868819D01*
X178631552Y-71047390D01*
X179345838Y-71761676D01*
X178572028Y-71761676D01*
X177322028Y-71642628D02*
X177381552Y-71702152D01*
X177560123Y-71761676D01*
X177679171Y-71761676D01*
X177857742Y-71702152D01*
X177976790Y-71583104D01*
X178036314Y-71464057D01*
X178095838Y-71225961D01*
X178095838Y-71047390D01*
X178036314Y-70809295D01*
X177976790Y-70690247D01*
X177857742Y-70571200D01*
X177679171Y-70511676D01*
X177560123Y-70511676D01*
X177381552Y-70571200D01*
X177322028Y-70630723D01*
X175833933Y-70511676D02*
X175833933Y-71523580D01*
X175774409Y-71642628D01*
X175714885Y-71702152D01*
X175595838Y-71761676D01*
X175357742Y-71761676D01*
X175238695Y-71702152D01*
X175179171Y-71642628D01*
X175119647Y-71523580D01*
X175119647Y-70511676D01*
X174583933Y-71702152D02*
X174405361Y-71761676D01*
X174107742Y-71761676D01*
X173988695Y-71702152D01*
X173929171Y-71642628D01*
X173869647Y-71523580D01*
X173869647Y-71404533D01*
X173929171Y-71285485D01*
X173988695Y-71225961D01*
X174107742Y-71166438D01*
X174345838Y-71106914D01*
X174464885Y-71047390D01*
X174524409Y-70987866D01*
X174583933Y-70868819D01*
X174583933Y-70749771D01*
X174524409Y-70630723D01*
X174464885Y-70571200D01*
X174345838Y-70511676D01*
X174048219Y-70511676D01*
X173869647Y-70571200D01*
X172917266Y-71106914D02*
X172738695Y-71166438D01*
X172679171Y-71225961D01*
X172619647Y-71345009D01*
X172619647Y-71523580D01*
X172679171Y-71642628D01*
X172738695Y-71702152D01*
X172857742Y-71761676D01*
X173333933Y-71761676D01*
X173333933Y-70511676D01*
X172917266Y-70511676D01*
X172798219Y-70571200D01*
X172738695Y-70630723D01*
X172679171Y-70749771D01*
X172679171Y-70868819D01*
X172738695Y-70987866D01*
X172798219Y-71047390D01*
X172917266Y-71106914D01*
X173333933Y-71106914D01*
X219958390Y-70850600D02*
X220077438Y-70791076D01*
X220256009Y-70791076D01*
X220434580Y-70850600D01*
X220553628Y-70969647D01*
X220613152Y-71088695D01*
X220672676Y-71326790D01*
X220672676Y-71505361D01*
X220613152Y-71743457D01*
X220553628Y-71862504D01*
X220434580Y-71981552D01*
X220256009Y-72041076D01*
X220136961Y-72041076D01*
X219958390Y-71981552D01*
X219898866Y-71922028D01*
X219898866Y-71505361D01*
X220136961Y-71505361D01*
X219363152Y-72041076D02*
X219363152Y-70791076D01*
X218886961Y-70791076D01*
X218767914Y-70850600D01*
X218708390Y-70910123D01*
X218648866Y-71029171D01*
X218648866Y-71207742D01*
X218708390Y-71326790D01*
X218767914Y-71386314D01*
X218886961Y-71445838D01*
X219363152Y-71445838D01*
X218113152Y-72041076D02*
X218113152Y-70791076D01*
X217279819Y-70791076D02*
X217041723Y-70791076D01*
X216922676Y-70850600D01*
X216803628Y-70969647D01*
X216744104Y-71207742D01*
X216744104Y-71624409D01*
X216803628Y-71862504D01*
X216922676Y-71981552D01*
X217041723Y-72041076D01*
X217279819Y-72041076D01*
X217398866Y-71981552D01*
X217517914Y-71862504D01*
X217577438Y-71624409D01*
X217577438Y-71207742D01*
X217517914Y-70969647D01*
X217398866Y-70850600D01*
X217279819Y-70791076D01*
X215256009Y-70791076D02*
X215256009Y-71802980D01*
X215196485Y-71922028D01*
X215136961Y-71981552D01*
X215017914Y-72041076D01*
X214779819Y-72041076D01*
X214660771Y-71981552D01*
X214601247Y-71922028D01*
X214541723Y-71802980D01*
X214541723Y-70791076D01*
X214006009Y-71981552D02*
X213827438Y-72041076D01*
X213529819Y-72041076D01*
X213410771Y-71981552D01*
X213351247Y-71922028D01*
X213291723Y-71802980D01*
X213291723Y-71683933D01*
X213351247Y-71564885D01*
X213410771Y-71505361D01*
X213529819Y-71445838D01*
X213767914Y-71386314D01*
X213886961Y-71326790D01*
X213946485Y-71267266D01*
X214006009Y-71148219D01*
X214006009Y-71029171D01*
X213946485Y-70910123D01*
X213886961Y-70850600D01*
X213767914Y-70791076D01*
X213470295Y-70791076D01*
X213291723Y-70850600D01*
X212339342Y-71386314D02*
X212160771Y-71445838D01*
X212101247Y-71505361D01*
X212041723Y-71624409D01*
X212041723Y-71802980D01*
X212101247Y-71922028D01*
X212160771Y-71981552D01*
X212279819Y-72041076D01*
X212756009Y-72041076D01*
X212756009Y-70791076D01*
X212339342Y-70791076D01*
X212220295Y-70850600D01*
X212160771Y-70910123D01*
X212101247Y-71029171D01*
X212101247Y-71148219D01*
X212160771Y-71267266D01*
X212220295Y-71326790D01*
X212339342Y-71386314D01*
X212756009Y-71386314D01*
D13*
X201960842Y-137543902D02*
X201452842Y-137543902D01*
X201235128Y-138342188D02*
X201960842Y-138342188D01*
X201960842Y-136818188D01*
X201235128Y-136818188D01*
X199711128Y-138197045D02*
X199783700Y-138269617D01*
X200001414Y-138342188D01*
X200146557Y-138342188D01*
X200364271Y-138269617D01*
X200509414Y-138124474D01*
X200581985Y-137979331D01*
X200654557Y-137689045D01*
X200654557Y-137471331D01*
X200581985Y-137181045D01*
X200509414Y-137035902D01*
X200364271Y-136890760D01*
X200146557Y-136818188D01*
X200001414Y-136818188D01*
X199783700Y-136890760D01*
X199711128Y-136963331D01*
X199057985Y-137543902D02*
X198549985Y-137543902D01*
X198332271Y-138342188D02*
X199057985Y-138342188D01*
X199057985Y-136818188D01*
X198332271Y-136818188D01*
X196953414Y-138342188D02*
X197679128Y-138342188D01*
X197679128Y-136818188D01*
X195792271Y-138342188D02*
X195792271Y-137543902D01*
X195864842Y-137398760D01*
X196009985Y-137326188D01*
X196300271Y-137326188D01*
X196445414Y-137398760D01*
X195792271Y-138269617D02*
X195937414Y-138342188D01*
X196300271Y-138342188D01*
X196445414Y-138269617D01*
X196517985Y-138124474D01*
X196517985Y-137979331D01*
X196445414Y-137834188D01*
X196300271Y-137761617D01*
X195937414Y-137761617D01*
X195792271Y-137689045D01*
X195066557Y-138342188D02*
X195066557Y-136818188D01*
X195066557Y-137398760D02*
X194921414Y-137326188D01*
X194631128Y-137326188D01*
X194485985Y-137398760D01*
X194413414Y-137471331D01*
X194340842Y-137616474D01*
X194340842Y-138051902D01*
X194413414Y-138197045D01*
X194485985Y-138269617D01*
X194631128Y-138342188D01*
X194921414Y-138342188D01*
X195066557Y-138269617D01*
X193760271Y-138269617D02*
X193615128Y-138342188D01*
X193324842Y-138342188D01*
X193179700Y-138269617D01*
X193107128Y-138124474D01*
X193107128Y-138051902D01*
X193179700Y-137906760D01*
X193324842Y-137834188D01*
X193542557Y-137834188D01*
X193687700Y-137761617D01*
X193760271Y-137616474D01*
X193760271Y-137543902D01*
X193687700Y-137398760D01*
X193542557Y-137326188D01*
X193324842Y-137326188D01*
X193179700Y-137398760D01*
X191292842Y-138342188D02*
X191292842Y-136818188D01*
X190712271Y-136818188D01*
X190567128Y-136890760D01*
X190494557Y-136963331D01*
X190421985Y-137108474D01*
X190421985Y-137326188D01*
X190494557Y-137471331D01*
X190567128Y-137543902D01*
X190712271Y-137616474D01*
X191292842Y-137616474D01*
X188897985Y-138197045D02*
X188970557Y-138269617D01*
X189188271Y-138342188D01*
X189333414Y-138342188D01*
X189551128Y-138269617D01*
X189696271Y-138124474D01*
X189768842Y-137979331D01*
X189841414Y-137689045D01*
X189841414Y-137471331D01*
X189768842Y-137181045D01*
X189696271Y-137035902D01*
X189551128Y-136890760D01*
X189333414Y-136818188D01*
X189188271Y-136818188D01*
X188970557Y-136890760D01*
X188897985Y-136963331D01*
X187736842Y-137543902D02*
X187519128Y-137616474D01*
X187446557Y-137689045D01*
X187373985Y-137834188D01*
X187373985Y-138051902D01*
X187446557Y-138197045D01*
X187519128Y-138269617D01*
X187664271Y-138342188D01*
X188244842Y-138342188D01*
X188244842Y-136818188D01*
X187736842Y-136818188D01*
X187591700Y-136890760D01*
X187519128Y-136963331D01*
X187446557Y-137108474D01*
X187446557Y-137253617D01*
X187519128Y-137398760D01*
X187591700Y-137471331D01*
X187736842Y-137543902D01*
X188244842Y-137543902D01*
X185559700Y-138342188D02*
X185559700Y-136818188D01*
X185196842Y-136818188D01*
X184979128Y-136890760D01*
X184833985Y-137035902D01*
X184761414Y-137181045D01*
X184688842Y-137471331D01*
X184688842Y-137689045D01*
X184761414Y-137979331D01*
X184833985Y-138124474D01*
X184979128Y-138269617D01*
X185196842Y-138342188D01*
X185559700Y-138342188D01*
X183455128Y-138269617D02*
X183600271Y-138342188D01*
X183890557Y-138342188D01*
X184035700Y-138269617D01*
X184108271Y-138124474D01*
X184108271Y-137543902D01*
X184035700Y-137398760D01*
X183890557Y-137326188D01*
X183600271Y-137326188D01*
X183455128Y-137398760D01*
X183382557Y-137543902D01*
X183382557Y-137689045D01*
X184108271Y-137834188D01*
X182801985Y-138269617D02*
X182656842Y-138342188D01*
X182366557Y-138342188D01*
X182221414Y-138269617D01*
X182148842Y-138124474D01*
X182148842Y-138051902D01*
X182221414Y-137906760D01*
X182366557Y-137834188D01*
X182584271Y-137834188D01*
X182729414Y-137761617D01*
X182801985Y-137616474D01*
X182801985Y-137543902D01*
X182729414Y-137398760D01*
X182584271Y-137326188D01*
X182366557Y-137326188D01*
X182221414Y-137398760D01*
X181495700Y-138342188D02*
X181495700Y-137326188D01*
X181495700Y-136818188D02*
X181568271Y-136890760D01*
X181495700Y-136963331D01*
X181423128Y-136890760D01*
X181495700Y-136818188D01*
X181495700Y-136963331D01*
X180116842Y-137326188D02*
X180116842Y-138559902D01*
X180189414Y-138705045D01*
X180261985Y-138777617D01*
X180407128Y-138850188D01*
X180624842Y-138850188D01*
X180769985Y-138777617D01*
X180116842Y-138269617D02*
X180261985Y-138342188D01*
X180552271Y-138342188D01*
X180697414Y-138269617D01*
X180769985Y-138197045D01*
X180842557Y-138051902D01*
X180842557Y-137616474D01*
X180769985Y-137471331D01*
X180697414Y-137398760D01*
X180552271Y-137326188D01*
X180261985Y-137326188D01*
X180116842Y-137398760D01*
X179391128Y-137326188D02*
X179391128Y-138342188D01*
X179391128Y-137471331D02*
X179318557Y-137398760D01*
X179173414Y-137326188D01*
X178955700Y-137326188D01*
X178810557Y-137398760D01*
X178737985Y-137543902D01*
X178737985Y-138342188D01*
X176996271Y-137326188D02*
X176633414Y-138342188D01*
X176270557Y-137326188D01*
X175762557Y-136963331D02*
X175689985Y-136890760D01*
X175544842Y-136818188D01*
X175181985Y-136818188D01*
X175036842Y-136890760D01*
X174964271Y-136963331D01*
X174891700Y-137108474D01*
X174891700Y-137253617D01*
X174964271Y-137471331D01*
X175835128Y-138342188D01*
X174891700Y-138342188D01*
X201960842Y-140795828D02*
X201960842Y-139271828D01*
X201452842Y-140360400D01*
X200944842Y-139271828D01*
X200944842Y-140795828D01*
X200219128Y-140795828D02*
X200219128Y-139779828D01*
X200219128Y-139271828D02*
X200291700Y-139344400D01*
X200219128Y-139416971D01*
X200146557Y-139344400D01*
X200219128Y-139271828D01*
X200219128Y-139416971D01*
X199493414Y-139779828D02*
X199493414Y-140795828D01*
X199493414Y-139924971D02*
X199420842Y-139852400D01*
X199275700Y-139779828D01*
X199057985Y-139779828D01*
X198912842Y-139852400D01*
X198840271Y-139997542D01*
X198840271Y-140795828D01*
X198114557Y-140795828D02*
X198114557Y-139271828D01*
X197461414Y-140795828D02*
X197461414Y-139997542D01*
X197533985Y-139852400D01*
X197679128Y-139779828D01*
X197896842Y-139779828D01*
X198041985Y-139852400D01*
X198114557Y-139924971D01*
X195574557Y-140795828D02*
X195574557Y-139271828D01*
X194703700Y-140795828D01*
X194703700Y-139271828D01*
X193324842Y-139779828D02*
X193324842Y-141013542D01*
X193397414Y-141158685D01*
X193469985Y-141231257D01*
X193615128Y-141303828D01*
X193832842Y-141303828D01*
X193977985Y-141231257D01*
X193324842Y-140723257D02*
X193469985Y-140795828D01*
X193760271Y-140795828D01*
X193905414Y-140723257D01*
X193977985Y-140650685D01*
X194050557Y-140505542D01*
X194050557Y-140070114D01*
X193977985Y-139924971D01*
X193905414Y-139852400D01*
X193760271Y-139779828D01*
X193469985Y-139779828D01*
X193324842Y-139852400D01*
X191945985Y-139779828D02*
X191945985Y-140795828D01*
X192599128Y-139779828D02*
X192599128Y-140578114D01*
X192526557Y-140723257D01*
X192381414Y-140795828D01*
X192163700Y-140795828D01*
X192018557Y-140723257D01*
X191945985Y-140650685D01*
X191365414Y-139779828D02*
X191002557Y-140795828D01*
X190639700Y-139779828D02*
X191002557Y-140795828D01*
X191147700Y-141158685D01*
X191220271Y-141231257D01*
X191365414Y-141303828D01*
X189478557Y-140723257D02*
X189623700Y-140795828D01*
X189913985Y-140795828D01*
X190059128Y-140723257D01*
X190131700Y-140578114D01*
X190131700Y-139997542D01*
X190059128Y-139852400D01*
X189913985Y-139779828D01*
X189623700Y-139779828D01*
X189478557Y-139852400D01*
X189405985Y-139997542D01*
X189405985Y-140142685D01*
X190131700Y-140287828D01*
X188752842Y-139779828D02*
X188752842Y-140795828D01*
X188752842Y-139924971D02*
X188680271Y-139852400D01*
X188535128Y-139779828D01*
X188317414Y-139779828D01*
X188172271Y-139852400D01*
X188099700Y-139997542D01*
X188099700Y-140795828D01*
X201525414Y-141725468D02*
X201525414Y-142814040D01*
X201597985Y-143031754D01*
X201743128Y-143176897D01*
X201960842Y-143249468D01*
X202105985Y-143249468D01*
X200146557Y-142233468D02*
X200146557Y-143249468D01*
X200799700Y-142233468D02*
X200799700Y-143031754D01*
X200727128Y-143176897D01*
X200581985Y-143249468D01*
X200364271Y-143249468D01*
X200219128Y-143176897D01*
X200146557Y-143104325D01*
X199420842Y-142233468D02*
X199420842Y-143249468D01*
X199420842Y-142378611D02*
X199348271Y-142306040D01*
X199203128Y-142233468D01*
X198985414Y-142233468D01*
X198840271Y-142306040D01*
X198767700Y-142451182D01*
X198767700Y-143249468D01*
X198259700Y-142233468D02*
X197679128Y-142233468D01*
X198041985Y-143249468D02*
X198041985Y-141943182D01*
X197969414Y-141798040D01*
X197824271Y-141725468D01*
X197679128Y-141725468D01*
X196590557Y-143176897D02*
X196735700Y-143249468D01*
X197025985Y-143249468D01*
X197171128Y-143176897D01*
X197243700Y-143031754D01*
X197243700Y-142451182D01*
X197171128Y-142306040D01*
X197025985Y-142233468D01*
X196735700Y-142233468D01*
X196590557Y-142306040D01*
X196517985Y-142451182D01*
X196517985Y-142596325D01*
X197243700Y-142741468D01*
X195864842Y-143249468D02*
X195864842Y-142233468D01*
X195864842Y-141725468D02*
X195937414Y-141798040D01*
X195864842Y-141870611D01*
X195792271Y-141798040D01*
X195864842Y-141725468D01*
X195864842Y-141870611D01*
X193252271Y-143249468D02*
X193977985Y-143249468D01*
X193977985Y-141725468D01*
X192744271Y-143249468D02*
X192744271Y-142233468D01*
X192744271Y-141725468D02*
X192816842Y-141798040D01*
X192744271Y-141870611D01*
X192671700Y-141798040D01*
X192744271Y-141725468D01*
X192744271Y-141870611D01*
D10*
X236819914Y-141285980D02*
X236819914Y-142095504D01*
X236784200Y-142190742D01*
X236748485Y-142238361D01*
X236677057Y-142285980D01*
X236534200Y-142285980D01*
X236462771Y-142238361D01*
X236427057Y-142190742D01*
X236391342Y-142095504D01*
X236391342Y-141285980D01*
X235677057Y-141285980D02*
X236034200Y-141285980D01*
X236069914Y-141762171D01*
X236034200Y-141714552D01*
X235962771Y-141666933D01*
X235784200Y-141666933D01*
X235712771Y-141714552D01*
X235677057Y-141762171D01*
X235641342Y-141857409D01*
X235641342Y-142095504D01*
X235677057Y-142190742D01*
X235712771Y-142238361D01*
X235784200Y-142285980D01*
X235962771Y-142285980D01*
X236034200Y-142238361D01*
X236069914Y-142190742D01*
X235177057Y-141285980D02*
X235105628Y-141285980D01*
X235034200Y-141333600D01*
X234998485Y-141381219D01*
X234962771Y-141476457D01*
X234927057Y-141666933D01*
X234927057Y-141905028D01*
X234962771Y-142095504D01*
X234998485Y-142190742D01*
X235034200Y-142238361D01*
X235105628Y-142285980D01*
X235177057Y-142285980D01*
X235248485Y-142238361D01*
X235284200Y-142190742D01*
X235319914Y-142095504D01*
X235355628Y-141905028D01*
X235355628Y-141666933D01*
X235319914Y-141476457D01*
X235284200Y-141381219D01*
X235248485Y-141333600D01*
X235177057Y-141285980D01*
X234212771Y-142285980D02*
X234641342Y-142285980D01*
X234427057Y-142285980D02*
X234427057Y-141285980D01*
X234498485Y-141428838D01*
X234569914Y-141524076D01*
X234641342Y-141571695D01*
D14*
X236293904Y-87585571D02*
X235493904Y-87585571D01*
X235493904Y-87776047D01*
X235532000Y-87890333D01*
X235608190Y-87966523D01*
X235684380Y-88004619D01*
X235836761Y-88042714D01*
X235951047Y-88042714D01*
X236103428Y-88004619D01*
X236179619Y-87966523D01*
X236255809Y-87890333D01*
X236293904Y-87776047D01*
X236293904Y-87585571D01*
X236293904Y-88804619D02*
X236293904Y-88347476D01*
X236293904Y-88576047D02*
X235493904Y-88576047D01*
X235608190Y-88499857D01*
X235684380Y-88423666D01*
X235722476Y-88347476D01*
X235760571Y-89490333D02*
X236293904Y-89490333D01*
X235455809Y-89299857D02*
X236027238Y-89109380D01*
X236027238Y-89604619D01*
X237581904Y-87585571D02*
X236781904Y-87585571D01*
X236781904Y-87776047D01*
X236820000Y-87890333D01*
X236896190Y-87966523D01*
X236972380Y-88004619D01*
X237124761Y-88042714D01*
X237239047Y-88042714D01*
X237391428Y-88004619D01*
X237467619Y-87966523D01*
X237543809Y-87890333D01*
X237581904Y-87776047D01*
X237581904Y-87585571D01*
X237581904Y-88804619D02*
X237581904Y-88347476D01*
X237581904Y-88576047D02*
X236781904Y-88576047D01*
X236896190Y-88499857D01*
X236972380Y-88423666D01*
X237010476Y-88347476D01*
X236781904Y-89490333D02*
X236781904Y-89337952D01*
X236820000Y-89261761D01*
X236858095Y-89223666D01*
X236972380Y-89147476D01*
X237124761Y-89109380D01*
X237429523Y-89109380D01*
X237505714Y-89147476D01*
X237543809Y-89185571D01*
X237581904Y-89261761D01*
X237581904Y-89414142D01*
X237543809Y-89490333D01*
X237505714Y-89528428D01*
X237429523Y-89566523D01*
X237239047Y-89566523D01*
X237162857Y-89528428D01*
X237124761Y-89490333D01*
X237086666Y-89414142D01*
X237086666Y-89261761D01*
X237124761Y-89185571D01*
X237162857Y-89147476D01*
X237239047Y-89109380D01*
D10*
X184169380Y-85509095D02*
X184169380Y-86080523D01*
X185169380Y-85794809D02*
X184169380Y-85794809D01*
X184264619Y-86366238D02*
X184217000Y-86413857D01*
X184169380Y-86509095D01*
X184169380Y-86747190D01*
X184217000Y-86842428D01*
X184264619Y-86890047D01*
X184359857Y-86937666D01*
X184455095Y-86937666D01*
X184597952Y-86890047D01*
X185169380Y-86318619D01*
X185169380Y-86937666D01*
X185779380Y-85509095D02*
X185779380Y-86080523D01*
X186779380Y-85794809D02*
X185779380Y-85794809D01*
X186779380Y-86937666D02*
X186779380Y-86366238D01*
X186779380Y-86651952D02*
X185779380Y-86651952D01*
X185922238Y-86556714D01*
X186017476Y-86461476D01*
X186065095Y-86366238D01*
D14*
X235874857Y-85312238D02*
X235912952Y-85426523D01*
X235951047Y-85464619D01*
X236027238Y-85502714D01*
X236141523Y-85502714D01*
X236217714Y-85464619D01*
X236255809Y-85426523D01*
X236293904Y-85350333D01*
X236293904Y-85045571D01*
X235493904Y-85045571D01*
X235493904Y-85312238D01*
X235532000Y-85388428D01*
X235570095Y-85426523D01*
X235646285Y-85464619D01*
X235722476Y-85464619D01*
X235798666Y-85426523D01*
X235836761Y-85388428D01*
X235874857Y-85312238D01*
X235874857Y-85045571D01*
X236293904Y-86264619D02*
X236293904Y-85807476D01*
X236293904Y-86036047D02*
X235493904Y-86036047D01*
X235608190Y-85959857D01*
X235684380Y-85883666D01*
X235722476Y-85807476D01*
X235493904Y-86950333D02*
X235493904Y-86797952D01*
X235532000Y-86721761D01*
X235570095Y-86683666D01*
X235684380Y-86607476D01*
X235836761Y-86569380D01*
X236141523Y-86569380D01*
X236217714Y-86607476D01*
X236255809Y-86645571D01*
X236293904Y-86721761D01*
X236293904Y-86874142D01*
X236255809Y-86950333D01*
X236217714Y-86988428D01*
X236141523Y-87026523D01*
X235951047Y-87026523D01*
X235874857Y-86988428D01*
X235836761Y-86950333D01*
X235798666Y-86874142D01*
X235798666Y-86721761D01*
X235836761Y-86645571D01*
X235874857Y-86607476D01*
X235951047Y-86569380D01*
X237505714Y-85502714D02*
X237543809Y-85464619D01*
X237581904Y-85350333D01*
X237581904Y-85274142D01*
X237543809Y-85159857D01*
X237467619Y-85083666D01*
X237391428Y-85045571D01*
X237239047Y-85007476D01*
X237124761Y-85007476D01*
X236972380Y-85045571D01*
X236896190Y-85083666D01*
X236820000Y-85159857D01*
X236781904Y-85274142D01*
X236781904Y-85350333D01*
X236820000Y-85464619D01*
X236858095Y-85502714D01*
X237581904Y-86264619D02*
X237581904Y-85807476D01*
X237581904Y-86036047D02*
X236781904Y-86036047D01*
X236896190Y-85959857D01*
X236972380Y-85883666D01*
X237010476Y-85807476D01*
X236781904Y-86950333D02*
X236781904Y-86797952D01*
X236820000Y-86721761D01*
X236858095Y-86683666D01*
X236972380Y-86607476D01*
X237124761Y-86569380D01*
X237429523Y-86569380D01*
X237505714Y-86607476D01*
X237543809Y-86645571D01*
X237581904Y-86721761D01*
X237581904Y-86874142D01*
X237543809Y-86950333D01*
X237505714Y-86988428D01*
X237429523Y-87026523D01*
X237239047Y-87026523D01*
X237162857Y-86988428D01*
X237124761Y-86950333D01*
X237086666Y-86874142D01*
X237086666Y-86721761D01*
X237124761Y-86645571D01*
X237162857Y-86607476D01*
X237239047Y-86569380D01*
D10*
X226555571Y-87898238D02*
X226603190Y-88041095D01*
X226650809Y-88088714D01*
X226746047Y-88136333D01*
X226888904Y-88136333D01*
X226984142Y-88088714D01*
X227031761Y-88041095D01*
X227079380Y-87945857D01*
X227079380Y-87564904D01*
X226079380Y-87564904D01*
X226079380Y-87898238D01*
X226127000Y-87993476D01*
X226174619Y-88041095D01*
X226269857Y-88088714D01*
X226365095Y-88088714D01*
X226460333Y-88041095D01*
X226507952Y-87993476D01*
X226555571Y-87898238D01*
X226555571Y-87564904D01*
X226079380Y-88469666D02*
X226079380Y-89088714D01*
X226460333Y-88755380D01*
X226460333Y-88898238D01*
X226507952Y-88993476D01*
X226555571Y-89041095D01*
X226650809Y-89088714D01*
X226888904Y-89088714D01*
X226984142Y-89041095D01*
X227031761Y-88993476D01*
X227079380Y-88898238D01*
X227079380Y-88612523D01*
X227031761Y-88517285D01*
X226984142Y-88469666D01*
X228165571Y-87898238D02*
X228213190Y-88041095D01*
X228260809Y-88088714D01*
X228356047Y-88136333D01*
X228498904Y-88136333D01*
X228594142Y-88088714D01*
X228641761Y-88041095D01*
X228689380Y-87945857D01*
X228689380Y-87564904D01*
X227689380Y-87564904D01*
X227689380Y-87898238D01*
X227737000Y-87993476D01*
X227784619Y-88041095D01*
X227879857Y-88088714D01*
X227975095Y-88088714D01*
X228070333Y-88041095D01*
X228117952Y-87993476D01*
X228165571Y-87898238D01*
X228165571Y-87564904D01*
X228022714Y-88993476D02*
X228689380Y-88993476D01*
X227641761Y-88755380D02*
X228356047Y-88517285D01*
X228356047Y-89136333D01*
X237230371Y-143809980D02*
X237706561Y-143809980D01*
X237706561Y-142809980D01*
X236468466Y-143809980D02*
X236468466Y-143286171D01*
X236516085Y-143190933D01*
X236611323Y-143143314D01*
X236801800Y-143143314D01*
X236897038Y-143190933D01*
X236468466Y-143762361D02*
X236563704Y-143809980D01*
X236801800Y-143809980D01*
X236897038Y-143762361D01*
X236944657Y-143667123D01*
X236944657Y-143571885D01*
X236897038Y-143476647D01*
X236801800Y-143429028D01*
X236563704Y-143429028D01*
X236468466Y-143381409D01*
X236135133Y-143143314D02*
X235754180Y-143143314D01*
X235992276Y-142809980D02*
X235992276Y-143667123D01*
X235944657Y-143762361D01*
X235849419Y-143809980D01*
X235754180Y-143809980D01*
X235563704Y-143143314D02*
X235182752Y-143143314D01*
X235420847Y-142809980D02*
X235420847Y-143667123D01*
X235373228Y-143762361D01*
X235277990Y-143809980D01*
X235182752Y-143809980D01*
X234849419Y-143809980D02*
X234849419Y-143143314D01*
X234849419Y-142809980D02*
X234897038Y-142857600D01*
X234849419Y-142905219D01*
X234801800Y-142857600D01*
X234849419Y-142809980D01*
X234849419Y-142905219D01*
X233944657Y-143762361D02*
X234039895Y-143809980D01*
X234230371Y-143809980D01*
X234325609Y-143762361D01*
X234373228Y-143714742D01*
X234420847Y-143619504D01*
X234420847Y-143333790D01*
X234373228Y-143238552D01*
X234325609Y-143190933D01*
X234230371Y-143143314D01*
X234039895Y-143143314D01*
X233944657Y-143190933D01*
X233135133Y-143762361D02*
X233230371Y-143809980D01*
X233420847Y-143809980D01*
X233516085Y-143762361D01*
X233563704Y-143667123D01*
X233563704Y-143286171D01*
X233516085Y-143190933D01*
X233420847Y-143143314D01*
X233230371Y-143143314D01*
X233135133Y-143190933D01*
X233087514Y-143286171D01*
X233087514Y-143381409D01*
X233563704Y-143476647D01*
X231897038Y-143809980D02*
X231897038Y-142809980D01*
X230849419Y-143714742D02*
X230897038Y-143762361D01*
X231039895Y-143809980D01*
X231135133Y-143809980D01*
X231277990Y-143762361D01*
X231373228Y-143667123D01*
X231420847Y-143571885D01*
X231468466Y-143381409D01*
X231468466Y-143238552D01*
X231420847Y-143048076D01*
X231373228Y-142952838D01*
X231277990Y-142857600D01*
X231135133Y-142809980D01*
X231039895Y-142809980D01*
X230897038Y-142857600D01*
X230849419Y-142905219D01*
X230420847Y-143286171D02*
X230087514Y-143286171D01*
X229944657Y-143809980D02*
X230420847Y-143809980D01*
X230420847Y-142809980D01*
X229944657Y-142809980D01*
X229087514Y-143143314D02*
X229087514Y-143809980D01*
X229325609Y-142762361D02*
X229563704Y-143476647D01*
X228944657Y-143476647D01*
X228373228Y-142809980D02*
X228277990Y-142809980D01*
X228182752Y-142857600D01*
X228135133Y-142905219D01*
X228087514Y-143000457D01*
X228039895Y-143190933D01*
X228039895Y-143429028D01*
X228087514Y-143619504D01*
X228135133Y-143714742D01*
X228182752Y-143762361D01*
X228277990Y-143809980D01*
X228373228Y-143809980D01*
X228468466Y-143762361D01*
X228516085Y-143714742D01*
X228563704Y-143619504D01*
X228611323Y-143429028D01*
X228611323Y-143190933D01*
X228563704Y-143000457D01*
X228516085Y-142905219D01*
X228468466Y-142857600D01*
X228373228Y-142809980D01*
X227611323Y-143429028D02*
X226849419Y-143429028D01*
X226373228Y-143809980D02*
X226373228Y-142809980D01*
X226373228Y-143286171D02*
X225801800Y-143286171D01*
X225801800Y-143809980D02*
X225801800Y-142809980D01*
X225420847Y-142809980D02*
X224754180Y-143809980D01*
X224754180Y-142809980D02*
X225420847Y-143809980D01*
X224230371Y-143238552D02*
X224325609Y-143190933D01*
X224373228Y-143143314D01*
X224420847Y-143048076D01*
X224420847Y-143000457D01*
X224373228Y-142905219D01*
X224325609Y-142857600D01*
X224230371Y-142809980D01*
X224039895Y-142809980D01*
X223944657Y-142857600D01*
X223897038Y-142905219D01*
X223849419Y-143000457D01*
X223849419Y-143048076D01*
X223897038Y-143143314D01*
X223944657Y-143190933D01*
X224039895Y-143238552D01*
X224230371Y-143238552D01*
X224325609Y-143286171D01*
X224373228Y-143333790D01*
X224420847Y-143429028D01*
X224420847Y-143619504D01*
X224373228Y-143714742D01*
X224325609Y-143762361D01*
X224230371Y-143809980D01*
X224039895Y-143809980D01*
X223944657Y-143762361D01*
X223897038Y-143714742D01*
X223849419Y-143619504D01*
X223849419Y-143429028D01*
X223897038Y-143333790D01*
X223944657Y-143286171D01*
X224039895Y-143238552D01*
X223420847Y-143809980D02*
X223420847Y-142809980D01*
X222849419Y-143809980D02*
X223277990Y-143238552D01*
X222849419Y-142809980D02*
X223420847Y-143381409D01*
D11*
X225952857Y-97155514D02*
X225952857Y-96655514D01*
X226738571Y-96655514D02*
X225238571Y-96655514D01*
X225238571Y-97369800D01*
X226738571Y-97941228D02*
X225238571Y-97941228D01*
X225238571Y-98512657D01*
X225310000Y-98655514D01*
X225381428Y-98726942D01*
X225524285Y-98798371D01*
X225738571Y-98798371D01*
X225881428Y-98726942D01*
X225952857Y-98655514D01*
X226024285Y-98512657D01*
X226024285Y-97941228D01*
X225310000Y-100226942D02*
X225238571Y-100084085D01*
X225238571Y-99869800D01*
X225310000Y-99655514D01*
X225452857Y-99512657D01*
X225595714Y-99441228D01*
X225881428Y-99369800D01*
X226095714Y-99369800D01*
X226381428Y-99441228D01*
X226524285Y-99512657D01*
X226667142Y-99655514D01*
X226738571Y-99869800D01*
X226738571Y-100012657D01*
X226667142Y-100226942D01*
X226595714Y-100298371D01*
X226095714Y-100298371D01*
X226095714Y-100012657D01*
X226310000Y-100869800D02*
X226310000Y-101584085D01*
X226738571Y-100726942D02*
X225238571Y-101226942D01*
X226738571Y-101726942D01*
X225238571Y-103369800D02*
X226452857Y-103369800D01*
X226595714Y-103441228D01*
X226667142Y-103512657D01*
X226738571Y-103655514D01*
X226738571Y-103941228D01*
X226667142Y-104084085D01*
X226595714Y-104155514D01*
X226452857Y-104226942D01*
X225238571Y-104226942D01*
X226667142Y-104869800D02*
X226738571Y-105084085D01*
X226738571Y-105441228D01*
X226667142Y-105584085D01*
X226595714Y-105655514D01*
X226452857Y-105726942D01*
X226310000Y-105726942D01*
X226167142Y-105655514D01*
X226095714Y-105584085D01*
X226024285Y-105441228D01*
X225952857Y-105155514D01*
X225881428Y-105012657D01*
X225810000Y-104941228D01*
X225667142Y-104869800D01*
X225524285Y-104869800D01*
X225381428Y-104941228D01*
X225310000Y-105012657D01*
X225238571Y-105155514D01*
X225238571Y-105512657D01*
X225310000Y-105726942D01*
X225952857Y-106869800D02*
X226024285Y-107084085D01*
X226095714Y-107155514D01*
X226238571Y-107226942D01*
X226452857Y-107226942D01*
X226595714Y-107155514D01*
X226667142Y-107084085D01*
X226738571Y-106941228D01*
X226738571Y-106369800D01*
X225238571Y-106369800D01*
X225238571Y-106869800D01*
X225310000Y-107012657D01*
X225381428Y-107084085D01*
X225524285Y-107155514D01*
X225667142Y-107155514D01*
X225810000Y-107084085D01*
X225881428Y-107012657D01*
X225952857Y-106869800D01*
X225952857Y-106369800D01*
X225238571Y-108798371D02*
X225238571Y-109655514D01*
X226738571Y-109226942D02*
X225238571Y-109226942D01*
X226738571Y-110155514D02*
X225238571Y-110155514D01*
X225952857Y-110155514D02*
X225952857Y-111012657D01*
X226738571Y-111012657D02*
X225238571Y-111012657D01*
X226738571Y-111726942D02*
X225238571Y-111726942D01*
X226667142Y-112369800D02*
X226738571Y-112584085D01*
X226738571Y-112941228D01*
X226667142Y-113084085D01*
X226595714Y-113155514D01*
X226452857Y-113226942D01*
X226310000Y-113226942D01*
X226167142Y-113155514D01*
X226095714Y-113084085D01*
X226024285Y-112941228D01*
X225952857Y-112655514D01*
X225881428Y-112512657D01*
X225810000Y-112441228D01*
X225667142Y-112369800D01*
X225524285Y-112369800D01*
X225381428Y-112441228D01*
X225310000Y-112512657D01*
X225238571Y-112655514D01*
X225238571Y-113012657D01*
X225310000Y-113226942D01*
X225238571Y-114869800D02*
X226738571Y-115226942D01*
X225667142Y-115512657D01*
X226738571Y-115798371D01*
X225238571Y-116155514D01*
X226310000Y-116655514D02*
X226310000Y-117369800D01*
X226738571Y-116512657D02*
X225238571Y-117012657D01*
X226738571Y-117512657D01*
X226024285Y-118298371D02*
X226738571Y-118298371D01*
X225238571Y-117798371D02*
X226024285Y-118298371D01*
X225238571Y-118798371D01*
D10*
X175501571Y-85866238D02*
X175549190Y-86009095D01*
X175596809Y-86056714D01*
X175692047Y-86104333D01*
X175834904Y-86104333D01*
X175930142Y-86056714D01*
X175977761Y-86009095D01*
X176025380Y-85913857D01*
X176025380Y-85532904D01*
X175025380Y-85532904D01*
X175025380Y-85866238D01*
X175073000Y-85961476D01*
X175120619Y-86009095D01*
X175215857Y-86056714D01*
X175311095Y-86056714D01*
X175406333Y-86009095D01*
X175453952Y-85961476D01*
X175501571Y-85866238D01*
X175501571Y-85532904D01*
X175120619Y-86485285D02*
X175073000Y-86532904D01*
X175025380Y-86628142D01*
X175025380Y-86866238D01*
X175073000Y-86961476D01*
X175120619Y-87009095D01*
X175215857Y-87056714D01*
X175311095Y-87056714D01*
X175453952Y-87009095D01*
X176025380Y-86437666D01*
X176025380Y-87056714D01*
X177111571Y-85866238D02*
X177159190Y-86009095D01*
X177206809Y-86056714D01*
X177302047Y-86104333D01*
X177444904Y-86104333D01*
X177540142Y-86056714D01*
X177587761Y-86009095D01*
X177635380Y-85913857D01*
X177635380Y-85532904D01*
X176635380Y-85532904D01*
X176635380Y-85866238D01*
X176683000Y-85961476D01*
X176730619Y-86009095D01*
X176825857Y-86056714D01*
X176921095Y-86056714D01*
X177016333Y-86009095D01*
X177063952Y-85961476D01*
X177111571Y-85866238D01*
X177111571Y-85532904D01*
X177635380Y-87056714D02*
X177635380Y-86485285D01*
X177635380Y-86771000D02*
X176635380Y-86771000D01*
X176778238Y-86675761D01*
X176873476Y-86580523D01*
X176921095Y-86485285D01*
X226793666Y-85302714D02*
X226793666Y-85778904D01*
X227079380Y-85207476D02*
X226079380Y-85540809D01*
X227079380Y-85874142D01*
X227079380Y-86731285D02*
X227079380Y-86159857D01*
X227079380Y-86445571D02*
X226079380Y-86445571D01*
X226222238Y-86350333D01*
X226317476Y-86255095D01*
X226365095Y-86159857D01*
X228403666Y-85302714D02*
X228403666Y-85778904D01*
X228689380Y-85207476D02*
X227689380Y-85540809D01*
X228689380Y-85874142D01*
X227784619Y-86159857D02*
X227737000Y-86207476D01*
X227689380Y-86302714D01*
X227689380Y-86540809D01*
X227737000Y-86636047D01*
X227784619Y-86683666D01*
X227879857Y-86731285D01*
X227975095Y-86731285D01*
X228117952Y-86683666D01*
X228689380Y-86112238D01*
X228689380Y-86731285D01*
X184169380Y-87795095D02*
X184169380Y-88366523D01*
X185169380Y-88080809D02*
X184169380Y-88080809D01*
X184169380Y-88604619D02*
X184169380Y-89223666D01*
X184550333Y-88890333D01*
X184550333Y-89033190D01*
X184597952Y-89128428D01*
X184645571Y-89176047D01*
X184740809Y-89223666D01*
X184978904Y-89223666D01*
X185074142Y-89176047D01*
X185121761Y-89128428D01*
X185169380Y-89033190D01*
X185169380Y-88747476D01*
X185121761Y-88652238D01*
X185074142Y-88604619D01*
X186779380Y-88390333D02*
X186303190Y-88057000D01*
X186779380Y-87818904D02*
X185779380Y-87818904D01*
X185779380Y-88199857D01*
X185827000Y-88295095D01*
X185874619Y-88342714D01*
X185969857Y-88390333D01*
X186112714Y-88390333D01*
X186207952Y-88342714D01*
X186255571Y-88295095D01*
X186303190Y-88199857D01*
X186303190Y-87818904D01*
X185874619Y-88771285D02*
X185827000Y-88818904D01*
X185779380Y-88914142D01*
X185779380Y-89152238D01*
X185827000Y-89247476D01*
X185874619Y-89295095D01*
X185969857Y-89342714D01*
X186065095Y-89342714D01*
X186207952Y-89295095D01*
X186779380Y-88723666D01*
X186779380Y-89342714D01*
X175930142Y-88390333D02*
X175977761Y-88342714D01*
X176025380Y-88199857D01*
X176025380Y-88104619D01*
X175977761Y-87961761D01*
X175882523Y-87866523D01*
X175787285Y-87818904D01*
X175596809Y-87771285D01*
X175453952Y-87771285D01*
X175263476Y-87818904D01*
X175168238Y-87866523D01*
X175073000Y-87961761D01*
X175025380Y-88104619D01*
X175025380Y-88199857D01*
X175073000Y-88342714D01*
X175120619Y-88390333D01*
X175120619Y-88771285D02*
X175073000Y-88818904D01*
X175025380Y-88914142D01*
X175025380Y-89152238D01*
X175073000Y-89247476D01*
X175120619Y-89295095D01*
X175215857Y-89342714D01*
X175311095Y-89342714D01*
X175453952Y-89295095D01*
X176025380Y-88723666D01*
X176025380Y-89342714D01*
X177540142Y-88390333D02*
X177587761Y-88342714D01*
X177635380Y-88199857D01*
X177635380Y-88104619D01*
X177587761Y-87961761D01*
X177492523Y-87866523D01*
X177397285Y-87818904D01*
X177206809Y-87771285D01*
X177063952Y-87771285D01*
X176873476Y-87818904D01*
X176778238Y-87866523D01*
X176683000Y-87961761D01*
X176635380Y-88104619D01*
X176635380Y-88199857D01*
X176683000Y-88342714D01*
X176730619Y-88390333D01*
X177635380Y-89342714D02*
X177635380Y-88771285D01*
X177635380Y-89057000D02*
X176635380Y-89057000D01*
X176778238Y-88961761D01*
X176873476Y-88866523D01*
X176921095Y-88771285D01*
X211953314Y-76896980D02*
X211953314Y-77706504D01*
X211917600Y-77801742D01*
X211881885Y-77849361D01*
X211810457Y-77896980D01*
X211667600Y-77896980D01*
X211596171Y-77849361D01*
X211560457Y-77801742D01*
X211524742Y-77706504D01*
X211524742Y-76896980D01*
X211239028Y-76896980D02*
X210739028Y-76896980D01*
X211060457Y-77896980D01*
X210310457Y-76896980D02*
X210239028Y-76896980D01*
X210167600Y-76944600D01*
X210131885Y-76992219D01*
X210096171Y-77087457D01*
X210060457Y-77277933D01*
X210060457Y-77516028D01*
X210096171Y-77706504D01*
X210131885Y-77801742D01*
X210167600Y-77849361D01*
X210239028Y-77896980D01*
X210310457Y-77896980D01*
X210381885Y-77849361D01*
X210417600Y-77801742D01*
X210453314Y-77706504D01*
X210489028Y-77516028D01*
X210489028Y-77277933D01*
X210453314Y-77087457D01*
X210417600Y-76992219D01*
X210381885Y-76944600D01*
X210310457Y-76896980D01*
X209346171Y-77896980D02*
X209774742Y-77896980D01*
X209560457Y-77896980D02*
X209560457Y-76896980D01*
X209631885Y-77039838D01*
X209703314Y-77135076D01*
X209774742Y-77182695D01*
X223978285Y-90577942D02*
X224014000Y-90625561D01*
X224121142Y-90673180D01*
X224192571Y-90673180D01*
X224299714Y-90625561D01*
X224371142Y-90530323D01*
X224406857Y-90435085D01*
X224442571Y-90244609D01*
X224442571Y-90101752D01*
X224406857Y-89911276D01*
X224371142Y-89816038D01*
X224299714Y-89720800D01*
X224192571Y-89673180D01*
X224121142Y-89673180D01*
X224014000Y-89720800D01*
X223978285Y-89768419D01*
X223728285Y-89673180D02*
X223228285Y-89673180D01*
X223549714Y-90673180D01*
X222799714Y-89673180D02*
X222728285Y-89673180D01*
X222656857Y-89720800D01*
X222621142Y-89768419D01*
X222585428Y-89863657D01*
X222549714Y-90054133D01*
X222549714Y-90292228D01*
X222585428Y-90482704D01*
X222621142Y-90577942D01*
X222656857Y-90625561D01*
X222728285Y-90673180D01*
X222799714Y-90673180D01*
X222871142Y-90625561D01*
X222906857Y-90577942D01*
X222942571Y-90482704D01*
X222978285Y-90292228D01*
X222978285Y-90054133D01*
X222942571Y-89863657D01*
X222906857Y-89768419D01*
X222871142Y-89720800D01*
X222799714Y-89673180D01*
X222299714Y-89673180D02*
X221835428Y-89673180D01*
X222085428Y-90054133D01*
X221978285Y-90054133D01*
X221906857Y-90101752D01*
X221871142Y-90149371D01*
X221835428Y-90244609D01*
X221835428Y-90482704D01*
X221871142Y-90577942D01*
X221906857Y-90625561D01*
X221978285Y-90673180D01*
X222192571Y-90673180D01*
X222264000Y-90625561D01*
X222299714Y-90577942D01*
X222202380Y-100014285D02*
X223011904Y-100014285D01*
X223107142Y-100050000D01*
X223154761Y-100085714D01*
X223202380Y-100157142D01*
X223202380Y-100300000D01*
X223154761Y-100371428D01*
X223107142Y-100407142D01*
X223011904Y-100442857D01*
X222202380Y-100442857D01*
X222535714Y-101121428D02*
X223202380Y-101121428D01*
X222154761Y-100942857D02*
X222869047Y-100764285D01*
X222869047Y-101228571D01*
X222202380Y-101657142D02*
X222202380Y-101728571D01*
X222250000Y-101800000D01*
X222297619Y-101835714D01*
X222392857Y-101871428D01*
X222583333Y-101907142D01*
X222821428Y-101907142D01*
X223011904Y-101871428D01*
X223107142Y-101835714D01*
X223154761Y-101800000D01*
X223202380Y-101728571D01*
X223202380Y-101657142D01*
X223154761Y-101585714D01*
X223107142Y-101550000D01*
X223011904Y-101514285D01*
X222821428Y-101478571D01*
X222583333Y-101478571D01*
X222392857Y-101514285D01*
X222297619Y-101550000D01*
X222250000Y-101585714D01*
X222202380Y-101657142D01*
X223202380Y-102621428D02*
X223202380Y-102192857D01*
X223202380Y-102407142D02*
X222202380Y-102407142D01*
X222345238Y-102335714D01*
X222440476Y-102264285D01*
X222488095Y-102192857D01*
X194361885Y-81256142D02*
X194397600Y-81303761D01*
X194504742Y-81351380D01*
X194576171Y-81351380D01*
X194683314Y-81303761D01*
X194754742Y-81208523D01*
X194790457Y-81113285D01*
X194826171Y-80922809D01*
X194826171Y-80779952D01*
X194790457Y-80589476D01*
X194754742Y-80494238D01*
X194683314Y-80399000D01*
X194576171Y-80351380D01*
X194504742Y-80351380D01*
X194397600Y-80399000D01*
X194361885Y-80446619D01*
X194111885Y-80351380D02*
X193647600Y-80351380D01*
X193897600Y-80732333D01*
X193790457Y-80732333D01*
X193719028Y-80779952D01*
X193683314Y-80827571D01*
X193647600Y-80922809D01*
X193647600Y-81160904D01*
X193683314Y-81256142D01*
X193719028Y-81303761D01*
X193790457Y-81351380D01*
X194004742Y-81351380D01*
X194076171Y-81303761D01*
X194111885Y-81256142D01*
X192933314Y-81351380D02*
X193361885Y-81351380D01*
X193147600Y-81351380D02*
X193147600Y-80351380D01*
X193219028Y-80494238D01*
X193290457Y-80589476D01*
X193361885Y-80637095D01*
X192254742Y-80351380D02*
X192611885Y-80351380D01*
X192647600Y-80827571D01*
X192611885Y-80779952D01*
X192540457Y-80732333D01*
X192361885Y-80732333D01*
X192290457Y-80779952D01*
X192254742Y-80827571D01*
X192219028Y-80922809D01*
X192219028Y-81160904D01*
X192254742Y-81256142D01*
X192290457Y-81303761D01*
X192361885Y-81351380D01*
X192540457Y-81351380D01*
X192611885Y-81303761D01*
X192647600Y-81256142D01*
X199518542Y-83082314D02*
X199566161Y-83046600D01*
X199613780Y-82939457D01*
X199613780Y-82868028D01*
X199566161Y-82760885D01*
X199470923Y-82689457D01*
X199375685Y-82653742D01*
X199185209Y-82618028D01*
X199042352Y-82618028D01*
X198851876Y-82653742D01*
X198756638Y-82689457D01*
X198661400Y-82760885D01*
X198613780Y-82868028D01*
X198613780Y-82939457D01*
X198661400Y-83046600D01*
X198709019Y-83082314D01*
X198613780Y-83332314D02*
X198613780Y-83796600D01*
X198994733Y-83546600D01*
X198994733Y-83653742D01*
X199042352Y-83725171D01*
X199089971Y-83760885D01*
X199185209Y-83796600D01*
X199423304Y-83796600D01*
X199518542Y-83760885D01*
X199566161Y-83725171D01*
X199613780Y-83653742D01*
X199613780Y-83439457D01*
X199566161Y-83368028D01*
X199518542Y-83332314D01*
X198613780Y-84260885D02*
X198613780Y-84332314D01*
X198661400Y-84403742D01*
X198709019Y-84439457D01*
X198804257Y-84475171D01*
X198994733Y-84510885D01*
X199232828Y-84510885D01*
X199423304Y-84475171D01*
X199518542Y-84439457D01*
X199566161Y-84403742D01*
X199613780Y-84332314D01*
X199613780Y-84260885D01*
X199566161Y-84189457D01*
X199518542Y-84153742D01*
X199423304Y-84118028D01*
X199232828Y-84082314D01*
X198994733Y-84082314D01*
X198804257Y-84118028D01*
X198709019Y-84153742D01*
X198661400Y-84189457D01*
X198613780Y-84260885D01*
X198709019Y-84796600D02*
X198661400Y-84832314D01*
X198613780Y-84903742D01*
X198613780Y-85082314D01*
X198661400Y-85153742D01*
X198709019Y-85189457D01*
X198804257Y-85225171D01*
X198899495Y-85225171D01*
X199042352Y-85189457D01*
X199613780Y-84760885D01*
X199613780Y-85225171D01*
X212853085Y-95778580D02*
X213103085Y-95302390D01*
X213281657Y-95778580D02*
X213281657Y-94778580D01*
X212995942Y-94778580D01*
X212924514Y-94826200D01*
X212888800Y-94873819D01*
X212853085Y-94969057D01*
X212853085Y-95111914D01*
X212888800Y-95207152D01*
X212924514Y-95254771D01*
X212995942Y-95302390D01*
X213281657Y-95302390D01*
X212210228Y-95111914D02*
X212210228Y-95778580D01*
X212388800Y-94730961D02*
X212567371Y-95445247D01*
X212103085Y-95445247D01*
X211674514Y-94778580D02*
X211603085Y-94778580D01*
X211531657Y-94826200D01*
X211495942Y-94873819D01*
X211460228Y-94969057D01*
X211424514Y-95159533D01*
X211424514Y-95397628D01*
X211460228Y-95588104D01*
X211495942Y-95683342D01*
X211531657Y-95730961D01*
X211603085Y-95778580D01*
X211674514Y-95778580D01*
X211745942Y-95730961D01*
X211781657Y-95683342D01*
X211817371Y-95588104D01*
X211853085Y-95397628D01*
X211853085Y-95159533D01*
X211817371Y-94969057D01*
X211781657Y-94873819D01*
X211745942Y-94826200D01*
X211674514Y-94778580D01*
X210710228Y-95778580D02*
X211138800Y-95778580D01*
X210924514Y-95778580D02*
X210924514Y-94778580D01*
X210995942Y-94921438D01*
X211067371Y-95016676D01*
X211138800Y-95064295D01*
X189782680Y-100014285D02*
X190592204Y-100014285D01*
X190687442Y-100050000D01*
X190735061Y-100085714D01*
X190782680Y-100157142D01*
X190782680Y-100300000D01*
X190735061Y-100371428D01*
X190687442Y-100407142D01*
X190592204Y-100442857D01*
X189782680Y-100442857D01*
X190116014Y-101121428D02*
X190782680Y-101121428D01*
X189735061Y-100942857D02*
X190449347Y-100764285D01*
X190449347Y-101228571D01*
X189782680Y-101657142D02*
X189782680Y-101728571D01*
X189830300Y-101800000D01*
X189877919Y-101835714D01*
X189973157Y-101871428D01*
X190163633Y-101907142D01*
X190401728Y-101907142D01*
X190592204Y-101871428D01*
X190687442Y-101835714D01*
X190735061Y-101800000D01*
X190782680Y-101728571D01*
X190782680Y-101657142D01*
X190735061Y-101585714D01*
X190687442Y-101550000D01*
X190592204Y-101514285D01*
X190401728Y-101478571D01*
X190163633Y-101478571D01*
X189973157Y-101514285D01*
X189877919Y-101550000D01*
X189830300Y-101585714D01*
X189782680Y-101657142D01*
X189782680Y-102157142D02*
X189782680Y-102621428D01*
X190163633Y-102371428D01*
X190163633Y-102478571D01*
X190211252Y-102550000D01*
X190258871Y-102585714D01*
X190354109Y-102621428D01*
X190592204Y-102621428D01*
X190687442Y-102585714D01*
X190735061Y-102550000D01*
X190782680Y-102478571D01*
X190782680Y-102264285D01*
X190735061Y-102192857D01*
X190687442Y-102157142D01*
X191079380Y-78600057D02*
X190603190Y-78350057D01*
X191079380Y-78171485D02*
X190079380Y-78171485D01*
X190079380Y-78457200D01*
X190127000Y-78528628D01*
X190174619Y-78564342D01*
X190269857Y-78600057D01*
X190412714Y-78600057D01*
X190507952Y-78564342D01*
X190555571Y-78528628D01*
X190603190Y-78457200D01*
X190603190Y-78171485D01*
X191079380Y-78921485D02*
X190079380Y-78921485D01*
X191079380Y-79350057D01*
X190079380Y-79350057D01*
X190079380Y-79635771D02*
X190079380Y-80100057D01*
X190460333Y-79850057D01*
X190460333Y-79957200D01*
X190507952Y-80028628D01*
X190555571Y-80064342D01*
X190650809Y-80100057D01*
X190888904Y-80100057D01*
X190984142Y-80064342D01*
X191031761Y-80028628D01*
X191079380Y-79957200D01*
X191079380Y-79742914D01*
X191031761Y-79671485D01*
X190984142Y-79635771D01*
X190079380Y-80564342D02*
X190079380Y-80635771D01*
X190127000Y-80707200D01*
X190174619Y-80742914D01*
X190269857Y-80778628D01*
X190460333Y-80814342D01*
X190698428Y-80814342D01*
X190888904Y-80778628D01*
X190984142Y-80742914D01*
X191031761Y-80707200D01*
X191079380Y-80635771D01*
X191079380Y-80564342D01*
X191031761Y-80492914D01*
X190984142Y-80457200D01*
X190888904Y-80421485D01*
X190698428Y-80385771D01*
X190460333Y-80385771D01*
X190269857Y-80421485D01*
X190174619Y-80457200D01*
X190127000Y-80492914D01*
X190079380Y-80564342D01*
X191079380Y-81528628D02*
X191079380Y-81100057D01*
X191079380Y-81314342D02*
X190079380Y-81314342D01*
X190222238Y-81242914D01*
X190317476Y-81171485D01*
X190365095Y-81100057D01*
X221844685Y-77007980D02*
X222094685Y-76531790D01*
X222273257Y-77007980D02*
X222273257Y-76007980D01*
X221987542Y-76007980D01*
X221916114Y-76055600D01*
X221880400Y-76103219D01*
X221844685Y-76198457D01*
X221844685Y-76341314D01*
X221880400Y-76436552D01*
X221916114Y-76484171D01*
X221987542Y-76531790D01*
X222273257Y-76531790D01*
X221594685Y-76007980D02*
X221094685Y-76007980D01*
X221416114Y-77007980D01*
X220666114Y-76007980D02*
X220594685Y-76007980D01*
X220523257Y-76055600D01*
X220487542Y-76103219D01*
X220451828Y-76198457D01*
X220416114Y-76388933D01*
X220416114Y-76627028D01*
X220451828Y-76817504D01*
X220487542Y-76912742D01*
X220523257Y-76960361D01*
X220594685Y-77007980D01*
X220666114Y-77007980D01*
X220737542Y-76960361D01*
X220773257Y-76912742D01*
X220808971Y-76817504D01*
X220844685Y-76627028D01*
X220844685Y-76388933D01*
X220808971Y-76198457D01*
X220773257Y-76103219D01*
X220737542Y-76055600D01*
X220666114Y-76007980D01*
X220130400Y-76103219D02*
X220094685Y-76055600D01*
X220023257Y-76007980D01*
X219844685Y-76007980D01*
X219773257Y-76055600D01*
X219737542Y-76103219D01*
X219701828Y-76198457D01*
X219701828Y-76293695D01*
X219737542Y-76436552D01*
X220166114Y-77007980D01*
X219701828Y-77007980D01*
X259070314Y-80960980D02*
X259070314Y-81770504D01*
X259034600Y-81865742D01*
X258998885Y-81913361D01*
X258927457Y-81960980D01*
X258784600Y-81960980D01*
X258713171Y-81913361D01*
X258677457Y-81865742D01*
X258641742Y-81770504D01*
X258641742Y-80960980D01*
X257963171Y-80960980D02*
X258106028Y-80960980D01*
X258177457Y-81008600D01*
X258213171Y-81056219D01*
X258284600Y-81199076D01*
X258320314Y-81389552D01*
X258320314Y-81770504D01*
X258284600Y-81865742D01*
X258248885Y-81913361D01*
X258177457Y-81960980D01*
X258034600Y-81960980D01*
X257963171Y-81913361D01*
X257927457Y-81865742D01*
X257891742Y-81770504D01*
X257891742Y-81532409D01*
X257927457Y-81437171D01*
X257963171Y-81389552D01*
X258034600Y-81341933D01*
X258177457Y-81341933D01*
X258248885Y-81389552D01*
X258284600Y-81437171D01*
X258320314Y-81532409D01*
X257427457Y-80960980D02*
X257356028Y-80960980D01*
X257284600Y-81008600D01*
X257248885Y-81056219D01*
X257213171Y-81151457D01*
X257177457Y-81341933D01*
X257177457Y-81580028D01*
X257213171Y-81770504D01*
X257248885Y-81865742D01*
X257284600Y-81913361D01*
X257356028Y-81960980D01*
X257427457Y-81960980D01*
X257498885Y-81913361D01*
X257534600Y-81865742D01*
X257570314Y-81770504D01*
X257606028Y-81580028D01*
X257606028Y-81341933D01*
X257570314Y-81151457D01*
X257534600Y-81056219D01*
X257498885Y-81008600D01*
X257427457Y-80960980D01*
X256463171Y-81960980D02*
X256891742Y-81960980D01*
X256677457Y-81960980D02*
X256677457Y-80960980D01*
X256748885Y-81103838D01*
X256820314Y-81199076D01*
X256891742Y-81246695D01*
X197149980Y-80796314D02*
X196673790Y-80546314D01*
X197149980Y-80367742D02*
X196149980Y-80367742D01*
X196149980Y-80653457D01*
X196197600Y-80724885D01*
X196245219Y-80760600D01*
X196340457Y-80796314D01*
X196483314Y-80796314D01*
X196578552Y-80760600D01*
X196626171Y-80724885D01*
X196673790Y-80653457D01*
X196673790Y-80367742D01*
X196149980Y-81046314D02*
X196149980Y-81510600D01*
X196530933Y-81260600D01*
X196530933Y-81367742D01*
X196578552Y-81439171D01*
X196626171Y-81474885D01*
X196721409Y-81510600D01*
X196959504Y-81510600D01*
X197054742Y-81474885D01*
X197102361Y-81439171D01*
X197149980Y-81367742D01*
X197149980Y-81153457D01*
X197102361Y-81082028D01*
X197054742Y-81046314D01*
X196149980Y-81974885D02*
X196149980Y-82046314D01*
X196197600Y-82117742D01*
X196245219Y-82153457D01*
X196340457Y-82189171D01*
X196530933Y-82224885D01*
X196769028Y-82224885D01*
X196959504Y-82189171D01*
X197054742Y-82153457D01*
X197102361Y-82117742D01*
X197149980Y-82046314D01*
X197149980Y-81974885D01*
X197102361Y-81903457D01*
X197054742Y-81867742D01*
X196959504Y-81832028D01*
X196769028Y-81796314D01*
X196530933Y-81796314D01*
X196340457Y-81832028D01*
X196245219Y-81867742D01*
X196197600Y-81903457D01*
X196149980Y-81974885D01*
X196483314Y-82867742D02*
X197149980Y-82867742D01*
X196102361Y-82689171D02*
X196816647Y-82510600D01*
X196816647Y-82974885D01*
X203550780Y-81482114D02*
X203074590Y-81232114D01*
X203550780Y-81053542D02*
X202550780Y-81053542D01*
X202550780Y-81339257D01*
X202598400Y-81410685D01*
X202646019Y-81446400D01*
X202741257Y-81482114D01*
X202884114Y-81482114D01*
X202979352Y-81446400D01*
X203026971Y-81410685D01*
X203074590Y-81339257D01*
X203074590Y-81053542D01*
X202550780Y-81732114D02*
X202550780Y-82232114D01*
X203550780Y-81910685D01*
X202550780Y-82660685D02*
X202550780Y-82732114D01*
X202598400Y-82803542D01*
X202646019Y-82839257D01*
X202741257Y-82874971D01*
X202931733Y-82910685D01*
X203169828Y-82910685D01*
X203360304Y-82874971D01*
X203455542Y-82839257D01*
X203503161Y-82803542D01*
X203550780Y-82732114D01*
X203550780Y-82660685D01*
X203503161Y-82589257D01*
X203455542Y-82553542D01*
X203360304Y-82517828D01*
X203169828Y-82482114D01*
X202931733Y-82482114D01*
X202741257Y-82517828D01*
X202646019Y-82553542D01*
X202598400Y-82589257D01*
X202550780Y-82660685D01*
X202550780Y-83589257D02*
X202550780Y-83232114D01*
X203026971Y-83196400D01*
X202979352Y-83232114D01*
X202931733Y-83303542D01*
X202931733Y-83482114D01*
X202979352Y-83553542D01*
X203026971Y-83589257D01*
X203122209Y-83624971D01*
X203360304Y-83624971D01*
X203455542Y-83589257D01*
X203503161Y-83553542D01*
X203550780Y-83482114D01*
X203550780Y-83303542D01*
X203503161Y-83232114D01*
X203455542Y-83196400D01*
X219406285Y-92990942D02*
X219442000Y-93038561D01*
X219549142Y-93086180D01*
X219620571Y-93086180D01*
X219727714Y-93038561D01*
X219799142Y-92943323D01*
X219834857Y-92848085D01*
X219870571Y-92657609D01*
X219870571Y-92514752D01*
X219834857Y-92324276D01*
X219799142Y-92229038D01*
X219727714Y-92133800D01*
X219620571Y-92086180D01*
X219549142Y-92086180D01*
X219442000Y-92133800D01*
X219406285Y-92181419D01*
X219156285Y-92086180D02*
X218656285Y-92086180D01*
X218977714Y-93086180D01*
X218227714Y-92086180D02*
X218156285Y-92086180D01*
X218084857Y-92133800D01*
X218049142Y-92181419D01*
X218013428Y-92276657D01*
X217977714Y-92467133D01*
X217977714Y-92705228D01*
X218013428Y-92895704D01*
X218049142Y-92990942D01*
X218084857Y-93038561D01*
X218156285Y-93086180D01*
X218227714Y-93086180D01*
X218299142Y-93038561D01*
X218334857Y-92990942D01*
X218370571Y-92895704D01*
X218406285Y-92705228D01*
X218406285Y-92467133D01*
X218370571Y-92276657D01*
X218334857Y-92181419D01*
X218299142Y-92133800D01*
X218227714Y-92086180D01*
X217334857Y-92086180D02*
X217477714Y-92086180D01*
X217549142Y-92133800D01*
X217584857Y-92181419D01*
X217656285Y-92324276D01*
X217692000Y-92514752D01*
X217692000Y-92895704D01*
X217656285Y-92990942D01*
X217620571Y-93038561D01*
X217549142Y-93086180D01*
X217406285Y-93086180D01*
X217334857Y-93038561D01*
X217299142Y-92990942D01*
X217263428Y-92895704D01*
X217263428Y-92657609D01*
X217299142Y-92562371D01*
X217334857Y-92514752D01*
X217406285Y-92467133D01*
X217549142Y-92467133D01*
X217620571Y-92514752D01*
X217656285Y-92562371D01*
X217692000Y-92657609D01*
X206706285Y-85491580D02*
X206956285Y-85015390D01*
X207134857Y-85491580D02*
X207134857Y-84491580D01*
X206849142Y-84491580D01*
X206777714Y-84539200D01*
X206742000Y-84586819D01*
X206706285Y-84682057D01*
X206706285Y-84824914D01*
X206742000Y-84920152D01*
X206777714Y-84967771D01*
X206849142Y-85015390D01*
X207134857Y-85015390D01*
X206456285Y-84491580D02*
X205956285Y-84491580D01*
X206277714Y-85491580D01*
X205527714Y-84491580D02*
X205456285Y-84491580D01*
X205384857Y-84539200D01*
X205349142Y-84586819D01*
X205313428Y-84682057D01*
X205277714Y-84872533D01*
X205277714Y-85110628D01*
X205313428Y-85301104D01*
X205349142Y-85396342D01*
X205384857Y-85443961D01*
X205456285Y-85491580D01*
X205527714Y-85491580D01*
X205599142Y-85443961D01*
X205634857Y-85396342D01*
X205670571Y-85301104D01*
X205706285Y-85110628D01*
X205706285Y-84872533D01*
X205670571Y-84682057D01*
X205634857Y-84586819D01*
X205599142Y-84539200D01*
X205527714Y-84491580D01*
X204849142Y-84920152D02*
X204920571Y-84872533D01*
X204956285Y-84824914D01*
X204992000Y-84729676D01*
X204992000Y-84682057D01*
X204956285Y-84586819D01*
X204920571Y-84539200D01*
X204849142Y-84491580D01*
X204706285Y-84491580D01*
X204634857Y-84539200D01*
X204599142Y-84586819D01*
X204563428Y-84682057D01*
X204563428Y-84729676D01*
X204599142Y-84824914D01*
X204634857Y-84872533D01*
X204706285Y-84920152D01*
X204849142Y-84920152D01*
X204920571Y-84967771D01*
X204956285Y-85015390D01*
X204992000Y-85110628D01*
X204992000Y-85301104D01*
X204956285Y-85396342D01*
X204920571Y-85443961D01*
X204849142Y-85491580D01*
X204706285Y-85491580D01*
X204634857Y-85443961D01*
X204599142Y-85396342D01*
X204563428Y-85301104D01*
X204563428Y-85110628D01*
X204599142Y-85015390D01*
X204634857Y-84967771D01*
X204706285Y-84920152D01*
X192050485Y-70435742D02*
X192086200Y-70483361D01*
X192193342Y-70530980D01*
X192264771Y-70530980D01*
X192371914Y-70483361D01*
X192443342Y-70388123D01*
X192479057Y-70292885D01*
X192514771Y-70102409D01*
X192514771Y-69959552D01*
X192479057Y-69769076D01*
X192443342Y-69673838D01*
X192371914Y-69578600D01*
X192264771Y-69530980D01*
X192193342Y-69530980D01*
X192086200Y-69578600D01*
X192050485Y-69626219D01*
X191800485Y-69530980D02*
X191336200Y-69530980D01*
X191586200Y-69911933D01*
X191479057Y-69911933D01*
X191407628Y-69959552D01*
X191371914Y-70007171D01*
X191336200Y-70102409D01*
X191336200Y-70340504D01*
X191371914Y-70435742D01*
X191407628Y-70483361D01*
X191479057Y-70530980D01*
X191693342Y-70530980D01*
X191764771Y-70483361D01*
X191800485Y-70435742D01*
X190621914Y-70530980D02*
X191050485Y-70530980D01*
X190836200Y-70530980D02*
X190836200Y-69530980D01*
X190907628Y-69673838D01*
X190979057Y-69769076D01*
X191050485Y-69816695D01*
X189979057Y-69864314D02*
X189979057Y-70530980D01*
X190157628Y-69483361D02*
X190336200Y-70197647D01*
X189871914Y-70197647D01*
X192837885Y-108326180D02*
X193087885Y-107849990D01*
X193266457Y-108326180D02*
X193266457Y-107326180D01*
X192980742Y-107326180D01*
X192909314Y-107373800D01*
X192873600Y-107421419D01*
X192837885Y-107516657D01*
X192837885Y-107659514D01*
X192873600Y-107754752D01*
X192909314Y-107802371D01*
X192980742Y-107849990D01*
X193266457Y-107849990D01*
X192195028Y-107659514D02*
X192195028Y-108326180D01*
X192373600Y-107278561D02*
X192552171Y-107992847D01*
X192087885Y-107992847D01*
X191659314Y-107326180D02*
X191587885Y-107326180D01*
X191516457Y-107373800D01*
X191480742Y-107421419D01*
X191445028Y-107516657D01*
X191409314Y-107707133D01*
X191409314Y-107945228D01*
X191445028Y-108135704D01*
X191480742Y-108230942D01*
X191516457Y-108278561D01*
X191587885Y-108326180D01*
X191659314Y-108326180D01*
X191730742Y-108278561D01*
X191766457Y-108230942D01*
X191802171Y-108135704D01*
X191837885Y-107945228D01*
X191837885Y-107707133D01*
X191802171Y-107516657D01*
X191766457Y-107421419D01*
X191730742Y-107373800D01*
X191659314Y-107326180D01*
X191159314Y-107326180D02*
X190659314Y-107326180D01*
X190980742Y-108326180D01*
X205563742Y-77748314D02*
X205611361Y-77712600D01*
X205658980Y-77605457D01*
X205658980Y-77534028D01*
X205611361Y-77426885D01*
X205516123Y-77355457D01*
X205420885Y-77319742D01*
X205230409Y-77284028D01*
X205087552Y-77284028D01*
X204897076Y-77319742D01*
X204801838Y-77355457D01*
X204706600Y-77426885D01*
X204658980Y-77534028D01*
X204658980Y-77605457D01*
X204706600Y-77712600D01*
X204754219Y-77748314D01*
X204658980Y-77998314D02*
X204658980Y-78498314D01*
X205658980Y-78176885D01*
X205658980Y-79176885D02*
X205658980Y-78748314D01*
X205658980Y-78962600D02*
X204658980Y-78962600D01*
X204801838Y-78891171D01*
X204897076Y-78819742D01*
X204944695Y-78748314D01*
X204658980Y-79855457D02*
X204658980Y-79498314D01*
X205135171Y-79462600D01*
X205087552Y-79498314D01*
X205039933Y-79569742D01*
X205039933Y-79748314D01*
X205087552Y-79819742D01*
X205135171Y-79855457D01*
X205230409Y-79891171D01*
X205468504Y-79891171D01*
X205563742Y-79855457D01*
X205611361Y-79819742D01*
X205658980Y-79748314D01*
X205658980Y-79569742D01*
X205611361Y-79498314D01*
X205563742Y-79462600D01*
X206706285Y-86634580D02*
X206956285Y-86158390D01*
X207134857Y-86634580D02*
X207134857Y-85634580D01*
X206849142Y-85634580D01*
X206777714Y-85682200D01*
X206742000Y-85729819D01*
X206706285Y-85825057D01*
X206706285Y-85967914D01*
X206742000Y-86063152D01*
X206777714Y-86110771D01*
X206849142Y-86158390D01*
X207134857Y-86158390D01*
X206456285Y-85634580D02*
X205956285Y-85634580D01*
X206277714Y-86634580D01*
X205527714Y-85634580D02*
X205456285Y-85634580D01*
X205384857Y-85682200D01*
X205349142Y-85729819D01*
X205313428Y-85825057D01*
X205277714Y-86015533D01*
X205277714Y-86253628D01*
X205313428Y-86444104D01*
X205349142Y-86539342D01*
X205384857Y-86586961D01*
X205456285Y-86634580D01*
X205527714Y-86634580D01*
X205599142Y-86586961D01*
X205634857Y-86539342D01*
X205670571Y-86444104D01*
X205706285Y-86253628D01*
X205706285Y-86015533D01*
X205670571Y-85825057D01*
X205634857Y-85729819D01*
X205599142Y-85682200D01*
X205527714Y-85634580D01*
X205027714Y-85634580D02*
X204563428Y-85634580D01*
X204813428Y-86015533D01*
X204706285Y-86015533D01*
X204634857Y-86063152D01*
X204599142Y-86110771D01*
X204563428Y-86206009D01*
X204563428Y-86444104D01*
X204599142Y-86539342D01*
X204634857Y-86586961D01*
X204706285Y-86634580D01*
X204920571Y-86634580D01*
X204992000Y-86586961D01*
X205027714Y-86539342D01*
X191155580Y-73608114D02*
X190679390Y-73358114D01*
X191155580Y-73179542D02*
X190155580Y-73179542D01*
X190155580Y-73465257D01*
X190203200Y-73536685D01*
X190250819Y-73572400D01*
X190346057Y-73608114D01*
X190488914Y-73608114D01*
X190584152Y-73572400D01*
X190631771Y-73536685D01*
X190679390Y-73465257D01*
X190679390Y-73179542D01*
X190155580Y-73858114D02*
X190155580Y-74322400D01*
X190536533Y-74072400D01*
X190536533Y-74179542D01*
X190584152Y-74250971D01*
X190631771Y-74286685D01*
X190727009Y-74322400D01*
X190965104Y-74322400D01*
X191060342Y-74286685D01*
X191107961Y-74250971D01*
X191155580Y-74179542D01*
X191155580Y-73965257D01*
X191107961Y-73893828D01*
X191060342Y-73858114D01*
X190155580Y-74786685D02*
X190155580Y-74858114D01*
X190203200Y-74929542D01*
X190250819Y-74965257D01*
X190346057Y-75000971D01*
X190536533Y-75036685D01*
X190774628Y-75036685D01*
X190965104Y-75000971D01*
X191060342Y-74965257D01*
X191107961Y-74929542D01*
X191155580Y-74858114D01*
X191155580Y-74786685D01*
X191107961Y-74715257D01*
X191060342Y-74679542D01*
X190965104Y-74643828D01*
X190774628Y-74608114D01*
X190536533Y-74608114D01*
X190346057Y-74643828D01*
X190250819Y-74679542D01*
X190203200Y-74715257D01*
X190155580Y-74786685D01*
X191155580Y-75750971D02*
X191155580Y-75322400D01*
X191155580Y-75536685D02*
X190155580Y-75536685D01*
X190298438Y-75465257D01*
X190393676Y-75393828D01*
X190441295Y-75322400D01*
X209782680Y-112714285D02*
X210592204Y-112714285D01*
X210687442Y-112750000D01*
X210735061Y-112785714D01*
X210782680Y-112857142D01*
X210782680Y-113000000D01*
X210735061Y-113071428D01*
X210687442Y-113107142D01*
X210592204Y-113142857D01*
X209782680Y-113142857D01*
X210116014Y-113821428D02*
X210782680Y-113821428D01*
X209735061Y-113642857D02*
X210449347Y-113464285D01*
X210449347Y-113928571D01*
X209782680Y-114357142D02*
X209782680Y-114428571D01*
X209830300Y-114500000D01*
X209877919Y-114535714D01*
X209973157Y-114571428D01*
X210163633Y-114607142D01*
X210401728Y-114607142D01*
X210592204Y-114571428D01*
X210687442Y-114535714D01*
X210735061Y-114500000D01*
X210782680Y-114428571D01*
X210782680Y-114357142D01*
X210735061Y-114285714D01*
X210687442Y-114250000D01*
X210592204Y-114214285D01*
X210401728Y-114178571D01*
X210163633Y-114178571D01*
X209973157Y-114214285D01*
X209877919Y-114250000D01*
X209830300Y-114285714D01*
X209782680Y-114357142D01*
X209877919Y-114892857D02*
X209830300Y-114928571D01*
X209782680Y-115000000D01*
X209782680Y-115178571D01*
X209830300Y-115250000D01*
X209877919Y-115285714D01*
X209973157Y-115321428D01*
X210068395Y-115321428D01*
X210211252Y-115285714D01*
X210782680Y-114857142D01*
X210782680Y-115321428D01*
X188534514Y-115504980D02*
X188534514Y-116314504D01*
X188498800Y-116409742D01*
X188463085Y-116457361D01*
X188391657Y-116504980D01*
X188248800Y-116504980D01*
X188177371Y-116457361D01*
X188141657Y-116409742D01*
X188105942Y-116314504D01*
X188105942Y-115504980D01*
X187427371Y-115838314D02*
X187427371Y-116504980D01*
X187605942Y-115457361D02*
X187784514Y-116171647D01*
X187320228Y-116171647D01*
X186641657Y-116504980D02*
X187070228Y-116504980D01*
X186855942Y-116504980D02*
X186855942Y-115504980D01*
X186927371Y-115647838D01*
X186998800Y-115743076D01*
X187070228Y-115790695D01*
X186177371Y-115504980D02*
X186105942Y-115504980D01*
X186034514Y-115552600D01*
X185998800Y-115600219D01*
X185963085Y-115695457D01*
X185927371Y-115885933D01*
X185927371Y-116124028D01*
X185963085Y-116314504D01*
X185998800Y-116409742D01*
X186034514Y-116457361D01*
X186105942Y-116504980D01*
X186177371Y-116504980D01*
X186248800Y-116457361D01*
X186284514Y-116409742D01*
X186320228Y-116314504D01*
X186355942Y-116124028D01*
X186355942Y-115885933D01*
X186320228Y-115695457D01*
X186284514Y-115600219D01*
X186248800Y-115552600D01*
X186177371Y-115504980D01*
X193371285Y-71705742D02*
X193407000Y-71753361D01*
X193514142Y-71800980D01*
X193585571Y-71800980D01*
X193692714Y-71753361D01*
X193764142Y-71658123D01*
X193799857Y-71562885D01*
X193835571Y-71372409D01*
X193835571Y-71229552D01*
X193799857Y-71039076D01*
X193764142Y-70943838D01*
X193692714Y-70848600D01*
X193585571Y-70800980D01*
X193514142Y-70800980D01*
X193407000Y-70848600D01*
X193371285Y-70896219D01*
X193121285Y-70800980D02*
X192657000Y-70800980D01*
X192907000Y-71181933D01*
X192799857Y-71181933D01*
X192728428Y-71229552D01*
X192692714Y-71277171D01*
X192657000Y-71372409D01*
X192657000Y-71610504D01*
X192692714Y-71705742D01*
X192728428Y-71753361D01*
X192799857Y-71800980D01*
X193014142Y-71800980D01*
X193085571Y-71753361D01*
X193121285Y-71705742D01*
X191942714Y-71800980D02*
X192371285Y-71800980D01*
X192157000Y-71800980D02*
X192157000Y-70800980D01*
X192228428Y-70943838D01*
X192299857Y-71039076D01*
X192371285Y-71086695D01*
X191692714Y-70800980D02*
X191228428Y-70800980D01*
X191478428Y-71181933D01*
X191371285Y-71181933D01*
X191299857Y-71229552D01*
X191264142Y-71277171D01*
X191228428Y-71372409D01*
X191228428Y-71610504D01*
X191264142Y-71705742D01*
X191299857Y-71753361D01*
X191371285Y-71800980D01*
X191585571Y-71800980D01*
X191657000Y-71753361D01*
X191692714Y-71705742D01*
D15*
X250697085Y-85024980D02*
X250697085Y-85739266D01*
X250732800Y-85882123D01*
X250804228Y-85977361D01*
X250911371Y-86024980D01*
X250982800Y-86024980D01*
X250018514Y-85024980D02*
X250161371Y-85024980D01*
X250232800Y-85072600D01*
X250268514Y-85120219D01*
X250339942Y-85263076D01*
X250375657Y-85453552D01*
X250375657Y-85834504D01*
X250339942Y-85929742D01*
X250304228Y-85977361D01*
X250232800Y-86024980D01*
X250089942Y-86024980D01*
X250018514Y-85977361D01*
X249982800Y-85929742D01*
X249947085Y-85834504D01*
X249947085Y-85596409D01*
X249982800Y-85501171D01*
X250018514Y-85453552D01*
X250089942Y-85405933D01*
X250232800Y-85405933D01*
X250304228Y-85453552D01*
X250339942Y-85501171D01*
X250375657Y-85596409D01*
X249482800Y-85024980D02*
X249411371Y-85024980D01*
X249339942Y-85072600D01*
X249304228Y-85120219D01*
X249268514Y-85215457D01*
X249232800Y-85405933D01*
X249232800Y-85644028D01*
X249268514Y-85834504D01*
X249304228Y-85929742D01*
X249339942Y-85977361D01*
X249411371Y-86024980D01*
X249482800Y-86024980D01*
X249554228Y-85977361D01*
X249589942Y-85929742D01*
X249625657Y-85834504D01*
X249661371Y-85644028D01*
X249661371Y-85405933D01*
X249625657Y-85215457D01*
X249589942Y-85120219D01*
X249554228Y-85072600D01*
X249482800Y-85024980D01*
X248982800Y-85024980D02*
X248518514Y-85024980D01*
X248768514Y-85405933D01*
X248661371Y-85405933D01*
X248589942Y-85453552D01*
X248554228Y-85501171D01*
X248518514Y-85596409D01*
X248518514Y-85834504D01*
X248554228Y-85929742D01*
X248589942Y-85977361D01*
X248661371Y-86024980D01*
X248875657Y-86024980D01*
X248947085Y-85977361D01*
X248982800Y-85929742D01*
D10*
X200807580Y-78269857D02*
X200331390Y-78019857D01*
X200807580Y-77841285D02*
X199807580Y-77841285D01*
X199807580Y-78127000D01*
X199855200Y-78198428D01*
X199902819Y-78234142D01*
X199998057Y-78269857D01*
X200140914Y-78269857D01*
X200236152Y-78234142D01*
X200283771Y-78198428D01*
X200331390Y-78127000D01*
X200331390Y-77841285D01*
X200807580Y-78591285D02*
X199807580Y-78591285D01*
X200807580Y-79019857D01*
X199807580Y-79019857D01*
X199807580Y-79305571D02*
X199807580Y-79769857D01*
X200188533Y-79519857D01*
X200188533Y-79627000D01*
X200236152Y-79698428D01*
X200283771Y-79734142D01*
X200379009Y-79769857D01*
X200617104Y-79769857D01*
X200712342Y-79734142D01*
X200759961Y-79698428D01*
X200807580Y-79627000D01*
X200807580Y-79412714D01*
X200759961Y-79341285D01*
X200712342Y-79305571D01*
X199807580Y-80234142D02*
X199807580Y-80305571D01*
X199855200Y-80377000D01*
X199902819Y-80412714D01*
X199998057Y-80448428D01*
X200188533Y-80484142D01*
X200426628Y-80484142D01*
X200617104Y-80448428D01*
X200712342Y-80412714D01*
X200759961Y-80377000D01*
X200807580Y-80305571D01*
X200807580Y-80234142D01*
X200759961Y-80162714D01*
X200712342Y-80127000D01*
X200617104Y-80091285D01*
X200426628Y-80055571D01*
X200188533Y-80055571D01*
X199998057Y-80091285D01*
X199902819Y-80127000D01*
X199855200Y-80162714D01*
X199807580Y-80234142D01*
X199902819Y-80769857D02*
X199855200Y-80805571D01*
X199807580Y-80877000D01*
X199807580Y-81055571D01*
X199855200Y-81127000D01*
X199902819Y-81162714D01*
X199998057Y-81198428D01*
X200093295Y-81198428D01*
X200236152Y-81162714D01*
X200807580Y-80734142D01*
X200807580Y-81198428D01*
X246533942Y-129843714D02*
X246581561Y-129808000D01*
X246629180Y-129700857D01*
X246629180Y-129629428D01*
X246581561Y-129522285D01*
X246486323Y-129450857D01*
X246391085Y-129415142D01*
X246200609Y-129379428D01*
X246057752Y-129379428D01*
X245867276Y-129415142D01*
X245772038Y-129450857D01*
X245676800Y-129522285D01*
X245629180Y-129629428D01*
X245629180Y-129700857D01*
X245676800Y-129808000D01*
X245724419Y-129843714D01*
X245629180Y-130486571D02*
X245629180Y-130343714D01*
X245676800Y-130272285D01*
X245724419Y-130236571D01*
X245867276Y-130165142D01*
X246057752Y-130129428D01*
X246438704Y-130129428D01*
X246533942Y-130165142D01*
X246581561Y-130200857D01*
X246629180Y-130272285D01*
X246629180Y-130415142D01*
X246581561Y-130486571D01*
X246533942Y-130522285D01*
X246438704Y-130558000D01*
X246200609Y-130558000D01*
X246105371Y-130522285D01*
X246057752Y-130486571D01*
X246010133Y-130415142D01*
X246010133Y-130272285D01*
X246057752Y-130200857D01*
X246105371Y-130165142D01*
X246200609Y-130129428D01*
X245629180Y-131022285D02*
X245629180Y-131093714D01*
X245676800Y-131165142D01*
X245724419Y-131200857D01*
X245819657Y-131236571D01*
X246010133Y-131272285D01*
X246248228Y-131272285D01*
X246438704Y-131236571D01*
X246533942Y-131200857D01*
X246581561Y-131165142D01*
X246629180Y-131093714D01*
X246629180Y-131022285D01*
X246581561Y-130950857D01*
X246533942Y-130915142D01*
X246438704Y-130879428D01*
X246248228Y-130843714D01*
X246010133Y-130843714D01*
X245819657Y-130879428D01*
X245724419Y-130915142D01*
X245676800Y-130950857D01*
X245629180Y-131022285D01*
X245724419Y-131558000D02*
X245676800Y-131593714D01*
X245629180Y-131665142D01*
X245629180Y-131843714D01*
X245676800Y-131915142D01*
X245724419Y-131950857D01*
X245819657Y-131986571D01*
X245914895Y-131986571D01*
X246057752Y-131950857D01*
X246629180Y-131522285D01*
X246629180Y-131986571D01*
X206706285Y-88825342D02*
X206742000Y-88872961D01*
X206849142Y-88920580D01*
X206920571Y-88920580D01*
X207027714Y-88872961D01*
X207099142Y-88777723D01*
X207134857Y-88682485D01*
X207170571Y-88492009D01*
X207170571Y-88349152D01*
X207134857Y-88158676D01*
X207099142Y-88063438D01*
X207027714Y-87968200D01*
X206920571Y-87920580D01*
X206849142Y-87920580D01*
X206742000Y-87968200D01*
X206706285Y-88015819D01*
X206456285Y-87920580D02*
X205956285Y-87920580D01*
X206277714Y-88920580D01*
X205527714Y-87920580D02*
X205456285Y-87920580D01*
X205384857Y-87968200D01*
X205349142Y-88015819D01*
X205313428Y-88111057D01*
X205277714Y-88301533D01*
X205277714Y-88539628D01*
X205313428Y-88730104D01*
X205349142Y-88825342D01*
X205384857Y-88872961D01*
X205456285Y-88920580D01*
X205527714Y-88920580D01*
X205599142Y-88872961D01*
X205634857Y-88825342D01*
X205670571Y-88730104D01*
X205706285Y-88539628D01*
X205706285Y-88301533D01*
X205670571Y-88111057D01*
X205634857Y-88015819D01*
X205599142Y-87968200D01*
X205527714Y-87920580D01*
X204563428Y-88920580D02*
X204992000Y-88920580D01*
X204777714Y-88920580D02*
X204777714Y-87920580D01*
X204849142Y-88063438D01*
X204920571Y-88158676D01*
X204992000Y-88206295D01*
X195956180Y-91198457D02*
X195479990Y-90948457D01*
X195956180Y-90769885D02*
X194956180Y-90769885D01*
X194956180Y-91055600D01*
X195003800Y-91127028D01*
X195051419Y-91162742D01*
X195146657Y-91198457D01*
X195289514Y-91198457D01*
X195384752Y-91162742D01*
X195432371Y-91127028D01*
X195479990Y-91055600D01*
X195479990Y-90769885D01*
X195956180Y-91519885D02*
X194956180Y-91519885D01*
X195956180Y-91948457D01*
X194956180Y-91948457D01*
X195289514Y-92627028D02*
X195956180Y-92627028D01*
X194908561Y-92448457D02*
X195622847Y-92269885D01*
X195622847Y-92734171D01*
X194956180Y-93162742D02*
X194956180Y-93234171D01*
X195003800Y-93305600D01*
X195051419Y-93341314D01*
X195146657Y-93377028D01*
X195337133Y-93412742D01*
X195575228Y-93412742D01*
X195765704Y-93377028D01*
X195860942Y-93341314D01*
X195908561Y-93305600D01*
X195956180Y-93234171D01*
X195956180Y-93162742D01*
X195908561Y-93091314D01*
X195860942Y-93055600D01*
X195765704Y-93019885D01*
X195575228Y-92984171D01*
X195337133Y-92984171D01*
X195146657Y-93019885D01*
X195051419Y-93055600D01*
X195003800Y-93091314D01*
X194956180Y-93162742D01*
X194956180Y-93662742D02*
X194956180Y-94127028D01*
X195337133Y-93877028D01*
X195337133Y-93984171D01*
X195384752Y-94055600D01*
X195432371Y-94091314D01*
X195527609Y-94127028D01*
X195765704Y-94127028D01*
X195860942Y-94091314D01*
X195908561Y-94055600D01*
X195956180Y-93984171D01*
X195956180Y-93769885D01*
X195908561Y-93698457D01*
X195860942Y-93662742D01*
X190755542Y-119455114D02*
X190803161Y-119419400D01*
X190850780Y-119312257D01*
X190850780Y-119240828D01*
X190803161Y-119133685D01*
X190707923Y-119062257D01*
X190612685Y-119026542D01*
X190422209Y-118990828D01*
X190279352Y-118990828D01*
X190088876Y-119026542D01*
X189993638Y-119062257D01*
X189898400Y-119133685D01*
X189850780Y-119240828D01*
X189850780Y-119312257D01*
X189898400Y-119419400D01*
X189946019Y-119455114D01*
X190184114Y-120097971D02*
X190850780Y-120097971D01*
X189803161Y-119919400D02*
X190517447Y-119740828D01*
X190517447Y-120205114D01*
X189850780Y-120633685D02*
X189850780Y-120705114D01*
X189898400Y-120776542D01*
X189946019Y-120812257D01*
X190041257Y-120847971D01*
X190231733Y-120883685D01*
X190469828Y-120883685D01*
X190660304Y-120847971D01*
X190755542Y-120812257D01*
X190803161Y-120776542D01*
X190850780Y-120705114D01*
X190850780Y-120633685D01*
X190803161Y-120562257D01*
X190755542Y-120526542D01*
X190660304Y-120490828D01*
X190469828Y-120455114D01*
X190231733Y-120455114D01*
X190041257Y-120490828D01*
X189946019Y-120526542D01*
X189898400Y-120562257D01*
X189850780Y-120633685D01*
X189850780Y-121526542D02*
X189850780Y-121383685D01*
X189898400Y-121312257D01*
X189946019Y-121276542D01*
X190088876Y-121205114D01*
X190279352Y-121169400D01*
X190660304Y-121169400D01*
X190755542Y-121205114D01*
X190803161Y-121240828D01*
X190850780Y-121312257D01*
X190850780Y-121455114D01*
X190803161Y-121526542D01*
X190755542Y-121562257D01*
X190660304Y-121597971D01*
X190422209Y-121597971D01*
X190326971Y-121562257D01*
X190279352Y-121526542D01*
X190231733Y-121455114D01*
X190231733Y-121312257D01*
X190279352Y-121240828D01*
X190326971Y-121205114D01*
X190422209Y-121169400D01*
X195041780Y-69823514D02*
X194565590Y-69573514D01*
X195041780Y-69394942D02*
X194041780Y-69394942D01*
X194041780Y-69680657D01*
X194089400Y-69752085D01*
X194137019Y-69787800D01*
X194232257Y-69823514D01*
X194375114Y-69823514D01*
X194470352Y-69787800D01*
X194517971Y-69752085D01*
X194565590Y-69680657D01*
X194565590Y-69394942D01*
X194041780Y-70073514D02*
X194041780Y-70537800D01*
X194422733Y-70287800D01*
X194422733Y-70394942D01*
X194470352Y-70466371D01*
X194517971Y-70502085D01*
X194613209Y-70537800D01*
X194851304Y-70537800D01*
X194946542Y-70502085D01*
X194994161Y-70466371D01*
X195041780Y-70394942D01*
X195041780Y-70180657D01*
X194994161Y-70109228D01*
X194946542Y-70073514D01*
X194041780Y-71002085D02*
X194041780Y-71073514D01*
X194089400Y-71144942D01*
X194137019Y-71180657D01*
X194232257Y-71216371D01*
X194422733Y-71252085D01*
X194660828Y-71252085D01*
X194851304Y-71216371D01*
X194946542Y-71180657D01*
X194994161Y-71144942D01*
X195041780Y-71073514D01*
X195041780Y-71002085D01*
X194994161Y-70930657D01*
X194946542Y-70894942D01*
X194851304Y-70859228D01*
X194660828Y-70823514D01*
X194422733Y-70823514D01*
X194232257Y-70859228D01*
X194137019Y-70894942D01*
X194089400Y-70930657D01*
X194041780Y-71002085D01*
X194041780Y-71894942D02*
X194041780Y-71752085D01*
X194089400Y-71680657D01*
X194137019Y-71644942D01*
X194279876Y-71573514D01*
X194470352Y-71537800D01*
X194851304Y-71537800D01*
X194946542Y-71573514D01*
X194994161Y-71609228D01*
X195041780Y-71680657D01*
X195041780Y-71823514D01*
X194994161Y-71894942D01*
X194946542Y-71930657D01*
X194851304Y-71966371D01*
X194613209Y-71966371D01*
X194517971Y-71930657D01*
X194470352Y-71894942D01*
X194422733Y-71823514D01*
X194422733Y-71680657D01*
X194470352Y-71609228D01*
X194517971Y-71573514D01*
X194613209Y-71537800D01*
X208803714Y-79970380D02*
X208803714Y-80779904D01*
X208768000Y-80875142D01*
X208732285Y-80922761D01*
X208660857Y-80970380D01*
X208518000Y-80970380D01*
X208446571Y-80922761D01*
X208410857Y-80875142D01*
X208375142Y-80779904D01*
X208375142Y-79970380D01*
X208089428Y-79970380D02*
X207589428Y-79970380D01*
X207910857Y-80970380D01*
X207160857Y-79970380D02*
X207089428Y-79970380D01*
X207018000Y-80018000D01*
X206982285Y-80065619D01*
X206946571Y-80160857D01*
X206910857Y-80351333D01*
X206910857Y-80589428D01*
X206946571Y-80779904D01*
X206982285Y-80875142D01*
X207018000Y-80922761D01*
X207089428Y-80970380D01*
X207160857Y-80970380D01*
X207232285Y-80922761D01*
X207268000Y-80875142D01*
X207303714Y-80779904D01*
X207339428Y-80589428D01*
X207339428Y-80351333D01*
X207303714Y-80160857D01*
X207268000Y-80065619D01*
X207232285Y-80018000D01*
X207160857Y-79970380D01*
X206625142Y-80065619D02*
X206589428Y-80018000D01*
X206518000Y-79970380D01*
X206339428Y-79970380D01*
X206268000Y-80018000D01*
X206232285Y-80065619D01*
X206196571Y-80160857D01*
X206196571Y-80256095D01*
X206232285Y-80398952D01*
X206660857Y-80970380D01*
X206196571Y-80970380D01*
X209703942Y-116991314D02*
X209751561Y-116955600D01*
X209799180Y-116848457D01*
X209799180Y-116777028D01*
X209751561Y-116669885D01*
X209656323Y-116598457D01*
X209561085Y-116562742D01*
X209370609Y-116527028D01*
X209227752Y-116527028D01*
X209037276Y-116562742D01*
X208942038Y-116598457D01*
X208846800Y-116669885D01*
X208799180Y-116777028D01*
X208799180Y-116848457D01*
X208846800Y-116955600D01*
X208894419Y-116991314D01*
X209132514Y-117634171D02*
X209799180Y-117634171D01*
X208751561Y-117455600D02*
X209465847Y-117277028D01*
X209465847Y-117741314D01*
X208799180Y-118169885D02*
X208799180Y-118241314D01*
X208846800Y-118312742D01*
X208894419Y-118348457D01*
X208989657Y-118384171D01*
X209180133Y-118419885D01*
X209418228Y-118419885D01*
X209608704Y-118384171D01*
X209703942Y-118348457D01*
X209751561Y-118312742D01*
X209799180Y-118241314D01*
X209799180Y-118169885D01*
X209751561Y-118098457D01*
X209703942Y-118062742D01*
X209608704Y-118027028D01*
X209418228Y-117991314D01*
X209180133Y-117991314D01*
X208989657Y-118027028D01*
X208894419Y-118062742D01*
X208846800Y-118098457D01*
X208799180Y-118169885D01*
X208894419Y-118705600D02*
X208846800Y-118741314D01*
X208799180Y-118812742D01*
X208799180Y-118991314D01*
X208846800Y-119062742D01*
X208894419Y-119098457D01*
X208989657Y-119134171D01*
X209084895Y-119134171D01*
X209227752Y-119098457D01*
X209799180Y-118669885D01*
X209799180Y-119134171D01*
X182295285Y-80599380D02*
X182295285Y-81313666D01*
X182331000Y-81456523D01*
X182402428Y-81551761D01*
X182509571Y-81599380D01*
X182581000Y-81599380D01*
X181581000Y-80599380D02*
X181938142Y-80599380D01*
X181973857Y-81075571D01*
X181938142Y-81027952D01*
X181866714Y-80980333D01*
X181688142Y-80980333D01*
X181616714Y-81027952D01*
X181581000Y-81075571D01*
X181545285Y-81170809D01*
X181545285Y-81408904D01*
X181581000Y-81504142D01*
X181616714Y-81551761D01*
X181688142Y-81599380D01*
X181866714Y-81599380D01*
X181938142Y-81551761D01*
X181973857Y-81504142D01*
X181081000Y-80599380D02*
X181009571Y-80599380D01*
X180938142Y-80647000D01*
X180902428Y-80694619D01*
X180866714Y-80789857D01*
X180831000Y-80980333D01*
X180831000Y-81218428D01*
X180866714Y-81408904D01*
X180902428Y-81504142D01*
X180938142Y-81551761D01*
X181009571Y-81599380D01*
X181081000Y-81599380D01*
X181152428Y-81551761D01*
X181188142Y-81504142D01*
X181223857Y-81408904D01*
X181259571Y-81218428D01*
X181259571Y-80980333D01*
X181223857Y-80789857D01*
X181188142Y-80694619D01*
X181152428Y-80647000D01*
X181081000Y-80599380D01*
X180581000Y-80599380D02*
X180116714Y-80599380D01*
X180366714Y-80980333D01*
X180259571Y-80980333D01*
X180188142Y-81027952D01*
X180152428Y-81075571D01*
X180116714Y-81170809D01*
X180116714Y-81408904D01*
X180152428Y-81504142D01*
X180188142Y-81551761D01*
X180259571Y-81599380D01*
X180473857Y-81599380D01*
X180545285Y-81551761D01*
X180581000Y-81504142D01*
X241731285Y-80599380D02*
X241731285Y-81313666D01*
X241767000Y-81456523D01*
X241838428Y-81551761D01*
X241945571Y-81599380D01*
X242017000Y-81599380D01*
X241017000Y-80599380D02*
X241374142Y-80599380D01*
X241409857Y-81075571D01*
X241374142Y-81027952D01*
X241302714Y-80980333D01*
X241124142Y-80980333D01*
X241052714Y-81027952D01*
X241017000Y-81075571D01*
X240981285Y-81170809D01*
X240981285Y-81408904D01*
X241017000Y-81504142D01*
X241052714Y-81551761D01*
X241124142Y-81599380D01*
X241302714Y-81599380D01*
X241374142Y-81551761D01*
X241409857Y-81504142D01*
X240517000Y-80599380D02*
X240445571Y-80599380D01*
X240374142Y-80647000D01*
X240338428Y-80694619D01*
X240302714Y-80789857D01*
X240267000Y-80980333D01*
X240267000Y-81218428D01*
X240302714Y-81408904D01*
X240338428Y-81504142D01*
X240374142Y-81551761D01*
X240445571Y-81599380D01*
X240517000Y-81599380D01*
X240588428Y-81551761D01*
X240624142Y-81504142D01*
X240659857Y-81408904D01*
X240695571Y-81218428D01*
X240695571Y-80980333D01*
X240659857Y-80789857D01*
X240624142Y-80694619D01*
X240588428Y-80647000D01*
X240517000Y-80599380D01*
X239552714Y-81599380D02*
X239981285Y-81599380D01*
X239767000Y-81599380D02*
X239767000Y-80599380D01*
X239838428Y-80742238D01*
X239909857Y-80837476D01*
X239981285Y-80885095D01*
X246533942Y-137108114D02*
X246581561Y-137072400D01*
X246629180Y-136965257D01*
X246629180Y-136893828D01*
X246581561Y-136786685D01*
X246486323Y-136715257D01*
X246391085Y-136679542D01*
X246200609Y-136643828D01*
X246057752Y-136643828D01*
X245867276Y-136679542D01*
X245772038Y-136715257D01*
X245676800Y-136786685D01*
X245629180Y-136893828D01*
X245629180Y-136965257D01*
X245676800Y-137072400D01*
X245724419Y-137108114D01*
X245629180Y-137750971D02*
X245629180Y-137608114D01*
X245676800Y-137536685D01*
X245724419Y-137500971D01*
X245867276Y-137429542D01*
X246057752Y-137393828D01*
X246438704Y-137393828D01*
X246533942Y-137429542D01*
X246581561Y-137465257D01*
X246629180Y-137536685D01*
X246629180Y-137679542D01*
X246581561Y-137750971D01*
X246533942Y-137786685D01*
X246438704Y-137822400D01*
X246200609Y-137822400D01*
X246105371Y-137786685D01*
X246057752Y-137750971D01*
X246010133Y-137679542D01*
X246010133Y-137536685D01*
X246057752Y-137465257D01*
X246105371Y-137429542D01*
X246200609Y-137393828D01*
X245629180Y-138286685D02*
X245629180Y-138358114D01*
X245676800Y-138429542D01*
X245724419Y-138465257D01*
X245819657Y-138500971D01*
X246010133Y-138536685D01*
X246248228Y-138536685D01*
X246438704Y-138500971D01*
X246533942Y-138465257D01*
X246581561Y-138429542D01*
X246629180Y-138358114D01*
X246629180Y-138286685D01*
X246581561Y-138215257D01*
X246533942Y-138179542D01*
X246438704Y-138143828D01*
X246248228Y-138108114D01*
X246010133Y-138108114D01*
X245819657Y-138143828D01*
X245724419Y-138179542D01*
X245676800Y-138215257D01*
X245629180Y-138286685D01*
X246629180Y-139250971D02*
X246629180Y-138822400D01*
X246629180Y-139036685D02*
X245629180Y-139036685D01*
X245772038Y-138965257D01*
X245867276Y-138893828D01*
X245914895Y-138822400D01*
X219443542Y-95778580D02*
X219693542Y-95302390D01*
X219872114Y-95778580D02*
X219872114Y-94778580D01*
X219586400Y-94778580D01*
X219514971Y-94826200D01*
X219479257Y-94873819D01*
X219443542Y-94969057D01*
X219443542Y-95111914D01*
X219479257Y-95207152D01*
X219514971Y-95254771D01*
X219586400Y-95302390D01*
X219872114Y-95302390D01*
X219122114Y-95778580D02*
X219122114Y-94778580D01*
X218693542Y-95778580D01*
X218693542Y-94778580D01*
X218014971Y-95111914D02*
X218014971Y-95778580D01*
X218193542Y-94730961D02*
X218372114Y-95445247D01*
X217907828Y-95445247D01*
X217479257Y-94778580D02*
X217407828Y-94778580D01*
X217336400Y-94826200D01*
X217300685Y-94873819D01*
X217264971Y-94969057D01*
X217229257Y-95159533D01*
X217229257Y-95397628D01*
X217264971Y-95588104D01*
X217300685Y-95683342D01*
X217336400Y-95730961D01*
X217407828Y-95778580D01*
X217479257Y-95778580D01*
X217550685Y-95730961D01*
X217586400Y-95683342D01*
X217622114Y-95588104D01*
X217657828Y-95397628D01*
X217657828Y-95159533D01*
X217622114Y-94969057D01*
X217586400Y-94873819D01*
X217550685Y-94826200D01*
X217479257Y-94778580D01*
X216514971Y-95778580D02*
X216943542Y-95778580D01*
X216729257Y-95778580D02*
X216729257Y-94778580D01*
X216800685Y-94921438D01*
X216872114Y-95016676D01*
X216943542Y-95064295D01*
X189739542Y-104291314D02*
X189787161Y-104255600D01*
X189834780Y-104148457D01*
X189834780Y-104077028D01*
X189787161Y-103969885D01*
X189691923Y-103898457D01*
X189596685Y-103862742D01*
X189406209Y-103827028D01*
X189263352Y-103827028D01*
X189072876Y-103862742D01*
X188977638Y-103898457D01*
X188882400Y-103969885D01*
X188834780Y-104077028D01*
X188834780Y-104148457D01*
X188882400Y-104255600D01*
X188930019Y-104291314D01*
X189168114Y-104934171D02*
X189834780Y-104934171D01*
X188787161Y-104755600D02*
X189501447Y-104577028D01*
X189501447Y-105041314D01*
X188834780Y-105469885D02*
X188834780Y-105541314D01*
X188882400Y-105612742D01*
X188930019Y-105648457D01*
X189025257Y-105684171D01*
X189215733Y-105719885D01*
X189453828Y-105719885D01*
X189644304Y-105684171D01*
X189739542Y-105648457D01*
X189787161Y-105612742D01*
X189834780Y-105541314D01*
X189834780Y-105469885D01*
X189787161Y-105398457D01*
X189739542Y-105362742D01*
X189644304Y-105327028D01*
X189453828Y-105291314D01*
X189215733Y-105291314D01*
X189025257Y-105327028D01*
X188930019Y-105362742D01*
X188882400Y-105398457D01*
X188834780Y-105469885D01*
X189168114Y-106362742D02*
X189834780Y-106362742D01*
X188787161Y-106184171D02*
X189501447Y-106005600D01*
X189501447Y-106469885D01*
X183973790Y-76703371D02*
X184449980Y-76703371D01*
X183449980Y-76453371D02*
X183973790Y-76703371D01*
X183449980Y-76953371D01*
X183449980Y-77131942D02*
X183449980Y-77596228D01*
X183830933Y-77346228D01*
X183830933Y-77453371D01*
X183878552Y-77524800D01*
X183926171Y-77560514D01*
X184021409Y-77596228D01*
X184259504Y-77596228D01*
X184354742Y-77560514D01*
X184402361Y-77524800D01*
X184449980Y-77453371D01*
X184449980Y-77239085D01*
X184402361Y-77167657D01*
X184354742Y-77131942D01*
X183449980Y-78060514D02*
X183449980Y-78131942D01*
X183497600Y-78203371D01*
X183545219Y-78239085D01*
X183640457Y-78274800D01*
X183830933Y-78310514D01*
X184069028Y-78310514D01*
X184259504Y-78274800D01*
X184354742Y-78239085D01*
X184402361Y-78203371D01*
X184449980Y-78131942D01*
X184449980Y-78060514D01*
X184402361Y-77989085D01*
X184354742Y-77953371D01*
X184259504Y-77917657D01*
X184069028Y-77881942D01*
X183830933Y-77881942D01*
X183640457Y-77917657D01*
X183545219Y-77953371D01*
X183497600Y-77989085D01*
X183449980Y-78060514D01*
X184449980Y-79024800D02*
X184449980Y-78596228D01*
X184449980Y-78810514D02*
X183449980Y-78810514D01*
X183592838Y-78739085D01*
X183688076Y-78667657D01*
X183735695Y-78596228D01*
X209678542Y-104316714D02*
X209726161Y-104281000D01*
X209773780Y-104173857D01*
X209773780Y-104102428D01*
X209726161Y-103995285D01*
X209630923Y-103923857D01*
X209535685Y-103888142D01*
X209345209Y-103852428D01*
X209202352Y-103852428D01*
X209011876Y-103888142D01*
X208916638Y-103923857D01*
X208821400Y-103995285D01*
X208773780Y-104102428D01*
X208773780Y-104173857D01*
X208821400Y-104281000D01*
X208869019Y-104316714D01*
X209107114Y-104959571D02*
X209773780Y-104959571D01*
X208726161Y-104781000D02*
X209440447Y-104602428D01*
X209440447Y-105066714D01*
X208773780Y-105495285D02*
X208773780Y-105566714D01*
X208821400Y-105638142D01*
X208869019Y-105673857D01*
X208964257Y-105709571D01*
X209154733Y-105745285D01*
X209392828Y-105745285D01*
X209583304Y-105709571D01*
X209678542Y-105673857D01*
X209726161Y-105638142D01*
X209773780Y-105566714D01*
X209773780Y-105495285D01*
X209726161Y-105423857D01*
X209678542Y-105388142D01*
X209583304Y-105352428D01*
X209392828Y-105316714D01*
X209154733Y-105316714D01*
X208964257Y-105352428D01*
X208869019Y-105388142D01*
X208821400Y-105423857D01*
X208773780Y-105495285D01*
X209773780Y-106459571D02*
X209773780Y-106031000D01*
X209773780Y-106245285D02*
X208773780Y-106245285D01*
X208916638Y-106173857D01*
X209011876Y-106102428D01*
X209059495Y-106031000D01*
X232587285Y-80599380D02*
X232587285Y-81313666D01*
X232623000Y-81456523D01*
X232694428Y-81551761D01*
X232801571Y-81599380D01*
X232873000Y-81599380D01*
X231873000Y-80599380D02*
X232230142Y-80599380D01*
X232265857Y-81075571D01*
X232230142Y-81027952D01*
X232158714Y-80980333D01*
X231980142Y-80980333D01*
X231908714Y-81027952D01*
X231873000Y-81075571D01*
X231837285Y-81170809D01*
X231837285Y-81408904D01*
X231873000Y-81504142D01*
X231908714Y-81551761D01*
X231980142Y-81599380D01*
X232158714Y-81599380D01*
X232230142Y-81551761D01*
X232265857Y-81504142D01*
X231373000Y-80599380D02*
X231301571Y-80599380D01*
X231230142Y-80647000D01*
X231194428Y-80694619D01*
X231158714Y-80789857D01*
X231123000Y-80980333D01*
X231123000Y-81218428D01*
X231158714Y-81408904D01*
X231194428Y-81504142D01*
X231230142Y-81551761D01*
X231301571Y-81599380D01*
X231373000Y-81599380D01*
X231444428Y-81551761D01*
X231480142Y-81504142D01*
X231515857Y-81408904D01*
X231551571Y-81218428D01*
X231551571Y-80980333D01*
X231515857Y-80789857D01*
X231480142Y-80694619D01*
X231444428Y-80647000D01*
X231373000Y-80599380D01*
X230837285Y-80694619D02*
X230801571Y-80647000D01*
X230730142Y-80599380D01*
X230551571Y-80599380D01*
X230480142Y-80647000D01*
X230444428Y-80694619D01*
X230408714Y-80789857D01*
X230408714Y-80885095D01*
X230444428Y-81027952D01*
X230873000Y-81599380D01*
X230408714Y-81599380D01*
X194355980Y-92048514D02*
X193879790Y-91798514D01*
X194355980Y-91619942D02*
X193355980Y-91619942D01*
X193355980Y-91905657D01*
X193403600Y-91977085D01*
X193451219Y-92012800D01*
X193546457Y-92048514D01*
X193689314Y-92048514D01*
X193784552Y-92012800D01*
X193832171Y-91977085D01*
X193879790Y-91905657D01*
X193879790Y-91619942D01*
X193689314Y-92691371D02*
X194355980Y-92691371D01*
X193308361Y-92512800D02*
X194022647Y-92334228D01*
X194022647Y-92798514D01*
X193355980Y-93227085D02*
X193355980Y-93298514D01*
X193403600Y-93369942D01*
X193451219Y-93405657D01*
X193546457Y-93441371D01*
X193736933Y-93477085D01*
X193975028Y-93477085D01*
X194165504Y-93441371D01*
X194260742Y-93405657D01*
X194308361Y-93369942D01*
X194355980Y-93298514D01*
X194355980Y-93227085D01*
X194308361Y-93155657D01*
X194260742Y-93119942D01*
X194165504Y-93084228D01*
X193975028Y-93048514D01*
X193736933Y-93048514D01*
X193546457Y-93084228D01*
X193451219Y-93119942D01*
X193403600Y-93155657D01*
X193355980Y-93227085D01*
X193355980Y-93727085D02*
X193355980Y-94191371D01*
X193736933Y-93941371D01*
X193736933Y-94048514D01*
X193784552Y-94119942D01*
X193832171Y-94155657D01*
X193927409Y-94191371D01*
X194165504Y-94191371D01*
X194260742Y-94155657D01*
X194308361Y-94119942D01*
X194355980Y-94048514D01*
X194355980Y-93834228D01*
X194308361Y-93762800D01*
X194260742Y-93727085D01*
X218568085Y-75439542D02*
X218603800Y-75487161D01*
X218710942Y-75534780D01*
X218782371Y-75534780D01*
X218889514Y-75487161D01*
X218960942Y-75391923D01*
X218996657Y-75296685D01*
X219032371Y-75106209D01*
X219032371Y-74963352D01*
X218996657Y-74772876D01*
X218960942Y-74677638D01*
X218889514Y-74582400D01*
X218782371Y-74534780D01*
X218710942Y-74534780D01*
X218603800Y-74582400D01*
X218568085Y-74630019D01*
X218318085Y-74534780D02*
X217818085Y-74534780D01*
X218139514Y-75534780D01*
X217389514Y-74534780D02*
X217318085Y-74534780D01*
X217246657Y-74582400D01*
X217210942Y-74630019D01*
X217175228Y-74725257D01*
X217139514Y-74915733D01*
X217139514Y-75153828D01*
X217175228Y-75344304D01*
X217210942Y-75439542D01*
X217246657Y-75487161D01*
X217318085Y-75534780D01*
X217389514Y-75534780D01*
X217460942Y-75487161D01*
X217496657Y-75439542D01*
X217532371Y-75344304D01*
X217568085Y-75153828D01*
X217568085Y-74915733D01*
X217532371Y-74725257D01*
X217496657Y-74630019D01*
X217460942Y-74582400D01*
X217389514Y-74534780D01*
X216460942Y-74534780D02*
X216818085Y-74534780D01*
X216853800Y-75010971D01*
X216818085Y-74963352D01*
X216746657Y-74915733D01*
X216568085Y-74915733D01*
X216496657Y-74963352D01*
X216460942Y-75010971D01*
X216425228Y-75106209D01*
X216425228Y-75344304D01*
X216460942Y-75439542D01*
X216496657Y-75487161D01*
X216568085Y-75534780D01*
X216746657Y-75534780D01*
X216818085Y-75487161D01*
X216853800Y-75439542D01*
X208611285Y-79528942D02*
X208647000Y-79576561D01*
X208754142Y-79624180D01*
X208825571Y-79624180D01*
X208932714Y-79576561D01*
X209004142Y-79481323D01*
X209039857Y-79386085D01*
X209075571Y-79195609D01*
X209075571Y-79052752D01*
X209039857Y-78862276D01*
X209004142Y-78767038D01*
X208932714Y-78671800D01*
X208825571Y-78624180D01*
X208754142Y-78624180D01*
X208647000Y-78671800D01*
X208611285Y-78719419D01*
X208361285Y-78624180D02*
X207861285Y-78624180D01*
X208182714Y-79624180D01*
X207432714Y-78624180D02*
X207361285Y-78624180D01*
X207289857Y-78671800D01*
X207254142Y-78719419D01*
X207218428Y-78814657D01*
X207182714Y-79005133D01*
X207182714Y-79243228D01*
X207218428Y-79433704D01*
X207254142Y-79528942D01*
X207289857Y-79576561D01*
X207361285Y-79624180D01*
X207432714Y-79624180D01*
X207504142Y-79576561D01*
X207539857Y-79528942D01*
X207575571Y-79433704D01*
X207611285Y-79243228D01*
X207611285Y-79005133D01*
X207575571Y-78814657D01*
X207539857Y-78719419D01*
X207504142Y-78671800D01*
X207432714Y-78624180D01*
X206932714Y-78624180D02*
X206432714Y-78624180D01*
X206754142Y-79624180D01*
X219519742Y-108453180D02*
X219769742Y-107976990D01*
X219948314Y-108453180D02*
X219948314Y-107453180D01*
X219662600Y-107453180D01*
X219591171Y-107500800D01*
X219555457Y-107548419D01*
X219519742Y-107643657D01*
X219519742Y-107786514D01*
X219555457Y-107881752D01*
X219591171Y-107929371D01*
X219662600Y-107976990D01*
X219948314Y-107976990D01*
X219198314Y-108453180D02*
X219198314Y-107453180D01*
X218769742Y-108453180D01*
X218769742Y-107453180D01*
X218091171Y-107786514D02*
X218091171Y-108453180D01*
X218269742Y-107405561D02*
X218448314Y-108119847D01*
X217984028Y-108119847D01*
X217555457Y-107453180D02*
X217484028Y-107453180D01*
X217412600Y-107500800D01*
X217376885Y-107548419D01*
X217341171Y-107643657D01*
X217305457Y-107834133D01*
X217305457Y-108072228D01*
X217341171Y-108262704D01*
X217376885Y-108357942D01*
X217412600Y-108405561D01*
X217484028Y-108453180D01*
X217555457Y-108453180D01*
X217626885Y-108405561D01*
X217662600Y-108357942D01*
X217698314Y-108262704D01*
X217734028Y-108072228D01*
X217734028Y-107834133D01*
X217698314Y-107643657D01*
X217662600Y-107548419D01*
X217626885Y-107500800D01*
X217555457Y-107453180D01*
X217019742Y-107548419D02*
X216984028Y-107500800D01*
X216912600Y-107453180D01*
X216734028Y-107453180D01*
X216662600Y-107500800D01*
X216626885Y-107548419D01*
X216591171Y-107643657D01*
X216591171Y-107738895D01*
X216626885Y-107881752D01*
X217055457Y-108453180D01*
X216591171Y-108453180D01*
X199518085Y-74036180D02*
X199768085Y-73559990D01*
X199946657Y-74036180D02*
X199946657Y-73036180D01*
X199660942Y-73036180D01*
X199589514Y-73083800D01*
X199553800Y-73131419D01*
X199518085Y-73226657D01*
X199518085Y-73369514D01*
X199553800Y-73464752D01*
X199589514Y-73512371D01*
X199660942Y-73559990D01*
X199946657Y-73559990D01*
X199268085Y-73036180D02*
X198803800Y-73036180D01*
X199053800Y-73417133D01*
X198946657Y-73417133D01*
X198875228Y-73464752D01*
X198839514Y-73512371D01*
X198803800Y-73607609D01*
X198803800Y-73845704D01*
X198839514Y-73940942D01*
X198875228Y-73988561D01*
X198946657Y-74036180D01*
X199160942Y-74036180D01*
X199232371Y-73988561D01*
X199268085Y-73940942D01*
X198339514Y-73036180D02*
X198268085Y-73036180D01*
X198196657Y-73083800D01*
X198160942Y-73131419D01*
X198125228Y-73226657D01*
X198089514Y-73417133D01*
X198089514Y-73655228D01*
X198125228Y-73845704D01*
X198160942Y-73940942D01*
X198196657Y-73988561D01*
X198268085Y-74036180D01*
X198339514Y-74036180D01*
X198410942Y-73988561D01*
X198446657Y-73940942D01*
X198482371Y-73845704D01*
X198518085Y-73655228D01*
X198518085Y-73417133D01*
X198482371Y-73226657D01*
X198446657Y-73131419D01*
X198410942Y-73083800D01*
X198339514Y-73036180D01*
X197839514Y-73036180D02*
X197375228Y-73036180D01*
X197625228Y-73417133D01*
X197518085Y-73417133D01*
X197446657Y-73464752D01*
X197410942Y-73512371D01*
X197375228Y-73607609D01*
X197375228Y-73845704D01*
X197410942Y-73940942D01*
X197446657Y-73988561D01*
X197518085Y-74036180D01*
X197732371Y-74036180D01*
X197803800Y-73988561D01*
X197839514Y-73940942D01*
X209017685Y-90628742D02*
X209053400Y-90676361D01*
X209160542Y-90723980D01*
X209231971Y-90723980D01*
X209339114Y-90676361D01*
X209410542Y-90581123D01*
X209446257Y-90485885D01*
X209481971Y-90295409D01*
X209481971Y-90152552D01*
X209446257Y-89962076D01*
X209410542Y-89866838D01*
X209339114Y-89771600D01*
X209231971Y-89723980D01*
X209160542Y-89723980D01*
X209053400Y-89771600D01*
X209017685Y-89819219D01*
X208767685Y-89723980D02*
X208267685Y-89723980D01*
X208589114Y-90723980D01*
X207839114Y-89723980D02*
X207767685Y-89723980D01*
X207696257Y-89771600D01*
X207660542Y-89819219D01*
X207624828Y-89914457D01*
X207589114Y-90104933D01*
X207589114Y-90343028D01*
X207624828Y-90533504D01*
X207660542Y-90628742D01*
X207696257Y-90676361D01*
X207767685Y-90723980D01*
X207839114Y-90723980D01*
X207910542Y-90676361D01*
X207946257Y-90628742D01*
X207981971Y-90533504D01*
X208017685Y-90343028D01*
X208017685Y-90104933D01*
X207981971Y-89914457D01*
X207946257Y-89819219D01*
X207910542Y-89771600D01*
X207839114Y-89723980D01*
X207160542Y-90152552D02*
X207231971Y-90104933D01*
X207267685Y-90057314D01*
X207303400Y-89962076D01*
X207303400Y-89914457D01*
X207267685Y-89819219D01*
X207231971Y-89771600D01*
X207160542Y-89723980D01*
X207017685Y-89723980D01*
X206946257Y-89771600D01*
X206910542Y-89819219D01*
X206874828Y-89914457D01*
X206874828Y-89962076D01*
X206910542Y-90057314D01*
X206946257Y-90104933D01*
X207017685Y-90152552D01*
X207160542Y-90152552D01*
X207231971Y-90200171D01*
X207267685Y-90247790D01*
X207303400Y-90343028D01*
X207303400Y-90533504D01*
X207267685Y-90628742D01*
X207231971Y-90676361D01*
X207160542Y-90723980D01*
X207017685Y-90723980D01*
X206946257Y-90676361D01*
X206910542Y-90628742D01*
X206874828Y-90533504D01*
X206874828Y-90343028D01*
X206910542Y-90247790D01*
X206946257Y-90200171D01*
X207017685Y-90152552D01*
X206706285Y-87777580D02*
X206956285Y-87301390D01*
X207134857Y-87777580D02*
X207134857Y-86777580D01*
X206849142Y-86777580D01*
X206777714Y-86825200D01*
X206742000Y-86872819D01*
X206706285Y-86968057D01*
X206706285Y-87110914D01*
X206742000Y-87206152D01*
X206777714Y-87253771D01*
X206849142Y-87301390D01*
X207134857Y-87301390D01*
X206456285Y-86777580D02*
X205956285Y-86777580D01*
X206277714Y-87777580D01*
X205527714Y-86777580D02*
X205456285Y-86777580D01*
X205384857Y-86825200D01*
X205349142Y-86872819D01*
X205313428Y-86968057D01*
X205277714Y-87158533D01*
X205277714Y-87396628D01*
X205313428Y-87587104D01*
X205349142Y-87682342D01*
X205384857Y-87729961D01*
X205456285Y-87777580D01*
X205527714Y-87777580D01*
X205599142Y-87729961D01*
X205634857Y-87682342D01*
X205670571Y-87587104D01*
X205706285Y-87396628D01*
X205706285Y-87158533D01*
X205670571Y-86968057D01*
X205634857Y-86872819D01*
X205599142Y-86825200D01*
X205527714Y-86777580D01*
X204634857Y-87110914D02*
X204634857Y-87777580D01*
X204813428Y-86729961D02*
X204992000Y-87444247D01*
X204527714Y-87444247D01*
X215037485Y-75458580D02*
X215287485Y-74982390D01*
X215466057Y-75458580D02*
X215466057Y-74458580D01*
X215180342Y-74458580D01*
X215108914Y-74506200D01*
X215073200Y-74553819D01*
X215037485Y-74649057D01*
X215037485Y-74791914D01*
X215073200Y-74887152D01*
X215108914Y-74934771D01*
X215180342Y-74982390D01*
X215466057Y-74982390D01*
X214787485Y-74458580D02*
X214287485Y-74458580D01*
X214608914Y-75458580D01*
X213858914Y-74458580D02*
X213787485Y-74458580D01*
X213716057Y-74506200D01*
X213680342Y-74553819D01*
X213644628Y-74649057D01*
X213608914Y-74839533D01*
X213608914Y-75077628D01*
X213644628Y-75268104D01*
X213680342Y-75363342D01*
X213716057Y-75410961D01*
X213787485Y-75458580D01*
X213858914Y-75458580D01*
X213930342Y-75410961D01*
X213966057Y-75363342D01*
X214001771Y-75268104D01*
X214037485Y-75077628D01*
X214037485Y-74839533D01*
X214001771Y-74649057D01*
X213966057Y-74553819D01*
X213930342Y-74506200D01*
X213858914Y-74458580D01*
X212894628Y-75458580D02*
X213323200Y-75458580D01*
X213108914Y-75458580D02*
X213108914Y-74458580D01*
X213180342Y-74601438D01*
X213251771Y-74696676D01*
X213323200Y-74744295D01*
X192736742Y-75843314D02*
X192784361Y-75807600D01*
X192831980Y-75700457D01*
X192831980Y-75629028D01*
X192784361Y-75521885D01*
X192689123Y-75450457D01*
X192593885Y-75414742D01*
X192403409Y-75379028D01*
X192260552Y-75379028D01*
X192070076Y-75414742D01*
X191974838Y-75450457D01*
X191879600Y-75521885D01*
X191831980Y-75629028D01*
X191831980Y-75700457D01*
X191879600Y-75807600D01*
X191927219Y-75843314D01*
X191831980Y-76093314D02*
X191831980Y-76557600D01*
X192212933Y-76307600D01*
X192212933Y-76414742D01*
X192260552Y-76486171D01*
X192308171Y-76521885D01*
X192403409Y-76557600D01*
X192641504Y-76557600D01*
X192736742Y-76521885D01*
X192784361Y-76486171D01*
X192831980Y-76414742D01*
X192831980Y-76200457D01*
X192784361Y-76129028D01*
X192736742Y-76093314D01*
X191831980Y-77021885D02*
X191831980Y-77093314D01*
X191879600Y-77164742D01*
X191927219Y-77200457D01*
X192022457Y-77236171D01*
X192212933Y-77271885D01*
X192451028Y-77271885D01*
X192641504Y-77236171D01*
X192736742Y-77200457D01*
X192784361Y-77164742D01*
X192831980Y-77093314D01*
X192831980Y-77021885D01*
X192784361Y-76950457D01*
X192736742Y-76914742D01*
X192641504Y-76879028D01*
X192451028Y-76843314D01*
X192212933Y-76843314D01*
X192022457Y-76879028D01*
X191927219Y-76914742D01*
X191879600Y-76950457D01*
X191831980Y-77021885D01*
X191831980Y-77914742D02*
X191831980Y-77771885D01*
X191879600Y-77700457D01*
X191927219Y-77664742D01*
X192070076Y-77593314D01*
X192260552Y-77557600D01*
X192641504Y-77557600D01*
X192736742Y-77593314D01*
X192784361Y-77629028D01*
X192831980Y-77700457D01*
X192831980Y-77843314D01*
X192784361Y-77914742D01*
X192736742Y-77950457D01*
X192641504Y-77986171D01*
X192403409Y-77986171D01*
X192308171Y-77950457D01*
X192260552Y-77914742D01*
X192212933Y-77843314D01*
X192212933Y-77700457D01*
X192260552Y-77629028D01*
X192308171Y-77593314D01*
X192403409Y-77557600D01*
X194006742Y-83056914D02*
X194054361Y-83021200D01*
X194101980Y-82914057D01*
X194101980Y-82842628D01*
X194054361Y-82735485D01*
X193959123Y-82664057D01*
X193863885Y-82628342D01*
X193673409Y-82592628D01*
X193530552Y-82592628D01*
X193340076Y-82628342D01*
X193244838Y-82664057D01*
X193149600Y-82735485D01*
X193101980Y-82842628D01*
X193101980Y-82914057D01*
X193149600Y-83021200D01*
X193197219Y-83056914D01*
X193101980Y-83306914D02*
X193101980Y-83771200D01*
X193482933Y-83521200D01*
X193482933Y-83628342D01*
X193530552Y-83699771D01*
X193578171Y-83735485D01*
X193673409Y-83771200D01*
X193911504Y-83771200D01*
X194006742Y-83735485D01*
X194054361Y-83699771D01*
X194101980Y-83628342D01*
X194101980Y-83414057D01*
X194054361Y-83342628D01*
X194006742Y-83306914D01*
X193101980Y-84235485D02*
X193101980Y-84306914D01*
X193149600Y-84378342D01*
X193197219Y-84414057D01*
X193292457Y-84449771D01*
X193482933Y-84485485D01*
X193721028Y-84485485D01*
X193911504Y-84449771D01*
X194006742Y-84414057D01*
X194054361Y-84378342D01*
X194101980Y-84306914D01*
X194101980Y-84235485D01*
X194054361Y-84164057D01*
X194006742Y-84128342D01*
X193911504Y-84092628D01*
X193721028Y-84056914D01*
X193482933Y-84056914D01*
X193292457Y-84092628D01*
X193197219Y-84128342D01*
X193149600Y-84164057D01*
X193101980Y-84235485D01*
X193101980Y-84735485D02*
X193101980Y-85199771D01*
X193482933Y-84949771D01*
X193482933Y-85056914D01*
X193530552Y-85128342D01*
X193578171Y-85164057D01*
X193673409Y-85199771D01*
X193911504Y-85199771D01*
X194006742Y-85164057D01*
X194054361Y-85128342D01*
X194101980Y-85056914D01*
X194101980Y-84842628D01*
X194054361Y-84771200D01*
X194006742Y-84735485D01*
X196521342Y-69518714D02*
X196568961Y-69483000D01*
X196616580Y-69375857D01*
X196616580Y-69304428D01*
X196568961Y-69197285D01*
X196473723Y-69125857D01*
X196378485Y-69090142D01*
X196188009Y-69054428D01*
X196045152Y-69054428D01*
X195854676Y-69090142D01*
X195759438Y-69125857D01*
X195664200Y-69197285D01*
X195616580Y-69304428D01*
X195616580Y-69375857D01*
X195664200Y-69483000D01*
X195711819Y-69518714D01*
X195616580Y-69768714D02*
X195616580Y-70233000D01*
X195997533Y-69983000D01*
X195997533Y-70090142D01*
X196045152Y-70161571D01*
X196092771Y-70197285D01*
X196188009Y-70233000D01*
X196426104Y-70233000D01*
X196521342Y-70197285D01*
X196568961Y-70161571D01*
X196616580Y-70090142D01*
X196616580Y-69875857D01*
X196568961Y-69804428D01*
X196521342Y-69768714D01*
X195616580Y-70697285D02*
X195616580Y-70768714D01*
X195664200Y-70840142D01*
X195711819Y-70875857D01*
X195807057Y-70911571D01*
X195997533Y-70947285D01*
X196235628Y-70947285D01*
X196426104Y-70911571D01*
X196521342Y-70875857D01*
X196568961Y-70840142D01*
X196616580Y-70768714D01*
X196616580Y-70697285D01*
X196568961Y-70625857D01*
X196521342Y-70590142D01*
X196426104Y-70554428D01*
X196235628Y-70518714D01*
X195997533Y-70518714D01*
X195807057Y-70554428D01*
X195711819Y-70590142D01*
X195664200Y-70625857D01*
X195616580Y-70697285D01*
X195949914Y-71590142D02*
X196616580Y-71590142D01*
X195568961Y-71411571D02*
X196283247Y-71233000D01*
X196283247Y-71697285D01*
X215926485Y-93016342D02*
X215962200Y-93063961D01*
X216069342Y-93111580D01*
X216140771Y-93111580D01*
X216247914Y-93063961D01*
X216319342Y-92968723D01*
X216355057Y-92873485D01*
X216390771Y-92683009D01*
X216390771Y-92540152D01*
X216355057Y-92349676D01*
X216319342Y-92254438D01*
X216247914Y-92159200D01*
X216140771Y-92111580D01*
X216069342Y-92111580D01*
X215962200Y-92159200D01*
X215926485Y-92206819D01*
X215676485Y-92111580D02*
X215176485Y-92111580D01*
X215497914Y-93111580D01*
X214747914Y-92111580D02*
X214676485Y-92111580D01*
X214605057Y-92159200D01*
X214569342Y-92206819D01*
X214533628Y-92302057D01*
X214497914Y-92492533D01*
X214497914Y-92730628D01*
X214533628Y-92921104D01*
X214569342Y-93016342D01*
X214605057Y-93063961D01*
X214676485Y-93111580D01*
X214747914Y-93111580D01*
X214819342Y-93063961D01*
X214855057Y-93016342D01*
X214890771Y-92921104D01*
X214926485Y-92730628D01*
X214926485Y-92492533D01*
X214890771Y-92302057D01*
X214855057Y-92206819D01*
X214819342Y-92159200D01*
X214747914Y-92111580D01*
X213855057Y-92444914D02*
X213855057Y-93111580D01*
X214033628Y-92063961D02*
X214212200Y-92778247D01*
X213747914Y-92778247D01*
X199504542Y-108326180D02*
X199754542Y-107849990D01*
X199933114Y-108326180D02*
X199933114Y-107326180D01*
X199647400Y-107326180D01*
X199575971Y-107373800D01*
X199540257Y-107421419D01*
X199504542Y-107516657D01*
X199504542Y-107659514D01*
X199540257Y-107754752D01*
X199575971Y-107802371D01*
X199647400Y-107849990D01*
X199933114Y-107849990D01*
X199183114Y-108326180D02*
X199183114Y-107326180D01*
X198754542Y-108326180D01*
X198754542Y-107326180D01*
X198075971Y-107659514D02*
X198075971Y-108326180D01*
X198254542Y-107278561D02*
X198433114Y-107992847D01*
X197968828Y-107992847D01*
X197540257Y-107326180D02*
X197468828Y-107326180D01*
X197397400Y-107373800D01*
X197361685Y-107421419D01*
X197325971Y-107516657D01*
X197290257Y-107707133D01*
X197290257Y-107945228D01*
X197325971Y-108135704D01*
X197361685Y-108230942D01*
X197397400Y-108278561D01*
X197468828Y-108326180D01*
X197540257Y-108326180D01*
X197611685Y-108278561D01*
X197647400Y-108230942D01*
X197683114Y-108135704D01*
X197718828Y-107945228D01*
X197718828Y-107707133D01*
X197683114Y-107516657D01*
X197647400Y-107421419D01*
X197611685Y-107373800D01*
X197540257Y-107326180D01*
X197040257Y-107326180D02*
X196540257Y-107326180D01*
X196861685Y-108326180D01*
X173151285Y-80599380D02*
X173151285Y-81313666D01*
X173187000Y-81456523D01*
X173258428Y-81551761D01*
X173365571Y-81599380D01*
X173437000Y-81599380D01*
X172437000Y-80599380D02*
X172794142Y-80599380D01*
X172829857Y-81075571D01*
X172794142Y-81027952D01*
X172722714Y-80980333D01*
X172544142Y-80980333D01*
X172472714Y-81027952D01*
X172437000Y-81075571D01*
X172401285Y-81170809D01*
X172401285Y-81408904D01*
X172437000Y-81504142D01*
X172472714Y-81551761D01*
X172544142Y-81599380D01*
X172722714Y-81599380D01*
X172794142Y-81551761D01*
X172829857Y-81504142D01*
X171937000Y-80599380D02*
X171865571Y-80599380D01*
X171794142Y-80647000D01*
X171758428Y-80694619D01*
X171722714Y-80789857D01*
X171687000Y-80980333D01*
X171687000Y-81218428D01*
X171722714Y-81408904D01*
X171758428Y-81504142D01*
X171794142Y-81551761D01*
X171865571Y-81599380D01*
X171937000Y-81599380D01*
X172008428Y-81551761D01*
X172044142Y-81504142D01*
X172079857Y-81408904D01*
X172115571Y-81218428D01*
X172115571Y-80980333D01*
X172079857Y-80789857D01*
X172044142Y-80694619D01*
X172008428Y-80647000D01*
X171937000Y-80599380D01*
X171044142Y-80932714D02*
X171044142Y-81599380D01*
X171222714Y-80551761D02*
X171401285Y-81266047D01*
X170937000Y-81266047D01*
X212827685Y-108478580D02*
X213077685Y-108002390D01*
X213256257Y-108478580D02*
X213256257Y-107478580D01*
X212970542Y-107478580D01*
X212899114Y-107526200D01*
X212863400Y-107573819D01*
X212827685Y-107669057D01*
X212827685Y-107811914D01*
X212863400Y-107907152D01*
X212899114Y-107954771D01*
X212970542Y-108002390D01*
X213256257Y-108002390D01*
X212184828Y-107811914D02*
X212184828Y-108478580D01*
X212363400Y-107430961D02*
X212541971Y-108145247D01*
X212077685Y-108145247D01*
X211649114Y-107478580D02*
X211577685Y-107478580D01*
X211506257Y-107526200D01*
X211470542Y-107573819D01*
X211434828Y-107669057D01*
X211399114Y-107859533D01*
X211399114Y-108097628D01*
X211434828Y-108288104D01*
X211470542Y-108383342D01*
X211506257Y-108430961D01*
X211577685Y-108478580D01*
X211649114Y-108478580D01*
X211720542Y-108430961D01*
X211756257Y-108383342D01*
X211791971Y-108288104D01*
X211827685Y-108097628D01*
X211827685Y-107859533D01*
X211791971Y-107669057D01*
X211756257Y-107573819D01*
X211720542Y-107526200D01*
X211649114Y-107478580D01*
X211113400Y-107573819D02*
X211077685Y-107526200D01*
X211006257Y-107478580D01*
X210827685Y-107478580D01*
X210756257Y-107526200D01*
X210720542Y-107573819D01*
X210684828Y-107669057D01*
X210684828Y-107764295D01*
X210720542Y-107907152D01*
X211149114Y-108478580D01*
X210684828Y-108478580D01*
X195981580Y-80796314D02*
X195505390Y-80546314D01*
X195981580Y-80367742D02*
X194981580Y-80367742D01*
X194981580Y-80653457D01*
X195029200Y-80724885D01*
X195076819Y-80760600D01*
X195172057Y-80796314D01*
X195314914Y-80796314D01*
X195410152Y-80760600D01*
X195457771Y-80724885D01*
X195505390Y-80653457D01*
X195505390Y-80367742D01*
X194981580Y-81046314D02*
X194981580Y-81510600D01*
X195362533Y-81260600D01*
X195362533Y-81367742D01*
X195410152Y-81439171D01*
X195457771Y-81474885D01*
X195553009Y-81510600D01*
X195791104Y-81510600D01*
X195886342Y-81474885D01*
X195933961Y-81439171D01*
X195981580Y-81367742D01*
X195981580Y-81153457D01*
X195933961Y-81082028D01*
X195886342Y-81046314D01*
X194981580Y-81974885D02*
X194981580Y-82046314D01*
X195029200Y-82117742D01*
X195076819Y-82153457D01*
X195172057Y-82189171D01*
X195362533Y-82224885D01*
X195600628Y-82224885D01*
X195791104Y-82189171D01*
X195886342Y-82153457D01*
X195933961Y-82117742D01*
X195981580Y-82046314D01*
X195981580Y-81974885D01*
X195933961Y-81903457D01*
X195886342Y-81867742D01*
X195791104Y-81832028D01*
X195600628Y-81796314D01*
X195362533Y-81796314D01*
X195172057Y-81832028D01*
X195076819Y-81867742D01*
X195029200Y-81903457D01*
X194981580Y-81974885D01*
X194981580Y-82903457D02*
X194981580Y-82546314D01*
X195457771Y-82510600D01*
X195410152Y-82546314D01*
X195362533Y-82617742D01*
X195362533Y-82796314D01*
X195410152Y-82867742D01*
X195457771Y-82903457D01*
X195553009Y-82939171D01*
X195791104Y-82939171D01*
X195886342Y-82903457D01*
X195933961Y-82867742D01*
X195981580Y-82796314D01*
X195981580Y-82617742D01*
X195933961Y-82546314D01*
X195886342Y-82510600D01*
X201956485Y-72645542D02*
X201992200Y-72693161D01*
X202099342Y-72740780D01*
X202170771Y-72740780D01*
X202277914Y-72693161D01*
X202349342Y-72597923D01*
X202385057Y-72502685D01*
X202420771Y-72312209D01*
X202420771Y-72169352D01*
X202385057Y-71978876D01*
X202349342Y-71883638D01*
X202277914Y-71788400D01*
X202170771Y-71740780D01*
X202099342Y-71740780D01*
X201992200Y-71788400D01*
X201956485Y-71836019D01*
X201706485Y-71740780D02*
X201242200Y-71740780D01*
X201492200Y-72121733D01*
X201385057Y-72121733D01*
X201313628Y-72169352D01*
X201277914Y-72216971D01*
X201242200Y-72312209D01*
X201242200Y-72550304D01*
X201277914Y-72645542D01*
X201313628Y-72693161D01*
X201385057Y-72740780D01*
X201599342Y-72740780D01*
X201670771Y-72693161D01*
X201706485Y-72645542D01*
X200777914Y-71740780D02*
X200706485Y-71740780D01*
X200635057Y-71788400D01*
X200599342Y-71836019D01*
X200563628Y-71931257D01*
X200527914Y-72121733D01*
X200527914Y-72359828D01*
X200563628Y-72550304D01*
X200599342Y-72645542D01*
X200635057Y-72693161D01*
X200706485Y-72740780D01*
X200777914Y-72740780D01*
X200849342Y-72693161D01*
X200885057Y-72645542D01*
X200920771Y-72550304D01*
X200956485Y-72359828D01*
X200956485Y-72121733D01*
X200920771Y-71931257D01*
X200885057Y-71836019D01*
X200849342Y-71788400D01*
X200777914Y-71740780D01*
X200099342Y-72169352D02*
X200170771Y-72121733D01*
X200206485Y-72074114D01*
X200242200Y-71978876D01*
X200242200Y-71931257D01*
X200206485Y-71836019D01*
X200170771Y-71788400D01*
X200099342Y-71740780D01*
X199956485Y-71740780D01*
X199885057Y-71788400D01*
X199849342Y-71836019D01*
X199813628Y-71931257D01*
X199813628Y-71978876D01*
X199849342Y-72074114D01*
X199885057Y-72121733D01*
X199956485Y-72169352D01*
X200099342Y-72169352D01*
X200170771Y-72216971D01*
X200206485Y-72264590D01*
X200242200Y-72359828D01*
X200242200Y-72550304D01*
X200206485Y-72645542D01*
X200170771Y-72693161D01*
X200099342Y-72740780D01*
X199956485Y-72740780D01*
X199885057Y-72693161D01*
X199849342Y-72645542D01*
X199813628Y-72550304D01*
X199813628Y-72359828D01*
X199849342Y-72264590D01*
X199885057Y-72216971D01*
X199956485Y-72169352D01*
X197394580Y-76057285D02*
X198204104Y-76057285D01*
X198299342Y-76093000D01*
X198346961Y-76128714D01*
X198394580Y-76200142D01*
X198394580Y-76343000D01*
X198346961Y-76414428D01*
X198299342Y-76450142D01*
X198204104Y-76485857D01*
X197394580Y-76485857D01*
X197394580Y-76771571D02*
X197394580Y-77235857D01*
X197775533Y-76985857D01*
X197775533Y-77093000D01*
X197823152Y-77164428D01*
X197870771Y-77200142D01*
X197966009Y-77235857D01*
X198204104Y-77235857D01*
X198299342Y-77200142D01*
X198346961Y-77164428D01*
X198394580Y-77093000D01*
X198394580Y-76878714D01*
X198346961Y-76807285D01*
X198299342Y-76771571D01*
X197394580Y-77700142D02*
X197394580Y-77771571D01*
X197442200Y-77843000D01*
X197489819Y-77878714D01*
X197585057Y-77914428D01*
X197775533Y-77950142D01*
X198013628Y-77950142D01*
X198204104Y-77914428D01*
X198299342Y-77878714D01*
X198346961Y-77843000D01*
X198394580Y-77771571D01*
X198394580Y-77700142D01*
X198346961Y-77628714D01*
X198299342Y-77593000D01*
X198204104Y-77557285D01*
X198013628Y-77521571D01*
X197775533Y-77521571D01*
X197585057Y-77557285D01*
X197489819Y-77593000D01*
X197442200Y-77628714D01*
X197394580Y-77700142D01*
X197489819Y-78235857D02*
X197442200Y-78271571D01*
X197394580Y-78343000D01*
X197394580Y-78521571D01*
X197442200Y-78593000D01*
X197489819Y-78628714D01*
X197585057Y-78664428D01*
X197680295Y-78664428D01*
X197823152Y-78628714D01*
X198394580Y-78200142D01*
X198394580Y-78664428D01*
X189780180Y-112714285D02*
X190589704Y-112714285D01*
X190684942Y-112750000D01*
X190732561Y-112785714D01*
X190780180Y-112857142D01*
X190780180Y-113000000D01*
X190732561Y-113071428D01*
X190684942Y-113107142D01*
X190589704Y-113142857D01*
X189780180Y-113142857D01*
X190113514Y-113821428D02*
X190780180Y-113821428D01*
X189732561Y-113642857D02*
X190446847Y-113464285D01*
X190446847Y-113928571D01*
X189780180Y-114357142D02*
X189780180Y-114428571D01*
X189827800Y-114500000D01*
X189875419Y-114535714D01*
X189970657Y-114571428D01*
X190161133Y-114607142D01*
X190399228Y-114607142D01*
X190589704Y-114571428D01*
X190684942Y-114535714D01*
X190732561Y-114500000D01*
X190780180Y-114428571D01*
X190780180Y-114357142D01*
X190732561Y-114285714D01*
X190684942Y-114250000D01*
X190589704Y-114214285D01*
X190399228Y-114178571D01*
X190161133Y-114178571D01*
X189970657Y-114214285D01*
X189875419Y-114250000D01*
X189827800Y-114285714D01*
X189780180Y-114357142D01*
X189780180Y-114857142D02*
X189780180Y-115357142D01*
X190780180Y-115035714D01*
D16*
X244577000Y-68364000D02*
X168504000Y-68364000D01*
X168504000Y-68364000D02*
X168504000Y-144310000D01*
X168504000Y-144310000D02*
X244577000Y-144310000D01*
X244577000Y-144310000D02*
X244577000Y-68364000D01*
D10*
X174987000Y-140627000D02*
G75*
G03*
X174987000Y-140627000I-2800000J0D01*
G01*
X243567000Y-140627000D02*
G75*
G03*
X243567000Y-140627000I-2800000J0D01*
G01*
D16*
X221441800Y-80117200D02*
X221441800Y-79167200D01*
X212171800Y-79167200D02*
X212171800Y-77827200D01*
X211221800Y-88437200D02*
X211221800Y-89387200D01*
X211221800Y-80117200D02*
X211221800Y-79167200D01*
X221441800Y-89387200D02*
X220491800Y-89387200D01*
X211221800Y-89387200D02*
X212171800Y-89387200D01*
X221441800Y-88437200D02*
X221441800Y-89387200D01*
X211221800Y-79167200D02*
X212171800Y-79167200D01*
X221441800Y-79167200D02*
X220491800Y-79167200D01*
X222548564Y-88692400D02*
X222764236Y-88692400D01*
X222548564Y-89412400D02*
X222764236Y-89412400D01*
D10*
X221825000Y-104175000D02*
X221825000Y-98425000D01*
X211175000Y-98425000D02*
X211825000Y-98425000D01*
X221825000Y-104175000D02*
X221250000Y-104175000D01*
X221250000Y-104175000D02*
X221250000Y-105775000D01*
X211175000Y-104175000D02*
X211175000Y-98425000D01*
X211175000Y-104175000D02*
X211825000Y-104175000D01*
X221825000Y-98425000D02*
X221175000Y-98425000D01*
D16*
X194178600Y-79140164D02*
X194178600Y-79355836D01*
X194898600Y-79140164D02*
X194898600Y-79355836D01*
X199053564Y-81605800D02*
X199269236Y-81605800D01*
X199053564Y-82325800D02*
X199269236Y-82325800D01*
X213520000Y-95171359D02*
X213520000Y-95478641D01*
X214280000Y-95171359D02*
X214280000Y-95478641D01*
D10*
X201827500Y-98425000D02*
X201177500Y-98425000D01*
X201827500Y-104175000D02*
X201252500Y-104175000D01*
X191177500Y-98425000D02*
X191827500Y-98425000D01*
X201827500Y-104175000D02*
X201827500Y-98425000D01*
X191177500Y-104175000D02*
X191177500Y-98425000D01*
X201252500Y-104175000D02*
X201252500Y-105775000D01*
X191177500Y-104175000D02*
X191827500Y-104175000D01*
D16*
X191926400Y-79850200D02*
X192426400Y-79850200D01*
X191926400Y-78290200D02*
X192426400Y-78290200D01*
X218745800Y-76658441D02*
X218745800Y-76351159D01*
X219505800Y-76658441D02*
X219505800Y-76351159D01*
X197001400Y-79427041D02*
X197001400Y-79119759D01*
X196241400Y-79427041D02*
X196241400Y-79119759D01*
X203734400Y-82167759D02*
X203734400Y-82475041D01*
X204494400Y-82167759D02*
X204494400Y-82475041D01*
X218459164Y-91181600D02*
X218674836Y-91181600D01*
X218459164Y-91901600D02*
X218674836Y-91901600D01*
X208050159Y-84684600D02*
X208357441Y-84684600D01*
X208050159Y-85444600D02*
X208357441Y-85444600D01*
X192462036Y-73994600D02*
X192246364Y-73994600D01*
X192462036Y-73274600D02*
X192246364Y-73274600D01*
X194280000Y-107740559D02*
X194280000Y-108047841D01*
X193520000Y-107740559D02*
X193520000Y-108047841D01*
X205314436Y-80107200D02*
X205098764Y-80107200D01*
X205314436Y-80827200D02*
X205098764Y-80827200D01*
X208357441Y-86460600D02*
X208050159Y-86460600D01*
X208357441Y-85700600D02*
X208050159Y-85700600D01*
X192225959Y-74473800D02*
X192533241Y-74473800D01*
X192225959Y-75233800D02*
X192533241Y-75233800D01*
D10*
X221827500Y-116875000D02*
X221252500Y-116875000D01*
X221827500Y-111125000D02*
X221177500Y-111125000D01*
X221827500Y-116875000D02*
X221827500Y-111125000D01*
X211177500Y-116875000D02*
X211827500Y-116875000D01*
X211177500Y-111125000D02*
X211827500Y-111125000D01*
X221252500Y-116875000D02*
X221252500Y-118475000D01*
X211177500Y-116875000D02*
X211177500Y-111125000D01*
D16*
X187948800Y-119168400D02*
X186048800Y-119168400D01*
X186548800Y-116848400D02*
X187948800Y-116848400D01*
X192462036Y-72030000D02*
X192246364Y-72030000D01*
X192462036Y-72750000D02*
X192246364Y-72750000D01*
X249941500Y-137338000D02*
X249941500Y-134738000D01*
X251211500Y-137338000D02*
X252541500Y-137338000D01*
X247341500Y-137338000D02*
X247341500Y-86418000D01*
X252541500Y-137338000D02*
X252541500Y-136008000D01*
X249941500Y-134738000D02*
X252541500Y-134738000D01*
X247341500Y-86418000D02*
X252541500Y-86418000D01*
X252541500Y-134738000D02*
X252541500Y-86418000D01*
X247341500Y-137338000D02*
X249941500Y-137338000D01*
X199487030Y-80531242D02*
X199487030Y-80031242D01*
X197927030Y-80531242D02*
X197927030Y-80031242D01*
X245816800Y-133102236D02*
X245816800Y-132886564D01*
X246536800Y-133102236D02*
X246536800Y-132886564D01*
X208311636Y-87778000D02*
X208095964Y-87778000D01*
X208311636Y-88498000D02*
X208095964Y-88498000D01*
X194722500Y-95025400D02*
X194722500Y-95525400D01*
X196282500Y-95025400D02*
X196282500Y-95525400D01*
X190760000Y-117932836D02*
X190760000Y-117717164D01*
X190040000Y-117932836D02*
X190040000Y-117717164D01*
X194969400Y-73254841D02*
X194969400Y-72947559D01*
X194209400Y-73254841D02*
X194209400Y-72947559D01*
X206832200Y-81218600D02*
X206032200Y-81218600D01*
X206832200Y-84338600D02*
X206032200Y-84338600D01*
X206832200Y-81218600D02*
X208632200Y-81218600D01*
X206832200Y-84338600D02*
X207632200Y-84338600D01*
X210042500Y-117937836D02*
X210042500Y-117722164D01*
X210762500Y-117937836D02*
X210762500Y-117722164D01*
X181331000Y-84747000D02*
X181331000Y-82147000D01*
X178731000Y-82147000D02*
X178731000Y-133067000D01*
X183931000Y-83477000D02*
X183931000Y-82147000D01*
X183931000Y-84747000D02*
X181331000Y-84747000D01*
X183931000Y-84747000D02*
X183931000Y-133067000D01*
X183931000Y-82147000D02*
X182601000Y-82147000D01*
X183931000Y-133067000D02*
X178731000Y-133067000D01*
X181331000Y-82147000D02*
X178731000Y-82147000D01*
X238167000Y-82147000D02*
X238167000Y-133067000D01*
X243367000Y-83477000D02*
X243367000Y-82147000D01*
X240767000Y-82147000D02*
X238167000Y-82147000D01*
X240767000Y-84747000D02*
X240767000Y-82147000D01*
X243367000Y-82147000D02*
X242037000Y-82147000D01*
X243367000Y-84747000D02*
X243367000Y-133067000D01*
X243367000Y-84747000D02*
X240767000Y-84747000D01*
X243367000Y-133067000D02*
X238167000Y-133067000D01*
X246536800Y-135642236D02*
X246536800Y-135426564D01*
X245816800Y-135642236D02*
X245816800Y-135426564D01*
X216280000Y-95075000D02*
X216280000Y-95575000D01*
X214720000Y-95075000D02*
X214720000Y-95575000D01*
X190042500Y-105022764D02*
X190042500Y-105238436D01*
X190762500Y-105022764D02*
X190762500Y-105238436D01*
X184775000Y-83700200D02*
X184775000Y-71100200D01*
X184775000Y-71100200D02*
X189875000Y-71100200D01*
X189875000Y-71100200D02*
X189875000Y-83700200D01*
X210760000Y-105232836D02*
X210760000Y-105017164D01*
X210040000Y-105232836D02*
X210040000Y-105017164D01*
X229023000Y-82147000D02*
X229023000Y-133067000D01*
X234223000Y-84747000D02*
X234223000Y-133067000D01*
X234223000Y-83477000D02*
X234223000Y-82147000D01*
X234223000Y-133067000D02*
X229023000Y-133067000D01*
X234223000Y-84747000D02*
X231623000Y-84747000D01*
X234223000Y-82147000D02*
X232893000Y-82147000D01*
X231623000Y-84747000D02*
X231623000Y-82147000D01*
X231623000Y-82147000D02*
X229023000Y-82147000D01*
X193522500Y-95126759D02*
X193522500Y-95434041D01*
X194282500Y-95126759D02*
X194282500Y-95434041D01*
X218393600Y-76638036D02*
X218393600Y-76422364D01*
X217673600Y-76638036D02*
X217673600Y-76422364D01*
X210191236Y-79218200D02*
X209975564Y-79218200D01*
X210191236Y-79938200D02*
X209975564Y-79938200D01*
X216282500Y-107750000D02*
X216282500Y-108250000D01*
X214722500Y-107750000D02*
X214722500Y-108250000D01*
X196419441Y-73203800D02*
X196112159Y-73203800D01*
X196419441Y-73963800D02*
X196112159Y-73963800D01*
X208311636Y-88794000D02*
X208095964Y-88794000D01*
X208311636Y-89514000D02*
X208095964Y-89514000D01*
X208357441Y-86742000D02*
X208050159Y-86742000D01*
X208357441Y-87502000D02*
X208050159Y-87502000D01*
X214707200Y-76658441D02*
X214707200Y-76351159D01*
X215467200Y-76658441D02*
X215467200Y-76351159D01*
X191596600Y-77196836D02*
X191596600Y-76981164D01*
X190876600Y-77196836D02*
X190876600Y-76981164D01*
X193541764Y-81605800D02*
X193757436Y-81605800D01*
X193541764Y-82325800D02*
X193757436Y-82325800D01*
X196056364Y-72648400D02*
X196272036Y-72648400D01*
X196056364Y-71928400D02*
X196272036Y-71928400D01*
X215195036Y-91156200D02*
X214979364Y-91156200D01*
X215195036Y-91876200D02*
X214979364Y-91876200D01*
X194720000Y-107649200D02*
X194720000Y-108149200D01*
X196280000Y-107649200D02*
X196280000Y-108149200D01*
X169587000Y-82147000D02*
X169587000Y-133067000D01*
X174787000Y-84747000D02*
X174787000Y-133067000D01*
X172187000Y-82147000D02*
X169587000Y-82147000D01*
X174787000Y-133067000D02*
X169587000Y-133067000D01*
X174787000Y-82147000D02*
X173457000Y-82147000D01*
X174787000Y-83477000D02*
X174787000Y-82147000D01*
X174787000Y-84747000D02*
X172187000Y-84747000D01*
X172187000Y-84747000D02*
X172187000Y-82147000D01*
X213522500Y-107871359D02*
X213522500Y-108178641D01*
X214282500Y-107871359D02*
X214282500Y-108178641D01*
X195934600Y-79427041D02*
X195934600Y-79119759D01*
X195174600Y-79427041D02*
X195174600Y-79119759D01*
X198812036Y-71928400D02*
X198596364Y-71928400D01*
X198812036Y-72648400D02*
X198596364Y-72648400D01*
X197114600Y-76200000D02*
X197114600Y-75400000D01*
X197114600Y-76200000D02*
X197114600Y-77000000D01*
X193994600Y-76200000D02*
X193994600Y-77000000D01*
X193994600Y-76200000D02*
X193994600Y-74400000D01*
D10*
X201825000Y-111125000D02*
X201175000Y-111125000D01*
X191175000Y-116875000D02*
X191175000Y-111125000D01*
X201825000Y-116875000D02*
X201250000Y-116875000D01*
X191175000Y-111125000D02*
X191825000Y-111125000D01*
X191175000Y-116875000D02*
X191825000Y-116875000D01*
X201250000Y-116875000D02*
X201250000Y-118475000D01*
X201825000Y-116875000D02*
X201825000Y-111125000D01*
%LPC*%
D17*
X256620000Y-134696200D03*
X256620000Y-89000000D03*
D18*
X206552800Y-115575000D03*
D19*
X206552800Y-113035000D03*
D18*
X253959600Y-82931000D03*
D19*
X251419600Y-82931000D03*
X248879600Y-82931000D03*
D18*
X248640600Y-139847400D03*
D19*
X248640600Y-142387400D03*
D18*
X203073000Y-87218600D03*
D19*
X203073000Y-89758600D03*
X200533000Y-87218600D03*
X200533000Y-89758600D03*
X197993000Y-87218600D03*
X197993000Y-89758600D03*
X195453000Y-87218600D03*
X195453000Y-89758600D03*
X192913000Y-87218600D03*
X192913000Y-89758600D03*
X190373000Y-87218600D03*
X190373000Y-89758600D03*
D20*
X179115200Y-72983400D03*
X173335200Y-72983400D03*
D21*
X180545200Y-69333400D03*
X171905200Y-69333400D03*
D22*
X180545200Y-73513400D03*
X171905200Y-73513400D03*
D17*
X172186439Y-140630000D03*
D18*
X195254800Y-127208200D03*
D19*
X192714800Y-127208200D03*
X195254800Y-124668200D03*
X192714800Y-124668200D03*
D18*
X225958400Y-124968000D03*
D19*
X225958400Y-127508000D03*
X225958400Y-130048000D03*
X225958400Y-132588000D03*
X225958400Y-135128000D03*
X225958400Y-137668000D03*
D18*
X225806000Y-79197200D03*
D19*
X228346000Y-79197200D03*
X230886000Y-79197200D03*
X233426000Y-79197200D03*
D20*
X219221800Y-73261600D03*
X213441800Y-73261600D03*
D22*
X220651800Y-73791600D03*
D21*
X212011800Y-69611600D03*
D22*
X212011800Y-73791600D03*
D21*
X220651800Y-69611600D03*
D23*
X256700894Y-127807500D03*
X256700894Y-95803500D03*
D18*
X238191200Y-79191000D03*
D19*
X240731200Y-79191000D03*
X243271200Y-79191000D03*
X245811200Y-79191000D03*
D17*
X240766165Y-140630000D03*
D18*
X207391000Y-124968000D03*
D19*
X207391000Y-127508000D03*
X207391000Y-130048000D03*
X207391000Y-132588000D03*
X207391000Y-135128000D03*
X207391000Y-137668000D03*
D18*
X209047000Y-96880600D03*
D19*
X206507000Y-96880600D03*
X209047000Y-94340600D03*
X206507000Y-94340600D03*
D24*
X212581800Y-78602200D03*
X213081800Y-78602200D03*
X213581800Y-78602200D03*
X214081800Y-78602200D03*
X214581800Y-78602200D03*
X215081800Y-78602200D03*
X215581800Y-78602200D03*
X216081800Y-78602200D03*
X216581800Y-78602200D03*
X217081800Y-78602200D03*
X217581800Y-78602200D03*
X218081800Y-78602200D03*
X218581800Y-78602200D03*
X219081800Y-78602200D03*
X219581800Y-78602200D03*
X220081800Y-78602200D03*
D25*
X222006800Y-80527200D03*
X222006800Y-81027200D03*
X222006800Y-81527200D03*
X222006800Y-82027200D03*
X222006800Y-82527200D03*
X222006800Y-83027200D03*
X222006800Y-83527200D03*
X222006800Y-84027200D03*
X222006800Y-84527200D03*
X222006800Y-85027200D03*
X222006800Y-85527200D03*
X222006800Y-86027200D03*
X222006800Y-86527200D03*
X222006800Y-87027200D03*
X222006800Y-87527200D03*
X222006800Y-88027200D03*
D24*
X220081800Y-89952200D03*
X219581800Y-89952200D03*
X219081800Y-89952200D03*
X218581800Y-89952200D03*
X218081800Y-89952200D03*
X217581800Y-89952200D03*
X217081800Y-89952200D03*
X216581800Y-89952200D03*
X216081800Y-89952200D03*
X215581800Y-89952200D03*
X215081800Y-89952200D03*
X214581800Y-89952200D03*
X214081800Y-89952200D03*
X213581800Y-89952200D03*
X213081800Y-89952200D03*
X212581800Y-89952200D03*
D25*
X210656800Y-88027200D03*
X210656800Y-87527200D03*
X210656800Y-87027200D03*
X210656800Y-86527200D03*
X210656800Y-86027200D03*
X210656800Y-85527200D03*
X210656800Y-85027200D03*
X210656800Y-84527200D03*
X210656800Y-84027200D03*
X210656800Y-83527200D03*
X210656800Y-83027200D03*
X210656800Y-82527200D03*
X210656800Y-82027200D03*
X210656800Y-81527200D03*
X210656800Y-81027200D03*
X210656800Y-80527200D03*
D26*
X222176400Y-89052400D03*
X223136400Y-89052400D03*
D27*
X220725000Y-104900000D03*
X220075000Y-104900000D03*
X219425000Y-104900000D03*
X218775000Y-104900000D03*
X218125000Y-104900000D03*
X217475000Y-104900000D03*
X216825000Y-104900000D03*
X216175000Y-104900000D03*
X215525000Y-104900000D03*
X214875000Y-104900000D03*
X214225000Y-104900000D03*
X213575000Y-104900000D03*
X212925000Y-104900000D03*
X212275000Y-104900000D03*
X212275000Y-97700000D03*
X212925000Y-97700000D03*
X213575000Y-97700000D03*
X214225000Y-97700000D03*
X214875000Y-97700000D03*
X215525000Y-97700000D03*
X216175000Y-97700000D03*
X216825000Y-97700000D03*
X217475000Y-97700000D03*
X218125000Y-97700000D03*
X218775000Y-97700000D03*
X219425000Y-97700000D03*
X220075000Y-97700000D03*
X220725000Y-97700000D03*
D28*
X194538600Y-78768000D03*
X194538600Y-79728000D03*
D26*
X198681400Y-81965800D03*
X199641400Y-81965800D03*
D29*
X213900000Y-94815000D03*
X213900000Y-95835000D03*
D27*
X200727500Y-104900000D03*
X200077500Y-104900000D03*
X199427500Y-104900000D03*
X198777500Y-104900000D03*
X198127500Y-104900000D03*
X197477500Y-104900000D03*
X196827500Y-104900000D03*
X196177500Y-104900000D03*
X195527500Y-104900000D03*
X194877500Y-104900000D03*
X194227500Y-104900000D03*
X193577500Y-104900000D03*
X192927500Y-104900000D03*
X192277500Y-104900000D03*
X192277500Y-97700000D03*
X192927500Y-97700000D03*
X193577500Y-97700000D03*
X194227500Y-97700000D03*
X194877500Y-97700000D03*
X195527500Y-97700000D03*
X196177500Y-97700000D03*
X196827500Y-97700000D03*
X197477500Y-97700000D03*
X198127500Y-97700000D03*
X198777500Y-97700000D03*
X199427500Y-97700000D03*
X200077500Y-97700000D03*
X200727500Y-97700000D03*
D30*
X192676400Y-78720200D03*
X192676400Y-79420200D03*
X191676400Y-79420200D03*
X191676400Y-78720200D03*
D31*
X219125800Y-75994800D03*
X219125800Y-77014800D03*
X196621400Y-79783400D03*
X196621400Y-78763400D03*
D29*
X204114400Y-81811400D03*
X204114400Y-82831400D03*
D26*
X218087000Y-91541600D03*
X219047000Y-91541600D03*
D32*
X207693800Y-85064600D03*
X208713800Y-85064600D03*
D33*
X192834200Y-73634600D03*
X191874200Y-73634600D03*
D29*
X193900000Y-108404200D03*
X193900000Y-107384200D03*
D33*
X205686600Y-80467200D03*
X204726600Y-80467200D03*
D34*
X208713800Y-86080600D03*
X207693800Y-86080600D03*
D32*
X191869600Y-74853800D03*
X192889600Y-74853800D03*
D27*
X220727500Y-117600000D03*
X220077500Y-117600000D03*
X219427500Y-117600000D03*
X218777500Y-117600000D03*
X218127500Y-117600000D03*
X217477500Y-117600000D03*
X216827500Y-117600000D03*
X216177500Y-117600000D03*
X215527500Y-117600000D03*
X214877500Y-117600000D03*
X214227500Y-117600000D03*
X213577500Y-117600000D03*
X212927500Y-117600000D03*
X212277500Y-117600000D03*
X212277500Y-110400000D03*
X212927500Y-110400000D03*
X213577500Y-110400000D03*
X214227500Y-110400000D03*
X214877500Y-110400000D03*
X215527500Y-110400000D03*
X216177500Y-110400000D03*
X216827500Y-110400000D03*
X217477500Y-110400000D03*
X218127500Y-110400000D03*
X218777500Y-110400000D03*
X219427500Y-110400000D03*
X220077500Y-110400000D03*
X220727500Y-110400000D03*
D35*
X186298800Y-118658400D03*
X186298800Y-118008400D03*
X186298800Y-117358400D03*
X188198800Y-117358400D03*
X188198800Y-118008400D03*
X188198800Y-118658400D03*
D33*
X192834200Y-72390000D03*
X191874200Y-72390000D03*
D18*
X251211500Y-136008000D03*
D19*
X248671500Y-136008000D03*
X251211500Y-133468000D03*
X248671500Y-133468000D03*
X251211500Y-130928000D03*
X248671500Y-130928000D03*
X251211500Y-128388000D03*
X248671500Y-128388000D03*
X251211500Y-125848000D03*
X248671500Y-125848000D03*
X251211500Y-123308000D03*
X248671500Y-123308000D03*
X251211500Y-120768000D03*
X248671500Y-120768000D03*
X251211500Y-118228000D03*
X248671500Y-118228000D03*
X251211500Y-115688000D03*
X248671500Y-115688000D03*
X251211500Y-113148000D03*
X248671500Y-113148000D03*
X251211500Y-110608000D03*
X248671500Y-110608000D03*
X251211500Y-108068000D03*
X248671500Y-108068000D03*
X251211500Y-105528000D03*
X248671500Y-105528000D03*
X251211500Y-102988000D03*
X248671500Y-102988000D03*
X251211500Y-100448000D03*
X248671500Y-100448000D03*
X251211500Y-97908000D03*
X248671500Y-97908000D03*
X251211500Y-95368000D03*
X248671500Y-95368000D03*
X251211500Y-92828000D03*
X248671500Y-92828000D03*
X251211500Y-90288000D03*
X248671500Y-90288000D03*
X251211500Y-87748000D03*
X248671500Y-87748000D03*
D36*
X198357030Y-79781242D03*
X199057030Y-79781242D03*
X199057030Y-80781242D03*
X198357030Y-80781242D03*
D37*
X246176800Y-133474400D03*
X246176800Y-132514400D03*
D33*
X208683800Y-88138000D03*
X207723800Y-88138000D03*
D36*
X195852500Y-95775400D03*
X195152500Y-95775400D03*
X195152500Y-94775400D03*
X195852500Y-94775400D03*
D37*
X190400000Y-118305000D03*
X190400000Y-117345000D03*
D31*
X194589400Y-73611200D03*
X194589400Y-72591200D03*
D38*
X207969700Y-81828600D03*
X207969700Y-82778600D03*
X207969700Y-83728600D03*
X205694700Y-83728600D03*
X205694700Y-82778600D03*
X205694700Y-81828600D03*
D37*
X210402500Y-118310000D03*
X210402500Y-117350000D03*
D18*
X182601000Y-83477000D03*
D19*
X180061000Y-83477000D03*
X182601000Y-86017000D03*
X180061000Y-86017000D03*
X182601000Y-88557000D03*
X180061000Y-88557000D03*
X182601000Y-91097000D03*
X180061000Y-91097000D03*
X182601000Y-93637000D03*
X180061000Y-93637000D03*
X182601000Y-96177000D03*
X180061000Y-96177000D03*
X182601000Y-98717000D03*
X180061000Y-98717000D03*
X182601000Y-101257000D03*
X180061000Y-101257000D03*
X182601000Y-103797000D03*
X180061000Y-103797000D03*
X182601000Y-106337000D03*
X180061000Y-106337000D03*
X182601000Y-108877000D03*
X180061000Y-108877000D03*
X182601000Y-111417000D03*
X180061000Y-111417000D03*
X182601000Y-113957000D03*
X180061000Y-113957000D03*
X182601000Y-116497000D03*
X180061000Y-116497000D03*
X182601000Y-119037000D03*
X180061000Y-119037000D03*
X182601000Y-121577000D03*
X180061000Y-121577000D03*
X182601000Y-124117000D03*
X180061000Y-124117000D03*
X182601000Y-126657000D03*
X180061000Y-126657000D03*
X182601000Y-129197000D03*
X180061000Y-129197000D03*
X182601000Y-131737000D03*
X180061000Y-131737000D03*
D18*
X242037000Y-83477000D03*
D19*
X239497000Y-83477000D03*
X242037000Y-86017000D03*
X239497000Y-86017000D03*
X242037000Y-88557000D03*
X239497000Y-88557000D03*
X242037000Y-91097000D03*
X239497000Y-91097000D03*
X242037000Y-93637000D03*
X239497000Y-93637000D03*
X242037000Y-96177000D03*
X239497000Y-96177000D03*
X242037000Y-98717000D03*
X239497000Y-98717000D03*
X242037000Y-101257000D03*
X239497000Y-101257000D03*
X242037000Y-103797000D03*
X239497000Y-103797000D03*
X242037000Y-106337000D03*
X239497000Y-106337000D03*
X242037000Y-108877000D03*
X239497000Y-108877000D03*
X242037000Y-111417000D03*
X239497000Y-111417000D03*
X242037000Y-113957000D03*
X239497000Y-113957000D03*
X242037000Y-116497000D03*
X239497000Y-116497000D03*
X242037000Y-119037000D03*
X239497000Y-119037000D03*
X242037000Y-121577000D03*
X239497000Y-121577000D03*
X242037000Y-124117000D03*
X239497000Y-124117000D03*
X242037000Y-126657000D03*
X239497000Y-126657000D03*
X242037000Y-129197000D03*
X239497000Y-129197000D03*
X242037000Y-131737000D03*
X239497000Y-131737000D03*
D37*
X246176800Y-136014400D03*
X246176800Y-135054400D03*
D36*
X215850000Y-95825000D03*
X215150000Y-95825000D03*
X215150000Y-94825000D03*
X215850000Y-94825000D03*
D28*
X190402500Y-104650600D03*
X190402500Y-105610600D03*
D39*
X187325000Y-73550200D03*
X187325000Y-82050200D03*
D37*
X210400000Y-105605000D03*
X210400000Y-104645000D03*
D18*
X232893000Y-83477000D03*
D19*
X230353000Y-83477000D03*
X232893000Y-86017000D03*
X230353000Y-86017000D03*
X232893000Y-88557000D03*
X230353000Y-88557000D03*
X232893000Y-91097000D03*
X230353000Y-91097000D03*
X232893000Y-93637000D03*
X230353000Y-93637000D03*
X232893000Y-96177000D03*
X230353000Y-96177000D03*
X232893000Y-98717000D03*
X230353000Y-98717000D03*
X232893000Y-101257000D03*
X230353000Y-101257000D03*
X232893000Y-103797000D03*
X230353000Y-103797000D03*
X232893000Y-106337000D03*
X230353000Y-106337000D03*
X232893000Y-108877000D03*
X230353000Y-108877000D03*
X232893000Y-111417000D03*
X230353000Y-111417000D03*
X232893000Y-113957000D03*
X230353000Y-113957000D03*
X232893000Y-116497000D03*
X230353000Y-116497000D03*
X232893000Y-119037000D03*
X230353000Y-119037000D03*
X232893000Y-121577000D03*
X230353000Y-121577000D03*
X232893000Y-124117000D03*
X230353000Y-124117000D03*
X232893000Y-126657000D03*
X230353000Y-126657000D03*
X232893000Y-129197000D03*
X230353000Y-129197000D03*
X232893000Y-131737000D03*
X230353000Y-131737000D03*
D29*
X193902500Y-94770400D03*
X193902500Y-95790400D03*
D37*
X218033600Y-77010200D03*
X218033600Y-76050200D03*
D33*
X210563400Y-79578200D03*
X209603400Y-79578200D03*
D36*
X215852500Y-108500000D03*
X215152500Y-108500000D03*
X215152500Y-107500000D03*
X215852500Y-107500000D03*
D34*
X196775800Y-73583800D03*
X195755800Y-73583800D03*
D33*
X208683800Y-89154000D03*
X207723800Y-89154000D03*
D34*
X208713800Y-87122000D03*
X207693800Y-87122000D03*
D31*
X215087200Y-77014800D03*
X215087200Y-75994800D03*
D37*
X191236600Y-77569000D03*
X191236600Y-76609000D03*
D26*
X193169600Y-81965800D03*
X194129600Y-81965800D03*
X195684200Y-72288400D03*
X196644200Y-72288400D03*
D33*
X215567200Y-91516200D03*
X214607200Y-91516200D03*
D36*
X195850000Y-108399200D03*
X195150000Y-108399200D03*
X195150000Y-107399200D03*
X195850000Y-107399200D03*
D18*
X173457000Y-83477000D03*
D19*
X170917000Y-83477000D03*
X173457000Y-86017000D03*
X170917000Y-86017000D03*
X173457000Y-88557000D03*
X170917000Y-88557000D03*
X173457000Y-91097000D03*
X170917000Y-91097000D03*
X173457000Y-93637000D03*
X170917000Y-93637000D03*
X173457000Y-96177000D03*
X170917000Y-96177000D03*
X173457000Y-98717000D03*
X170917000Y-98717000D03*
X173457000Y-101257000D03*
X170917000Y-101257000D03*
X173457000Y-103797000D03*
X170917000Y-103797000D03*
X173457000Y-106337000D03*
X170917000Y-106337000D03*
X173457000Y-108877000D03*
X170917000Y-108877000D03*
X173457000Y-111417000D03*
X170917000Y-111417000D03*
X173457000Y-113957000D03*
X170917000Y-113957000D03*
X173457000Y-116497000D03*
X170917000Y-116497000D03*
X173457000Y-119037000D03*
X170917000Y-119037000D03*
X173457000Y-121577000D03*
X170917000Y-121577000D03*
X173457000Y-124117000D03*
X170917000Y-124117000D03*
X173457000Y-126657000D03*
X170917000Y-126657000D03*
X173457000Y-129197000D03*
X170917000Y-129197000D03*
X173457000Y-131737000D03*
X170917000Y-131737000D03*
D29*
X213902500Y-107515000D03*
X213902500Y-108535000D03*
D31*
X195554600Y-79783400D03*
X195554600Y-78763400D03*
D33*
X199184200Y-72288400D03*
X198224200Y-72288400D03*
D40*
X194604600Y-75062500D03*
X195554600Y-75062500D03*
X196504600Y-75062500D03*
X196504600Y-77337500D03*
X195554600Y-77337500D03*
X194604600Y-77337500D03*
D27*
X200725000Y-117600000D03*
X200075000Y-117600000D03*
X199425000Y-117600000D03*
X198775000Y-117600000D03*
X198125000Y-117600000D03*
X197475000Y-117600000D03*
X196825000Y-117600000D03*
X196175000Y-117600000D03*
X195525000Y-117600000D03*
X194875000Y-117600000D03*
X194225000Y-117600000D03*
X193575000Y-117600000D03*
X192925000Y-117600000D03*
X192275000Y-117600000D03*
X192275000Y-110400000D03*
X192925000Y-110400000D03*
X193575000Y-110400000D03*
X194225000Y-110400000D03*
X194875000Y-110400000D03*
X195525000Y-110400000D03*
X196175000Y-110400000D03*
X196825000Y-110400000D03*
X197475000Y-110400000D03*
X198125000Y-110400000D03*
X198775000Y-110400000D03*
X199425000Y-110400000D03*
X200075000Y-110400000D03*
X200725000Y-110400000D03*
M02*
