%TF.GenerationSoftware,KiCad,Pcbnew,(6.0.7)*%
%TF.CreationDate,2023-08-04T00:04:35+07:00*%
%TF.ProjectId,ECELab_v1,4543454c-6162-45f7-9631-2e6b69636164,rev?*%
%TF.SameCoordinates,Original*%
%TF.FileFunction,Drillmap*%
%TF.FilePolarity,Positive*%
%FSLAX45Y45*%
G04 Gerber Fmt 4.5, Leading zero omitted, Abs format (unit mm)*
G04 Created by KiCad (PCBNEW (6.0.7)) date 2023-08-04 00:04:35*
%MOMM*%
%LPD*%
G01*
G04 APERTURE LIST*
%ADD10C,0.100000*%
%ADD11C,0.200000*%
%ADD12C,0.065000*%
%ADD13C,0.350000*%
%ADD14C,0.430000*%
G04 APERTURE END LIST*
D10*
X16835965Y-14445000D02*
X16836035Y-6822000D01*
X25973680Y-14445000D02*
X16835965Y-14445000D01*
X16836035Y-6822000D02*
X24800000Y-6822000D01*
X24800360Y-8041640D02*
X25974040Y-8041640D01*
X24800000Y-6822000D02*
X24800360Y-8041640D01*
X25974040Y-8041640D02*
X25973680Y-14445000D01*
D11*
D12*
X17301020Y-7265840D02*
X17366020Y-7330840D01*
X17366020Y-7265840D02*
X17301020Y-7330840D01*
X17879020Y-7265840D02*
X17944020Y-7330840D01*
X17944020Y-7265840D02*
X17879020Y-7330840D01*
X21311680Y-7293660D02*
X21376680Y-7358660D01*
X21376680Y-7293660D02*
X21311680Y-7358660D01*
X21889680Y-7293660D02*
X21954680Y-7358660D01*
X21954680Y-7293660D02*
X21889680Y-7358660D01*
D13*
X17393644Y-14063000D02*
G75*
G03*
X17393644Y-14063000I-175000J0D01*
G01*
X24251616Y-14063000D02*
G75*
G03*
X24251616Y-14063000I-175000J0D01*
G01*
X25837000Y-8900000D02*
G75*
G03*
X25837000Y-8900000I-175000J0D01*
G01*
X25837000Y-13469620D02*
G75*
G03*
X25837000Y-13469620I-175000J0D01*
G01*
D14*
X25670089Y-9365350D02*
X25670089Y-9795350D01*
X25455089Y-9580350D02*
X25885089Y-9580350D01*
X25670089Y-12565750D02*
X25670089Y-12995750D01*
X25455089Y-12780750D02*
X25885089Y-12780750D01*
D11*
X17088584Y-14760476D02*
X17088584Y-14560476D01*
X17136203Y-14560476D01*
X17164775Y-14570000D01*
X17183822Y-14589048D01*
X17193346Y-14608095D01*
X17202870Y-14646190D01*
X17202870Y-14674762D01*
X17193346Y-14712857D01*
X17183822Y-14731905D01*
X17164775Y-14750952D01*
X17136203Y-14760476D01*
X17088584Y-14760476D01*
X17288584Y-14760476D02*
X17288584Y-14627143D01*
X17288584Y-14665238D02*
X17298108Y-14646190D01*
X17307632Y-14636667D01*
X17326679Y-14627143D01*
X17345727Y-14627143D01*
X17412394Y-14760476D02*
X17412394Y-14627143D01*
X17412394Y-14560476D02*
X17402870Y-14570000D01*
X17412394Y-14579524D01*
X17421917Y-14570000D01*
X17412394Y-14560476D01*
X17412394Y-14579524D01*
X17536203Y-14760476D02*
X17517155Y-14750952D01*
X17507632Y-14731905D01*
X17507632Y-14560476D01*
X17640965Y-14760476D02*
X17621917Y-14750952D01*
X17612394Y-14731905D01*
X17612394Y-14560476D01*
X17869536Y-14760476D02*
X17869536Y-14560476D01*
X17936203Y-14703333D01*
X18002870Y-14560476D01*
X18002870Y-14760476D01*
X18183822Y-14760476D02*
X18183822Y-14655714D01*
X18174298Y-14636667D01*
X18155251Y-14627143D01*
X18117155Y-14627143D01*
X18098108Y-14636667D01*
X18183822Y-14750952D02*
X18164775Y-14760476D01*
X18117155Y-14760476D01*
X18098108Y-14750952D01*
X18088584Y-14731905D01*
X18088584Y-14712857D01*
X18098108Y-14693809D01*
X18117155Y-14684286D01*
X18164775Y-14684286D01*
X18183822Y-14674762D01*
X18279060Y-14627143D02*
X18279060Y-14827143D01*
X18279060Y-14636667D02*
X18298108Y-14627143D01*
X18336203Y-14627143D01*
X18355251Y-14636667D01*
X18364775Y-14646190D01*
X18374298Y-14665238D01*
X18374298Y-14722381D01*
X18364775Y-14741428D01*
X18355251Y-14750952D01*
X18336203Y-14760476D01*
X18298108Y-14760476D01*
X18279060Y-14750952D01*
X18460013Y-14741428D02*
X18469536Y-14750952D01*
X18460013Y-14760476D01*
X18450489Y-14750952D01*
X18460013Y-14741428D01*
X18460013Y-14760476D01*
X18460013Y-14636667D02*
X18469536Y-14646190D01*
X18460013Y-14655714D01*
X18450489Y-14646190D01*
X18460013Y-14636667D01*
X18460013Y-14655714D01*
D12*
X16765965Y-15057500D02*
X16830965Y-15122500D01*
X16830965Y-15057500D02*
X16765965Y-15122500D01*
D11*
X17126679Y-14980476D02*
X17145727Y-14980476D01*
X17164775Y-14990000D01*
X17174298Y-14999524D01*
X17183822Y-15018571D01*
X17193346Y-15056667D01*
X17193346Y-15104286D01*
X17183822Y-15142381D01*
X17174298Y-15161428D01*
X17164775Y-15170952D01*
X17145727Y-15180476D01*
X17126679Y-15180476D01*
X17107632Y-15170952D01*
X17098108Y-15161428D01*
X17088584Y-15142381D01*
X17079060Y-15104286D01*
X17079060Y-15056667D01*
X17088584Y-15018571D01*
X17098108Y-14999524D01*
X17107632Y-14990000D01*
X17126679Y-14980476D01*
X17279060Y-15161428D02*
X17288584Y-15170952D01*
X17279060Y-15180476D01*
X17269536Y-15170952D01*
X17279060Y-15161428D01*
X17279060Y-15180476D01*
X17460013Y-14980476D02*
X17421917Y-14980476D01*
X17402870Y-14990000D01*
X17393346Y-14999524D01*
X17374298Y-15028095D01*
X17364775Y-15066190D01*
X17364775Y-15142381D01*
X17374298Y-15161428D01*
X17383822Y-15170952D01*
X17402870Y-15180476D01*
X17440965Y-15180476D01*
X17460013Y-15170952D01*
X17469536Y-15161428D01*
X17479060Y-15142381D01*
X17479060Y-15094762D01*
X17469536Y-15075714D01*
X17460013Y-15066190D01*
X17440965Y-15056667D01*
X17402870Y-15056667D01*
X17383822Y-15066190D01*
X17374298Y-15075714D01*
X17364775Y-15094762D01*
X17660013Y-14980476D02*
X17564775Y-14980476D01*
X17555251Y-15075714D01*
X17564775Y-15066190D01*
X17583822Y-15056667D01*
X17631441Y-15056667D01*
X17650489Y-15066190D01*
X17660013Y-15075714D01*
X17669536Y-15094762D01*
X17669536Y-15142381D01*
X17660013Y-15161428D01*
X17650489Y-15170952D01*
X17631441Y-15180476D01*
X17583822Y-15180476D01*
X17564775Y-15170952D01*
X17555251Y-15161428D01*
X17793346Y-14980476D02*
X17812394Y-14980476D01*
X17831441Y-14990000D01*
X17840965Y-14999524D01*
X17850489Y-15018571D01*
X17860013Y-15056667D01*
X17860013Y-15104286D01*
X17850489Y-15142381D01*
X17840965Y-15161428D01*
X17831441Y-15170952D01*
X17812394Y-15180476D01*
X17793346Y-15180476D01*
X17774298Y-15170952D01*
X17764775Y-15161428D01*
X17755251Y-15142381D01*
X17745727Y-15104286D01*
X17745727Y-15056667D01*
X17755251Y-15018571D01*
X17764775Y-14999524D01*
X17774298Y-14990000D01*
X17793346Y-14980476D01*
X17945727Y-15180476D02*
X17945727Y-15047143D01*
X17945727Y-15066190D02*
X17955251Y-15056667D01*
X17974298Y-15047143D01*
X18002870Y-15047143D01*
X18021917Y-15056667D01*
X18031441Y-15075714D01*
X18031441Y-15180476D01*
X18031441Y-15075714D02*
X18040965Y-15056667D01*
X18060013Y-15047143D01*
X18088584Y-15047143D01*
X18107632Y-15056667D01*
X18117155Y-15075714D01*
X18117155Y-15180476D01*
X18212394Y-15180476D02*
X18212394Y-15047143D01*
X18212394Y-15066190D02*
X18221917Y-15056667D01*
X18240965Y-15047143D01*
X18269536Y-15047143D01*
X18288584Y-15056667D01*
X18298108Y-15075714D01*
X18298108Y-15180476D01*
X18298108Y-15075714D02*
X18307632Y-15056667D01*
X18326679Y-15047143D01*
X18355251Y-15047143D01*
X18374298Y-15056667D01*
X18383822Y-15075714D01*
X18383822Y-15180476D01*
X18774298Y-14970952D02*
X18602870Y-15228095D01*
X19031441Y-14980476D02*
X19050489Y-14980476D01*
X19069536Y-14990000D01*
X19079060Y-14999524D01*
X19088584Y-15018571D01*
X19098108Y-15056667D01*
X19098108Y-15104286D01*
X19088584Y-15142381D01*
X19079060Y-15161428D01*
X19069536Y-15170952D01*
X19050489Y-15180476D01*
X19031441Y-15180476D01*
X19012394Y-15170952D01*
X19002870Y-15161428D01*
X18993346Y-15142381D01*
X18983822Y-15104286D01*
X18983822Y-15056667D01*
X18993346Y-15018571D01*
X19002870Y-14999524D01*
X19012394Y-14990000D01*
X19031441Y-14980476D01*
X19183822Y-15161428D02*
X19193346Y-15170952D01*
X19183822Y-15180476D01*
X19174298Y-15170952D01*
X19183822Y-15161428D01*
X19183822Y-15180476D01*
X19317155Y-14980476D02*
X19336203Y-14980476D01*
X19355251Y-14990000D01*
X19364775Y-14999524D01*
X19374298Y-15018571D01*
X19383822Y-15056667D01*
X19383822Y-15104286D01*
X19374298Y-15142381D01*
X19364775Y-15161428D01*
X19355251Y-15170952D01*
X19336203Y-15180476D01*
X19317155Y-15180476D01*
X19298108Y-15170952D01*
X19288584Y-15161428D01*
X19279060Y-15142381D01*
X19269536Y-15104286D01*
X19269536Y-15056667D01*
X19279060Y-15018571D01*
X19288584Y-14999524D01*
X19298108Y-14990000D01*
X19317155Y-14980476D01*
X19460013Y-14999524D02*
X19469536Y-14990000D01*
X19488584Y-14980476D01*
X19536203Y-14980476D01*
X19555251Y-14990000D01*
X19564775Y-14999524D01*
X19574298Y-15018571D01*
X19574298Y-15037619D01*
X19564775Y-15066190D01*
X19450489Y-15180476D01*
X19574298Y-15180476D01*
X19755251Y-14980476D02*
X19660013Y-14980476D01*
X19650489Y-15075714D01*
X19660013Y-15066190D01*
X19679060Y-15056667D01*
X19726679Y-15056667D01*
X19745727Y-15066190D01*
X19755251Y-15075714D01*
X19764775Y-15094762D01*
X19764775Y-15142381D01*
X19755251Y-15161428D01*
X19745727Y-15170952D01*
X19726679Y-15180476D01*
X19679060Y-15180476D01*
X19660013Y-15170952D01*
X19650489Y-15161428D01*
X19936203Y-14980476D02*
X19898108Y-14980476D01*
X19879060Y-14990000D01*
X19869536Y-14999524D01*
X19850489Y-15028095D01*
X19840965Y-15066190D01*
X19840965Y-15142381D01*
X19850489Y-15161428D01*
X19860013Y-15170952D01*
X19879060Y-15180476D01*
X19917155Y-15180476D01*
X19936203Y-15170952D01*
X19945727Y-15161428D01*
X19955251Y-15142381D01*
X19955251Y-15094762D01*
X19945727Y-15075714D01*
X19936203Y-15066190D01*
X19917155Y-15056667D01*
X19879060Y-15056667D01*
X19860013Y-15066190D01*
X19850489Y-15075714D01*
X19840965Y-15094762D01*
X20031441Y-14980476D02*
X20031441Y-15018571D01*
X20107632Y-14980476D02*
X20107632Y-15018571D01*
X20402870Y-15256667D02*
X20393346Y-15247143D01*
X20374298Y-15218571D01*
X20364775Y-15199524D01*
X20355251Y-15170952D01*
X20345727Y-15123333D01*
X20345727Y-15085238D01*
X20355251Y-15037619D01*
X20364775Y-15009048D01*
X20374298Y-14990000D01*
X20393346Y-14961428D01*
X20402870Y-14951905D01*
X20564775Y-15047143D02*
X20564775Y-15180476D01*
X20517155Y-14970952D02*
X20469536Y-15113809D01*
X20593346Y-15113809D01*
X20821917Y-15180476D02*
X20821917Y-14980476D01*
X20907632Y-15180476D02*
X20907632Y-15075714D01*
X20898108Y-15056667D01*
X20879060Y-15047143D01*
X20850489Y-15047143D01*
X20831441Y-15056667D01*
X20821917Y-15066190D01*
X21031441Y-15180476D02*
X21012394Y-15170952D01*
X21002870Y-15161428D01*
X20993346Y-15142381D01*
X20993346Y-15085238D01*
X21002870Y-15066190D01*
X21012394Y-15056667D01*
X21031441Y-15047143D01*
X21060013Y-15047143D01*
X21079060Y-15056667D01*
X21088584Y-15066190D01*
X21098108Y-15085238D01*
X21098108Y-15142381D01*
X21088584Y-15161428D01*
X21079060Y-15170952D01*
X21060013Y-15180476D01*
X21031441Y-15180476D01*
X21212394Y-15180476D02*
X21193346Y-15170952D01*
X21183822Y-15151905D01*
X21183822Y-14980476D01*
X21364775Y-15170952D02*
X21345727Y-15180476D01*
X21307632Y-15180476D01*
X21288584Y-15170952D01*
X21279060Y-15151905D01*
X21279060Y-15075714D01*
X21288584Y-15056667D01*
X21307632Y-15047143D01*
X21345727Y-15047143D01*
X21364775Y-15056667D01*
X21374298Y-15075714D01*
X21374298Y-15094762D01*
X21279060Y-15113809D01*
X21450489Y-15170952D02*
X21469536Y-15180476D01*
X21507632Y-15180476D01*
X21526679Y-15170952D01*
X21536203Y-15151905D01*
X21536203Y-15142381D01*
X21526679Y-15123333D01*
X21507632Y-15113809D01*
X21479060Y-15113809D01*
X21460013Y-15104286D01*
X21450489Y-15085238D01*
X21450489Y-15075714D01*
X21460013Y-15056667D01*
X21479060Y-15047143D01*
X21507632Y-15047143D01*
X21526679Y-15056667D01*
X21602870Y-15256667D02*
X21612394Y-15247143D01*
X21631441Y-15218571D01*
X21640965Y-15199524D01*
X21650489Y-15170952D01*
X21660013Y-15123333D01*
X21660013Y-15085238D01*
X21650489Y-15037619D01*
X21640965Y-15009048D01*
X21631441Y-14990000D01*
X21612394Y-14961428D01*
X21602870Y-14951905D01*
X21964775Y-15256667D02*
X21955251Y-15247143D01*
X21936203Y-15218571D01*
X21926679Y-15199524D01*
X21917155Y-15170952D01*
X21907632Y-15123333D01*
X21907632Y-15085238D01*
X21917155Y-15037619D01*
X21926679Y-15009048D01*
X21936203Y-14990000D01*
X21955251Y-14961428D01*
X21964775Y-14951905D01*
X22040965Y-15047143D02*
X22040965Y-15180476D01*
X22040965Y-15066190D02*
X22050489Y-15056667D01*
X22069536Y-15047143D01*
X22098108Y-15047143D01*
X22117155Y-15056667D01*
X22126679Y-15075714D01*
X22126679Y-15180476D01*
X22250489Y-15180476D02*
X22231441Y-15170952D01*
X22221917Y-15161428D01*
X22212394Y-15142381D01*
X22212394Y-15085238D01*
X22221917Y-15066190D01*
X22231441Y-15056667D01*
X22250489Y-15047143D01*
X22279060Y-15047143D01*
X22298108Y-15056667D01*
X22307632Y-15066190D01*
X22317155Y-15085238D01*
X22317155Y-15142381D01*
X22307632Y-15161428D01*
X22298108Y-15170952D01*
X22279060Y-15180476D01*
X22250489Y-15180476D01*
X22374298Y-15047143D02*
X22450489Y-15047143D01*
X22402870Y-14980476D02*
X22402870Y-15151905D01*
X22412393Y-15170952D01*
X22431441Y-15180476D01*
X22450489Y-15180476D01*
X22669536Y-15047143D02*
X22669536Y-15247143D01*
X22669536Y-15056667D02*
X22688584Y-15047143D01*
X22726679Y-15047143D01*
X22745727Y-15056667D01*
X22755251Y-15066190D01*
X22764774Y-15085238D01*
X22764774Y-15142381D01*
X22755251Y-15161428D01*
X22745727Y-15170952D01*
X22726679Y-15180476D01*
X22688584Y-15180476D01*
X22669536Y-15170952D01*
X22879060Y-15180476D02*
X22860013Y-15170952D01*
X22850489Y-15151905D01*
X22850489Y-14980476D01*
X23040965Y-15180476D02*
X23040965Y-15075714D01*
X23031441Y-15056667D01*
X23012393Y-15047143D01*
X22974298Y-15047143D01*
X22955251Y-15056667D01*
X23040965Y-15170952D02*
X23021917Y-15180476D01*
X22974298Y-15180476D01*
X22955251Y-15170952D01*
X22945727Y-15151905D01*
X22945727Y-15132857D01*
X22955251Y-15113809D01*
X22974298Y-15104286D01*
X23021917Y-15104286D01*
X23040965Y-15094762D01*
X23107632Y-15047143D02*
X23183822Y-15047143D01*
X23136203Y-14980476D02*
X23136203Y-15151905D01*
X23145727Y-15170952D01*
X23164774Y-15180476D01*
X23183822Y-15180476D01*
X23326679Y-15170952D02*
X23307632Y-15180476D01*
X23269536Y-15180476D01*
X23250489Y-15170952D01*
X23240965Y-15151905D01*
X23240965Y-15075714D01*
X23250489Y-15056667D01*
X23269536Y-15047143D01*
X23307632Y-15047143D01*
X23326679Y-15056667D01*
X23336203Y-15075714D01*
X23336203Y-15094762D01*
X23240965Y-15113809D01*
X23507632Y-15180476D02*
X23507632Y-14980476D01*
X23507632Y-15170952D02*
X23488584Y-15180476D01*
X23450489Y-15180476D01*
X23431441Y-15170952D01*
X23421917Y-15161428D01*
X23412393Y-15142381D01*
X23412393Y-15085238D01*
X23421917Y-15066190D01*
X23431441Y-15056667D01*
X23450489Y-15047143D01*
X23488584Y-15047143D01*
X23507632Y-15056667D01*
X23583822Y-15256667D02*
X23593346Y-15247143D01*
X23612393Y-15218571D01*
X23621917Y-15199524D01*
X23631441Y-15170952D01*
X23640965Y-15123333D01*
X23640965Y-15085238D01*
X23631441Y-15037619D01*
X23621917Y-15009048D01*
X23612393Y-14990000D01*
X23593346Y-14961428D01*
X23583822Y-14951905D01*
X16830965Y-15354000D02*
G75*
G03*
X16830965Y-15354000I-100000J0D01*
G01*
X17069536Y-15244476D02*
X17193346Y-15244476D01*
X17126679Y-15320667D01*
X17155251Y-15320667D01*
X17174298Y-15330190D01*
X17183822Y-15339714D01*
X17193346Y-15358762D01*
X17193346Y-15406381D01*
X17183822Y-15425428D01*
X17174298Y-15434952D01*
X17155251Y-15444476D01*
X17098108Y-15444476D01*
X17079060Y-15434952D01*
X17069536Y-15425428D01*
X17279060Y-15425428D02*
X17288584Y-15434952D01*
X17279060Y-15444476D01*
X17269536Y-15434952D01*
X17279060Y-15425428D01*
X17279060Y-15444476D01*
X17469536Y-15244476D02*
X17374298Y-15244476D01*
X17364775Y-15339714D01*
X17374298Y-15330190D01*
X17393346Y-15320667D01*
X17440965Y-15320667D01*
X17460013Y-15330190D01*
X17469536Y-15339714D01*
X17479060Y-15358762D01*
X17479060Y-15406381D01*
X17469536Y-15425428D01*
X17460013Y-15434952D01*
X17440965Y-15444476D01*
X17393346Y-15444476D01*
X17374298Y-15434952D01*
X17364775Y-15425428D01*
X17602870Y-15244476D02*
X17621917Y-15244476D01*
X17640965Y-15254000D01*
X17650489Y-15263524D01*
X17660013Y-15282571D01*
X17669536Y-15320667D01*
X17669536Y-15368286D01*
X17660013Y-15406381D01*
X17650489Y-15425428D01*
X17640965Y-15434952D01*
X17621917Y-15444476D01*
X17602870Y-15444476D01*
X17583822Y-15434952D01*
X17574298Y-15425428D01*
X17564775Y-15406381D01*
X17555251Y-15368286D01*
X17555251Y-15320667D01*
X17564775Y-15282571D01*
X17574298Y-15263524D01*
X17583822Y-15254000D01*
X17602870Y-15244476D01*
X17793346Y-15244476D02*
X17812394Y-15244476D01*
X17831441Y-15254000D01*
X17840965Y-15263524D01*
X17850489Y-15282571D01*
X17860013Y-15320667D01*
X17860013Y-15368286D01*
X17850489Y-15406381D01*
X17840965Y-15425428D01*
X17831441Y-15434952D01*
X17812394Y-15444476D01*
X17793346Y-15444476D01*
X17774298Y-15434952D01*
X17764775Y-15425428D01*
X17755251Y-15406381D01*
X17745727Y-15368286D01*
X17745727Y-15320667D01*
X17755251Y-15282571D01*
X17764775Y-15263524D01*
X17774298Y-15254000D01*
X17793346Y-15244476D01*
X17945727Y-15444476D02*
X17945727Y-15311143D01*
X17945727Y-15330190D02*
X17955251Y-15320667D01*
X17974298Y-15311143D01*
X18002870Y-15311143D01*
X18021917Y-15320667D01*
X18031441Y-15339714D01*
X18031441Y-15444476D01*
X18031441Y-15339714D02*
X18040965Y-15320667D01*
X18060013Y-15311143D01*
X18088584Y-15311143D01*
X18107632Y-15320667D01*
X18117155Y-15339714D01*
X18117155Y-15444476D01*
X18212394Y-15444476D02*
X18212394Y-15311143D01*
X18212394Y-15330190D02*
X18221917Y-15320667D01*
X18240965Y-15311143D01*
X18269536Y-15311143D01*
X18288584Y-15320667D01*
X18298108Y-15339714D01*
X18298108Y-15444476D01*
X18298108Y-15339714D02*
X18307632Y-15320667D01*
X18326679Y-15311143D01*
X18355251Y-15311143D01*
X18374298Y-15320667D01*
X18383822Y-15339714D01*
X18383822Y-15444476D01*
X18774298Y-15234952D02*
X18602870Y-15492095D01*
X19031441Y-15244476D02*
X19050489Y-15244476D01*
X19069536Y-15254000D01*
X19079060Y-15263524D01*
X19088584Y-15282571D01*
X19098108Y-15320667D01*
X19098108Y-15368286D01*
X19088584Y-15406381D01*
X19079060Y-15425428D01*
X19069536Y-15434952D01*
X19050489Y-15444476D01*
X19031441Y-15444476D01*
X19012394Y-15434952D01*
X19002870Y-15425428D01*
X18993346Y-15406381D01*
X18983822Y-15368286D01*
X18983822Y-15320667D01*
X18993346Y-15282571D01*
X19002870Y-15263524D01*
X19012394Y-15254000D01*
X19031441Y-15244476D01*
X19183822Y-15425428D02*
X19193346Y-15434952D01*
X19183822Y-15444476D01*
X19174298Y-15434952D01*
X19183822Y-15425428D01*
X19183822Y-15444476D01*
X19383822Y-15444476D02*
X19269536Y-15444476D01*
X19326679Y-15444476D02*
X19326679Y-15244476D01*
X19307632Y-15273048D01*
X19288584Y-15292095D01*
X19269536Y-15301619D01*
X19450489Y-15244476D02*
X19574298Y-15244476D01*
X19507632Y-15320667D01*
X19536203Y-15320667D01*
X19555251Y-15330190D01*
X19564775Y-15339714D01*
X19574298Y-15358762D01*
X19574298Y-15406381D01*
X19564775Y-15425428D01*
X19555251Y-15434952D01*
X19536203Y-15444476D01*
X19479060Y-15444476D01*
X19460013Y-15434952D01*
X19450489Y-15425428D01*
X19640965Y-15244476D02*
X19774298Y-15244476D01*
X19688584Y-15444476D01*
X19879060Y-15330190D02*
X19860013Y-15320667D01*
X19850489Y-15311143D01*
X19840965Y-15292095D01*
X19840965Y-15282571D01*
X19850489Y-15263524D01*
X19860013Y-15254000D01*
X19879060Y-15244476D01*
X19917155Y-15244476D01*
X19936203Y-15254000D01*
X19945727Y-15263524D01*
X19955251Y-15282571D01*
X19955251Y-15292095D01*
X19945727Y-15311143D01*
X19936203Y-15320667D01*
X19917155Y-15330190D01*
X19879060Y-15330190D01*
X19860013Y-15339714D01*
X19850489Y-15349238D01*
X19840965Y-15368286D01*
X19840965Y-15406381D01*
X19850489Y-15425428D01*
X19860013Y-15434952D01*
X19879060Y-15444476D01*
X19917155Y-15444476D01*
X19936203Y-15434952D01*
X19945727Y-15425428D01*
X19955251Y-15406381D01*
X19955251Y-15368286D01*
X19945727Y-15349238D01*
X19936203Y-15339714D01*
X19917155Y-15330190D01*
X20031441Y-15244476D02*
X20031441Y-15282571D01*
X20107632Y-15244476D02*
X20107632Y-15282571D01*
X20402870Y-15520667D02*
X20393346Y-15511143D01*
X20374298Y-15482571D01*
X20364775Y-15463524D01*
X20355251Y-15434952D01*
X20345727Y-15387333D01*
X20345727Y-15349238D01*
X20355251Y-15301619D01*
X20364775Y-15273048D01*
X20374298Y-15254000D01*
X20393346Y-15225428D01*
X20402870Y-15215905D01*
X20564775Y-15311143D02*
X20564775Y-15444476D01*
X20517155Y-15234952D02*
X20469536Y-15377809D01*
X20593346Y-15377809D01*
X20821917Y-15444476D02*
X20821917Y-15244476D01*
X20907632Y-15444476D02*
X20907632Y-15339714D01*
X20898108Y-15320667D01*
X20879060Y-15311143D01*
X20850489Y-15311143D01*
X20831441Y-15320667D01*
X20821917Y-15330190D01*
X21031441Y-15444476D02*
X21012394Y-15434952D01*
X21002870Y-15425428D01*
X20993346Y-15406381D01*
X20993346Y-15349238D01*
X21002870Y-15330190D01*
X21012394Y-15320667D01*
X21031441Y-15311143D01*
X21060013Y-15311143D01*
X21079060Y-15320667D01*
X21088584Y-15330190D01*
X21098108Y-15349238D01*
X21098108Y-15406381D01*
X21088584Y-15425428D01*
X21079060Y-15434952D01*
X21060013Y-15444476D01*
X21031441Y-15444476D01*
X21212394Y-15444476D02*
X21193346Y-15434952D01*
X21183822Y-15415905D01*
X21183822Y-15244476D01*
X21364775Y-15434952D02*
X21345727Y-15444476D01*
X21307632Y-15444476D01*
X21288584Y-15434952D01*
X21279060Y-15415905D01*
X21279060Y-15339714D01*
X21288584Y-15320667D01*
X21307632Y-15311143D01*
X21345727Y-15311143D01*
X21364775Y-15320667D01*
X21374298Y-15339714D01*
X21374298Y-15358762D01*
X21279060Y-15377809D01*
X21450489Y-15434952D02*
X21469536Y-15444476D01*
X21507632Y-15444476D01*
X21526679Y-15434952D01*
X21536203Y-15415905D01*
X21536203Y-15406381D01*
X21526679Y-15387333D01*
X21507632Y-15377809D01*
X21479060Y-15377809D01*
X21460013Y-15368286D01*
X21450489Y-15349238D01*
X21450489Y-15339714D01*
X21460013Y-15320667D01*
X21479060Y-15311143D01*
X21507632Y-15311143D01*
X21526679Y-15320667D01*
X21602870Y-15520667D02*
X21612394Y-15511143D01*
X21631441Y-15482571D01*
X21640965Y-15463524D01*
X21650489Y-15434952D01*
X21660013Y-15387333D01*
X21660013Y-15349238D01*
X21650489Y-15301619D01*
X21640965Y-15273048D01*
X21631441Y-15254000D01*
X21612394Y-15225428D01*
X21602870Y-15215905D01*
X21964775Y-15520667D02*
X21955251Y-15511143D01*
X21936203Y-15482571D01*
X21926679Y-15463524D01*
X21917155Y-15434952D01*
X21907632Y-15387333D01*
X21907632Y-15349238D01*
X21917155Y-15301619D01*
X21926679Y-15273048D01*
X21936203Y-15254000D01*
X21955251Y-15225428D01*
X21964775Y-15215905D01*
X22040965Y-15311143D02*
X22040965Y-15444476D01*
X22040965Y-15330190D02*
X22050489Y-15320667D01*
X22069536Y-15311143D01*
X22098108Y-15311143D01*
X22117155Y-15320667D01*
X22126679Y-15339714D01*
X22126679Y-15444476D01*
X22250489Y-15444476D02*
X22231441Y-15434952D01*
X22221917Y-15425428D01*
X22212394Y-15406381D01*
X22212394Y-15349238D01*
X22221917Y-15330190D01*
X22231441Y-15320667D01*
X22250489Y-15311143D01*
X22279060Y-15311143D01*
X22298108Y-15320667D01*
X22307632Y-15330190D01*
X22317155Y-15349238D01*
X22317155Y-15406381D01*
X22307632Y-15425428D01*
X22298108Y-15434952D01*
X22279060Y-15444476D01*
X22250489Y-15444476D01*
X22374298Y-15311143D02*
X22450489Y-15311143D01*
X22402870Y-15244476D02*
X22402870Y-15415905D01*
X22412393Y-15434952D01*
X22431441Y-15444476D01*
X22450489Y-15444476D01*
X22669536Y-15311143D02*
X22669536Y-15511143D01*
X22669536Y-15320667D02*
X22688584Y-15311143D01*
X22726679Y-15311143D01*
X22745727Y-15320667D01*
X22755251Y-15330190D01*
X22764774Y-15349238D01*
X22764774Y-15406381D01*
X22755251Y-15425428D01*
X22745727Y-15434952D01*
X22726679Y-15444476D01*
X22688584Y-15444476D01*
X22669536Y-15434952D01*
X22879060Y-15444476D02*
X22860013Y-15434952D01*
X22850489Y-15415905D01*
X22850489Y-15244476D01*
X23040965Y-15444476D02*
X23040965Y-15339714D01*
X23031441Y-15320667D01*
X23012393Y-15311143D01*
X22974298Y-15311143D01*
X22955251Y-15320667D01*
X23040965Y-15434952D02*
X23021917Y-15444476D01*
X22974298Y-15444476D01*
X22955251Y-15434952D01*
X22945727Y-15415905D01*
X22945727Y-15396857D01*
X22955251Y-15377809D01*
X22974298Y-15368286D01*
X23021917Y-15368286D01*
X23040965Y-15358762D01*
X23107632Y-15311143D02*
X23183822Y-15311143D01*
X23136203Y-15244476D02*
X23136203Y-15415905D01*
X23145727Y-15434952D01*
X23164774Y-15444476D01*
X23183822Y-15444476D01*
X23326679Y-15434952D02*
X23307632Y-15444476D01*
X23269536Y-15444476D01*
X23250489Y-15434952D01*
X23240965Y-15415905D01*
X23240965Y-15339714D01*
X23250489Y-15320667D01*
X23269536Y-15311143D01*
X23307632Y-15311143D01*
X23326679Y-15320667D01*
X23336203Y-15339714D01*
X23336203Y-15358762D01*
X23240965Y-15377809D01*
X23507632Y-15444476D02*
X23507632Y-15244476D01*
X23507632Y-15434952D02*
X23488584Y-15444476D01*
X23450489Y-15444476D01*
X23431441Y-15434952D01*
X23421917Y-15425428D01*
X23412393Y-15406381D01*
X23412393Y-15349238D01*
X23421917Y-15330190D01*
X23431441Y-15320667D01*
X23450489Y-15311143D01*
X23488584Y-15311143D01*
X23507632Y-15320667D01*
X23583822Y-15520667D02*
X23593346Y-15511143D01*
X23612393Y-15482571D01*
X23621917Y-15463524D01*
X23631441Y-15434952D01*
X23640965Y-15387333D01*
X23640965Y-15349238D01*
X23631441Y-15301619D01*
X23621917Y-15273048D01*
X23612393Y-15254000D01*
X23593346Y-15225428D01*
X23583822Y-15215905D01*
X16730965Y-15574000D02*
X16730965Y-15774000D01*
X16630965Y-15674000D02*
X16830965Y-15674000D01*
X17174298Y-15631143D02*
X17174298Y-15764476D01*
X17126679Y-15554952D02*
X17079060Y-15697809D01*
X17202870Y-15697809D01*
X17279060Y-15745428D02*
X17288584Y-15754952D01*
X17279060Y-15764476D01*
X17269536Y-15754952D01*
X17279060Y-15745428D01*
X17279060Y-15764476D01*
X17355251Y-15564476D02*
X17479060Y-15564476D01*
X17412394Y-15640667D01*
X17440965Y-15640667D01*
X17460013Y-15650190D01*
X17469536Y-15659714D01*
X17479060Y-15678762D01*
X17479060Y-15726381D01*
X17469536Y-15745428D01*
X17460013Y-15754952D01*
X17440965Y-15764476D01*
X17383822Y-15764476D01*
X17364775Y-15754952D01*
X17355251Y-15745428D01*
X17602870Y-15564476D02*
X17621917Y-15564476D01*
X17640965Y-15574000D01*
X17650489Y-15583524D01*
X17660013Y-15602571D01*
X17669536Y-15640667D01*
X17669536Y-15688286D01*
X17660013Y-15726381D01*
X17650489Y-15745428D01*
X17640965Y-15754952D01*
X17621917Y-15764476D01*
X17602870Y-15764476D01*
X17583822Y-15754952D01*
X17574298Y-15745428D01*
X17564775Y-15726381D01*
X17555251Y-15688286D01*
X17555251Y-15640667D01*
X17564775Y-15602571D01*
X17574298Y-15583524D01*
X17583822Y-15574000D01*
X17602870Y-15564476D01*
X17793346Y-15564476D02*
X17812394Y-15564476D01*
X17831441Y-15574000D01*
X17840965Y-15583524D01*
X17850489Y-15602571D01*
X17860013Y-15640667D01*
X17860013Y-15688286D01*
X17850489Y-15726381D01*
X17840965Y-15745428D01*
X17831441Y-15754952D01*
X17812394Y-15764476D01*
X17793346Y-15764476D01*
X17774298Y-15754952D01*
X17764775Y-15745428D01*
X17755251Y-15726381D01*
X17745727Y-15688286D01*
X17745727Y-15640667D01*
X17755251Y-15602571D01*
X17764775Y-15583524D01*
X17774298Y-15574000D01*
X17793346Y-15564476D01*
X17945727Y-15764476D02*
X17945727Y-15631143D01*
X17945727Y-15650190D02*
X17955251Y-15640667D01*
X17974298Y-15631143D01*
X18002870Y-15631143D01*
X18021917Y-15640667D01*
X18031441Y-15659714D01*
X18031441Y-15764476D01*
X18031441Y-15659714D02*
X18040965Y-15640667D01*
X18060013Y-15631143D01*
X18088584Y-15631143D01*
X18107632Y-15640667D01*
X18117155Y-15659714D01*
X18117155Y-15764476D01*
X18212394Y-15764476D02*
X18212394Y-15631143D01*
X18212394Y-15650190D02*
X18221917Y-15640667D01*
X18240965Y-15631143D01*
X18269536Y-15631143D01*
X18288584Y-15640667D01*
X18298108Y-15659714D01*
X18298108Y-15764476D01*
X18298108Y-15659714D02*
X18307632Y-15640667D01*
X18326679Y-15631143D01*
X18355251Y-15631143D01*
X18374298Y-15640667D01*
X18383822Y-15659714D01*
X18383822Y-15764476D01*
X18774298Y-15554952D02*
X18602870Y-15812095D01*
X19031441Y-15564476D02*
X19050489Y-15564476D01*
X19069536Y-15574000D01*
X19079060Y-15583524D01*
X19088584Y-15602571D01*
X19098108Y-15640667D01*
X19098108Y-15688286D01*
X19088584Y-15726381D01*
X19079060Y-15745428D01*
X19069536Y-15754952D01*
X19050489Y-15764476D01*
X19031441Y-15764476D01*
X19012394Y-15754952D01*
X19002870Y-15745428D01*
X18993346Y-15726381D01*
X18983822Y-15688286D01*
X18983822Y-15640667D01*
X18993346Y-15602571D01*
X19002870Y-15583524D01*
X19012394Y-15574000D01*
X19031441Y-15564476D01*
X19183822Y-15745428D02*
X19193346Y-15754952D01*
X19183822Y-15764476D01*
X19174298Y-15754952D01*
X19183822Y-15745428D01*
X19183822Y-15764476D01*
X19383822Y-15764476D02*
X19269536Y-15764476D01*
X19326679Y-15764476D02*
X19326679Y-15564476D01*
X19307632Y-15593048D01*
X19288584Y-15612095D01*
X19269536Y-15621619D01*
X19555251Y-15564476D02*
X19517155Y-15564476D01*
X19498108Y-15574000D01*
X19488584Y-15583524D01*
X19469536Y-15612095D01*
X19460013Y-15650190D01*
X19460013Y-15726381D01*
X19469536Y-15745428D01*
X19479060Y-15754952D01*
X19498108Y-15764476D01*
X19536203Y-15764476D01*
X19555251Y-15754952D01*
X19564775Y-15745428D01*
X19574298Y-15726381D01*
X19574298Y-15678762D01*
X19564775Y-15659714D01*
X19555251Y-15650190D01*
X19536203Y-15640667D01*
X19498108Y-15640667D01*
X19479060Y-15650190D01*
X19469536Y-15659714D01*
X19460013Y-15678762D01*
X19669536Y-15764476D02*
X19707632Y-15764476D01*
X19726679Y-15754952D01*
X19736203Y-15745428D01*
X19755251Y-15716857D01*
X19764775Y-15678762D01*
X19764775Y-15602571D01*
X19755251Y-15583524D01*
X19745727Y-15574000D01*
X19726679Y-15564476D01*
X19688584Y-15564476D01*
X19669536Y-15574000D01*
X19660013Y-15583524D01*
X19650489Y-15602571D01*
X19650489Y-15650190D01*
X19660013Y-15669238D01*
X19669536Y-15678762D01*
X19688584Y-15688286D01*
X19726679Y-15688286D01*
X19745727Y-15678762D01*
X19755251Y-15669238D01*
X19764775Y-15650190D01*
X19831441Y-15564476D02*
X19955251Y-15564476D01*
X19888584Y-15640667D01*
X19917155Y-15640667D01*
X19936203Y-15650190D01*
X19945727Y-15659714D01*
X19955251Y-15678762D01*
X19955251Y-15726381D01*
X19945727Y-15745428D01*
X19936203Y-15754952D01*
X19917155Y-15764476D01*
X19860013Y-15764476D01*
X19840965Y-15754952D01*
X19831441Y-15745428D01*
X20031441Y-15564476D02*
X20031441Y-15602571D01*
X20107632Y-15564476D02*
X20107632Y-15602571D01*
X20402870Y-15840667D02*
X20393346Y-15831143D01*
X20374298Y-15802571D01*
X20364775Y-15783524D01*
X20355251Y-15754952D01*
X20345727Y-15707333D01*
X20345727Y-15669238D01*
X20355251Y-15621619D01*
X20364775Y-15593048D01*
X20374298Y-15574000D01*
X20393346Y-15545428D01*
X20402870Y-15535905D01*
X20469536Y-15583524D02*
X20479060Y-15574000D01*
X20498108Y-15564476D01*
X20545727Y-15564476D01*
X20564775Y-15574000D01*
X20574298Y-15583524D01*
X20583822Y-15602571D01*
X20583822Y-15621619D01*
X20574298Y-15650190D01*
X20460013Y-15764476D01*
X20583822Y-15764476D01*
X20821917Y-15764476D02*
X20821917Y-15564476D01*
X20907632Y-15764476D02*
X20907632Y-15659714D01*
X20898108Y-15640667D01*
X20879060Y-15631143D01*
X20850489Y-15631143D01*
X20831441Y-15640667D01*
X20821917Y-15650190D01*
X21031441Y-15764476D02*
X21012394Y-15754952D01*
X21002870Y-15745428D01*
X20993346Y-15726381D01*
X20993346Y-15669238D01*
X21002870Y-15650190D01*
X21012394Y-15640667D01*
X21031441Y-15631143D01*
X21060013Y-15631143D01*
X21079060Y-15640667D01*
X21088584Y-15650190D01*
X21098108Y-15669238D01*
X21098108Y-15726381D01*
X21088584Y-15745428D01*
X21079060Y-15754952D01*
X21060013Y-15764476D01*
X21031441Y-15764476D01*
X21212394Y-15764476D02*
X21193346Y-15754952D01*
X21183822Y-15735905D01*
X21183822Y-15564476D01*
X21364775Y-15754952D02*
X21345727Y-15764476D01*
X21307632Y-15764476D01*
X21288584Y-15754952D01*
X21279060Y-15735905D01*
X21279060Y-15659714D01*
X21288584Y-15640667D01*
X21307632Y-15631143D01*
X21345727Y-15631143D01*
X21364775Y-15640667D01*
X21374298Y-15659714D01*
X21374298Y-15678762D01*
X21279060Y-15697809D01*
X21450489Y-15754952D02*
X21469536Y-15764476D01*
X21507632Y-15764476D01*
X21526679Y-15754952D01*
X21536203Y-15735905D01*
X21536203Y-15726381D01*
X21526679Y-15707333D01*
X21507632Y-15697809D01*
X21479060Y-15697809D01*
X21460013Y-15688286D01*
X21450489Y-15669238D01*
X21450489Y-15659714D01*
X21460013Y-15640667D01*
X21479060Y-15631143D01*
X21507632Y-15631143D01*
X21526679Y-15640667D01*
X21602870Y-15840667D02*
X21612394Y-15831143D01*
X21631441Y-15802571D01*
X21640965Y-15783524D01*
X21650489Y-15754952D01*
X21660013Y-15707333D01*
X21660013Y-15669238D01*
X21650489Y-15621619D01*
X21640965Y-15593048D01*
X21631441Y-15574000D01*
X21612394Y-15545428D01*
X21602870Y-15535905D01*
X21964775Y-15840667D02*
X21955251Y-15831143D01*
X21936203Y-15802571D01*
X21926679Y-15783524D01*
X21917155Y-15754952D01*
X21907632Y-15707333D01*
X21907632Y-15669238D01*
X21917155Y-15621619D01*
X21926679Y-15593048D01*
X21936203Y-15574000D01*
X21955251Y-15545428D01*
X21964775Y-15535905D01*
X22040965Y-15631143D02*
X22040965Y-15764476D01*
X22040965Y-15650190D02*
X22050489Y-15640667D01*
X22069536Y-15631143D01*
X22098108Y-15631143D01*
X22117155Y-15640667D01*
X22126679Y-15659714D01*
X22126679Y-15764476D01*
X22250489Y-15764476D02*
X22231441Y-15754952D01*
X22221917Y-15745428D01*
X22212394Y-15726381D01*
X22212394Y-15669238D01*
X22221917Y-15650190D01*
X22231441Y-15640667D01*
X22250489Y-15631143D01*
X22279060Y-15631143D01*
X22298108Y-15640667D01*
X22307632Y-15650190D01*
X22317155Y-15669238D01*
X22317155Y-15726381D01*
X22307632Y-15745428D01*
X22298108Y-15754952D01*
X22279060Y-15764476D01*
X22250489Y-15764476D01*
X22374298Y-15631143D02*
X22450489Y-15631143D01*
X22402870Y-15564476D02*
X22402870Y-15735905D01*
X22412393Y-15754952D01*
X22431441Y-15764476D01*
X22450489Y-15764476D01*
X22669536Y-15631143D02*
X22669536Y-15831143D01*
X22669536Y-15640667D02*
X22688584Y-15631143D01*
X22726679Y-15631143D01*
X22745727Y-15640667D01*
X22755251Y-15650190D01*
X22764774Y-15669238D01*
X22764774Y-15726381D01*
X22755251Y-15745428D01*
X22745727Y-15754952D01*
X22726679Y-15764476D01*
X22688584Y-15764476D01*
X22669536Y-15754952D01*
X22879060Y-15764476D02*
X22860013Y-15754952D01*
X22850489Y-15735905D01*
X22850489Y-15564476D01*
X23040965Y-15764476D02*
X23040965Y-15659714D01*
X23031441Y-15640667D01*
X23012393Y-15631143D01*
X22974298Y-15631143D01*
X22955251Y-15640667D01*
X23040965Y-15754952D02*
X23021917Y-15764476D01*
X22974298Y-15764476D01*
X22955251Y-15754952D01*
X22945727Y-15735905D01*
X22945727Y-15716857D01*
X22955251Y-15697809D01*
X22974298Y-15688286D01*
X23021917Y-15688286D01*
X23040965Y-15678762D01*
X23107632Y-15631143D02*
X23183822Y-15631143D01*
X23136203Y-15564476D02*
X23136203Y-15735905D01*
X23145727Y-15754952D01*
X23164774Y-15764476D01*
X23183822Y-15764476D01*
X23326679Y-15754952D02*
X23307632Y-15764476D01*
X23269536Y-15764476D01*
X23250489Y-15754952D01*
X23240965Y-15735905D01*
X23240965Y-15659714D01*
X23250489Y-15640667D01*
X23269536Y-15631143D01*
X23307632Y-15631143D01*
X23326679Y-15640667D01*
X23336203Y-15659714D01*
X23336203Y-15678762D01*
X23240965Y-15697809D01*
X23507632Y-15764476D02*
X23507632Y-15564476D01*
X23507632Y-15754952D02*
X23488584Y-15764476D01*
X23450489Y-15764476D01*
X23431441Y-15754952D01*
X23421917Y-15745428D01*
X23412393Y-15726381D01*
X23412393Y-15669238D01*
X23421917Y-15650190D01*
X23431441Y-15640667D01*
X23450489Y-15631143D01*
X23488584Y-15631143D01*
X23507632Y-15640667D01*
X23583822Y-15840667D02*
X23593346Y-15831143D01*
X23612393Y-15802571D01*
X23621917Y-15783524D01*
X23631441Y-15754952D01*
X23640965Y-15707333D01*
X23640965Y-15669238D01*
X23631441Y-15621619D01*
X23621917Y-15593048D01*
X23612393Y-15574000D01*
X23593346Y-15545428D01*
X23583822Y-15535905D01*
M02*
