G04 #@! TF.GenerationSoftware,KiCad,Pcbnew,(6.0.7)*
G04 #@! TF.CreationDate,2023-08-04T00:04:24+07:00*
G04 #@! TF.ProjectId,ECELab_v1,4543454c-6162-45f7-9631-2e6b69636164,rev?*
G04 #@! TF.SameCoordinates,Original*
G04 #@! TF.FileFunction,Legend,Top*
G04 #@! TF.FilePolarity,Positive*
%FSLAX46Y46*%
G04 Gerber Fmt 4.6, Leading zero omitted, Abs format (unit mm)*
G04 Created by KiCad (PCBNEW (6.0.7)) date 2023-08-04 00:04:24*
%MOMM*%
%LPD*%
G01*
G04 APERTURE LIST*
G04 Aperture macros list*
%AMRoundRect*
0 Rectangle with rounded corners*
0 $1 Rounding radius*
0 $2 $3 $4 $5 $6 $7 $8 $9 X,Y pos of 4 corners*
0 Add a 4 corners polygon primitive as box body*
4,1,4,$2,$3,$4,$5,$6,$7,$8,$9,$2,$3,0*
0 Add four circle primitives for the rounded corners*
1,1,$1+$1,$2,$3*
1,1,$1+$1,$4,$5*
1,1,$1+$1,$6,$7*
1,1,$1+$1,$8,$9*
0 Add four rect primitives between the rounded corners*
20,1,$1+$1,$2,$3,$4,$5,0*
20,1,$1+$1,$4,$5,$6,$7,0*
20,1,$1+$1,$6,$7,$8,$9,0*
20,1,$1+$1,$8,$9,$2,$3,0*%
G04 Aperture macros list end*
%ADD10C,0.150000*%
%ADD11C,0.250000*%
%ADD12C,0.254000*%
%ADD13C,0.120000*%
%ADD14C,0.100000*%
%ADD15C,3.500000*%
%ADD16R,1.700000X1.700000*%
%ADD17O,1.700000X1.700000*%
%ADD18RoundRect,0.135000X0.135000X0.185000X-0.135000X0.185000X-0.135000X-0.185000X0.135000X-0.185000X0*%
%ADD19RoundRect,0.135000X-0.135000X-0.185000X0.135000X-0.185000X0.135000X0.185000X-0.135000X0.185000X0*%
%ADD20R,2.000000X4.500000*%
%ADD21R,0.400000X0.500000*%
%ADD22RoundRect,0.135000X0.185000X-0.135000X0.185000X0.135000X-0.185000X0.135000X-0.185000X-0.135000X0*%
%ADD23R,0.250000X0.360000*%
%ADD24C,2.000000*%
%ADD25R,0.650000X0.400000*%
%ADD26R,0.450000X1.750000*%
%ADD27RoundRect,0.218750X0.256250X-0.218750X0.256250X0.218750X-0.256250X0.218750X-0.256250X-0.218750X0*%
%ADD28RoundRect,0.218750X-0.218750X-0.256250X0.218750X-0.256250X0.218750X0.256250X-0.218750X0.256250X0*%
%ADD29RoundRect,0.140000X-0.170000X0.140000X-0.170000X-0.140000X0.170000X-0.140000X0.170000X0.140000X0*%
%ADD30RoundRect,0.218750X-0.256250X0.218750X-0.256250X-0.218750X0.256250X-0.218750X0.256250X0.218750X0*%
%ADD31RoundRect,0.140000X0.140000X0.170000X-0.140000X0.170000X-0.140000X-0.170000X0.140000X-0.170000X0*%
%ADD32C,0.650000*%
%ADD33R,0.600000X1.450000*%
%ADD34R,0.300000X1.450000*%
%ADD35O,1.000000X1.600000*%
%ADD36O,1.000000X2.100000*%
%ADD37R,0.500000X0.400000*%
%ADD38RoundRect,0.147500X-0.172500X0.147500X-0.172500X-0.147500X0.172500X-0.147500X0.172500X0.147500X0*%
%ADD39RoundRect,0.140000X0.170000X-0.140000X0.170000X0.140000X-0.170000X0.140000X-0.170000X-0.140000X0*%
%ADD40R,0.450000X0.600000*%
%ADD41C,5.000000*%
%ADD42RoundRect,0.150000X0.825000X0.150000X-0.825000X0.150000X-0.825000X-0.150000X0.825000X-0.150000X0*%
%ADD43R,2.000000X1.500000*%
%ADD44R,2.000000X3.800000*%
%ADD45RoundRect,0.135000X-0.185000X0.135000X-0.185000X-0.135000X0.185000X-0.135000X0.185000X0.135000X0*%
%ADD46RoundRect,0.075000X-0.700000X-0.075000X0.700000X-0.075000X0.700000X0.075000X-0.700000X0.075000X0*%
%ADD47RoundRect,0.075000X-0.075000X-0.700000X0.075000X-0.700000X0.075000X0.700000X-0.075000X0.700000X0*%
G04 APERTURE END LIST*
D10*
X216890600Y-143992600D02*
X237591600Y-143992600D01*
X237591600Y-143992600D02*
X237591600Y-140157200D01*
X237591600Y-140157200D02*
X216890600Y-140157200D01*
X216890600Y-140157200D02*
X216890600Y-143992600D01*
X205435200Y-137185400D02*
X205917800Y-137668000D01*
X195249800Y-128778000D02*
X195732400Y-129260600D01*
X201840001Y-97870000D02*
G75*
G03*
X201840001Y-97870000I-169706J0D01*
G01*
X205917800Y-137668000D02*
X205435200Y-138150600D01*
X211549706Y-117250000D02*
G75*
G03*
X211549706Y-117250000I-169706J0D01*
G01*
X221809706Y-97980000D02*
G75*
G03*
X221809706Y-97980000I-169706J0D01*
G01*
X205409800Y-127050800D02*
X205892400Y-127533400D01*
X209550000Y-92329000D02*
X209067400Y-92811600D01*
X195249800Y-123113800D02*
X194767200Y-122631200D01*
X201800001Y-110700000D02*
G75*
G03*
X201800001Y-110700000I-169706J0D01*
G01*
X224459800Y-127533400D02*
X223977200Y-128016000D01*
X218089706Y-135650000D02*
G75*
G03*
X218089706Y-135650000I-169706J0D01*
G01*
X205422500Y-134670800D02*
X205905100Y-135153400D01*
X189639706Y-71590000D02*
G75*
G03*
X189639706Y-71590000I-169706J0D01*
G01*
X195732400Y-122631200D02*
X195249800Y-123113800D01*
X223977200Y-134594600D02*
X224459800Y-135077200D01*
X219919706Y-127160000D02*
G75*
G03*
X219919706Y-127160000I-169706J0D01*
G01*
X224459800Y-135077200D02*
X223977200Y-135559800D01*
X194767200Y-129260600D02*
X195249800Y-128778000D01*
X209067400Y-92811600D02*
X208584800Y-92329000D01*
X224459800Y-137668000D02*
X223977200Y-138150600D01*
X205892400Y-127533400D02*
X205409800Y-128016000D01*
X208559400Y-98958400D02*
X209042000Y-98475800D01*
X223977200Y-127050800D02*
X224459800Y-127533400D01*
X205905100Y-135153400D02*
X205422500Y-135636000D01*
X209042000Y-98475800D02*
X209524600Y-98958400D01*
X223977200Y-137185400D02*
X224459800Y-137668000D01*
X203784200Y-76669900D02*
X210870800Y-76669900D01*
X210870800Y-76669900D02*
X210870800Y-68567300D01*
X210870800Y-68567300D02*
X203784200Y-68567300D01*
X203784200Y-68567300D02*
X203784200Y-76669900D01*
D11*
X204192380Y-75058276D02*
X204966190Y-75058276D01*
X204549523Y-75534466D01*
X204728095Y-75534466D01*
X204847142Y-75593990D01*
X204906666Y-75653514D01*
X204966190Y-75772561D01*
X204966190Y-76070180D01*
X204906666Y-76189228D01*
X204847142Y-76248752D01*
X204728095Y-76308276D01*
X204370952Y-76308276D01*
X204251904Y-76248752D01*
X204192380Y-76189228D01*
X205323333Y-75058276D02*
X205740000Y-76308276D01*
X206156666Y-75058276D01*
X206454285Y-75058276D02*
X207228095Y-75058276D01*
X206811428Y-75534466D01*
X206990000Y-75534466D01*
X207109047Y-75593990D01*
X207168571Y-75653514D01*
X207228095Y-75772561D01*
X207228095Y-76070180D01*
X207168571Y-76189228D01*
X207109047Y-76248752D01*
X206990000Y-76308276D01*
X206632857Y-76308276D01*
X206513809Y-76248752D01*
X206454285Y-76189228D01*
D10*
X232217980Y-142354276D02*
X232217980Y-142830466D01*
X232694171Y-142878085D01*
X232646552Y-142830466D01*
X232598933Y-142735228D01*
X232598933Y-142497133D01*
X232646552Y-142401895D01*
X232694171Y-142354276D01*
X232789409Y-142306657D01*
X233027504Y-142306657D01*
X233122742Y-142354276D01*
X233170361Y-142401895D01*
X233217980Y-142497133D01*
X233217980Y-142735228D01*
X233170361Y-142830466D01*
X233122742Y-142878085D01*
X232217980Y-142020942D02*
X233217980Y-141687609D01*
X232217980Y-141354276D01*
X223721561Y-135721504D02*
X223769180Y-135578647D01*
X223769180Y-135340552D01*
X223721561Y-135245314D01*
X223673942Y-135197695D01*
X223578704Y-135150076D01*
X223483466Y-135150076D01*
X223388228Y-135197695D01*
X223340609Y-135245314D01*
X223292990Y-135340552D01*
X223245371Y-135531028D01*
X223197752Y-135626266D01*
X223150133Y-135673885D01*
X223054895Y-135721504D01*
X222959657Y-135721504D01*
X222864419Y-135673885D01*
X222816800Y-135626266D01*
X222769180Y-135531028D01*
X222769180Y-135292933D01*
X222816800Y-135150076D01*
X223673942Y-134150076D02*
X223721561Y-134197695D01*
X223769180Y-134340552D01*
X223769180Y-134435790D01*
X223721561Y-134578647D01*
X223626323Y-134673885D01*
X223531085Y-134721504D01*
X223340609Y-134769123D01*
X223197752Y-134769123D01*
X223007276Y-134721504D01*
X222912038Y-134673885D01*
X222816800Y-134578647D01*
X222769180Y-134435790D01*
X222769180Y-134340552D01*
X222816800Y-134197695D01*
X222864419Y-134150076D01*
X223769180Y-133721504D02*
X222769180Y-133721504D01*
X223769180Y-133150076D02*
X223197752Y-133578647D01*
X222769180Y-133150076D02*
X223340609Y-133721504D01*
X222769180Y-132531028D02*
X222769180Y-132435790D01*
X222816800Y-132340552D01*
X222864419Y-132292933D01*
X222959657Y-132245314D01*
X223150133Y-132197695D01*
X223388228Y-132197695D01*
X223578704Y-132245314D01*
X223673942Y-132292933D01*
X223721561Y-132340552D01*
X223769180Y-132435790D01*
X223769180Y-132531028D01*
X223721561Y-132626266D01*
X223673942Y-132673885D01*
X223578704Y-132721504D01*
X223388228Y-132769123D01*
X223150133Y-132769123D01*
X222959657Y-132721504D01*
X222864419Y-132673885D01*
X222816800Y-132626266D01*
X222769180Y-132531028D01*
X227706180Y-74855057D02*
X226706180Y-74855057D01*
X226706180Y-74188390D02*
X226706180Y-73997914D01*
X226753800Y-73902676D01*
X226849038Y-73807438D01*
X227039514Y-73759819D01*
X227372847Y-73759819D01*
X227563323Y-73807438D01*
X227658561Y-73902676D01*
X227706180Y-73997914D01*
X227706180Y-74188390D01*
X227658561Y-74283628D01*
X227563323Y-74378866D01*
X227372847Y-74426485D01*
X227039514Y-74426485D01*
X226849038Y-74378866D01*
X226753800Y-74283628D01*
X226706180Y-74188390D01*
X227610942Y-73331247D02*
X227658561Y-73283628D01*
X227706180Y-73331247D01*
X227658561Y-73378866D01*
X227610942Y-73331247D01*
X227706180Y-73331247D01*
X227658561Y-72902676D02*
X227706180Y-72759819D01*
X227706180Y-72521723D01*
X227658561Y-72426485D01*
X227610942Y-72378866D01*
X227515704Y-72331247D01*
X227420466Y-72331247D01*
X227325228Y-72378866D01*
X227277609Y-72426485D01*
X227229990Y-72521723D01*
X227182371Y-72712200D01*
X227134752Y-72807438D01*
X227087133Y-72855057D01*
X226991895Y-72902676D01*
X226896657Y-72902676D01*
X226801419Y-72855057D01*
X226753800Y-72807438D01*
X226706180Y-72712200D01*
X226706180Y-72474104D01*
X226753800Y-72331247D01*
X227706180Y-71902676D02*
X226706180Y-71902676D01*
X226706180Y-71664580D01*
X226753800Y-71521723D01*
X226849038Y-71426485D01*
X226944276Y-71378866D01*
X227134752Y-71331247D01*
X227277609Y-71331247D01*
X227468085Y-71378866D01*
X227563323Y-71426485D01*
X227658561Y-71521723D01*
X227706180Y-71664580D01*
X227706180Y-71902676D01*
X227420466Y-70950295D02*
X227420466Y-70474104D01*
X227706180Y-71045533D02*
X226706180Y-70712200D01*
X227706180Y-70378866D01*
X227706180Y-69521723D02*
X227706180Y-70093152D01*
X227706180Y-69807438D02*
X226706180Y-69807438D01*
X226849038Y-69902676D01*
X226944276Y-69997914D01*
X226991895Y-70093152D01*
X205204961Y-135721504D02*
X205252580Y-135578647D01*
X205252580Y-135340552D01*
X205204961Y-135245314D01*
X205157342Y-135197695D01*
X205062104Y-135150076D01*
X204966866Y-135150076D01*
X204871628Y-135197695D01*
X204824009Y-135245314D01*
X204776390Y-135340552D01*
X204728771Y-135531028D01*
X204681152Y-135626266D01*
X204633533Y-135673885D01*
X204538295Y-135721504D01*
X204443057Y-135721504D01*
X204347819Y-135673885D01*
X204300200Y-135626266D01*
X204252580Y-135531028D01*
X204252580Y-135292933D01*
X204300200Y-135150076D01*
X205157342Y-134150076D02*
X205204961Y-134197695D01*
X205252580Y-134340552D01*
X205252580Y-134435790D01*
X205204961Y-134578647D01*
X205109723Y-134673885D01*
X205014485Y-134721504D01*
X204824009Y-134769123D01*
X204681152Y-134769123D01*
X204490676Y-134721504D01*
X204395438Y-134673885D01*
X204300200Y-134578647D01*
X204252580Y-134435790D01*
X204252580Y-134340552D01*
X204300200Y-134197695D01*
X204347819Y-134150076D01*
X205252580Y-133721504D02*
X204252580Y-133721504D01*
X205252580Y-133150076D02*
X204681152Y-133578647D01*
X204252580Y-133150076D02*
X204824009Y-133721504D01*
X205252580Y-132197695D02*
X205252580Y-132769123D01*
X205252580Y-132483409D02*
X204252580Y-132483409D01*
X204395438Y-132578647D01*
X204490676Y-132673885D01*
X204538295Y-132769123D01*
X193630752Y-129576580D02*
X193440276Y-129576580D01*
X193345038Y-129624200D01*
X193297419Y-129671819D01*
X193202180Y-129814676D01*
X193154561Y-130005152D01*
X193154561Y-130386104D01*
X193202180Y-130481342D01*
X193249800Y-130528961D01*
X193345038Y-130576580D01*
X193535514Y-130576580D01*
X193630752Y-130528961D01*
X193678371Y-130481342D01*
X193725990Y-130386104D01*
X193725990Y-130148009D01*
X193678371Y-130052771D01*
X193630752Y-130005152D01*
X193535514Y-129957533D01*
X193345038Y-129957533D01*
X193249800Y-130005152D01*
X193202180Y-130052771D01*
X193154561Y-130148009D01*
X194154561Y-130481342D02*
X194202180Y-130528961D01*
X194154561Y-130576580D01*
X194106942Y-130528961D01*
X194154561Y-130481342D01*
X194154561Y-130576580D01*
X194630752Y-130576580D02*
X194630752Y-129576580D01*
X195011704Y-129576580D01*
X195106942Y-129624200D01*
X195154561Y-129671819D01*
X195202180Y-129767057D01*
X195202180Y-129909914D01*
X195154561Y-130005152D01*
X195106942Y-130052771D01*
X195011704Y-130100390D01*
X194630752Y-130100390D01*
X195535514Y-129576580D02*
X195773609Y-130576580D01*
X195964085Y-129862295D01*
X196154561Y-130576580D01*
X196392657Y-129576580D01*
X197345038Y-130576580D02*
X197011704Y-130100390D01*
X196773609Y-130576580D02*
X196773609Y-129576580D01*
X197154561Y-129576580D01*
X197249800Y-129624200D01*
X197297419Y-129671819D01*
X197345038Y-129767057D01*
X197345038Y-129909914D01*
X197297419Y-130005152D01*
X197249800Y-130052771D01*
X197154561Y-130100390D01*
X196773609Y-130100390D01*
X223746961Y-139714076D02*
X223794580Y-139571219D01*
X223794580Y-139333123D01*
X223746961Y-139237885D01*
X223699342Y-139190266D01*
X223604104Y-139142647D01*
X223508866Y-139142647D01*
X223413628Y-139190266D01*
X223366009Y-139237885D01*
X223318390Y-139333123D01*
X223270771Y-139523600D01*
X223223152Y-139618838D01*
X223175533Y-139666457D01*
X223080295Y-139714076D01*
X222985057Y-139714076D01*
X222889819Y-139666457D01*
X222842200Y-139618838D01*
X222794580Y-139523600D01*
X222794580Y-139285504D01*
X222842200Y-139142647D01*
X223794580Y-138714076D02*
X222794580Y-138714076D01*
X222794580Y-138475980D01*
X222842200Y-138333123D01*
X222937438Y-138237885D01*
X223032676Y-138190266D01*
X223223152Y-138142647D01*
X223366009Y-138142647D01*
X223556485Y-138190266D01*
X223651723Y-138237885D01*
X223746961Y-138333123D01*
X223794580Y-138475980D01*
X223794580Y-138714076D01*
X223508866Y-137761695D02*
X223508866Y-137285504D01*
X223794580Y-137856933D02*
X222794580Y-137523600D01*
X223794580Y-137190266D01*
X222794580Y-136666457D02*
X222794580Y-136571219D01*
X222842200Y-136475980D01*
X222889819Y-136428361D01*
X222985057Y-136380742D01*
X223175533Y-136333123D01*
X223413628Y-136333123D01*
X223604104Y-136380742D01*
X223699342Y-136428361D01*
X223746961Y-136475980D01*
X223794580Y-136571219D01*
X223794580Y-136666457D01*
X223746961Y-136761695D01*
X223699342Y-136809314D01*
X223604104Y-136856933D01*
X223413628Y-136904552D01*
X223175533Y-136904552D01*
X222985057Y-136856933D01*
X222889819Y-136809314D01*
X222842200Y-136761695D01*
X222794580Y-136666457D01*
X205204961Y-139841076D02*
X205252580Y-139698219D01*
X205252580Y-139460123D01*
X205204961Y-139364885D01*
X205157342Y-139317266D01*
X205062104Y-139269647D01*
X204966866Y-139269647D01*
X204871628Y-139317266D01*
X204824009Y-139364885D01*
X204776390Y-139460123D01*
X204728771Y-139650600D01*
X204681152Y-139745838D01*
X204633533Y-139793457D01*
X204538295Y-139841076D01*
X204443057Y-139841076D01*
X204347819Y-139793457D01*
X204300200Y-139745838D01*
X204252580Y-139650600D01*
X204252580Y-139412504D01*
X204300200Y-139269647D01*
X205252580Y-138841076D02*
X204252580Y-138841076D01*
X204252580Y-138602980D01*
X204300200Y-138460123D01*
X204395438Y-138364885D01*
X204490676Y-138317266D01*
X204681152Y-138269647D01*
X204824009Y-138269647D01*
X205014485Y-138317266D01*
X205109723Y-138364885D01*
X205204961Y-138460123D01*
X205252580Y-138602980D01*
X205252580Y-138841076D01*
X204966866Y-137888695D02*
X204966866Y-137412504D01*
X205252580Y-137983933D02*
X204252580Y-137650600D01*
X205252580Y-137317266D01*
X205252580Y-136460123D02*
X205252580Y-137031552D01*
X205252580Y-136745838D02*
X204252580Y-136745838D01*
X204395438Y-136841076D01*
X204490676Y-136936314D01*
X204538295Y-137031552D01*
D12*
X176092757Y-137543902D02*
X176600757Y-137543902D01*
X176818471Y-138342188D02*
X176092757Y-138342188D01*
X176092757Y-136818188D01*
X176818471Y-136818188D01*
X178342471Y-138197045D02*
X178269900Y-138269617D01*
X178052185Y-138342188D01*
X177907042Y-138342188D01*
X177689328Y-138269617D01*
X177544185Y-138124474D01*
X177471614Y-137979331D01*
X177399042Y-137689045D01*
X177399042Y-137471331D01*
X177471614Y-137181045D01*
X177544185Y-137035902D01*
X177689328Y-136890760D01*
X177907042Y-136818188D01*
X178052185Y-136818188D01*
X178269900Y-136890760D01*
X178342471Y-136963331D01*
X178995614Y-137543902D02*
X179503614Y-137543902D01*
X179721328Y-138342188D02*
X178995614Y-138342188D01*
X178995614Y-136818188D01*
X179721328Y-136818188D01*
X181100185Y-138342188D02*
X180374471Y-138342188D01*
X180374471Y-136818188D01*
X182261328Y-138342188D02*
X182261328Y-137543902D01*
X182188757Y-137398760D01*
X182043614Y-137326188D01*
X181753328Y-137326188D01*
X181608185Y-137398760D01*
X182261328Y-138269617D02*
X182116185Y-138342188D01*
X181753328Y-138342188D01*
X181608185Y-138269617D01*
X181535614Y-138124474D01*
X181535614Y-137979331D01*
X181608185Y-137834188D01*
X181753328Y-137761617D01*
X182116185Y-137761617D01*
X182261328Y-137689045D01*
X182987042Y-138342188D02*
X182987042Y-136818188D01*
X182987042Y-137398760D02*
X183132185Y-137326188D01*
X183422471Y-137326188D01*
X183567614Y-137398760D01*
X183640185Y-137471331D01*
X183712757Y-137616474D01*
X183712757Y-138051902D01*
X183640185Y-138197045D01*
X183567614Y-138269617D01*
X183422471Y-138342188D01*
X183132185Y-138342188D01*
X182987042Y-138269617D01*
X184293328Y-138269617D02*
X184438471Y-138342188D01*
X184728757Y-138342188D01*
X184873900Y-138269617D01*
X184946471Y-138124474D01*
X184946471Y-138051902D01*
X184873900Y-137906760D01*
X184728757Y-137834188D01*
X184511042Y-137834188D01*
X184365900Y-137761617D01*
X184293328Y-137616474D01*
X184293328Y-137543902D01*
X184365900Y-137398760D01*
X184511042Y-137326188D01*
X184728757Y-137326188D01*
X184873900Y-137398760D01*
X186760757Y-138342188D02*
X186760757Y-136818188D01*
X187341328Y-136818188D01*
X187486471Y-136890760D01*
X187559042Y-136963331D01*
X187631614Y-137108474D01*
X187631614Y-137326188D01*
X187559042Y-137471331D01*
X187486471Y-137543902D01*
X187341328Y-137616474D01*
X186760757Y-137616474D01*
X189155614Y-138197045D02*
X189083042Y-138269617D01*
X188865328Y-138342188D01*
X188720185Y-138342188D01*
X188502471Y-138269617D01*
X188357328Y-138124474D01*
X188284757Y-137979331D01*
X188212185Y-137689045D01*
X188212185Y-137471331D01*
X188284757Y-137181045D01*
X188357328Y-137035902D01*
X188502471Y-136890760D01*
X188720185Y-136818188D01*
X188865328Y-136818188D01*
X189083042Y-136890760D01*
X189155614Y-136963331D01*
X190316757Y-137543902D02*
X190534471Y-137616474D01*
X190607042Y-137689045D01*
X190679614Y-137834188D01*
X190679614Y-138051902D01*
X190607042Y-138197045D01*
X190534471Y-138269617D01*
X190389328Y-138342188D01*
X189808757Y-138342188D01*
X189808757Y-136818188D01*
X190316757Y-136818188D01*
X190461900Y-136890760D01*
X190534471Y-136963331D01*
X190607042Y-137108474D01*
X190607042Y-137253617D01*
X190534471Y-137398760D01*
X190461900Y-137471331D01*
X190316757Y-137543902D01*
X189808757Y-137543902D01*
X192493900Y-138342188D02*
X192493900Y-136818188D01*
X192856757Y-136818188D01*
X193074471Y-136890760D01*
X193219614Y-137035902D01*
X193292185Y-137181045D01*
X193364757Y-137471331D01*
X193364757Y-137689045D01*
X193292185Y-137979331D01*
X193219614Y-138124474D01*
X193074471Y-138269617D01*
X192856757Y-138342188D01*
X192493900Y-138342188D01*
X194598471Y-138269617D02*
X194453328Y-138342188D01*
X194163042Y-138342188D01*
X194017900Y-138269617D01*
X193945328Y-138124474D01*
X193945328Y-137543902D01*
X194017900Y-137398760D01*
X194163042Y-137326188D01*
X194453328Y-137326188D01*
X194598471Y-137398760D01*
X194671042Y-137543902D01*
X194671042Y-137689045D01*
X193945328Y-137834188D01*
X195251614Y-138269617D02*
X195396757Y-138342188D01*
X195687042Y-138342188D01*
X195832185Y-138269617D01*
X195904757Y-138124474D01*
X195904757Y-138051902D01*
X195832185Y-137906760D01*
X195687042Y-137834188D01*
X195469328Y-137834188D01*
X195324185Y-137761617D01*
X195251614Y-137616474D01*
X195251614Y-137543902D01*
X195324185Y-137398760D01*
X195469328Y-137326188D01*
X195687042Y-137326188D01*
X195832185Y-137398760D01*
X196557900Y-138342188D02*
X196557900Y-137326188D01*
X196557900Y-136818188D02*
X196485328Y-136890760D01*
X196557900Y-136963331D01*
X196630471Y-136890760D01*
X196557900Y-136818188D01*
X196557900Y-136963331D01*
X197936757Y-137326188D02*
X197936757Y-138559902D01*
X197864185Y-138705045D01*
X197791614Y-138777617D01*
X197646471Y-138850188D01*
X197428757Y-138850188D01*
X197283614Y-138777617D01*
X197936757Y-138269617D02*
X197791614Y-138342188D01*
X197501328Y-138342188D01*
X197356185Y-138269617D01*
X197283614Y-138197045D01*
X197211042Y-138051902D01*
X197211042Y-137616474D01*
X197283614Y-137471331D01*
X197356185Y-137398760D01*
X197501328Y-137326188D01*
X197791614Y-137326188D01*
X197936757Y-137398760D01*
X198662471Y-137326188D02*
X198662471Y-138342188D01*
X198662471Y-137471331D02*
X198735042Y-137398760D01*
X198880185Y-137326188D01*
X199097900Y-137326188D01*
X199243042Y-137398760D01*
X199315614Y-137543902D01*
X199315614Y-138342188D01*
X201057328Y-137326188D02*
X201420185Y-138342188D01*
X201783042Y-137326188D01*
X202291042Y-136963331D02*
X202363614Y-136890760D01*
X202508757Y-136818188D01*
X202871614Y-136818188D01*
X203016757Y-136890760D01*
X203089328Y-136963331D01*
X203161900Y-137108474D01*
X203161900Y-137253617D01*
X203089328Y-137471331D01*
X202218471Y-138342188D01*
X203161900Y-138342188D01*
X176092757Y-140795828D02*
X176092757Y-139271828D01*
X176600757Y-140360400D01*
X177108757Y-139271828D01*
X177108757Y-140795828D01*
X177834471Y-140795828D02*
X177834471Y-139779828D01*
X177834471Y-139271828D02*
X177761900Y-139344400D01*
X177834471Y-139416971D01*
X177907042Y-139344400D01*
X177834471Y-139271828D01*
X177834471Y-139416971D01*
X178560185Y-139779828D02*
X178560185Y-140795828D01*
X178560185Y-139924971D02*
X178632757Y-139852400D01*
X178777900Y-139779828D01*
X178995614Y-139779828D01*
X179140757Y-139852400D01*
X179213328Y-139997542D01*
X179213328Y-140795828D01*
X179939042Y-140795828D02*
X179939042Y-139271828D01*
X180592185Y-140795828D02*
X180592185Y-139997542D01*
X180519614Y-139852400D01*
X180374471Y-139779828D01*
X180156757Y-139779828D01*
X180011614Y-139852400D01*
X179939042Y-139924971D01*
X182479042Y-140795828D02*
X182479042Y-139271828D01*
X183349900Y-140795828D01*
X183349900Y-139271828D01*
X184728757Y-139779828D02*
X184728757Y-141013542D01*
X184656185Y-141158685D01*
X184583614Y-141231257D01*
X184438471Y-141303828D01*
X184220757Y-141303828D01*
X184075614Y-141231257D01*
X184728757Y-140723257D02*
X184583614Y-140795828D01*
X184293328Y-140795828D01*
X184148185Y-140723257D01*
X184075614Y-140650685D01*
X184003042Y-140505542D01*
X184003042Y-140070114D01*
X184075614Y-139924971D01*
X184148185Y-139852400D01*
X184293328Y-139779828D01*
X184583614Y-139779828D01*
X184728757Y-139852400D01*
X186107614Y-139779828D02*
X186107614Y-140795828D01*
X185454471Y-139779828D02*
X185454471Y-140578114D01*
X185527042Y-140723257D01*
X185672185Y-140795828D01*
X185889900Y-140795828D01*
X186035042Y-140723257D01*
X186107614Y-140650685D01*
X186688185Y-139779828D02*
X187051042Y-140795828D01*
X187413900Y-139779828D02*
X187051042Y-140795828D01*
X186905900Y-141158685D01*
X186833328Y-141231257D01*
X186688185Y-141303828D01*
X188575042Y-140723257D02*
X188429900Y-140795828D01*
X188139614Y-140795828D01*
X187994471Y-140723257D01*
X187921900Y-140578114D01*
X187921900Y-139997542D01*
X187994471Y-139852400D01*
X188139614Y-139779828D01*
X188429900Y-139779828D01*
X188575042Y-139852400D01*
X188647614Y-139997542D01*
X188647614Y-140142685D01*
X187921900Y-140287828D01*
X189300757Y-139779828D02*
X189300757Y-140795828D01*
X189300757Y-139924971D02*
X189373328Y-139852400D01*
X189518471Y-139779828D01*
X189736185Y-139779828D01*
X189881328Y-139852400D01*
X189953900Y-139997542D01*
X189953900Y-140795828D01*
X176528185Y-141725468D02*
X176528185Y-142814040D01*
X176455614Y-143031754D01*
X176310471Y-143176897D01*
X176092757Y-143249468D01*
X175947614Y-143249468D01*
X177907042Y-142233468D02*
X177907042Y-143249468D01*
X177253900Y-142233468D02*
X177253900Y-143031754D01*
X177326471Y-143176897D01*
X177471614Y-143249468D01*
X177689328Y-143249468D01*
X177834471Y-143176897D01*
X177907042Y-143104325D01*
X178632757Y-142233468D02*
X178632757Y-143249468D01*
X178632757Y-142378611D02*
X178705328Y-142306040D01*
X178850471Y-142233468D01*
X179068185Y-142233468D01*
X179213328Y-142306040D01*
X179285900Y-142451182D01*
X179285900Y-143249468D01*
X179793900Y-142233468D02*
X180374471Y-142233468D01*
X180011614Y-143249468D02*
X180011614Y-141943182D01*
X180084185Y-141798040D01*
X180229328Y-141725468D01*
X180374471Y-141725468D01*
X181463042Y-143176897D02*
X181317900Y-143249468D01*
X181027614Y-143249468D01*
X180882471Y-143176897D01*
X180809900Y-143031754D01*
X180809900Y-142451182D01*
X180882471Y-142306040D01*
X181027614Y-142233468D01*
X181317900Y-142233468D01*
X181463042Y-142306040D01*
X181535614Y-142451182D01*
X181535614Y-142596325D01*
X180809900Y-142741468D01*
X182188757Y-143249468D02*
X182188757Y-142233468D01*
X182188757Y-141725468D02*
X182116185Y-141798040D01*
X182188757Y-141870611D01*
X182261328Y-141798040D01*
X182188757Y-141725468D01*
X182188757Y-141870611D01*
X184801328Y-143249468D02*
X184075614Y-143249468D01*
X184075614Y-141725468D01*
X185309328Y-143249468D02*
X185309328Y-142233468D01*
X185309328Y-141725468D02*
X185236757Y-141798040D01*
X185309328Y-141870611D01*
X185381900Y-141798040D01*
X185309328Y-141725468D01*
X185309328Y-141870611D01*
D10*
X225458400Y-142900304D02*
X225410780Y-142995542D01*
X225410780Y-143138400D01*
X225458400Y-143281257D01*
X225553638Y-143376495D01*
X225648876Y-143424114D01*
X225839352Y-143471733D01*
X225982209Y-143471733D01*
X226172685Y-143424114D01*
X226267923Y-143376495D01*
X226363161Y-143281257D01*
X226410780Y-143138400D01*
X226410780Y-143043161D01*
X226363161Y-142900304D01*
X226315542Y-142852685D01*
X225982209Y-142852685D01*
X225982209Y-143043161D01*
X226410780Y-142424114D02*
X225410780Y-142424114D01*
X226410780Y-141852685D01*
X225410780Y-141852685D01*
X226410780Y-141376495D02*
X225410780Y-141376495D01*
X225410780Y-141138400D01*
X225458400Y-140995542D01*
X225553638Y-140900304D01*
X225648876Y-140852685D01*
X225839352Y-140805066D01*
X225982209Y-140805066D01*
X226172685Y-140852685D01*
X226267923Y-140900304D01*
X226363161Y-140995542D01*
X226410780Y-141138400D01*
X226410780Y-141376495D01*
X242641380Y-74875685D02*
X241641380Y-74875685D01*
X241641380Y-74209019D02*
X241641380Y-74018542D01*
X241689000Y-73923304D01*
X241784238Y-73828066D01*
X241974714Y-73780447D01*
X242308047Y-73780447D01*
X242498523Y-73828066D01*
X242593761Y-73923304D01*
X242641380Y-74018542D01*
X242641380Y-74209019D01*
X242593761Y-74304257D01*
X242498523Y-74399495D01*
X242308047Y-74447114D01*
X241974714Y-74447114D01*
X241784238Y-74399495D01*
X241689000Y-74304257D01*
X241641380Y-74209019D01*
X242546142Y-73351876D02*
X242593761Y-73304257D01*
X242641380Y-73351876D01*
X242593761Y-73399495D01*
X242546142Y-73351876D01*
X242641380Y-73351876D01*
X242593761Y-72923304D02*
X242641380Y-72780447D01*
X242641380Y-72542352D01*
X242593761Y-72447114D01*
X242546142Y-72399495D01*
X242450904Y-72351876D01*
X242355666Y-72351876D01*
X242260428Y-72399495D01*
X242212809Y-72447114D01*
X242165190Y-72542352D01*
X242117571Y-72732828D01*
X242069952Y-72828066D01*
X242022333Y-72875685D01*
X241927095Y-72923304D01*
X241831857Y-72923304D01*
X241736619Y-72875685D01*
X241689000Y-72828066D01*
X241641380Y-72732828D01*
X241641380Y-72494733D01*
X241689000Y-72351876D01*
X242546142Y-71351876D02*
X242593761Y-71399495D01*
X242641380Y-71542352D01*
X242641380Y-71637590D01*
X242593761Y-71780447D01*
X242498523Y-71875685D01*
X242403285Y-71923304D01*
X242212809Y-71970923D01*
X242069952Y-71970923D01*
X241879476Y-71923304D01*
X241784238Y-71875685D01*
X241689000Y-71780447D01*
X241641380Y-71637590D01*
X241641380Y-71542352D01*
X241689000Y-71399495D01*
X241736619Y-71351876D01*
X242641380Y-70923304D02*
X241641380Y-70923304D01*
X242641380Y-70351876D02*
X242069952Y-70780447D01*
X241641380Y-70351876D02*
X242212809Y-70923304D01*
X241641380Y-69732828D02*
X241641380Y-69637590D01*
X241689000Y-69542352D01*
X241736619Y-69494733D01*
X241831857Y-69447114D01*
X242022333Y-69399495D01*
X242260428Y-69399495D01*
X242450904Y-69447114D01*
X242546142Y-69494733D01*
X242593761Y-69542352D01*
X242641380Y-69637590D01*
X242641380Y-69732828D01*
X242593761Y-69828066D01*
X242546142Y-69875685D01*
X242450904Y-69923304D01*
X242260428Y-69970923D01*
X242022333Y-69970923D01*
X241831857Y-69923304D01*
X241736619Y-69875685D01*
X241689000Y-69828066D01*
X241641380Y-69732828D01*
X206937171Y-99223580D02*
X206460980Y-99223580D01*
X206413361Y-99699771D01*
X206460980Y-99652152D01*
X206556219Y-99604533D01*
X206794314Y-99604533D01*
X206889552Y-99652152D01*
X206937171Y-99699771D01*
X206984790Y-99795009D01*
X206984790Y-100033104D01*
X206937171Y-100128342D01*
X206889552Y-100175961D01*
X206794314Y-100223580D01*
X206556219Y-100223580D01*
X206460980Y-100175961D01*
X206413361Y-100128342D01*
X207413361Y-100128342D02*
X207460980Y-100175961D01*
X207413361Y-100223580D01*
X207365742Y-100175961D01*
X207413361Y-100128342D01*
X207413361Y-100223580D01*
X207889552Y-100223580D02*
X207889552Y-99223580D01*
X208270504Y-99223580D01*
X208365742Y-99271200D01*
X208413361Y-99318819D01*
X208460980Y-99414057D01*
X208460980Y-99556914D01*
X208413361Y-99652152D01*
X208365742Y-99699771D01*
X208270504Y-99747390D01*
X207889552Y-99747390D01*
X208794314Y-99223580D02*
X209032409Y-100223580D01*
X209222885Y-99509295D01*
X209413361Y-100223580D01*
X209651457Y-99223580D01*
X210603838Y-100223580D02*
X210270504Y-99747390D01*
X210032409Y-100223580D02*
X210032409Y-99223580D01*
X210413361Y-99223580D01*
X210508600Y-99271200D01*
X210556219Y-99318819D01*
X210603838Y-99414057D01*
X210603838Y-99556914D01*
X210556219Y-99652152D01*
X210508600Y-99699771D01*
X210413361Y-99747390D01*
X210032409Y-99747390D01*
X204249400Y-128269904D02*
X204201780Y-128365142D01*
X204201780Y-128508000D01*
X204249400Y-128650857D01*
X204344638Y-128746095D01*
X204439876Y-128793714D01*
X204630352Y-128841333D01*
X204773209Y-128841333D01*
X204963685Y-128793714D01*
X205058923Y-128746095D01*
X205154161Y-128650857D01*
X205201780Y-128508000D01*
X205201780Y-128412761D01*
X205154161Y-128269904D01*
X205106542Y-128222285D01*
X204773209Y-128222285D01*
X204773209Y-128412761D01*
X205201780Y-127793714D02*
X204201780Y-127793714D01*
X205201780Y-127222285D01*
X204201780Y-127222285D01*
X205201780Y-126746095D02*
X204201780Y-126746095D01*
X204201780Y-126508000D01*
X204249400Y-126365142D01*
X204344638Y-126269904D01*
X204439876Y-126222285D01*
X204630352Y-126174666D01*
X204773209Y-126174666D01*
X204963685Y-126222285D01*
X205058923Y-126269904D01*
X205154161Y-126365142D01*
X205201780Y-126508000D01*
X205201780Y-126746095D01*
X225216980Y-74875685D02*
X224216980Y-74875685D01*
X224216980Y-74209019D02*
X224216980Y-74018542D01*
X224264600Y-73923304D01*
X224359838Y-73828066D01*
X224550314Y-73780447D01*
X224883647Y-73780447D01*
X225074123Y-73828066D01*
X225169361Y-73923304D01*
X225216980Y-74018542D01*
X225216980Y-74209019D01*
X225169361Y-74304257D01*
X225074123Y-74399495D01*
X224883647Y-74447114D01*
X224550314Y-74447114D01*
X224359838Y-74399495D01*
X224264600Y-74304257D01*
X224216980Y-74209019D01*
X225121742Y-73351876D02*
X225169361Y-73304257D01*
X225216980Y-73351876D01*
X225169361Y-73399495D01*
X225121742Y-73351876D01*
X225216980Y-73351876D01*
X225169361Y-72923304D02*
X225216980Y-72780447D01*
X225216980Y-72542352D01*
X225169361Y-72447114D01*
X225121742Y-72399495D01*
X225026504Y-72351876D01*
X224931266Y-72351876D01*
X224836028Y-72399495D01*
X224788409Y-72447114D01*
X224740790Y-72542352D01*
X224693171Y-72732828D01*
X224645552Y-72828066D01*
X224597933Y-72875685D01*
X224502695Y-72923304D01*
X224407457Y-72923304D01*
X224312219Y-72875685D01*
X224264600Y-72828066D01*
X224216980Y-72732828D01*
X224216980Y-72494733D01*
X224264600Y-72351876D01*
X225121742Y-71351876D02*
X225169361Y-71399495D01*
X225216980Y-71542352D01*
X225216980Y-71637590D01*
X225169361Y-71780447D01*
X225074123Y-71875685D01*
X224978885Y-71923304D01*
X224788409Y-71970923D01*
X224645552Y-71970923D01*
X224455076Y-71923304D01*
X224359838Y-71875685D01*
X224264600Y-71780447D01*
X224216980Y-71637590D01*
X224216980Y-71542352D01*
X224264600Y-71399495D01*
X224312219Y-71351876D01*
X225216980Y-70923304D02*
X224216980Y-70923304D01*
X225216980Y-70351876D02*
X224645552Y-70780447D01*
X224216980Y-70351876D02*
X224788409Y-70923304D01*
X225216980Y-69399495D02*
X225216980Y-69970923D01*
X225216980Y-69685209D02*
X224216980Y-69685209D01*
X224359838Y-69780447D01*
X224455076Y-69875685D01*
X224502695Y-69970923D01*
X250836180Y-143116276D02*
X250836180Y-143592466D01*
X251312371Y-143640085D01*
X251264752Y-143592466D01*
X251217133Y-143497228D01*
X251217133Y-143259133D01*
X251264752Y-143163895D01*
X251312371Y-143116276D01*
X251407609Y-143068657D01*
X251645704Y-143068657D01*
X251740942Y-143116276D01*
X251788561Y-143163895D01*
X251836180Y-143259133D01*
X251836180Y-143497228D01*
X251788561Y-143592466D01*
X251740942Y-143640085D01*
X250836180Y-142782942D02*
X251836180Y-142449609D01*
X250836180Y-142116276D01*
X237612180Y-74875685D02*
X236612180Y-74875685D01*
X236612180Y-74209019D02*
X236612180Y-74018542D01*
X236659800Y-73923304D01*
X236755038Y-73828066D01*
X236945514Y-73780447D01*
X237278847Y-73780447D01*
X237469323Y-73828066D01*
X237564561Y-73923304D01*
X237612180Y-74018542D01*
X237612180Y-74209019D01*
X237564561Y-74304257D01*
X237469323Y-74399495D01*
X237278847Y-74447114D01*
X236945514Y-74447114D01*
X236755038Y-74399495D01*
X236659800Y-74304257D01*
X236612180Y-74209019D01*
X237516942Y-73351876D02*
X237564561Y-73304257D01*
X237612180Y-73351876D01*
X237564561Y-73399495D01*
X237516942Y-73351876D01*
X237612180Y-73351876D01*
X237564561Y-72923304D02*
X237612180Y-72780447D01*
X237612180Y-72542352D01*
X237564561Y-72447114D01*
X237516942Y-72399495D01*
X237421704Y-72351876D01*
X237326466Y-72351876D01*
X237231228Y-72399495D01*
X237183609Y-72447114D01*
X237135990Y-72542352D01*
X237088371Y-72732828D01*
X237040752Y-72828066D01*
X236993133Y-72875685D01*
X236897895Y-72923304D01*
X236802657Y-72923304D01*
X236707419Y-72875685D01*
X236659800Y-72828066D01*
X236612180Y-72732828D01*
X236612180Y-72494733D01*
X236659800Y-72351876D01*
X237516942Y-71351876D02*
X237564561Y-71399495D01*
X237612180Y-71542352D01*
X237612180Y-71637590D01*
X237564561Y-71780447D01*
X237469323Y-71875685D01*
X237374085Y-71923304D01*
X237183609Y-71970923D01*
X237040752Y-71970923D01*
X236850276Y-71923304D01*
X236755038Y-71875685D01*
X236659800Y-71780447D01*
X236612180Y-71637590D01*
X236612180Y-71542352D01*
X236659800Y-71399495D01*
X236707419Y-71351876D01*
X237612180Y-70923304D02*
X236612180Y-70923304D01*
X237612180Y-70351876D02*
X237040752Y-70780447D01*
X236612180Y-70351876D02*
X237183609Y-70923304D01*
X237612180Y-69399495D02*
X237612180Y-69970923D01*
X237612180Y-69685209D02*
X236612180Y-69685209D01*
X236755038Y-69780447D01*
X236850276Y-69875685D01*
X236897895Y-69970923D01*
X232760780Y-74829657D02*
X231760780Y-74829657D01*
X231760780Y-74162990D02*
X231760780Y-73972514D01*
X231808400Y-73877276D01*
X231903638Y-73782038D01*
X232094114Y-73734419D01*
X232427447Y-73734419D01*
X232617923Y-73782038D01*
X232713161Y-73877276D01*
X232760780Y-73972514D01*
X232760780Y-74162990D01*
X232713161Y-74258228D01*
X232617923Y-74353466D01*
X232427447Y-74401085D01*
X232094114Y-74401085D01*
X231903638Y-74353466D01*
X231808400Y-74258228D01*
X231760780Y-74162990D01*
X232665542Y-73305847D02*
X232713161Y-73258228D01*
X232760780Y-73305847D01*
X232713161Y-73353466D01*
X232665542Y-73305847D01*
X232760780Y-73305847D01*
X232713161Y-72877276D02*
X232760780Y-72734419D01*
X232760780Y-72496323D01*
X232713161Y-72401085D01*
X232665542Y-72353466D01*
X232570304Y-72305847D01*
X232475066Y-72305847D01*
X232379828Y-72353466D01*
X232332209Y-72401085D01*
X232284590Y-72496323D01*
X232236971Y-72686800D01*
X232189352Y-72782038D01*
X232141733Y-72829657D01*
X232046495Y-72877276D01*
X231951257Y-72877276D01*
X231856019Y-72829657D01*
X231808400Y-72782038D01*
X231760780Y-72686800D01*
X231760780Y-72448704D01*
X231808400Y-72305847D01*
X232760780Y-71877276D02*
X231760780Y-71877276D01*
X231760780Y-71639180D01*
X231808400Y-71496323D01*
X231903638Y-71401085D01*
X231998876Y-71353466D01*
X232189352Y-71305847D01*
X232332209Y-71305847D01*
X232522685Y-71353466D01*
X232617923Y-71401085D01*
X232713161Y-71496323D01*
X232760780Y-71639180D01*
X232760780Y-71877276D01*
X232475066Y-70924895D02*
X232475066Y-70448704D01*
X232760780Y-71020133D02*
X231760780Y-70686800D01*
X232760780Y-70353466D01*
X231760780Y-69829657D02*
X231760780Y-69734419D01*
X231808400Y-69639180D01*
X231856019Y-69591561D01*
X231951257Y-69543942D01*
X232141733Y-69496323D01*
X232379828Y-69496323D01*
X232570304Y-69543942D01*
X232665542Y-69591561D01*
X232713161Y-69639180D01*
X232760780Y-69734419D01*
X232760780Y-69829657D01*
X232713161Y-69924895D01*
X232665542Y-69972514D01*
X232570304Y-70020133D01*
X232379828Y-70067752D01*
X232141733Y-70067752D01*
X231951257Y-70020133D01*
X231856019Y-69972514D01*
X231808400Y-69924895D01*
X231760780Y-69829657D01*
X230246180Y-74875685D02*
X229246180Y-74875685D01*
X229246180Y-74209019D02*
X229246180Y-74018542D01*
X229293800Y-73923304D01*
X229389038Y-73828066D01*
X229579514Y-73780447D01*
X229912847Y-73780447D01*
X230103323Y-73828066D01*
X230198561Y-73923304D01*
X230246180Y-74018542D01*
X230246180Y-74209019D01*
X230198561Y-74304257D01*
X230103323Y-74399495D01*
X229912847Y-74447114D01*
X229579514Y-74447114D01*
X229389038Y-74399495D01*
X229293800Y-74304257D01*
X229246180Y-74209019D01*
X230150942Y-73351876D02*
X230198561Y-73304257D01*
X230246180Y-73351876D01*
X230198561Y-73399495D01*
X230150942Y-73351876D01*
X230246180Y-73351876D01*
X230198561Y-72923304D02*
X230246180Y-72780447D01*
X230246180Y-72542352D01*
X230198561Y-72447114D01*
X230150942Y-72399495D01*
X230055704Y-72351876D01*
X229960466Y-72351876D01*
X229865228Y-72399495D01*
X229817609Y-72447114D01*
X229769990Y-72542352D01*
X229722371Y-72732828D01*
X229674752Y-72828066D01*
X229627133Y-72875685D01*
X229531895Y-72923304D01*
X229436657Y-72923304D01*
X229341419Y-72875685D01*
X229293800Y-72828066D01*
X229246180Y-72732828D01*
X229246180Y-72494733D01*
X229293800Y-72351876D01*
X230150942Y-71351876D02*
X230198561Y-71399495D01*
X230246180Y-71542352D01*
X230246180Y-71637590D01*
X230198561Y-71780447D01*
X230103323Y-71875685D01*
X230008085Y-71923304D01*
X229817609Y-71970923D01*
X229674752Y-71970923D01*
X229484276Y-71923304D01*
X229389038Y-71875685D01*
X229293800Y-71780447D01*
X229246180Y-71637590D01*
X229246180Y-71542352D01*
X229293800Y-71399495D01*
X229341419Y-71351876D01*
X230246180Y-70923304D02*
X229246180Y-70923304D01*
X230246180Y-70351876D02*
X229674752Y-70780447D01*
X229246180Y-70351876D02*
X229817609Y-70923304D01*
X229246180Y-69732828D02*
X229246180Y-69637590D01*
X229293800Y-69542352D01*
X229341419Y-69494733D01*
X229436657Y-69447114D01*
X229627133Y-69399495D01*
X229865228Y-69399495D01*
X230055704Y-69447114D01*
X230150942Y-69494733D01*
X230198561Y-69542352D01*
X230246180Y-69637590D01*
X230246180Y-69732828D01*
X230198561Y-69828066D01*
X230150942Y-69875685D01*
X230055704Y-69923304D01*
X229865228Y-69970923D01*
X229627133Y-69970923D01*
X229436657Y-69923304D01*
X229341419Y-69875685D01*
X229293800Y-69828066D01*
X229246180Y-69732828D01*
X217536780Y-143452695D02*
X217536780Y-142833647D01*
X217917733Y-143166980D01*
X217917733Y-143024123D01*
X217965352Y-142928885D01*
X218012971Y-142881266D01*
X218108209Y-142833647D01*
X218346304Y-142833647D01*
X218441542Y-142881266D01*
X218489161Y-142928885D01*
X218536780Y-143024123D01*
X218536780Y-143309838D01*
X218489161Y-143405076D01*
X218441542Y-143452695D01*
X217536780Y-142547933D02*
X218536780Y-142214600D01*
X217536780Y-141881266D01*
X217536780Y-141643171D02*
X217536780Y-141024123D01*
X217917733Y-141357457D01*
X217917733Y-141214600D01*
X217965352Y-141119361D01*
X218012971Y-141071742D01*
X218108209Y-141024123D01*
X218346304Y-141024123D01*
X218441542Y-141071742D01*
X218489161Y-141119361D01*
X218536780Y-141214600D01*
X218536780Y-141500314D01*
X218489161Y-141595552D01*
X218441542Y-141643171D01*
X222842200Y-128346104D02*
X222794580Y-128441342D01*
X222794580Y-128584200D01*
X222842200Y-128727057D01*
X222937438Y-128822295D01*
X223032676Y-128869914D01*
X223223152Y-128917533D01*
X223366009Y-128917533D01*
X223556485Y-128869914D01*
X223651723Y-128822295D01*
X223746961Y-128727057D01*
X223794580Y-128584200D01*
X223794580Y-128488961D01*
X223746961Y-128346104D01*
X223699342Y-128298485D01*
X223366009Y-128298485D01*
X223366009Y-128488961D01*
X223794580Y-127869914D02*
X222794580Y-127869914D01*
X223794580Y-127298485D01*
X222794580Y-127298485D01*
X223794580Y-126822295D02*
X222794580Y-126822295D01*
X222794580Y-126584200D01*
X222842200Y-126441342D01*
X222937438Y-126346104D01*
X223032676Y-126298485D01*
X223223152Y-126250866D01*
X223366009Y-126250866D01*
X223556485Y-126298485D01*
X223651723Y-126346104D01*
X223746961Y-126441342D01*
X223794580Y-126584200D01*
X223794580Y-126822295D01*
X240101380Y-74855057D02*
X239101380Y-74855057D01*
X239101380Y-74188390D02*
X239101380Y-73997914D01*
X239149000Y-73902676D01*
X239244238Y-73807438D01*
X239434714Y-73759819D01*
X239768047Y-73759819D01*
X239958523Y-73807438D01*
X240053761Y-73902676D01*
X240101380Y-73997914D01*
X240101380Y-74188390D01*
X240053761Y-74283628D01*
X239958523Y-74378866D01*
X239768047Y-74426485D01*
X239434714Y-74426485D01*
X239244238Y-74378866D01*
X239149000Y-74283628D01*
X239101380Y-74188390D01*
X240006142Y-73331247D02*
X240053761Y-73283628D01*
X240101380Y-73331247D01*
X240053761Y-73378866D01*
X240006142Y-73331247D01*
X240101380Y-73331247D01*
X240053761Y-72902676D02*
X240101380Y-72759819D01*
X240101380Y-72521723D01*
X240053761Y-72426485D01*
X240006142Y-72378866D01*
X239910904Y-72331247D01*
X239815666Y-72331247D01*
X239720428Y-72378866D01*
X239672809Y-72426485D01*
X239625190Y-72521723D01*
X239577571Y-72712200D01*
X239529952Y-72807438D01*
X239482333Y-72855057D01*
X239387095Y-72902676D01*
X239291857Y-72902676D01*
X239196619Y-72855057D01*
X239149000Y-72807438D01*
X239101380Y-72712200D01*
X239101380Y-72474104D01*
X239149000Y-72331247D01*
X240101380Y-71902676D02*
X239101380Y-71902676D01*
X239101380Y-71664580D01*
X239149000Y-71521723D01*
X239244238Y-71426485D01*
X239339476Y-71378866D01*
X239529952Y-71331247D01*
X239672809Y-71331247D01*
X239863285Y-71378866D01*
X239958523Y-71426485D01*
X240053761Y-71521723D01*
X240101380Y-71664580D01*
X240101380Y-71902676D01*
X239815666Y-70950295D02*
X239815666Y-70474104D01*
X240101380Y-71045533D02*
X239101380Y-70712200D01*
X240101380Y-70378866D01*
X240101380Y-69521723D02*
X240101380Y-70093152D01*
X240101380Y-69807438D02*
X239101380Y-69807438D01*
X239244238Y-69902676D01*
X239339476Y-69997914D01*
X239387095Y-70093152D01*
X207734066Y-91044780D02*
X207257876Y-91044780D01*
X207210257Y-91520971D01*
X207257876Y-91473352D01*
X207353114Y-91425733D01*
X207591209Y-91425733D01*
X207686447Y-91473352D01*
X207734066Y-91520971D01*
X207781685Y-91616209D01*
X207781685Y-91854304D01*
X207734066Y-91949542D01*
X207686447Y-91997161D01*
X207591209Y-92044780D01*
X207353114Y-92044780D01*
X207257876Y-91997161D01*
X207210257Y-91949542D01*
X208210257Y-91949542D02*
X208257876Y-91997161D01*
X208210257Y-92044780D01*
X208162638Y-91997161D01*
X208210257Y-91949542D01*
X208210257Y-92044780D01*
X208638828Y-91997161D02*
X208781685Y-92044780D01*
X209019780Y-92044780D01*
X209115019Y-91997161D01*
X209162638Y-91949542D01*
X209210257Y-91854304D01*
X209210257Y-91759066D01*
X209162638Y-91663828D01*
X209115019Y-91616209D01*
X209019780Y-91568590D01*
X208829304Y-91520971D01*
X208734066Y-91473352D01*
X208686447Y-91425733D01*
X208638828Y-91330495D01*
X208638828Y-91235257D01*
X208686447Y-91140019D01*
X208734066Y-91092400D01*
X208829304Y-91044780D01*
X209067400Y-91044780D01*
X209210257Y-91092400D01*
X209638828Y-91520971D02*
X209972161Y-91520971D01*
X210115019Y-92044780D02*
X209638828Y-92044780D01*
X209638828Y-91044780D01*
X210115019Y-91044780D01*
X211019780Y-92044780D02*
X210543590Y-92044780D01*
X210543590Y-91044780D01*
X250883800Y-140868304D02*
X250836180Y-140963542D01*
X250836180Y-141106400D01*
X250883800Y-141249257D01*
X250979038Y-141344495D01*
X251074276Y-141392114D01*
X251264752Y-141439733D01*
X251407609Y-141439733D01*
X251598085Y-141392114D01*
X251693323Y-141344495D01*
X251788561Y-141249257D01*
X251836180Y-141106400D01*
X251836180Y-141011161D01*
X251788561Y-140868304D01*
X251740942Y-140820685D01*
X251407609Y-140820685D01*
X251407609Y-141011161D01*
X251836180Y-140392114D02*
X250836180Y-140392114D01*
X251836180Y-139820685D01*
X250836180Y-139820685D01*
X251836180Y-139344495D02*
X250836180Y-139344495D01*
X250836180Y-139106400D01*
X250883800Y-138963542D01*
X250979038Y-138868304D01*
X251074276Y-138820685D01*
X251264752Y-138773066D01*
X251407609Y-138773066D01*
X251598085Y-138820685D01*
X251693323Y-138868304D01*
X251788561Y-138963542D01*
X251836180Y-139106400D01*
X251836180Y-139344495D01*
D11*
X209159504Y-75007476D02*
X208564266Y-75007476D01*
X208504742Y-75602714D01*
X208564266Y-75543190D01*
X208683314Y-75483666D01*
X208980933Y-75483666D01*
X209099980Y-75543190D01*
X209159504Y-75602714D01*
X209219028Y-75721761D01*
X209219028Y-76019380D01*
X209159504Y-76138428D01*
X209099980Y-76197952D01*
X208980933Y-76257476D01*
X208683314Y-76257476D01*
X208564266Y-76197952D01*
X208504742Y-76138428D01*
X209576171Y-75007476D02*
X209992838Y-76257476D01*
X210409504Y-75007476D01*
D10*
X188779304Y-126680980D02*
X189398352Y-126680980D01*
X189065019Y-127061933D01*
X189207876Y-127061933D01*
X189303114Y-127109552D01*
X189350733Y-127157171D01*
X189398352Y-127252409D01*
X189398352Y-127490504D01*
X189350733Y-127585742D01*
X189303114Y-127633361D01*
X189207876Y-127680980D01*
X188922161Y-127680980D01*
X188826923Y-127633361D01*
X188779304Y-127585742D01*
X189684066Y-126680980D02*
X190017400Y-127680980D01*
X190350733Y-126680980D01*
X190588828Y-126680980D02*
X191207876Y-126680980D01*
X190874542Y-127061933D01*
X191017400Y-127061933D01*
X191112638Y-127109552D01*
X191160257Y-127157171D01*
X191207876Y-127252409D01*
X191207876Y-127490504D01*
X191160257Y-127585742D01*
X191112638Y-127633361D01*
X191017400Y-127680980D01*
X190731685Y-127680980D01*
X190636447Y-127633361D01*
X190588828Y-127585742D01*
X188753904Y-124140980D02*
X189372952Y-124140980D01*
X189039619Y-124521933D01*
X189182476Y-124521933D01*
X189277714Y-124569552D01*
X189325333Y-124617171D01*
X189372952Y-124712409D01*
X189372952Y-124950504D01*
X189325333Y-125045742D01*
X189277714Y-125093361D01*
X189182476Y-125140980D01*
X188896761Y-125140980D01*
X188801523Y-125093361D01*
X188753904Y-125045742D01*
X189658666Y-124140980D02*
X189992000Y-125140980D01*
X190325333Y-124140980D01*
X190563428Y-124140980D02*
X191182476Y-124140980D01*
X190849142Y-124521933D01*
X190992000Y-124521933D01*
X191087238Y-124569552D01*
X191134857Y-124617171D01*
X191182476Y-124712409D01*
X191182476Y-124950504D01*
X191134857Y-125045742D01*
X191087238Y-125093361D01*
X190992000Y-125140980D01*
X190706285Y-125140980D01*
X190611047Y-125093361D01*
X190563428Y-125045742D01*
X245155980Y-74829657D02*
X244155980Y-74829657D01*
X244155980Y-74162990D02*
X244155980Y-73972514D01*
X244203600Y-73877276D01*
X244298838Y-73782038D01*
X244489314Y-73734419D01*
X244822647Y-73734419D01*
X245013123Y-73782038D01*
X245108361Y-73877276D01*
X245155980Y-73972514D01*
X245155980Y-74162990D01*
X245108361Y-74258228D01*
X245013123Y-74353466D01*
X244822647Y-74401085D01*
X244489314Y-74401085D01*
X244298838Y-74353466D01*
X244203600Y-74258228D01*
X244155980Y-74162990D01*
X245060742Y-73305847D02*
X245108361Y-73258228D01*
X245155980Y-73305847D01*
X245108361Y-73353466D01*
X245060742Y-73305847D01*
X245155980Y-73305847D01*
X245108361Y-72877276D02*
X245155980Y-72734419D01*
X245155980Y-72496323D01*
X245108361Y-72401085D01*
X245060742Y-72353466D01*
X244965504Y-72305847D01*
X244870266Y-72305847D01*
X244775028Y-72353466D01*
X244727409Y-72401085D01*
X244679790Y-72496323D01*
X244632171Y-72686800D01*
X244584552Y-72782038D01*
X244536933Y-72829657D01*
X244441695Y-72877276D01*
X244346457Y-72877276D01*
X244251219Y-72829657D01*
X244203600Y-72782038D01*
X244155980Y-72686800D01*
X244155980Y-72448704D01*
X244203600Y-72305847D01*
X245155980Y-71877276D02*
X244155980Y-71877276D01*
X244155980Y-71639180D01*
X244203600Y-71496323D01*
X244298838Y-71401085D01*
X244394076Y-71353466D01*
X244584552Y-71305847D01*
X244727409Y-71305847D01*
X244917885Y-71353466D01*
X245013123Y-71401085D01*
X245108361Y-71496323D01*
X245155980Y-71639180D01*
X245155980Y-71877276D01*
X244870266Y-70924895D02*
X244870266Y-70448704D01*
X245155980Y-71020133D02*
X244155980Y-70686800D01*
X245155980Y-70353466D01*
X244155980Y-69829657D02*
X244155980Y-69734419D01*
X244203600Y-69639180D01*
X244251219Y-69591561D01*
X244346457Y-69543942D01*
X244536933Y-69496323D01*
X244775028Y-69496323D01*
X244965504Y-69543942D01*
X245060742Y-69591561D01*
X245108361Y-69639180D01*
X245155980Y-69734419D01*
X245155980Y-69829657D01*
X245108361Y-69924895D01*
X245060742Y-69972514D01*
X244965504Y-70020133D01*
X244775028Y-70067752D01*
X244536933Y-70067752D01*
X244346457Y-70020133D01*
X244251219Y-69972514D01*
X244203600Y-69924895D01*
X244155980Y-69829657D01*
X202469904Y-93813380D02*
X203088952Y-93813380D01*
X202755619Y-94194333D01*
X202898476Y-94194333D01*
X202993714Y-94241952D01*
X203041333Y-94289571D01*
X203088952Y-94384809D01*
X203088952Y-94622904D01*
X203041333Y-94718142D01*
X202993714Y-94765761D01*
X202898476Y-94813380D01*
X202612761Y-94813380D01*
X202517523Y-94765761D01*
X202469904Y-94718142D01*
X203374666Y-93813380D02*
X203708000Y-94813380D01*
X204041333Y-93813380D01*
X204279428Y-93813380D02*
X204898476Y-93813380D01*
X204565142Y-94194333D01*
X204708000Y-94194333D01*
X204803238Y-94241952D01*
X204850857Y-94289571D01*
X204898476Y-94384809D01*
X204898476Y-94622904D01*
X204850857Y-94718142D01*
X204803238Y-94765761D01*
X204708000Y-94813380D01*
X204422285Y-94813380D01*
X204327047Y-94765761D01*
X204279428Y-94718142D01*
X202495304Y-96378780D02*
X203114352Y-96378780D01*
X202781019Y-96759733D01*
X202923876Y-96759733D01*
X203019114Y-96807352D01*
X203066733Y-96854971D01*
X203114352Y-96950209D01*
X203114352Y-97188304D01*
X203066733Y-97283542D01*
X203019114Y-97331161D01*
X202923876Y-97378780D01*
X202638161Y-97378780D01*
X202542923Y-97331161D01*
X202495304Y-97283542D01*
X203400066Y-96378780D02*
X203733400Y-97378780D01*
X204066733Y-96378780D01*
X204304828Y-96378780D02*
X204923876Y-96378780D01*
X204590542Y-96759733D01*
X204733400Y-96759733D01*
X204828638Y-96807352D01*
X204876257Y-96854971D01*
X204923876Y-96950209D01*
X204923876Y-97188304D01*
X204876257Y-97283542D01*
X204828638Y-97331161D01*
X204733400Y-97378780D01*
X204447685Y-97378780D01*
X204352447Y-97331161D01*
X204304828Y-97283542D01*
X193995847Y-121397780D02*
X193805371Y-121397780D01*
X193710133Y-121445400D01*
X193662514Y-121493019D01*
X193567276Y-121635876D01*
X193519657Y-121826352D01*
X193519657Y-122207304D01*
X193567276Y-122302542D01*
X193614895Y-122350161D01*
X193710133Y-122397780D01*
X193900609Y-122397780D01*
X193995847Y-122350161D01*
X194043466Y-122302542D01*
X194091085Y-122207304D01*
X194091085Y-121969209D01*
X194043466Y-121873971D01*
X193995847Y-121826352D01*
X193900609Y-121778733D01*
X193710133Y-121778733D01*
X193614895Y-121826352D01*
X193567276Y-121873971D01*
X193519657Y-121969209D01*
X194519657Y-122302542D02*
X194567276Y-122350161D01*
X194519657Y-122397780D01*
X194472038Y-122350161D01*
X194519657Y-122302542D01*
X194519657Y-122397780D01*
X194948228Y-122350161D02*
X195091085Y-122397780D01*
X195329180Y-122397780D01*
X195424419Y-122350161D01*
X195472038Y-122302542D01*
X195519657Y-122207304D01*
X195519657Y-122112066D01*
X195472038Y-122016828D01*
X195424419Y-121969209D01*
X195329180Y-121921590D01*
X195138704Y-121873971D01*
X195043466Y-121826352D01*
X194995847Y-121778733D01*
X194948228Y-121683495D01*
X194948228Y-121588257D01*
X194995847Y-121493019D01*
X195043466Y-121445400D01*
X195138704Y-121397780D01*
X195376800Y-121397780D01*
X195519657Y-121445400D01*
X195948228Y-121873971D02*
X196281561Y-121873971D01*
X196424419Y-122397780D02*
X195948228Y-122397780D01*
X195948228Y-121397780D01*
X196424419Y-121397780D01*
X197329180Y-122397780D02*
X196852990Y-122397780D01*
X196852990Y-121397780D01*
X205588514Y-117357380D02*
X205588514Y-118071666D01*
X205552800Y-118214523D01*
X205481371Y-118309761D01*
X205374228Y-118357380D01*
X205302800Y-118357380D01*
X206267085Y-117690714D02*
X206267085Y-118357380D01*
X206088514Y-117309761D02*
X205909942Y-118024047D01*
X206374228Y-118024047D01*
X206802800Y-117357380D02*
X206874228Y-117357380D01*
X206945657Y-117405000D01*
X206981371Y-117452619D01*
X207017085Y-117547857D01*
X207052800Y-117738333D01*
X207052800Y-117976428D01*
X207017085Y-118166904D01*
X206981371Y-118262142D01*
X206945657Y-118309761D01*
X206874228Y-118357380D01*
X206802800Y-118357380D01*
X206731371Y-118309761D01*
X206695657Y-118262142D01*
X206659942Y-118166904D01*
X206624228Y-117976428D01*
X206624228Y-117738333D01*
X206659942Y-117547857D01*
X206695657Y-117452619D01*
X206731371Y-117405000D01*
X206802800Y-117357380D01*
X207767085Y-118357380D02*
X207338514Y-118357380D01*
X207552800Y-118357380D02*
X207552800Y-117357380D01*
X207481371Y-117500238D01*
X207409942Y-117595476D01*
X207338514Y-117643095D01*
X210666514Y-128849380D02*
X210416514Y-128373190D01*
X210237942Y-128849380D02*
X210237942Y-127849380D01*
X210523657Y-127849380D01*
X210595085Y-127897000D01*
X210630800Y-127944619D01*
X210666514Y-128039857D01*
X210666514Y-128182714D01*
X210630800Y-128277952D01*
X210595085Y-128325571D01*
X210523657Y-128373190D01*
X210237942Y-128373190D01*
X211309371Y-128182714D02*
X211309371Y-128849380D01*
X211130800Y-127801761D02*
X210952228Y-128516047D01*
X211416514Y-128516047D01*
X211845085Y-127849380D02*
X211916514Y-127849380D01*
X211987942Y-127897000D01*
X212023657Y-127944619D01*
X212059371Y-128039857D01*
X212095085Y-128230333D01*
X212095085Y-128468428D01*
X212059371Y-128658904D01*
X212023657Y-128754142D01*
X211987942Y-128801761D01*
X211916514Y-128849380D01*
X211845085Y-128849380D01*
X211773657Y-128801761D01*
X211737942Y-128754142D01*
X211702228Y-128658904D01*
X211666514Y-128468428D01*
X211666514Y-128230333D01*
X211702228Y-128039857D01*
X211737942Y-127944619D01*
X211773657Y-127897000D01*
X211845085Y-127849380D01*
X212452228Y-128849380D02*
X212595085Y-128849380D01*
X212666514Y-128801761D01*
X212702228Y-128754142D01*
X212773657Y-128611285D01*
X212809371Y-128420809D01*
X212809371Y-128039857D01*
X212773657Y-127944619D01*
X212737942Y-127897000D01*
X212666514Y-127849380D01*
X212523657Y-127849380D01*
X212452228Y-127897000D01*
X212416514Y-127944619D01*
X212380800Y-128039857D01*
X212380800Y-128277952D01*
X212416514Y-128373190D01*
X212452228Y-128420809D01*
X212523657Y-128468428D01*
X212666514Y-128468428D01*
X212737942Y-128420809D01*
X212773657Y-128373190D01*
X212809371Y-128277952D01*
X209926180Y-127712285D02*
X209449990Y-127962285D01*
X209926180Y-128140857D02*
X208926180Y-128140857D01*
X208926180Y-127855142D01*
X208973800Y-127783714D01*
X209021419Y-127748000D01*
X209116657Y-127712285D01*
X209259514Y-127712285D01*
X209354752Y-127748000D01*
X209402371Y-127783714D01*
X209449990Y-127855142D01*
X209449990Y-128140857D01*
X209259514Y-127069428D02*
X209926180Y-127069428D01*
X208878561Y-127248000D02*
X209592847Y-127426571D01*
X209592847Y-126962285D01*
X209926180Y-126283714D02*
X209926180Y-126712285D01*
X209926180Y-126498000D02*
X208926180Y-126498000D01*
X209069038Y-126569428D01*
X209164276Y-126640857D01*
X209211895Y-126712285D01*
X208926180Y-125819428D02*
X208926180Y-125748000D01*
X208973800Y-125676571D01*
X209021419Y-125640857D01*
X209116657Y-125605142D01*
X209307133Y-125569428D01*
X209545228Y-125569428D01*
X209735704Y-125605142D01*
X209830942Y-125640857D01*
X209878561Y-125676571D01*
X209926180Y-125748000D01*
X209926180Y-125819428D01*
X209878561Y-125890857D01*
X209830942Y-125926571D01*
X209735704Y-125962285D01*
X209545228Y-125998000D01*
X209307133Y-125998000D01*
X209116657Y-125962285D01*
X209021419Y-125926571D01*
X208973800Y-125890857D01*
X208926180Y-125819428D01*
X205157390Y-80192428D02*
X205633580Y-80192428D01*
X204633580Y-80442428D02*
X205157390Y-80192428D01*
X204633580Y-79942428D01*
X204633580Y-79763857D02*
X204633580Y-79263857D01*
X205633580Y-79585285D01*
X204633580Y-78835285D02*
X204633580Y-78763857D01*
X204681200Y-78692428D01*
X204728819Y-78656714D01*
X204824057Y-78621000D01*
X205014533Y-78585285D01*
X205252628Y-78585285D01*
X205443104Y-78621000D01*
X205538342Y-78656714D01*
X205585961Y-78692428D01*
X205633580Y-78763857D01*
X205633580Y-78835285D01*
X205585961Y-78906714D01*
X205538342Y-78942428D01*
X205443104Y-78978142D01*
X205252628Y-79013857D01*
X205014533Y-79013857D01*
X204824057Y-78978142D01*
X204728819Y-78942428D01*
X204681200Y-78906714D01*
X204633580Y-78835285D01*
X205633580Y-77871000D02*
X205633580Y-78299571D01*
X205633580Y-78085285D02*
X204633580Y-78085285D01*
X204776438Y-78156714D01*
X204871676Y-78228142D01*
X204919295Y-78299571D01*
X216979257Y-107056180D02*
X216729257Y-106579990D01*
X216550685Y-107056180D02*
X216550685Y-106056180D01*
X216836400Y-106056180D01*
X216907828Y-106103800D01*
X216943542Y-106151419D01*
X216979257Y-106246657D01*
X216979257Y-106389514D01*
X216943542Y-106484752D01*
X216907828Y-106532371D01*
X216836400Y-106579990D01*
X216550685Y-106579990D01*
X217300685Y-107056180D02*
X217300685Y-106056180D01*
X217729257Y-107056180D01*
X217729257Y-106056180D01*
X218407828Y-106389514D02*
X218407828Y-107056180D01*
X218229257Y-106008561D02*
X218050685Y-106722847D01*
X218514971Y-106722847D01*
X218943542Y-106056180D02*
X219014971Y-106056180D01*
X219086400Y-106103800D01*
X219122114Y-106151419D01*
X219157828Y-106246657D01*
X219193542Y-106437133D01*
X219193542Y-106675228D01*
X219157828Y-106865704D01*
X219122114Y-106960942D01*
X219086400Y-107008561D01*
X219014971Y-107056180D01*
X218943542Y-107056180D01*
X218872114Y-107008561D01*
X218836400Y-106960942D01*
X218800685Y-106865704D01*
X218764971Y-106675228D01*
X218764971Y-106437133D01*
X218800685Y-106246657D01*
X218836400Y-106151419D01*
X218872114Y-106103800D01*
X218943542Y-106056180D01*
X219622114Y-106484752D02*
X219550685Y-106437133D01*
X219514971Y-106389514D01*
X219479257Y-106294276D01*
X219479257Y-106246657D01*
X219514971Y-106151419D01*
X219550685Y-106103800D01*
X219622114Y-106056180D01*
X219764971Y-106056180D01*
X219836400Y-106103800D01*
X219872114Y-106151419D01*
X219907828Y-106246657D01*
X219907828Y-106294276D01*
X219872114Y-106389514D01*
X219836400Y-106437133D01*
X219764971Y-106484752D01*
X219622114Y-106484752D01*
X219550685Y-106532371D01*
X219514971Y-106579990D01*
X219479257Y-106675228D01*
X219479257Y-106865704D01*
X219514971Y-106960942D01*
X219550685Y-107008561D01*
X219622114Y-107056180D01*
X219764971Y-107056180D01*
X219836400Y-107008561D01*
X219872114Y-106960942D01*
X219907828Y-106865704D01*
X219907828Y-106675228D01*
X219872114Y-106579990D01*
X219836400Y-106532371D01*
X219764971Y-106484752D01*
X255966980Y-83869885D02*
X256681266Y-83869885D01*
X256824123Y-83905600D01*
X256919361Y-83977028D01*
X256966980Y-84084171D01*
X256966980Y-84155600D01*
X256062219Y-83548457D02*
X256014600Y-83512742D01*
X255966980Y-83441314D01*
X255966980Y-83262742D01*
X256014600Y-83191314D01*
X256062219Y-83155600D01*
X256157457Y-83119885D01*
X256252695Y-83119885D01*
X256395552Y-83155600D01*
X256966980Y-83584171D01*
X256966980Y-83119885D01*
X255966980Y-82655600D02*
X255966980Y-82584171D01*
X256014600Y-82512742D01*
X256062219Y-82477028D01*
X256157457Y-82441314D01*
X256347933Y-82405600D01*
X256586028Y-82405600D01*
X256776504Y-82441314D01*
X256871742Y-82477028D01*
X256919361Y-82512742D01*
X256966980Y-82584171D01*
X256966980Y-82655600D01*
X256919361Y-82727028D01*
X256871742Y-82762742D01*
X256776504Y-82798457D01*
X256586028Y-82834171D01*
X256347933Y-82834171D01*
X256157457Y-82798457D01*
X256062219Y-82762742D01*
X256014600Y-82727028D01*
X255966980Y-82655600D01*
X256966980Y-81691314D02*
X256966980Y-82119885D01*
X256966980Y-81905600D02*
X255966980Y-81905600D01*
X256109838Y-81977028D01*
X256205076Y-82048457D01*
X256252695Y-82119885D01*
X215869780Y-80138085D02*
X215393590Y-80388085D01*
X215869780Y-80566657D02*
X214869780Y-80566657D01*
X214869780Y-80280942D01*
X214917400Y-80209514D01*
X214965019Y-80173800D01*
X215060257Y-80138085D01*
X215203114Y-80138085D01*
X215298352Y-80173800D01*
X215345971Y-80209514D01*
X215393590Y-80280942D01*
X215393590Y-80566657D01*
X214869780Y-79888085D02*
X214869780Y-79388085D01*
X215869780Y-79709514D01*
X214869780Y-78959514D02*
X214869780Y-78888085D01*
X214917400Y-78816657D01*
X214965019Y-78780942D01*
X215060257Y-78745228D01*
X215250733Y-78709514D01*
X215488828Y-78709514D01*
X215679304Y-78745228D01*
X215774542Y-78780942D01*
X215822161Y-78816657D01*
X215869780Y-78888085D01*
X215869780Y-78959514D01*
X215822161Y-79030942D01*
X215774542Y-79066657D01*
X215679304Y-79102371D01*
X215488828Y-79138085D01*
X215250733Y-79138085D01*
X215060257Y-79102371D01*
X214965019Y-79066657D01*
X214917400Y-79030942D01*
X214869780Y-78959514D01*
X214869780Y-78459514D02*
X214869780Y-77959514D01*
X215869780Y-78280942D01*
X182951380Y-80998457D02*
X181951380Y-80998457D01*
X181951380Y-80819885D01*
X181999000Y-80712742D01*
X182094238Y-80641314D01*
X182189476Y-80605600D01*
X182379952Y-80569885D01*
X182522809Y-80569885D01*
X182713285Y-80605600D01*
X182808523Y-80641314D01*
X182903761Y-80712742D01*
X182951380Y-80819885D01*
X182951380Y-80998457D01*
X182046619Y-80284171D02*
X181999000Y-80248457D01*
X181951380Y-80177028D01*
X181951380Y-79998457D01*
X181999000Y-79927028D01*
X182046619Y-79891314D01*
X182141857Y-79855600D01*
X182237095Y-79855600D01*
X182379952Y-79891314D01*
X182951380Y-80319885D01*
X182951380Y-79855600D01*
X181951380Y-79391314D02*
X181951380Y-79319885D01*
X181999000Y-79248457D01*
X182046619Y-79212742D01*
X182141857Y-79177028D01*
X182332333Y-79141314D01*
X182570428Y-79141314D01*
X182760904Y-79177028D01*
X182856142Y-79212742D01*
X182903761Y-79248457D01*
X182951380Y-79319885D01*
X182951380Y-79391314D01*
X182903761Y-79462742D01*
X182856142Y-79498457D01*
X182760904Y-79534171D01*
X182570428Y-79569885D01*
X182332333Y-79569885D01*
X182141857Y-79534171D01*
X182046619Y-79498457D01*
X181999000Y-79462742D01*
X181951380Y-79391314D01*
X181951380Y-78891314D02*
X181951380Y-78427028D01*
X182332333Y-78677028D01*
X182332333Y-78569885D01*
X182379952Y-78498457D01*
X182427571Y-78462742D01*
X182522809Y-78427028D01*
X182760904Y-78427028D01*
X182856142Y-78462742D01*
X182903761Y-78498457D01*
X182951380Y-78569885D01*
X182951380Y-78784171D01*
X182903761Y-78855600D01*
X182856142Y-78891314D01*
X221499180Y-143799114D02*
X221499180Y-143370542D01*
X222499180Y-143584828D02*
X221499180Y-143584828D01*
X222499180Y-143120542D02*
X221499180Y-143120542D01*
X221499180Y-142834828D01*
X221546800Y-142763400D01*
X221594419Y-142727685D01*
X221689657Y-142691971D01*
X221832514Y-142691971D01*
X221927752Y-142727685D01*
X221975371Y-142763400D01*
X222022990Y-142834828D01*
X222022990Y-143120542D01*
X221594419Y-142406257D02*
X221546800Y-142370542D01*
X221499180Y-142299114D01*
X221499180Y-142120542D01*
X221546800Y-142049114D01*
X221594419Y-142013400D01*
X221689657Y-141977685D01*
X221784895Y-141977685D01*
X221927752Y-142013400D01*
X222499180Y-142441971D01*
X222499180Y-141977685D01*
X221499180Y-141513400D02*
X221499180Y-141441971D01*
X221546800Y-141370542D01*
X221594419Y-141334828D01*
X221689657Y-141299114D01*
X221880133Y-141263400D01*
X222118228Y-141263400D01*
X222308704Y-141299114D01*
X222403942Y-141334828D01*
X222451561Y-141370542D01*
X222499180Y-141441971D01*
X222499180Y-141513400D01*
X222451561Y-141584828D01*
X222403942Y-141620542D01*
X222308704Y-141656257D01*
X222118228Y-141691971D01*
X221880133Y-141691971D01*
X221689657Y-141656257D01*
X221594419Y-141620542D01*
X221546800Y-141584828D01*
X221499180Y-141513400D01*
X222499180Y-140549114D02*
X222499180Y-140977685D01*
X222499180Y-140763400D02*
X221499180Y-140763400D01*
X221642038Y-140834828D01*
X221737276Y-140906257D01*
X221784895Y-140977685D01*
X245654580Y-143661485D02*
X246368866Y-143661485D01*
X246511723Y-143697200D01*
X246606961Y-143768628D01*
X246654580Y-143875771D01*
X246654580Y-143947200D01*
X245749819Y-143340057D02*
X245702200Y-143304342D01*
X245654580Y-143232914D01*
X245654580Y-143054342D01*
X245702200Y-142982914D01*
X245749819Y-142947200D01*
X245845057Y-142911485D01*
X245940295Y-142911485D01*
X246083152Y-142947200D01*
X246654580Y-143375771D01*
X246654580Y-142911485D01*
X245654580Y-142447200D02*
X245654580Y-142375771D01*
X245702200Y-142304342D01*
X245749819Y-142268628D01*
X245845057Y-142232914D01*
X246035533Y-142197200D01*
X246273628Y-142197200D01*
X246464104Y-142232914D01*
X246559342Y-142268628D01*
X246606961Y-142304342D01*
X246654580Y-142375771D01*
X246654580Y-142447200D01*
X246606961Y-142518628D01*
X246559342Y-142554342D01*
X246464104Y-142590057D01*
X246273628Y-142625771D01*
X246035533Y-142625771D01*
X245845057Y-142590057D01*
X245749819Y-142554342D01*
X245702200Y-142518628D01*
X245654580Y-142447200D01*
X245654580Y-141947200D02*
X245654580Y-141482914D01*
X246035533Y-141732914D01*
X246035533Y-141625771D01*
X246083152Y-141554342D01*
X246130771Y-141518628D01*
X246226009Y-141482914D01*
X246464104Y-141482914D01*
X246559342Y-141518628D01*
X246606961Y-141554342D01*
X246654580Y-141625771D01*
X246654580Y-141840057D01*
X246606961Y-141911485D01*
X246559342Y-141947200D01*
X202489714Y-84694780D02*
X202489714Y-85409066D01*
X202454000Y-85551923D01*
X202382571Y-85647161D01*
X202275428Y-85694780D01*
X202204000Y-85694780D01*
X202775428Y-84694780D02*
X203239714Y-84694780D01*
X202989714Y-85075733D01*
X203096857Y-85075733D01*
X203168285Y-85123352D01*
X203204000Y-85170971D01*
X203239714Y-85266209D01*
X203239714Y-85504304D01*
X203204000Y-85599542D01*
X203168285Y-85647161D01*
X203096857Y-85694780D01*
X202882571Y-85694780D01*
X202811142Y-85647161D01*
X202775428Y-85599542D01*
X203704000Y-84694780D02*
X203775428Y-84694780D01*
X203846857Y-84742400D01*
X203882571Y-84790019D01*
X203918285Y-84885257D01*
X203954000Y-85075733D01*
X203954000Y-85313828D01*
X203918285Y-85504304D01*
X203882571Y-85599542D01*
X203846857Y-85647161D01*
X203775428Y-85694780D01*
X203704000Y-85694780D01*
X203632571Y-85647161D01*
X203596857Y-85599542D01*
X203561142Y-85504304D01*
X203525428Y-85313828D01*
X203525428Y-85075733D01*
X203561142Y-84885257D01*
X203596857Y-84790019D01*
X203632571Y-84742400D01*
X203704000Y-84694780D01*
X204668285Y-85694780D02*
X204239714Y-85694780D01*
X204454000Y-85694780D02*
X204454000Y-84694780D01*
X204382571Y-84837638D01*
X204311142Y-84932876D01*
X204239714Y-84980495D01*
X212810885Y-91806780D02*
X212810885Y-92616304D01*
X212846600Y-92711542D01*
X212882314Y-92759161D01*
X212953742Y-92806780D01*
X213096600Y-92806780D01*
X213168028Y-92759161D01*
X213203742Y-92711542D01*
X213239457Y-92616304D01*
X213239457Y-91806780D01*
X213918028Y-92140114D02*
X213918028Y-92806780D01*
X213739457Y-91759161D02*
X213560885Y-92473447D01*
X214025171Y-92473447D01*
X214453742Y-91806780D02*
X214525171Y-91806780D01*
X214596600Y-91854400D01*
X214632314Y-91902019D01*
X214668028Y-91997257D01*
X214703742Y-92187733D01*
X214703742Y-92425828D01*
X214668028Y-92616304D01*
X214632314Y-92711542D01*
X214596600Y-92759161D01*
X214525171Y-92806780D01*
X214453742Y-92806780D01*
X214382314Y-92759161D01*
X214346600Y-92711542D01*
X214310885Y-92616304D01*
X214275171Y-92425828D01*
X214275171Y-92187733D01*
X214310885Y-91997257D01*
X214346600Y-91902019D01*
X214382314Y-91854400D01*
X214453742Y-91806780D01*
X215060885Y-92806780D02*
X215203742Y-92806780D01*
X215275171Y-92759161D01*
X215310885Y-92711542D01*
X215382314Y-92568685D01*
X215418028Y-92378209D01*
X215418028Y-91997257D01*
X215382314Y-91902019D01*
X215346600Y-91854400D01*
X215275171Y-91806780D01*
X215132314Y-91806780D01*
X215060885Y-91854400D01*
X215025171Y-91902019D01*
X214989457Y-91997257D01*
X214989457Y-92235352D01*
X215025171Y-92330590D01*
X215060885Y-92378209D01*
X215132314Y-92425828D01*
X215275171Y-92425828D01*
X215346600Y-92378209D01*
X215382314Y-92330590D01*
X215418028Y-92235352D01*
X222212380Y-102575714D02*
X223021904Y-102575714D01*
X223117142Y-102540000D01*
X223164761Y-102504285D01*
X223212380Y-102432857D01*
X223212380Y-102290000D01*
X223164761Y-102218571D01*
X223117142Y-102182857D01*
X223021904Y-102147142D01*
X222212380Y-102147142D01*
X222545714Y-101468571D02*
X223212380Y-101468571D01*
X222164761Y-101647142D02*
X222879047Y-101825714D01*
X222879047Y-101361428D01*
X222212380Y-100932857D02*
X222212380Y-100861428D01*
X222260000Y-100790000D01*
X222307619Y-100754285D01*
X222402857Y-100718571D01*
X222593333Y-100682857D01*
X222831428Y-100682857D01*
X223021904Y-100718571D01*
X223117142Y-100754285D01*
X223164761Y-100790000D01*
X223212380Y-100861428D01*
X223212380Y-100932857D01*
X223164761Y-101004285D01*
X223117142Y-101040000D01*
X223021904Y-101075714D01*
X222831428Y-101111428D01*
X222593333Y-101111428D01*
X222402857Y-101075714D01*
X222307619Y-101040000D01*
X222260000Y-101004285D01*
X222212380Y-100932857D01*
X222212380Y-100040000D02*
X222212380Y-100182857D01*
X222260000Y-100254285D01*
X222307619Y-100290000D01*
X222450476Y-100361428D01*
X222640952Y-100397142D01*
X223021904Y-100397142D01*
X223117142Y-100361428D01*
X223164761Y-100325714D01*
X223212380Y-100254285D01*
X223212380Y-100111428D01*
X223164761Y-100040000D01*
X223117142Y-100004285D01*
X223021904Y-99968571D01*
X222783809Y-99968571D01*
X222688571Y-100004285D01*
X222640952Y-100040000D01*
X222593333Y-100111428D01*
X222593333Y-100254285D01*
X222640952Y-100325714D01*
X222688571Y-100361428D01*
X222783809Y-100397142D01*
X216514371Y-85794285D02*
X216514371Y-86044285D01*
X217038180Y-86044285D02*
X216038180Y-86044285D01*
X216038180Y-85687142D01*
X216514371Y-85151428D02*
X216561990Y-85044285D01*
X216609609Y-85008571D01*
X216704847Y-84972857D01*
X216847704Y-84972857D01*
X216942942Y-85008571D01*
X216990561Y-85044285D01*
X217038180Y-85115714D01*
X217038180Y-85401428D01*
X216038180Y-85401428D01*
X216038180Y-85151428D01*
X216085800Y-85080000D01*
X216133419Y-85044285D01*
X216228657Y-85008571D01*
X216323895Y-85008571D01*
X216419133Y-85044285D01*
X216466752Y-85080000D01*
X216514371Y-85151428D01*
X216514371Y-85401428D01*
X216038180Y-84722857D02*
X216038180Y-84222857D01*
X217038180Y-84544285D01*
X216038180Y-83794285D02*
X216038180Y-83722857D01*
X216085800Y-83651428D01*
X216133419Y-83615714D01*
X216228657Y-83580000D01*
X216419133Y-83544285D01*
X216657228Y-83544285D01*
X216847704Y-83580000D01*
X216942942Y-83615714D01*
X216990561Y-83651428D01*
X217038180Y-83722857D01*
X217038180Y-83794285D01*
X216990561Y-83865714D01*
X216942942Y-83901428D01*
X216847704Y-83937142D01*
X216657228Y-83972857D01*
X216419133Y-83972857D01*
X216228657Y-83937142D01*
X216133419Y-83901428D01*
X216085800Y-83865714D01*
X216038180Y-83794285D01*
X216133419Y-83258571D02*
X216085800Y-83222857D01*
X216038180Y-83151428D01*
X216038180Y-82972857D01*
X216085800Y-82901428D01*
X216133419Y-82865714D01*
X216228657Y-82830000D01*
X216323895Y-82830000D01*
X216466752Y-82865714D01*
X217038180Y-83294285D01*
X217038180Y-82830000D01*
X182658314Y-73537771D02*
X182408314Y-73537771D01*
X182408314Y-74061580D02*
X182408314Y-73061580D01*
X182765457Y-73061580D01*
X183301171Y-73537771D02*
X183408314Y-73585390D01*
X183444028Y-73633009D01*
X183479742Y-73728247D01*
X183479742Y-73871104D01*
X183444028Y-73966342D01*
X183408314Y-74013961D01*
X183336885Y-74061580D01*
X183051171Y-74061580D01*
X183051171Y-73061580D01*
X183301171Y-73061580D01*
X183372600Y-73109200D01*
X183408314Y-73156819D01*
X183444028Y-73252057D01*
X183444028Y-73347295D01*
X183408314Y-73442533D01*
X183372600Y-73490152D01*
X183301171Y-73537771D01*
X183051171Y-73537771D01*
X183729742Y-73061580D02*
X184194028Y-73061580D01*
X183944028Y-73442533D01*
X184051171Y-73442533D01*
X184122600Y-73490152D01*
X184158314Y-73537771D01*
X184194028Y-73633009D01*
X184194028Y-73871104D01*
X184158314Y-73966342D01*
X184122600Y-74013961D01*
X184051171Y-74061580D01*
X183836885Y-74061580D01*
X183765457Y-74013961D01*
X183729742Y-73966342D01*
X184658314Y-73061580D02*
X184729742Y-73061580D01*
X184801171Y-73109200D01*
X184836885Y-73156819D01*
X184872600Y-73252057D01*
X184908314Y-73442533D01*
X184908314Y-73680628D01*
X184872600Y-73871104D01*
X184836885Y-73966342D01*
X184801171Y-74013961D01*
X184729742Y-74061580D01*
X184658314Y-74061580D01*
X184586885Y-74013961D01*
X184551171Y-73966342D01*
X184515457Y-73871104D01*
X184479742Y-73680628D01*
X184479742Y-73442533D01*
X184515457Y-73252057D01*
X184551171Y-73156819D01*
X184586885Y-73109200D01*
X184658314Y-73061580D01*
X185622600Y-74061580D02*
X185194028Y-74061580D01*
X185408314Y-74061580D02*
X185408314Y-73061580D01*
X185336885Y-73204438D01*
X185265457Y-73299676D01*
X185194028Y-73347295D01*
X206700380Y-74092885D02*
X206224190Y-74342885D01*
X206700380Y-74521457D02*
X205700380Y-74521457D01*
X205700380Y-74235742D01*
X205748000Y-74164314D01*
X205795619Y-74128600D01*
X205890857Y-74092885D01*
X206033714Y-74092885D01*
X206128952Y-74128600D01*
X206176571Y-74164314D01*
X206224190Y-74235742D01*
X206224190Y-74521457D01*
X205795619Y-73807171D02*
X205748000Y-73771457D01*
X205700380Y-73700028D01*
X205700380Y-73521457D01*
X205748000Y-73450028D01*
X205795619Y-73414314D01*
X205890857Y-73378600D01*
X205986095Y-73378600D01*
X206128952Y-73414314D01*
X206700380Y-73842885D01*
X206700380Y-73378600D01*
X205700380Y-72914314D02*
X205700380Y-72842885D01*
X205748000Y-72771457D01*
X205795619Y-72735742D01*
X205890857Y-72700028D01*
X206081333Y-72664314D01*
X206319428Y-72664314D01*
X206509904Y-72700028D01*
X206605142Y-72735742D01*
X206652761Y-72771457D01*
X206700380Y-72842885D01*
X206700380Y-72914314D01*
X206652761Y-72985742D01*
X206605142Y-73021457D01*
X206509904Y-73057171D01*
X206319428Y-73092885D01*
X206081333Y-73092885D01*
X205890857Y-73057171D01*
X205795619Y-73021457D01*
X205748000Y-72985742D01*
X205700380Y-72914314D01*
X206033714Y-72021457D02*
X206700380Y-72021457D01*
X205652761Y-72200028D02*
X206367047Y-72378600D01*
X206367047Y-71914314D01*
X187908114Y-70054742D02*
X187872400Y-70102361D01*
X187765257Y-70149980D01*
X187693828Y-70149980D01*
X187586685Y-70102361D01*
X187515257Y-70007123D01*
X187479542Y-69911885D01*
X187443828Y-69721409D01*
X187443828Y-69578552D01*
X187479542Y-69388076D01*
X187515257Y-69292838D01*
X187586685Y-69197600D01*
X187693828Y-69149980D01*
X187765257Y-69149980D01*
X187872400Y-69197600D01*
X187908114Y-69245219D01*
X188158114Y-69149980D02*
X188622400Y-69149980D01*
X188372400Y-69530933D01*
X188479542Y-69530933D01*
X188550971Y-69578552D01*
X188586685Y-69626171D01*
X188622400Y-69721409D01*
X188622400Y-69959504D01*
X188586685Y-70054742D01*
X188550971Y-70102361D01*
X188479542Y-70149980D01*
X188265257Y-70149980D01*
X188193828Y-70102361D01*
X188158114Y-70054742D01*
X189086685Y-69149980D02*
X189158114Y-69149980D01*
X189229542Y-69197600D01*
X189265257Y-69245219D01*
X189300971Y-69340457D01*
X189336685Y-69530933D01*
X189336685Y-69769028D01*
X189300971Y-69959504D01*
X189265257Y-70054742D01*
X189229542Y-70102361D01*
X189158114Y-70149980D01*
X189086685Y-70149980D01*
X189015257Y-70102361D01*
X188979542Y-70054742D01*
X188943828Y-69959504D01*
X188908114Y-69769028D01*
X188908114Y-69530933D01*
X188943828Y-69340457D01*
X188979542Y-69245219D01*
X189015257Y-69197600D01*
X189086685Y-69149980D01*
X190015257Y-69149980D02*
X189658114Y-69149980D01*
X189622400Y-69626171D01*
X189658114Y-69578552D01*
X189729542Y-69530933D01*
X189908114Y-69530933D01*
X189979542Y-69578552D01*
X190015257Y-69626171D01*
X190050971Y-69721409D01*
X190050971Y-69959504D01*
X190015257Y-70054742D01*
X189979542Y-70102361D01*
X189908114Y-70149980D01*
X189729542Y-70149980D01*
X189658114Y-70102361D01*
X189622400Y-70054742D01*
X244784571Y-133317685D02*
X244784571Y-133567685D01*
X245308380Y-133567685D02*
X244308380Y-133567685D01*
X244308380Y-133210542D01*
X244784571Y-132674828D02*
X244832190Y-132567685D01*
X244879809Y-132531971D01*
X244975047Y-132496257D01*
X245117904Y-132496257D01*
X245213142Y-132531971D01*
X245260761Y-132567685D01*
X245308380Y-132639114D01*
X245308380Y-132924828D01*
X244308380Y-132924828D01*
X244308380Y-132674828D01*
X244356000Y-132603400D01*
X244403619Y-132567685D01*
X244498857Y-132531971D01*
X244594095Y-132531971D01*
X244689333Y-132567685D01*
X244736952Y-132603400D01*
X244784571Y-132674828D01*
X244784571Y-132924828D01*
X244403619Y-132210542D02*
X244356000Y-132174828D01*
X244308380Y-132103400D01*
X244308380Y-131924828D01*
X244356000Y-131853400D01*
X244403619Y-131817685D01*
X244498857Y-131781971D01*
X244594095Y-131781971D01*
X244736952Y-131817685D01*
X245308380Y-132246257D01*
X245308380Y-131781971D01*
X244308380Y-131317685D02*
X244308380Y-131246257D01*
X244356000Y-131174828D01*
X244403619Y-131139114D01*
X244498857Y-131103400D01*
X244689333Y-131067685D01*
X244927428Y-131067685D01*
X245117904Y-131103400D01*
X245213142Y-131139114D01*
X245260761Y-131174828D01*
X245308380Y-131246257D01*
X245308380Y-131317685D01*
X245260761Y-131389114D01*
X245213142Y-131424828D01*
X245117904Y-131460542D01*
X244927428Y-131496257D01*
X244689333Y-131496257D01*
X244498857Y-131460542D01*
X244403619Y-131424828D01*
X244356000Y-131389114D01*
X244308380Y-131317685D01*
X244403619Y-130781971D02*
X244356000Y-130746257D01*
X244308380Y-130674828D01*
X244308380Y-130496257D01*
X244356000Y-130424828D01*
X244403619Y-130389114D01*
X244498857Y-130353400D01*
X244594095Y-130353400D01*
X244736952Y-130389114D01*
X245308380Y-130817685D01*
X245308380Y-130353400D01*
X184199714Y-78106542D02*
X184164000Y-78154161D01*
X184056857Y-78201780D01*
X183985428Y-78201780D01*
X183878285Y-78154161D01*
X183806857Y-78058923D01*
X183771142Y-77963685D01*
X183735428Y-77773209D01*
X183735428Y-77630352D01*
X183771142Y-77439876D01*
X183806857Y-77344638D01*
X183878285Y-77249400D01*
X183985428Y-77201780D01*
X184056857Y-77201780D01*
X184164000Y-77249400D01*
X184199714Y-77297019D01*
X184449714Y-77201780D02*
X184914000Y-77201780D01*
X184664000Y-77582733D01*
X184771142Y-77582733D01*
X184842571Y-77630352D01*
X184878285Y-77677971D01*
X184914000Y-77773209D01*
X184914000Y-78011304D01*
X184878285Y-78106542D01*
X184842571Y-78154161D01*
X184771142Y-78201780D01*
X184556857Y-78201780D01*
X184485428Y-78154161D01*
X184449714Y-78106542D01*
X185628285Y-78201780D02*
X185199714Y-78201780D01*
X185414000Y-78201780D02*
X185414000Y-77201780D01*
X185342571Y-77344638D01*
X185271142Y-77439876D01*
X185199714Y-77487495D01*
X185914000Y-77297019D02*
X185949714Y-77249400D01*
X186021142Y-77201780D01*
X186199714Y-77201780D01*
X186271142Y-77249400D01*
X186306857Y-77297019D01*
X186342571Y-77392257D01*
X186342571Y-77487495D01*
X186306857Y-77630352D01*
X185878285Y-78201780D01*
X186342571Y-78201780D01*
X181646580Y-71500085D02*
X182360866Y-71500085D01*
X182503723Y-71535800D01*
X182598961Y-71607228D01*
X182646580Y-71714371D01*
X182646580Y-71785800D01*
X181741819Y-71178657D02*
X181694200Y-71142942D01*
X181646580Y-71071514D01*
X181646580Y-70892942D01*
X181694200Y-70821514D01*
X181741819Y-70785800D01*
X181837057Y-70750085D01*
X181932295Y-70750085D01*
X182075152Y-70785800D01*
X182646580Y-71214371D01*
X182646580Y-70750085D01*
X181646580Y-70285800D02*
X181646580Y-70214371D01*
X181694200Y-70142942D01*
X181741819Y-70107228D01*
X181837057Y-70071514D01*
X182027533Y-70035800D01*
X182265628Y-70035800D01*
X182456104Y-70071514D01*
X182551342Y-70107228D01*
X182598961Y-70142942D01*
X182646580Y-70214371D01*
X182646580Y-70285800D01*
X182598961Y-70357228D01*
X182551342Y-70392942D01*
X182456104Y-70428657D01*
X182265628Y-70464371D01*
X182027533Y-70464371D01*
X181837057Y-70428657D01*
X181741819Y-70392942D01*
X181694200Y-70357228D01*
X181646580Y-70285800D01*
X181741819Y-69750085D02*
X181694200Y-69714371D01*
X181646580Y-69642942D01*
X181646580Y-69464371D01*
X181694200Y-69392942D01*
X181741819Y-69357228D01*
X181837057Y-69321514D01*
X181932295Y-69321514D01*
X182075152Y-69357228D01*
X182646580Y-69785800D01*
X182646580Y-69321514D01*
X191159314Y-120416580D02*
X190909314Y-119940390D01*
X190730742Y-120416580D02*
X190730742Y-119416580D01*
X191016457Y-119416580D01*
X191087885Y-119464200D01*
X191123600Y-119511819D01*
X191159314Y-119607057D01*
X191159314Y-119749914D01*
X191123600Y-119845152D01*
X191087885Y-119892771D01*
X191016457Y-119940390D01*
X190730742Y-119940390D01*
X191802171Y-119749914D02*
X191802171Y-120416580D01*
X191623600Y-119368961D02*
X191445028Y-120083247D01*
X191909314Y-120083247D01*
X192337885Y-119416580D02*
X192409314Y-119416580D01*
X192480742Y-119464200D01*
X192516457Y-119511819D01*
X192552171Y-119607057D01*
X192587885Y-119797533D01*
X192587885Y-120035628D01*
X192552171Y-120226104D01*
X192516457Y-120321342D01*
X192480742Y-120368961D01*
X192409314Y-120416580D01*
X192337885Y-120416580D01*
X192266457Y-120368961D01*
X192230742Y-120321342D01*
X192195028Y-120226104D01*
X192159314Y-120035628D01*
X192159314Y-119797533D01*
X192195028Y-119607057D01*
X192230742Y-119511819D01*
X192266457Y-119464200D01*
X192337885Y-119416580D01*
X193230742Y-119749914D02*
X193230742Y-120416580D01*
X193052171Y-119368961D02*
X192873600Y-120083247D01*
X193337885Y-120083247D01*
X229677980Y-143799114D02*
X229677980Y-143370542D01*
X230677980Y-143584828D02*
X229677980Y-143584828D01*
X230677980Y-143120542D02*
X229677980Y-143120542D01*
X229677980Y-142834828D01*
X229725600Y-142763400D01*
X229773219Y-142727685D01*
X229868457Y-142691971D01*
X230011314Y-142691971D01*
X230106552Y-142727685D01*
X230154171Y-142763400D01*
X230201790Y-142834828D01*
X230201790Y-143120542D01*
X229773219Y-142406257D02*
X229725600Y-142370542D01*
X229677980Y-142299114D01*
X229677980Y-142120542D01*
X229725600Y-142049114D01*
X229773219Y-142013400D01*
X229868457Y-141977685D01*
X229963695Y-141977685D01*
X230106552Y-142013400D01*
X230677980Y-142441971D01*
X230677980Y-141977685D01*
X229677980Y-141513400D02*
X229677980Y-141441971D01*
X229725600Y-141370542D01*
X229773219Y-141334828D01*
X229868457Y-141299114D01*
X230058933Y-141263400D01*
X230297028Y-141263400D01*
X230487504Y-141299114D01*
X230582742Y-141334828D01*
X230630361Y-141370542D01*
X230677980Y-141441971D01*
X230677980Y-141513400D01*
X230630361Y-141584828D01*
X230582742Y-141620542D01*
X230487504Y-141656257D01*
X230297028Y-141691971D01*
X230058933Y-141691971D01*
X229868457Y-141656257D01*
X229773219Y-141620542D01*
X229725600Y-141584828D01*
X229677980Y-141513400D01*
X229677980Y-141013400D02*
X229677980Y-140549114D01*
X230058933Y-140799114D01*
X230058933Y-140691971D01*
X230106552Y-140620542D01*
X230154171Y-140584828D01*
X230249409Y-140549114D01*
X230487504Y-140549114D01*
X230582742Y-140584828D01*
X230630361Y-140620542D01*
X230677980Y-140691971D01*
X230677980Y-140906257D01*
X230630361Y-140977685D01*
X230582742Y-141013400D01*
X209900780Y-74042085D02*
X209424590Y-74292085D01*
X209900780Y-74470657D02*
X208900780Y-74470657D01*
X208900780Y-74184942D01*
X208948400Y-74113514D01*
X208996019Y-74077800D01*
X209091257Y-74042085D01*
X209234114Y-74042085D01*
X209329352Y-74077800D01*
X209376971Y-74113514D01*
X209424590Y-74184942D01*
X209424590Y-74470657D01*
X208996019Y-73756371D02*
X208948400Y-73720657D01*
X208900780Y-73649228D01*
X208900780Y-73470657D01*
X208948400Y-73399228D01*
X208996019Y-73363514D01*
X209091257Y-73327800D01*
X209186495Y-73327800D01*
X209329352Y-73363514D01*
X209900780Y-73792085D01*
X209900780Y-73327800D01*
X208900780Y-72863514D02*
X208900780Y-72792085D01*
X208948400Y-72720657D01*
X208996019Y-72684942D01*
X209091257Y-72649228D01*
X209281733Y-72613514D01*
X209519828Y-72613514D01*
X209710304Y-72649228D01*
X209805542Y-72684942D01*
X209853161Y-72720657D01*
X209900780Y-72792085D01*
X209900780Y-72863514D01*
X209853161Y-72934942D01*
X209805542Y-72970657D01*
X209710304Y-73006371D01*
X209519828Y-73042085D01*
X209281733Y-73042085D01*
X209091257Y-73006371D01*
X208996019Y-72970657D01*
X208948400Y-72934942D01*
X208900780Y-72863514D01*
X209900780Y-71899228D02*
X209900780Y-72327800D01*
X209900780Y-72113514D02*
X208900780Y-72113514D01*
X209043638Y-72184942D01*
X209138876Y-72256371D01*
X209186495Y-72327800D01*
X184199714Y-72569342D02*
X184164000Y-72616961D01*
X184056857Y-72664580D01*
X183985428Y-72664580D01*
X183878285Y-72616961D01*
X183806857Y-72521723D01*
X183771142Y-72426485D01*
X183735428Y-72236009D01*
X183735428Y-72093152D01*
X183771142Y-71902676D01*
X183806857Y-71807438D01*
X183878285Y-71712200D01*
X183985428Y-71664580D01*
X184056857Y-71664580D01*
X184164000Y-71712200D01*
X184199714Y-71759819D01*
X184449714Y-71664580D02*
X184914000Y-71664580D01*
X184664000Y-72045533D01*
X184771142Y-72045533D01*
X184842571Y-72093152D01*
X184878285Y-72140771D01*
X184914000Y-72236009D01*
X184914000Y-72474104D01*
X184878285Y-72569342D01*
X184842571Y-72616961D01*
X184771142Y-72664580D01*
X184556857Y-72664580D01*
X184485428Y-72616961D01*
X184449714Y-72569342D01*
X185628285Y-72664580D02*
X185199714Y-72664580D01*
X185414000Y-72664580D02*
X185414000Y-71664580D01*
X185342571Y-71807438D01*
X185271142Y-71902676D01*
X185199714Y-71950295D01*
X186092571Y-71664580D02*
X186164000Y-71664580D01*
X186235428Y-71712200D01*
X186271142Y-71759819D01*
X186306857Y-71855057D01*
X186342571Y-72045533D01*
X186342571Y-72283628D01*
X186306857Y-72474104D01*
X186271142Y-72569342D01*
X186235428Y-72616961D01*
X186164000Y-72664580D01*
X186092571Y-72664580D01*
X186021142Y-72616961D01*
X185985428Y-72569342D01*
X185949714Y-72474104D01*
X185914000Y-72283628D01*
X185914000Y-72045533D01*
X185949714Y-71855057D01*
X185985428Y-71759819D01*
X186021142Y-71712200D01*
X186092571Y-71664580D01*
X179020742Y-79884085D02*
X179068361Y-79919800D01*
X179115980Y-80026942D01*
X179115980Y-80098371D01*
X179068361Y-80205514D01*
X178973123Y-80276942D01*
X178877885Y-80312657D01*
X178687409Y-80348371D01*
X178544552Y-80348371D01*
X178354076Y-80312657D01*
X178258838Y-80276942D01*
X178163600Y-80205514D01*
X178115980Y-80098371D01*
X178115980Y-80026942D01*
X178163600Y-79919800D01*
X178211219Y-79884085D01*
X178211219Y-79598371D02*
X178163600Y-79562657D01*
X178115980Y-79491228D01*
X178115980Y-79312657D01*
X178163600Y-79241228D01*
X178211219Y-79205514D01*
X178306457Y-79169800D01*
X178401695Y-79169800D01*
X178544552Y-79205514D01*
X179115980Y-79634085D01*
X179115980Y-79169800D01*
X178115980Y-78705514D02*
X178115980Y-78634085D01*
X178163600Y-78562657D01*
X178211219Y-78526942D01*
X178306457Y-78491228D01*
X178496933Y-78455514D01*
X178735028Y-78455514D01*
X178925504Y-78491228D01*
X179020742Y-78526942D01*
X179068361Y-78562657D01*
X179115980Y-78634085D01*
X179115980Y-78705514D01*
X179068361Y-78776942D01*
X179020742Y-78812657D01*
X178925504Y-78848371D01*
X178735028Y-78884085D01*
X178496933Y-78884085D01*
X178306457Y-78848371D01*
X178211219Y-78812657D01*
X178163600Y-78776942D01*
X178115980Y-78705514D01*
X178115980Y-78205514D02*
X178115980Y-77741228D01*
X178496933Y-77991228D01*
X178496933Y-77884085D01*
X178544552Y-77812657D01*
X178592171Y-77776942D01*
X178687409Y-77741228D01*
X178925504Y-77741228D01*
X179020742Y-77776942D01*
X179068361Y-77812657D01*
X179115980Y-77884085D01*
X179115980Y-78098371D01*
X179068361Y-78169800D01*
X179020742Y-78205514D01*
X212546114Y-78843142D02*
X212510400Y-78890761D01*
X212403257Y-78938380D01*
X212331828Y-78938380D01*
X212224685Y-78890761D01*
X212153257Y-78795523D01*
X212117542Y-78700285D01*
X212081828Y-78509809D01*
X212081828Y-78366952D01*
X212117542Y-78176476D01*
X212153257Y-78081238D01*
X212224685Y-77986000D01*
X212331828Y-77938380D01*
X212403257Y-77938380D01*
X212510400Y-77986000D01*
X212546114Y-78033619D01*
X212796114Y-77938380D02*
X213296114Y-77938380D01*
X212974685Y-78938380D01*
X213974685Y-78938380D02*
X213546114Y-78938380D01*
X213760400Y-78938380D02*
X213760400Y-77938380D01*
X213688971Y-78081238D01*
X213617542Y-78176476D01*
X213546114Y-78224095D01*
X214617542Y-77938380D02*
X214474685Y-77938380D01*
X214403257Y-77986000D01*
X214367542Y-78033619D01*
X214296114Y-78176476D01*
X214260400Y-78366952D01*
X214260400Y-78747904D01*
X214296114Y-78843142D01*
X214331828Y-78890761D01*
X214403257Y-78938380D01*
X214546114Y-78938380D01*
X214617542Y-78890761D01*
X214653257Y-78843142D01*
X214688971Y-78747904D01*
X214688971Y-78509809D01*
X214653257Y-78414571D01*
X214617542Y-78366952D01*
X214546114Y-78319333D01*
X214403257Y-78319333D01*
X214331828Y-78366952D01*
X214296114Y-78414571D01*
X214260400Y-78509809D01*
X245917980Y-101079542D02*
X245441790Y-101329542D01*
X245917980Y-101508114D02*
X244917980Y-101508114D01*
X244917980Y-101222400D01*
X244965600Y-101150971D01*
X245013219Y-101115257D01*
X245108457Y-101079542D01*
X245251314Y-101079542D01*
X245346552Y-101115257D01*
X245394171Y-101150971D01*
X245441790Y-101222400D01*
X245441790Y-101508114D01*
X245917980Y-100758114D02*
X244917980Y-100758114D01*
X245917980Y-100329542D01*
X244917980Y-100329542D01*
X244917980Y-99650971D02*
X244917980Y-99793828D01*
X244965600Y-99865257D01*
X245013219Y-99900971D01*
X245156076Y-99972400D01*
X245346552Y-100008114D01*
X245727504Y-100008114D01*
X245822742Y-99972400D01*
X245870361Y-99936685D01*
X245917980Y-99865257D01*
X245917980Y-99722400D01*
X245870361Y-99650971D01*
X245822742Y-99615257D01*
X245727504Y-99579542D01*
X245489409Y-99579542D01*
X245394171Y-99615257D01*
X245346552Y-99650971D01*
X245298933Y-99722400D01*
X245298933Y-99865257D01*
X245346552Y-99936685D01*
X245394171Y-99972400D01*
X245489409Y-100008114D01*
X244917980Y-99115257D02*
X244917980Y-99043828D01*
X244965600Y-98972400D01*
X245013219Y-98936685D01*
X245108457Y-98900971D01*
X245298933Y-98865257D01*
X245537028Y-98865257D01*
X245727504Y-98900971D01*
X245822742Y-98936685D01*
X245870361Y-98972400D01*
X245917980Y-99043828D01*
X245917980Y-99115257D01*
X245870361Y-99186685D01*
X245822742Y-99222400D01*
X245727504Y-99258114D01*
X245537028Y-99293828D01*
X245298933Y-99293828D01*
X245108457Y-99258114D01*
X245013219Y-99222400D01*
X244965600Y-99186685D01*
X244917980Y-99115257D01*
X245917980Y-98150971D02*
X245917980Y-98579542D01*
X245917980Y-98365257D02*
X244917980Y-98365257D01*
X245060838Y-98436685D01*
X245156076Y-98508114D01*
X245203695Y-98579542D01*
X184174314Y-75388742D02*
X184138600Y-75436361D01*
X184031457Y-75483980D01*
X183960028Y-75483980D01*
X183852885Y-75436361D01*
X183781457Y-75341123D01*
X183745742Y-75245885D01*
X183710028Y-75055409D01*
X183710028Y-74912552D01*
X183745742Y-74722076D01*
X183781457Y-74626838D01*
X183852885Y-74531600D01*
X183960028Y-74483980D01*
X184031457Y-74483980D01*
X184138600Y-74531600D01*
X184174314Y-74579219D01*
X184424314Y-74483980D02*
X184888600Y-74483980D01*
X184638600Y-74864933D01*
X184745742Y-74864933D01*
X184817171Y-74912552D01*
X184852885Y-74960171D01*
X184888600Y-75055409D01*
X184888600Y-75293504D01*
X184852885Y-75388742D01*
X184817171Y-75436361D01*
X184745742Y-75483980D01*
X184531457Y-75483980D01*
X184460028Y-75436361D01*
X184424314Y-75388742D01*
X185602885Y-75483980D02*
X185174314Y-75483980D01*
X185388600Y-75483980D02*
X185388600Y-74483980D01*
X185317171Y-74626838D01*
X185245742Y-74722076D01*
X185174314Y-74769695D01*
X186317171Y-75483980D02*
X185888600Y-75483980D01*
X186102885Y-75483980D02*
X186102885Y-74483980D01*
X186031457Y-74626838D01*
X185960028Y-74722076D01*
X185888600Y-74769695D01*
X190755542Y-95962285D02*
X190803161Y-95998000D01*
X190850780Y-96105142D01*
X190850780Y-96176571D01*
X190803161Y-96283714D01*
X190707923Y-96355142D01*
X190612685Y-96390857D01*
X190422209Y-96426571D01*
X190279352Y-96426571D01*
X190088876Y-96390857D01*
X189993638Y-96355142D01*
X189898400Y-96283714D01*
X189850780Y-96176571D01*
X189850780Y-96105142D01*
X189898400Y-95998000D01*
X189946019Y-95962285D01*
X190184114Y-95319428D02*
X190850780Y-95319428D01*
X189803161Y-95498000D02*
X190517447Y-95676571D01*
X190517447Y-95212285D01*
X189850780Y-94783714D02*
X189850780Y-94712285D01*
X189898400Y-94640857D01*
X189946019Y-94605142D01*
X190041257Y-94569428D01*
X190231733Y-94533714D01*
X190469828Y-94533714D01*
X190660304Y-94569428D01*
X190755542Y-94605142D01*
X190803161Y-94640857D01*
X190850780Y-94712285D01*
X190850780Y-94783714D01*
X190803161Y-94855142D01*
X190755542Y-94890857D01*
X190660304Y-94926571D01*
X190469828Y-94962285D01*
X190231733Y-94962285D01*
X190041257Y-94926571D01*
X189946019Y-94890857D01*
X189898400Y-94855142D01*
X189850780Y-94783714D01*
X190279352Y-94105142D02*
X190231733Y-94176571D01*
X190184114Y-94212285D01*
X190088876Y-94248000D01*
X190041257Y-94248000D01*
X189946019Y-94212285D01*
X189898400Y-94176571D01*
X189850780Y-94105142D01*
X189850780Y-93962285D01*
X189898400Y-93890857D01*
X189946019Y-93855142D01*
X190041257Y-93819428D01*
X190088876Y-93819428D01*
X190184114Y-93855142D01*
X190231733Y-93890857D01*
X190279352Y-93962285D01*
X190279352Y-94105142D01*
X190326971Y-94176571D01*
X190374590Y-94212285D01*
X190469828Y-94248000D01*
X190660304Y-94248000D01*
X190755542Y-94212285D01*
X190803161Y-94176571D01*
X190850780Y-94105142D01*
X190850780Y-93962285D01*
X190803161Y-93890857D01*
X190755542Y-93855142D01*
X190660304Y-93819428D01*
X190469828Y-93819428D01*
X190374590Y-93855142D01*
X190326971Y-93890857D01*
X190279352Y-93962285D01*
X209926180Y-71498857D02*
X208926180Y-71498857D01*
X208926180Y-71320285D01*
X208973800Y-71213142D01*
X209069038Y-71141714D01*
X209164276Y-71106000D01*
X209354752Y-71070285D01*
X209497609Y-71070285D01*
X209688085Y-71106000D01*
X209783323Y-71141714D01*
X209878561Y-71213142D01*
X209926180Y-71320285D01*
X209926180Y-71498857D01*
X209021419Y-70784571D02*
X208973800Y-70748857D01*
X208926180Y-70677428D01*
X208926180Y-70498857D01*
X208973800Y-70427428D01*
X209021419Y-70391714D01*
X209116657Y-70356000D01*
X209211895Y-70356000D01*
X209354752Y-70391714D01*
X209926180Y-70820285D01*
X209926180Y-70356000D01*
X208926180Y-69891714D02*
X208926180Y-69820285D01*
X208973800Y-69748857D01*
X209021419Y-69713142D01*
X209116657Y-69677428D01*
X209307133Y-69641714D01*
X209545228Y-69641714D01*
X209735704Y-69677428D01*
X209830942Y-69713142D01*
X209878561Y-69748857D01*
X209926180Y-69820285D01*
X209926180Y-69891714D01*
X209878561Y-69963142D01*
X209830942Y-69998857D01*
X209735704Y-70034571D01*
X209545228Y-70070285D01*
X209307133Y-70070285D01*
X209116657Y-70034571D01*
X209021419Y-69998857D01*
X208973800Y-69963142D01*
X208926180Y-69891714D01*
X209926180Y-68927428D02*
X209926180Y-69356000D01*
X209926180Y-69141714D02*
X208926180Y-69141714D01*
X209069038Y-69213142D01*
X209164276Y-69284571D01*
X209211895Y-69356000D01*
X183945714Y-79344780D02*
X183695714Y-78868590D01*
X183517142Y-79344780D02*
X183517142Y-78344780D01*
X183802857Y-78344780D01*
X183874285Y-78392400D01*
X183910000Y-78440019D01*
X183945714Y-78535257D01*
X183945714Y-78678114D01*
X183910000Y-78773352D01*
X183874285Y-78820971D01*
X183802857Y-78868590D01*
X183517142Y-78868590D01*
X184195714Y-78344780D02*
X184660000Y-78344780D01*
X184410000Y-78725733D01*
X184517142Y-78725733D01*
X184588571Y-78773352D01*
X184624285Y-78820971D01*
X184660000Y-78916209D01*
X184660000Y-79154304D01*
X184624285Y-79249542D01*
X184588571Y-79297161D01*
X184517142Y-79344780D01*
X184302857Y-79344780D01*
X184231428Y-79297161D01*
X184195714Y-79249542D01*
X185124285Y-78344780D02*
X185195714Y-78344780D01*
X185267142Y-78392400D01*
X185302857Y-78440019D01*
X185338571Y-78535257D01*
X185374285Y-78725733D01*
X185374285Y-78963828D01*
X185338571Y-79154304D01*
X185302857Y-79249542D01*
X185267142Y-79297161D01*
X185195714Y-79344780D01*
X185124285Y-79344780D01*
X185052857Y-79297161D01*
X185017142Y-79249542D01*
X184981428Y-79154304D01*
X184945714Y-78963828D01*
X184945714Y-78725733D01*
X184981428Y-78535257D01*
X185017142Y-78440019D01*
X185052857Y-78392400D01*
X185124285Y-78344780D01*
X185660000Y-78440019D02*
X185695714Y-78392400D01*
X185767142Y-78344780D01*
X185945714Y-78344780D01*
X186017142Y-78392400D01*
X186052857Y-78440019D01*
X186088571Y-78535257D01*
X186088571Y-78630495D01*
X186052857Y-78773352D01*
X185624285Y-79344780D01*
X186088571Y-79344780D01*
X224105742Y-118669885D02*
X224153361Y-118705600D01*
X224200980Y-118812742D01*
X224200980Y-118884171D01*
X224153361Y-118991314D01*
X224058123Y-119062742D01*
X223962885Y-119098457D01*
X223772409Y-119134171D01*
X223629552Y-119134171D01*
X223439076Y-119098457D01*
X223343838Y-119062742D01*
X223248600Y-118991314D01*
X223200980Y-118884171D01*
X223200980Y-118812742D01*
X223248600Y-118705600D01*
X223296219Y-118669885D01*
X223534314Y-118027028D02*
X224200980Y-118027028D01*
X223153361Y-118205600D02*
X223867647Y-118384171D01*
X223867647Y-117919885D01*
X223200980Y-117491314D02*
X223200980Y-117419885D01*
X223248600Y-117348457D01*
X223296219Y-117312742D01*
X223391457Y-117277028D01*
X223581933Y-117241314D01*
X223820028Y-117241314D01*
X224010504Y-117277028D01*
X224105742Y-117312742D01*
X224153361Y-117348457D01*
X224200980Y-117419885D01*
X224200980Y-117491314D01*
X224153361Y-117562742D01*
X224105742Y-117598457D01*
X224010504Y-117634171D01*
X223820028Y-117669885D01*
X223581933Y-117669885D01*
X223391457Y-117634171D01*
X223296219Y-117598457D01*
X223248600Y-117562742D01*
X223200980Y-117491314D01*
X223200980Y-116991314D02*
X223200980Y-116491314D01*
X224200980Y-116812742D01*
X210590314Y-122404142D02*
X210554600Y-122451761D01*
X210447457Y-122499380D01*
X210376028Y-122499380D01*
X210268885Y-122451761D01*
X210197457Y-122356523D01*
X210161742Y-122261285D01*
X210126028Y-122070809D01*
X210126028Y-121927952D01*
X210161742Y-121737476D01*
X210197457Y-121642238D01*
X210268885Y-121547000D01*
X210376028Y-121499380D01*
X210447457Y-121499380D01*
X210554600Y-121547000D01*
X210590314Y-121594619D01*
X211233171Y-121832714D02*
X211233171Y-122499380D01*
X211054600Y-121451761D02*
X210876028Y-122166047D01*
X211340314Y-122166047D01*
X212018885Y-122499380D02*
X211590314Y-122499380D01*
X211804600Y-122499380D02*
X211804600Y-121499380D01*
X211733171Y-121642238D01*
X211661742Y-121737476D01*
X211590314Y-121785095D01*
X212483171Y-121499380D02*
X212554600Y-121499380D01*
X212626028Y-121547000D01*
X212661742Y-121594619D01*
X212697457Y-121689857D01*
X212733171Y-121880333D01*
X212733171Y-122118428D01*
X212697457Y-122308904D01*
X212661742Y-122404142D01*
X212626028Y-122451761D01*
X212554600Y-122499380D01*
X212483171Y-122499380D01*
X212411742Y-122451761D01*
X212376028Y-122404142D01*
X212340314Y-122308904D01*
X212304600Y-122118428D01*
X212304600Y-121880333D01*
X212340314Y-121689857D01*
X212376028Y-121594619D01*
X212411742Y-121547000D01*
X212483171Y-121499380D01*
X221235542Y-133147885D02*
X221283161Y-133183600D01*
X221330780Y-133290742D01*
X221330780Y-133362171D01*
X221283161Y-133469314D01*
X221187923Y-133540742D01*
X221092685Y-133576457D01*
X220902209Y-133612171D01*
X220759352Y-133612171D01*
X220568876Y-133576457D01*
X220473638Y-133540742D01*
X220378400Y-133469314D01*
X220330780Y-133362171D01*
X220330780Y-133290742D01*
X220378400Y-133183600D01*
X220426019Y-133147885D01*
X220426019Y-132862171D02*
X220378400Y-132826457D01*
X220330780Y-132755028D01*
X220330780Y-132576457D01*
X220378400Y-132505028D01*
X220426019Y-132469314D01*
X220521257Y-132433600D01*
X220616495Y-132433600D01*
X220759352Y-132469314D01*
X221330780Y-132897885D01*
X221330780Y-132433600D01*
X220330780Y-131969314D02*
X220330780Y-131897885D01*
X220378400Y-131826457D01*
X220426019Y-131790742D01*
X220521257Y-131755028D01*
X220711733Y-131719314D01*
X220949828Y-131719314D01*
X221140304Y-131755028D01*
X221235542Y-131790742D01*
X221283161Y-131826457D01*
X221330780Y-131897885D01*
X221330780Y-131969314D01*
X221283161Y-132040742D01*
X221235542Y-132076457D01*
X221140304Y-132112171D01*
X220949828Y-132147885D01*
X220711733Y-132147885D01*
X220521257Y-132112171D01*
X220426019Y-132076457D01*
X220378400Y-132040742D01*
X220330780Y-131969314D01*
X220426019Y-131433600D02*
X220378400Y-131397885D01*
X220330780Y-131326457D01*
X220330780Y-131147885D01*
X220378400Y-131076457D01*
X220426019Y-131040742D01*
X220521257Y-131005028D01*
X220616495Y-131005028D01*
X220759352Y-131040742D01*
X221330780Y-131469314D01*
X221330780Y-131005028D01*
X239371742Y-134081780D02*
X239371742Y-133081780D01*
X239550314Y-133081780D01*
X239657457Y-133129400D01*
X239728885Y-133224638D01*
X239764600Y-133319876D01*
X239800314Y-133510352D01*
X239800314Y-133653209D01*
X239764600Y-133843685D01*
X239728885Y-133938923D01*
X239657457Y-134034161D01*
X239550314Y-134081780D01*
X239371742Y-134081780D01*
X240086028Y-133177019D02*
X240121742Y-133129400D01*
X240193171Y-133081780D01*
X240371742Y-133081780D01*
X240443171Y-133129400D01*
X240478885Y-133177019D01*
X240514600Y-133272257D01*
X240514600Y-133367495D01*
X240478885Y-133510352D01*
X240050314Y-134081780D01*
X240514600Y-134081780D01*
X240978885Y-133081780D02*
X241050314Y-133081780D01*
X241121742Y-133129400D01*
X241157457Y-133177019D01*
X241193171Y-133272257D01*
X241228885Y-133462733D01*
X241228885Y-133700828D01*
X241193171Y-133891304D01*
X241157457Y-133986542D01*
X241121742Y-134034161D01*
X241050314Y-134081780D01*
X240978885Y-134081780D01*
X240907457Y-134034161D01*
X240871742Y-133986542D01*
X240836028Y-133891304D01*
X240800314Y-133700828D01*
X240800314Y-133462733D01*
X240836028Y-133272257D01*
X240871742Y-133177019D01*
X240907457Y-133129400D01*
X240978885Y-133081780D01*
X241871742Y-133415114D02*
X241871742Y-134081780D01*
X241693171Y-133034161D02*
X241514600Y-133748447D01*
X241978885Y-133748447D01*
X196964057Y-120416580D02*
X196714057Y-119940390D01*
X196535485Y-120416580D02*
X196535485Y-119416580D01*
X196821200Y-119416580D01*
X196892628Y-119464200D01*
X196928342Y-119511819D01*
X196964057Y-119607057D01*
X196964057Y-119749914D01*
X196928342Y-119845152D01*
X196892628Y-119892771D01*
X196821200Y-119940390D01*
X196535485Y-119940390D01*
X197285485Y-120416580D02*
X197285485Y-119416580D01*
X197714057Y-120416580D01*
X197714057Y-119416580D01*
X198392628Y-119749914D02*
X198392628Y-120416580D01*
X198214057Y-119368961D02*
X198035485Y-120083247D01*
X198499771Y-120083247D01*
X198928342Y-119416580D02*
X198999771Y-119416580D01*
X199071200Y-119464200D01*
X199106914Y-119511819D01*
X199142628Y-119607057D01*
X199178342Y-119797533D01*
X199178342Y-120035628D01*
X199142628Y-120226104D01*
X199106914Y-120321342D01*
X199071200Y-120368961D01*
X198999771Y-120416580D01*
X198928342Y-120416580D01*
X198856914Y-120368961D01*
X198821200Y-120321342D01*
X198785485Y-120226104D01*
X198749771Y-120035628D01*
X198749771Y-119797533D01*
X198785485Y-119607057D01*
X198821200Y-119511819D01*
X198856914Y-119464200D01*
X198928342Y-119416580D01*
X199821200Y-119749914D02*
X199821200Y-120416580D01*
X199642628Y-119368961D02*
X199464057Y-120083247D01*
X199928342Y-120083247D01*
X209702380Y-115285714D02*
X210511904Y-115285714D01*
X210607142Y-115250000D01*
X210654761Y-115214285D01*
X210702380Y-115142857D01*
X210702380Y-115000000D01*
X210654761Y-114928571D01*
X210607142Y-114892857D01*
X210511904Y-114857142D01*
X209702380Y-114857142D01*
X210035714Y-114178571D02*
X210702380Y-114178571D01*
X209654761Y-114357142D02*
X210369047Y-114535714D01*
X210369047Y-114071428D01*
X209702380Y-113642857D02*
X209702380Y-113571428D01*
X209750000Y-113500000D01*
X209797619Y-113464285D01*
X209892857Y-113428571D01*
X210083333Y-113392857D01*
X210321428Y-113392857D01*
X210511904Y-113428571D01*
X210607142Y-113464285D01*
X210654761Y-113500000D01*
X210702380Y-113571428D01*
X210702380Y-113642857D01*
X210654761Y-113714285D01*
X210607142Y-113750000D01*
X210511904Y-113785714D01*
X210321428Y-113821428D01*
X210083333Y-113821428D01*
X209892857Y-113785714D01*
X209797619Y-113750000D01*
X209750000Y-113714285D01*
X209702380Y-113642857D01*
X210130952Y-112964285D02*
X210083333Y-113035714D01*
X210035714Y-113071428D01*
X209940476Y-113107142D01*
X209892857Y-113107142D01*
X209797619Y-113071428D01*
X209750000Y-113035714D01*
X209702380Y-112964285D01*
X209702380Y-112821428D01*
X209750000Y-112750000D01*
X209797619Y-112714285D01*
X209892857Y-112678571D01*
X209940476Y-112678571D01*
X210035714Y-112714285D01*
X210083333Y-112750000D01*
X210130952Y-112821428D01*
X210130952Y-112964285D01*
X210178571Y-113035714D01*
X210226190Y-113071428D01*
X210321428Y-113107142D01*
X210511904Y-113107142D01*
X210607142Y-113071428D01*
X210654761Y-113035714D01*
X210702380Y-112964285D01*
X210702380Y-112821428D01*
X210654761Y-112750000D01*
X210607142Y-112714285D01*
X210511904Y-112678571D01*
X210321428Y-112678571D01*
X210226190Y-112714285D01*
X210178571Y-112750000D01*
X210130952Y-112821428D01*
X219508342Y-84202085D02*
X219555961Y-84237800D01*
X219603580Y-84344942D01*
X219603580Y-84416371D01*
X219555961Y-84523514D01*
X219460723Y-84594942D01*
X219365485Y-84630657D01*
X219175009Y-84666371D01*
X219032152Y-84666371D01*
X218841676Y-84630657D01*
X218746438Y-84594942D01*
X218651200Y-84523514D01*
X218603580Y-84416371D01*
X218603580Y-84344942D01*
X218651200Y-84237800D01*
X218698819Y-84202085D01*
X218603580Y-83952085D02*
X218603580Y-83452085D01*
X219603580Y-83773514D01*
X219603580Y-82773514D02*
X219603580Y-83202085D01*
X219603580Y-82987800D02*
X218603580Y-82987800D01*
X218746438Y-83059228D01*
X218841676Y-83130657D01*
X218889295Y-83202085D01*
X218698819Y-82487800D02*
X218651200Y-82452085D01*
X218603580Y-82380657D01*
X218603580Y-82202085D01*
X218651200Y-82130657D01*
X218698819Y-82094942D01*
X218794057Y-82059228D01*
X218889295Y-82059228D01*
X219032152Y-82094942D01*
X219603580Y-82523514D01*
X219603580Y-82059228D01*
X174924980Y-79909485D02*
X174448790Y-80159485D01*
X174924980Y-80338057D02*
X173924980Y-80338057D01*
X173924980Y-80052342D01*
X173972600Y-79980914D01*
X174020219Y-79945200D01*
X174115457Y-79909485D01*
X174258314Y-79909485D01*
X174353552Y-79945200D01*
X174401171Y-79980914D01*
X174448790Y-80052342D01*
X174448790Y-80338057D01*
X174020219Y-79623771D02*
X173972600Y-79588057D01*
X173924980Y-79516628D01*
X173924980Y-79338057D01*
X173972600Y-79266628D01*
X174020219Y-79230914D01*
X174115457Y-79195200D01*
X174210695Y-79195200D01*
X174353552Y-79230914D01*
X174924980Y-79659485D01*
X174924980Y-79195200D01*
X173924980Y-78730914D02*
X173924980Y-78659485D01*
X173972600Y-78588057D01*
X174020219Y-78552342D01*
X174115457Y-78516628D01*
X174305933Y-78480914D01*
X174544028Y-78480914D01*
X174734504Y-78516628D01*
X174829742Y-78552342D01*
X174877361Y-78588057D01*
X174924980Y-78659485D01*
X174924980Y-78730914D01*
X174877361Y-78802342D01*
X174829742Y-78838057D01*
X174734504Y-78873771D01*
X174544028Y-78909485D01*
X174305933Y-78909485D01*
X174115457Y-78873771D01*
X174020219Y-78838057D01*
X173972600Y-78802342D01*
X173924980Y-78730914D01*
X173924980Y-78230914D02*
X173924980Y-77766628D01*
X174305933Y-78016628D01*
X174305933Y-77909485D01*
X174353552Y-77838057D01*
X174401171Y-77802342D01*
X174496409Y-77766628D01*
X174734504Y-77766628D01*
X174829742Y-77802342D01*
X174877361Y-77838057D01*
X174924980Y-77909485D01*
X174924980Y-78123771D01*
X174877361Y-78195200D01*
X174829742Y-78230914D01*
X222854780Y-77239257D02*
X221854780Y-77239257D01*
X221854780Y-77060685D01*
X221902400Y-76953542D01*
X221997638Y-76882114D01*
X222092876Y-76846400D01*
X222283352Y-76810685D01*
X222426209Y-76810685D01*
X222616685Y-76846400D01*
X222711923Y-76882114D01*
X222807161Y-76953542D01*
X222854780Y-77060685D01*
X222854780Y-77239257D01*
X221854780Y-76560685D02*
X221854780Y-76060685D01*
X222854780Y-76382114D01*
X221854780Y-75632114D02*
X221854780Y-75560685D01*
X221902400Y-75489257D01*
X221950019Y-75453542D01*
X222045257Y-75417828D01*
X222235733Y-75382114D01*
X222473828Y-75382114D01*
X222664304Y-75417828D01*
X222759542Y-75453542D01*
X222807161Y-75489257D01*
X222854780Y-75560685D01*
X222854780Y-75632114D01*
X222807161Y-75703542D01*
X222759542Y-75739257D01*
X222664304Y-75774971D01*
X222473828Y-75810685D01*
X222235733Y-75810685D01*
X222045257Y-75774971D01*
X221950019Y-75739257D01*
X221902400Y-75703542D01*
X221854780Y-75632114D01*
X222854780Y-74667828D02*
X222854780Y-75096400D01*
X222854780Y-74882114D02*
X221854780Y-74882114D01*
X221997638Y-74953542D01*
X222092876Y-75024971D01*
X222140495Y-75096400D01*
X213499457Y-109316780D02*
X213249457Y-108840590D01*
X213070885Y-109316780D02*
X213070885Y-108316780D01*
X213356600Y-108316780D01*
X213428028Y-108364400D01*
X213463742Y-108412019D01*
X213499457Y-108507257D01*
X213499457Y-108650114D01*
X213463742Y-108745352D01*
X213428028Y-108792971D01*
X213356600Y-108840590D01*
X213070885Y-108840590D01*
X213820885Y-109316780D02*
X213820885Y-108316780D01*
X214249457Y-109316780D01*
X214249457Y-108316780D01*
X214928028Y-108650114D02*
X214928028Y-109316780D01*
X214749457Y-108269161D02*
X214570885Y-108983447D01*
X215035171Y-108983447D01*
X215463742Y-108316780D02*
X215535171Y-108316780D01*
X215606600Y-108364400D01*
X215642314Y-108412019D01*
X215678028Y-108507257D01*
X215713742Y-108697733D01*
X215713742Y-108935828D01*
X215678028Y-109126304D01*
X215642314Y-109221542D01*
X215606600Y-109269161D01*
X215535171Y-109316780D01*
X215463742Y-109316780D01*
X215392314Y-109269161D01*
X215356600Y-109221542D01*
X215320885Y-109126304D01*
X215285171Y-108935828D01*
X215285171Y-108697733D01*
X215320885Y-108507257D01*
X215356600Y-108412019D01*
X215392314Y-108364400D01*
X215463742Y-108316780D01*
X216356600Y-108316780D02*
X216213742Y-108316780D01*
X216142314Y-108364400D01*
X216106600Y-108412019D01*
X216035171Y-108554876D01*
X215999457Y-108745352D01*
X215999457Y-109126304D01*
X216035171Y-109221542D01*
X216070885Y-109269161D01*
X216142314Y-109316780D01*
X216285171Y-109316780D01*
X216356600Y-109269161D01*
X216392314Y-109221542D01*
X216428028Y-109126304D01*
X216428028Y-108888209D01*
X216392314Y-108792971D01*
X216356600Y-108745352D01*
X216285171Y-108697733D01*
X216142314Y-108697733D01*
X216070885Y-108745352D01*
X216035171Y-108792971D01*
X215999457Y-108888209D01*
X213945742Y-90069485D02*
X213993361Y-90105200D01*
X214040980Y-90212342D01*
X214040980Y-90283771D01*
X213993361Y-90390914D01*
X213898123Y-90462342D01*
X213802885Y-90498057D01*
X213612409Y-90533771D01*
X213469552Y-90533771D01*
X213279076Y-90498057D01*
X213183838Y-90462342D01*
X213088600Y-90390914D01*
X213040980Y-90283771D01*
X213040980Y-90212342D01*
X213088600Y-90105200D01*
X213136219Y-90069485D01*
X213040980Y-89819485D02*
X213040980Y-89319485D01*
X214040980Y-89640914D01*
X214040980Y-88640914D02*
X214040980Y-89069485D01*
X214040980Y-88855200D02*
X213040980Y-88855200D01*
X213183838Y-88926628D01*
X213279076Y-88998057D01*
X213326695Y-89069485D01*
X213374314Y-87998057D02*
X214040980Y-87998057D01*
X212993361Y-88176628D02*
X213707647Y-88355200D01*
X213707647Y-87890914D01*
X236104180Y-143773714D02*
X236104180Y-143345142D01*
X237104180Y-143559428D02*
X236104180Y-143559428D01*
X237104180Y-143095142D02*
X236104180Y-143095142D01*
X236104180Y-142809428D01*
X236151800Y-142738000D01*
X236199419Y-142702285D01*
X236294657Y-142666571D01*
X236437514Y-142666571D01*
X236532752Y-142702285D01*
X236580371Y-142738000D01*
X236627990Y-142809428D01*
X236627990Y-143095142D01*
X236199419Y-142380857D02*
X236151800Y-142345142D01*
X236104180Y-142273714D01*
X236104180Y-142095142D01*
X236151800Y-142023714D01*
X236199419Y-141988000D01*
X236294657Y-141952285D01*
X236389895Y-141952285D01*
X236532752Y-141988000D01*
X237104180Y-142416571D01*
X237104180Y-141952285D01*
X236104180Y-141488000D02*
X236104180Y-141416571D01*
X236151800Y-141345142D01*
X236199419Y-141309428D01*
X236294657Y-141273714D01*
X236485133Y-141238000D01*
X236723228Y-141238000D01*
X236913704Y-141273714D01*
X237008942Y-141309428D01*
X237056561Y-141345142D01*
X237104180Y-141416571D01*
X237104180Y-141488000D01*
X237056561Y-141559428D01*
X237008942Y-141595142D01*
X236913704Y-141630857D01*
X236723228Y-141666571D01*
X236485133Y-141666571D01*
X236294657Y-141630857D01*
X236199419Y-141595142D01*
X236151800Y-141559428D01*
X236104180Y-141488000D01*
X236199419Y-140952285D02*
X236151800Y-140916571D01*
X236104180Y-140845142D01*
X236104180Y-140666571D01*
X236151800Y-140595142D01*
X236199419Y-140559428D01*
X236294657Y-140523714D01*
X236389895Y-140523714D01*
X236532752Y-140559428D01*
X237104180Y-140988000D01*
X237104180Y-140523714D01*
X246559342Y-133300285D02*
X246606961Y-133336000D01*
X246654580Y-133443142D01*
X246654580Y-133514571D01*
X246606961Y-133621714D01*
X246511723Y-133693142D01*
X246416485Y-133728857D01*
X246226009Y-133764571D01*
X246083152Y-133764571D01*
X245892676Y-133728857D01*
X245797438Y-133693142D01*
X245702200Y-133621714D01*
X245654580Y-133514571D01*
X245654580Y-133443142D01*
X245702200Y-133336000D01*
X245749819Y-133300285D01*
X245749819Y-133014571D02*
X245702200Y-132978857D01*
X245654580Y-132907428D01*
X245654580Y-132728857D01*
X245702200Y-132657428D01*
X245749819Y-132621714D01*
X245845057Y-132586000D01*
X245940295Y-132586000D01*
X246083152Y-132621714D01*
X246654580Y-133050285D01*
X246654580Y-132586000D01*
X245654580Y-132121714D02*
X245654580Y-132050285D01*
X245702200Y-131978857D01*
X245749819Y-131943142D01*
X245845057Y-131907428D01*
X246035533Y-131871714D01*
X246273628Y-131871714D01*
X246464104Y-131907428D01*
X246559342Y-131943142D01*
X246606961Y-131978857D01*
X246654580Y-132050285D01*
X246654580Y-132121714D01*
X246606961Y-132193142D01*
X246559342Y-132228857D01*
X246464104Y-132264571D01*
X246273628Y-132300285D01*
X246035533Y-132300285D01*
X245845057Y-132264571D01*
X245749819Y-132228857D01*
X245702200Y-132193142D01*
X245654580Y-132121714D01*
X245654580Y-131193142D02*
X245654580Y-131550285D01*
X246130771Y-131586000D01*
X246083152Y-131550285D01*
X246035533Y-131478857D01*
X246035533Y-131300285D01*
X246083152Y-131228857D01*
X246130771Y-131193142D01*
X246226009Y-131157428D01*
X246464104Y-131157428D01*
X246559342Y-131193142D01*
X246606961Y-131228857D01*
X246654580Y-131300285D01*
X246654580Y-131478857D01*
X246606961Y-131550285D01*
X246559342Y-131586000D01*
X220956142Y-86564285D02*
X221003761Y-86600000D01*
X221051380Y-86707142D01*
X221051380Y-86778571D01*
X221003761Y-86885714D01*
X220908523Y-86957142D01*
X220813285Y-86992857D01*
X220622809Y-87028571D01*
X220479952Y-87028571D01*
X220289476Y-86992857D01*
X220194238Y-86957142D01*
X220099000Y-86885714D01*
X220051380Y-86778571D01*
X220051380Y-86707142D01*
X220099000Y-86600000D01*
X220146619Y-86564285D01*
X220051380Y-86314285D02*
X220051380Y-85814285D01*
X221051380Y-86135714D01*
X220051380Y-85385714D02*
X220051380Y-85314285D01*
X220099000Y-85242857D01*
X220146619Y-85207142D01*
X220241857Y-85171428D01*
X220432333Y-85135714D01*
X220670428Y-85135714D01*
X220860904Y-85171428D01*
X220956142Y-85207142D01*
X221003761Y-85242857D01*
X221051380Y-85314285D01*
X221051380Y-85385714D01*
X221003761Y-85457142D01*
X220956142Y-85492857D01*
X220860904Y-85528571D01*
X220670428Y-85564285D01*
X220432333Y-85564285D01*
X220241857Y-85528571D01*
X220146619Y-85492857D01*
X220099000Y-85457142D01*
X220051380Y-85385714D01*
X220146619Y-84850000D02*
X220099000Y-84814285D01*
X220051380Y-84742857D01*
X220051380Y-84564285D01*
X220099000Y-84492857D01*
X220146619Y-84457142D01*
X220241857Y-84421428D01*
X220337095Y-84421428D01*
X220479952Y-84457142D01*
X221051380Y-84885714D01*
X221051380Y-84421428D01*
X211939142Y-77572685D02*
X211986761Y-77608400D01*
X212034380Y-77715542D01*
X212034380Y-77786971D01*
X211986761Y-77894114D01*
X211891523Y-77965542D01*
X211796285Y-78001257D01*
X211605809Y-78036971D01*
X211462952Y-78036971D01*
X211272476Y-78001257D01*
X211177238Y-77965542D01*
X211082000Y-77894114D01*
X211034380Y-77786971D01*
X211034380Y-77715542D01*
X211082000Y-77608400D01*
X211129619Y-77572685D01*
X211034380Y-77322685D02*
X211034380Y-76822685D01*
X212034380Y-77144114D01*
X212034380Y-76144114D02*
X212034380Y-76572685D01*
X212034380Y-76358400D02*
X211034380Y-76358400D01*
X211177238Y-76429828D01*
X211272476Y-76501257D01*
X211320095Y-76572685D01*
X211034380Y-75894114D02*
X211034380Y-75429828D01*
X211415333Y-75679828D01*
X211415333Y-75572685D01*
X211462952Y-75501257D01*
X211510571Y-75465542D01*
X211605809Y-75429828D01*
X211843904Y-75429828D01*
X211939142Y-75465542D01*
X211986761Y-75501257D01*
X212034380Y-75572685D01*
X212034380Y-75786971D01*
X211986761Y-75858400D01*
X211939142Y-75894114D01*
X202202380Y-102585714D02*
X203011904Y-102585714D01*
X203107142Y-102550000D01*
X203154761Y-102514285D01*
X203202380Y-102442857D01*
X203202380Y-102300000D01*
X203154761Y-102228571D01*
X203107142Y-102192857D01*
X203011904Y-102157142D01*
X202202380Y-102157142D01*
X202535714Y-101478571D02*
X203202380Y-101478571D01*
X202154761Y-101657142D02*
X202869047Y-101835714D01*
X202869047Y-101371428D01*
X202202380Y-100942857D02*
X202202380Y-100871428D01*
X202250000Y-100800000D01*
X202297619Y-100764285D01*
X202392857Y-100728571D01*
X202583333Y-100692857D01*
X202821428Y-100692857D01*
X203011904Y-100728571D01*
X203107142Y-100764285D01*
X203154761Y-100800000D01*
X203202380Y-100871428D01*
X203202380Y-100942857D01*
X203154761Y-101014285D01*
X203107142Y-101050000D01*
X203011904Y-101085714D01*
X202821428Y-101121428D01*
X202583333Y-101121428D01*
X202392857Y-101085714D01*
X202297619Y-101050000D01*
X202250000Y-101014285D01*
X202202380Y-100942857D01*
X202202380Y-100014285D02*
X202202380Y-100371428D01*
X202678571Y-100407142D01*
X202630952Y-100371428D01*
X202583333Y-100300000D01*
X202583333Y-100121428D01*
X202630952Y-100050000D01*
X202678571Y-100014285D01*
X202773809Y-99978571D01*
X203011904Y-99978571D01*
X203107142Y-100014285D01*
X203154761Y-100050000D01*
X203202380Y-100121428D01*
X203202380Y-100300000D01*
X203154761Y-100371428D01*
X203107142Y-100407142D01*
X197242180Y-128243685D02*
X197956466Y-128243685D01*
X198099323Y-128279400D01*
X198194561Y-128350828D01*
X198242180Y-128457971D01*
X198242180Y-128529400D01*
X197242180Y-127565114D02*
X197242180Y-127707971D01*
X197289800Y-127779400D01*
X197337419Y-127815114D01*
X197480276Y-127886542D01*
X197670752Y-127922257D01*
X198051704Y-127922257D01*
X198146942Y-127886542D01*
X198194561Y-127850828D01*
X198242180Y-127779400D01*
X198242180Y-127636542D01*
X198194561Y-127565114D01*
X198146942Y-127529400D01*
X198051704Y-127493685D01*
X197813609Y-127493685D01*
X197718371Y-127529400D01*
X197670752Y-127565114D01*
X197623133Y-127636542D01*
X197623133Y-127779400D01*
X197670752Y-127850828D01*
X197718371Y-127886542D01*
X197813609Y-127922257D01*
X197242180Y-127029400D02*
X197242180Y-126957971D01*
X197289800Y-126886542D01*
X197337419Y-126850828D01*
X197432657Y-126815114D01*
X197623133Y-126779400D01*
X197861228Y-126779400D01*
X198051704Y-126815114D01*
X198146942Y-126850828D01*
X198194561Y-126886542D01*
X198242180Y-126957971D01*
X198242180Y-127029400D01*
X198194561Y-127100828D01*
X198146942Y-127136542D01*
X198051704Y-127172257D01*
X197861228Y-127207971D01*
X197623133Y-127207971D01*
X197432657Y-127172257D01*
X197337419Y-127136542D01*
X197289800Y-127100828D01*
X197242180Y-127029400D01*
X197337419Y-126493685D02*
X197289800Y-126457971D01*
X197242180Y-126386542D01*
X197242180Y-126207971D01*
X197289800Y-126136542D01*
X197337419Y-126100828D01*
X197432657Y-126065114D01*
X197527895Y-126065114D01*
X197670752Y-126100828D01*
X198242180Y-126529400D01*
X198242180Y-126065114D01*
X224994114Y-121650380D02*
X224994114Y-122364666D01*
X224958400Y-122507523D01*
X224886971Y-122602761D01*
X224779828Y-122650380D01*
X224708400Y-122650380D01*
X225279828Y-121650380D02*
X225744114Y-121650380D01*
X225494114Y-122031333D01*
X225601257Y-122031333D01*
X225672685Y-122078952D01*
X225708400Y-122126571D01*
X225744114Y-122221809D01*
X225744114Y-122459904D01*
X225708400Y-122555142D01*
X225672685Y-122602761D01*
X225601257Y-122650380D01*
X225386971Y-122650380D01*
X225315542Y-122602761D01*
X225279828Y-122555142D01*
X226208400Y-121650380D02*
X226279828Y-121650380D01*
X226351257Y-121698000D01*
X226386971Y-121745619D01*
X226422685Y-121840857D01*
X226458400Y-122031333D01*
X226458400Y-122269428D01*
X226422685Y-122459904D01*
X226386971Y-122555142D01*
X226351257Y-122602761D01*
X226279828Y-122650380D01*
X226208400Y-122650380D01*
X226136971Y-122602761D01*
X226101257Y-122555142D01*
X226065542Y-122459904D01*
X226029828Y-122269428D01*
X226029828Y-122031333D01*
X226065542Y-121840857D01*
X226101257Y-121745619D01*
X226136971Y-121698000D01*
X226208400Y-121650380D01*
X227101257Y-121983714D02*
X227101257Y-122650380D01*
X226922685Y-121602761D02*
X226744114Y-122317047D01*
X227208400Y-122317047D01*
X223327980Y-80593285D02*
X224042266Y-80593285D01*
X224185123Y-80629000D01*
X224280361Y-80700428D01*
X224327980Y-80807571D01*
X224327980Y-80879000D01*
X223327980Y-80307571D02*
X223327980Y-79843285D01*
X223708933Y-80093285D01*
X223708933Y-79986142D01*
X223756552Y-79914714D01*
X223804171Y-79879000D01*
X223899409Y-79843285D01*
X224137504Y-79843285D01*
X224232742Y-79879000D01*
X224280361Y-79914714D01*
X224327980Y-79986142D01*
X224327980Y-80200428D01*
X224280361Y-80271857D01*
X224232742Y-80307571D01*
X223327980Y-79379000D02*
X223327980Y-79307571D01*
X223375600Y-79236142D01*
X223423219Y-79200428D01*
X223518457Y-79164714D01*
X223708933Y-79129000D01*
X223947028Y-79129000D01*
X224137504Y-79164714D01*
X224232742Y-79200428D01*
X224280361Y-79236142D01*
X224327980Y-79307571D01*
X224327980Y-79379000D01*
X224280361Y-79450428D01*
X224232742Y-79486142D01*
X224137504Y-79521857D01*
X223947028Y-79557571D01*
X223708933Y-79557571D01*
X223518457Y-79521857D01*
X223423219Y-79486142D01*
X223375600Y-79450428D01*
X223327980Y-79379000D01*
X223423219Y-78843285D02*
X223375600Y-78807571D01*
X223327980Y-78736142D01*
X223327980Y-78557571D01*
X223375600Y-78486142D01*
X223423219Y-78450428D01*
X223518457Y-78414714D01*
X223613695Y-78414714D01*
X223756552Y-78450428D01*
X224327980Y-78879000D01*
X224327980Y-78414714D01*
X181636942Y-80722285D02*
X181684561Y-80758000D01*
X181732180Y-80865142D01*
X181732180Y-80936571D01*
X181684561Y-81043714D01*
X181589323Y-81115142D01*
X181494085Y-81150857D01*
X181303609Y-81186571D01*
X181160752Y-81186571D01*
X180970276Y-81150857D01*
X180875038Y-81115142D01*
X180779800Y-81043714D01*
X180732180Y-80936571D01*
X180732180Y-80865142D01*
X180779800Y-80758000D01*
X180827419Y-80722285D01*
X180827419Y-80436571D02*
X180779800Y-80400857D01*
X180732180Y-80329428D01*
X180732180Y-80150857D01*
X180779800Y-80079428D01*
X180827419Y-80043714D01*
X180922657Y-80008000D01*
X181017895Y-80008000D01*
X181160752Y-80043714D01*
X181732180Y-80472285D01*
X181732180Y-80008000D01*
X180732180Y-79543714D02*
X180732180Y-79472285D01*
X180779800Y-79400857D01*
X180827419Y-79365142D01*
X180922657Y-79329428D01*
X181113133Y-79293714D01*
X181351228Y-79293714D01*
X181541704Y-79329428D01*
X181636942Y-79365142D01*
X181684561Y-79400857D01*
X181732180Y-79472285D01*
X181732180Y-79543714D01*
X181684561Y-79615142D01*
X181636942Y-79650857D01*
X181541704Y-79686571D01*
X181351228Y-79722285D01*
X181113133Y-79722285D01*
X180922657Y-79686571D01*
X180827419Y-79650857D01*
X180779800Y-79615142D01*
X180732180Y-79543714D01*
X181065514Y-78650857D02*
X181732180Y-78650857D01*
X180684561Y-78829428D02*
X181398847Y-79008000D01*
X181398847Y-78543714D01*
X211939142Y-84227485D02*
X211986761Y-84263200D01*
X212034380Y-84370342D01*
X212034380Y-84441771D01*
X211986761Y-84548914D01*
X211891523Y-84620342D01*
X211796285Y-84656057D01*
X211605809Y-84691771D01*
X211462952Y-84691771D01*
X211272476Y-84656057D01*
X211177238Y-84620342D01*
X211082000Y-84548914D01*
X211034380Y-84441771D01*
X211034380Y-84370342D01*
X211082000Y-84263200D01*
X211129619Y-84227485D01*
X211034380Y-83977485D02*
X211034380Y-83477485D01*
X212034380Y-83798914D01*
X212034380Y-82798914D02*
X212034380Y-83227485D01*
X212034380Y-83013200D02*
X211034380Y-83013200D01*
X211177238Y-83084628D01*
X211272476Y-83156057D01*
X211320095Y-83227485D01*
X211034380Y-82334628D02*
X211034380Y-82263200D01*
X211082000Y-82191771D01*
X211129619Y-82156057D01*
X211224857Y-82120342D01*
X211415333Y-82084628D01*
X211653428Y-82084628D01*
X211843904Y-82120342D01*
X211939142Y-82156057D01*
X211986761Y-82191771D01*
X212034380Y-82263200D01*
X212034380Y-82334628D01*
X211986761Y-82406057D01*
X211939142Y-82441771D01*
X211843904Y-82477485D01*
X211653428Y-82513200D01*
X211415333Y-82513200D01*
X211224857Y-82477485D01*
X211129619Y-82441771D01*
X211082000Y-82406057D01*
X211034380Y-82334628D01*
X189780180Y-115285714D02*
X190589704Y-115285714D01*
X190684942Y-115250000D01*
X190732561Y-115214285D01*
X190780180Y-115142857D01*
X190780180Y-115000000D01*
X190732561Y-114928571D01*
X190684942Y-114892857D01*
X190589704Y-114857142D01*
X189780180Y-114857142D01*
X190113514Y-114178571D02*
X190780180Y-114178571D01*
X189732561Y-114357142D02*
X190446847Y-114535714D01*
X190446847Y-114071428D01*
X189780180Y-113642857D02*
X189780180Y-113571428D01*
X189827800Y-113500000D01*
X189875419Y-113464285D01*
X189970657Y-113428571D01*
X190161133Y-113392857D01*
X190399228Y-113392857D01*
X190589704Y-113428571D01*
X190684942Y-113464285D01*
X190732561Y-113500000D01*
X190780180Y-113571428D01*
X190780180Y-113642857D01*
X190732561Y-113714285D01*
X190684942Y-113750000D01*
X190589704Y-113785714D01*
X190399228Y-113821428D01*
X190161133Y-113821428D01*
X189970657Y-113785714D01*
X189875419Y-113750000D01*
X189827800Y-113714285D01*
X189780180Y-113642857D01*
X190113514Y-112750000D02*
X190780180Y-112750000D01*
X189732561Y-112928571D02*
X190446847Y-113107142D01*
X190446847Y-112642857D01*
X221854780Y-71271485D02*
X222569066Y-71271485D01*
X222711923Y-71307200D01*
X222807161Y-71378628D01*
X222854780Y-71485771D01*
X222854780Y-71557200D01*
X221854780Y-70985771D02*
X221854780Y-70485771D01*
X222854780Y-70807200D01*
X221854780Y-70057200D02*
X221854780Y-69985771D01*
X221902400Y-69914342D01*
X221950019Y-69878628D01*
X222045257Y-69842914D01*
X222235733Y-69807200D01*
X222473828Y-69807200D01*
X222664304Y-69842914D01*
X222759542Y-69878628D01*
X222807161Y-69914342D01*
X222854780Y-69985771D01*
X222854780Y-70057200D01*
X222807161Y-70128628D01*
X222759542Y-70164342D01*
X222664304Y-70200057D01*
X222473828Y-70235771D01*
X222235733Y-70235771D01*
X222045257Y-70200057D01*
X221950019Y-70164342D01*
X221902400Y-70128628D01*
X221854780Y-70057200D01*
X222854780Y-69092914D02*
X222854780Y-69521485D01*
X222854780Y-69307200D02*
X221854780Y-69307200D01*
X221997638Y-69378628D01*
X222092876Y-69450057D01*
X222140495Y-69521485D01*
X214304571Y-85768885D02*
X214304571Y-86018885D01*
X214828380Y-86018885D02*
X213828380Y-86018885D01*
X213828380Y-85661742D01*
X214304571Y-85126028D02*
X214352190Y-85018885D01*
X214399809Y-84983171D01*
X214495047Y-84947457D01*
X214637904Y-84947457D01*
X214733142Y-84983171D01*
X214780761Y-85018885D01*
X214828380Y-85090314D01*
X214828380Y-85376028D01*
X213828380Y-85376028D01*
X213828380Y-85126028D01*
X213876000Y-85054600D01*
X213923619Y-85018885D01*
X214018857Y-84983171D01*
X214114095Y-84983171D01*
X214209333Y-85018885D01*
X214256952Y-85054600D01*
X214304571Y-85126028D01*
X214304571Y-85376028D01*
X213828380Y-84697457D02*
X213828380Y-84197457D01*
X214828380Y-84518885D01*
X213828380Y-83768885D02*
X213828380Y-83697457D01*
X213876000Y-83626028D01*
X213923619Y-83590314D01*
X214018857Y-83554600D01*
X214209333Y-83518885D01*
X214447428Y-83518885D01*
X214637904Y-83554600D01*
X214733142Y-83590314D01*
X214780761Y-83626028D01*
X214828380Y-83697457D01*
X214828380Y-83768885D01*
X214780761Y-83840314D01*
X214733142Y-83876028D01*
X214637904Y-83911742D01*
X214447428Y-83947457D01*
X214209333Y-83947457D01*
X214018857Y-83911742D01*
X213923619Y-83876028D01*
X213876000Y-83840314D01*
X213828380Y-83768885D01*
X214828380Y-82804600D02*
X214828380Y-83233171D01*
X214828380Y-83018885D02*
X213828380Y-83018885D01*
X213971238Y-83090314D01*
X214066476Y-83161742D01*
X214114095Y-83233171D01*
X182505914Y-76128571D02*
X182255914Y-76128571D01*
X182255914Y-76652380D02*
X182255914Y-75652380D01*
X182613057Y-75652380D01*
X183148771Y-76128571D02*
X183255914Y-76176190D01*
X183291628Y-76223809D01*
X183327342Y-76319047D01*
X183327342Y-76461904D01*
X183291628Y-76557142D01*
X183255914Y-76604761D01*
X183184485Y-76652380D01*
X182898771Y-76652380D01*
X182898771Y-75652380D01*
X183148771Y-75652380D01*
X183220200Y-75700000D01*
X183255914Y-75747619D01*
X183291628Y-75842857D01*
X183291628Y-75938095D01*
X183255914Y-76033333D01*
X183220200Y-76080952D01*
X183148771Y-76128571D01*
X182898771Y-76128571D01*
X183577342Y-75652380D02*
X184041628Y-75652380D01*
X183791628Y-76033333D01*
X183898771Y-76033333D01*
X183970200Y-76080952D01*
X184005914Y-76128571D01*
X184041628Y-76223809D01*
X184041628Y-76461904D01*
X184005914Y-76557142D01*
X183970200Y-76604761D01*
X183898771Y-76652380D01*
X183684485Y-76652380D01*
X183613057Y-76604761D01*
X183577342Y-76557142D01*
X184505914Y-75652380D02*
X184577342Y-75652380D01*
X184648771Y-75700000D01*
X184684485Y-75747619D01*
X184720200Y-75842857D01*
X184755914Y-76033333D01*
X184755914Y-76271428D01*
X184720200Y-76461904D01*
X184684485Y-76557142D01*
X184648771Y-76604761D01*
X184577342Y-76652380D01*
X184505914Y-76652380D01*
X184434485Y-76604761D01*
X184398771Y-76557142D01*
X184363057Y-76461904D01*
X184327342Y-76271428D01*
X184327342Y-76033333D01*
X184363057Y-75842857D01*
X184398771Y-75747619D01*
X184434485Y-75700000D01*
X184505914Y-75652380D01*
X185041628Y-75747619D02*
X185077342Y-75700000D01*
X185148771Y-75652380D01*
X185327342Y-75652380D01*
X185398771Y-75700000D01*
X185434485Y-75747619D01*
X185470200Y-75842857D01*
X185470200Y-75938095D01*
X185434485Y-76080952D01*
X185005914Y-76652380D01*
X185470200Y-76652380D01*
X255604971Y-108695523D02*
X255652590Y-108552666D01*
X255700209Y-108505047D01*
X255795447Y-108457428D01*
X255938304Y-108457428D01*
X256033542Y-108505047D01*
X256081161Y-108552666D01*
X256128780Y-108647904D01*
X256128780Y-109028857D01*
X255128780Y-109028857D01*
X255128780Y-108695523D01*
X255176400Y-108600285D01*
X255224019Y-108552666D01*
X255319257Y-108505047D01*
X255414495Y-108505047D01*
X255509733Y-108552666D01*
X255557352Y-108600285D01*
X255604971Y-108695523D01*
X255604971Y-109028857D01*
X256128780Y-108028857D02*
X255462114Y-108028857D01*
X255652590Y-108028857D02*
X255557352Y-107981238D01*
X255509733Y-107933619D01*
X255462114Y-107838380D01*
X255462114Y-107743142D01*
X255462114Y-106981238D02*
X256128780Y-106981238D01*
X255462114Y-107409809D02*
X255985923Y-107409809D01*
X256081161Y-107362190D01*
X256128780Y-107266952D01*
X256128780Y-107124095D01*
X256081161Y-107028857D01*
X256033542Y-106981238D01*
X256081161Y-106552666D02*
X256128780Y-106457428D01*
X256128780Y-106266952D01*
X256081161Y-106171714D01*
X255985923Y-106124095D01*
X255938304Y-106124095D01*
X255843066Y-106171714D01*
X255795447Y-106266952D01*
X255795447Y-106409809D01*
X255747828Y-106505047D01*
X255652590Y-106552666D01*
X255604971Y-106552666D01*
X255509733Y-106505047D01*
X255462114Y-106409809D01*
X255462114Y-106266952D01*
X255509733Y-106171714D01*
X256128780Y-105695523D02*
X255128780Y-105695523D01*
X256128780Y-105266952D02*
X255604971Y-105266952D01*
X255509733Y-105314571D01*
X255462114Y-105409809D01*
X255462114Y-105552666D01*
X255509733Y-105647904D01*
X255557352Y-105695523D01*
X256128780Y-104647904D02*
X256081161Y-104743142D01*
X255985923Y-104790761D01*
X255128780Y-104790761D01*
X256081161Y-103886000D02*
X256128780Y-103981238D01*
X256128780Y-104171714D01*
X256081161Y-104266952D01*
X255985923Y-104314571D01*
X255604971Y-104314571D01*
X255509733Y-104266952D01*
X255462114Y-104171714D01*
X255462114Y-103981238D01*
X255509733Y-103886000D01*
X255604971Y-103838380D01*
X255700209Y-103838380D01*
X255795447Y-104314571D01*
X256081161Y-103457428D02*
X256128780Y-103362190D01*
X256128780Y-103171714D01*
X256081161Y-103076476D01*
X255985923Y-103028857D01*
X255938304Y-103028857D01*
X255843066Y-103076476D01*
X255795447Y-103171714D01*
X255795447Y-103314571D01*
X255747828Y-103409809D01*
X255652590Y-103457428D01*
X255604971Y-103457428D01*
X255509733Y-103409809D01*
X255462114Y-103314571D01*
X255462114Y-103171714D01*
X255509733Y-103076476D01*
X256081161Y-102647904D02*
X256128780Y-102552666D01*
X256128780Y-102362190D01*
X256081161Y-102266952D01*
X255985923Y-102219333D01*
X255938304Y-102219333D01*
X255843066Y-102266952D01*
X255795447Y-102362190D01*
X255795447Y-102505047D01*
X255747828Y-102600285D01*
X255652590Y-102647904D01*
X255604971Y-102647904D01*
X255509733Y-102600285D01*
X255462114Y-102505047D01*
X255462114Y-102362190D01*
X255509733Y-102266952D01*
X255604971Y-100695523D02*
X255604971Y-101028857D01*
X256128780Y-101028857D02*
X255128780Y-101028857D01*
X255128780Y-100552666D01*
X255843066Y-100219333D02*
X255843066Y-99743142D01*
X256128780Y-100314571D02*
X255128780Y-99981238D01*
X256128780Y-99647904D01*
X256128780Y-99314571D02*
X255128780Y-99314571D01*
X256128780Y-98743142D01*
X255128780Y-98743142D01*
X235672380Y-80593285D02*
X236386666Y-80593285D01*
X236529523Y-80629000D01*
X236624761Y-80700428D01*
X236672380Y-80807571D01*
X236672380Y-80879000D01*
X235672380Y-80307571D02*
X235672380Y-79843285D01*
X236053333Y-80093285D01*
X236053333Y-79986142D01*
X236100952Y-79914714D01*
X236148571Y-79879000D01*
X236243809Y-79843285D01*
X236481904Y-79843285D01*
X236577142Y-79879000D01*
X236624761Y-79914714D01*
X236672380Y-79986142D01*
X236672380Y-80200428D01*
X236624761Y-80271857D01*
X236577142Y-80307571D01*
X235672380Y-79379000D02*
X235672380Y-79307571D01*
X235720000Y-79236142D01*
X235767619Y-79200428D01*
X235862857Y-79164714D01*
X236053333Y-79129000D01*
X236291428Y-79129000D01*
X236481904Y-79164714D01*
X236577142Y-79200428D01*
X236624761Y-79236142D01*
X236672380Y-79307571D01*
X236672380Y-79379000D01*
X236624761Y-79450428D01*
X236577142Y-79486142D01*
X236481904Y-79521857D01*
X236291428Y-79557571D01*
X236053333Y-79557571D01*
X235862857Y-79521857D01*
X235767619Y-79486142D01*
X235720000Y-79450428D01*
X235672380Y-79379000D01*
X235672380Y-78450428D02*
X235672380Y-78807571D01*
X236148571Y-78843285D01*
X236100952Y-78807571D01*
X236053333Y-78736142D01*
X236053333Y-78557571D01*
X236100952Y-78486142D01*
X236148571Y-78450428D01*
X236243809Y-78414714D01*
X236481904Y-78414714D01*
X236577142Y-78450428D01*
X236624761Y-78486142D01*
X236672380Y-78557571D01*
X236672380Y-78736142D01*
X236624761Y-78807571D01*
X236577142Y-78843285D01*
X214436485Y-121397780D02*
X214436485Y-122207304D01*
X214472200Y-122302542D01*
X214507914Y-122350161D01*
X214579342Y-122397780D01*
X214722200Y-122397780D01*
X214793628Y-122350161D01*
X214829342Y-122302542D01*
X214865057Y-122207304D01*
X214865057Y-121397780D01*
X215543628Y-121731114D02*
X215543628Y-122397780D01*
X215365057Y-121350161D02*
X215186485Y-122064447D01*
X215650771Y-122064447D01*
X216329342Y-122397780D02*
X215900771Y-122397780D01*
X216115057Y-122397780D02*
X216115057Y-121397780D01*
X216043628Y-121540638D01*
X215972200Y-121635876D01*
X215900771Y-121683495D01*
X217043628Y-122397780D02*
X216615057Y-122397780D01*
X216829342Y-122397780D02*
X216829342Y-121397780D01*
X216757914Y-121540638D01*
X216686485Y-121635876D01*
X216615057Y-121683495D01*
X238708114Y-136475742D02*
X238672400Y-136523361D01*
X238565257Y-136570980D01*
X238493828Y-136570980D01*
X238386685Y-136523361D01*
X238315257Y-136428123D01*
X238279542Y-136332885D01*
X238243828Y-136142409D01*
X238243828Y-135999552D01*
X238279542Y-135809076D01*
X238315257Y-135713838D01*
X238386685Y-135618600D01*
X238493828Y-135570980D01*
X238565257Y-135570980D01*
X238672400Y-135618600D01*
X238708114Y-135666219D01*
X238993828Y-135666219D02*
X239029542Y-135618600D01*
X239100971Y-135570980D01*
X239279542Y-135570980D01*
X239350971Y-135618600D01*
X239386685Y-135666219D01*
X239422400Y-135761457D01*
X239422400Y-135856695D01*
X239386685Y-135999552D01*
X238958114Y-136570980D01*
X239422400Y-136570980D01*
X239886685Y-135570980D02*
X239958114Y-135570980D01*
X240029542Y-135618600D01*
X240065257Y-135666219D01*
X240100971Y-135761457D01*
X240136685Y-135951933D01*
X240136685Y-136190028D01*
X240100971Y-136380504D01*
X240065257Y-136475742D01*
X240029542Y-136523361D01*
X239958114Y-136570980D01*
X239886685Y-136570980D01*
X239815257Y-136523361D01*
X239779542Y-136475742D01*
X239743828Y-136380504D01*
X239708114Y-136190028D01*
X239708114Y-135951933D01*
X239743828Y-135761457D01*
X239779542Y-135666219D01*
X239815257Y-135618600D01*
X239886685Y-135570980D01*
X240779542Y-135570980D02*
X240636685Y-135570980D01*
X240565257Y-135618600D01*
X240529542Y-135666219D01*
X240458114Y-135809076D01*
X240422400Y-135999552D01*
X240422400Y-136380504D01*
X240458114Y-136475742D01*
X240493828Y-136523361D01*
X240565257Y-136570980D01*
X240708114Y-136570980D01*
X240779542Y-136523361D01*
X240815257Y-136475742D01*
X240850971Y-136380504D01*
X240850971Y-136142409D01*
X240815257Y-136047171D01*
X240779542Y-135999552D01*
X240708114Y-135951933D01*
X240565257Y-135951933D01*
X240493828Y-135999552D01*
X240458114Y-136047171D01*
X240422400Y-136142409D01*
X209856342Y-124613485D02*
X209903961Y-124649200D01*
X209951580Y-124756342D01*
X209951580Y-124827771D01*
X209903961Y-124934914D01*
X209808723Y-125006342D01*
X209713485Y-125042057D01*
X209523009Y-125077771D01*
X209380152Y-125077771D01*
X209189676Y-125042057D01*
X209094438Y-125006342D01*
X208999200Y-124934914D01*
X208951580Y-124827771D01*
X208951580Y-124756342D01*
X208999200Y-124649200D01*
X209046819Y-124613485D01*
X209284914Y-123970628D02*
X209951580Y-123970628D01*
X208903961Y-124149200D02*
X209618247Y-124327771D01*
X209618247Y-123863485D01*
X208951580Y-123434914D02*
X208951580Y-123363485D01*
X208999200Y-123292057D01*
X209046819Y-123256342D01*
X209142057Y-123220628D01*
X209332533Y-123184914D01*
X209570628Y-123184914D01*
X209761104Y-123220628D01*
X209856342Y-123256342D01*
X209903961Y-123292057D01*
X209951580Y-123363485D01*
X209951580Y-123434914D01*
X209903961Y-123506342D01*
X209856342Y-123542057D01*
X209761104Y-123577771D01*
X209570628Y-123613485D01*
X209332533Y-123613485D01*
X209142057Y-123577771D01*
X209046819Y-123542057D01*
X208999200Y-123506342D01*
X208951580Y-123434914D01*
X209951580Y-122827771D02*
X209951580Y-122684914D01*
X209903961Y-122613485D01*
X209856342Y-122577771D01*
X209713485Y-122506342D01*
X209523009Y-122470628D01*
X209142057Y-122470628D01*
X209046819Y-122506342D01*
X208999200Y-122542057D01*
X208951580Y-122613485D01*
X208951580Y-122756342D01*
X208999200Y-122827771D01*
X209046819Y-122863485D01*
X209142057Y-122899200D01*
X209380152Y-122899200D01*
X209475390Y-122863485D01*
X209523009Y-122827771D01*
X209570628Y-122756342D01*
X209570628Y-122613485D01*
X209523009Y-122542057D01*
X209475390Y-122506342D01*
X209380152Y-122470628D01*
X213471285Y-135778380D02*
X213471285Y-136587904D01*
X213507000Y-136683142D01*
X213542714Y-136730761D01*
X213614142Y-136778380D01*
X213757000Y-136778380D01*
X213828428Y-136730761D01*
X213864142Y-136683142D01*
X213899857Y-136587904D01*
X213899857Y-135778380D01*
X214221285Y-135873619D02*
X214257000Y-135826000D01*
X214328428Y-135778380D01*
X214507000Y-135778380D01*
X214578428Y-135826000D01*
X214614142Y-135873619D01*
X214649857Y-135968857D01*
X214649857Y-136064095D01*
X214614142Y-136206952D01*
X214185571Y-136778380D01*
X214649857Y-136778380D01*
X215114142Y-135778380D02*
X215185571Y-135778380D01*
X215257000Y-135826000D01*
X215292714Y-135873619D01*
X215328428Y-135968857D01*
X215364142Y-136159333D01*
X215364142Y-136397428D01*
X215328428Y-136587904D01*
X215292714Y-136683142D01*
X215257000Y-136730761D01*
X215185571Y-136778380D01*
X215114142Y-136778380D01*
X215042714Y-136730761D01*
X215007000Y-136683142D01*
X214971285Y-136587904D01*
X214935571Y-136397428D01*
X214935571Y-136159333D01*
X214971285Y-135968857D01*
X215007000Y-135873619D01*
X215042714Y-135826000D01*
X215114142Y-135778380D01*
X216078428Y-136778380D02*
X215649857Y-136778380D01*
X215864142Y-136778380D02*
X215864142Y-135778380D01*
X215792714Y-135921238D01*
X215721285Y-136016476D01*
X215649857Y-136064095D01*
X179912971Y-81781085D02*
X179912971Y-82031085D01*
X180436780Y-82031085D02*
X179436780Y-82031085D01*
X179436780Y-81673942D01*
X179912971Y-81138228D02*
X179960590Y-81031085D01*
X180008209Y-80995371D01*
X180103447Y-80959657D01*
X180246304Y-80959657D01*
X180341542Y-80995371D01*
X180389161Y-81031085D01*
X180436780Y-81102514D01*
X180436780Y-81388228D01*
X179436780Y-81388228D01*
X179436780Y-81138228D01*
X179484400Y-81066800D01*
X179532019Y-81031085D01*
X179627257Y-80995371D01*
X179722495Y-80995371D01*
X179817733Y-81031085D01*
X179865352Y-81066800D01*
X179912971Y-81138228D01*
X179912971Y-81388228D01*
X179532019Y-80673942D02*
X179484400Y-80638228D01*
X179436780Y-80566800D01*
X179436780Y-80388228D01*
X179484400Y-80316800D01*
X179532019Y-80281085D01*
X179627257Y-80245371D01*
X179722495Y-80245371D01*
X179865352Y-80281085D01*
X180436780Y-80709657D01*
X180436780Y-80245371D01*
X179436780Y-79781085D02*
X179436780Y-79709657D01*
X179484400Y-79638228D01*
X179532019Y-79602514D01*
X179627257Y-79566800D01*
X179817733Y-79531085D01*
X180055828Y-79531085D01*
X180246304Y-79566800D01*
X180341542Y-79602514D01*
X180389161Y-79638228D01*
X180436780Y-79709657D01*
X180436780Y-79781085D01*
X180389161Y-79852514D01*
X180341542Y-79888228D01*
X180246304Y-79923942D01*
X180055828Y-79959657D01*
X179817733Y-79959657D01*
X179627257Y-79923942D01*
X179532019Y-79888228D01*
X179484400Y-79852514D01*
X179436780Y-79781085D01*
X180436780Y-78816800D02*
X180436780Y-79245371D01*
X180436780Y-79031085D02*
X179436780Y-79031085D01*
X179579638Y-79102514D01*
X179674876Y-79173942D01*
X179722495Y-79245371D01*
X221794342Y-80544485D02*
X221841961Y-80580200D01*
X221889580Y-80687342D01*
X221889580Y-80758771D01*
X221841961Y-80865914D01*
X221746723Y-80937342D01*
X221651485Y-80973057D01*
X221461009Y-81008771D01*
X221318152Y-81008771D01*
X221127676Y-80973057D01*
X221032438Y-80937342D01*
X220937200Y-80865914D01*
X220889580Y-80758771D01*
X220889580Y-80687342D01*
X220937200Y-80580200D01*
X220984819Y-80544485D01*
X220889580Y-80294485D02*
X220889580Y-79794485D01*
X221889580Y-80115914D01*
X221889580Y-79115914D02*
X221889580Y-79544485D01*
X221889580Y-79330200D02*
X220889580Y-79330200D01*
X221032438Y-79401628D01*
X221127676Y-79473057D01*
X221175295Y-79544485D01*
X220889580Y-78865914D02*
X220889580Y-78365914D01*
X221889580Y-78687342D01*
X217063580Y-78106085D02*
X216587390Y-78356085D01*
X217063580Y-78534657D02*
X216063580Y-78534657D01*
X216063580Y-78248942D01*
X216111200Y-78177514D01*
X216158819Y-78141800D01*
X216254057Y-78106085D01*
X216396914Y-78106085D01*
X216492152Y-78141800D01*
X216539771Y-78177514D01*
X216587390Y-78248942D01*
X216587390Y-78534657D01*
X216063580Y-77856085D02*
X216063580Y-77356085D01*
X217063580Y-77677514D01*
X216063580Y-76927514D02*
X216063580Y-76856085D01*
X216111200Y-76784657D01*
X216158819Y-76748942D01*
X216254057Y-76713228D01*
X216444533Y-76677514D01*
X216682628Y-76677514D01*
X216873104Y-76713228D01*
X216968342Y-76748942D01*
X217015961Y-76784657D01*
X217063580Y-76856085D01*
X217063580Y-76927514D01*
X217015961Y-76998942D01*
X216968342Y-77034657D01*
X216873104Y-77070371D01*
X216682628Y-77106085D01*
X216444533Y-77106085D01*
X216254057Y-77070371D01*
X216158819Y-77034657D01*
X216111200Y-76998942D01*
X216063580Y-76927514D01*
X216063580Y-76034657D02*
X216063580Y-76177514D01*
X216111200Y-76248942D01*
X216158819Y-76284657D01*
X216301676Y-76356085D01*
X216492152Y-76391800D01*
X216873104Y-76391800D01*
X216968342Y-76356085D01*
X217015961Y-76320371D01*
X217063580Y-76248942D01*
X217063580Y-76106085D01*
X217015961Y-76034657D01*
X216968342Y-75998942D01*
X216873104Y-75963228D01*
X216635009Y-75963228D01*
X216539771Y-75998942D01*
X216492152Y-76034657D01*
X216444533Y-76106085D01*
X216444533Y-76248942D01*
X216492152Y-76320371D01*
X216539771Y-76356085D01*
X216635009Y-76391800D01*
X196989457Y-107716580D02*
X196739457Y-107240390D01*
X196560885Y-107716580D02*
X196560885Y-106716580D01*
X196846600Y-106716580D01*
X196918028Y-106764200D01*
X196953742Y-106811819D01*
X196989457Y-106907057D01*
X196989457Y-107049914D01*
X196953742Y-107145152D01*
X196918028Y-107192771D01*
X196846600Y-107240390D01*
X196560885Y-107240390D01*
X197310885Y-107716580D02*
X197310885Y-106716580D01*
X197739457Y-107716580D01*
X197739457Y-106716580D01*
X198418028Y-107049914D02*
X198418028Y-107716580D01*
X198239457Y-106668961D02*
X198060885Y-107383247D01*
X198525171Y-107383247D01*
X198953742Y-106716580D02*
X199025171Y-106716580D01*
X199096600Y-106764200D01*
X199132314Y-106811819D01*
X199168028Y-106907057D01*
X199203742Y-107097533D01*
X199203742Y-107335628D01*
X199168028Y-107526104D01*
X199132314Y-107621342D01*
X199096600Y-107668961D01*
X199025171Y-107716580D01*
X198953742Y-107716580D01*
X198882314Y-107668961D01*
X198846600Y-107621342D01*
X198810885Y-107526104D01*
X198775171Y-107335628D01*
X198775171Y-107097533D01*
X198810885Y-106907057D01*
X198846600Y-106811819D01*
X198882314Y-106764200D01*
X198953742Y-106716580D01*
X199882314Y-106716580D02*
X199525171Y-106716580D01*
X199489457Y-107192771D01*
X199525171Y-107145152D01*
X199596600Y-107097533D01*
X199775171Y-107097533D01*
X199846600Y-107145152D01*
X199882314Y-107192771D01*
X199918028Y-107288009D01*
X199918028Y-107526104D01*
X199882314Y-107621342D01*
X199846600Y-107668961D01*
X199775171Y-107716580D01*
X199596600Y-107716580D01*
X199525171Y-107668961D01*
X199489457Y-107621342D01*
X206674980Y-71600457D02*
X205674980Y-71600457D01*
X205674980Y-71421885D01*
X205722600Y-71314742D01*
X205817838Y-71243314D01*
X205913076Y-71207600D01*
X206103552Y-71171885D01*
X206246409Y-71171885D01*
X206436885Y-71207600D01*
X206532123Y-71243314D01*
X206627361Y-71314742D01*
X206674980Y-71421885D01*
X206674980Y-71600457D01*
X205770219Y-70886171D02*
X205722600Y-70850457D01*
X205674980Y-70779028D01*
X205674980Y-70600457D01*
X205722600Y-70529028D01*
X205770219Y-70493314D01*
X205865457Y-70457600D01*
X205960695Y-70457600D01*
X206103552Y-70493314D01*
X206674980Y-70921885D01*
X206674980Y-70457600D01*
X205674980Y-69993314D02*
X205674980Y-69921885D01*
X205722600Y-69850457D01*
X205770219Y-69814742D01*
X205865457Y-69779028D01*
X206055933Y-69743314D01*
X206294028Y-69743314D01*
X206484504Y-69779028D01*
X206579742Y-69814742D01*
X206627361Y-69850457D01*
X206674980Y-69921885D01*
X206674980Y-69993314D01*
X206627361Y-70064742D01*
X206579742Y-70100457D01*
X206484504Y-70136171D01*
X206294028Y-70171885D01*
X206055933Y-70171885D01*
X205865457Y-70136171D01*
X205770219Y-70100457D01*
X205722600Y-70064742D01*
X205674980Y-69993314D01*
X205770219Y-69457600D02*
X205722600Y-69421885D01*
X205674980Y-69350457D01*
X205674980Y-69171885D01*
X205722600Y-69100457D01*
X205770219Y-69064742D01*
X205865457Y-69029028D01*
X205960695Y-69029028D01*
X206103552Y-69064742D01*
X206674980Y-69493314D01*
X206674980Y-69029028D01*
X205664714Y-121981980D02*
X205664714Y-122696266D01*
X205629000Y-122839123D01*
X205557571Y-122934361D01*
X205450428Y-122981980D01*
X205379000Y-122981980D01*
X205950428Y-121981980D02*
X206414714Y-121981980D01*
X206164714Y-122362933D01*
X206271857Y-122362933D01*
X206343285Y-122410552D01*
X206379000Y-122458171D01*
X206414714Y-122553409D01*
X206414714Y-122791504D01*
X206379000Y-122886742D01*
X206343285Y-122934361D01*
X206271857Y-122981980D01*
X206057571Y-122981980D01*
X205986142Y-122934361D01*
X205950428Y-122886742D01*
X206879000Y-121981980D02*
X206950428Y-121981980D01*
X207021857Y-122029600D01*
X207057571Y-122077219D01*
X207093285Y-122172457D01*
X207129000Y-122362933D01*
X207129000Y-122601028D01*
X207093285Y-122791504D01*
X207057571Y-122886742D01*
X207021857Y-122934361D01*
X206950428Y-122981980D01*
X206879000Y-122981980D01*
X206807571Y-122934361D01*
X206771857Y-122886742D01*
X206736142Y-122791504D01*
X206700428Y-122601028D01*
X206700428Y-122362933D01*
X206736142Y-122172457D01*
X206771857Y-122077219D01*
X206807571Y-122029600D01*
X206879000Y-121981980D01*
X207379000Y-121981980D02*
X207843285Y-121981980D01*
X207593285Y-122362933D01*
X207700428Y-122362933D01*
X207771857Y-122410552D01*
X207807571Y-122458171D01*
X207843285Y-122553409D01*
X207843285Y-122791504D01*
X207807571Y-122886742D01*
X207771857Y-122934361D01*
X207700428Y-122981980D01*
X207486142Y-122981980D01*
X207414714Y-122934361D01*
X207379000Y-122886742D01*
X211149114Y-107716580D02*
X210899114Y-107240390D01*
X210720542Y-107716580D02*
X210720542Y-106716580D01*
X211006257Y-106716580D01*
X211077685Y-106764200D01*
X211113400Y-106811819D01*
X211149114Y-106907057D01*
X211149114Y-107049914D01*
X211113400Y-107145152D01*
X211077685Y-107192771D01*
X211006257Y-107240390D01*
X210720542Y-107240390D01*
X211791971Y-107049914D02*
X211791971Y-107716580D01*
X211613400Y-106668961D02*
X211434828Y-107383247D01*
X211899114Y-107383247D01*
X212327685Y-106716580D02*
X212399114Y-106716580D01*
X212470542Y-106764200D01*
X212506257Y-106811819D01*
X212541971Y-106907057D01*
X212577685Y-107097533D01*
X212577685Y-107335628D01*
X212541971Y-107526104D01*
X212506257Y-107621342D01*
X212470542Y-107668961D01*
X212399114Y-107716580D01*
X212327685Y-107716580D01*
X212256257Y-107668961D01*
X212220542Y-107621342D01*
X212184828Y-107526104D01*
X212149114Y-107335628D01*
X212149114Y-107097533D01*
X212184828Y-106907057D01*
X212220542Y-106811819D01*
X212256257Y-106764200D01*
X212327685Y-106716580D01*
X213220542Y-106716580D02*
X213077685Y-106716580D01*
X213006257Y-106764200D01*
X212970542Y-106811819D01*
X212899114Y-106954676D01*
X212863400Y-107145152D01*
X212863400Y-107526104D01*
X212899114Y-107621342D01*
X212934828Y-107668961D01*
X213006257Y-107716580D01*
X213149114Y-107716580D01*
X213220542Y-107668961D01*
X213256257Y-107621342D01*
X213291971Y-107526104D01*
X213291971Y-107288009D01*
X213256257Y-107192771D01*
X213220542Y-107145152D01*
X213149114Y-107097533D01*
X213006257Y-107097533D01*
X212934828Y-107145152D01*
X212899114Y-107192771D01*
X212863400Y-107288009D01*
X184225114Y-71223142D02*
X184189400Y-71270761D01*
X184082257Y-71318380D01*
X184010828Y-71318380D01*
X183903685Y-71270761D01*
X183832257Y-71175523D01*
X183796542Y-71080285D01*
X183760828Y-70889809D01*
X183760828Y-70746952D01*
X183796542Y-70556476D01*
X183832257Y-70461238D01*
X183903685Y-70366000D01*
X184010828Y-70318380D01*
X184082257Y-70318380D01*
X184189400Y-70366000D01*
X184225114Y-70413619D01*
X184475114Y-70318380D02*
X184939400Y-70318380D01*
X184689400Y-70699333D01*
X184796542Y-70699333D01*
X184867971Y-70746952D01*
X184903685Y-70794571D01*
X184939400Y-70889809D01*
X184939400Y-71127904D01*
X184903685Y-71223142D01*
X184867971Y-71270761D01*
X184796542Y-71318380D01*
X184582257Y-71318380D01*
X184510828Y-71270761D01*
X184475114Y-71223142D01*
X185403685Y-70318380D02*
X185475114Y-70318380D01*
X185546542Y-70366000D01*
X185582257Y-70413619D01*
X185617971Y-70508857D01*
X185653685Y-70699333D01*
X185653685Y-70937428D01*
X185617971Y-71127904D01*
X185582257Y-71223142D01*
X185546542Y-71270761D01*
X185475114Y-71318380D01*
X185403685Y-71318380D01*
X185332257Y-71270761D01*
X185296542Y-71223142D01*
X185260828Y-71127904D01*
X185225114Y-70937428D01*
X185225114Y-70699333D01*
X185260828Y-70508857D01*
X185296542Y-70413619D01*
X185332257Y-70366000D01*
X185403685Y-70318380D01*
X186010828Y-71318380D02*
X186153685Y-71318380D01*
X186225114Y-71270761D01*
X186260828Y-71223142D01*
X186332257Y-71080285D01*
X186367971Y-70889809D01*
X186367971Y-70508857D01*
X186332257Y-70413619D01*
X186296542Y-70366000D01*
X186225114Y-70318380D01*
X186082257Y-70318380D01*
X186010828Y-70366000D01*
X185975114Y-70413619D01*
X185939400Y-70508857D01*
X185939400Y-70746952D01*
X185975114Y-70842190D01*
X186010828Y-70889809D01*
X186082257Y-70937428D01*
X186225114Y-70937428D01*
X186296542Y-70889809D01*
X186332257Y-70842190D01*
X186367971Y-70746952D01*
X191184714Y-107716580D02*
X190934714Y-107240390D01*
X190756142Y-107716580D02*
X190756142Y-106716580D01*
X191041857Y-106716580D01*
X191113285Y-106764200D01*
X191149000Y-106811819D01*
X191184714Y-106907057D01*
X191184714Y-107049914D01*
X191149000Y-107145152D01*
X191113285Y-107192771D01*
X191041857Y-107240390D01*
X190756142Y-107240390D01*
X191827571Y-107049914D02*
X191827571Y-107716580D01*
X191649000Y-106668961D02*
X191470428Y-107383247D01*
X191934714Y-107383247D01*
X192363285Y-106716580D02*
X192434714Y-106716580D01*
X192506142Y-106764200D01*
X192541857Y-106811819D01*
X192577571Y-106907057D01*
X192613285Y-107097533D01*
X192613285Y-107335628D01*
X192577571Y-107526104D01*
X192541857Y-107621342D01*
X192506142Y-107668961D01*
X192434714Y-107716580D01*
X192363285Y-107716580D01*
X192291857Y-107668961D01*
X192256142Y-107621342D01*
X192220428Y-107526104D01*
X192184714Y-107335628D01*
X192184714Y-107097533D01*
X192220428Y-106907057D01*
X192256142Y-106811819D01*
X192291857Y-106764200D01*
X192363285Y-106716580D01*
X193291857Y-106716580D02*
X192934714Y-106716580D01*
X192899000Y-107192771D01*
X192934714Y-107145152D01*
X193006142Y-107097533D01*
X193184714Y-107097533D01*
X193256142Y-107145152D01*
X193291857Y-107192771D01*
X193327571Y-107288009D01*
X193327571Y-107526104D01*
X193291857Y-107621342D01*
X193256142Y-107668961D01*
X193184714Y-107716580D01*
X193006142Y-107716580D01*
X192934714Y-107668961D01*
X192899000Y-107621342D01*
X218314542Y-84202085D02*
X218362161Y-84237800D01*
X218409780Y-84344942D01*
X218409780Y-84416371D01*
X218362161Y-84523514D01*
X218266923Y-84594942D01*
X218171685Y-84630657D01*
X217981209Y-84666371D01*
X217838352Y-84666371D01*
X217647876Y-84630657D01*
X217552638Y-84594942D01*
X217457400Y-84523514D01*
X217409780Y-84416371D01*
X217409780Y-84344942D01*
X217457400Y-84237800D01*
X217505019Y-84202085D01*
X217409780Y-83952085D02*
X217409780Y-83452085D01*
X218409780Y-83773514D01*
X218409780Y-82773514D02*
X218409780Y-83202085D01*
X218409780Y-82987800D02*
X217409780Y-82987800D01*
X217552638Y-83059228D01*
X217647876Y-83130657D01*
X217695495Y-83202085D01*
X218409780Y-82059228D02*
X218409780Y-82487800D01*
X218409780Y-82273514D02*
X217409780Y-82273514D01*
X217552638Y-82344942D01*
X217647876Y-82416371D01*
X217695495Y-82487800D01*
X201192314Y-70156342D02*
X201156600Y-70203961D01*
X201049457Y-70251580D01*
X200978028Y-70251580D01*
X200870885Y-70203961D01*
X200799457Y-70108723D01*
X200763742Y-70013485D01*
X200728028Y-69823009D01*
X200728028Y-69680152D01*
X200763742Y-69489676D01*
X200799457Y-69394438D01*
X200870885Y-69299200D01*
X200978028Y-69251580D01*
X201049457Y-69251580D01*
X201156600Y-69299200D01*
X201192314Y-69346819D01*
X201442314Y-69251580D02*
X201906600Y-69251580D01*
X201656600Y-69632533D01*
X201763742Y-69632533D01*
X201835171Y-69680152D01*
X201870885Y-69727771D01*
X201906600Y-69823009D01*
X201906600Y-70061104D01*
X201870885Y-70156342D01*
X201835171Y-70203961D01*
X201763742Y-70251580D01*
X201549457Y-70251580D01*
X201478028Y-70203961D01*
X201442314Y-70156342D01*
X202370885Y-69251580D02*
X202442314Y-69251580D01*
X202513742Y-69299200D01*
X202549457Y-69346819D01*
X202585171Y-69442057D01*
X202620885Y-69632533D01*
X202620885Y-69870628D01*
X202585171Y-70061104D01*
X202549457Y-70156342D01*
X202513742Y-70203961D01*
X202442314Y-70251580D01*
X202370885Y-70251580D01*
X202299457Y-70203961D01*
X202263742Y-70156342D01*
X202228028Y-70061104D01*
X202192314Y-69870628D01*
X202192314Y-69632533D01*
X202228028Y-69442057D01*
X202263742Y-69346819D01*
X202299457Y-69299200D01*
X202370885Y-69251580D01*
X202870885Y-69251580D02*
X203370885Y-69251580D01*
X203049457Y-70251580D01*
X221235542Y-129972885D02*
X221283161Y-130008600D01*
X221330780Y-130115742D01*
X221330780Y-130187171D01*
X221283161Y-130294314D01*
X221187923Y-130365742D01*
X221092685Y-130401457D01*
X220902209Y-130437171D01*
X220759352Y-130437171D01*
X220568876Y-130401457D01*
X220473638Y-130365742D01*
X220378400Y-130294314D01*
X220330780Y-130187171D01*
X220330780Y-130115742D01*
X220378400Y-130008600D01*
X220426019Y-129972885D01*
X220426019Y-129687171D02*
X220378400Y-129651457D01*
X220330780Y-129580028D01*
X220330780Y-129401457D01*
X220378400Y-129330028D01*
X220426019Y-129294314D01*
X220521257Y-129258600D01*
X220616495Y-129258600D01*
X220759352Y-129294314D01*
X221330780Y-129722885D01*
X221330780Y-129258600D01*
X220330780Y-128794314D02*
X220330780Y-128722885D01*
X220378400Y-128651457D01*
X220426019Y-128615742D01*
X220521257Y-128580028D01*
X220711733Y-128544314D01*
X220949828Y-128544314D01*
X221140304Y-128580028D01*
X221235542Y-128615742D01*
X221283161Y-128651457D01*
X221330780Y-128722885D01*
X221330780Y-128794314D01*
X221283161Y-128865742D01*
X221235542Y-128901457D01*
X221140304Y-128937171D01*
X220949828Y-128972885D01*
X220711733Y-128972885D01*
X220521257Y-128937171D01*
X220426019Y-128901457D01*
X220378400Y-128865742D01*
X220330780Y-128794314D01*
X221330780Y-127830028D02*
X221330780Y-128258600D01*
X221330780Y-128044314D02*
X220330780Y-128044314D01*
X220473638Y-128115742D01*
X220568876Y-128187171D01*
X220616495Y-128258600D01*
X203201542Y-77801285D02*
X203249161Y-77837000D01*
X203296780Y-77944142D01*
X203296780Y-78015571D01*
X203249161Y-78122714D01*
X203153923Y-78194142D01*
X203058685Y-78229857D01*
X202868209Y-78265571D01*
X202725352Y-78265571D01*
X202534876Y-78229857D01*
X202439638Y-78194142D01*
X202344400Y-78122714D01*
X202296780Y-78015571D01*
X202296780Y-77944142D01*
X202344400Y-77837000D01*
X202392019Y-77801285D01*
X202296780Y-77551285D02*
X202296780Y-77087000D01*
X202677733Y-77337000D01*
X202677733Y-77229857D01*
X202725352Y-77158428D01*
X202772971Y-77122714D01*
X202868209Y-77087000D01*
X203106304Y-77087000D01*
X203201542Y-77122714D01*
X203249161Y-77158428D01*
X203296780Y-77229857D01*
X203296780Y-77444142D01*
X203249161Y-77515571D01*
X203201542Y-77551285D01*
X202296780Y-76622714D02*
X202296780Y-76551285D01*
X202344400Y-76479857D01*
X202392019Y-76444142D01*
X202487257Y-76408428D01*
X202677733Y-76372714D01*
X202915828Y-76372714D01*
X203106304Y-76408428D01*
X203201542Y-76444142D01*
X203249161Y-76479857D01*
X203296780Y-76551285D01*
X203296780Y-76622714D01*
X203249161Y-76694142D01*
X203201542Y-76729857D01*
X203106304Y-76765571D01*
X202915828Y-76801285D01*
X202677733Y-76801285D01*
X202487257Y-76765571D01*
X202392019Y-76729857D01*
X202344400Y-76694142D01*
X202296780Y-76622714D01*
X203296780Y-75658428D02*
X203296780Y-76087000D01*
X203296780Y-75872714D02*
X202296780Y-75872714D01*
X202439638Y-75944142D01*
X202534876Y-76015571D01*
X202582495Y-76087000D01*
X220191514Y-108478580D02*
X219941514Y-108002390D01*
X219762942Y-108478580D02*
X219762942Y-107478580D01*
X220048657Y-107478580D01*
X220120085Y-107526200D01*
X220155800Y-107573819D01*
X220191514Y-107669057D01*
X220191514Y-107811914D01*
X220155800Y-107907152D01*
X220120085Y-107954771D01*
X220048657Y-108002390D01*
X219762942Y-108002390D01*
X220834371Y-107811914D02*
X220834371Y-108478580D01*
X220655800Y-107430961D02*
X220477228Y-108145247D01*
X220941514Y-108145247D01*
X221370085Y-107478580D02*
X221441514Y-107478580D01*
X221512942Y-107526200D01*
X221548657Y-107573819D01*
X221584371Y-107669057D01*
X221620085Y-107859533D01*
X221620085Y-108097628D01*
X221584371Y-108288104D01*
X221548657Y-108383342D01*
X221512942Y-108430961D01*
X221441514Y-108478580D01*
X221370085Y-108478580D01*
X221298657Y-108430961D01*
X221262942Y-108383342D01*
X221227228Y-108288104D01*
X221191514Y-108097628D01*
X221191514Y-107859533D01*
X221227228Y-107669057D01*
X221262942Y-107573819D01*
X221298657Y-107526200D01*
X221370085Y-107478580D01*
X222048657Y-107907152D02*
X221977228Y-107859533D01*
X221941514Y-107811914D01*
X221905800Y-107716676D01*
X221905800Y-107669057D01*
X221941514Y-107573819D01*
X221977228Y-107526200D01*
X222048657Y-107478580D01*
X222191514Y-107478580D01*
X222262942Y-107526200D01*
X222298657Y-107573819D01*
X222334371Y-107669057D01*
X222334371Y-107716676D01*
X222298657Y-107811914D01*
X222262942Y-107859533D01*
X222191514Y-107907152D01*
X222048657Y-107907152D01*
X221977228Y-107954771D01*
X221941514Y-108002390D01*
X221905800Y-108097628D01*
X221905800Y-108288104D01*
X221941514Y-108383342D01*
X221977228Y-108430961D01*
X222048657Y-108478580D01*
X222191514Y-108478580D01*
X222262942Y-108430961D01*
X222298657Y-108383342D01*
X222334371Y-108288104D01*
X222334371Y-108097628D01*
X222298657Y-108002390D01*
X222262942Y-107954771D01*
X222191514Y-107907152D01*
X217273142Y-95911485D02*
X217320761Y-95947200D01*
X217368380Y-96054342D01*
X217368380Y-96125771D01*
X217320761Y-96232914D01*
X217225523Y-96304342D01*
X217130285Y-96340057D01*
X216939809Y-96375771D01*
X216796952Y-96375771D01*
X216606476Y-96340057D01*
X216511238Y-96304342D01*
X216416000Y-96232914D01*
X216368380Y-96125771D01*
X216368380Y-96054342D01*
X216416000Y-95947200D01*
X216463619Y-95911485D01*
X216701714Y-95268628D02*
X217368380Y-95268628D01*
X216320761Y-95447200D02*
X217035047Y-95625771D01*
X217035047Y-95161485D01*
X216368380Y-94732914D02*
X216368380Y-94661485D01*
X216416000Y-94590057D01*
X216463619Y-94554342D01*
X216558857Y-94518628D01*
X216749333Y-94482914D01*
X216987428Y-94482914D01*
X217177904Y-94518628D01*
X217273142Y-94554342D01*
X217320761Y-94590057D01*
X217368380Y-94661485D01*
X217368380Y-94732914D01*
X217320761Y-94804342D01*
X217273142Y-94840057D01*
X217177904Y-94875771D01*
X216987428Y-94911485D01*
X216749333Y-94911485D01*
X216558857Y-94875771D01*
X216463619Y-94840057D01*
X216416000Y-94804342D01*
X216368380Y-94732914D01*
X216368380Y-93804342D02*
X216368380Y-94161485D01*
X216844571Y-94197200D01*
X216796952Y-94161485D01*
X216749333Y-94090057D01*
X216749333Y-93911485D01*
X216796952Y-93840057D01*
X216844571Y-93804342D01*
X216939809Y-93768628D01*
X217177904Y-93768628D01*
X217273142Y-93804342D01*
X217320761Y-93840057D01*
X217368380Y-93911485D01*
X217368380Y-94090057D01*
X217320761Y-94161485D01*
X217273142Y-94197200D01*
X199628285Y-81468980D02*
X199628285Y-82278504D01*
X199664000Y-82373742D01*
X199699714Y-82421361D01*
X199771142Y-82468980D01*
X199914000Y-82468980D01*
X199985428Y-82421361D01*
X200021142Y-82373742D01*
X200056857Y-82278504D01*
X200056857Y-81468980D01*
X200342571Y-81468980D02*
X200806857Y-81468980D01*
X200556857Y-81849933D01*
X200664000Y-81849933D01*
X200735428Y-81897552D01*
X200771142Y-81945171D01*
X200806857Y-82040409D01*
X200806857Y-82278504D01*
X200771142Y-82373742D01*
X200735428Y-82421361D01*
X200664000Y-82468980D01*
X200449714Y-82468980D01*
X200378285Y-82421361D01*
X200342571Y-82373742D01*
X201271142Y-81468980D02*
X201342571Y-81468980D01*
X201414000Y-81516600D01*
X201449714Y-81564219D01*
X201485428Y-81659457D01*
X201521142Y-81849933D01*
X201521142Y-82088028D01*
X201485428Y-82278504D01*
X201449714Y-82373742D01*
X201414000Y-82421361D01*
X201342571Y-82468980D01*
X201271142Y-82468980D01*
X201199714Y-82421361D01*
X201164000Y-82373742D01*
X201128285Y-82278504D01*
X201092571Y-82088028D01*
X201092571Y-81849933D01*
X201128285Y-81659457D01*
X201164000Y-81564219D01*
X201199714Y-81516600D01*
X201271142Y-81468980D01*
X202235428Y-82468980D02*
X201806857Y-82468980D01*
X202021142Y-82468980D02*
X202021142Y-81468980D01*
X201949714Y-81611838D01*
X201878285Y-81707076D01*
X201806857Y-81754695D01*
X217735714Y-79405171D02*
X217485714Y-79405171D01*
X217485714Y-79928980D02*
X217485714Y-78928980D01*
X217842857Y-78928980D01*
X218378571Y-79405171D02*
X218485714Y-79452790D01*
X218521428Y-79500409D01*
X218557142Y-79595647D01*
X218557142Y-79738504D01*
X218521428Y-79833742D01*
X218485714Y-79881361D01*
X218414285Y-79928980D01*
X218128571Y-79928980D01*
X218128571Y-78928980D01*
X218378571Y-78928980D01*
X218450000Y-78976600D01*
X218485714Y-79024219D01*
X218521428Y-79119457D01*
X218521428Y-79214695D01*
X218485714Y-79309933D01*
X218450000Y-79357552D01*
X218378571Y-79405171D01*
X218128571Y-79405171D01*
X218807142Y-78928980D02*
X219307142Y-78928980D01*
X218985714Y-79928980D01*
X219735714Y-78928980D02*
X219807142Y-78928980D01*
X219878571Y-78976600D01*
X219914285Y-79024219D01*
X219950000Y-79119457D01*
X219985714Y-79309933D01*
X219985714Y-79548028D01*
X219950000Y-79738504D01*
X219914285Y-79833742D01*
X219878571Y-79881361D01*
X219807142Y-79928980D01*
X219735714Y-79928980D01*
X219664285Y-79881361D01*
X219628571Y-79833742D01*
X219592857Y-79738504D01*
X219557142Y-79548028D01*
X219557142Y-79309933D01*
X219592857Y-79119457D01*
X219628571Y-79024219D01*
X219664285Y-78976600D01*
X219735714Y-78928980D01*
X220235714Y-78928980D02*
X220700000Y-78928980D01*
X220450000Y-79309933D01*
X220557142Y-79309933D01*
X220628571Y-79357552D01*
X220664285Y-79405171D01*
X220700000Y-79500409D01*
X220700000Y-79738504D01*
X220664285Y-79833742D01*
X220628571Y-79881361D01*
X220557142Y-79928980D01*
X220342857Y-79928980D01*
X220271428Y-79881361D01*
X220235714Y-79833742D01*
X213158342Y-84202085D02*
X213205961Y-84237800D01*
X213253580Y-84344942D01*
X213253580Y-84416371D01*
X213205961Y-84523514D01*
X213110723Y-84594942D01*
X213015485Y-84630657D01*
X212825009Y-84666371D01*
X212682152Y-84666371D01*
X212491676Y-84630657D01*
X212396438Y-84594942D01*
X212301200Y-84523514D01*
X212253580Y-84416371D01*
X212253580Y-84344942D01*
X212301200Y-84237800D01*
X212348819Y-84202085D01*
X212253580Y-83952085D02*
X212253580Y-83452085D01*
X213253580Y-83773514D01*
X212253580Y-83023514D02*
X212253580Y-82952085D01*
X212301200Y-82880657D01*
X212348819Y-82844942D01*
X212444057Y-82809228D01*
X212634533Y-82773514D01*
X212872628Y-82773514D01*
X213063104Y-82809228D01*
X213158342Y-82844942D01*
X213205961Y-82880657D01*
X213253580Y-82952085D01*
X213253580Y-83023514D01*
X213205961Y-83094942D01*
X213158342Y-83130657D01*
X213063104Y-83166371D01*
X212872628Y-83202085D01*
X212634533Y-83202085D01*
X212444057Y-83166371D01*
X212348819Y-83130657D01*
X212301200Y-83094942D01*
X212253580Y-83023514D01*
X213253580Y-82416371D02*
X213253580Y-82273514D01*
X213205961Y-82202085D01*
X213158342Y-82166371D01*
X213015485Y-82094942D01*
X212825009Y-82059228D01*
X212444057Y-82059228D01*
X212348819Y-82094942D01*
X212301200Y-82130657D01*
X212253580Y-82202085D01*
X212253580Y-82344942D01*
X212301200Y-82416371D01*
X212348819Y-82452085D01*
X212444057Y-82487800D01*
X212682152Y-82487800D01*
X212777390Y-82452085D01*
X212825009Y-82416371D01*
X212872628Y-82344942D01*
X212872628Y-82202085D01*
X212825009Y-82130657D01*
X212777390Y-82094942D01*
X212682152Y-82059228D01*
X210526380Y-97509685D02*
X211240666Y-97509685D01*
X211383523Y-97545400D01*
X211478761Y-97616828D01*
X211526380Y-97723971D01*
X211526380Y-97795400D01*
X210526380Y-96831114D02*
X210526380Y-96973971D01*
X210574000Y-97045400D01*
X210621619Y-97081114D01*
X210764476Y-97152542D01*
X210954952Y-97188257D01*
X211335904Y-97188257D01*
X211431142Y-97152542D01*
X211478761Y-97116828D01*
X211526380Y-97045400D01*
X211526380Y-96902542D01*
X211478761Y-96831114D01*
X211431142Y-96795400D01*
X211335904Y-96759685D01*
X211097809Y-96759685D01*
X211002571Y-96795400D01*
X210954952Y-96831114D01*
X210907333Y-96902542D01*
X210907333Y-97045400D01*
X210954952Y-97116828D01*
X211002571Y-97152542D01*
X211097809Y-97188257D01*
X210526380Y-96295400D02*
X210526380Y-96223971D01*
X210574000Y-96152542D01*
X210621619Y-96116828D01*
X210716857Y-96081114D01*
X210907333Y-96045400D01*
X211145428Y-96045400D01*
X211335904Y-96081114D01*
X211431142Y-96116828D01*
X211478761Y-96152542D01*
X211526380Y-96223971D01*
X211526380Y-96295400D01*
X211478761Y-96366828D01*
X211431142Y-96402542D01*
X211335904Y-96438257D01*
X211145428Y-96473971D01*
X210907333Y-96473971D01*
X210716857Y-96438257D01*
X210621619Y-96402542D01*
X210574000Y-96366828D01*
X210526380Y-96295400D01*
X211526380Y-95331114D02*
X211526380Y-95759685D01*
X211526380Y-95545400D02*
X210526380Y-95545400D01*
X210669238Y-95616828D01*
X210764476Y-95688257D01*
X210812095Y-95759685D01*
X177922180Y-79858685D02*
X177445990Y-80108685D01*
X177922180Y-80287257D02*
X176922180Y-80287257D01*
X176922180Y-80001542D01*
X176969800Y-79930114D01*
X177017419Y-79894400D01*
X177112657Y-79858685D01*
X177255514Y-79858685D01*
X177350752Y-79894400D01*
X177398371Y-79930114D01*
X177445990Y-80001542D01*
X177445990Y-80287257D01*
X177017419Y-79572971D02*
X176969800Y-79537257D01*
X176922180Y-79465828D01*
X176922180Y-79287257D01*
X176969800Y-79215828D01*
X177017419Y-79180114D01*
X177112657Y-79144400D01*
X177207895Y-79144400D01*
X177350752Y-79180114D01*
X177922180Y-79608685D01*
X177922180Y-79144400D01*
X176922180Y-78680114D02*
X176922180Y-78608685D01*
X176969800Y-78537257D01*
X177017419Y-78501542D01*
X177112657Y-78465828D01*
X177303133Y-78430114D01*
X177541228Y-78430114D01*
X177731704Y-78465828D01*
X177826942Y-78501542D01*
X177874561Y-78537257D01*
X177922180Y-78608685D01*
X177922180Y-78680114D01*
X177874561Y-78751542D01*
X177826942Y-78787257D01*
X177731704Y-78822971D01*
X177541228Y-78858685D01*
X177303133Y-78858685D01*
X177112657Y-78822971D01*
X177017419Y-78787257D01*
X176969800Y-78751542D01*
X176922180Y-78680114D01*
X177017419Y-78144400D02*
X176969800Y-78108685D01*
X176922180Y-78037257D01*
X176922180Y-77858685D01*
X176969800Y-77787257D01*
X177017419Y-77751542D01*
X177112657Y-77715828D01*
X177207895Y-77715828D01*
X177350752Y-77751542D01*
X177922180Y-78180114D01*
X177922180Y-77715828D01*
X189714142Y-111227685D02*
X189761761Y-111263400D01*
X189809380Y-111370542D01*
X189809380Y-111441971D01*
X189761761Y-111549114D01*
X189666523Y-111620542D01*
X189571285Y-111656257D01*
X189380809Y-111691971D01*
X189237952Y-111691971D01*
X189047476Y-111656257D01*
X188952238Y-111620542D01*
X188857000Y-111549114D01*
X188809380Y-111441971D01*
X188809380Y-111370542D01*
X188857000Y-111263400D01*
X188904619Y-111227685D01*
X189142714Y-110584828D02*
X189809380Y-110584828D01*
X188761761Y-110763400D02*
X189476047Y-110941971D01*
X189476047Y-110477685D01*
X188809380Y-110049114D02*
X188809380Y-109977685D01*
X188857000Y-109906257D01*
X188904619Y-109870542D01*
X188999857Y-109834828D01*
X189190333Y-109799114D01*
X189428428Y-109799114D01*
X189618904Y-109834828D01*
X189714142Y-109870542D01*
X189761761Y-109906257D01*
X189809380Y-109977685D01*
X189809380Y-110049114D01*
X189761761Y-110120542D01*
X189714142Y-110156257D01*
X189618904Y-110191971D01*
X189428428Y-110227685D01*
X189190333Y-110227685D01*
X188999857Y-110191971D01*
X188904619Y-110156257D01*
X188857000Y-110120542D01*
X188809380Y-110049114D01*
X188809380Y-109549114D02*
X188809380Y-109084828D01*
X189190333Y-109334828D01*
X189190333Y-109227685D01*
X189237952Y-109156257D01*
X189285571Y-109120542D01*
X189380809Y-109084828D01*
X189618904Y-109084828D01*
X189714142Y-109120542D01*
X189761761Y-109156257D01*
X189809380Y-109227685D01*
X189809380Y-109441971D01*
X189761761Y-109513400D01*
X189714142Y-109549114D01*
D13*
X207882800Y-114305000D02*
X207882800Y-111705000D01*
X205222800Y-114305000D02*
X205222800Y-111705000D01*
X207882800Y-116905000D02*
X206552800Y-116905000D01*
X207882800Y-114305000D02*
X205222800Y-114305000D01*
X207882800Y-111705000D02*
X205222800Y-111705000D01*
X207882800Y-115575000D02*
X207882800Y-116905000D01*
X211111841Y-127532400D02*
X210804559Y-127532400D01*
X211111841Y-126772400D02*
X210804559Y-126772400D01*
X210804559Y-126262400D02*
X211111841Y-126262400D01*
X210804559Y-125502400D02*
X211111841Y-125502400D01*
X210906200Y-77145400D02*
X205806200Y-77145400D01*
X210906200Y-89745400D02*
X210906200Y-77145400D01*
X205806200Y-77145400D02*
X205806200Y-89745400D01*
X218280000Y-107780000D02*
X218280000Y-108280000D01*
X216720000Y-107780000D02*
X216720000Y-108280000D01*
X252689600Y-81601000D02*
X247549600Y-81601000D01*
X247549600Y-81601000D02*
X247549600Y-84261000D01*
X252689600Y-81601000D02*
X252689600Y-84261000D01*
X252689600Y-84261000D02*
X247549600Y-84261000D01*
X253959600Y-81601000D02*
X255289600Y-81601000D01*
X255289600Y-81601000D02*
X255289600Y-82931000D01*
X214199200Y-77115641D02*
X214199200Y-76808359D01*
X214959200Y-77115641D02*
X214959200Y-76808359D01*
X182695800Y-76797000D02*
X181895800Y-76797000D01*
X181895800Y-78097000D02*
X181895800Y-76797000D01*
X182695800Y-78097000D02*
X182695800Y-76797000D01*
X221367200Y-142138400D02*
G75*
G03*
X221367200Y-142138400I-1200000J0D01*
G01*
X249970600Y-141117400D02*
X249970600Y-143717400D01*
X247310600Y-141117400D02*
X249970600Y-141117400D01*
X247310600Y-138517400D02*
X248640600Y-138517400D01*
X247310600Y-143717400D02*
X249970600Y-143717400D01*
X247310600Y-141117400D02*
X247310600Y-143717400D01*
X247310600Y-139847400D02*
X247310600Y-138517400D01*
X204403000Y-85888600D02*
X204403000Y-87218600D01*
X189043000Y-85888600D02*
X189043000Y-91088600D01*
X201803000Y-85888600D02*
X201803000Y-88488600D01*
X203073000Y-85888600D02*
X204403000Y-85888600D01*
X204403000Y-88488600D02*
X204403000Y-91088600D01*
X201803000Y-85888600D02*
X189043000Y-85888600D01*
X204403000Y-91088600D02*
X189043000Y-91088600D01*
X201803000Y-88488600D02*
X204403000Y-88488600D01*
X212787000Y-95470200D02*
X214187000Y-95470200D01*
X214187000Y-93150200D02*
X212287000Y-93150200D01*
D10*
X211185000Y-98415000D02*
X211835000Y-98415000D01*
X221835000Y-104165000D02*
X221185000Y-104165000D01*
X221260000Y-98415000D02*
X221260000Y-96815000D01*
X221835000Y-98415000D02*
X221260000Y-98415000D01*
X221835000Y-98415000D02*
X221835000Y-104165000D01*
X211185000Y-98415000D02*
X211185000Y-104165000D01*
X211185000Y-104165000D02*
X211835000Y-104165000D01*
D13*
X217095800Y-81468179D02*
X217095800Y-81142621D01*
X216075800Y-81468179D02*
X216075800Y-81142621D01*
X186908221Y-73099200D02*
X187233779Y-73099200D01*
X186908221Y-74119200D02*
X187233779Y-74119200D01*
X204699600Y-73610441D02*
X204699600Y-73303159D01*
X205459600Y-73610441D02*
X205459600Y-73303159D01*
X190343200Y-69714164D02*
X190343200Y-69929836D01*
X191063200Y-69714164D02*
X191063200Y-69929836D01*
X244340000Y-135067221D02*
X244340000Y-135392779D01*
X245360000Y-135067221D02*
X245360000Y-135392779D01*
X187458236Y-77364000D02*
X187242564Y-77364000D01*
X187458236Y-78084000D02*
X187242564Y-78084000D01*
X180925200Y-72283400D02*
X180925200Y-70283400D01*
X171525200Y-72283400D02*
X171525200Y-70283400D01*
X193520000Y-120128641D02*
X193520000Y-119821359D01*
X194280000Y-120128641D02*
X194280000Y-119821359D01*
X229241200Y-142138400D02*
G75*
G03*
X229241200Y-142138400I-1200000J0D01*
G01*
X207950800Y-73610441D02*
X207950800Y-73303159D01*
X208710800Y-73610441D02*
X208710800Y-73303159D01*
X187483636Y-71852200D02*
X187267964Y-71852200D01*
X187483636Y-72572200D02*
X187267964Y-72572200D01*
X178303600Y-76600164D02*
X178303600Y-76815836D01*
X179023600Y-76600164D02*
X179023600Y-76815836D01*
X213177800Y-76854164D02*
X213177800Y-77069836D01*
X213897800Y-76854164D02*
X213897800Y-77069836D01*
X245690200Y-101861400D02*
X245190200Y-101861400D01*
X245690200Y-103421400D02*
X245190200Y-103421400D01*
X187458236Y-74697000D02*
X187242564Y-74697000D01*
X187458236Y-75417000D02*
X187242564Y-75417000D01*
X190760000Y-97357364D02*
X190760000Y-97573036D01*
X190040000Y-97357364D02*
X190040000Y-97573036D01*
D14*
X208380800Y-69418000D02*
G75*
G03*
X208380800Y-69418000I-50000J0D01*
G01*
D13*
X187504041Y-79247000D02*
X187196759Y-79247000D01*
X187504041Y-78487000D02*
X187196759Y-78487000D01*
X222960000Y-117932836D02*
X222960000Y-117717164D01*
X222240000Y-117932836D02*
X222240000Y-117717164D01*
X211091436Y-122982400D02*
X210875764Y-122982400D01*
X211091436Y-123702400D02*
X210875764Y-123702400D01*
X220120800Y-132200764D02*
X220120800Y-132416436D01*
X219400800Y-132200764D02*
X219400800Y-132416436D01*
X243871200Y-133730000D02*
X243871200Y-136280000D01*
X243871200Y-133730000D02*
X242171200Y-133730000D01*
X242171200Y-133730000D02*
X242171200Y-136280000D01*
X194720000Y-120220000D02*
X194720000Y-119720000D01*
X196280000Y-120220000D02*
X196280000Y-119720000D01*
D10*
X221825000Y-116875000D02*
X221175000Y-116875000D01*
X211750000Y-116875000D02*
X211750000Y-118475000D01*
X211175000Y-116875000D02*
X211750000Y-116875000D01*
X211175000Y-116875000D02*
X211175000Y-111125000D01*
X221825000Y-111125000D02*
X221175000Y-111125000D01*
X211175000Y-111125000D02*
X211825000Y-111125000D01*
X221825000Y-116875000D02*
X221825000Y-111125000D01*
D13*
X218588000Y-80892764D02*
X218588000Y-81108436D01*
X219308000Y-80892764D02*
X219308000Y-81108436D01*
X174092600Y-76887041D02*
X174092600Y-76579759D01*
X174852600Y-76887041D02*
X174852600Y-76579759D01*
X220859400Y-77995400D02*
X220859400Y-76695400D01*
X221659400Y-76695400D02*
X220859400Y-76695400D01*
X221659400Y-77995400D02*
X221659400Y-76695400D01*
X216290000Y-107510000D02*
X216290000Y-107010000D01*
X214730000Y-107510000D02*
X214730000Y-107010000D01*
X213228600Y-87001236D02*
X213228600Y-86785564D01*
X213948600Y-87001236D02*
X213948600Y-86785564D01*
X235972200Y-142113000D02*
G75*
G03*
X235972200Y-142113000I-1200000J0D01*
G01*
X245836200Y-134817364D02*
X245836200Y-135033036D01*
X246556200Y-134817364D02*
X246556200Y-135033036D01*
X220239000Y-83280364D02*
X220239000Y-83496036D01*
X220959000Y-83280364D02*
X220959000Y-83496036D01*
X211942000Y-78936964D02*
X211942000Y-79152636D01*
X211222000Y-78936964D02*
X211222000Y-79152636D01*
D10*
X191175000Y-98425000D02*
X191825000Y-98425000D01*
X201825000Y-98425000D02*
X201825000Y-104175000D01*
X201825000Y-104175000D02*
X201175000Y-104175000D01*
X201825000Y-98425000D02*
X201250000Y-98425000D01*
X201250000Y-98425000D02*
X201250000Y-96825000D01*
X191175000Y-104175000D02*
X191825000Y-104175000D01*
X191175000Y-98425000D02*
X191175000Y-104175000D01*
D13*
X193984800Y-125938200D02*
X193984800Y-128538200D01*
X191384800Y-128538200D02*
X191384800Y-123338200D01*
X193984800Y-128538200D02*
X191384800Y-128538200D01*
X196584800Y-123338200D02*
X191384800Y-123338200D01*
X196584800Y-128538200D02*
X195254800Y-128538200D01*
X196584800Y-127208200D02*
X196584800Y-128538200D01*
X196584800Y-125938200D02*
X196584800Y-123338200D01*
X196584800Y-125938200D02*
X193984800Y-125938200D01*
X224628400Y-138998000D02*
X227288400Y-138998000D01*
X225958400Y-123638000D02*
X227288400Y-123638000D01*
X227288400Y-126238000D02*
X227288400Y-138998000D01*
X224628400Y-126238000D02*
X224628400Y-138998000D01*
X224628400Y-126238000D02*
X227288400Y-126238000D01*
X227288400Y-123638000D02*
X227288400Y-124968000D01*
X225486000Y-75097200D02*
X225486000Y-69097200D01*
X225726000Y-75097200D02*
X225726000Y-69097200D01*
X226086000Y-75097200D02*
X226086000Y-69097200D01*
X227076000Y-77757200D02*
X227076000Y-75097200D01*
X233806000Y-78154271D02*
X233806000Y-77757200D01*
X233046000Y-75097200D02*
X233046000Y-69097200D01*
X228726000Y-69097200D02*
X228726000Y-75097200D01*
X233046000Y-78154271D02*
X233046000Y-77757200D01*
X230506000Y-69097200D02*
X231266000Y-69097200D01*
X227966000Y-78154271D02*
X227966000Y-77757200D01*
X229616000Y-77757200D02*
X229616000Y-75097200D01*
X231266000Y-78154271D02*
X231266000Y-77757200D01*
X225846000Y-75097200D02*
X225846000Y-69097200D01*
X225966000Y-75097200D02*
X225966000Y-69097200D01*
X225426000Y-75097200D02*
X225426000Y-69097200D01*
X224536000Y-80467200D02*
X224536000Y-79197200D01*
X230506000Y-78154271D02*
X230506000Y-77757200D01*
X226186000Y-69097200D02*
X226186000Y-75097200D01*
X225426000Y-78087200D02*
X225426000Y-77757200D01*
X234756000Y-77757200D02*
X234756000Y-75097200D01*
X225426000Y-69097200D02*
X226186000Y-69097200D01*
X232156000Y-77757200D02*
X232156000Y-75097200D01*
X225606000Y-75097200D02*
X225606000Y-69097200D01*
X227966000Y-75097200D02*
X227966000Y-69097200D01*
X224476000Y-75097200D02*
X224476000Y-77757200D01*
X224476000Y-77757200D02*
X234756000Y-77757200D01*
X227966000Y-69097200D02*
X228726000Y-69097200D01*
X228726000Y-78154271D02*
X228726000Y-77757200D01*
X233046000Y-69097200D02*
X233806000Y-69097200D01*
X225806000Y-80467200D02*
X224536000Y-80467200D01*
X233806000Y-69097200D02*
X233806000Y-75097200D01*
X234756000Y-75097200D02*
X224476000Y-75097200D01*
X230506000Y-75097200D02*
X230506000Y-69097200D01*
X226186000Y-78087200D02*
X226186000Y-77757200D01*
X231266000Y-69097200D02*
X231266000Y-75097200D01*
X180919800Y-77654036D02*
X180919800Y-77438364D01*
X181639800Y-77654036D02*
X181639800Y-77438364D01*
X211222000Y-80892764D02*
X211222000Y-81108436D01*
X211942000Y-80892764D02*
X211942000Y-81108436D01*
D10*
X191175000Y-111125000D02*
X191175000Y-116875000D01*
X191175000Y-111125000D02*
X191825000Y-111125000D01*
X201825000Y-111125000D02*
X201825000Y-116875000D01*
X191175000Y-116875000D02*
X191825000Y-116875000D01*
X201825000Y-111125000D02*
X201250000Y-111125000D01*
X201250000Y-111125000D02*
X201250000Y-109525000D01*
X201825000Y-116875000D02*
X201175000Y-116875000D01*
D13*
X221031800Y-72561600D02*
X221031800Y-70561600D01*
X211631800Y-72561600D02*
X211631800Y-70561600D01*
X213561200Y-81468179D02*
X213561200Y-81142621D01*
X214581200Y-81468179D02*
X214581200Y-81142621D01*
X186882821Y-76862400D02*
X187208379Y-76862400D01*
X186882821Y-75842400D02*
X187208379Y-75842400D01*
X256700894Y-98470500D02*
X256700894Y-125140500D01*
X245431200Y-78148071D02*
X245431200Y-77751000D01*
X237811200Y-78081000D02*
X237811200Y-77751000D01*
X238471200Y-75091000D02*
X238471200Y-69091000D01*
X237991200Y-75091000D02*
X237991200Y-69091000D01*
X245431200Y-69091000D02*
X246191200Y-69091000D01*
X243651200Y-69091000D02*
X243651200Y-75091000D01*
X242001200Y-77751000D02*
X242001200Y-75091000D01*
X242891200Y-75091000D02*
X242891200Y-69091000D01*
X239461200Y-77751000D02*
X239461200Y-75091000D01*
X240351200Y-78148071D02*
X240351200Y-77751000D01*
X244541200Y-77751000D02*
X244541200Y-75091000D01*
X237811200Y-69091000D02*
X238571200Y-69091000D01*
X237871200Y-75091000D02*
X237871200Y-69091000D01*
X238191200Y-80461000D02*
X236921200Y-80461000D01*
X237811200Y-75091000D02*
X237811200Y-69091000D01*
X236861200Y-77751000D02*
X247141200Y-77751000D01*
X247141200Y-77751000D02*
X247141200Y-75091000D01*
X238571200Y-78081000D02*
X238571200Y-77751000D01*
X246191200Y-69091000D02*
X246191200Y-75091000D01*
X238231200Y-75091000D02*
X238231200Y-69091000D01*
X240351200Y-75091000D02*
X240351200Y-69091000D01*
X236861200Y-75091000D02*
X236861200Y-77751000D01*
X247141200Y-75091000D02*
X236861200Y-75091000D01*
X241111200Y-78148071D02*
X241111200Y-77751000D01*
X245431200Y-75091000D02*
X245431200Y-69091000D01*
X242891200Y-69091000D02*
X243651200Y-69091000D01*
X238571200Y-69091000D02*
X238571200Y-75091000D01*
X242891200Y-78148071D02*
X242891200Y-77751000D01*
X243651200Y-78148071D02*
X243651200Y-77751000D01*
X236921200Y-80461000D02*
X236921200Y-79191000D01*
X246191200Y-78148071D02*
X246191200Y-77751000D01*
X241111200Y-69091000D02*
X241111200Y-75091000D01*
X238351200Y-75091000D02*
X238351200Y-69091000D01*
X238111200Y-75091000D02*
X238111200Y-69091000D01*
X240351200Y-69091000D02*
X241111200Y-69091000D01*
X215708000Y-127807400D02*
X213758000Y-127807400D01*
X215708000Y-122687400D02*
X217658000Y-122687400D01*
X215708000Y-122687400D02*
X213758000Y-122687400D01*
X215708000Y-127807400D02*
X219158000Y-127807400D01*
X241831800Y-135922036D02*
X241831800Y-135706364D01*
X241111800Y-135922036D02*
X241111800Y-135706364D01*
X211091436Y-124252400D02*
X210875764Y-124252400D01*
X211091436Y-124972400D02*
X210875764Y-124972400D01*
X212847000Y-135236000D02*
X212847000Y-133976000D01*
X216607000Y-128416000D02*
X212847000Y-128416000D01*
X218857000Y-135236000D02*
X212847000Y-135236000D01*
X212847000Y-128416000D02*
X212847000Y-129676000D01*
X179474400Y-77104021D02*
X179474400Y-77429579D01*
X180494400Y-77104021D02*
X180494400Y-77429579D01*
X220603400Y-77603236D02*
X220603400Y-77387564D01*
X219883400Y-77603236D02*
X219883400Y-77387564D01*
X217981800Y-77087759D02*
X217981800Y-77395041D01*
X217221800Y-77087759D02*
X217221800Y-77395041D01*
X194720000Y-107520000D02*
X194720000Y-107020000D01*
X196280000Y-107520000D02*
X196280000Y-107020000D01*
D14*
X205129600Y-69420400D02*
G75*
G03*
X205129600Y-69420400I-50000J0D01*
G01*
D13*
X208721000Y-126238000D02*
X208721000Y-138998000D01*
X206061000Y-138998000D02*
X208721000Y-138998000D01*
X208721000Y-123638000D02*
X208721000Y-124968000D01*
X206061000Y-126238000D02*
X208721000Y-126238000D01*
X206061000Y-126238000D02*
X206061000Y-138998000D01*
X207391000Y-123638000D02*
X208721000Y-123638000D01*
X214290000Y-107418641D02*
X214290000Y-107111359D01*
X213530000Y-107418641D02*
X213530000Y-107111359D01*
X187483636Y-70810800D02*
X187267964Y-70810800D01*
X187483636Y-71530800D02*
X187267964Y-71530800D01*
X194280000Y-107428641D02*
X194280000Y-107121359D01*
X193520000Y-107428641D02*
X193520000Y-107121359D01*
X218292000Y-80892764D02*
X218292000Y-81108436D01*
X217572000Y-80892764D02*
X217572000Y-81108436D01*
X199766600Y-69691364D02*
X199766600Y-69907036D01*
X200486600Y-69691364D02*
X200486600Y-69907036D01*
X220120800Y-129165236D02*
X220120800Y-128949564D01*
X219400800Y-129165236D02*
X219400800Y-128949564D01*
X202332000Y-74961636D02*
X202332000Y-74745964D01*
X203052000Y-74961636D02*
X203052000Y-74745964D01*
X218720000Y-107871359D02*
X218720000Y-108178641D01*
X219480000Y-107871359D02*
X219480000Y-108178641D01*
X215383200Y-95412164D02*
X215383200Y-95627836D01*
X216103200Y-95412164D02*
X216103200Y-95627836D01*
X191267600Y-70988400D02*
X190317600Y-70988400D01*
X190317600Y-71938400D02*
X188977600Y-71938400D01*
X190317600Y-81208400D02*
X190317600Y-80258400D01*
X199587600Y-81208400D02*
X200537600Y-81208400D01*
X199587600Y-70988400D02*
X200537600Y-70988400D01*
X200537600Y-70988400D02*
X200537600Y-71938400D01*
X190317600Y-70988400D02*
X190317600Y-71938400D01*
X200537600Y-81208400D02*
X200537600Y-80258400D01*
X191267600Y-81208400D02*
X190317600Y-81208400D01*
X219381800Y-77332621D02*
X219381800Y-77658179D01*
X218361800Y-77332621D02*
X218361800Y-77658179D01*
X212314200Y-80892764D02*
X212314200Y-81108436D01*
X213034200Y-80892764D02*
X213034200Y-81108436D01*
X207777000Y-98210600D02*
X205177000Y-98210600D01*
X210377000Y-95610600D02*
X210377000Y-93010600D01*
X210377000Y-96880600D02*
X210377000Y-98210600D01*
X207777000Y-95610600D02*
X207777000Y-98210600D01*
X205177000Y-98210600D02*
X205177000Y-93010600D01*
X210377000Y-98210600D02*
X209047000Y-98210600D01*
X210377000Y-95610600D02*
X207777000Y-95610600D01*
X210377000Y-93010600D02*
X205177000Y-93010600D01*
X177849800Y-76554359D02*
X177849800Y-76861641D01*
X177089800Y-76554359D02*
X177089800Y-76861641D01*
X190063800Y-110496236D02*
X190063800Y-110280564D01*
X190783800Y-110496236D02*
X190783800Y-110280564D01*
%LPC*%
D15*
X256620000Y-134696200D03*
X256620000Y-89000000D03*
D16*
X206552800Y-115575000D03*
D17*
X206552800Y-113035000D03*
D18*
X211468200Y-127152400D03*
X210448200Y-127152400D03*
D19*
X210448200Y-125882400D03*
X211468200Y-125882400D03*
D20*
X208356200Y-79595400D03*
X208356200Y-88095400D03*
D21*
X217150000Y-108530000D03*
X217850000Y-108530000D03*
X217850000Y-107530000D03*
X217150000Y-107530000D03*
D16*
X253959600Y-82931000D03*
D17*
X251419600Y-82931000D03*
X248879600Y-82931000D03*
D22*
X214579200Y-77472000D03*
X214579200Y-76452000D03*
D23*
X182295800Y-77177000D03*
X182295800Y-78017000D03*
D24*
X220167200Y-142138400D03*
D16*
X248640600Y-139847400D03*
D17*
X248640600Y-142387400D03*
D16*
X203073000Y-87218600D03*
D17*
X203073000Y-89758600D03*
X200533000Y-87218600D03*
X200533000Y-89758600D03*
X197993000Y-87218600D03*
X197993000Y-89758600D03*
X195453000Y-87218600D03*
X195453000Y-89758600D03*
X192913000Y-87218600D03*
X192913000Y-89758600D03*
X190373000Y-87218600D03*
X190373000Y-89758600D03*
D25*
X212537000Y-93660200D03*
X212537000Y-94310200D03*
X212537000Y-94960200D03*
X214437000Y-94960200D03*
X214437000Y-94310200D03*
X214437000Y-93660200D03*
D26*
X220735000Y-97690000D03*
X220085000Y-97690000D03*
X219435000Y-97690000D03*
X218785000Y-97690000D03*
X218135000Y-97690000D03*
X217485000Y-97690000D03*
X216835000Y-97690000D03*
X216185000Y-97690000D03*
X215535000Y-97690000D03*
X214885000Y-97690000D03*
X214235000Y-97690000D03*
X213585000Y-97690000D03*
X212935000Y-97690000D03*
X212285000Y-97690000D03*
X212285000Y-104890000D03*
X212935000Y-104890000D03*
X213585000Y-104890000D03*
X214235000Y-104890000D03*
X214885000Y-104890000D03*
X215535000Y-104890000D03*
X216185000Y-104890000D03*
X216835000Y-104890000D03*
X217485000Y-104890000D03*
X218135000Y-104890000D03*
X218785000Y-104890000D03*
X219435000Y-104890000D03*
X220085000Y-104890000D03*
X220735000Y-104890000D03*
D27*
X216585800Y-82092900D03*
X216585800Y-80517900D03*
D28*
X186283500Y-73609200D03*
X187858500Y-73609200D03*
D22*
X205079600Y-73966800D03*
X205079600Y-72946800D03*
D29*
X190703200Y-69342000D03*
X190703200Y-70302000D03*
D30*
X244850000Y-134442500D03*
X244850000Y-136017500D03*
D31*
X187830400Y-77724000D03*
X186870400Y-77724000D03*
D32*
X179115200Y-72983400D03*
X173335200Y-72983400D03*
D33*
X179475200Y-74428400D03*
X178675200Y-74428400D03*
D34*
X177475200Y-74428400D03*
X176475200Y-74428400D03*
X175975200Y-74428400D03*
X174975200Y-74428400D03*
D33*
X173775200Y-74428400D03*
X172975200Y-74428400D03*
X172975200Y-74428400D03*
X173775200Y-74428400D03*
D34*
X174475200Y-74428400D03*
X175475200Y-74428400D03*
X176975200Y-74428400D03*
X177975200Y-74428400D03*
D33*
X178675200Y-74428400D03*
X179475200Y-74428400D03*
D35*
X180545200Y-69333400D03*
X171905200Y-69333400D03*
D36*
X180545200Y-73513400D03*
X171905200Y-73513400D03*
D15*
X172186439Y-140630000D03*
D22*
X193900000Y-120485000D03*
X193900000Y-119465000D03*
D24*
X228041200Y-142138400D03*
D22*
X208330800Y-73966800D03*
X208330800Y-72946800D03*
D31*
X187855800Y-72212200D03*
X186895800Y-72212200D03*
D29*
X178663600Y-76228000D03*
X178663600Y-77188000D03*
X213537800Y-76482000D03*
X213537800Y-77442000D03*
D37*
X244940200Y-102291400D03*
X244940200Y-102991400D03*
X245940200Y-102991400D03*
X245940200Y-102291400D03*
D31*
X187830400Y-75057000D03*
X186870400Y-75057000D03*
D29*
X190400000Y-96985200D03*
X190400000Y-97945200D03*
D38*
X208330800Y-70023000D03*
X208330800Y-70993000D03*
D18*
X187860400Y-78867000D03*
X186840400Y-78867000D03*
D39*
X222600000Y-118305000D03*
X222600000Y-117345000D03*
D31*
X211463600Y-123342400D03*
X210503600Y-123342400D03*
D29*
X219760800Y-131828600D03*
X219760800Y-132788600D03*
D40*
X243021200Y-134180000D03*
X243021200Y-136280000D03*
D21*
X195850000Y-119470000D03*
X195150000Y-119470000D03*
X195150000Y-120470000D03*
X195850000Y-120470000D03*
D26*
X212275000Y-117600000D03*
X212925000Y-117600000D03*
X213575000Y-117600000D03*
X214225000Y-117600000D03*
X214875000Y-117600000D03*
X215525000Y-117600000D03*
X216175000Y-117600000D03*
X216825000Y-117600000D03*
X217475000Y-117600000D03*
X218125000Y-117600000D03*
X218775000Y-117600000D03*
X219425000Y-117600000D03*
X220075000Y-117600000D03*
X220725000Y-117600000D03*
X220725000Y-110400000D03*
X220075000Y-110400000D03*
X219425000Y-110400000D03*
X218775000Y-110400000D03*
X218125000Y-110400000D03*
X217475000Y-110400000D03*
X216825000Y-110400000D03*
X216175000Y-110400000D03*
X215525000Y-110400000D03*
X214875000Y-110400000D03*
X214225000Y-110400000D03*
X213575000Y-110400000D03*
X212925000Y-110400000D03*
X212275000Y-110400000D03*
D29*
X218948000Y-80520600D03*
X218948000Y-81480600D03*
D22*
X174472600Y-77243400D03*
X174472600Y-76223400D03*
D23*
X221259400Y-77075400D03*
X221259400Y-77915400D03*
D21*
X215860000Y-106760000D03*
X215160000Y-106760000D03*
X215160000Y-107760000D03*
X215860000Y-107760000D03*
D39*
X213588600Y-87373400D03*
X213588600Y-86413400D03*
D24*
X234772200Y-142113000D03*
D29*
X246196200Y-134445200D03*
X246196200Y-135405200D03*
X220599000Y-82908200D03*
X220599000Y-83868200D03*
X211582000Y-78564800D03*
X211582000Y-79524800D03*
D26*
X200725000Y-97700000D03*
X200075000Y-97700000D03*
X199425000Y-97700000D03*
X198775000Y-97700000D03*
X198125000Y-97700000D03*
X197475000Y-97700000D03*
X196825000Y-97700000D03*
X196175000Y-97700000D03*
X195525000Y-97700000D03*
X194875000Y-97700000D03*
X194225000Y-97700000D03*
X193575000Y-97700000D03*
X192925000Y-97700000D03*
X192275000Y-97700000D03*
X192275000Y-104900000D03*
X192925000Y-104900000D03*
X193575000Y-104900000D03*
X194225000Y-104900000D03*
X194875000Y-104900000D03*
X195525000Y-104900000D03*
X196175000Y-104900000D03*
X196825000Y-104900000D03*
X197475000Y-104900000D03*
X198125000Y-104900000D03*
X198775000Y-104900000D03*
X199425000Y-104900000D03*
X200075000Y-104900000D03*
X200725000Y-104900000D03*
D16*
X195254800Y-127208200D03*
D17*
X192714800Y-127208200D03*
X195254800Y-124668200D03*
X192714800Y-124668200D03*
D16*
X225958400Y-124968000D03*
D17*
X225958400Y-127508000D03*
X225958400Y-130048000D03*
X225958400Y-132588000D03*
X225958400Y-135128000D03*
X225958400Y-137668000D03*
D16*
X225806000Y-79197200D03*
D17*
X228346000Y-79197200D03*
X230886000Y-79197200D03*
X233426000Y-79197200D03*
D39*
X181279800Y-78026200D03*
X181279800Y-77066200D03*
D29*
X211582000Y-81480600D03*
X211582000Y-80520600D03*
D26*
X200725000Y-110400000D03*
X200075000Y-110400000D03*
X199425000Y-110400000D03*
X198775000Y-110400000D03*
X198125000Y-110400000D03*
X197475000Y-110400000D03*
X196825000Y-110400000D03*
X196175000Y-110400000D03*
X195525000Y-110400000D03*
X194875000Y-110400000D03*
X194225000Y-110400000D03*
X193575000Y-110400000D03*
X192925000Y-110400000D03*
X192275000Y-110400000D03*
X192275000Y-117600000D03*
X192925000Y-117600000D03*
X193575000Y-117600000D03*
X194225000Y-117600000D03*
X194875000Y-117600000D03*
X195525000Y-117600000D03*
X196175000Y-117600000D03*
X196825000Y-117600000D03*
X197475000Y-117600000D03*
X198125000Y-117600000D03*
X198775000Y-117600000D03*
X199425000Y-117600000D03*
X200075000Y-117600000D03*
X200725000Y-117600000D03*
D32*
X219221800Y-73261600D03*
X213441800Y-73261600D03*
D33*
X219581800Y-74706600D03*
X218781800Y-74706600D03*
D34*
X217581800Y-74706600D03*
X216581800Y-74706600D03*
X216081800Y-74706600D03*
X215081800Y-74706600D03*
D33*
X213881800Y-74706600D03*
X213081800Y-74706600D03*
X213081800Y-74706600D03*
X213881800Y-74706600D03*
D34*
X214581800Y-74706600D03*
X215581800Y-74706600D03*
X217081800Y-74706600D03*
X218081800Y-74706600D03*
D33*
X218781800Y-74706600D03*
X219581800Y-74706600D03*
D36*
X220651800Y-73791600D03*
D35*
X212011800Y-69611600D03*
D36*
X212011800Y-73791600D03*
D35*
X220651800Y-69611600D03*
D27*
X214071200Y-82092900D03*
X214071200Y-80517900D03*
D28*
X186258100Y-76352400D03*
X187833100Y-76352400D03*
D41*
X256700894Y-127807500D03*
X256700894Y-95803500D03*
D16*
X238191200Y-79191000D03*
D17*
X240731200Y-79191000D03*
X243271200Y-79191000D03*
X245811200Y-79191000D03*
D42*
X218183000Y-127152400D03*
X218183000Y-125882400D03*
X218183000Y-124612400D03*
X218183000Y-123342400D03*
X213233000Y-123342400D03*
X213233000Y-124612400D03*
X213233000Y-125882400D03*
X213233000Y-127152400D03*
D39*
X241471800Y-136294200D03*
X241471800Y-135334200D03*
D31*
X211463600Y-124612400D03*
X210503600Y-124612400D03*
D43*
X217907000Y-134126000D03*
X217907000Y-131826000D03*
D44*
X211607000Y-131826000D03*
D43*
X217907000Y-129526000D03*
D30*
X179984400Y-76479300D03*
X179984400Y-78054300D03*
D15*
X240766165Y-140630000D03*
D39*
X220243400Y-77975400D03*
X220243400Y-77015400D03*
D45*
X217601800Y-76731400D03*
X217601800Y-77751400D03*
D21*
X195850000Y-106770000D03*
X195150000Y-106770000D03*
X195150000Y-107770000D03*
X195850000Y-107770000D03*
D38*
X205079600Y-70025400D03*
X205079600Y-70995400D03*
D16*
X207391000Y-124968000D03*
D17*
X207391000Y-127508000D03*
X207391000Y-130048000D03*
X207391000Y-132588000D03*
X207391000Y-135128000D03*
X207391000Y-137668000D03*
D22*
X213910000Y-107775000D03*
X213910000Y-106755000D03*
D31*
X186895800Y-71170800D03*
X187855800Y-71170800D03*
D22*
X193900000Y-107785000D03*
X193900000Y-106765000D03*
D29*
X217932000Y-80520600D03*
X217932000Y-81480600D03*
X200126600Y-69319200D03*
X200126600Y-70279200D03*
D39*
X219760800Y-129537400D03*
X219760800Y-128577400D03*
X202692000Y-75333800D03*
X202692000Y-74373800D03*
D45*
X219100000Y-107515000D03*
X219100000Y-108535000D03*
D29*
X215743200Y-95040000D03*
X215743200Y-96000000D03*
D46*
X189752600Y-72348400D03*
X189752600Y-72848400D03*
X189752600Y-73348400D03*
X189752600Y-73848400D03*
X189752600Y-74348400D03*
X189752600Y-74848400D03*
X189752600Y-75348400D03*
X189752600Y-75848400D03*
X189752600Y-76348400D03*
X189752600Y-76848400D03*
X189752600Y-77348400D03*
X189752600Y-77848400D03*
X189752600Y-78348400D03*
X189752600Y-78848400D03*
X189752600Y-79348400D03*
X189752600Y-79848400D03*
D47*
X191677600Y-81773400D03*
X192177600Y-81773400D03*
X192677600Y-81773400D03*
X193177600Y-81773400D03*
X193677600Y-81773400D03*
X194177600Y-81773400D03*
X194677600Y-81773400D03*
X195177600Y-81773400D03*
X195677600Y-81773400D03*
X196177600Y-81773400D03*
X196677600Y-81773400D03*
X197177600Y-81773400D03*
X197677600Y-81773400D03*
X198177600Y-81773400D03*
X198677600Y-81773400D03*
X199177600Y-81773400D03*
D46*
X201102600Y-79848400D03*
X201102600Y-79348400D03*
X201102600Y-78848400D03*
X201102600Y-78348400D03*
X201102600Y-77848400D03*
X201102600Y-77348400D03*
X201102600Y-76848400D03*
X201102600Y-76348400D03*
X201102600Y-75848400D03*
X201102600Y-75348400D03*
X201102600Y-74848400D03*
X201102600Y-74348400D03*
X201102600Y-73848400D03*
X201102600Y-73348400D03*
X201102600Y-72848400D03*
X201102600Y-72348400D03*
D47*
X199177600Y-70423400D03*
X198677600Y-70423400D03*
X198177600Y-70423400D03*
X197677600Y-70423400D03*
X197177600Y-70423400D03*
X196677600Y-70423400D03*
X196177600Y-70423400D03*
X195677600Y-70423400D03*
X195177600Y-70423400D03*
X194677600Y-70423400D03*
X194177600Y-70423400D03*
X193677600Y-70423400D03*
X193177600Y-70423400D03*
X192677600Y-70423400D03*
X192177600Y-70423400D03*
X191677600Y-70423400D03*
D30*
X218871800Y-76707900D03*
X218871800Y-78282900D03*
D29*
X212674200Y-80520600D03*
X212674200Y-81480600D03*
D16*
X209047000Y-96880600D03*
D17*
X206507000Y-96880600D03*
X209047000Y-94340600D03*
X206507000Y-94340600D03*
D45*
X177469800Y-76198000D03*
X177469800Y-77218000D03*
D39*
X190423800Y-110868400D03*
X190423800Y-109908400D03*
D16*
X251211500Y-136008000D03*
D17*
X248671500Y-136008000D03*
X251211500Y-133468000D03*
X248671500Y-133468000D03*
X251211500Y-130928000D03*
X248671500Y-130928000D03*
X251211500Y-128388000D03*
X248671500Y-128388000D03*
X251211500Y-125848000D03*
X248671500Y-125848000D03*
X251211500Y-123308000D03*
X248671500Y-123308000D03*
X251211500Y-120768000D03*
X248671500Y-120768000D03*
X251211500Y-118228000D03*
X248671500Y-118228000D03*
X251211500Y-115688000D03*
X248671500Y-115688000D03*
X251211500Y-113148000D03*
X248671500Y-113148000D03*
X251211500Y-110608000D03*
X248671500Y-110608000D03*
X251211500Y-108068000D03*
X248671500Y-108068000D03*
X251211500Y-105528000D03*
X248671500Y-105528000D03*
X251211500Y-102988000D03*
X248671500Y-102988000D03*
X251211500Y-100448000D03*
X248671500Y-100448000D03*
X251211500Y-97908000D03*
X248671500Y-97908000D03*
X251211500Y-95368000D03*
X248671500Y-95368000D03*
X251211500Y-92828000D03*
X248671500Y-92828000D03*
X251211500Y-90288000D03*
X248671500Y-90288000D03*
X251211500Y-87748000D03*
X248671500Y-87748000D03*
D16*
X182601000Y-83477000D03*
D17*
X180061000Y-83477000D03*
X182601000Y-86017000D03*
X180061000Y-86017000D03*
X182601000Y-88557000D03*
X180061000Y-88557000D03*
X182601000Y-91097000D03*
X180061000Y-91097000D03*
X182601000Y-93637000D03*
X180061000Y-93637000D03*
X182601000Y-96177000D03*
X180061000Y-96177000D03*
X182601000Y-98717000D03*
X180061000Y-98717000D03*
X182601000Y-101257000D03*
X180061000Y-101257000D03*
X182601000Y-103797000D03*
X180061000Y-103797000D03*
X182601000Y-106337000D03*
X180061000Y-106337000D03*
X182601000Y-108877000D03*
X180061000Y-108877000D03*
X182601000Y-111417000D03*
X180061000Y-111417000D03*
X182601000Y-113957000D03*
X180061000Y-113957000D03*
X182601000Y-116497000D03*
X180061000Y-116497000D03*
X182601000Y-119037000D03*
X180061000Y-119037000D03*
X182601000Y-121577000D03*
X180061000Y-121577000D03*
X182601000Y-124117000D03*
X180061000Y-124117000D03*
X182601000Y-126657000D03*
X180061000Y-126657000D03*
X182601000Y-129197000D03*
X180061000Y-129197000D03*
X182601000Y-131737000D03*
X180061000Y-131737000D03*
D16*
X242037000Y-83477000D03*
D17*
X239497000Y-83477000D03*
X242037000Y-86017000D03*
X239497000Y-86017000D03*
X242037000Y-88557000D03*
X239497000Y-88557000D03*
X242037000Y-91097000D03*
X239497000Y-91097000D03*
X242037000Y-93637000D03*
X239497000Y-93637000D03*
X242037000Y-96177000D03*
X239497000Y-96177000D03*
X242037000Y-98717000D03*
X239497000Y-98717000D03*
X242037000Y-101257000D03*
X239497000Y-101257000D03*
X242037000Y-103797000D03*
X239497000Y-103797000D03*
X242037000Y-106337000D03*
X239497000Y-106337000D03*
X242037000Y-108877000D03*
X239497000Y-108877000D03*
X242037000Y-111417000D03*
X239497000Y-111417000D03*
X242037000Y-113957000D03*
X239497000Y-113957000D03*
X242037000Y-116497000D03*
X239497000Y-116497000D03*
X242037000Y-119037000D03*
X239497000Y-119037000D03*
X242037000Y-121577000D03*
X239497000Y-121577000D03*
X242037000Y-124117000D03*
X239497000Y-124117000D03*
X242037000Y-126657000D03*
X239497000Y-126657000D03*
X242037000Y-129197000D03*
X239497000Y-129197000D03*
X242037000Y-131737000D03*
X239497000Y-131737000D03*
D16*
X232893000Y-83477000D03*
D17*
X230353000Y-83477000D03*
X232893000Y-86017000D03*
X230353000Y-86017000D03*
X232893000Y-88557000D03*
X230353000Y-88557000D03*
X232893000Y-91097000D03*
X230353000Y-91097000D03*
X232893000Y-93637000D03*
X230353000Y-93637000D03*
X232893000Y-96177000D03*
X230353000Y-96177000D03*
X232893000Y-98717000D03*
X230353000Y-98717000D03*
X232893000Y-101257000D03*
X230353000Y-101257000D03*
X232893000Y-103797000D03*
X230353000Y-103797000D03*
X232893000Y-106337000D03*
X230353000Y-106337000D03*
X232893000Y-108877000D03*
X230353000Y-108877000D03*
X232893000Y-111417000D03*
X230353000Y-111417000D03*
X232893000Y-113957000D03*
X230353000Y-113957000D03*
X232893000Y-116497000D03*
X230353000Y-116497000D03*
X232893000Y-119037000D03*
X230353000Y-119037000D03*
X232893000Y-121577000D03*
X230353000Y-121577000D03*
X232893000Y-124117000D03*
X230353000Y-124117000D03*
X232893000Y-126657000D03*
X230353000Y-126657000D03*
X232893000Y-129197000D03*
X230353000Y-129197000D03*
X232893000Y-131737000D03*
X230353000Y-131737000D03*
D16*
X173457000Y-83477000D03*
D17*
X170917000Y-83477000D03*
X173457000Y-86017000D03*
X170917000Y-86017000D03*
X173457000Y-88557000D03*
X170917000Y-88557000D03*
X173457000Y-91097000D03*
X170917000Y-91097000D03*
X173457000Y-93637000D03*
X170917000Y-93637000D03*
X173457000Y-96177000D03*
X170917000Y-96177000D03*
X173457000Y-98717000D03*
X170917000Y-98717000D03*
X173457000Y-101257000D03*
X170917000Y-101257000D03*
X173457000Y-103797000D03*
X170917000Y-103797000D03*
X173457000Y-106337000D03*
X170917000Y-106337000D03*
X173457000Y-108877000D03*
X170917000Y-108877000D03*
X173457000Y-111417000D03*
X170917000Y-111417000D03*
X173457000Y-113957000D03*
X170917000Y-113957000D03*
X173457000Y-116497000D03*
X170917000Y-116497000D03*
X173457000Y-119037000D03*
X170917000Y-119037000D03*
X173457000Y-121577000D03*
X170917000Y-121577000D03*
X173457000Y-124117000D03*
X170917000Y-124117000D03*
X173457000Y-126657000D03*
X170917000Y-126657000D03*
X173457000Y-129197000D03*
X170917000Y-129197000D03*
X173457000Y-131737000D03*
X170917000Y-131737000D03*
M02*
