%TF.GenerationSoftware,KiCad,Pcbnew,(6.0.7)*%
%TF.CreationDate,2023-05-24T13:21:02-04:00*%
%TF.ProjectId,ECELab_v1,4543454c-6162-45f7-9631-2e6b69636164,rev?*%
%TF.SameCoordinates,Original*%
%TF.FileFunction,Drillmap*%
%TF.FilePolarity,Positive*%
%FSLAX45Y45*%
G04 Gerber Fmt 4.5, Leading zero omitted, Abs format (unit mm)*
G04 Created by KiCad (PCBNEW (6.0.7)) date 2023-05-24 13:21:02*
%MOMM*%
%LPD*%
G01*
G04 APERTURE LIST*
%ADD10C,0.100000*%
%ADD11C,0.200000*%
%ADD12C,0.065000*%
G04 APERTURE END LIST*
D10*
X10393680Y-15212060D02*
X10393680Y-6283960D01*
X25146000Y-15212060D02*
X10393680Y-15212060D01*
X15748000Y-6283960D02*
X25146000Y-6283960D01*
X25146000Y-6283960D02*
X25146000Y-15212060D01*
X10393680Y-6283960D02*
X15748000Y-6283960D01*
D11*
D12*
X11154460Y-11779060D02*
X11219460Y-11844060D01*
X11219460Y-11779060D02*
X11154460Y-11844060D01*
X11154460Y-12357060D02*
X11219460Y-12422060D01*
X11219460Y-12357060D02*
X11154460Y-12422060D01*
D11*
X10646299Y-15527536D02*
X10646299Y-15327536D01*
X10693918Y-15327536D01*
X10722490Y-15337060D01*
X10741537Y-15356108D01*
X10751061Y-15375155D01*
X10760585Y-15413250D01*
X10760585Y-15441822D01*
X10751061Y-15479917D01*
X10741537Y-15498965D01*
X10722490Y-15518012D01*
X10693918Y-15527536D01*
X10646299Y-15527536D01*
X10846299Y-15527536D02*
X10846299Y-15394203D01*
X10846299Y-15432298D02*
X10855823Y-15413250D01*
X10865347Y-15403727D01*
X10884394Y-15394203D01*
X10903442Y-15394203D01*
X10970109Y-15527536D02*
X10970109Y-15394203D01*
X10970109Y-15327536D02*
X10960585Y-15337060D01*
X10970109Y-15346584D01*
X10979632Y-15337060D01*
X10970109Y-15327536D01*
X10970109Y-15346584D01*
X11093918Y-15527536D02*
X11074870Y-15518012D01*
X11065347Y-15498965D01*
X11065347Y-15327536D01*
X11198680Y-15527536D02*
X11179632Y-15518012D01*
X11170109Y-15498965D01*
X11170109Y-15327536D01*
X11427251Y-15527536D02*
X11427251Y-15327536D01*
X11493918Y-15470393D01*
X11560585Y-15327536D01*
X11560585Y-15527536D01*
X11741537Y-15527536D02*
X11741537Y-15422774D01*
X11732013Y-15403727D01*
X11712966Y-15394203D01*
X11674870Y-15394203D01*
X11655823Y-15403727D01*
X11741537Y-15518012D02*
X11722489Y-15527536D01*
X11674870Y-15527536D01*
X11655823Y-15518012D01*
X11646299Y-15498965D01*
X11646299Y-15479917D01*
X11655823Y-15460869D01*
X11674870Y-15451346D01*
X11722489Y-15451346D01*
X11741537Y-15441822D01*
X11836775Y-15394203D02*
X11836775Y-15594203D01*
X11836775Y-15403727D02*
X11855823Y-15394203D01*
X11893918Y-15394203D01*
X11912966Y-15403727D01*
X11922489Y-15413250D01*
X11932013Y-15432298D01*
X11932013Y-15489441D01*
X11922489Y-15508488D01*
X11912966Y-15518012D01*
X11893918Y-15527536D01*
X11855823Y-15527536D01*
X11836775Y-15518012D01*
X12017728Y-15508488D02*
X12027251Y-15518012D01*
X12017728Y-15527536D01*
X12008204Y-15518012D01*
X12017728Y-15508488D01*
X12017728Y-15527536D01*
X12017728Y-15403727D02*
X12027251Y-15413250D01*
X12017728Y-15422774D01*
X12008204Y-15413250D01*
X12017728Y-15403727D01*
X12017728Y-15422774D01*
D12*
X10323680Y-15824560D02*
X10388680Y-15889560D01*
X10388680Y-15824560D02*
X10323680Y-15889560D01*
D11*
X10684394Y-15747536D02*
X10703442Y-15747536D01*
X10722490Y-15757060D01*
X10732013Y-15766584D01*
X10741537Y-15785631D01*
X10751061Y-15823727D01*
X10751061Y-15871346D01*
X10741537Y-15909441D01*
X10732013Y-15928488D01*
X10722490Y-15938012D01*
X10703442Y-15947536D01*
X10684394Y-15947536D01*
X10665347Y-15938012D01*
X10655823Y-15928488D01*
X10646299Y-15909441D01*
X10636775Y-15871346D01*
X10636775Y-15823727D01*
X10646299Y-15785631D01*
X10655823Y-15766584D01*
X10665347Y-15757060D01*
X10684394Y-15747536D01*
X10836775Y-15928488D02*
X10846299Y-15938012D01*
X10836775Y-15947536D01*
X10827251Y-15938012D01*
X10836775Y-15928488D01*
X10836775Y-15947536D01*
X11017728Y-15747536D02*
X10979632Y-15747536D01*
X10960585Y-15757060D01*
X10951061Y-15766584D01*
X10932013Y-15795155D01*
X10922490Y-15833250D01*
X10922490Y-15909441D01*
X10932013Y-15928488D01*
X10941537Y-15938012D01*
X10960585Y-15947536D01*
X10998680Y-15947536D01*
X11017728Y-15938012D01*
X11027251Y-15928488D01*
X11036775Y-15909441D01*
X11036775Y-15861822D01*
X11027251Y-15842774D01*
X11017728Y-15833250D01*
X10998680Y-15823727D01*
X10960585Y-15823727D01*
X10941537Y-15833250D01*
X10932013Y-15842774D01*
X10922490Y-15861822D01*
X11217728Y-15747536D02*
X11122490Y-15747536D01*
X11112966Y-15842774D01*
X11122490Y-15833250D01*
X11141537Y-15823727D01*
X11189156Y-15823727D01*
X11208204Y-15833250D01*
X11217728Y-15842774D01*
X11227251Y-15861822D01*
X11227251Y-15909441D01*
X11217728Y-15928488D01*
X11208204Y-15938012D01*
X11189156Y-15947536D01*
X11141537Y-15947536D01*
X11122490Y-15938012D01*
X11112966Y-15928488D01*
X11351061Y-15747536D02*
X11370108Y-15747536D01*
X11389156Y-15757060D01*
X11398680Y-15766584D01*
X11408204Y-15785631D01*
X11417728Y-15823727D01*
X11417728Y-15871346D01*
X11408204Y-15909441D01*
X11398680Y-15928488D01*
X11389156Y-15938012D01*
X11370108Y-15947536D01*
X11351061Y-15947536D01*
X11332013Y-15938012D01*
X11322489Y-15928488D01*
X11312966Y-15909441D01*
X11303442Y-15871346D01*
X11303442Y-15823727D01*
X11312966Y-15785631D01*
X11322489Y-15766584D01*
X11332013Y-15757060D01*
X11351061Y-15747536D01*
X11503442Y-15947536D02*
X11503442Y-15814203D01*
X11503442Y-15833250D02*
X11512966Y-15823727D01*
X11532013Y-15814203D01*
X11560585Y-15814203D01*
X11579632Y-15823727D01*
X11589156Y-15842774D01*
X11589156Y-15947536D01*
X11589156Y-15842774D02*
X11598680Y-15823727D01*
X11617728Y-15814203D01*
X11646299Y-15814203D01*
X11665347Y-15823727D01*
X11674870Y-15842774D01*
X11674870Y-15947536D01*
X11770108Y-15947536D02*
X11770108Y-15814203D01*
X11770108Y-15833250D02*
X11779632Y-15823727D01*
X11798680Y-15814203D01*
X11827251Y-15814203D01*
X11846299Y-15823727D01*
X11855823Y-15842774D01*
X11855823Y-15947536D01*
X11855823Y-15842774D02*
X11865347Y-15823727D01*
X11884394Y-15814203D01*
X11912966Y-15814203D01*
X11932013Y-15823727D01*
X11941537Y-15842774D01*
X11941537Y-15947536D01*
X12332013Y-15738012D02*
X12160585Y-15995155D01*
X12589156Y-15747536D02*
X12608204Y-15747536D01*
X12627251Y-15757060D01*
X12636775Y-15766584D01*
X12646299Y-15785631D01*
X12655823Y-15823727D01*
X12655823Y-15871346D01*
X12646299Y-15909441D01*
X12636775Y-15928488D01*
X12627251Y-15938012D01*
X12608204Y-15947536D01*
X12589156Y-15947536D01*
X12570108Y-15938012D01*
X12560585Y-15928488D01*
X12551061Y-15909441D01*
X12541537Y-15871346D01*
X12541537Y-15823727D01*
X12551061Y-15785631D01*
X12560585Y-15766584D01*
X12570108Y-15757060D01*
X12589156Y-15747536D01*
X12741537Y-15928488D02*
X12751061Y-15938012D01*
X12741537Y-15947536D01*
X12732013Y-15938012D01*
X12741537Y-15928488D01*
X12741537Y-15947536D01*
X12874870Y-15747536D02*
X12893918Y-15747536D01*
X12912966Y-15757060D01*
X12922489Y-15766584D01*
X12932013Y-15785631D01*
X12941537Y-15823727D01*
X12941537Y-15871346D01*
X12932013Y-15909441D01*
X12922489Y-15928488D01*
X12912966Y-15938012D01*
X12893918Y-15947536D01*
X12874870Y-15947536D01*
X12855823Y-15938012D01*
X12846299Y-15928488D01*
X12836775Y-15909441D01*
X12827251Y-15871346D01*
X12827251Y-15823727D01*
X12836775Y-15785631D01*
X12846299Y-15766584D01*
X12855823Y-15757060D01*
X12874870Y-15747536D01*
X13017728Y-15766584D02*
X13027251Y-15757060D01*
X13046299Y-15747536D01*
X13093918Y-15747536D01*
X13112966Y-15757060D01*
X13122489Y-15766584D01*
X13132013Y-15785631D01*
X13132013Y-15804679D01*
X13122489Y-15833250D01*
X13008204Y-15947536D01*
X13132013Y-15947536D01*
X13312966Y-15747536D02*
X13217728Y-15747536D01*
X13208204Y-15842774D01*
X13217728Y-15833250D01*
X13236775Y-15823727D01*
X13284394Y-15823727D01*
X13303442Y-15833250D01*
X13312966Y-15842774D01*
X13322489Y-15861822D01*
X13322489Y-15909441D01*
X13312966Y-15928488D01*
X13303442Y-15938012D01*
X13284394Y-15947536D01*
X13236775Y-15947536D01*
X13217728Y-15938012D01*
X13208204Y-15928488D01*
X13493918Y-15747536D02*
X13455823Y-15747536D01*
X13436775Y-15757060D01*
X13427251Y-15766584D01*
X13408204Y-15795155D01*
X13398680Y-15833250D01*
X13398680Y-15909441D01*
X13408204Y-15928488D01*
X13417728Y-15938012D01*
X13436775Y-15947536D01*
X13474870Y-15947536D01*
X13493918Y-15938012D01*
X13503442Y-15928488D01*
X13512966Y-15909441D01*
X13512966Y-15861822D01*
X13503442Y-15842774D01*
X13493918Y-15833250D01*
X13474870Y-15823727D01*
X13436775Y-15823727D01*
X13417728Y-15833250D01*
X13408204Y-15842774D01*
X13398680Y-15861822D01*
X13589156Y-15747536D02*
X13589156Y-15785631D01*
X13665347Y-15747536D02*
X13665347Y-15785631D01*
X13960585Y-16023727D02*
X13951061Y-16014203D01*
X13932013Y-15985631D01*
X13922489Y-15966584D01*
X13912966Y-15938012D01*
X13903442Y-15890393D01*
X13903442Y-15852298D01*
X13912966Y-15804679D01*
X13922489Y-15776108D01*
X13932013Y-15757060D01*
X13951061Y-15728488D01*
X13960585Y-15718965D01*
X14027251Y-15766584D02*
X14036775Y-15757060D01*
X14055823Y-15747536D01*
X14103442Y-15747536D01*
X14122489Y-15757060D01*
X14132013Y-15766584D01*
X14141537Y-15785631D01*
X14141537Y-15804679D01*
X14132013Y-15833250D01*
X14017728Y-15947536D01*
X14141537Y-15947536D01*
X14379632Y-15947536D02*
X14379632Y-15747536D01*
X14465347Y-15947536D02*
X14465347Y-15842774D01*
X14455823Y-15823727D01*
X14436775Y-15814203D01*
X14408204Y-15814203D01*
X14389156Y-15823727D01*
X14379632Y-15833250D01*
X14589156Y-15947536D02*
X14570108Y-15938012D01*
X14560585Y-15928488D01*
X14551061Y-15909441D01*
X14551061Y-15852298D01*
X14560585Y-15833250D01*
X14570108Y-15823727D01*
X14589156Y-15814203D01*
X14617728Y-15814203D01*
X14636775Y-15823727D01*
X14646299Y-15833250D01*
X14655823Y-15852298D01*
X14655823Y-15909441D01*
X14646299Y-15928488D01*
X14636775Y-15938012D01*
X14617728Y-15947536D01*
X14589156Y-15947536D01*
X14770108Y-15947536D02*
X14751061Y-15938012D01*
X14741537Y-15918965D01*
X14741537Y-15747536D01*
X14922489Y-15938012D02*
X14903442Y-15947536D01*
X14865347Y-15947536D01*
X14846299Y-15938012D01*
X14836775Y-15918965D01*
X14836775Y-15842774D01*
X14846299Y-15823727D01*
X14865347Y-15814203D01*
X14903442Y-15814203D01*
X14922489Y-15823727D01*
X14932013Y-15842774D01*
X14932013Y-15861822D01*
X14836775Y-15880869D01*
X15008204Y-15938012D02*
X15027251Y-15947536D01*
X15065347Y-15947536D01*
X15084394Y-15938012D01*
X15093918Y-15918965D01*
X15093918Y-15909441D01*
X15084394Y-15890393D01*
X15065347Y-15880869D01*
X15036775Y-15880869D01*
X15017728Y-15871346D01*
X15008204Y-15852298D01*
X15008204Y-15842774D01*
X15017728Y-15823727D01*
X15036775Y-15814203D01*
X15065347Y-15814203D01*
X15084394Y-15823727D01*
X15160585Y-16023727D02*
X15170108Y-16014203D01*
X15189156Y-15985631D01*
X15198680Y-15966584D01*
X15208204Y-15938012D01*
X15217728Y-15890393D01*
X15217728Y-15852298D01*
X15208204Y-15804679D01*
X15198680Y-15776108D01*
X15189156Y-15757060D01*
X15170108Y-15728488D01*
X15160585Y-15718965D01*
X15522489Y-16023727D02*
X15512966Y-16014203D01*
X15493918Y-15985631D01*
X15484394Y-15966584D01*
X15474870Y-15938012D01*
X15465347Y-15890393D01*
X15465347Y-15852298D01*
X15474870Y-15804679D01*
X15484394Y-15776108D01*
X15493918Y-15757060D01*
X15512966Y-15728488D01*
X15522489Y-15718965D01*
X15598680Y-15814203D02*
X15598680Y-15947536D01*
X15598680Y-15833250D02*
X15608204Y-15823727D01*
X15627251Y-15814203D01*
X15655823Y-15814203D01*
X15674870Y-15823727D01*
X15684394Y-15842774D01*
X15684394Y-15947536D01*
X15808204Y-15947536D02*
X15789156Y-15938012D01*
X15779632Y-15928488D01*
X15770108Y-15909441D01*
X15770108Y-15852298D01*
X15779632Y-15833250D01*
X15789156Y-15823727D01*
X15808204Y-15814203D01*
X15836775Y-15814203D01*
X15855823Y-15823727D01*
X15865347Y-15833250D01*
X15874870Y-15852298D01*
X15874870Y-15909441D01*
X15865347Y-15928488D01*
X15855823Y-15938012D01*
X15836775Y-15947536D01*
X15808204Y-15947536D01*
X15932013Y-15814203D02*
X16008204Y-15814203D01*
X15960585Y-15747536D02*
X15960585Y-15918965D01*
X15970108Y-15938012D01*
X15989156Y-15947536D01*
X16008204Y-15947536D01*
X16227251Y-15814203D02*
X16227251Y-16014203D01*
X16227251Y-15823727D02*
X16246299Y-15814203D01*
X16284394Y-15814203D01*
X16303442Y-15823727D01*
X16312966Y-15833250D01*
X16322489Y-15852298D01*
X16322489Y-15909441D01*
X16312966Y-15928488D01*
X16303442Y-15938012D01*
X16284394Y-15947536D01*
X16246299Y-15947536D01*
X16227251Y-15938012D01*
X16436775Y-15947536D02*
X16417728Y-15938012D01*
X16408204Y-15918965D01*
X16408204Y-15747536D01*
X16598680Y-15947536D02*
X16598680Y-15842774D01*
X16589156Y-15823727D01*
X16570108Y-15814203D01*
X16532013Y-15814203D01*
X16512966Y-15823727D01*
X16598680Y-15938012D02*
X16579632Y-15947536D01*
X16532013Y-15947536D01*
X16512966Y-15938012D01*
X16503442Y-15918965D01*
X16503442Y-15899917D01*
X16512966Y-15880869D01*
X16532013Y-15871346D01*
X16579632Y-15871346D01*
X16598680Y-15861822D01*
X16665347Y-15814203D02*
X16741537Y-15814203D01*
X16693918Y-15747536D02*
X16693918Y-15918965D01*
X16703442Y-15938012D01*
X16722489Y-15947536D01*
X16741537Y-15947536D01*
X16884394Y-15938012D02*
X16865347Y-15947536D01*
X16827251Y-15947536D01*
X16808204Y-15938012D01*
X16798680Y-15918965D01*
X16798680Y-15842774D01*
X16808204Y-15823727D01*
X16827251Y-15814203D01*
X16865347Y-15814203D01*
X16884394Y-15823727D01*
X16893918Y-15842774D01*
X16893918Y-15861822D01*
X16798680Y-15880869D01*
X17065347Y-15947536D02*
X17065347Y-15747536D01*
X17065347Y-15938012D02*
X17046299Y-15947536D01*
X17008204Y-15947536D01*
X16989156Y-15938012D01*
X16979632Y-15928488D01*
X16970109Y-15909441D01*
X16970109Y-15852298D01*
X16979632Y-15833250D01*
X16989156Y-15823727D01*
X17008204Y-15814203D01*
X17046299Y-15814203D01*
X17065347Y-15823727D01*
X17141537Y-16023727D02*
X17151061Y-16014203D01*
X17170109Y-15985631D01*
X17179632Y-15966584D01*
X17189156Y-15938012D01*
X17198680Y-15890393D01*
X17198680Y-15852298D01*
X17189156Y-15804679D01*
X17179632Y-15776108D01*
X17170109Y-15757060D01*
X17151061Y-15728488D01*
X17141537Y-15718965D01*
M02*
