M48
; DRILL file {KiCad (6.0.7)} date Wed May 24 13:21:00 2023
; FORMAT={-:-/ absolute / metric / decimal}
; #@! TF.CreationDate,2023-05-24T13:21:00-04:00
; #@! TF.GenerationSoftware,Kicad,Pcbnew,(6.0.7)
; #@! TF.FileFunction,Plated,1,2,PTH
FMAT,2
METRIC
; #@! TA.AperFunction,Plated,PTH,ViaDrill
T1C0.400
; #@! TA.AperFunction,Plated,PTH,ComponentDrill
T2C0.600
; #@! TA.AperFunction,Plated,PTH,ComponentDrill
T3C1.000
; #@! TA.AperFunction,Plated,PTH,ComponentDrill
T4C1.016
; #@! TA.AperFunction,Plated,PTH,ComponentDrill
T5C4.000
%
G90
G05
T1
X106.68Y-88.9
X106.68Y-93.98
X106.68Y-99.06
X106.68Y-104.14
X106.68Y-109.22
X106.68Y-114.3
X106.68Y-118.11
X106.68Y-123.19
X106.68Y-133.35
X106.68Y-138.43
X106.68Y-144.78
X111.76Y-88.9
X111.76Y-93.98
X111.76Y-99.06
X111.76Y-104.14
X111.76Y-109.22
X111.76Y-114.3
X111.76Y-133.35
X111.76Y-138.43
X114.3Y-144.78
X114.3Y-149.86
X114.757Y-121.742
X114.783Y-120.218
X119.38Y-73.66
X119.38Y-78.74
X119.38Y-83.82
X119.38Y-144.78
X119.38Y-149.86
X119.863Y-128.092
X119.863Y-142.646
X124.46Y-73.66
X124.46Y-78.74
X124.46Y-83.82
X124.46Y-99.06
X124.46Y-104.14
X124.46Y-144.78
X124.46Y-149.86
X129.54Y-99.06
X129.54Y-104.14
X129.54Y-114.3
X129.54Y-119.38
X129.54Y-124.46
X129.54Y-144.78
X129.54Y-149.86
X132.156Y-114.579
X132.334Y-116.078
X132.893Y-126.873
X133.172Y-121.717
X134.548Y-121.022
X134.62Y-99.06
X134.62Y-104.14
X134.62Y-144.78
X134.62Y-149.86
X134.772Y-125.349
X135.636Y-122.758
X135.636Y-123.757
X136.575Y-124.925
X136.6Y-117.125
X137.825Y-115.95
X137.825Y-126.94
X137.897Y-114.275
X139.025Y-127.625
X139.32Y-115.27
X139.7Y-93.98
X139.7Y-99.06
X139.7Y-104.14
X139.7Y-144.78
X139.7Y-149.86
X140.261Y-114.934
X140.449Y-112.176
X141.417Y-115.766
X142.24Y-64.77
X142.24Y-69.85
X144.45Y-117.325
X144.78Y-93.98
X144.78Y-99.06
X144.78Y-104.14
X144.78Y-132.08
X144.78Y-139.7
X144.78Y-144.78
X144.78Y-149.86
X145.775Y-113.125
X145.939Y-112.139
X145.948Y-114.808
X145.974Y-126.289
X147.32Y-64.77
X147.32Y-69.85
X149.86Y-93.98
X149.86Y-99.06
X149.86Y-104.14
X149.86Y-109.22
X149.86Y-114.3
X149.86Y-119.38
X149.86Y-124.46
X149.86Y-132.08
X149.86Y-137.16
X149.86Y-139.7
X149.86Y-144.78
X149.86Y-149.86
X152.4Y-64.77
X152.4Y-69.85
X152.4Y-73.66
X152.4Y-78.74
X152.4Y-83.82
X152.4Y-88.9
X153.391Y-144.221
X157.48Y-64.77
X157.48Y-69.85
X157.48Y-73.66
X157.48Y-78.74
X157.48Y-83.82
X157.48Y-88.9
X159.08Y-142.545
X162.56Y-73.66
X162.56Y-78.74
X162.56Y-83.82
X162.56Y-88.9
X162.56Y-93.98
X162.56Y-99.06
X162.56Y-104.14
X162.56Y-109.22
X162.56Y-114.3
X162.56Y-119.38
X162.56Y-124.46
X162.56Y-129.54
X166.04Y-125.349
X167.081Y-119.024
X167.589Y-110.16
X167.64Y-73.66
X167.64Y-78.74
X167.64Y-139.7
X168.385Y-89.865
X172.72Y-64.77
X172.72Y-69.85
X172.72Y-73.66
X172.72Y-139.7
X172.72Y-144.78
X172.72Y-149.86
X176.53Y-127.0
X176.53Y-132.08
X177.13Y-92.608
X177.8Y-64.77
X177.8Y-69.85
X177.8Y-73.66
X177.8Y-139.7
X177.8Y-144.78
X177.8Y-149.86
X182.88Y-64.77
X182.88Y-69.85
X182.88Y-73.66
X182.88Y-144.78
X182.88Y-149.86
X184.457Y-117.789
X186.01Y-119.786
X186.755Y-119.013
X186.788Y-122.834
X186.839Y-106.302
X187.477Y-115.697
X187.554Y-119.792
X187.567Y-126.67
X187.96Y-64.77
X187.96Y-150.774
X188.316Y-114.859
X188.345Y-127.889
X188.387Y-120.828
X189.124Y-129.184
X189.163Y-114.046
X189.509Y-107.865
X189.541Y-99.555
X189.557Y-97.99
X189.794Y-130.454
X189.941Y-116.891
X190.5Y-127.0
X190.748Y-114.001
X190.821Y-78.855
X191.337Y-71.487
X191.35Y-95.073
X191.364Y-125.225
X191.874Y-78.855
X191.996Y-112.333
X191.998Y-98.599
X192.0Y-68.45
X192.0Y-90.37
X192.439Y-75.731
X192.507Y-114.148
X192.656Y-94.293
X193.04Y-83.82
X193.04Y-129.54
X193.04Y-150.774
X193.25Y-140.5
X193.3Y-91.15
X193.472Y-135.103
X193.937Y-98.591
X194.471Y-117.363
X195.254Y-118.334
X195.58Y-83.82
X195.58Y-127.0
X195.725Y-141.475
X196.034Y-117.375
X196.551Y-98.478
X196.555Y-144.203
X196.683Y-120.3
X197.025Y-118.775
X197.333Y-101.577
X197.725Y-75.549
X198.025Y-143.075
X198.12Y-111.023
X198.12Y-129.54
X198.12Y-150.774
X198.45Y-121.175
X198.475Y-72.35
X198.5Y-94.9
X198.501Y-118.059
X198.501Y-141.097
X199.161Y-142.24
X199.263Y-119.38
X199.4Y-96.525
X199.55Y-73.65
X200.66Y-83.82
X201.219Y-119.38
X201.244Y-115.57
X201.275Y-73.65
X201.275Y-92.725
X201.275Y-96.525
X201.35Y-69.85
X201.397Y-138.43
X201.397Y-142.24
X202.125Y-66.475
X202.275Y-89.225
X202.565Y-135.103
X202.675Y-85.079
X203.2Y-150.774
X203.53Y-107.899
X203.85Y-79.0
X203.85Y-134.914
X203.85Y-144.257
X203.86Y-84.309
X203.925Y-98.564
X203.925Y-114.263
X203.925Y-121.125
X204.47Y-110.49
X204.927Y-149.41
X204.936Y-128.863
X204.936Y-147.853
X205.689Y-81.178
X205.715Y-107.874
X205.715Y-129.642
X205.715Y-148.632
X207.01Y-72.39
X207.01Y-77.47
X207.467Y-81.178
X207.493Y-108.661
X207.493Y-128.863
X207.493Y-147.853
X208.28Y-66.04
X208.28Y-150.774
X208.509Y-107.857
X208.686Y-89.51
X209.296Y-147.853
X209.39Y-128.855
X210.083Y-78.994
X210.1Y-90.932
X210.109Y-114.249
X210.168Y-125.992
X210.17Y-98.55
X210.17Y-121.626
X210.175Y-75.625
X210.21Y-134.925
X211.455Y-117.399
X211.48Y-120.784
X211.525Y-71.65
X211.55Y-90.925
X211.55Y-94.975
X211.557Y-113.944
X211.696Y-104.706
X212.445Y-103.944
X212.674Y-142.24
X212.7Y-138.43
X212.725Y-146.05
X212.925Y-73.65
X212.95Y-70.1
X213.031Y-85.079
X213.193Y-103.169
X213.36Y-66.04
X213.36Y-150.774
X213.6Y-97.769
X213.85Y-74.43
X213.939Y-102.394
X214.071Y-127.305
X214.084Y-85.079
X214.214Y-143.208
X214.732Y-134.154
X214.736Y-136.779
X214.859Y-126.492
X214.993Y-143.916
X215.519Y-131.039
X215.519Y-135.941
X215.798Y-127.305
X215.95Y-74.325
X216.293Y-136.83
X216.298Y-133.172
X216.696Y-140.093
X217.449Y-133.951
X217.575Y-88.255
X218.259Y-102.842
X218.266Y-101.774
X218.268Y-103.937
X218.44Y-150.774
X218.719Y-128.083
X218.975Y-75.65
X219.178Y-147.341
X219.443Y-124.426
X219.546Y-98.475
X219.939Y-111.227
X220.068Y-75.663
X220.231Y-147.315
X220.6Y-124.455
X220.95Y-71.65
X221.107Y-74.805
X221.175Y-98.591
X221.35Y-90.925
X221.394Y-136.765
X221.396Y-113.936
X222.02Y-71.655
X222.021Y-117.221
X222.143Y-75.692
X222.417Y-91.081
X222.538Y-136.711
X222.825Y-148.625
X222.925Y-74.85
X222.925Y-84.511
X222.961Y-111.227
X223.1Y-71.65
X223.139Y-117.221
X223.52Y-106.68
X223.52Y-129.54
X223.52Y-149.86
X223.622Y-138.633
X223.75Y-82.936
X223.763Y-76.525
X224.282Y-88.106
X224.3Y-91.05
X224.5Y-122.15
X225.328Y-84.059
X226.186Y-84.669
X226.528Y-96.164
X226.718Y-82.936
X226.722Y-77.798
X227.306Y-94.972
X227.33Y-127.0
X227.772Y-82.949
X227.775Y-77.819
X228.307Y-74.026
X228.361Y-84.661
X228.371Y-89.814
X228.6Y-66.04
X228.6Y-137.16
X228.6Y-149.86
X228.825Y-75.65
X228.825Y-82.936
X228.998Y-73.23
X229.8Y-72.45
X230.436Y-71.61
X230.607Y-145.847
X233.68Y-66.04
X233.68Y-137.16
X233.68Y-149.86
X234.95Y-114.3
X236.22Y-127.0
X236.22Y-132.08
X236.703Y-71.625
X238.76Y-66.04
X238.76Y-149.86
X239.497Y-145.279
X240.792Y-134.188
X243.535Y-130.175
X243.662Y-120.244
X243.84Y-68.58
X243.84Y-73.66
X244.441Y-113.995
X248.92Y-73.66
X248.92Y-78.74
X248.92Y-83.82
X248.92Y-88.9
X248.92Y-93.98
X248.92Y-99.06
X248.92Y-104.14
X248.92Y-109.22
X248.92Y-114.3
X248.92Y-119.38
X248.92Y-124.46
X248.92Y-129.54
X248.92Y-134.62
X248.92Y-139.7
T3
X115.627Y-133.289
X115.627Y-135.829
X115.627Y-138.369
X115.627Y-140.909
X115.672Y-108.351
X115.672Y-110.891
X115.678Y-90.475
X115.678Y-93.015
X115.678Y-95.555
X115.678Y-98.095
X115.678Y-100.635
X115.678Y-103.175
X135.636Y-131.76
X135.636Y-134.3
X135.636Y-136.84
X140.475Y-131.735
X140.475Y-134.275
X140.475Y-136.815
X170.917Y-83.477
X170.917Y-86.017
X170.917Y-88.557
X170.917Y-91.097
X170.917Y-93.637
X170.917Y-96.177
X170.917Y-98.717
X170.917Y-101.257
X170.917Y-103.797
X170.917Y-106.337
X170.917Y-108.877
X170.917Y-111.417
X170.917Y-113.957
X170.917Y-116.497
X170.917Y-119.037
X170.917Y-121.577
X170.917Y-124.117
X170.917Y-126.657
X170.917Y-129.197
X170.917Y-131.737
X173.457Y-83.477
X173.457Y-86.017
X173.457Y-88.557
X173.457Y-91.097
X173.457Y-93.637
X173.457Y-96.177
X173.457Y-98.717
X173.457Y-101.257
X173.457Y-103.797
X173.457Y-106.337
X173.457Y-108.877
X173.457Y-111.417
X173.457Y-113.957
X173.457Y-116.497
X173.457Y-119.037
X173.457Y-121.577
X173.457Y-124.117
X173.457Y-126.657
X173.457Y-129.197
X173.457Y-131.737
X180.061Y-83.477
X180.061Y-86.017
X180.061Y-88.557
X180.061Y-91.097
X180.061Y-93.637
X180.061Y-96.177
X180.061Y-98.717
X180.061Y-101.257
X180.061Y-103.797
X180.061Y-106.337
X180.061Y-108.877
X180.061Y-111.417
X180.061Y-113.957
X180.061Y-116.497
X180.061Y-119.037
X180.061Y-121.577
X180.061Y-124.117
X180.061Y-126.657
X180.061Y-129.197
X180.061Y-131.737
X182.601Y-83.477
X182.601Y-86.017
X182.601Y-88.557
X182.601Y-91.097
X182.601Y-93.637
X182.601Y-96.177
X182.601Y-98.717
X182.601Y-101.257
X182.601Y-103.797
X182.601Y-106.337
X182.601Y-108.877
X182.601Y-111.417
X182.601Y-113.957
X182.601Y-116.497
X182.601Y-119.037
X182.601Y-121.577
X182.601Y-124.117
X182.601Y-126.657
X182.601Y-129.197
X182.601Y-131.737
X230.353Y-83.477
X230.353Y-86.017
X230.353Y-88.557
X230.353Y-91.097
X230.353Y-93.637
X230.353Y-96.177
X230.353Y-98.717
X230.353Y-101.257
X230.353Y-103.797
X230.353Y-106.337
X230.353Y-108.877
X230.353Y-111.417
X230.353Y-113.957
X230.353Y-116.497
X230.353Y-119.037
X230.353Y-121.577
X230.353Y-124.117
X230.353Y-126.657
X230.353Y-129.197
X230.353Y-131.737
X232.893Y-83.477
X232.893Y-86.017
X232.893Y-88.557
X232.893Y-91.097
X232.893Y-93.637
X232.893Y-96.177
X232.893Y-98.717
X232.893Y-101.257
X232.893Y-103.797
X232.893Y-106.337
X232.893Y-108.877
X232.893Y-111.417
X232.893Y-113.957
X232.893Y-116.497
X232.893Y-119.037
X232.893Y-121.577
X232.893Y-124.117
X232.893Y-126.657
X232.893Y-129.197
X232.893Y-131.737
X239.497Y-83.477
X239.497Y-86.017
X239.497Y-88.557
X239.497Y-91.097
X239.497Y-93.637
X239.497Y-96.177
X239.497Y-98.717
X239.497Y-101.257
X239.497Y-103.797
X239.497Y-106.337
X239.497Y-108.877
X239.497Y-111.417
X239.497Y-113.957
X239.497Y-116.497
X239.497Y-119.037
X239.497Y-121.577
X239.497Y-124.117
X239.497Y-126.657
X239.497Y-129.197
X239.497Y-131.737
X242.037Y-83.477
X242.037Y-86.017
X242.037Y-88.557
X242.037Y-91.097
X242.037Y-93.637
X242.037Y-96.177
X242.037Y-98.717
X242.037Y-101.257
X242.037Y-103.797
X242.037Y-106.337
X242.037Y-108.877
X242.037Y-111.417
X242.037Y-113.957
X242.037Y-116.497
X242.037Y-119.037
X242.037Y-121.577
X242.037Y-124.117
X242.037Y-126.657
X242.037Y-129.197
X242.037Y-131.737
T4
X156.732Y-92.601
X156.732Y-95.141
X156.732Y-97.681
X156.732Y-100.221
X156.732Y-102.761
X156.732Y-105.301
X156.732Y-107.841
X156.732Y-110.381
X156.732Y-112.921
X156.732Y-115.461
X156.732Y-118.001
X156.732Y-120.541
X156.732Y-123.081
X156.732Y-125.621
X156.732Y-128.161
X156.732Y-130.701
X156.732Y-133.241
X156.732Y-135.781
X156.732Y-138.321
X156.732Y-140.861
X159.272Y-92.601
X159.272Y-95.141
X159.272Y-97.681
X159.272Y-100.221
X159.272Y-102.761
X159.272Y-105.301
X159.272Y-107.841
X159.272Y-110.381
X159.272Y-112.921
X159.272Y-115.461
X159.272Y-118.001
X159.272Y-120.541
X159.272Y-123.081
X159.272Y-125.621
X159.272Y-128.161
X159.272Y-130.701
X159.272Y-133.241
X159.272Y-135.781
X159.272Y-138.321
X159.272Y-140.861
T5
X107.95Y-76.962
X107.95Y-84.328
X117.119Y-66.751
X126.517Y-66.751
X135.865Y-66.751
T2
X108.52Y-116.686G85X107.92Y-116.686
G05
X108.52Y-125.326G85X107.92Y-125.326
G05
X112.95Y-116.686G85X111.85Y-116.686
G05
X112.95Y-125.326G85X111.85Y-125.326
G05
T0
M30
